<?xml version="1.0" standalone="no"?>
<!DOCTYPE svg PUBLIC "-//W3C//DTD SVG 20010904//EN"
 "http://www.w3.org/TR/2001/REC-SVG-20010904/DTD/svg10.dtd">
<svg version="1.0" xmlns="http://www.w3.org/2000/svg"
 width="400.000000pt" height="400.000000pt" viewBox="0 0 400.000000 400.000000"
 preserveAspectRatio="xMidYMid meet">
<metadata>
Created by potrace 1.11, written by Peter Selinger 2001-2013
</metadata>
<g transform="translate(0.000000,400.000000) scale(0.100000,-0.100000)"
fill="#000000" stroke="none">
<path d="M1965 3823 c-70 -6 -236 -44 -309 -70 -345 -124 -620 -410 -848 -882
-74 -154 -512 -1116 -554 -1218 -65 -157 -131 -356 -158 -474 -32 -141 -36
-332 -10 -433 57 -222 248 -375 574 -460 243 -63 484 -88 854 -90 l279 -1 -2
255 -2 255 42 40 c23 22 59 66 80 98 l38 58 9 -38 c6 -21 13 -54 16 -73 9 -54
46 -449 47 -505 l1 -50 9 40 c11 54 10 289 -1 455 -5 74 -8 136 -6 137 2 2 25
-33 52 -79 30 -50 76 -109 117 -149 62 -61 71 -74 102 -161 26 -75 55 -207 55
-257 0 -4 75 1 168 11 761 80 1200 283 1368 633 44 91 43 106 -7 141 -42 29
-118 117 -205 239 -121 169 -198 326 -214 436 -33 225 -69 370 -169 693 -23
71 -39 131 -37 133 8 9 103 -153 172 -293 48 -97 99 -225 145 -365 94 -278
137 -346 283 -441 63 -41 92 -49 82 -22 -3 9 -6 22 -6 29 0 7 -25 44 -55 81
-147 178 -201 304 -284 659 -26 108 -63 191 -132 291 -71 102 -145 168 -274
242 -127 72 -233 159 -325 266 -35 41 -65 74 -66 73 -1 -1 8 -39 22 -85 28
-98 48 -209 69 -392 17 -151 44 -539 45 -642 l0 -68 -82 61 c-45 33 -94 67
-110 75 -26 14 -25 10 21 -58 83 -124 247 -468 270 -569 26 -110 3 -312 -49
-447 -88 -225 -261 -325 -461 -266 -177 53 -313 171 -398 346 -54 110 -86 226
-97 347 l-7 74 -42 -114 c-119 -324 -246 -508 -403 -582 -55 -26 -71 -29 -135
-25 -88 4 -140 28 -246 111 -126 100 -228 207 -257 272 -47 103 -43 244 12
378 12 32 67 118 122 191 54 73 121 177 149 232 49 95 108 243 100 250 -2 2
-17 -15 -34 -39 -30 -41 -154 -169 -159 -164 -4 4 33 177 71 327 29 115 109
401 175 623 5 16 5 27 -1 27 -6 0 -53 -42 -106 -92 -152 -148 -240 -295 -402
-675 -33 -79 -95 -213 -136 -299 -41 -87 -75 -160 -75 -163 0 -3 21 15 46 39
99 95 280 416 380 672 21 53 41 95 46 92 4 -3 8 -49 8 -102 0 -189 -31 -366
-92 -525 -22 -58 -55 -112 -126 -205 -147 -197 -189 -303 -180 -468 4 -67 11
-105 31 -152 25 -57 26 -65 14 -95 -8 -18 -31 -47 -51 -65 -75 -65 -282 -152
-365 -152 -82 0 -141 57 -162 158 -14 69 2 229 32 329 20 63 152 373 273 643
42 91 69 173 102 304 50 200 103 346 205 568 84 185 112 228 192 305 71 69
158 116 249 138 72 17 226 20 279 5 28 -8 54 -6 105 6 239 55 502 57 773 5
l95 -19 130 33 c123 31 262 55 419 73 l67 7 -20 40 c-54 107 -209 279 -319
354 -208 141 -494 202 -816 174z"/>
<path d="M1733 2863 c-93 -63 -146 -176 -147 -313 -1 -151 60 -240 164 -240
87 0 165 70 211 187 32 83 34 240 2 298 -36 67 -66 88 -131 93 -50 3 -62 0
-99 -25z m156 -169 c73 -51 64 -224 -14 -293 -68 -60 -155 -31 -171 56 -28
150 91 303 185 237z"/>
<path d="M2289 2861 c-90 -56 -144 -173 -144 -311 0 -103 21 -166 71 -210 29
-25 43 -30 86 -30 136 0 241 149 242 345 0 76 -3 98 -24 140 -48 97 -141 123
-231 66z m164 -171 c72 -57 55 -233 -29 -299 -38 -30 -98 -28 -129 3 -34 34
-48 94 -35 152 29 130 122 199 193 144z"/>
<path d="M1790 1964 c-57 -11 -91 -27 -110 -51 -45 -58 -11 -171 82 -269 71
-75 135 -107 213 -107 158 -1 276 96 305 250 11 55 10 66 -6 100 -30 60 -88
75 -294 79 -91 1 -176 0 -190 -2z"/>
</g>
</svg>
