<?xml version="1.0" standalone="no"?>
<!DOCTYPE svg PUBLIC "-//W3C//DTD SVG 20010904//EN"
 "http://www.w3.org/TR/2001/REC-SVG-20010904/DTD/svg10.dtd">
<svg version="1.0" xmlns="http://www.w3.org/2000/svg"
 width="700.000000pt" height="700.000000pt" viewBox="0 0 700.000000 700.000000"
 preserveAspectRatio="xMidYMid meet">
<metadata>
Created by potrace 1.11, written by Peter Selinger 2001-2013
</metadata>
<g transform="translate(0.000000,700.000000) scale(0.100000,-0.100000)"
fill="#000000" stroke="none">
<path d="M2871 6820 c-85 -21 -145 -94 -170 -206 -15 -67 -51 -111 -97 -120
-51 -9 -74 0 -144 62 -80 70 -110 83 -180 79 -156 -7 -325 -166 -322 -302 0
-42 10 -69 46 -136 50 -92 54 -112 30 -163 -23 -47 -57 -63 -156 -69 -101 -6
-145 -22 -186 -69 -36 -42 -49 -84 -60 -196 -14 -144 -5 -187 50 -241 37 -35
77 -55 158 -76 74 -19 97 -36 111 -82 16 -54 8 -78 -52 -146 -65 -74 -89 -125
-89 -190 0 -91 88 -224 190 -287 46 -28 63 -33 115 -33 52 1 71 6 136 43 85
47 128 53 172 23 49 -32 60 -58 63 -145 2 -85 11 -120 45 -168 22 -30 82 -63
134 -73 73 -14 224 -17 258 -6 50 17 111 89 127 148 32 124 49 152 105 170 43
14 79 -1 158 -68 40 -33 84 -61 107 -67 156 -39 391 139 390 297 0 32 -10 63
-30 101 -69 125 -73 145 -46 201 23 49 46 59 143 65 107 6 168 31 204 82 36
50 48 98 55 223 6 93 4 111 -14 152 -26 58 -86 98 -182 122 -56 14 -76 24
-100 51 -31 36 -33 42 -30 84 2 30 17 55 65 106 113 123 105 254 -24 396 -64
70 -139 111 -201 111 -46 -1 -121 -32 -183 -75 -54 -39 -156 0 -176 66 -5 17
-9 61 -10 99 -2 119 -46 179 -158 216 -72 24 -199 34 -252 21z m164 -741 c167
-45 314 -194 360 -365 15 -55 23 -224 11 -243 -3 -4 -8 -23 -11 -42 -18 -106
-122 -253 -226 -320 -193 -123 -502 -87 -665 78 -161 164 -197 446 -82 652 71
127 188 210 348 246 61 14 201 11 265 -6z"/>
<path d="M4965 5910 c-11 -4 -23 -6 -26 -4 -4 2 -25 -14 -47 -35 -34 -33 -42
-50 -56 -114 -14 -61 -23 -81 -47 -102 -41 -34 -74 -32 -137 10 -86 57 -144
63 -225 25 -87 -41 -157 -138 -157 -219 0 -46 4 -56 68 -174 38 -71 -4 -127
-110 -148 -125 -25 -162 -78 -161 -231 2 -129 13 -162 71 -199 25 -16 53 -29
62 -29 44 0 119 -32 135 -57 26 -39 21 -73 -21 -139 -70 -110 -58 -199 42
-297 90 -89 186 -100 286 -34 60 40 88 46 131 28 30 -12 51 -50 61 -116 11
-62 46 -117 89 -139 29 -14 61 -18 136 -18 164 0 205 26 236 152 28 115 77
155 146 119 19 -9 56 -29 83 -43 56 -29 118 -34 169 -12 50 21 122 91 146 141
40 85 35 131 -24 226 -41 68 -44 97 -10 137 20 23 41 33 102 48 135 31 175 97
160 266 -13 136 -43 171 -169 197 -69 15 -118 55 -118 97 0 15 19 59 42 97 34
57 41 77 41 118 -2 106 -98 224 -203 248 -64 14 -103 4 -185 -48 -61 -39 -94
-39 -133 -3 -23 22 -33 44 -43 91 -24 125 -78 165 -224 167 -49 1 -99 -1 -110
-6z m230 -585 c170 -48 297 -221 297 -405 1 -128 -41 -230 -125 -307 -94 -86
-189 -123 -317 -124 -244 0 -446 247 -403 495 31 180 147 301 333 350 61 16
139 13 215 -9z"/>
<path d="M928 5148 c-94 -12 -137 -55 -159 -159 -15 -73 -37 -107 -76 -120
-28 -9 -39 -7 -71 10 -148 79 -157 82 -238 54 -68 -23 -156 -111 -173 -175
-17 -62 -8 -109 35 -180 47 -77 50 -111 16 -149 -20 -22 -44 -34 -90 -44 -130
-30 -163 -67 -170 -186 -11 -192 18 -245 153 -279 87 -22 121 -47 131 -95 4
-22 -1 -40 -20 -68 -62 -91 -77 -160 -50 -226 21 -51 80 -118 127 -145 83 -49
157 -44 241 15 93 66 152 37 185 -90 35 -135 71 -160 229 -159 140 0 179 17
213 93 9 22 20 57 23 78 8 49 19 70 52 96 32 25 73 21 124 -14 87 -60 147 -68
225 -31 89 41 156 133 161 222 2 46 -2 60 -42 128 -37 61 -44 81 -39 106 9 40
55 77 107 85 96 16 152 54 169 117 16 63 12 205 -9 258 -18 46 -76 82 -154 94
-54 8 -83 24 -101 56 -24 41 -22 52 27 136 40 68 44 82 41 129 -5 82 -48 148
-131 206 -80 55 -160 49 -257 -18 -83 -58 -153 -20 -176 94 -6 34 -22 76 -34
94 -38 57 -145 83 -269 67z m225 -598 c288 -108 368 -502 143 -708 -132 -120
-320 -154 -470 -84 -275 129 -338 499 -120 703 116 108 299 145 447 89z"/>
<path d="M3295 4341 c-69 -17 -152 -76 -192 -136 -32 -47 -52 -127 -54 -219
-3 -140 -28 -185 -134 -236 -112 -55 -159 -46 -270 55 -113 102 -188 134 -295
129 -43 -2 -80 -12 -118 -30 -68 -33 -81 -44 -210 -169 -76 -74 -111 -116
-133 -161 -69 -140 -42 -296 72 -419 113 -121 127 -160 91 -248 -7 -16 -12
-30 -12 -33 0 -16 -58 -87 -90 -109 -33 -23 -50 -27 -144 -31 -158 -7 -240
-40 -299 -118 -63 -82 -68 -106 -73 -331 -5 -239 16 -317 107 -399 57 -52 114
-75 201 -81 140 -10 174 -16 206 -35 69 -42 132 -173 117 -243 -9 -38 -32 -73
-102 -149 -79 -86 -114 -165 -114 -260 -1 -114 44 -192 201 -348 138 -139 187
-164 315 -165 82 0 96 3 155 33 36 18 96 61 135 97 38 36 82 69 96 74 84 29
249 -45 280 -127 6 -15 13 -63 15 -107 9 -166 30 -230 98 -297 77 -77 148 -95
375 -96 209 -1 290 19 361 92 84 85 92 107 105 299 8 119 39 168 139 216 50
25 108 31 153 18 17 -6 67 -41 110 -79 112 -99 166 -123 273 -123 96 1 128 12
225 81 77 54 235 217 260 269 45 94 47 216 6 310 -10 23 -48 76 -83 116 -88
102 -101 123 -101 172 0 83 74 205 138 231 11 4 63 10 115 12 52 3 120 12 150
20 96 27 181 109 214 208 24 71 26 376 3 464 -27 103 -91 180 -180 217 -44 18
-76 23 -189 30 -127 7 -176 38 -225 144 -46 97 -33 155 54 251 64 70 91 108
110 150 46 107 37 208 -27 314 -38 62 -193 227 -259 274 -75 55 -172 75 -271
59 -65 -11 -126 -46 -206 -118 -86 -77 -107 -89 -162 -90 -50 -1 -95 14 -151
50 -67 44 -89 89 -96 197 -8 122 -13 152 -38 204 -45 94 -99 139 -200 166 -53
14 -401 18 -452 5z m365 -1186 c25 -4 50 -8 55 -9 276 -66 488 -231 607 -471
25 -49 64 -161 72 -202 52 -268 2 -521 -145 -733 -201 -290 -598 -436 -948
-349 -456 113 -755 572 -674 1034 53 307 281 582 563 681 152 53 330 72 470
49z"/>
<path d="M5952 4130 c-112 -31 -143 -65 -149 -168 -7 -119 -40 -146 -146 -120
-72 17 -103 11 -162 -30 -55 -39 -105 -134 -99 -192 5 -52 9 -59 66 -118 71
-73 68 -122 -9 -165 -64 -35 -89 -59 -103 -102 -26 -79 12 -215 72 -259 25
-18 43 -21 156 -25 13 -1 34 -13 49 -27 23 -23 25 -30 18 -77 -18 -136 -18
-135 6 -176 39 -70 143 -130 213 -125 45 4 76 22 128 74 44 45 65 52 105 35
22 -9 41 -31 63 -73 24 -46 40 -64 71 -77 76 -35 223 2 273 68 15 20 22 50 27
104 5 68 9 79 34 101 25 21 35 23 79 18 117 -16 150 -13 189 17 39 30 82 95
98 149 17 58 2 102 -57 168 -80 90 -75 125 25 178 76 40 94 75 88 172 -2 56
-10 87 -27 118 -36 64 -66 78 -183 86 -82 6 -111 57 -83 148 29 97 -24 189
-137 237 -84 36 -134 24 -209 -50 -72 -71 -122 -62 -171 29 -16 29 -40 60 -54
69 -40 27 -103 31 -171 13z m308 -475 c136 -29 246 -167 254 -315 10 -200
-122 -353 -317 -367 -95 -7 -162 9 -223 52 -102 73 -157 179 -157 302 1 123
70 239 175 291 94 46 176 57 268 37z"/>
</g>
</svg>
