<svg fill="none" height="300" viewBox="0 0 300 300" width="300" xmlns="http://www.w3.org/2000/svg"><path d="m219.793 168.993c6.73 2.343 26.866 2.98 36.987-7.658 5.623-5.911 7.651-12.544 8.103-23.926.433-10.914-3.474-22.009 13.148-29.617-9.1-2.329-17.36-3.532-25.582 1.899s-7.79 13.723-10.764 31.17c-3.019 17.712-15.135 21.495-15.135 21.495" fill="#f2e8e3"/><g fill="#003047"><path clip-rule="evenodd" d="m251.426 108.142c8.933-5.901 17.902-4.494 27.065-2.148.762.195 1.319.849 1.389 1.632.07.784-.361 1.526-1.076 1.854-3.978 1.82-6.613 3.797-8.377 5.831-1.751 2.019-2.711 4.173-3.231 6.461-.526 2.319-.603 4.785-.558 7.444.013.756.036 1.538.06 2.336.058 1.93.118 3.953.039 5.931-.46 11.599-2.548 18.757-8.612 25.131-5.482 5.762-13.54 8.357-20.884 9.26-7.336.902-14.353.162-18.058-1.128-.968-.337-1.48-1.395-1.143-2.363s1.395-1.48 2.363-1.143c3.026 1.053 9.441 1.803 16.386.949 6.937-.853 14.007-3.258 18.646-8.134 5.183-5.447 7.149-11.554 7.593-22.719.073-1.844.019-3.657-.037-5.528-.025-.829-.05-1.67-.064-2.53-.047-2.729.02-5.559.649-8.328.636-2.801 1.843-5.531 4.047-8.072 1.356-1.564 3.064-3.026 5.195-4.384-7.007-1.383-13.19-1.32-19.346 2.746-3.623 2.393-5.364 5.368-6.577 10-.794 3.032-1.323 6.589-1.982 11.02-.392 2.637-.83 5.583-1.398 8.912-1.581 9.274-5.573 15.012-9.267 18.44-1.837 1.703-3.581 2.819-4.884 3.514-.652.348-1.194.591-1.585.751-.195.08-.352.139-.467.18-.057.021-.104.036-.139.048l-.044.015-.015.005-.006.002h-.003s-.002.001-.541-1.724l.539 1.725c-.979.306-2.02-.24-2.325-1.219-.305-.975.237-2.013 1.21-2.322.003-.001.006-.002.008-.003l.554 1.772c-.554-1.772-.556-1.771-.556-1.771l-.001.001.003-.002c.011-.003.033-.011.065-.022.064-.023.17-.063.312-.121.284-.116.712-.306 1.243-.59 1.064-.568 2.537-1.505 4.107-2.961 3.118-2.893 6.694-7.902 8.133-16.341.524-3.08.948-5.921 1.338-8.531.688-4.614 1.269-8.506 2.11-11.718 1.37-5.234 3.523-9.12 8.122-12.158z" fill-rule="evenodd"/><path clip-rule="evenodd" d="m249.906 119.405c.157.108.255.282.267.472l.583 9.705 5.961-3.682c.148-.091.328-.116.495-.068s.307.164.384.319l3.89 7.832 3.013-1.886c.186-.117.42-.126.615-.024s.321.3.331.519c.074 1.576.121 3.193.056 4.842-.001.019-.002.038-.005.057-.154 1.147-.267 2.371-.388 3.665-.023.248-.046.499-.07.753-.148 1.567-.317 3.219-.583 4.903-.532 3.369-1.458 6.894-3.415 10.201-3.937 6.655-11.93 12.244-28.673 14.176-.024.002-.047.004-.071.004-5.63 0-9.154-.501-11.077-1.386-.969-.446-1.646-1.042-1.884-1.831-.239-.793.021-1.589.48-2.296.905-1.396 2.835-2.85 5.037-4.181 2.19-1.324 4.743-2.581 7.073-3.592.293-.329.581-.646.863-.958 2.162-2.386 4.026-4.443 5.738-8.654 1.972-4.853 3.738-12.574 5.364-26.865.027-.244.196-.448.429-.521l5.051-1.585c.181-.057.379-.027.536.081z" fill-rule="evenodd"/><path d="m141.441 266.688c-.859.157-1.67.383-2.349.621-.35.132-.573.479-.856.418-.305-.022-.577-.178-1.309-.241l-.183-.129c-.251-.738.184-1.375.638-1.706.48-.372 1.074-.184 1.542-.13.937.099 1.79.448 2.562.947z"/><path d="m156.612 268.608c-.996.146-1.953.352-2.805.572-.434.122-.772.466-1.139.408-.392-.019-.703-.177-1.466-.263l-.172-.144c-.13-.821.451-1.435.973-1.737.889-.451 2.343.071 3.243.304.488.191.961.375 1.407.64z"/><path d="m155.326 290.763c-.177.902-.519 1.758-1.099 2.501-.286.374-.564.931-1.165 1.018-.456.149-1.797-.19-1.636-.949.463-.57.541-.873.737-1.108.153-.246.557-.165.895-.325.644-.323 1.37-.749 2.079-1.258z"/><path d="m161.715 276.465c-.339.987-.827 1.91-1.524 2.711-.346.402-.667.979-1.308 1.095-.59.124-1.433.054-1.884-.644l.032-.222c.511-.573.637-.899.917-1.175.234-.287.715-.257 1.12-.455.781-.406 1.631-.891 2.47-1.447z"/><path d="m128.845 290.344c-1.386-2.202-3.967-3.639-5.346-6.012-.856-1.471-.686-4.309 1.119-5.362 1.806-1.053 5.092.189 8.545.76 2.723.45 7.824-.483 9.628 2.384 1.735 2.758-.573 5.554-1.789 7.443-1.819 2.822-1.089 8.596-4.834 9.782-2.804.888-4.152-.546-4.751-1.718-.682-1.333-.837-4.52-2.572-7.277z"/><path d="m137.598 271.93c1.868-2.182 2.144-5.011.617-6.318-1.527-1.308-4.28-.599-6.148 1.584-1.868 2.182-2.144 5.011-.617 6.318 1.527 1.308 4.28.598 6.148-1.584z"/><path d="m151.606 274.873c2.338-2.102 3.042-5.133 1.571-6.769-1.471-1.637-4.559-1.26-6.898.842-2.339 2.101-3.042 5.132-1.571 6.769s4.559 1.26 6.898-.842z"/><path d="m156.473 285.748c2.934-1.132 4.67-3.715 3.877-5.768-.792-2.053-3.812-2.799-6.746-1.667-2.933 1.132-4.669 3.714-3.877 5.767.793 2.053 3.813 2.8 6.746 1.668z"/><path d="m150.485 299.077c2.827-.509 4.83-2.526 4.473-4.505s-2.938-3.169-5.765-2.66c-2.827.51-4.829 2.527-4.473 4.505.357 1.979 2.938 3.17 5.765 2.66z"/><path d="m21.749 171.262v-1.335c0-11.631 5.7191-80.654 9.7246-111.7319-3.4337.3813-5.5307.5719-6.865.5719-3.0502 0-2.6689-1.3367-3.4314-6.4839-.3813-2.8595-.7625-4.9565-.7625-6.6744 0-3.2408 1.7157-4.0033 8.5785-4.5752l9.5339-.1907c15.0625 0 41.5673.5719 42.5205 2.4783 3.0502 6.865 12.2029 111.9229 12.2029 126.4149v1.525c-.3814 1.716-6.8651 3.432-13.5373 3.432-6.2932 0-12.777-1.716-12.9676-7.247l-.7625-23.069c-3.0502.572-6.1003.954-9.1504.954-2.6712 0-5.34-.191-7.8182-.954l-1.1439 23.069c-.1906 5.722-6.1025 7.438-12.2028 7.438-6.6744 0-13.7281-2.097-13.9188-3.622zm39.8494-49.765c1.1439-.191 1.7157.191 1.7157-2.671 0-2.86-.5718-8.769-1.525-20.9723-1.3345-19.8304-3.0502-29.7457-4.7659-29.7457-1.525 0-3.243 9.9153-4.768 29.7457-.7625 12.0123-1.3345 17.9223-1.3345 20.7813 0 3.053.5719 2.671 1.7157 2.862l4.3868.191z"/><path d="m164.75 171.834c-4.004-1.525-19.45-34.131-32.224-61.015-.382 29.363-.953 57.583-1.716 60.252-.572 2.288-6.291 3.241-12.203 3.241-6.481 0-12.965-1.144-12.965-3.05v-.191c1.715-5.912 2.097-32.414 2.097-59.68 0-27.8369-.382-56.2481-.382-64.8267v-1.9085c.191-2.8595 5.722-4.0033 11.822-4.0033 5.149 0 10.678.9532 13.156 2.2876 2.288 1.3345 30.508 66.5449 38.134 83.3229l.19-20.974c0-28.2185-.572-56.0557-.572-60.6332.191-3.0501 7.437-4.0033 13.919-4.0033 4.959 0 9.725.5718 9.915 1.1438.953 2.6689 1.335 21.165 1.335 43.0924v22.8803c0 27.838-.572 61.968-.763 63.874-.19 2.097-4.766 2.86-10.106 2.86-7.625 0-16.968-1.526-19.637-2.669z"/><path d="m208.412 171.452c-.953-3.624-1.716-46.714-1.716-82.3696 0-23.8338.381-44.4267 1.334-47.2863.191-.5718 4.769-1.3345 9.725-1.3345 6.672 0 13.919 1.1439 14.109 4.1941v1.9085c0 8.3879-.381 36.9898-.381 64.8268 0 27.456.381 53.959 2.097 59.871v.19c0 2.097-6.482 3.241-12.965 3.241-5.91 0-11.631-.953-12.203-3.241z"/><path d="m246.168 66.1524c-1.851 0-3.366-1.3463-3.534-3.1975.168-8.4164.505-15.148.673-18.3474.168-2.0195 4.88-2.8609 9.763-2.8609 5.553 0 11.445 1.178 11.445 2.8609v18.0108c0 1.8512-1.685 3.5341-3.704 3.5341z"/></g><path d="m57.3701 249.897v-.099c.8917-2.874 1.0898-14.765 1.0898-27.647v-5.875c0-.695-.943-.907-1.2464-.282-3.3519 6.91-5.874 12.252-6.5813 13.491-.099.297-2.478.495-4.8556.495-2.3777 0-4.6575-.198-4.8556-.495-2.3269-4.405-4.5151-9.02-6.6804-13.551-.3007-.629-1.2459-.411-1.2453.286.0139 15.068.1574 30.318 1.0886 33.578v.099c0 .991-3.3685 1.585-6.6389 1.585-3.0712 0-6.1436-.495-6.4408-1.684-.4953-1.784-.8917-22.692-.8917-40.825 0-13.179.2972-24.872.7926-26.457.099-.297 2.5769-.594 5.1527-.594 3.3696 0 7.1343.495 7.2333 2.08 0 .992 10.9992 22.494 12.4852 25.466 3.6668-7.63 8.3231-16.844 12.4852-24.97v-.397c.099-1.585 3.8649-2.179 7.3324-2.179 2.577 0 4.9548.396 5.0538.693.4953 1.585.6935 12.485.6935 25.169 0 18.43-.3963 40.329-.7925 42.113-.2972 1.189-3.3696 1.684-6.4408 1.684-3.3696 0-6.7378-.594-6.7378-1.684z" fill="#db5072"/><path d="m81.5469 249.897c-.4954-1.785-.8917-23.386-.8917-41.519l.099-12.981c-1.288-.198-2.2786-.297-2.873-.495-.2972-.099-.5945-2.477-.5945-5.153 0-3.368.4954-7.134 2.0805-7.134 8.1249-.198 31.7088-.198 33.4918-.694h.099c.991 0 1.585 3.469 1.585 6.837 0 3.073-.396 5.946-1.585 6.243-.495.099-10.205.495-19.2232.595l-.1982 15.161c6.0444-.099 10.4044-.198 10.9994-.396h.099c.99 0 1.585 3.368 1.585 6.638 0 3.072-.495 6.144-1.684 6.441-.198.099-4.6577.297-10.9994.397 0 5.251.099 10.205.1982 14.466 9.8102-.099 18.0342-.297 18.8272-.495h.099c.99 0 1.585 3.368 1.585 6.639 0 3.071-.495 6.143-1.684 6.441-.397.099-11.891.495-24.0792.693-3.2693 0-6.6388-.495-6.9359-1.684z" fill="#db5072"/><path d="m152.792 183.309c1.684 3.765 6.837 63.516 6.341 66.489-.297 1.684-13.575 3.764-13.773-1.983l-.396-11.989c-2.874.595-5.946.793-8.819 0l-.595 11.989c-.297 6.144-13.377 3.469-13.575 1.983-.397-2.379 2.874-41.618 5.054-58.76-5.451.496-4.757.892-5.351-3.072-.595-4.757-1.189-5.45 4.063-5.846 2.476-.198 26.456-.099 27.051 1.189zm-10.008 28.34c-1.388-20.611-3.468-20.611-4.955 0-.891 12.782-.99 12.188.199 12.287 1.585.099 2.972.099 4.657 0 1.189-.099 1.09.495.099-12.287z" fill="#db5072"/><path d="m198.075 251.185c-.595-.099-1.685-1.189-1.685-4.063-.397 2.973-3.666 4.162-4.855 4.162h-10.603c-7.728 0-13.971-6.342-13.971-14.17 0-12.089-.297-24.574-.297-36.861v-7.431c-.099-.298-.496-.397-1.09-.397l-2.082.099c-.495 0-.99-.099-1.486-.297-.594-.198-.792-1.09-.792-2.28 0-2.377.991-5.747 1.882-6.54.496-.396 2.775-.594 5.747-.594 2.675 0 5.946.198 8.621.396 2.081.199 2.28.694 2.28 1.686v48.453c0 3.964 3.269 7.234 7.233 7.234 3.865 0 6.441-1.09 6.54-4.954-.198-8.324-.297-18.926-.297-28.439 0-11.99.198-22.393.693-23.881.099-.297 2.477-.594 5.054-.594 3.467 0 7.233.495 7.332 2.181v1.089c0 6.342-.693 23.583-.693 38.843 0 10.702.297 20.511 1.585 24.772v.199c0 .891-3.369 1.486-6.738 1.486z" fill="#db5072"/><path d="m241.673 250.689c-.594-1.981-4.261-17.836-7.332-28.241-3.073 10.405-6.738 26.26-7.334 28.241-.198.496-1.684.694-3.566.694-3.667 0-8.72-.694-8.819-.991v-.396c0-3.964 7.828-31.709 9.71-36.762-1.882-4.063-9.71-27.051-9.71-30.322v-.297c.099-.297 5.053-.892 8.72-.892 1.981 0 3.467.199 3.665.694.596 1.585 4.262 14.665 7.334 23.286 3.071-8.621 6.738-21.701 7.332-23.286.198-.495 1.684-.694 3.666-.694 3.667 0 8.621.595 8.72.892v.297c0 3.271-7.728 26.259-9.711 30.322 1.983 5.053 9.711 32.699 9.711 36.762v.396c-.099.297-5.152.991-8.819.991-1.882 0-3.369-.198-3.567-.694z" fill="#db5072"/><path d="m65.2332 23.3829c-.5674 0-1.1183-.2978-1.4161-.8275-.439-.7816-.1613-1.7715.6192-2.2106 2.2189-1.2466 4.4906-2.4531 6.753-3.5867.8004-.3979 1.7751-.0765 2.1776.7251.4014.8004.0765 1.7763-.7251 2.1776-2.2154 1.1089-4.4413 2.2919-6.6142 3.5136-.2519.1412-.5248.2085-.7944.2085z" fill="#db5072"/><path d="m221.88 24.4929c-.277 0-.559-.0707-.814-.2202-4.446-2.5826-9.069-4.9709-13.741-7.1003-.815-.3708-1.175-1.3336-.804-2.1494.373-.8158 1.329-1.1736 2.15-.8039 4.769 2.1729 9.487 4.6108 14.024 7.2475.776.4497 1.038 1.4431.589 2.2176-.302.5191-.845.8087-1.404.8087zm-135.6613-10.9589c-.6533 0-1.2689-.3979-1.5161-1.0441-.3202-.8369.1-1.775.937-2.0952 4.9004-1.87282 9.9501-3.52076 15.0084-4.89568.865-.2354 1.756.27545 1.991 1.13939.236.86522-.275 1.75623-1.139 1.99164-4.9556 1.34784-9.9019 2.96155-14.7021 4.79675-.1906.073-.3862.1072-.5792.1072zm107.2543-1.9776c-.173 0-.349-.0282-.522-.087-4.865-1.65624-9.869-3.0853-14.873-4.24706-.874-.20248-1.416-1.07469-1.214-1.94817.203-.87348 1.069-1.4161 1.948-1.21362 5.109 1.18655 10.218 2.64611 15.184 4.33651.849.2884 1.302 1.21006 1.014 2.05874-.23.6757-.861 1.1006-1.537 1.1006zm-77.138-6.2127c-.778 0-1.466-.56143-1.598-1.35484-.148-.88402.448-1.7209 1.332-1.86923 5.157-.8628 10.432-1.479648 15.678-1.832751.922-.087068 1.668.615577 1.728 1.509011.061.89458-.616 1.66802-1.509 1.72802-5.141.34611-10.309.95114-15.36 1.79742-.091.01525-.181.02237-.271.02237zm46.731-.85454c-.069 0-.14-.00471-.212-.01411-5.077-.65918-10.265-1.07354-15.42-1.23014-.895-.02707-1.599-.77573-1.572-1.67146.027-.895718.75-1.602048 1.671-1.57255921 5.261.16002721 10.557.58265521 15.74 1.25593921.889.11541 1.515.92992 1.4 1.81865-.106.81691-.804 1.41368-1.607 1.41368z" fill="#db5072"/><path d="m39.9953 18.718c-2.3052.4038-3.3201 5.6055-2.2669 11.6182 1.0533 6.0128 3.776 10.5596 6.0812 10.1558 2.3053-.4038 3.3202-5.6055 2.2669-11.6182s-3.7759-10.5596-6.0812-10.1558z" fill="#003047"/><path d="m43.0325 40.945c1.784-1.5147.0273-6.5149-3.9236-11.168-3.951-4.6532-8.6001-7.1974-10.3841-5.6826s-.0273 6.5149 3.9236 11.1681c3.951 4.6531 8.6001 7.1973 10.3841 5.6825z" fill="#003047"/><path d="m27.7483 42.4289c1.8272 3.7767 9.5167 3.8348 17.175.1297 7.6584-3.7051 12.6556-12.2217 11.9461-14.5732-.8543-2.8316-10.9045-2.8085-18.5629.8966s-12.3853 9.7702-10.5582 13.5469z" fill="#f2e8e3"/><path clip-rule="evenodd" d="m55.2496 24.4402c1.2978.3712 3.0439 1.1695 3.5823 2.9539.2214.7342.1699 1.49.0594 2.1043-.1166.6477-.335 1.3311-.6166 2.0155-.5642 1.3713-1.4525 2.9164-2.5877 4.4635-2.2634 3.0845-5.6698 6.3942-9.8707 8.4266-4.05 1.9594-8.1973 2.9717-11.6821 2.9454-3.3391-.0252-6.7899-1.0503-8.2302-4.0273-1.4402-2.977-.1022-6.3189 1.9504-8.9527 2.1423-2.7487 5.5101-5.3722 9.56-7.3316 4.1119-1.9893 8.8247-2.9798 12.6597-3.1031 1.911-.0614 3.7175.0884 5.1755.5055zm-5.0438 3.5912c-3.3183.1066-7.4598.9802-11.0063 2.696-3.6084 1.7458-6.4332 4.0073-8.1122 6.1616-1.7686 2.2693-1.8806 3.8483-1.4936 4.6481.3869.7997 1.6943 1.6919 4.5714 1.7136 2.7312.0206 6.2578-.7906 9.8661-2.5363 3.4574-1.6727 6.3788-4.4739 8.3512-7.1618.9827-1.3391 1.6893-2.5956 2.1019-3.5983.2068-.5026.3222-.8993.373-1.1818.0064-.0355.0114-.0673.0154-.0957-.1195-.071-.3461-.1803-.7504-.2959-.906-.2592-2.2509-.4031-3.9165-.3495z" fill="#003047" fill-rule="evenodd"/><path clip-rule="evenodd" d="m48.4154 25.8669c.6793-.3284 1.4963-.0439 1.8246.6355l3.9562 8.1848c.3284.6794.0438 1.4963-.6356 1.8247-.6793.3284-1.4963.0439-1.8246-.6355l-3.9562-8.1849c-.3284-.6793-.0438-1.4963.6356-1.8246zm-6.5995.4736c.6793-.3286 1.4963-.0444 1.8249.6349l6.1266 12.6635c.3286.6793.0444 1.4963-.6349 1.825-.6792.3286-1.4963.0443-1.8249-.6349l-6.1266-12.6636c-.3286-.6792-.0443-1.4963.6349-1.8249zm-5.7082 1.6135c.6808-.3253 1.4965-.0372 1.8218.6437l6.2152 13.0059c.3254.6808.0372 1.4965-.6436 1.8218-.6809.3254-1.4965.0372-1.8219-.6436l-6.2152-13.006c-.3253-.6808-.0371-1.4964.6437-1.8218z" fill="#003047" fill-rule="evenodd"/></svg>