<svg fill="none" height="100" viewBox="0 0 100 100" width="100" xmlns="http://www.w3.org/2000/svg"><circle cx="50" cy="50" fill="#fff" r="50"/><path d="m29.8945 77.3634h-3.8596l-.8197 1.8986h-.8819l3.2475-7.3871h.747l3.2474 7.3871h-.8715zm-.3009-.7055-1.6289-3.7974-1.6289 3.7974zm5.5857-2.7391c1.252 0 1.878.6882 1.878 2.0647v3.2785h-.8404v-3.237c0-.4842-.0969-.837-.2905-1.0583-.1937-.2283-.4981-.3424-.9131-.3424-.4841 0-.8715.1487-1.162.4461-.2905.2975-.4358.6987-.4358 1.2036v2.988h-.8403v-3.7558c0-.5395-.0277-1.0271-.083-1.4629h.7988l.083.9338c.1592-.3389.3978-.5983.7159-.7782.3182-.1867.6813-.2801 1.0894-.2801zm3.4649.1245h.8404v5.2187h-.8404zm.9442-2.2099v.9545h-1.0272v-.9545z" fill="#1f2937"/><path d="m42.0401 71.8748v.7573c0 .2906-.0484.5568-.1452.7989s-.2594.4808-.4877.7159l-.3942-.3112c.2697-.3113.4219-.6087.4565-.8923h-.498v-1.0686z" fill="#32b54e"/><path d="m50.5617 71.8748v7.3871h-.7885v-5.4885l-2.3967 5.4885h-.6018l-2.4174-5.447.0104 5.447h-.7886v-7.3871h.7056l2.8013 6.3703 2.7702-6.3703zm6.0864 4.7518h-3.8284c.0069.664.159 1.1655.4565 1.5044.3043.3389.7435.5084 1.3176.5084.6087 0 1.169-.204 1.6808-.6121l.2802.6121c-.2283.2144-.5223.3839-.8819.5084-.3528.1245-.7159.1867-1.0894.1867-.8162 0-1.456-.2386-1.9194-.7158-.4635-.4842-.6952-1.1448-.6952-1.9817 0-.5326.1038-1.0029.3113-1.411.2075-.4151.498-.7367.8715-.9649.3735-.2283.7989-.3424 1.2761-.3424.6917 0 1.2347.2282 1.629.6847.3942.4497.5913 1.0722.5913 1.8676zm-2.2099-2.0543c-.4357 0-.792.1314-1.0686.3943-.2698.2628-.4427.6329-.5188 1.1101h3.0399c-.0415-.4911-.1867-.8646-.4357-1.1205-.2421-.2559-.581-.3839-1.0168-.3839zm8.0817-.5291v5.2187h-.83v-.9441c-.1522.3251-.3839.5775-.6951.7574-.3044.1729-.6606.2593-1.0687.2593-.4634 0-.8715-.1106-1.2242-.332-.3459-.2213-.6156-.5326-.8093-.9337-.1868-.4081-.2801-.8819-.2801-1.4214 0-.5396.0968-1.0133.2905-1.4214.1936-.4151.4634-.7367.8092-.9649.3528-.2283.7574-.3424 1.2139-.3424.4081 0 .7643.0899 1.0687.2697.3043.1799.536.4323.6951.7574v-.9026zm-2.4278 4.5962c.5119 0 .9061-.1729 1.1828-.5188.2767-.3527.415-.8507.415-1.494s-.1383-1.1378-.415-1.4836c-.2767-.3459-.6709-.5188-1.1828-.5188-.5118 0-.913.1798-1.2035.5395-.2836.3528-.4254.8473-.4254 1.4837 0 .6363.1418 1.1274.4254 1.4732.2836.3459.6848.5188 1.2035.5188zm8.4207-4.5962v5.2187h-.8197v-.9026c-.166.3181-.3977.5602-.6952.7262-.2974.166-.6328.249-1.0063.249-.6156 0-1.0825-.1729-1.4007-.5187-.3182-.3459-.4772-.8577-.4772-1.5356v-3.237h.8404v3.2163c0 .4704.0968.8162.2905 1.0375.1936.2214.4876.332.8818.332.4635 0 .837-.1487 1.1206-.4461.2836-.3044.4254-.702.4254-1.1932v-2.9465zm6.237 5.2187h-1.0064l-1.6497-2.0543-1.6289 2.0543h-1.0271l2.1684-2.6872-2.0439-2.5315h1.0168l1.5147 1.9194 1.5148-1.9194h1.0272l-2.0336 2.5315z" fill="#1f2937"/><path d="m62.6625 53.6143c2.9349 5.656 2.4505 11.0325-10.7335 11.6289-15.7015.7102-15.5237-3.5508-11.3545-12.4278 2.7726-5.9053 4.2993-12.2502 11.3545-12.2502 7.0539 0 7.1853 6.2138 10.7335 13.0491z" fill="#0079bf"/><path d="m35.904 42.376c2.8994-1.4749 3.6482-5.8237 1.6726-9.7132s-5.9276-5.847-8.827-4.3721-3.6482 5.8237-1.6726 9.7132c1.9757 3.8896 5.9277 5.847 8.827 4.3721z" fill="#32b54e"/><path d="m60.7126 36.3336c3.1532.7977 6.5769-1.9846 7.6471-6.2145 1.0701-4.2299-.6185-8.3056-3.7716-9.1033-3.1532-.7978-6.5769 1.9845-7.647 6.2144-1.0702 4.2299.6184 8.3056 3.7715 9.1034z" fill="#ed2926"/><path d="m47.8552 35.5088c3.9762-.6583 6.4836-5.5162 5.6004-10.8504-.8831-5.3342-4.8224-9.1247-8.7986-8.4664-3.9762.6584-6.4835 5.5162-5.6004 10.8504.8832 5.3342 4.8225 9.1248 8.7986 8.4664z" fill="#ffc21b"/><path d="m67.3566 45.395c2.1566 1.4906 5.5252.3546 7.5241-2.5372 1.9988-2.8919 1.8709-6.4446-.2856-7.9352-2.1566-1.4906-5.5252-.3546-7.524 2.5372-1.9989 2.8919-1.871 6.4446.2855 7.9352z" fill="#00bfbf"/></svg>