<svg fill="none" height="500" viewBox="0 0 500 500" width="500" xmlns="http://www.w3.org/2000/svg"><g fill="#003047"><path d="m146.263 398.033c-.566-.469-1.162-.923-1.768-1.279-.291-.168-.659-.126-.779-.357-.157-.224-.204-.502-.577-1.046l-.014-.202c.369-.594 1.059-.655 1.548-.527.531.122.74.641.968.997.465.707.708 1.499.8 2.319z"/><path d="m153.566 409.667c-.644-.576-1.312-1.138-1.994-1.624-.332-.232-.764-.271-.932-.559-.211-.283-.277-.589-.652-1.168l.002-.202c.496-.557 1.254-.503 1.761-.313.553.191.758.748 1.01 1.152.262.41.463.837.625 1.275.145.447.287.881.356 1.341z"/><path d="m137.44 421.386c-.727.39-1.517.639-2.363.659-.423.014-.968.139-1.37-.23-.376-.243-.884-1.365-.273-1.676.66-.003.915-.122 1.189-.119.259-.034.432.293.736.437.294.138.622.265.967.386.346.139.71.225 1.091.342z"/><path d="m151.012 417.685c-.879.326-1.799.513-2.751.484-.477-.011-1.06.094-1.506-.285-.422-.339-.852-.965-.625-1.676l.173-.104c.688.029.986-.069 1.337-.032.333-.001.586.351.955.519.765.341 1.589.631 2.411.893z"/><path d="m122.975 401.999c.741-2.216.27-4.827 1.133-7.136.536-1.432 2.604-2.93 4.364-2.275 1.759.655 2.767 3.645 4.336 6.37 1.237 2.148 4.79 5.161 3.824 8.047-.928 2.775-4.185 2.763-6.19 2.993-2.996.343-6.592 4.138-9.548 2.211-2.214-1.443-1.984-3.196-1.511-4.279.538-1.233 2.664-3.155 3.592-5.931z"/><path d="m145.493 394.43c.039-1.805-2.021-3.314-4.6-3.37-2.58-.055-4.703 1.363-4.742 3.169-.039 1.805 2.021 3.314 4.601 3.37 2.579.055 4.702-1.363 4.741-3.169z"/><path d="m152.279 406.245c.3-1.954-1.72-3.885-4.512-4.314-2.791-.428-5.298.808-5.597 2.762-.3 1.954 1.72 3.885 4.512 4.314 2.791.428 5.297-.809 5.597-2.762z"/><path d="m148.111 417.99c.975-1.719-.225-4.243-2.682-5.636-2.456-1.394-5.239-1.13-6.214.589s.225 4.243 2.682 5.637c2.456 1.393 5.239 1.13 6.214-.59z"/><path d="m134.903 422.551c1.172-1.375.53-3.846-1.434-5.52-1.963-1.674-4.505-1.917-5.676-.543-1.172 1.374-.53 3.845 1.433 5.519 1.964 1.675 4.505 1.918 5.677.544z"/><path d="m261.236 435.625c-.691-.246-1.408-.468-2.1-.595-.33-.058-.662.108-.852-.068-.226-.156-.365-.401-.902-.784l-.083-.184c.144-.686.771-.979 1.274-1.027.541-.068.914.348 1.251.604.679.506 1.179 1.165 1.547 1.905z"/><path d="m272.087 444.048c-.802-.319-1.623-.619-2.43-.841-.392-.104-.81.007-1.067-.205-.295-.194-.463-.459-1.013-.874l-.068-.19c.276-.694 1.005-.904 1.547-.898.585-.01.969.442 1.344.735.386.296.723.628 1.024.983.29.371.572.73.796 1.138z"/><path d="m260.96 460.587c-.55.617-1.206 1.122-1.994 1.431-.392.158-.862.462-1.366.254-.421-.093-1.302-.97-.83-1.481.618-.229.817-.428 1.076-.52.23-.12.506.128.841.159.323.028.674.035 1.04.03.373.012.744-.032 1.142-.052z"/><path d="m272.439 452.456c-.713.608-1.514 1.099-2.418 1.399-.452.152-.964.452-1.513.248-.512-.174-1.131-.614-1.162-1.36l.127-.157c.657-.209.903-.403 1.246-.488.312-.116.67.128 1.074.16.836.057 1.708.047 2.571.011z"/><path d="m240.764 447.735c-.064-2.336-1.402-4.628-1.383-7.092.012-1.529 1.44-3.645 3.318-3.634 1.878.012 3.85 2.475 6.258 4.496 1.899 1.593 6.27 3.205 6.353 6.247.08 2.925-2.983 4.031-4.787 4.935-2.697 1.35-4.773 6.147-8.211 5.352-2.574-.596-2.96-2.322-2.887-3.501.082-1.342 1.419-3.878 1.339-6.803z"/><path d="m255.953 437.503c2.442-.832 3.95-2.893 3.367-4.602s-3.035-2.42-5.477-1.587c-2.443.832-3.95 2.893-3.367 4.602.582 1.709 3.035 2.42 5.477 1.587z"/><path d="m265.436 446.185c2.77-.555 4.7-2.577 4.311-4.515s-2.949-3.059-5.718-2.504-4.699 2.577-4.31 4.515c.388 1.938 2.948 3.059 5.717 2.504z"/><path d="m269.861 454.133c.327-1.949-1.667-3.908-4.453-4.374-2.785-.467-5.308.735-5.634 2.685-.327 1.95 1.667 3.908 4.452 4.375 2.786.466 5.309-.736 5.635-2.686z"/><path d="m259.019 462.946c.629-1.692-.822-3.793-3.24-4.692-2.419-.899-4.89-.256-5.519 1.437s.821 3.794 3.24 4.693 4.889.255 5.519-1.438z"/><path d="m368.992 394.554c-.721.14-1.449.314-2.11.557-.314.119-.514.43-.769.376-.273-.02-.518-.16-1.175-.217l-.165-.116c-.225-.663.165-1.235.573-1.532.432-.334.965-.166 1.385-.117.841.089 1.609.402 2.301.851z"/><path d="m382.62 396.278c-.853.133-1.712.294-2.52.513-.39.11-.693.419-1.022.367-.353-.016-.632-.159-1.317-.236l-.155-.129c-.117-.738.405-1.29.874-1.56.498-.307 1.059-.114 1.531-.052.946.117 1.827.443 2.646.899z"/><path d="m381.465 416.179c-.16.81-.467 1.579-.987 2.246-.258.336-.507.836-1.047.914-.409.134-1.614-.17-1.469-.851.416-.512.485-.786.661-.996.137-.221.501-.148.805-.292.292-.14.598-.312.911-.503.327-.18.624-.406.956-.627z"/><path d="m387.204 403.335c-.305.887-.743 1.717-1.369 2.435-.312.362-.6.88-1.175.984-.53.111-1.287.049-1.693-.578l.03-.2c.458-.514.571-.807.823-1.055.21-.258.642-.231 1.006-.409.748-.376 1.495-.829 2.219-1.3z"/><path d="m357.678 415.802c-1.245-1.978-3.563-3.269-4.802-5.4-.769-1.322-.616-3.87 1.006-4.816 1.621-.946 4.573.17 7.675.682 2.445.405 7.028-.433 8.648 2.142 1.559 2.477-.514 4.989-1.607 6.685-1.634 2.536-.978 7.721-4.342 8.787-2.519.798-3.729-.491-4.267-1.543-.613-1.197-.753-4.06-2.311-6.537z"/><path d="m365.541 399.262c1.678-1.96 1.926-4.501.554-5.675-1.372-1.175-3.844-.538-5.522 1.422-1.678 1.961-1.927 4.502-.555 5.676 1.372 1.175 3.845.538 5.523-1.423z"/><path d="m378.123 401.905c2.101-1.888 2.733-4.61 1.411-6.08-1.321-1.47-4.095-1.132-6.196.756-2.1 1.888-2.732 4.611-1.411 6.081s4.095 1.131 6.196-.757z"/><path d="m382.496 411.674c2.634-1.017 4.194-3.336 3.482-5.181-.712-1.844-3.425-2.514-6.06-1.497-2.635 1.016-4.194 3.336-3.482 5.18s3.425 2.515 6.06 1.498z"/><path d="m377.116 423.647c2.54-.458 4.338-2.269 4.018-4.047-.32-1.777-2.639-2.847-5.178-2.389s-4.338 2.27-4.018 4.047 2.639 2.847 5.178 2.389z"/><path d="m195.633 433.652c-.587-.442-1.205-.866-1.827-1.194-.299-.154-.664-.094-.795-.319-.168-.217-.228-.492-.626-1.018l-.024-.2c.341-.611 1.027-.705 1.522-.601.536.097.769.606 1.014.95.497.685.778 1.464.909 2.279z"/><path d="m203.481 444.925c-.67-.544-1.364-1.074-2.069-1.527-.343-.216-.775-.235-.957-.514-.224-.273-.305-.576-.707-1.136l-.008-.201c.47-.581 1.229-.563 1.744-.397.562.165.794.711 1.065 1.103.28.397.502.814.684 1.244.166.44.328.866.42 1.323z"/><path d="m187.932 457.398c-.709.425-1.486.712-2.329.772-.422.034-.961.184-1.38-.165-.388-.225-.948-1.322-.351-1.661.658-.034.907-.166 1.182-.176.255-.046.445.273.755.402.3.123.633.235.984.339.353.122.72.191 1.106.29z"/><path d="m201.312 453.056c-.862.367-1.773.598-2.725.614-.476.011-1.055.145-1.518-.213-.437-.319-.897-.923-.704-1.644l.168-.112c.689-.004.982-.116 1.334-.096.333-.017.602.323.979.473.78.304 1.617.554 2.451.777z"/><path d="m172.527 438.96c.635-2.249.041-4.835.793-7.182.467-1.456 2.461-3.051 4.25-2.48 1.789.57 2.937 3.51 4.634 6.156 1.338 2.087 5.03 4.927 4.204 7.856-.795 2.816-4.049 2.96-6.041 3.285-2.977.485-6.388 4.446-9.433 2.662-2.279-1.335-2.133-3.098-1.712-4.202.479-1.257 2.51-3.278 3.305-6.095z"/><path d="m190.075 433.719c2.579-.068 4.632-1.586 4.585-3.391s-2.176-3.214-4.756-3.147c-2.579.067-4.632 1.585-4.585 3.39.047 1.806 2.176 3.215 4.756 3.148z"/><path d="m202.001 441.806c.206-1.966-1.903-3.799-4.712-4.094s-5.254 1.06-5.46 3.026c-.207 1.966 1.903 3.798 4.712 4.093s5.253-1.059 5.46-3.025z"/><path d="m198.396 453.737c.893-1.764-.427-4.227-2.947-5.503-2.52-1.275-5.286-.879-6.179.885-.892 1.764.427 4.227 2.947 5.503 2.52 1.275 5.287.879 6.179-.885z"/><path d="m185.42 458.921c1.105-1.429.346-3.867-1.695-5.445-2.041-1.579-4.591-1.701-5.696-.273-1.105 1.429-.346 3.866 1.695 5.445s4.591 1.701 5.696.273z"/><path d="m321.186 431.291c-.735.008-1.483.048-2.177.167-.331.061-.584.331-.824.232-.265-.069-.481-.251-1.117-.426l-.141-.144c-.102-.692.385-1.184.84-1.403.484-.251.979.011 1.383.134.812.24 1.509.686 2.11 1.253z"/><path d="m334.279 435.444c-.863-.023-1.737-.02-2.572.05-.403.038-.757.287-1.071.177-.344-.08-.593-.271-1.253-.47l-.129-.155c.018-.746.631-1.195 1.141-1.377.545-.212 1.062.08 1.516.225.464.144.894.339 1.3.569.4.248.788.487 1.14.793z"/><path d="m329.554 454.81c-.302.768-.743 1.469-1.376 2.031-.313.284-.649.732-1.194.711-.429.059-1.558-.462-1.291-1.102.501-.429.619-.685.83-.861.175-.192.519-.055.843-.141.313-.085.646-.2.987-.331.355-.118.687-.288 1.054-.444z"/><path d="m337.515 443.212c-.459.817-1.04 1.554-1.786 2.148-.371.299-.748.757-1.333.756-.541.014-1.274-.185-1.56-.874l.064-.191c.544-.424.708-.691 1-.89.254-.216.674-.111 1.064-.221.803-.235 1.62-.546 2.416-.878z"/><path d="m306.224 450.09c-.867-2.17-2.915-3.857-3.749-6.177-.518-1.439.091-3.918 1.857-4.556s4.468.991 7.427 2.055c2.332.839 6.991.84 8.12 3.666 1.087 2.717-1.405 4.814-2.786 6.286-2.064 2.199-2.354 7.418-5.855 7.86-2.622.331-3.58-1.155-3.919-2.287-.387-1.288-.008-4.129-1.095-6.847z"/><path d="m316.94 435.239c2.004-1.626 2.707-4.081 1.569-5.483-1.138-1.403-3.685-1.222-5.689.404-2.004 1.625-2.706 4.08-1.568 5.482 1.138 1.403 3.684 1.222 5.688-.403z"/><path d="m328.84 440.107c2.407-1.478 3.519-4.042 2.484-5.726-1.034-1.685-3.824-1.852-6.231-.374-2.406 1.479-3.518 4.043-2.484 5.727 1.035 1.684 3.824 1.851 6.231.373z"/><path d="m331.38 450.504c2.775-.526 4.727-2.526 4.359-4.468s-2.915-3.091-5.69-2.566-4.727 2.526-4.36 4.468c.368 1.942 2.916 3.091 5.691 2.566z"/><path d="m328.612 458.055c.005-1.806-2.082-3.276-4.663-3.284-2.58-.007-4.676 1.45-4.682 3.256-.005 1.806 2.083 3.276 4.663 3.284 2.58.007 4.676-1.45 4.682-3.256z"/></g><path d="m7.66277 367.836v-.913c0-7.958 3.91333-55.188 6.65413-76.453-2.3495.261-3.7843.392-4.69748.392-2.08705 0-1.82614-.915-2.34796-4.437-.26091-1.957-.52182-3.391-.52182-4.567 0-2.217 1.17393-2.739 5.86986-3.13l6.5236-.131c10.3064 0 28.4425.391 29.0946 1.696 2.0871 4.697 8.3499 76.583 8.3499 86.5v1.043c-.2609 1.174-4.6975 2.348-9.2629 2.348-4.3062 0-8.7426-1.174-8.8731-4.958l-.5218-15.785c-2.0871.391-4.1741.652-6.2613.652-1.8277 0-3.6539-.13-5.3497-.652l-.7826 15.785c-.1304 3.915-4.1757 5.089-8.3499 5.089-4.5669 0-9.39313-1.435-9.52353-2.479zm27.26693-34.051c.7826-.131 1.1739.13 1.1739-1.828 0-1.957-.3913-6-1.0435-14.35-.9131-13.569-2.0871-20.354-3.2611-20.354-1.0435 0-2.219 6.785-3.2625 20.354-.5218 8.219-.9131 12.263-.9131 14.22 0 2.088.3913 1.827 1.1739 1.958l3.0017.13z" fill="#db5072"/><path d="m105.511 368.227c-2.739-1.043-13.3081-23.353-22.0492-41.749-.2609 20.091-.6523 39.401-1.174 41.228-.3913 1.565-4.3046 2.217-8.3498 2.217-4.435 0-8.8716-.783-8.8716-2.087v-.13c1.1739-4.046 1.4348-22.18 1.4348-40.836 0-19.048-.2609-38.488-.2609-44.358v-1.306c.1304-1.957 3.9148-2.74 8.089-2.74 3.5234 0 7.3062.653 9.002 1.566 1.5653.913 20.8757 45.533 26.0927 57.014l.131-14.352c0-19.308-.392-38.356-.392-41.488.131-2.087 5.089-2.739 9.524-2.739 3.393 0 6.654.391 6.785.782.652 1.826.913 14.482.913 29.486v15.656c0 19.048-.392 42.402-.522 43.706-.13 1.435-3.261 1.957-6.915 1.957-5.218 0-11.611-1.044-13.437-1.827z" fill="#db5072"/><path d="m135.387 367.967c-.652-2.48-1.174-31.965-1.174-56.362 0-16.308.261-30.399.913-32.356.13-.391 3.263-.913 6.654-.913 4.566 0 9.524.783 9.654 2.87v1.306c0 5.739-.261 25.31-.261 44.358 0 18.787.261 36.921 1.435 40.966v.131c0 1.434-4.435 2.217-8.871 2.217-4.044 0-7.959-.652-8.35-2.217z" fill="#db5072"/><path d="m163.176 296.731c-1.435 0-2.609-1.043-2.74-2.478.131-6.523.392-11.741.522-14.221.131-1.565 3.783-2.218 7.567-2.218 4.305 0 8.872.913 8.872 2.218v13.96c0 1.435-1.306 2.739-2.871 2.739z" fill="#db5072"/><path d="m234.279 367.967v-.131c1.174-3.784 1.435-19.44 1.435-36.401v-7.736c0-.915-1.242-1.194-1.642-.37-4.413 9.098-7.734 16.131-8.665 17.762-.13.391-3.262.652-6.393.652s-6.132-.261-6.393-.652c-3.064-5.8-5.945-11.876-8.796-17.842-.396-.829-1.64-.542-1.639.377.018 19.839.207 39.918 1.433 44.21v.131c0 1.304-4.435 2.087-8.741 2.087-4.044 0-8.089-.652-8.481-2.218-.652-2.349-1.174-29.877-1.174-53.753 0-17.351.392-32.747 1.044-34.834.13-.391 3.393-.782 6.784-.782 4.437 0 9.394.652 9.524 2.739 0 1.306 14.482 29.616 16.439 33.53 4.828-10.046 10.959-22.178 16.439-32.878v-.522c.13-2.087 5.088-2.869 9.654-2.869 3.393 0 6.523.521 6.654.913.652 2.087.913 16.438.913 33.138 0 24.267-.522 53.099-1.043 55.449-.392 1.565-4.437 2.217-8.481 2.217-4.436 0-8.871-.782-8.871-2.217z" fill="#db5072"/><path d="m266.111 367.967c-.652-2.35-1.174-30.791-1.174-54.666l.131-17.091c-1.696-.261-3.001-.392-3.783-.652-.392-.131-.783-3.262-.783-6.785 0-4.435.652-9.393 2.739-9.393 10.698-.261 41.75-.261 44.097-.914h.131c1.304 0 2.087 4.567 2.087 9.002 0 4.046-.522 7.828-2.087 8.22-.652.13-13.437.652-25.31.782l-.261 19.963c7.958-.131 13.699-.261 14.482-.522h.13c1.305 0 2.087 4.435 2.087 8.741 0 4.044-.652 8.089-2.217 8.48-.261.131-6.133.392-14.482.522 0 6.915.13 13.437.26 19.048 12.917-.131 23.746-.392 24.789-.653h.13c1.305 0 2.088 4.435 2.088 8.742 0 4.043-.653 8.089-2.218 8.48-.522.13-15.656.652-31.704.913-4.304 0-8.741-.652-9.132-2.217z" fill="#db5072"/><path d="m359.916 280.293c2.217 4.958 9.002 83.628 8.35 87.543-.392 2.218-17.874 4.957-18.135-2.61l-.522-15.785c-3.784.782-7.828 1.043-11.611 0l-.784 15.785c-.391 8.089-17.612 4.567-17.873 2.61-.522-3.132 3.784-54.796 6.654-77.366-7.176.652-6.263 1.174-7.046-4.045-.782-6.263-1.565-7.176 5.35-7.698 3.261-.261 34.834-.13 35.617 1.566zm-13.177 37.314c-1.827-27.137-4.566-27.137-6.523 0-1.174 16.83-1.305 16.047.261 16.178 2.087.13 3.913.13 6.132 0 1.565-.131 1.435.652.13-16.178z" fill="#db5072"/><path d="m419.538 369.662c-.782-.13-2.219-1.565-2.219-5.349-.521 3.914-4.826 5.48-6.391 5.48h-13.961c-10.176 0-18.395-8.35-18.395-18.656 0-15.917-.391-32.356-.391-48.534v-9.785c-.131-.391-.653-.522-1.435-.522l-2.741.131c-.652 0-1.304-.131-1.957-.392-.782-.26-1.043-1.434-1.043-3.001 0-3.131 1.304-7.567 2.478-8.611.652-.522 3.654-.782 7.567-.782 3.522 0 7.828.26 11.35.521 2.741.261 3.002.913 3.002 2.219v63.797c0 5.219 4.305 9.524 9.524 9.524 5.089 0 8.48-1.435 8.611-6.522-.261-10.96-.392-24.919-.392-37.445 0-15.786.261-29.484.913-31.442.131-.391 3.261-.783 6.654-.783 4.566 0 9.524.652 9.655 2.871v1.435c0 8.35-.914 31.05-.914 51.143 0 14.09.392 27.006 2.088 32.616v.261c0 1.174-4.435 1.957-8.872 1.957z" fill="#db5072"/><path d="m476.942 369.01c-.783-2.609-5.61-23.484-9.654-37.184-4.045 13.7-8.872 34.575-9.656 37.184-.261.652-2.217.913-4.696.913-4.828 0-11.48-.913-11.611-1.304v-.522c0-5.219 10.307-41.749 12.785-48.403-2.478-5.35-12.785-35.617-12.785-39.923v-.391c.131-.392 6.653-1.174 11.481-1.174 2.609 0 4.565.261 4.826.913.784 2.087 5.611 19.308 9.656 30.66 4.044-11.352 8.871-28.573 9.654-30.66.261-.652 2.218-.913 4.826-.913 4.828 0 11.352.782 11.482 1.174v.391c0 4.306-10.176 34.573-12.786 39.923 2.61 6.654 12.786 43.053 12.786 48.403v.522c-.13.391-6.784 1.304-11.612 1.304-2.478 0-4.435-.261-4.696-.913z" fill="#db5072"/><path clip-rule="evenodd" d="m0 251.131c0-2.432 1.97114-4.403 4.40267-4.403h491.19433c2.432 0 4.403 1.971 4.403 4.403 0 2.431-1.971 4.403-4.403 4.403h-491.19433c-2.43153 0-4.40267-1.972-4.40267-4.403z" fill="#db5072" fill-rule="evenodd"/><path d="m118.596 58.0994c-2.972.5205-4.28 7.2253-2.922 14.9756 1.357 7.7503 4.867 13.611 7.838 13.0905 2.972-.5205 4.28-7.2253 2.922-14.9756-1.358-7.7502-4.867-13.611-7.838-13.0905z" fill="#003047"/><path d="m122.509 86.7497c2.299-1.9525.035-8.3975-5.058-14.3953s-11.085-9.2772-13.385-7.3247c-2.299 1.9525-.035 8.3976 5.058 14.3954 5.092 5.9978 11.085 9.2771 13.385 7.3246z" fill="#003047"/><path d="m102.809 88.6624c2.356 4.8681 12.267 4.9429 22.138.1671 9.872-4.7758 16.313-15.7533 15.399-18.7843-1.101-3.6499-14.056-3.6202-23.927 1.1556-9.872 4.7758-15.965 12.5936-13.61 17.4616z" fill="#f2e8e3"/><path clip-rule="evenodd" d="m138.257 65.4746c1.673.4786 3.924 1.5075 4.618 3.8076.285.9463.219 1.9205.076 2.7123-.15.8349-.432 1.7158-.794 2.598-.728 1.7676-1.873 3.7592-3.336 5.7534-2.917 3.9758-7.308 8.2418-12.723 10.8615-5.22 2.5256-10.566 3.8304-15.058 3.7965-4.304-.0324-8.752-1.3538-10.608-5.191-1.8568-3.8372-.132-8.1449 2.514-11.5397 2.761-3.543 7.102-6.9247 12.322-9.4503 5.3-2.5642 11.375-3.8409 16.318-3.9997 2.463-.0792 4.792.1138 6.671.6514zm-6.501 4.629c-4.277.1375-9.616 1.2635-14.187 3.4751-4.651 2.2502-8.292 5.1653-10.456 7.9422-2.28 2.925-2.424 4.9603-1.926 5.9911.499 1.0308 2.184 2.1809 5.893 2.2089 3.52.0266 8.066-1.0191 12.717-3.2693 4.457-2.1561 8.222-5.7666 10.765-9.2313 1.266-1.7261 2.177-3.3457 2.709-4.6381.266-.6478.415-1.1592.481-1.5234.008-.0457.014-.0867.019-.1232-.154-.0916-.446-.2324-.967-.3815-1.168-.3341-2.901-.5195-5.048-.4505z" fill="#003047" fill-rule="evenodd"/><path clip-rule="evenodd" d="m129.447 67.3135c.876-.4232 1.929-.0565 2.352.8192l5.1 10.5501c.423.8756.056 1.9287-.82 2.3519-.875.4233-1.928.0565-2.352-.8192l-5.099-10.55c-.423-.8757-.056-1.9287.819-2.352zm-8.506.6106c.875-.4236 1.929-.0572 2.352.8183l7.897 16.323c.424.8755.057 1.9286-.818 2.3522-.876.4236-1.929.0572-2.353-.8183l-7.897-16.323c-.423-.8755-.057-1.9286.819-2.3522zm-7.358 2.0797c.878-.4194 1.929-.0479 2.348.8297l8.012 16.7642c.419.8776.048 1.929-.83 2.3483-.878.4194-1.929.0479-2.348-.8296l-8.012-16.7643c-.419-.8776-.047-1.9289.83-2.3483z" fill="#003047" fill-rule="evenodd"/><path d="m151.169 64.1186c-.731 0-1.44-.3837-1.824-1.0663-.566-1.0072-.208-2.2828.798-2.8485 2.859-1.6062 5.786-3.161 8.701-4.6216 1.032-.5127 2.288-.0986 2.806.9344.518 1.0314.099 2.2888-.934 2.806-2.855 1.4288-5.723 2.9531-8.523 4.5275-.324.1821-.676.2685-1.024.2685z" fill="#db5072"/><path d="m353.017 65.5489c-.357 0-.719-.091-1.048-.2836-5.729-3.3279-11.687-6.4054-17.707-9.1492-1.05-.4777-1.514-1.7185-1.036-2.7696.481-1.0511 1.712-1.5123 2.771-1.0359 6.144 2.7999 12.223 5.9412 18.071 9.3387.999.5794 1.337 1.8595.758 2.8576-.388.6688-1.089 1.042-1.809 1.042zm-174.807-14.1212c-.841 0-1.635-.5127-1.953-1.3454-.413-1.0784.129-2.2873 1.207-2.6998 6.315-2.4132 12.821-4.5367 19.339-6.3083 1.115-.3033 2.263.3549 2.566 1.4682.304 1.1148-.355 2.263-1.468 2.5663-6.386 1.7367-12.759 3.8162-18.944 6.1809-.246.0941-.498.1381-.747.1381zm138.204-2.5482c-.223 0-.451-.0364-.674-.1122-6.268-2.1341-12.716-3.9754-19.164-5.4725-1.126-.2609-1.825-1.3848-1.564-2.5103s1.377-1.8247 2.51-1.5638c6.583 1.5289 13.166 3.4097 19.565 5.5878 1.094.3716 1.678 1.5593 1.306 2.6528-.296.8706-1.109 1.4182-1.979 1.4182zm-99.397-8.0054c-1.003 0-1.888-.7235-2.06-1.7459-.189-1.1391.578-2.2176 1.717-2.4086 6.645-1.1119 13.442-1.9066 20.202-2.3617 1.188-.1122 2.149.7933 2.227 1.9446.079 1.1528-.794 2.1493-1.945 2.2266-6.624.4459-13.284 1.2255-19.792 2.3161-.117.0197-.234.0289-.349.0289zm60.216-1.1012c-.09 0-.181-.006-.273-.0181-6.542-.8494-13.228-1.3833-19.87-1.5851-1.154-.0349-2.061-.9996-2.026-2.1538s.966-2.0644 2.153-2.0264c6.779.2063 13.603.7508 20.283 1.6185 1.145.1486 1.952 1.1982 1.803 2.3434-.136 1.0527-1.036 1.8215-2.07 1.8215z" fill="#db5072"/><path d="m377.711 82.4123c-.456 0-.914-.1487-1.3-.4551-2.521-2.0037-5.11-3.9649-7.696-5.829-.937-.675-1.15-1.9809-.473-2.9182.675-.9374 1.981-1.1513 2.918-.4733 2.638 1.9005 5.281 3.9026 7.854 5.9473.904.719 1.054 2.034.335 2.9379-.412.5188-1.022.7904-1.638.7904z" fill="#db5072"/><path d="m420.47 222.641c8.501 2.959 33.939 3.764 46.725-9.675 7.104-7.467 9.665-15.846 10.236-30.225.547-13.788-4.388-27.805 16.611-37.416-11.497-2.942-21.932-4.461-32.318 2.399-10.387 6.861-9.841 17.337-13.598 39.377-3.814 22.376-19.121 27.155-19.121 27.155" fill="#f2e8e3"/><path clip-rule="evenodd" d="m460.268 145.52c11.399-7.529 22.843-5.719 34.429-2.754 1.084.278 1.876 1.209 1.976 2.324s-.514 2.171-1.532 2.637c-4.997 2.287-8.287 4.762-10.481 7.291-2.177 2.51-3.37 5.184-4.017 8.034-.657 2.894-.754 5.98-.697 9.333.016.947.045 1.931.075 2.936.072 2.442.149 5.015.049 7.525-.583 14.687-3.23 23.814-10.961 31.94-6.993 7.35-17.252 10.644-26.561 11.788-9.299 1.143-18.212.21-22.947-1.438-.862-.301-1.509-1.025-1.709-1.917-.2-.891.075-1.822.726-2.463l8.536-8.384c.296-.291.656-.507 1.051-.633 0 0 .003-.001.006-.002.012-.004.038-.013.077-.027.077-.027.207-.076.381-.147.351-.144.882-.38 1.544-.733 1.324-.707 3.164-1.877 5.126-3.697 3.893-3.611 8.377-9.881 10.183-20.476.66-3.871 1.194-7.452 1.685-10.746.872-5.843 1.61-10.787 2.676-14.86 1.744-6.66 4.497-11.642 10.385-15.531zm26.41.845c-8.518-1.593-16.025-1.373-23.498 3.564-4.499 2.971-6.666 6.657-8.186 12.46-.999 3.816-1.663 8.284-2.493 13.866-.496 3.333-1.051 7.064-1.771 11.29-2.008 11.782-7.085 19.089-11.798 23.462-2.342 2.172-4.567 3.595-6.232 4.484-.833.444-1.527.756-2.029.961-.079.032-.153.062-.222.089l-4.717 4.633c4.217.668 10.025.912 16.172.157 8.731-1.074 17.584-4.097 23.377-10.186 6.477-6.807 8.952-14.439 9.51-28.509.092-2.319.024-4.592-.046-6.951-.031-1.049-.063-2.116-.082-3.211-.058-3.453.026-7.058.828-10.592.813-3.58 2.357-7.074 5.178-10.326 1.6-1.845 3.58-3.576 6.009-5.191z" fill="#003047" fill-rule="evenodd"/><path clip-rule="evenodd" d="m458.567 159.914c.223.154.363.402.38.672l.727 12.096 7.389-4.564c.211-.131.467-.166.705-.098s.437.233.547.455l4.865 9.796 3.713-2.325c.266-.166.599-.179.876-.033.277.145.456.426.471.738.093 1.98.153 4.014.072 6.088.39 8.808-2.132 20.21-9.621 29.04-7.534 8.884-20.002 15.054-39.252 13.473-.208-.017-.403-.107-.551-.255l-6.244-6.243c-.189-.19-.282-.455-.252-.721s.179-.504.406-.647c8.394-5.286 14.96-10.345 19.652-18.344 4.699-8.01 7.575-19.066 8.357-36.44.017-.369.263-.689.616-.8l6.381-2.003c.258-.081.54-.039.763.115z" fill="#003047" fill-rule="evenodd"/><path d="m28.0911 174.428c-2.3632 3.895-4.8991 7.998-7.6142 12.306-2.715 4.311-5.3116 8.824-7.7901 13.545-.4733.828-1.0617 1.239-1.7701 1.239-1.41666 0-2.12494-.709-2.12494-2.124 0-.59.17743-1.18.53085-1.771 2.94859-5.312 5.90179-10.446 8.85339-15.405 2.9501-4.957 5.782-9.677 8.4984-14.165 1.7717-3.187 3.5008-5.724 5.1905-7.612 1.6881-1.887 3.6356-2.834 5.8395-2.834 1.0436 0 1.8262.296 2.3511.885.5218.593.8737 1.271 1.0496 2.037.1774.769.1471 1.565-.088 2.39-.2381.827-.7038 1.477-1.397 1.948-1.7397 1.3-3.0168 2.628-3.8298 3.984-.813 1.358-1.274 2.832-1.3909 4.426-.1167 1.594.0303 3.248.4368 4.958.405 1.713.8964 3.453 1.4773 5.223 1.3909 4.25 2.7014 8.853 3.927 13.811 1.2256 4.957 1.3651 9.915.4217 14.872 1.7716-.47 3.4537-1.354 5.0478-2.656 1.5927-1.296 3.0365-2.743 4.338-4.338 1.2968-1.592 2.4784-3.186 3.5402-4.779 1.0617-1.594 1.9475-2.98 2.6573-4.162.5886-.943 1.1194-1.562 1.5927-1.858.4701-.294.8858-.382 1.2392-.267.9434.355 1.356 1.006 1.2392 1.949-.1183.945-.4156 1.831-.8858 2.656-.9465 1.653-2.0355 3.806-3.2747 6.461-1.2393 2.656-2.6862 5.402-4.338 8.235-2.0098 3.425-4.2212 6.081-6.6389 7.968-2.4208 1.889-4.8507 3.336-7.2912 4.338-2.4405 1.004-4.8612 1.622-7.2593 1.859-2.401.237-4.5458.353-6.4326.353-2.5968 0-4.9871-.412-7.1713-1.239-2.1842-.825-4.1013-1.947-5.7547-3.364-1.65332-1.417-2.94861-3.068-3.895-4.958-.94341-1.887-1.41666-3.895-1.41666-6.02 0-2.949.74021-5.312 2.21447-7.082 1.47427-1.772 2.86069-2.656 4.16049-2.656.7082 0 1.001.296.8842.884-.1183.593-.1183 1.241 0 1.949.1168 1.415.5006 2.539 1.1513 3.365.6477.826 1.3863 1.445 2.2129 1.858.8251.415 1.6836.65 2.5679.708.8858.061 1.6821.089 2.3905.089 1.6518 0 3.0684-.324 4.2484-.973 1.1801-.648 2.1265-1.507 2.8334-2.568.7098-1.064 1.2406-2.183 1.594-3.364.3535-1.179.5324-2.303.5324-3.365 0-4.25-.4428-8.437-1.3286-12.571-.8858-4.131-1.3287-8.853-1.3287-14.165z" fill="#003047"/><path d="m82.9799 215.152c-.7098 1.535-1.6245 3.041-2.7453 4.515-1.1224 1.478-2.3905 2.834-3.8071 4.073-1.4167 1.239-2.9821 2.243-4.6915 3.009-1.7124.769-3.5144 1.151-5.4012 1.151-4.2484 0-7.3776-1.594-9.3827-4.78-2.0066-3.187-3.0699-7.141-3.1883-11.863-.1153-4.72.6507-9.854 2.3025-15.404 1.6503-5.547 4.0103-10.683 7.0818-15.405 3.0684-4.72 6.7283-8.676 10.9783-11.864 4.2485-3.186 9.0293-4.779 14.3411-4.779 2.9501 0 5.4012 1.21 7.3487 3.63s2.9214 6.108 2.9214 11.066c.4701-.47 1.2664-1.356 2.3904-2.656 1.121-1.298 2.213-1.948 3.275-1.948 1.533 0 2.507.442 2.923 1.328.411.885.441 2.008.088 3.364-.354 1.359-.945 2.806-1.77 4.338-.829 1.535-1.772 2.951-2.834 4.25-3.0697 3.895-5.2539 7.408-6.5507 10.535-1.2999 3.128-2.0097 5.784-2.125 7.968-.1182 2.185.2943 3.868 1.2393 5.046.9434 1.18 2.2402 1.77 3.8966 1.77 2.2398 0 4.3078-.59 6.1958-1.77 1.887-1.178 3.599-2.625 5.134-4.338 1.534-1.711 2.891-3.511 4.074-5.401 1.177-1.887 2.181-3.48 3.01-4.781.588-.943 1.119-1.562 1.592-1.858.471-.294.944-.382 1.417-.267.943.355 1.356 1.006 1.241 1.949-.12.945-.416 1.831-.886 2.656-1.062 1.888-2.391 4.486-3.983 7.79-1.596 3.307-3.427 6.551-5.491 9.738-2.066 3.188-4.398 5.932-6.992 8.234-2.6 2.301-5.5515 3.452-8.8551 3.452-2.9516 0-5.6651-1.178-8.145-3.541-2.4784-2.36-4.0135-5.427-4.602-9.207zm-9.5617-2.833c2.3601 0 4.7809-1.297 7.2594-3.895 2.4783-2.596 4.7201-5.667 6.7283-9.207 2.0052-3.542 3.6585-7.199 4.9568-10.979 1.2984-3.776 1.9476-6.843 1.9476-9.206 0-3.422-.6189-5.872-1.8581-7.349-1.2393-1.474-2.8637-2.213-4.8704-2.213-2.7151 0-5.3724 1.063-7.9661 3.187-2.5981 2.125-4.8688 4.781-6.8163 7.967-1.9491 3.189-3.5144 6.613-4.6928 10.27-1.1816 3.66-1.8596 7.084-2.0356 10.27-.1789 3.187.3216 5.843 1.5047 7.968 1.177 2.125 3.1244 3.187 5.8425 3.187z" fill="#003047"/><path d="m170.801 118.299c3.422 0 5.281 1.652 5.577 4.951.293 3.297-.974 7.538-3.806 12.722-2.833 5.185-7.232 10.989-13.193 17.411-5.96 6.421-13.427 12.753-22.396 18.995-1.772 4.479-3.249 9.074-4.428 13.786-1.181 4.714-1.89 9.014-2.125 12.9-.236 3.89.088 7.1.974 9.634.886 2.533 2.568 3.798 5.047 3.798 1.651 0 3.276-.62 4.87-1.859 1.593-1.24 3.124-2.744 4.602-4.516 1.476-1.77 2.803-3.567 3.984-5.4 1.179-1.829 2.125-3.333 2.834-4.515.59-.943 1.12-1.562 1.594-1.858.47-.294.943-.382 1.416-.267.944.355 1.355 1.006 1.238 1.949-.118.945-.414 1.831-.884 2.656-1.063 1.888-2.391 4.486-3.985 7.79-1.592 3.307-3.425 6.551-5.487 9.738-2.068 3.188-4.399 5.932-6.996 8.234-2.596 2.301-5.548 3.452-8.852 3.452-4.958 0-8.648-1.883-11.066-5.654-2.421-3.771-3.631-8.782-3.631-15.028 0-5.42 1.004-11.371 3.011-17.853 2.006-6.482 4.573-13.023 7.702-19.623 3.126-6.598 6.698-12.993 10.713-19.178 4.01-6.187 8.025-11.667 12.04-16.442 4.01-4.773 7.878-8.602 11.597-11.49s6.933-4.333 9.65-4.333zm-29.923 44.443c2.594-1.887 5.251-4.131 7.966-6.729 2.715-2.595 5.313-5.311 7.792-8.145 2.479-2.832 4.78-5.665 6.905-8.498 2.124-2.834 3.835-5.339 5.135-7.525 1.297-2.183 2.125-3.954 2.48-5.312.353-1.356.057-2.037-.886-2.037-1.772 0-3.926 1.064-6.463 3.187-2.541 2.125-5.165 4.958-7.88 8.5-2.716 3.54-5.43 7.613-8.145 12.218-2.716 4.603-5.017 9.384-6.904 14.341z" fill="#003047"/><path d="m150.261 208.07c.239-4.72 1.328-9.678 3.276-14.873 1.947-5.194 4.484-9.974 7.614-14.343 3.126-4.365 6.728-7.967 10.799-10.801 4.074-2.833 8.293-4.248 12.661-4.248s7.525 1.415 9.472 4.248c1.948 2.834 3.011 6.346 3.188 10.536.176 4.191-.297 8.676-1.416 13.457-1.123 4.78-2.567 9.118-4.338 13.013 1.532.827 3.126 1.24 4.781 1.24 1.532 0 3.036-.323 4.513-.974 1.475-.648 2.861-1.474 4.162-2.479 1.299-1.001 2.449-2.094 3.453-3.276 1.001-1.178 1.859-2.301 2.568-3.364.59-.943 1.12-1.562 1.594-1.858.47-.294.884-.382 1.237-.267.944.355 1.356 1.006 1.241 1.949-.118.945-.416 1.831-.886 2.656-1.18 2.008-2.421 3.983-3.719 5.931-1.298 1.947-2.715 3.719-4.248 5.311-1.537 1.594-3.248 2.864-5.135 3.807-1.89.947-4.015 1.417-6.375 1.417-2.478 0-5.076-.59-7.79-1.77-1.416 1.888-2.894 3.69-4.427 5.4-1.535 1.712-3.187 3.247-4.957 4.603-1.772 1.359-3.719 2.451-5.843 3.276-2.126.827-4.427 1.239-6.906 1.239-3.071 0-5.549-.62-7.436-1.859-1.89-1.239-3.395-2.833-4.516-4.781-1.121-1.947-1.858-4.1-2.213-6.461-.355-2.36-.469-4.605-.354-6.729zm29.571-.532c-2.01-3.302-2.541-6.048-1.596-8.233.943-2.183 2.419-3.275 4.428-3.275 1.063 0 2.124.354 3.186 1.062 1.534-2.595 2.746-5.517 3.631-8.764.885-3.246 1.328-6.314 1.328-9.208 0-2.891-.563-5.312-1.683-7.26-1.122-1.947-2.806-2.921-5.046-2.921-3.071 0-5.932 1.092-8.586 3.276-2.658 2.184-4.96 4.869-6.908 8.056-1.947 3.187-3.54 6.701-4.78 10.535-1.238 3.838-1.919 7.347-2.036 10.536-.118 3.187.355 5.873 1.417 8.055 1.061 2.186 2.833 3.277 5.311 3.277 2.949 0 6.729-1.711 11.334-5.136z" fill="#003047"/><path d="m224.98 227.9c-2.834 0-5.136-.885-6.906-2.655-1.77-1.771-2.656-4.012-2.656-6.729 0-4.603 1.209-8.911 3.63-12.926 2.417-4.012 5.104-7.817 8.055-11.42 2.95-3.599 5.637-7.053 8.057-10.358 2.418-3.303 3.63-6.55 3.63-9.739 0-1.652-.384-2.921-1.151-3.807-.769-.884-1.623-1.327-2.567-1.327-2.008 0-3.807.769-5.401 2.301-1.594 1.536-3.159 3.661-4.691 6.375-1.535 2.716-3.219 5.993-5.048 9.827-1.831 3.837-3.983 8.116-6.462 12.836-.354.709-1.004 1.064-1.947 1.064-.71 0-1.298-.325-1.772-.974-.47-.648-.353-1.564.355-2.746 1.532-2.833 3.126-6.197 4.781-10.092 1.65-3.895 3.48-7.583 5.488-11.067 2.006-3.479 4.338-6.462 6.995-8.941 2.654-2.478 5.87-3.718 9.65-3.718 2.24 0 3.953.562 5.134 1.683 1.179 1.122 1.976 2.478 2.391 4.071.411 1.594.5 3.276.265 5.046-.238 1.771-.708 3.306-1.417 4.605 3.189-4.132 6.61-7.731 10.27-10.801 3.657-3.069 7.552-4.604 11.687-4.604.824 0 1.77.089 2.832.266 1.063.176 2.095.585 3.099 1.233 1.001.648 1.859 1.531 2.566 2.648.71 1.118 1.063 2.617 1.063 4.499 0 2.351-.561 4.675-1.682 6.968-1.122 2.294-2.451 4.557-3.983 6.792-1.535 2.236-3.071 4.441-4.605 6.615-1.535 2.175-2.715 4.264-3.54 6.261-1.301 3.295-1.389 6.295-.267 9.001 1.122 2.704 3.393 4.054 6.818 4.054 2.007 0 3.865-.619 5.577-1.858 1.711-1.239 3.276-2.715 4.693-4.428 1.417-1.709 2.683-3.479 3.807-5.311 1.119-1.828 2.093-3.334 2.921-4.514.589-.944 1.12-1.564 1.593-1.86.47-.294.886-.382 1.241-.265.943.353 1.384 1.004 1.327 1.947-.061.947-.384 1.831-.974 2.656-1.063 1.89-2.363 4.487-3.897 7.791-1.535 3.306-3.335 6.567-5.399 9.789-2.066 3.22-4.426 5.994-7.082 8.321-2.656 2.33-5.638 3.491-8.941 3.491-4.135 0-7.792-1.178-10.979-3.541-3.188-2.36-4.781-6.196-4.781-11.51 0-5.313 1.001-9.677 3.01-13.101 2.006-3.422 4.25-6.491 6.728-9.207 2.48-2.715 4.72-5.312 6.728-7.792 2.007-2.478 3.011-5.369 3.011-8.676 0-2.713-1.477-4.072-4.427-4.072-2.124 0-4.426 1.063-6.905 3.188-2.478 2.123-4.929 4.779-7.347 7.968-2.421 3.186-4.665 6.669-6.728 10.445-2.068 3.78-3.75 7.38-5.048 10.801-1.653 4.134-2.539 7.586-2.654 10.358-.12 2.776-.179 4.989-.179 6.641-.119 2.362-1.004 4.368-2.655 6.02-1.654 1.653-3.424 2.478-5.311 2.478z" fill="#003047"/><path d="m355.47 215.152c-.706 1.535-1.623 3.041-2.743 4.515-1.124 1.478-2.391 2.834-3.807 4.073-1.417 1.239-2.982 2.243-4.692 3.009-1.714.769-3.514 1.152-5.401 1.152-4.249 0-7.379-1.595-9.384-4.781-2.005-3.187-3.067-7.141-3.187-11.863-.117-4.72.651-9.854 2.301-15.404 1.653-5.547 4.013-10.683 7.083-15.405 3.067-4.72 6.729-8.676 10.978-11.864 4.249-3.186 9.03-4.779 14.342-4.779 2.95 0 5.34 1.27 7.171 3.806 1.828 2.54 2.744 6.287 2.744 11.243 1.18-2.948 2.657-6.49 4.427-10.623 1.77-4.13 3.687-8.558 5.753-13.279s4.22-9.65 6.465-14.786c2.24-5.134 4.365-10.18 6.373-15.139 1.652-3.775 3.364-6.196 5.136-7.259 1.77-1.062 3.479-1.593 5.133-1.593 2.48 0 4.043 1.15 4.692 3.452.648 2.303.267 4.692-1.149 7.172-3.425 6.02-6.701 11.835-9.829 17.44-3.127 5.607-6.169 11.096-9.119 16.467-2.951 5.373-5.873 10.742-8.764 16.113-2.894 5.372-5.815 10.889-8.763 16.554-3.307 6.258-4.724 11.009-4.25 14.254.47 3.248 2.064 4.869 4.78 4.869 2.479 0 4.721-.59 6.729-1.77 2.005-1.178 3.807-2.625 5.4-4.338 1.594-1.711 2.98-3.511 4.161-5.401 1.179-1.887 2.183-3.48 3.01-4.781.59-.943 1.121-1.562 1.594-1.858.47-.294.884-.382 1.239-.267.944.355 1.356 1.006 1.239 1.949-.118.945-.414 1.831-.884 2.656-1.063 1.888-2.363 4.487-3.895 7.79-1.536 3.307-3.337 6.551-5.401 9.738-2.067 3.188-4.488 5.932-7.261 8.234-2.774 2.301-5.93 3.453-9.471 3.453-2.953 0-5.666-1.179-8.145-3.542-2.479-2.36-4.014-5.427-4.605-9.207zm-9.561-2.833c2.36 0 4.781-1.297 7.261-3.895 2.478-2.596 4.718-5.667 6.726-9.207 2.007-3.542 3.659-7.199 4.96-10.978 1.297-3.777 1.948-6.844 1.948-9.207 0-3.422-.621-5.872-1.86-7.349-1.24-1.474-2.863-2.213-4.869-2.213-2.833 0-5.521 1.063-8.057 3.187-2.539 2.125-4.781 4.781-6.728 7.967-1.948 3.189-3.513 6.613-4.693 10.27-1.18 3.66-1.858 7.084-2.035 10.27-.176 3.187.324 5.843 1.504 7.968s3.128 3.187 5.843 3.187z" fill="#003047"/><path d="m414.43 213.382c6.492 0 11.952-1.241 16.378-3.719 4.428-2.479 8.766-6.964 13.014-13.457.59-.943 1.091-1.562 1.506-1.858.411-.294.854-.382 1.327-.267.944.355 1.356 1.006 1.241 1.949-.12.945-.415 1.831-.886 2.656-2.244 3.895-4.576 7.612-6.995 11.154-2.421 3.542-5.075 6.641-7.966 9.296-2.894 2.656-6.052 4.78-9.474 6.374-3.425 1.594-7.259 2.39-11.509 2.39-6.492 0-11.42-1.588-14.784-4.767-3.364-3.176-5.462-7.121-6.286-11.829-.825-4.71-.559-9.83.797-15.363 1.356-5.534 3.479-10.654 6.373-15.364 2.891-4.708 6.404-8.65 10.536-11.829 4.131-3.176 8.557-4.767 13.281-4.767 3.776 0 6.638.913 8.588 2.733 1.947 1.822 3.185 4.112 3.716 6.873.532 2.762.355 5.754-.531 8.986-.885 3.231-2.274 6.227-4.161 8.989-1.888 2.76-4.248 5.051-7.081 6.872-2.834 1.821-5.904 2.731-9.207 2.731-1.772 0-3.249-.205-4.428-.621-1.181-.411-2.125-.823-2.832-1.239-.709-.413-1.328-.824-1.859-1.239-.531-.413-1.094-.621-1.684-.621-.707 0-1.21.829-1.504 2.48-.296 1.654-.088 3.483.62 5.49.708 2.008 2.125 3.835 4.249 5.487 2.126 1.655 5.311 2.48 9.561 2.48zm-4.603-18.415c1.887 0 3.687-.648 5.401-1.948 1.71-1.297 3.187-2.891 4.426-4.781 1.239-1.886 2.242-3.952 3.009-6.197.768-2.24 1.181-4.308 1.241-6.196.058-1.887-.267-3.481-.974-4.781-.71-1.298-1.832-1.947-3.364-1.947-1.655 0-3.425.649-5.312 1.947-1.889 1.3-3.661 2.894-5.311 4.781-1.655 1.888-3.041 3.956-4.162 6.196-1.123 2.245-1.77 4.311-1.948 6.197-.176 1.89.235 3.484 1.241 4.781 1.001 1.3 2.921 1.948 5.753 1.948z" fill="#003047"/></svg>