<svg fill="none" height="150" viewBox="0 0 150 150" width="150" xmlns="http://www.w3.org/2000/svg"><path d="m92.8691 110.314c5.5445 1.93 22.1339 2.455 30.4719-6.309 4.633-4.8697 6.303-10.3342 6.676-19.7114.357-8.9918-2.862-18.1329 10.832-24.4007-7.497-1.9189-14.302-2.9097-21.076 1.5645-6.773 4.4742-6.418 11.3059-8.868 25.6795-2.487 14.5931-12.4696 17.7101-12.4696 17.7101" fill="#f2e8e3"/><path clip-rule="evenodd" d="m118.881 60.1083c7.394-4.8835 14.816-3.7146 22.369-1.7818.663.1699 1.148.7397 1.209 1.4221s-.314 1.3292-.937 1.6144c-3.269 1.4961-5.429 3.118-6.872 4.7816-1.432 1.6518-2.217 3.4123-2.642 5.2851-.432 1.9006-.495 3.9234-.458 6.1119.011.6209.03 1.2639.049 1.9205.048 1.5911.097 3.2626.033 4.8956-.38 9.5661-2.103 15.4883-7.12 20.7613-4.536 4.768-11.198 6.911-17.258 7.656-6.053.744-11.8487.134-14.9169-.934-.5281-.183-.9237-.627-1.0461-1.172-.1225-.546.0457-1.116.4445-1.508l5.5663-5.468c.1831-.18.4063-.313.6512-.39l.4818 1.544c-.4818-1.544-.4836-1.543-.4836-1.543.0084-.003.0255-.009.0514-.018.052-.019.1379-.051.2535-.098.2314-.095.581-.251 1.0161-.483.8708-.464 2.0778-1.232 3.3648-2.426 2.556-2.3707 5.492-6.4807 6.674-13.4138.431-2.5314.78-4.8695 1.101-7.0191.567-3.8056 1.047-7.0202 1.741-9.6708 1.133-4.3261 2.916-7.549 6.728-10.067zm-19.5634 46.1377c-.0888.034-.1642.062-.2251.084-.0478.017-.0866.031-.1161.04l-.0371.013-.0131.004-.0075.002s-.002.001-.4839-1.542l1.1331 1.153zm37.0054-45.7302c-5.674-1.0941-10.678-.9999-15.659 2.2907-2.962 1.9562-4.387 4.3862-5.383 8.1879-.653 2.4937-1.087 5.4167-1.63 9.0625-.323 2.1731-.684 4.6029-1.153 7.3517-1.305 7.6598-4.604 12.4046-7.662 15.2404-1.519 1.41-2.962 2.333-4.041 2.909-.54.288-.9896.49-1.3138.622-.0587.024-.1133.046-.1636.066l-3.2405 3.183c-1.0761-.179-1.9856-.401-2.6771-.641l-.5314 1.526 1.133 1.154 2.0755-2.039c2.7776.463 6.6659.642 10.7829.136 5.706-.701 11.507-2.678 15.309-6.675 4.249-4.4654 5.867-9.4723 6.231-18.6605.061-1.5161.016-3.0042-.03-4.5445-.02-.6836-.041-1.3775-.053-2.0886-.038-2.2503.017-4.5905.537-6.8826.527-2.3199 1.527-4.5819 3.354-6.6879 1.084-1.2503 2.438-2.4211 4.115-3.5101z" fill="#db5072" fill-rule="evenodd"/><path clip-rule="evenodd" d="m117.694 69.4362c.137.0941.223.2459.233.4114l.478 7.9471 4.869-3.0077c.129-.0797.285-.1014.431-.0597.146.0416.267.1427.335.2785l3.19 6.4233 2.455-1.5367c.162-.1015.366-.1094.536-.0206.169.0888.279.2609.288.4521.061 1.2952.1 2.6247.046 3.9804-.002 12.0869-4.263 18.5987-9.578 22.3397-4.2 2.956-9.046 4.155-12.726 5.065-.92.227-1.767.436-2.512.651-.161.046-.333.015-.468-.084-1.85-1.356-4.247-3.582-5.2751-5.826-.5186-1.132-.7255-2.351-.2297-3.476.4948-1.124 1.6278-2.01 3.4578-2.62 1.567-.5221 2.952-1.9711 4.15-4.1222 1.192-2.1385 2.155-4.8895 2.918-7.8735 1.524-5.9651 2.223-12.7598 2.397-17.1934.009-.2275.16-.4248.377-.493l4.161-1.3061c.159-.0497.331-.0237.467.0704z" fill="#db5072" fill-rule="evenodd"/><path d="m33.9209 146.218v-1.394c0-12.145 5.9718-84.2175 10.1543-116.6685-3.5852.3982-5.7749.5972-7.1683.5972-3.185 0-2.7868-1.3957-3.5831-6.7703-.3982-2.9858-.7962-5.1755-.7962-6.9693 0-3.384 1.7915-4.1803 8.9575-4.7775l9.9552-.199c15.7279 0 43.4039.5972 44.3992 2.5878 3.1849 7.1684 12.7415 116.8676 12.7415 132.0006v1.593c-.398 1.791-7.168 3.583-14.135 3.583-6.5712 0-13.3415-1.792-13.5406-7.567l-.7962-24.088c-3.1849.597-6.3699.995-9.5548.995-2.7891 0-5.5759-.199-8.1637-.995l-1.1943 24.088c-.199 5.974-6.3723 7.766-12.742 7.766-6.9694 0-14.3343-2.19-14.5335-3.782zm41.6101-51.9637c1.1943-.199 1.7914.199 1.7914-2.7891 0-2.9858-.5971-9.1567-1.5924-21.8987-1.3935-20.7066-3.185-31.06-4.9765-31.06-1.5924 0-3.3863 10.3534-4.9787 31.06-.7962 12.543-1.3935 18.7138-1.3935 21.6997 0 3.1873.5972 2.7891 1.7915 2.9881l4.5806.199z" fill="#003047"/><path d="m46.5182.0144467c-1.3352.2338683-1.9229 3.2464433-1.3129 6.7287833.61 3.48237 2.1868 6.11567 3.5219 5.88177 1.3352-.2338 1.9229-3.24643 1.3129-6.72877-.61-3.48229-2.1868-6.115652-3.5219-5.8817833z" fill="#003047"/><path d="m48.2705 12.8871c1.0332-.8773.0158-3.77317-2.2724-6.46809-2.2882-2.69493-4.9808-4.1684-6.014-3.2911s-.0158 3.77315 2.2724 6.46807 4.9808 4.16842 6.014 3.29112z" fill="#003047"/><path d="m39.421 13.7462c1.0582 2.1873 5.5117 2.2209 9.947.0751 4.4354-2.1459 7.3296-7.07829 6.9187-8.44018-.4948-1.63995-6.3155-1.62659-10.7508.51925-4.4354 2.14584-7.1731 5.65853-6.1149 7.84583z" fill="#f2e8e3"/><path clip-rule="evenodd" d="m55.349 3.32817c.7516.21502 1.7629.67732 2.0747 1.7108.1282.42518.0984.86293.0344 1.21868-.0675.37516-.194.77094-.3571 1.16731-.3268.79422-.8412 1.68908-1.4987 2.58514-1.3109 1.7864-3.2837 3.7032-5.7167 4.8803-2.3455 1.1348-4.7475 1.721-6.7658 1.7058-1.9338-.0146-3.9324-.6083-4.7665-2.3324-.8341-1.7242-.0592-3.6597 1.1296-5.18502 1.2407-1.59195 3.1911-3.11139 5.5367-4.24618 2.3814-1.15213 5.1109-1.72577 7.3319-1.79716 1.1068-.03557 2.153.05116 2.9975.29273zm-2.9212 2.07987c-1.9218.06177-4.3204.56773-6.3744 1.56144-2.0898 1.01105-3.7258 2.32086-4.6982 3.56852-1.0243 1.3143-1.0891 2.2288-.865 2.692.224.4631.9813.9799 2.6475.9924 1.5819.012 3.6243-.4579 5.7141-1.4689 2.0024-.9688 3.6943-2.5911 4.8366-4.14781.5691-.77554.9784-1.50325 1.2173-2.08396.1198-.29108.1866-.52084.2161-.68449.0037-.02055.0066-.03898.0089-.05537-.0692-.04114-.2005-.10444-.4346-.17142-.5247-.15011-1.3036-.23341-2.2683-.20241z" fill="#003047" fill-rule="evenodd"/><path clip-rule="evenodd" d="m51.3899 4.15443c.3935-.19018.8666-.02538 1.0568.36808l2.2912 4.74031c.1902.39346.0254.86658-.3681 1.05678-.3934.1902-.8666.0254-1.0568-.36808l-2.2912-4.74031c-.1902-.39346-.0254-.8666.3681-1.05678zm-3.8221.27433c.3934-.19033.8666-.02571 1.0569.36769l3.5482 7.33415c.1904.3934.0257.8666-.3677 1.0569-.3933.1904-.8665.0257-1.0569-.3676l-3.5482-7.33423c-.1903-.3934-.0257-.86659.3677-1.05691zm-3.306.93446c.3943-.18843.8667-.02153 1.0551.37277l3.5996 7.53251c.1884.3943.0215.8667-.3728 1.0551s-.8667.0215-1.0551-.3728l-3.5996-7.53245c-.1884-.39431-.0215-.86671.3728-1.05513z" fill="#003047" fill-rule="evenodd"/><g fill="#db5072"><path d="m64.2789 4.50726c-.572 0-1.0853-.40338-1.2027-.98679-.1326-.66482.2992-1.31259.9641-1.44517 1.6345-.32581 3.3107-.57584 4.9776-.74061.6648-.08334 1.2766.42236 1.3429 1.10053.0663.67431-.4262 1.27656-1.1005 1.34285-1.5873.1572-3.1821.39582-4.739.7065-.0814.01513-.1628.02269-.2424.02269z"/><path d="m89.0974 5.77635c-.1194 0-.2425-.01706-.3617-.05488-3.1271-.96602-6.3698-1.61943-9.6371-1.94331-.6743-.06629-1.1668-.66854-1.1006-1.34286.0663-.67431.6573-1.18565 1.3429-1.10052 3.4302.33901 6.8338 1.02653 10.1182 2.04179.6497.19887 1.0114.88639.8106 1.53416-.1629.52839-.6477.86562-1.1723.86562z"/><path d="m26.8483 106.284c-.8481.094-1.6479.18-2.3315.383-.3513.096-.599.411-.867.326-.2928-.05-.5419-.226-1.2444-.355l-.1652-.142c-.1752-.737.3049-1.313.7757-1.592.499-.315 1.0564-.079 1.5036.017.9194.213 1.7091.601 2.3921 1.155z"/><path d="m41.3541 109.548c-.9804.07-1.9185.124-2.768.293-.4319.078-.7904.38-1.1396.29-.3781-.054-.6649-.237-1.3949-.39l-.1537-.155c-.049-.807.5702-1.348 1.1027-1.592.5688-.279 1.1531-.012 1.656.102 1.0228.253 1.9367.663 2.7574 1.243z"/><path d="m38.0566 130.873c-.2418.845-.6655 1.616-1.2954 2.318-.3123.335-.6326.849-1.2222.877-.5454.043-1.2686-.153-1.5486-.858l.0537-.211c.5011-.509.6038-.796.8153-1.005.1706-.223.5547-.108.8966-.231.6762-.226 1.3807-.615 2.1288-1.025z"/><path d="m45.5657 117.625c-.4063.919-.9798 1.741-1.7273 2.483-.372.357-.7361.886-1.3672.939-.5049.132-1.9405-.303-1.7117-1.01.5474-.507.6991-.811.9953-1.052.2532-.257.7166-.182 1.1268-.337.8153-.292 1.6479-.728 2.5249-1.172z"/><path d="m12.464 128.013c-1.137-2.259-3.50211-3.89-4.61721-6.314-.69178-1.503-.26488-4.234 1.58051-5.086 1.8453-.852 4.9105.655 8.2 1.528 2.5934.687 7.6176.257 9.0981 3.199 1.4239 2.83-1.0693 5.323-2.4219 7.038-2.0217 2.563-1.8498 8.219-5.585 9.02-2.7963.6-3.9678-.913-4.4388-2.102-.5363-1.354-.3919-4.453-1.8157-7.283z"/><path d="m22.6426 111.002c2.0103-1.939 2.5399-4.652 1.1828-6.059s-4.087-.975-6.0973.964c-2.0104 1.939-2.5399 4.651-1.1828 6.058s4.0869.976 6.0973-.963z"/><path d="m35.9279 115.148c2.4583-1.818 3.4199-4.686 2.1478-6.407-1.2721-1.72-4.2962-1.641-6.7545.176-2.4583 1.818-3.42 4.686-2.1479 6.407 1.2721 1.72 4.2963 1.641 6.7546-.176z"/><path d="m39.6318 126.125c2.9441-.824 4.8634-3.163 4.2867-5.223-.5766-2.061-3.4309-3.063-6.375-2.239-2.9442.824-4.8635 3.162-4.2868 5.223.5766 2.06 3.4309 3.063 6.3751 2.239z"/><path d="m32.6011 138.471c2.7835-.231 4.9088-1.998 4.7469-3.946s-2.5497-3.34-5.3332-3.108c-2.7836.231-4.9088 1.998-4.7469 3.946s2.5496 3.34 5.3332 3.108z"/></g></svg>