<svg fill="none" height="40" viewBox="0 0 142 40" width="142" xmlns="http://www.w3.org/2000/svg" xmlns:xlink="http://www.w3.org/1999/xlink"><clipPath id="a"><path d="m0 0h141.446v40h-141.446z"/></clipPath><g clip-path="url(#a)"><path d="m11.0524 34.6708h-7.42145l-1.57606 3.6508h-1.695759l6.244389-14.2044h1.43641l6.24437 14.2044h-1.6758zm-.5786-1.3566-3.13213-7.3018-3.13216 7.3018zm10.7407-5.2669c2.4073 0 3.611 1.3234 3.611 3.9701v6.3042h-1.616v-6.2244c0-.931-.1862-1.6093-.5586-2.0349-.3724-.4389-.9576-.6584-1.7556-.6584-.931 0-1.6758.286-2.2344.8579s-.8379 1.3433-.8379 2.3142v5.7456h-1.616v-7.2219c0-1.0374-.0532-1.9751-.1596-2.813h1.5362l.1596 1.7955c.3059-.6516.7648-1.1504 1.3765-1.4962.6118-.3591 1.3101-.5387 2.0948-.5387zm6.6625.2394h1.616v10.0349h-1.616zm1.8155-4.2493v1.8354h-1.9751v-1.8354z" fill="#1f2937"/><path d="m34.4063 24.1172v1.4563c0 .5586-.0931 1.0707-.2793 1.5362-.1861.4655-.4988.9244-.9377 1.3766l-.7581-.5985c.5187-.5985.8114-1.1704.8778-1.7158h-.9576v-2.0548z" fill="#32b54f"/><path d="m50.793 24.1172v14.2045h-1.5162v-10.5536l-4.6085 10.5536h-1.1571l-4.6484-10.4738.02 10.4738h-1.5162v-14.2045h1.3566l5.3865 12.2494 5.3267-12.2494zm11.7035 9.1371h-7.3616c.0132 1.2769.3058 2.2411.8778 2.8928.5851.6517 1.4297.9776 2.5336.9776 1.1704 0 2.2477-.3923 3.2319-1.1771l.5387 1.1771c-.4389.4122-1.0042.7381-1.6958.9775-.6783.2394-1.3765.3591-2.0947.3591-1.5695 0-2.7997-.4588-3.6908-1.3765-.8912-.931-1.3367-2.2012-1.3367-3.8105 0-1.0241.1996-1.9285.5986-2.7132.399-.798.9576-1.4165 1.6758-1.8554s1.5361-.6583 2.4538-.6583c1.33 0 2.3741.4389 3.1322 1.3167.7581.8645 1.1372 2.0615 1.1372 3.591zm-4.2494-3.9501c-.8379 0-1.5229.2527-2.0549.7581-.5187.5055-.8513 1.217-.9975 2.1347h5.8454c-.0798-.9444-.3591-1.6626-.8379-2.1546-.4656-.4921-1.1172-.7382-1.9551-.7382zm15.54-1.0174v10.0349h-1.596v-1.8155c-.2927.6252-.7381 1.1105-1.3366 1.4564-.5853.3324-1.2703.4987-2.0549.4987-.8912 0-1.6758-.2127-2.3541-.6384-.6651-.4256-1.1838-1.0241-1.5561-1.7955-.3591-.7847-.5387-1.6957-.5387-2.7332 0-1.0374.1862-1.9484.5586-2.7331.3724-.798.8911-1.4165 1.5561-1.8554.6783-.4389 1.4564-.6583 2.3342-.6583.7846 0 1.4696.1728 2.0549.5187.5851.3458 1.0307.8312 1.3366 1.4563v-1.7356zm-4.6683 8.8379c.9841 0 1.7422-.3325 2.2743-.9975.532-.6783.798-1.6359.798-2.8729 0-1.2369-.266-2.1878-.798-2.8528-.5321-.6651-1.2902-.9975-2.2743-.9975-.9842 0-1.7556.3458-2.3142 1.0374-.5454.6783-.818 1.6292-.818 2.8528 0 1.2237.2726 2.1679.818 2.833.5452.665 1.3167.9975 2.3142.9975zm16.1917-8.8379v10.0349h-1.5761v-1.7357c-.3191.6118-.7647 1.0773-1.3367 1.3965-.5719.3192-1.217.4788-1.9351.4788-1.1837 0-2.0815-.3324-2.6933-.9975-.6118-.665-.9176-1.6492-.9176-2.9526v-6.2244h1.6159v6.1845c0 .9044.1862 1.5694.5586 1.995s.9377.6384 1.6957.6384c.8912 0 1.6094-.286 2.1547-.8578.5452-.5853.818-1.35.818-2.2943v-5.6658zm11.9929 10.0349h-1.9351l-3.1721-3.9501-3.1322 3.9501h-1.975l4.1695-5.1671-3.9301-4.8678h1.9551l2.9127 3.6907 2.9127-3.6907h1.9751l-3.9102 4.8678z" fill="#1f2937"/><path d="m129.187 29.8969c2.272 4.379 1.897 8.5417-8.31 9.0035-12.157.5498-12.019-2.7492-8.791-9.6221 2.146-4.5721 3.328-9.4845 8.791-9.4845 5.461 0 5.563 4.811 8.31 10.1031z" fill="#0078bf"/><path d="m108.469 21.1958c2.245-1.1419 2.825-4.5089 1.295-7.5203-1.529-3.0114-4.589-4.52691-6.834-3.385-2.245 1.1419-2.824 4.5089-1.295 7.5203 1.53 3.0114 4.59 4.5269 6.834 3.385z" fill="#32b54f"/><path d="m127.677 16.5177c2.441.6176 5.092-1.5365 5.92-4.8114.829-3.27496-.479-6.43051-2.92-7.04816-2.441-.61764-5.092 1.5365-5.921 4.81143-.828 3.27493.479 6.43043 2.921 7.04813z" fill="#ed2a26"/><path d="m117.722 15.879c3.079-.5097 5.02-4.2708 4.336-8.40073-.684-4.1299-3.733-7.064659-6.812-6.554963-3.078.509693-5.02 4.270833-4.336 8.400733.684 4.12986 3.734 7.06466 6.812 6.55496z" fill="#ffc31b"/><path d="m132.821 23.5331c1.67 1.1541 4.278.2746 5.826-1.9644 1.547-2.2389 1.448-4.9895-.222-6.1436-1.669-1.1541-4.277-.2746-5.825 1.9644-1.547 2.2389-1.448 4.9896.221 6.1436z" fill="#00bfbf"/><g fill="#1f2937"><path d="m73.2992 13.1339c-.4724-.9764-1.4488-1.5748-2.7086-1.5748-2.1733 0-3.5906 1.6692-3.5906 4.1889s1.4488 4.252 3.5906 4.252c1.2598 0 2.2677-.5669 2.7401-1.6063v1.4803h1.2913v-11.874h-1.3228zm.0315 2.6456c0 1.9843-.8819 3.1181-2.4882 3.1181s-2.5197-1.1653-2.5197-3.1496c0-1.9527.9134-3.0866 2.5197-3.0866s2.4882 1.1339 2.4882 3.1181z"/><path d="m83.4409 15.5276c0-2.4567-1.2913-3.9685-3.433-3.9685-2.2362 0-3.811 1.7322-3.811 4.2204 0 2.6142 1.5118 4.2205 4.0629 4.2205 1.1339 0 2.3308-.4409 3.0552-1.1024l-.441-.9448c-.7874.6299-1.6693.9448-2.6142.9448-1.7952 0-2.7401-1.0708-2.7401-3.1181h5.9212zm-5.8897-.5985c.2519-1.4803 1.1023-2.3307 2.4567-2.3307 1.3543 0 2.1417.7874 2.2677 2.3307z"/><path d="m84.9843 18.9291c.7874.6929 1.8582 1.0709 3.244 1.0709 1.9528 0 3.1811-.9134 3.1811-2.3307 0-1.1339-.7244-1.8268-2.2362-2.2047l-1.3543-.3465c-.8819-.189-1.2598-.5669-1.2598-1.2283 0-.7874.6614-1.2599 1.8267-1.2599.8504 0 1.6693.315 2.4252.9449l.441-.9449c-.6929-.6929-1.7323-1.0708-2.8662-1.0708-1.8897 0-3.1181 1.0078-3.1181 2.4252 0 1.0708.7559 1.8582 2.1103 2.1732l1.3858.3149c.9764.252 1.3858.5985 1.3858 1.2284 0 .7874-.6614 1.2283-1.8583 1.2283-1.1338 0-1.9842-.2519-2.8661-.9448z"/><path d="m1 17.8268c1.55906 1.4645 3.73228 2.1732 6.4252 2.1732 3.874 0 6.3307-1.937 6.3307-4.8661 0-1.9843-1.2283-3.1654-2.9764-3.7323-.85037-.2835-1.98422-.6614-3.44879-.9922-2.74016-.66137-4.06299-1.37003-4.06299-3.11806 0-1.98425 1.6063-3.2126 4.29921-3.2126 1.93701 0 3.54327.66142 5.14957 2.0315l.8032-1.55906c-1.4173-1.41732-3.54332-2.17323-5.95277-2.17323-3.77953 0-6.28347 2.0315-6.28347 5.00788 0 2.03149 1.18111 3.25987 2.88189 3.96847.8504.3307 1.93701.6142 3.25985.9449 2.8346.6614 4.2992 1.0866 4.3465 2.9291.0472 1.9371-1.5591 3.0709-4.3465 3.0709-2.31496 0-3.96851-.5669-5.71654-1.9842z"/><path d="m25.6142 9.74803c-.7559-1.51181-2.2205-2.40945-4.1103-2.40945-3.2126 0-5.3858 2.59843-5.3858 6.37792 0 3.7796 2.126 6.2835 5.3858 6.2835 1.8898 0 3.4016-.8504 4.1103-2.4094v2.2204h1.937v-12.18895h-1.937zm0 3.92127c0 2.9764-1.3229 4.6772-3.7323 4.6772-2.4095 0-3.7795-1.6536-3.7795-4.63 0-2.9763 1.37-4.72437 3.7795-4.72437 2.4094 0 3.7323 1.65357 3.7323 4.67717z"/><path d="m32.5591 2h-1.9371v17.811h1.9371z"/><path d="m35.6299 13.6693c0 3.8268 2.2677 6.3307 5.7166 6.3307 3.496 0 5.7637-2.5039 5.7637-6.3307 0-3.82678-2.2677-6.33072-5.7637-6.33072-3.4489 0-5.7166 2.50394-5.7166 6.33072zm9.4961 0c0 3.0709-1.3228 4.6772-3.7795 4.6772-2.4095 0-3.7323-1.6063-3.7323-4.6772 0-2.9764 1.3701-4.67717 3.7323-4.67717s3.7795 1.70077 3.7795 4.67717z"/><path d="m60.622 12.1575c0-3.21262-1.4645-4.81892-4.3937-4.81892-1.8897 0-3.4488.89764-4.2047 2.50394l-.189-2.22047h-1.8425c.0945 1.03937.189 2.17323.189 3.44885v8.7401h1.937v-6.9449c0-2.3622 1.5118-3.87397 3.7323-3.87397 1.937 0 2.8346 1.03937 2.8346 3.25987v7.559h1.937z"/></g></g></svg>