<svg fill="none" height="104" viewBox="0 0 346 104" width="346" xmlns="http://www.w3.org/2000/svg"><path clip-rule="evenodd" d="m91.715.552802c-.189-.0941-.416-.060299-.568.084701l-6.613 6.281597-3.447.0004c-.101 0-.2.0307-.283.088l-.267.1836c-.028.0156-.054.0336-.078.0536l-5.153 3.5428c-.073.0504-.131.1186-.168.1966l-5.108 8.8546c-.075.1294-.088.2855-.035.4254l1.004 2.6778v8.3422l-4.205 8.4094-16.411 17.7507c-.034.0364-.061.0772-.082.1207l-16.5848 20.8961-.0011.001-.0009.002-.0013.001c-.0418.053-.0724.113-.0902.178l-4.8737 14.621-23.41908 5.204c-.0891-.006-.179.011-.26.052l-4.793495 2.397c-.2054005.102-.3145018.332-.2643018.556l.1417008.633c.0502.224.246699.385.476299.391l14.287577.332c.0297.004.0597.005.0896.004l13.7013-.669 17.8545 1.323c.0369.008.0748.013.113.013h.0757.0163 24.3189c.18 0 .346-.097.435-.254.088-.157.086-.349-.007-.503l-2.391-3.987c-.079-.13-.212-.218-.363-.238l-9.087-1.212 4.476-9.155 4.178-3.535 7.341-4.992 6.117 23.502c.048.184.197.326.384.364.036.007.072.01.108.01h12.597c.187 0 .358-.105.444-.271.086-.167.071-.367-.038-.52l-3.77-5.279c-.051-.071-.119-.127-.198-.163l-3.941-1.819v-24.293l6.578-10.5233c.02-.0323.036-.0668.049-.1029l3.978-11.6046.019-.0247c.094-.1232.125-.2829.085-.4323l-6.006-22.3555c0-.0091-.001-.0181-.002-.0271l1.624-9.0939 4.062-11.5095c.067-.1906.013-.4029-.137-.538l-3.519-3.1675c-.038-.0379-.082-.0697-.131-.094l-.002-.0012-.001-.0005zm-9.315 44.622598-13.366-5.2908 10.303-9.4677zm2.068 1.2242 6.616-17.5463 5.237 19.4925-5.415 7.1251zm-8.051-15.5668-6.156 5.6566 2.163-4.3256zm-3.75-.5087v-5.8633l5.412 4.0592zm8.06-1.4189 5.751-12.6532 3.846 9.8875-6.56 17.3977zm6.723-14.8359.68-1.6989 3.868 4.6423-1.08 6.0498-3.478-8.9428c.004-.0167.008-.0335.01-.0504zm8.476-8.4078-3.336 9.4541-3.672-4.4053 4.791-7.0446zm-13.503 2.9264h.841l-.535.7646zm3.075 5.7786-2.952 6.3962-2.689-6.1115 2.722-2.4743zm-13.22 31.6408-2.664-4.0985 9.837 3.8935zm-1.557.6665-18.072 14.3962-.629-2.9384 15.354-16.6074zm-65.30598 53.5392 2.876.793-4.2644-.099zm31.66468-19.26 12.6803-3.538-3.629 23.89-12.7512-7.71zm53.2533 17.699 2.271 3.179h-8.602l2.867-4.778zm-4.712-2.762-2.786 4.643-5.828-22.391-.38-7.5964zm-17.637-13.058-9.437-11.5018 16.184-5.2964.59 11.8092zm-52.8709 18.325-6.33158-1.747 19.67438-4.372-.4993 5.493zm17.0526-6.346 11.1888 6.765-13.7247-1.017.5226-5.748zm3.4545-16.065 15.0478-18.9602.544 2.5379-14.9455 16.8533zm16.3648-14.7798 4.062 6.7704-5.667 4.7722-11.4691 3.2012zm17.038 37.8648h-11.547l1.469-2.939 9.038 1.205zm-21.2832.001 3.6332-23.917 11.078 9.913-6.846 14.004zm5.4672-39.0729 18.081-14.403 3.255 15.9835-17.041 5.5772zm32.835 6.937-8.76-4.7785 12.212-6.3713zm-.338 21.4399-8.678-24.4574 8.678 4.7337zm5.932-33.8684 3.128-4.1152-2.3 6.7086-3.23 5.1675zm-5.574-49.4988 5.64-5.3572.628.3143-4.578 6.7326zm-7.183 5.5165-1.736-1.7362 3.661-2.5169.734 1.8358zm4.795-2.3729 1.306-1.8659 1.916 1.9157-.729 1.8204zm-11.924 9.2823 4.273-7.4059 2.128 2.1284 3.465 7.8736-2.099 4.7216-6.988-5.2411zm4.355 43.4546-3.257-15.9891 10.26-.2931 6.54 9.2163zm-12.611 22.8717-11.443-10.2382 4.968-4.1837 9.638 11.7449zm-32.9457 6.621 4.3015-12.904.5863.391-3.6625 12.513z" fill="#161e54" fill-rule="evenodd"/><path d="m247.344 25.3697-11.592 31.2259h-5.863l-11.636-31.2259h5.418l9.15 25.9692 9.193-25.9692z" fill="#e21d54"/><path d="m263.525 57c-2.309 0-4.397-.5242-6.262-1.5725-1.865-1.0783-3.331-2.576-4.397-4.493-1.066-1.9469-1.599-4.1934-1.599-6.7394 0-2.516.548-4.7475 1.643-6.6945 1.096-1.9469 2.591-3.4445 4.486-4.4929 1.895-1.0483 4.012-1.5725 6.351-1.5725s4.456.5242 6.351 1.5725c1.895 1.0484 3.391 2.546 4.486 4.4929 1.096 1.947 1.644 4.1785 1.644 6.6945 0 2.5161-.563 4.7476-1.688 6.6945s-2.665 3.4596-4.619 4.5379c-1.925 1.0483-4.057 1.5725-6.396 1.5725zm0-4.448c1.303 0 2.517-.3145 3.642-.9435 1.155-.629 2.088-1.5726 2.798-2.8306.711-1.258 1.066-2.7856 1.066-4.5828s-.34-3.3098-1.021-4.5378c-.681-1.2581-1.584-2.2016-2.71-2.8306-1.125-.629-2.339-.9435-3.642-.9435-1.302 0-2.516.3145-3.641.9435-1.096.629-1.969 1.5725-2.621 2.8306-.651 1.228-.977 2.7406-.977 4.5378 0 2.6658.666 4.7326 1.999 6.2003 1.362 1.4377 3.064 2.1566 5.107 2.1566z" fill="#e21d54"/><path d="m285.141 28.5597c-.918 0-1.688-.3145-2.309-.9435-.622-.629-.933-1.4078-.933-2.3364 0-.9285.311-1.7073.933-2.3363.621-.629 1.391-.9435 2.309-.9435.888 0 1.643.3145 2.265.9435s.933 1.4078.933 2.3363c0 .9286-.311 1.7074-.933 2.3364s-1.377.9435-2.265.9435zm2.487 3.2798v24.7561h-5.063v-24.7561z" fill="#e21d54"/><path d="m293.92 44.1951c0-2.546.504-4.7775 1.51-6.6945 1.037-1.9469 2.458-3.4445 4.264-4.4929 1.806-1.0483 3.879-1.5725 6.218-1.5725 2.961 0 5.404.7188 7.328 2.1566 1.954 1.4078 3.272 3.4296 3.953 6.0655h-5.463c-.444-1.2281-1.155-2.1866-2.132-2.8755s-2.205-1.0334-3.686-1.0334c-2.073 0-3.731.7488-4.974 2.2465-1.214 1.4677-1.821 3.5344-1.821 6.2002s.607 4.7476 1.821 6.2452c1.243 1.4977 2.901 2.2465 4.974 2.2465 2.931 0 4.871-1.303 5.818-3.9089h5.463c-.711 2.5161-2.043 4.5229-3.997 6.0206-1.954 1.4677-4.382 2.2015-7.284 2.2015-2.339 0-4.412-.5242-6.218-1.5725-1.806-1.0783-3.227-2.576-4.264-4.493-1.006-1.9469-1.51-4.1934-1.51-6.7394z" fill="#e21d54"/><path d="m346 43.611c0 .9286-.059 1.7673-.178 2.5161h-18.698c.148 1.9769.874 3.5644 2.177 4.7625 1.302 1.1981 2.901 1.7972 4.796 1.7972 2.724 0 4.649-1.1532 5.774-3.4596h5.463c-.74 2.2764-2.088 4.1485-4.042 5.6162-1.924 1.4377-4.323 2.1566-7.195 2.1566-2.339 0-4.441-.5242-6.306-1.5725-1.836-1.0783-3.287-2.576-4.353-4.493-1.036-1.9469-1.554-4.1934-1.554-6.7394s.503-4.7775 1.51-6.6945c1.036-1.9469 2.472-3.4445 4.308-4.4929 1.865-1.0483 3.997-1.5725 6.395-1.5725 2.31 0 4.368.5092 6.174 1.5276s3.212 2.4561 4.219 4.3132c1.007 1.8271 1.51 3.9388 1.51 6.335zm-5.285-1.6174c-.03-1.8871-.696-3.3997-1.999-4.5379-1.302-1.1382-2.916-1.7073-4.841-1.7073-1.747 0-3.242.5691-4.486 1.7073-1.243 1.1083-1.983 2.6209-2.22 4.5379z" fill="#e21d54"/><path d="m154.36 56.5956h-5.063l-15.234-23.3184v23.3184h-5.063v-31.2709h5.063l15.234 23.2734v-23.2734h5.063z" fill="#161e54"/><path d="m184.77 43.611c0 .9285-.059 1.7672-.177 2.516h-18.699c.149 1.9769.874 3.5644 2.177 4.7625s2.901 1.7972 4.796 1.7972c2.724 0 4.649-1.1532 5.774-3.4596h5.463c-.74 2.2765-2.087 4.1485-4.042 5.6162-1.924 1.4378-4.323 2.1566-7.195 2.1566-2.339 0-4.441-.5241-6.306-1.5725-1.836-1.0783-3.287-2.5759-4.353-4.4929-1.036-1.947-1.554-4.1934-1.554-6.7394s.503-4.7775 1.51-6.6945c1.036-1.947 2.472-3.4446 4.308-4.493 1.865-1.0483 3.997-1.5725 6.395-1.5725 2.31 0 4.368.5092 6.174 1.5276s3.212 2.4561 4.219 4.3132c1.007 1.8272 1.51 3.9388 1.51 6.3351zm-5.285-1.6175c-.03-1.887-.696-3.3996-1.999-4.5379-1.302-1.1382-2.916-1.7073-4.841-1.7073-1.747 0-3.242.5691-4.485 1.7073-1.244 1.1083-1.984 2.6209-2.221 4.5379z" fill="#161e54"/><path d="m201.7 56.9999c-2.309 0-4.397-.5241-6.262-1.5725-1.866-1.0783-3.331-2.5759-4.397-4.4929-1.066-1.947-1.599-4.1934-1.599-6.7394 0-2.5161.548-4.7476 1.643-6.6945 1.096-1.947 2.591-3.4446 4.486-4.493 1.895-1.0483 4.012-1.5725 6.351-1.5725s4.456.5242 6.351 1.5725c1.895 1.0484 3.391 2.546 4.486 4.493 1.096 1.9469 1.643 4.1784 1.643 6.6945 0 2.516-.562 4.7475-1.687 6.6944-1.125 1.947-2.665 3.4596-4.619 4.5379-1.925 1.0484-4.057 1.5725-6.396 1.5725zm0-4.448c1.303 0 2.517-.3145 3.642-.9435 1.155-.629 2.087-1.5725 2.798-2.8305.711-1.2581 1.066-2.7857 1.066-4.5828 0-1.7972-.341-3.3098-1.022-4.5379-.681-1.258-1.584-2.2016-2.709-2.8306s-2.339-.9435-3.642-.9435c-1.302 0-2.516.3145-3.642.9435-1.095.629-1.969 1.5726-2.62 2.8306-.651 1.2281-.977 2.7407-.977 4.5379 0 2.6658.666 4.7325 1.999 6.2002 1.362 1.4378 3.064 2.1566 5.107 2.1566z" fill="#161e54"/><g fill="#e21d54"><path d="m129 85.755c.446-.028.764-.125.954-.291.203-.166.331-.415.385-.747s.081-.754.081-1.266v-8.6326c0-.3043.007-.5949.021-.8716.013-.2905.027-.5395.04-.7471-.23.0139-.48.0277-.75.0415-.271.0139-.515.0277-.731.0416v-1.1414c.798-.0139 1.61-.0208 2.435-.0208.825-.0138 1.664-.0207 2.516-.0207 1.272 0 2.348.1591 3.227.4773.893.3043 1.576.7747 2.05 1.4111.487.6226.737 1.4112.75 2.3658.014.5395-.081 1.0999-.284 1.6809-.203.567-.548 1.1-1.035 1.598-.487.484-1.15.878-1.988 1.183-.826.304-1.867.456-3.125.456-.136.014-.291.021-.467.021-.162 0-.332-.007-.507-.021v2.615c0 .374-.007.713-.021 1.017 0 .291-.013.526-.04.706.189-.014.392-.028.608-.042.217-.014.427-.021.63-.021.216-.013.412-.027.588-.041v1.162h-5.337zm3.572-5.582c.23.027.426.048.588.062h.609c.757 0 1.427-.146 2.009-.436.582-.291 1.035-.713 1.359-1.266.325-.553.487-1.21.487-1.9714 0-.6641-.101-1.2175-.304-1.6602-.189-.4565-.46-.8093-.812-1.0583-.338-.2629-.73-.4497-1.177-.5603-.446-.1107-.92-.1661-1.42-.1661-.406 0-.704.083-.893.2491-.189.166-.311.4081-.365.7263s-.081.7263-.081 1.2244z"/><path d="m147.149 86.668c-.027-.221-.047-.415-.061-.581-.013-.166-.033-.339-.06-.519-.46.47-.954.83-1.482 1.079-.527.235-1.075.353-1.643.353-.975 0-1.712-.242-2.212-.726-.487-.498-.731-1.114-.731-1.847 0-.637.183-1.19.548-1.66.365-.471.845-.851 1.441-1.142.595-.304 1.244-.526 1.948-.664.703-.152 1.393-.228 2.07-.228v-1.225c0-.442-.041-.85-.122-1.224-.081-.387-.25-.699-.507-.934-.244-.249-.629-.3733-1.157-.3733-.352-.0139-.704.0553-1.055.2073-.352.139-.623.374-.812.706.108.11.176.242.203.394.041.138.061.27.061.394 0 .194-.081.415-.244.664-.162.236-.439.346-.832.332-.324 0-.575-.11-.751-.332-.162-.235-.243-.505-.243-.809 0-.498.176-.941.528-1.328.365-.3874.859-.6918 1.481-.9132.622-.2213 1.319-.332 2.09-.332 1.164 0 2.029.3113 2.598.9338.581.6224.872 1.6044.872 2.9464v1.432c0 .457-.007.913-.02 1.37v1.453c0 .207-.007.442-.02.705-.014.263-.034.54-.061.83.23-.013.466-.027.71-.041.243-.014.473-.021.69-.021v1.1zm-.182-4.981c-.433.028-.88.09-1.34.187-.446.097-.852.242-1.217.436s-.663.443-.893.747c-.217.304-.325.671-.325 1.1.027.47.176.816.447 1.038.284.221.615.332.994.332.474 0 .893-.09 1.258-.27.365-.194.724-.457 1.076-.789-.014-.152-.021-.304-.021-.456 0-.166 0-.339 0-.519 0-.125 0-.353 0-.685.014-.346.021-.719.021-1.121z"/><path d="m151.686 85.796c.406 0 .69-.096.852-.29.163-.194.257-.464.284-.81.041-.345.061-.747.061-1.203v-4.317c0-.221 0-.456 0-.705.014-.263.041-.519.081-.768-.23.014-.473.028-.73.041-.257 0-.494.007-.71.021v-1.0996h.69c.568 0 1.001-.0623 1.298-.1868.298-.1245.514-.2559.65-.3943h.73c.027.1937.048.4635.061.8093.014.3464.027.7334.041 1.1624.257-.388.554-.733.893-1.038.338-.318.703-.574 1.095-.7677.406-.1937.826-.2905 1.258-.2905.42 0 .778.1176 1.076.3528.311.2213.467.588.467 1.0994 0 .139-.041.298-.122.478-.068.18-.189.339-.365.477-.163.125-.386.187-.67.187-.284-.014-.534-.125-.751-.332-.203-.208-.297-.491-.284-.851-.325 0-.649.104-.974.311-.325.194-.629.457-.913.789-.271.332-.501.692-.69 1.079v4.545c0 .249-.007.505-.02.768 0 .249-.021.504-.061.767.216-.013.439-.02.669-.02.23-.014.44-.028.629-.042v1.1h-4.545z"/><path d="m165.675 87c-.96 0-1.826-.221-2.597-.664s-1.387-1.058-1.847-1.847c-.446-.802-.669-1.722-.669-2.76 0-1.121.223-2.11.669-2.968.46-.871 1.076-1.556 1.847-2.0541s1.63-.7471 2.577-.7471c.961 0 1.826.2283 2.598.6848.771.4424 1.379 1.0654 1.826 1.8674.46.789.69 1.702.69 2.74 0 1.093-.223 2.075-.67 2.946-.446.872-1.055 1.557-1.826 2.055-.758.498-1.624.747-2.598.747zm.142-1.038c.65-.013 1.157-.221 1.522-.622.379-.401.65-.913.812-1.536.162-.636.244-1.293.244-1.971 0-.595-.054-1.176-.163-1.744-.094-.581-.25-1.106-.466-1.577-.217-.47-.501-.844-.853-1.12-.351-.291-.778-.4292-1.278-.4153-.636 0-1.157.2003-1.563.6013-.392.402-.683.92-.872 1.557-.176.622-.264 1.287-.264 1.992 0 .816.101 1.591.304 2.324.203.734.514 1.335.934 1.806.433.47.981.705 1.643.705z"/><path d="m172.151 85.796c.406 0 .69-.096.853-.29.162-.194.257-.464.284-.81.04-.345.061-.747.061-1.203v-9.3802c0-.2352 0-.4703 0-.7055.013-.2491.033-.5119.06-.7886-.23.0138-.473.0276-.73.0415-.257 0-.487.0069-.69.0207v-1.0998c.609 0 1.089-.0277 1.441-.083.365-.0692.642-.1453.832-.2283.203-.083.352-.173.446-.2698h.771v13.095c0 .249-.006.505-.02.768-.013.249-.034.504-.061.767.217-.013.433-.02.65-.02.23-.014.439-.028.629-.042v1.1h-4.526z"/><path d="m183.052 87c-.947 0-1.8-.221-2.557-.664-.744-.457-1.333-1.093-1.766-1.909-.433-.83-.649-1.806-.649-2.926 0-.969.21-1.875.629-2.719.433-.844 1.035-1.522 1.806-2.0336.771-.5257 1.664-.7886 2.679-.7886.568 0 1.102.0899 1.603.2698.514.1798.967.4634 1.36.8504.405.374.723.865.953 1.474.23.595.345 1.321.345 2.179l-6.98.124c0 .941.101 1.778.304 2.511.216.734.561 1.301 1.035 1.702.473.401 1.089.602 1.847.602.365 0 .75-.062 1.156-.187.42-.138.812-.332 1.177-.581.379-.249.697-.546.954-.892l.629.56c-.406.623-.873 1.114-1.4 1.473-.528.346-1.069.588-1.624.727-.541.152-1.041.228-1.501.228zm-2.496-7.222h4.687c0-.526-.074-.996-.223-1.411-.135-.429-.352-.768-.649-1.017-.298-.249-.677-.3733-1.137-.3733-.717 0-1.305.2353-1.765.7053-.46.457-.764 1.155-.913 2.096z"/><path d="m198.692 87c-.826 0-1.563-.208-2.212-.623-.636-.428-1.143-1.037-1.522-1.826-.366-.788-.548-1.715-.548-2.781 0-1.134.216-2.137.649-3.009.433-.871 1.042-1.556 1.827-2.0541.784-.4981 1.677-.7471 2.678-.7471.42 0 .819.0553 1.197.166.393.0969.717.2145.975.3528v-2.3658c0-.2075.006-.4358.02-.6848.013-.2628.034-.5326.061-.8093-.244.0138-.494.0276-.751.0415-.257.0138-.487.0207-.69.0207v-1.0998c.609 0 1.089-.0277 1.441-.083.365-.0692.642-.1453.832-.2283.203-.083.351-.173.446-.2698h.751v13.095c0 .207-.007.442-.02.705-.014.263-.034.54-.061.83.243-.013.487-.027.73-.041.244-.014.467-.021.67-.021v1.1h-3.227c-.027-.194-.054-.374-.081-.54-.013-.166-.027-.332-.04-.498-.406.443-.873.782-1.401 1.017-.527.235-1.102.353-1.724.353zm.832-1.307c.419 0 .825-.118 1.217-.353.406-.235.737-.533.995-.893 0-.179 0-.366 0-.56s0-.401 0-.622v-5.645c-.258-.194-.562-.339-.914-.436-.338-.111-.69-.166-1.055-.166-.663 0-1.224.201-1.684.602-.447.387-.778.92-.995 1.598-.216.678-.317 1.453-.304 2.324.027.747.142 1.439.345 2.075.203.637.501 1.142.893 1.515.406.374.906.561 1.502.561z"/><path d="m211.47 87c-.947 0-1.8-.221-2.557-.664-.744-.457-1.333-1.093-1.766-1.909-.433-.83-.649-1.806-.649-2.926 0-.969.21-1.875.629-2.719.433-.844 1.035-1.522 1.806-2.0336.771-.5257 1.664-.7886 2.679-.7886.568 0 1.102.0899 1.603.2698.514.1798.967.4634 1.359.8504.406.374.724.865.954 1.474.23.595.345 1.321.345 2.179l-6.981.124c0 .941.102 1.778.305 2.511.216.734.561 1.301 1.035 1.702.473.401 1.089.602 1.846.602.366 0 .751-.062 1.157-.187.419-.138.812-.332 1.177-.581.379-.249.697-.546.954-.892l.629.56c-.406.623-.873 1.114-1.4 1.473-.528.346-1.069.588-1.624.727-.541.152-1.041.228-1.501.228zm-2.496-7.222h4.687c0-.526-.074-.996-.223-1.411-.135-.429-.352-.768-.649-1.017-.298-.249-.677-.3733-1.137-.3733-.717 0-1.305.2353-1.765.7053-.46.457-.765 1.155-.913 2.096z"/><path d="m227.799 87c-.906 0-1.738-.208-2.496-.623-.757-.428-1.366-1.037-1.826-1.826-.446-.788-.67-1.743-.67-2.864 0-.747.129-1.459.386-2.137.257-.692.615-1.307 1.075-1.847.474-.54 1.029-.9615 1.664-1.2659.65-.3182 1.367-.4773 2.151-.4773.799 0 1.482.1245 2.05.3735.568.2491 1.001.5742 1.299.9757.311.401.467.837.467 1.307 0 .332-.095.623-.285.872-.189.249-.46.373-.811.373-.393.014-.67-.104-.832-.353-.163-.262-.244-.505-.244-.726 0-.124.02-.263.061-.415.041-.166.115-.311.223-.436-.108-.29-.284-.505-.527-.643-.244-.138-.494-.228-.751-.27-.257-.0413-.474-.0621-.65-.0621-.825.0138-1.521.3801-2.09 1.1001-.554.705-.832 1.729-.832 3.071 0 .858.122 1.626.366 2.304.257.678.629 1.217 1.116 1.618s1.068.609 1.745.623c.609 0 1.197-.159 1.765-.477.569-.332 1.028-.748 1.38-1.246l.65.581c-.393.623-.846 1.114-1.36 1.474-.501.36-1.015.616-1.542.768-.514.152-1.008.228-1.482.228z"/><path d="m239.962 85.796c.406 0 .69-.096.852-.29.176-.194.277-.464.304-.81.041-.345.061-.747.061-1.203l-.02-2.905c0-1.093-.169-1.91-.507-2.449-.325-.554-.853-.823-1.583-.81-.447.014-.886.125-1.319.332-.42.208-.771.471-1.055.789v5.645c0 .249-.007.505-.021.768-.013.249-.034.504-.061.767.217-.013.433-.02.65-.02.23-.014.439-.028.629-.042v1.1h-4.525v-.872c.405 0 .69-.096.852-.29s.264-.464.304-.81c.041-.345.061-.747.061-1.203v-9.3802c0-.2352 0-.4703 0-.7055.014-.2491.034-.5119.061-.7886-.23.0138-.473.0276-.731.0415-.257 0-.493.0069-.71.0207v-1.0998c.609 0 1.096-.0277 1.461-.083.366-.0692.643-.1453.832-.2283.203-.083.352-.173.447-.2698h.751v6.267c.297-.249.629-.4702.994-.6639s.737-.3459 1.116-.4565c.392-.1246.758-.1868 1.096-.1868 1.204 0 2.063.3735 2.577 1.1202.528.747.798 1.917.812 3.508v3.507c0 .249-.007.505-.021.768 0 .249-.02.504-.06.767.216-.013.439-.02.669-.02.23-.014.44-.028.629-.042v1.1h-4.545z"/><path d="m245.917 85.796c.405 0 .689-.096.852-.29.162-.194.257-.464.284-.81.041-.345.061-.747.061-1.203v-4.296c0-.235.007-.47.02-.705.014-.249.034-.512.061-.789-.23.014-.474.028-.731.041-.257 0-.493.007-.71.021v-1.0996c.609 0 1.089-.0277 1.441-.083.365-.0692.643-.1453.832-.2283.203-.083.352-.1729.446-.2698h.772v8.0107c0 .249-.007.505-.021.768-.013.249-.034.504-.061.767.217-.013.433-.02.65-.02.23-.014.439-.028.629-.042v1.1h-4.525zm2.171-11.6209c-.352 0-.65-.1314-.893-.3943-.244-.2767-.365-.6087-.365-.9961s.128-.7125.385-.9754c.257-.2767.548-.415.873-.415.352 0 .642.1383.872.415.244.2629.366.588.366.9754s-.122.7194-.366.9961c-.23.2629-.52.3943-.872.3943z"/><path d="m256.791 87c-.947 0-1.799-.221-2.556-.664-.745-.457-1.333-1.093-1.766-1.909-.433-.83-.649-1.806-.649-2.926 0-.969.209-1.875.629-2.719.433-.844 1.035-1.522 1.806-2.0336.771-.5257 1.664-.7886 2.678-.7886.569 0 1.103.0899 1.604.2698.514.1798.967.4634 1.359.8504.406.374.724.865.954 1.474.23.595.345 1.321.345 2.179l-6.981.124c0 .941.102 1.778.305 2.511.216.734.561 1.301 1.035 1.702.473.401 1.089.602 1.846.602.365 0 .751-.062 1.157-.187.419-.138.812-.332 1.177-.581.379-.249.697-.546.954-.892l.629.56c-.406.623-.873 1.114-1.401 1.473-.527.346-1.068.588-1.623.727-.541.152-1.042.228-1.502.228zm-2.496-7.222h4.688c0-.526-.074-.996-.223-1.411-.135-.429-.352-.768-.65-1.017-.297-.249-.676-.3733-1.136-.3733-.717 0-1.305.2353-1.765.7053-.46.457-.765 1.155-.914 2.096z"/><path d="m262.9 86.668v-.872c.406 0 .69-.096.852-.29s.257-.464.284-.81c.041-.345.061-.747.061-1.203l.02-4.317c0-.221 0-.456 0-.705.014-.263.041-.519.082-.768-.244.014-.494.028-.751.041-.244 0-.474.007-.69.021v-1.0996c.609 0 1.082-.0277 1.42-.083.352-.0692.616-.1453.792-.2283.189-.083.331-.1729.426-.2698h.73c.014.1245.021.2421.021.3528.013.1107.02.2283.02.3528.014.1245.027.2831.041.4771.297-.249.622-.4702.974-.6639.351-.1937.717-.3459 1.095-.4565.393-.1246.765-.1868 1.117-.1868 1.204 0 2.069.3735 2.597 1.1202.541.747.812 1.917.812 3.508v3.507c0 .249-.007.505-.021.768-.013.249-.033.504-.06.767.216-.013.432-.02.649-.02.23-.014.44-.028.629-.042v1.1h-4.525v-.872c.406 0 .69-.096.852-.29s.257-.464.284-.81c.041-.345.061-.747.061-1.203v-2.905c-.014-1.093-.189-1.917-.528-2.47-.324-.553-.852-.823-1.582-.809-.433 0-.86.11-1.279.332-.419.221-.771.491-1.055.809v.457.477 4.711c0 .249-.007.505-.02.768-.014.249-.034.504-.061.767.216-.013.433-.02.649-.02.23-.014.44-.028.629-.042v1.1z"/></g></svg>