<svg viewBox="0 0 1 1" xmlns="http://www.w3.org/2000/svg"><path d="m.728517.156919c.086421.061008.183643.10085.231655.175554.049208.074704.050408.18178.016804.27018-.033608.087154-.103225.155633-.165639.225357-.063615.068478-.122429.138202-.195646.161858-.072017.023652-.158437.001245-.249659-.019921-.090021-.021166-.184843-.041087-.249658-.099605-.0636151-.058518-.0960227-.154388-.10802555-.253994-.0132031-.09836-.014642-.233472.02496725-.318136.0384091-.084665.0622282-.158962.1426473-.2224607.080419-.0647434.224878-.08318098.307697-.07322045.082819.01120555.158437.09337995.244857.15438815z"/></svg>