<svg viewBox="0 0 1 1" xmlns="http://www.w3.org/2000/svg"><path d="m.751461.0748163c.072206.0606717.119935.1503617.163992.2453267.045282.094965.086887.193887.084444.294128-.002448.100241-.047729.201801-.121158.255878-.074654.054078-.176231.060673-.269242.081776-.09301.021103-.177454.056715-.258226.046164-.080773-.010552-.157874-.067267-.215393-.13981-.0575202-.073862-.094235-.16487-.1174876-.265111-.02202884-.100241-.0318194-.208396.0146859-.278301s.1480827-.10156.2325267-.155637c.085667-.052759.154202-.1292584.236198-.15168073.081996-.02242237.178678.00659483.24966.06726703z"/></svg>