<svg viewBox="0 0 1 1" xmlns="http://www.w3.org/2000/svg"><path d="m.221.0493826c-.078008.0564614-.117673.1680084-.1533723.2740454-.0343767.106038-.06478674.207945-.0674311.316737-.00264435.108792.022477.225847.0925525.289194.0700759.064724.1864269.075741.2842679.068856.097842-.008263.178495-.035805.282947-.038559.105774-.002755.235347.019279.293523-.034428.059503-.052331.044954-.180402.044954-.294703-.001322-.112923.009259-.21483-.026443-.290571-.037021-.077119-.120318-.129449-.203616-.183156-.081975-.055085-.161305-.1129239-.259147-.1404662-.096519-.0261652-.210226-.02478805-.288235.0330508z"/></svg>