<svg viewBox="0 0 1 1" xmlns="http://www.w3.org/2000/svg"><path d="m.286895.175597c-.063755.061936-.123832.105656-.180231.17002-.0551731.063151-.10666781.146946-.10666781.229527.00122606.082581.05394681.165163.12015381.225884.067434.061936.14958.102012.239083.138445.089503.037647.187588.071647.279543.057078.093181-.013359.180232-.07408.245213-.151804.064982-.077723.10912-.172448.11525-.268388.006131-.094726-.025747-.190665-.067433-.280533-.042913-.089868-.095633-.173663-.172876-.2295271-.076016-.0558637-.176553-.0825812-.258699-.0558638-.083373.025503-.14958.1032269-.213336.1651619z"/></svg>