<svg viewBox="0 0 1 1" xmlns="http://www.w3.org/2000/svg"><path d="m.713101.175597c.063755.061936.123832.105656.180231.17002.055173.063151.106668.146946.106668.229527-.001226.082581-.053947.165163-.120154.225884-.067434.061936-.14958.102012-.239083.138445-.089503.037647-.187588.071647-.279543.057078-.093181-.013359-.180231-.07408-.245213-.151804-.0649813-.077723-.10911961-.172448-.11524993-.268388-.00613033-.094726.02574733-.190666.06743353-.280533.0429124-.089868.0956334-.173663.1728754-.2295271.076016-.0558637.176553-.0825812.2587-.0558638.083372.025503.149579.1032269.213335.1651619z"/></svg>