<svg viewBox="0 0 1 1" xmlns="http://www.w3.org/2000/svg"><path d="m.816409.036702c.082671.0479048.13738.147599.164126.248587.026745.102284.023095.205862.006079.305555-.01702.100989-.047414.195504-.103338.273188-.055925.076388-.136164.134651-.218835.135946-.081455.001292-.164126-.054379-.249228-.088042-.086318-.032368-.175068-.041431-.255307-.088041-.0802397-.04661-.15196883-.129472-.15926332-.218808-.00729449-.090631.04862992-.186441.11063332-.258946.063219-.072504.1313-.119114.200598-.174788.068082-.054378.13738-.1152301.226129-.1475983.08875-.0323681.196951-.0349575.278406.0129473z"/></svg>