<svg viewBox="0 0 1 1" xmlns="http://www.w3.org/2000/svg"><path d="m.235868.0230124c-.078597.0356381-.1358804.1192506-.1785096.2110866-.0439613.093207-.074601.193268-.0466256.274139s.1145662.141181.1825062.212457c.069272.071277.119894.150777.198492.208346.078597.056198.18517.090469.267764.05894.083926-.032897.145206-.128846.187835-.219311.043961-.090466.070604-.175449.102576-.271398.031972-.095948.070604-.202862.037301-.275509-.033304-.072647-.139877-.109655-.231796-.1398107-.091919-.0287846-.169185-.049345-.257107-.0657933-.087923-.01644834-.185171-.0287846-.262436.0068534z"/></svg>