<svg fill="none" height="40" viewBox="0 0 40 40" width="40" xmlns="http://www.w3.org/2000/svg"><path d="m11.75 8.75c0-4.83281 3.9141-8.75 8.75-8.75s8.75 3.91719 8.75 8.75v3.75h5c2.0703 0 3.75 1.6797 3.75 3.75v16.25c0 4.1406-3.3594 7.5-7.5 7.5h-20c-4.14219 0-7.5-3.3594-7.5-7.5v-16.25c0-2.0703 1.67891-3.75 3.75-3.75h5zm3.75 3.75h10v-3.75c0-2.76172-2.2422-5-5-5s-5 2.23828-5 5zm-1.875 7.5c1.0391 0 1.875-.8359 1.875-1.875s-.8359-1.875-1.875-1.875-1.875.8359-1.875 1.875.8359 1.875 1.875 1.875zm13.75-3.75c-1.0391 0-1.875.8359-1.875 1.875s.8359 1.875 1.875 1.875 1.875-.8359 1.875-1.875-.8359-1.875-1.875-1.875z" fill="#1f2937"/></svg>