<svg fill="none" height="40" viewBox="0 0 40 40" width="40" xmlns="http://www.w3.org/2000/svg"><path clip-rule="evenodd" d="m38 3.75v22.5c0 1.1094-.4844 2.0938-1.25 2.8469v6.3562c.7338.436 1.25 1.2016 1.25 2.1172 0 1.3102-1.1195 2.4297-2.5 2.4297h-25c-4.14219 0-7.5-3.3578-7.5-7.5v-25c0-4.14219 3.35781-7.5 7.5-7.5h23.75c2.0703 0 3.75 1.67891 3.75 3.75zm-27.5 31.25h22.5v-5h-22.5c-1.38047 0-2.5 1.1195-2.5 2.5s1.11953 2.5 2.5 2.5zm4.5-22.3214c0 .6716.5438 1.2143 1.2143 1.2143h.6128c-.0038.1024-.0057.2011-.0057.3035v.6072c0 .1024.0019.2011.0057.3035h-.6128c-.6705 0-1.2143.5427-1.2143 1.2143 0 .6717.5438 1.2143 1.2143 1.2143h1.0735c1.1236 3.1837 4.1289 5.4643 7.7301 5.4643h.9107c.6716 0 1.2143-.5426 1.2143-1.2143 0-.6716-.5427-1.2143-1.2143-1.2143h-.9107c-2.1971 0-4.1058-1.2294-5.0811-3.0357h4.7775c.6716 0 1.2143-.5426 1.2143-1.2143 0-.6716-.5427-1.2143-1.2143-1.2143h-5.4567c-.0038-.0986-.0076-.2011-.0076-.3035v-.6072c0-.1024.0038-.2049.0076-.3035h5.4567c.6716 0 1.2143-.5427 1.2143-1.2143 0-.6717-.5427-1.2143-1.2143-1.2143h-4.7775c.9753-1.80626 2.884-3.03573 5.0811-3.03573h.9107c.6716 0 1.2143-.54377 1.2143-1.21428 0-.67052-.5427-1.21429-1.2143-1.21429h-.9107c-3.6012 0-6.6065 2.28096-7.7301 5.4643h-1.0735c-.6705 0-1.2143.5426-1.2143 1.2143z" fill="#1f2937" fill-rule="evenodd"/></svg>