<svg fill="none" height="40" viewBox="0 0 40 40" width="40" xmlns="http://www.w3.org/2000/svg"><path d="m15.5 2.5v2.5h10v-2.5c0-1.38047 1.1172-2.5 2.5-2.5s2.5 1.11953 2.5 2.5v2.5h3.75c2.0703 0 3.75 1.67891 3.75 3.75v3.75h-35v-3.75c0-2.07109 1.67891-3.75 3.75-3.75h3.75v-2.5c0-1.38047 1.1172-2.5 2.5-2.5s2.5 1.11953 2.5 2.5zm-12.5 12.5h35v21.25c0 2.0703-1.6797 3.75-3.75 3.75h-27.5c-2.07109 0-3.75-1.6797-3.75-3.75zm6.25 5c-.69063 0-1.25.5625-1.25 1.25v7.5c0 .6875.55937 1.25 1.25 1.25h7.5c.6875 0 1.25-.5625 1.25-1.25v-7.5c0-.6875-.5625-1.25-1.25-1.25z" fill="#1f2937"/></svg>