<svg fill="none" height="40" viewBox="0 0 40 40" width="40" xmlns="http://www.w3.org/2000/svg" xmlns:xlink="http://www.w3.org/1999/xlink"><clipPath id="a"><path d="m0 0h40v40h-40z"/></clipPath><g clip-path="url(#a)" fill="#1f2937"><path clip-rule="evenodd" d="m13.0001 4c7.1813 0 13 4.925 13 11s-5.8187 11-13 11c-2.3875 0-4.61248-.5562-6.53748-1.5025-1.56125.8075-3.58688 1.5025-5.983754 1.5025-.191125 0-.36-.1063-.4388126-.2854-.0768125-.1799-.04118753-.3843.0900626-.5221.0225-.0225 1.450004-1.5575 2.474374-3.605-1.628124-1.84-2.60437413-4.1144-2.60437413-6.5875 0-6.075 5.81875413-11 12.99998413-11zm3.5859 10.6912-2.3213 1.4412v.1029c0 .6691-.5662 1.2353-1.2353 1.2353s-1.2353-.5662-1.2353-1.2353v-.8235c0-.4118.2059-.8236.6177-1.0809l2.9338-1.75c.3603-.2059.5662-.5662.5662-.978 0-.6176-.5611-1.1323-1.1787-1.1323h-2.6302c-.6639 0-1.1323.5147-1.1323 1.1323 0 .6692-.5662 1.2353-1.23531 1.2353s-1.23529-.5661-1.23529-1.2353c0-2.00731 1.5956-3.6029 3.5566-3.6029h2.6302c2.1 0 3.6956 1.59559 3.6956 3.6029 0 1.2353-.6692 2.4192-1.7964 3.0883zm-3.5566 7.3088c-.9265 0-1.647-.7206-1.647-1.6471 0-.9264.6742-1.647 1.647-1.647.8802 0 1.6471.7206 1.6471 1.647 0 .9265-.7669 1.6471-1.6471 1.6471z" fill-rule="evenodd"/><path d="m40.0001 25c0 2.5375-.95 4.8688-2.525 6.7313.9717 1.8837 2.2504 3.3013 2.3816 3.4467.0064.007.0109.0121.0109.0121.1312.1378.1668.3421.09.5221-.0787.18-.2475.2878-.4387.2878-2.2625 0-4.1938-.625-5.7157-1.3738-1.7206.8733-3.6975 1.3738-5.8031 1.3738-5.6812 0-10.3312-3.5562-11.6312-8.3438 6.6512-1.3312 11.6312-6.4925 11.6312-12.6562 0-.3004-.0247-.5958-.0493-.8888-.003-.0362-.0061-.0724-.009-.1085.0096-.0001.019-.0007.0284-.0014.0099-.0006.0198-.0013.0299-.0013 6.625 0 12 4.925 12 11z"/></g></svg>