<svg fill="none" height="40" viewBox="0 0 40 40" width="40" xmlns="http://www.w3.org/2000/svg"><path d="m9.32812 2.15244c1.82028-.30312 3.65628-.14843 5.28908.41641l3.9609 6.05234-5.8984 5.89061c-.1172.125-.25.2188-.1797.461 0 .164.0078.3281.2031.4453l8.75 8.125c.2266.2109.5078.2187.8203.0234.2422-.2031.2969-.5469.1328-.8125l-4.7187-7.6641 7.0859-5.9062c.2032-.23438.2813-.4375.1875-.6875l-1.7734-4.96563c2.2344-1.30547 4.875-1.81328 7.4844-1.37813 5.3828.89688 9.3281 5.55469 9.3281 11.01566v.4531c0 3.2422-1.3438 6.3437-3.7188 8.5547l-14.1171 13.1797c-.586.5468-1.3594.8515-2.1641.8515s-1.5781-.3047-2.1641-.8515l-14.11793-13.1797c-2.37188-2.211-3.71797-5.3125-3.71797-8.5547v-.4531c0-5.46097 3.94688-10.11878 9.32812-11.01644z" fill="#1f2937"/></svg>