<svg fill="none" height="40" viewBox="0 0 40 40" width="40" xmlns="http://www.w3.org/2000/svg"><path d="m19.9438 4c-.7688 0-1.4438.675-1.4438 1.5v29c0 .825.675 1.5 1.4438 1.5.7687 0 1.5-.675 1.5-1.5v-29c.0562-.825-.6188-1.5-1.5-1.5zm-6.5875 10.7375c-.55-1.6375-2.075-2.7375-3.80003-2.7375h-3.1125c-1.72688 0-3.2525 1.1-3.79563 2.7375l-2.544808 7.6312c-.349625 1.0482.216813 2.1807 1.263748 2.5301.7925.2631 1.62063.0089 2.13313-.5738v9.675c0 1.1044.89562 2 2 2 1.10437 0 1.94375-.8956 1.94375-2l-.00002-9h1l.00002 9c0 1.1044.89562 2 2.00004 2 1.1043 0 1.9437-.8956 1.9437-2v-9.7c.3776.4357.9187.7031 1.5.7031.209 0 .4219-.0332.6331-.1035 1.0469-.3496 1.6131-1.4825 1.2638-2.53zm-5.35628-4.7375c1.65625 0 2.94378-1.34375 2.94378-3s-1.28753-3-2.94378-3-3 1.34375-3 3 1.34375 3 3 3zm23.94378 0c1.6562 0 3-1.34375 3-3s-1.2875-3-3-3-2.9438 1.34375-2.9438 3 1.3438 3 2.9438 3zm7.95 12.3687-2.5432-7.6312c-.5443-1.6375-2.0693-2.7375-3.7943-2.7375h-3.1175c-1.7244 0-3.25 1.0994-3.7932 2.7344l-2.545 7.6312c-.3496 1.0482.2169 2.1806 1.2638 2.53.2139.0711.4285.0796.6406.079l-1.0612 3.0254h2.5v6c0 1.1044.895 2 1.9437 2 1.0488 0 2-.8956 2-2v-6h1v6c0 1.1044.895 2 1.9438 2 1.0487 0 2-.8956 2-2v-6h2.4437l-.9994-2.9988c.2089 0 .4217-.0332.6325-.1034 1.2732-.3478 1.8357-1.4853 1.4857-2.5291z" fill="#1f2937"/></svg>