<svg fill="none" height="40" viewBox="0 0 40 40" width="40" xmlns="http://www.w3.org/2000/svg"><g fill="#1f2937"><path d="m12.204 26.0002h-3.19592l1.50132-12.4999c.2402-2 1.5014-3.5 3.5032-3.5h12.0107c2.0018 0 3.263 1.5 3.5032 3.5l1.5013 12.4999h-16.8024l1.5792-11.2265c.0516-.3664-.0542-.5125-.4259-.5647l-.9911-.1392c-.3717-.0522-.513.0542-.5653.4256z"/><path d="m7.00629 28.0002c-.50045 0-1.0009.5-1.0009 1v4c0 .5.50045 1 1.0009 1h26.02331c.5005 0 1.0009-.5 1.0009-1v-4c0-.5-.5004-1-1.0009-1z"/><path clip-rule="evenodd" d="m2.20294 6.75025c.41458-.71744 1.33279-.96325 2.05088-.54904l3.46721 2c.71808.41422.96412 1.3316.54953 2.04909-.41459.7174-1.33279.9632-2.05088.549l-3.46721-2.00001c-.71808-.41421-.96412-1.3316-.54953-2.04904zm35.59416 0c.4145.71744.1685 1.63483-.5496 2.04904l-3.4672 2.00001c-.7181.4142-1.6363.1684-2.0509-.549-.4145-.71749-.1685-1.63487.5496-2.04909l3.4672-2c.7181-.41421 1.6363-.1684 2.0509.54904zm-37.7971 11.25005c0-.8285.672176-1.5 1.50135-1.5h4.00359c.82917 0 1.50135.6715 1.50135 1.5 0 .8284-.67218 1.5-1.50135 1.5h-4.00359c-.829174 0-1.50135-.6716-1.50135-1.5zm32.9937 0c0-.8285.6722-1.5 1.5014-1.5h4.0036c.8291 0 1.5013.6715 1.5013 1.5 0 .8284-.6722 1.5-1.5013 1.5h-4.0036c-.8292 0-1.5014-.6716-1.5014-1.5z" fill-rule="evenodd"/></g></svg>