<svg viewBox="0 0 48 48" xmlns="http://www.w3.org/2000/svg"><path d="m24.6369 21.826-15.38453-15.38452c-1.20191-1.20192-3.14902-1.20192-4.35093 0-1.20192 1.20191-1.20192 3.14902 0 4.35092l13.21626 13.2067-13.21146 13.2114c-1.20191 1.2019-1.20191 3.149 0 4.351.59904.6009 1.38557.899 2.17307.899.78749 0 1.57499-.3005 2.17499-.9014l15.3845-15.3846c1.2-1.2043 1.2-3.1466-.0019-4.3485zm18.4614 0-15.3845-15.38452c-1.2019-1.20192-3.149-1.20192-4.3509 0-1.202 1.20191-1.202 3.14902 0 4.35092l13.2162 13.2067-13.2114 13.2114c-1.2019 1.2019-1.2019 3.149 0 4.351.5961.6009 1.3846.899 2.173.899.7885 0 1.575-.3005 2.175-.9014l15.3845-15.3846c1.2-1.2043 1.2-3.1466-.0019-4.3485z"/></svg>