<svg viewBox="0 0 48 48" xmlns="http://www.w3.org/2000/svg"><path d="m11.4246 24.0018 13.2099-13.21c1.2018-1.20177 1.2018-3.14865 0-4.35043-1.2017-1.20178-3.1486-1.20178-4.3504 0l-15.38277 15.38273c-1.20177 1.2018-1.20177 3.1487 0 4.3505l15.38277 15.3827c.5961.6057 1.3844.9038 2.1728.9038s1.5748-.3005 2.1748-.9014c1.2017-1.2017 1.2017-3.1486 0-4.3504zm18.4641 0 13.21-13.21c1.2017-1.20177 1.2017-3.14865 0-4.35043-1.2018-1.20178-3.1487-1.20178-4.3505 0l-15.3827 15.38273c-1.2018 1.2018-1.2018 3.1487 0 4.3505l15.3827 15.3827c.5913.6057 1.3797.9038 2.168.9038.7884 0 1.5748-.3005 2.1748-.9014 1.2018-1.2017 1.2018-3.1486 0-4.3504z"/></svg>