<svg viewBox="0 0 48 48" xmlns="http://www.w3.org/2000/svg"><path d="m23.1162 32.5624-6.6667 6.6667c-.4305.4305-1.1389.4305-1.5694 0l-6.6667-6.6667c-.43055-.4306-.43055-1.1389 0-1.5695.43056-.4305 1.13889-.4305 1.56945 0l4.77085 4.7709v-26.20835c0-.61111.5-1.11111 1.1111-1.11111s1.1111.5 1.1111 1.11111v26.20835l4.7708-4.7709c.4306-.4305 1.1389-.4305 1.5695 0 .4305.4306.4305 1.1389 0 1.5695zm11.3194-23.50695 4.4375 8.86805c.007.0139.0139.0278.0209.0417l1.0972 2.2014c.2778.5486.0486 1.2152-.5 1.493s-1.2153.0486-1.4931-.5l-.7986-1.6042h-7.5139l-.8055 1.6112c-.2778.5486-.9445.7708-1.4931.5-.5486-.2709-.7708-.9445-.5-1.4931l1.0972-2.2014c.007-.0139.0139-.0278.0209-.0417l4.4444-8.87495c.1875-.375.5695-.61111.9931-.61111s.8055.23611.993.61111zm-.993 2.98615-2.6459 5.2916h5.2917zm-4.4445 14.1805h8.8889c.4306 0 .8195.2431 1 .632.1806.3888.132.8402-.1319 1.1736l-7.4445 9.3055h6.5764c.6111 0 1.1111.5 1.1111 1.1111s-.5 1.1111-1.1111 1.1111h-8.8889c-.4305 0-.8194-.243-1-.6319-.1805-.3889-.1319-.8403.132-1.1736l7.4444-9.3056h-6.5764c-.6111 0-1.1111-.5-1.1111-1.1111s.5-1.1111 1.1111-1.1111z"/></svg>