<svg viewBox="0 0 48 48" xmlns="http://www.w3.org/2000/svg"><path d="m29 4c-1.3828 0-2.5 1.11719-2.5 2.5s1.1172 2.5 2.5 2.5h6.4609l-15.7265 15.7344c-.9766.9765-.9766 2.5625 0 3.539.9765.9766 2.5625.9766 3.539 0l15.7266-15.7343v6.4609c0 1.3828 1.1172 2.5 2.5 2.5s2.5-1.1172 2.5-2.5v-12.5c0-1.38281-1.1172-2.5-2.5-2.5zm-18.75 2.5c-3.45312 0-6.25 2.79688-6.25 6.25v25c0 3.4531 2.79688 6.25 6.25 6.25h25c3.4531 0 6.25-2.7969 6.25-6.25v-8.75c0-1.3828-1.1172-2.5-2.5-2.5s-2.5 1.1172-2.5 2.5v8.75c0 .6875-.5625 1.25-1.25 1.25h-25c-.6875 0-1.25-.5625-1.25-1.25v-25c0-.6875.5625-1.25 1.25-1.25h8.75c1.3828 0 2.5-1.1172 2.5-2.5 0-1.38281-1.1172-2.5-2.5-2.5z"/></svg>