<svg viewBox="0 0 48 48" xmlns="http://www.w3.org/2000/svg"><path d="m13.996 42.6639c.7499 0 1.4581-.3166 1.9664-.8665l7.3323-7.9989c.9915-1.0832.9248-2.7746-.1667-3.7661s-2.7746-.9249-3.7661.1666l-2.6996 2.9413v-25.13808c0-1.47479-1.1915-2.66628-2.6663-2.66628s-2.6663 1.19149-2.6663 2.66628v25.13808l-2.6996-2.9413c-.99153-1.0832-2.68295-1.1581-3.76613-.1666s-1.15817 2.6829-.16664 3.7661l7.33227 7.9989c.5083.5499 1.2165.8665 1.9664.8665zm24.2215-15.4978c-.6916-.4999-1.5914-.6415-2.3997-.3666l-3.9994 1.3332c-1.3998.4666-2.1497 1.9747-1.6831 3.3745s1.9747 2.1497 3.3745 1.6831l.4916-.1667v4.3077h-1.3414c-1.4748 0-2.6663 1.1915-2.6663 2.6663s1.1915 2.6663 2.6663 2.6663h3.9994 3.9994c1.4748 0 2.6663-1.1915 2.6663-2.6663s-1.1915-2.6663-2.6663-2.6663h-1.3331v-7.9988c0-.8582-.4083-1.6581-1.1082-2.1664zm-2.6996-16.9142c.6397-.30275 1.3735-.33896 2.04-.1007.6664.2383 1.2109.7316 1.5136 1.3713.3028.6398.339 1.3736.1007 2.04-.2383.6665-.7316 1.211-1.3713 1.5137s-1.3736.339-2.04.1007-1.2109-.7316-1.5137-1.3713c-.3027-.6398-.3389-1.3736-.1006-2.04.2383-.6665.7315-1.211 1.3713-1.5137zm-1.0999 9.3986-.5665.7666c-.8749 1.1832-.6249 2.8496.5582 3.7328 1.1832.8832 2.8496.6249 3.7328-.5583l4.0661-5.4825c1.1665-1.5748 1.7914-3.4745 1.7914-5.4326 0-4.04937-3.2829-7.33223-7.3323-7.33223s-7.3323 3.28286-7.3323 7.33223c0 3.2662 2.1331 6.0325 5.091 6.9824z"/></svg>