<svg viewBox="0 0 48 48" xmlns="http://www.w3.org/2000/svg"><path d="m30.25 4c-.6875 0-1.25.5625-1.25 1.25s.5625 1.25 1.25 1.25h9.4844l-19.1172 19.1172c-.4844.4844-.4844 1.2812 0 1.7656s1.2812.4844 1.7656 0l19.1172-19.11718v9.48438c0 .6875.5625 1.25 1.25 1.25s1.25-.5625 1.25-1.25v-12.5c0-.6875-.5625-1.25-1.25-1.25zm-21.25 2.5c-2.75781 0-5 2.24219-5 5v27.5c0 2.7578 2.24219 5 5 5h27.5c2.7578 0 5-2.2422 5-5v-11.25c0-.6875-.5625-1.25-1.25-1.25s-1.25.5625-1.25 1.25v11.25c0 1.3828-1.1172 2.5-2.5 2.5h-27.5c-1.38281 0-2.5-1.1172-2.5-2.5v-27.5c0-1.3828 1.11719-2.5 2.5-2.5h11.25c.6875 0 1.25-.5625 1.25-1.25s-.5625-1.25-1.25-1.25z"/></svg>