<svg fill="none" height="40" viewBox="0 0 40 40" width="40" xmlns="http://www.w3.org/2000/svg"><path d="m12.9725 34.3889c-.4236.4583-1.0139.7222-1.6389.7222s-1.2152-.2639-1.63885-.7222l-6.11111-6.6667c-.82639-.9028-.77084-2.3125.13889-3.1389.90972-.8264 2.3125-.7708 3.13889.1389l2.25 2.4514v-20.95138c0-1.22916.99308-2.22222 2.22218-2.22222 1.2292 0 2.2223.99306 2.2223 2.22222v20.95138l2.25-2.4583c.8263-.9028 2.2361-.9653 3.1389-.1389.9027.8264.9652 2.2361.1388 3.1389l-6.1111 6.6666zm9.4722-10.3889c0-1.2292.9931-2.2222 2.2223-2.2222h8.8889c.8958 0 1.7083.5416 2.0555 1.375.3472.8333.1528 1.7847-.4791 2.4236l-5.0973 5.0903h3.5209c1.2291 0 2.2222.993 2.2222 2.2222s-.9931 2.2222-2.2222 2.2222h-8.8889c-.8959 0-1.7084-.5417-2.0556-1.375s-.1528-1.7847.4792-2.4236l5.0972-5.0903h-3.5208c-1.2292 0-2.2223-.993-2.2223-2.2222zm6.6667-20c.8403 0 1.6111.47222 1.9861 1.22917l4.4445 8.88893 1.1111 2.2222c.5486 1.0972.1042 2.4305-.9931 2.9791-1.0972.5487-2.4305.1042-2.9791-.993l-.5-.9931h-6.1389l-.5.9931c-.5486 1.0972-1.882 1.5417-2.9792.993-1.0972-.5486-1.5417-1.8819-.9931-2.9791l1.1112-2.2222 4.4444-8.88893c.375-.75695 1.1458-1.22917 1.9861-1.22917zm-1.4028 10h2.8056l-1.4028-2.8056z" fill="#475569"/></svg>