<svg viewBox="0 0 48 48" xmlns="http://www.w3.org/2000/svg"><path d="m34.5436 15.7245h-4.336c-1.5257 0-2.7584 1.2327-2.7584 2.7585s1.2327 2.7585 2.7584 2.7585h11.0339c1.5258 0 2.7585-1.2327 2.7585-2.7585v-11.0339c0-1.52578-1.2327-2.75847-2.7585-2.75847s-2.7584 1.23269-2.7584 2.75847v4.4136l-1.5172-1.5172c-7.5427-7.5427-19.7662-7.5427-27.30888 0-7.54269 7.5427-7.54269 19.7662 0 27.3089 7.54268 7.5427 19.76618 7.5427 27.30888 0 1.0775-1.0776 1.0775-2.8275 0-3.905s-2.8274-1.0775-3.905 0c-5.3876 5.3877-14.1199 5.3877-19.5075 0-5.38768-5.3876-5.38768-14.1199 0-19.5076 5.3876-5.3876 14.1199-5.3876 19.5075 0z"/></svg>