<svg fill="none" height="48" viewBox="0 0 48 48" width="48" xmlns="http://www.w3.org/2000/svg"><path d="m15.7711 41.5096c-.5.541-1.1967.8524-1.9345.8524-.7377 0-1.4344-.3114-1.9344-.8524l-7.2133-7.8691c-.97543-1.0656-.90986-2.7295.16394-3.705 1.07379-.9754 2.72957-.9098 3.705.164l2.65576 2.8935v-24.7301c0-1.45085 1.1722-2.62301 2.623-2.62301 1.4509 0 2.6231 1.17216 2.6231 2.62301v24.7301l2.6558-2.9017c.9754-1.0656 2.6394-1.1394 3.705-.164 1.0656.9755 1.1393 2.6394.1639 3.705l-7.2133 7.8691zm11.1806-12.2626c0-1.4509 1.1722-2.623 2.623-2.623h10.492c1.0574 0 2.0165.6393 2.4263 1.623.4099.9836.1804 2.1066-.5656 2.8607l-6.0165 6.0083h4.1558c1.4509 0 2.6231 1.1722 2.6231 2.623 0 1.4509-1.1722 2.623-2.6231 2.623h-10.492c-1.0574 0-2.0164-.6393-2.4263-1.623-.4098-.9836-.1803-2.1066.5656-2.8607l6.0165-6.0083h-4.1558c-1.4508 0-2.623-1.1722-2.623-2.623zm7.869-23.60711c.9919 0 1.9017.55739 2.3443 1.45086l5.2461 10.49205 1.3115 2.623c.6475 1.2951.1229 2.8689-1.1722 3.5165-1.2951.6475-2.8689.1229-3.5165-1.1722l-.5901-1.1721h-7.2461l-.5902 1.1721c-.6475 1.2951-2.2213 1.8197-3.5165 1.1722-1.2951-.6476-1.8197-2.2214-1.1721-3.5165l1.3115-2.623 5.246-10.49205c.4426-.89347 1.3525-1.45086 2.3443-1.45086zm-1.6557 11.80351h3.3115l-1.6558-3.3115z" fill="#475569"/></svg>