<svg viewBox="0 0 48 48" xmlns="http://www.w3.org/2000/svg"><path d="m13.4564 15.7245h4.336c1.5257 0 2.7584 1.2327 2.7584 2.7585s-1.2327 2.7585-2.7584 2.7585h-11.03393c-1.52578 0-2.75847-1.2327-2.75847-2.7585v-11.0339c0-1.52578 1.23269-2.75847 2.75847-2.75847s2.75847 1.23269 2.75847 2.75847v4.4136l1.51716-1.5172c7.5427-7.5427 19.7662-7.5427 27.3089 0s7.5427 19.7662 0 27.3089-19.7662 7.5427-27.3089 0c-1.07752-1.0776-1.07752-2.8275 0-3.905 1.0775-1.0775 2.8274-1.0775 3.905 0 5.3876 5.3877 14.1199 5.3877 19.5075 0 5.3877-5.3876 5.3877-14.1199 0-19.5076-5.3876-5.3876-14.1199-5.3876-19.5075 0z"/></svg>