<svg viewBox="0 0 48 48" xmlns="http://www.w3.org/2000/svg"><g><path clip-rule="evenodd" d="m22.5772 4.42651c.8594-.57031 1.9844-.57031 2.8438 0l1.3906.91407c.4687.30468 1.0156.45312 1.5703.42187l1.6641-.10156c1.0312-.0625 2 .5 2.4609 1.42187l.75 1.49219c.25.5.6563.89844 1.1484 1.14844l1.5079.75781c.9218.4609 1.4843 1.4297 1.4218 2.4609l-.1015 1.6641c-.0313.5547.1172 1.1094.4218 1.5703l.9219 1.3906c.5703.8594.5703 1.9844 0 2.8438l-.9219 1.3984c-.3046.4688-.4531 1.0157-.4218 1.5703l.1015 1.6641c.0625 1.0313-.5 2-1.4218 2.4609l-1.4922.75c-.3983.1992-.7321.4975-.9779.8593l13.867 10.8687c.78.615.9225 1.7475.3075 2.5275s-1.7475.9225-2.5275.3075l-44.400045-34.80001c-.7799997-.615-.9225-1.7475-.3075-2.5275s1.747505-.9225 2.527505-.3075l8.08634 6.33791c.248-.4353.6224-.7984 1.0886-1.0315l1.4922-.74999c.5-.25781.9063-.66406 1.1563-1.16406l.75-1.49219c.4609-.92187 1.4297-1.48437 2.4609-1.42187l1.6641.10156c.5547.03125 1.1093-.11719 1.5703-.42187zm-4.519 12.62899 9.2454 7.2463c.401-.2497.7755-.5461 1.1149-.8856 1.1721-1.1721 1.8306-2.7618 1.8306-4.4194s-.6585-3.2473-1.8306-4.4194-2.7618-1.8306-4.4194-1.8306-3.2473.6585-4.4194 1.8306c-.7015.7015-1.219 1.5525-1.5215 2.4781z" fill-rule="evenodd"/><path d="m9.03807 18.5606 17.89193 14.0234c-.0374.0221-.0743.0451-.1106.0691l-1.3906.9219c-.8594.5703-1.9844.5703-2.8438 0l-1.3984-.9219c-.4688-.3047-1.0156-.4531-1.5703-.4219l-1.6641.1016c-1.0312.0625-2-.5-2.4609-1.4219l-.75-1.4922c-.25-.5-.6563-.8984-1.1485-1.1484l-1.5078-.7578c-.9218-.461-1.4843-1.4297-1.4218-2.461l.1015-1.664c.0313-.5547-.1172-1.1094-.4219-1.5704l-.91402-1.3984c-.36906-.5561-.49929-1.2235-.39071-1.8581z"/><path d="m29.7793 34.8173 6.702 5.2529-3.2947-.4874-2.5156 3.8437c-.25.3906-.6953.6016-1.1563.5625-.4609-.039-.8594-.3359-1.039-.7578l-2.9375-6.9687c.4375-.1407.8593-.336 1.2578-.6016l1.3906-.9219c.0156-.0078.0312-.0156.0547-.0156z"/><path d="m9.10065 38.5125 3.36715-8.0079c.0157.0079.0235.0157.0313.0313l.75 1.4922c.9141 1.8125 2.8125 2.914 4.8437 2.7969l1.6641-.1016c.0156 0 .0391 0 .0547.0156l1.3906.9219c.3985.2578.8203.4609 1.2578.6016l-2.9375 6.9765c-.1797.4297-.5781.7188-1.039.7578-.461.0391-.9063-.1718-1.1563-.5625l-2.5156-3.8515-4.3828.6484c-.44533.0625-.89065-.1172-1.1719-.4687-.28125-.3516-.33593-.836-.16406-1.25z"/></g></svg>