<svg viewBox="0 0 48 48" xmlns="http://www.w3.org/2000/svg"><g><path clip-rule="evenodd" d="m25.421 4.42651c-.8594-.57031-1.9844-.57031-2.8438 0l-1.3984.91407c-.461.30468-1.0156.45312-1.5703.42187l-1.6641-.10156c-1.0312-.0625-2 .5-2.4609 1.42187l-.75 1.49219c-.25.5-.6563.90625-1.1563 1.16406l-1.4922.74999c-.9218.461-1.4843 1.4297-1.4218 2.461l.1015 1.664c.0313.5547-.1172 1.1016-.4219 1.5703l-.91402 1.3907c-.57031.8593-.57031 1.9843 0 2.8437l.91402 1.3984c.3047.461.4532 1.0157.4219 1.5704l-.1015 1.664c-.0625 1.0313.5 2 1.4218 2.461l1.5078.7578c.4922.25.8985.6484 1.1485 1.1484l.75 1.4922c.4609.9219 1.4297 1.4844 2.4609 1.4219l1.6641-.1016c.5547-.0312 1.1015.1172 1.5703.4219l1.3984.9219c.2939.195.6189.3233.9537.385 1.2854-6.1171 6.712-10.7099 13.2113-10.7099.1605 0 .3204.0028.4795.0084-.0048-.5129.1434-1.0146.4258-1.4492l.9219-1.3984c.5703-.8594.5703-1.9844 0-2.8438l-.9219-1.3906c-.3046-.4609-.4531-1.0156-.4218-1.5703l.1015-1.6641c.0625-1.0312-.5-2-1.4218-2.4609l-1.5079-.75781c-.4921-.25-.8984-.64844-1.1484-1.14844l-.75-1.49219c-.4609-.92187-1.4297-1.48437-2.4609-1.42187l-1.6641.10156c-.5547.03125-1.1016-.11719-1.5703-.42187zm2.9975 10.15089c1.1721 1.1721 1.8306 2.7618 1.8306 4.4194s-.6585 3.2473-1.8306 4.4194-2.7618 1.8306-4.4194 1.8306-3.2473-.6585-4.4194-1.8306-1.8306-2.7618-1.8306-4.4194.6585-3.2473 1.8306-4.4194 2.7618-1.8306 4.4194-1.8306 3.2473.6585 4.4194 1.8306z" fill-rule="evenodd"/><path d="m12.4678 30.5046-3.36714 8.0079h-.00781c-.17188.414-.11719.8984.16406 1.25.28125.3515.72656.5312 1.17189.4687l4.3828-.6484 2.5156 3.8515c.25.3907.6953.6016 1.1563.5625.4609-.039.8593-.3281 1.039-.7578l2.9375-6.9765c-.4375-.1407-.8593-.3438-1.2578-.6016l-1.3906-.9219c-.0156-.0156-.0391-.0156-.0547-.0156l-1.6641.1016c-2.0312.1171-3.9296-.9844-4.8437-2.7969l-.75-1.4922c-.0078-.0156-.0156-.0234-.0313-.0313z"/><path clip-rule="evenodd" d="m44.705 28.7952c-2.1098-2.1098-4.9713-3.2951-7.955-3.2951s-5.8452 1.1853-7.9549 3.2951c-2.1098 2.1097-3.2951 4.9712-3.2951 7.9549s1.1853 5.8452 3.2951 7.955c2.1097 2.1097 4.9712 3.295 7.9549 3.295s5.8452-1.1853 7.955-3.295c2.1097-2.1098 3.295-4.9713 3.295-7.955s-1.1853-5.8452-3.295-7.9549zm-6.6292 14.9057c-.3516.3517-.8285.5492-1.3258.5492s-.9742-.1975-1.3258-.5492c-.3516-.3516-.5492-.8285-.5492-1.3258s.1976-.9742.5492-1.3258.8285-.5492 1.3258-.5492.9742.1976 1.3258.5492c.3517.3516.5492.8285.5492 1.3258s-.1975.9742-.5492 1.3258zm-6.3258-10.0758v-.4922c0-1.7969 1.4531-3.25 3.25-3.25h3.1641c1.9765 0 3.5859 1.6016 3.5859 3.586 0 1.3281-.7344 2.5546-1.9141 3.1718l-1.8359.961v.3984c0 .6875-.5625 1.25-1.25 1.25s-1.25-.5625-1.25-1.25v-1.1562c0-.4688.2578-.8907.6719-1.1094l2.5-1.3125c.3515-.1875.5781-.5547.5781-.961 0-.6015-.4844-1.0859-1.0859-1.0859h-3.1641c-.4141 0-.75.3359-.75.75v.5c0 .6875-.5625 1.25-1.25 1.25s-1.25-.5625-1.25-1.25z" fill-rule="evenodd"/></g></svg>