<svg viewBox="0 0 48 48" xmlns="http://www.w3.org/2000/svg"><path d="m22.0089 4.55737c1.2265-.74218 2.7578-.74218 3.9843 0l1.2813.78125c.2187.13282.4687.20313.7266.19532l1.4999-.03907c1.4297-.03125 2.7657.73438 3.4532 1.99219l.7187 1.3125c.125.22656.3047.40625.5313.53125l1.3125.71879c1.2578.6875 2.0234 2.0156 1.9922 3.4531l-.0391 1.5c-.0078.2578.0625.5078.1953.7265l.7813 1.2813c.7421 1.2266.7421 2.7578 0 3.9844l-.7813 1.2812c-.1328.2188-.2031.4688-.1953.7266l.0391 1.5c.0312 1.4297-.7344 2.7656-1.9922 3.4531l-1.3125.7188c-.2266.125-.4063.3046-.5313.5312l-.7187 1.3125c-.6875 1.2578-2.0157 2.0234-3.4532 1.9922l-1.4999-.0391c-.2579-.0078-.5079.0625-.7266.1953l-1.2813.7813c-1.2265.7422-2.7578.7422-3.9843 0l-1.2813-.7813c-.2187-.1328-.4687-.2031-.7265-.1953l-1.5.0391c-1.4297.0312-2.7657-.7344-3.4532-1.9922l-.7187-1.3125c-.125-.2266-.3047-.4062-.5313-.5312l-1.3125-.7188c-1.2578-.6875-2.0234-2.0156-1.9922-3.4531l.0391-1.5c.0078-.2578-.0625-.5078-.1953-.7266l-.78126-1.2812c-.74219-1.2266-.74219-2.7578 0-3.9844l.78126-1.2813c.1328-.2187.2031-.4687.1953-.7265l-.0391-1.5c-.0312-1.4297.7344-2.7656 1.9922-3.4531l1.3125-.71879c.2266-.125.4063-.30469.5313-.53125l.7187-1.3125c.6875-1.25781 2.0157-2.02344 3.4532-1.99219l1.5.03907c.2578.00781.5078-.0625.7265-.19532zm2.6875 2.13282c-.4219-.25782-.961-.25782-1.3828 0l-1.2813.78125c-.625.38281-1.3516.57812-2.0859.55468l-1.5-.03906c-.5-.01562-.961.25781-1.1953.69531l-.7188 1.32033c-.3516.6406-.8828 1.1719-1.5234 1.5234l-1.3203.7188c-.4375.2422-.7032.7031-.6954 1.1953l.0391 1.5c.0156.7344-.1797 1.4531-.5547 2.0859l-.7812 1.2813c-.2578.4218-.2578.9609 0 1.3828l.7812 1.2812c.3828.625.5781 1.3516.5547 2.086l-.0391 1.5c-.0156.5.2579.9609.6954 1.1953l1.3125.7187c.6406.3516 1.1718.8828 1.5234 1.5235l.7187 1.3125c.2422.4375.7032.7031 1.1954.6953l1.5-.0391c.7343-.0156 1.4531.1797 2.0859.5547l1.2812.7813c.4219.2578.961.2578 1.3829 0l1.2812-.7813c.625-.3828 1.3516-.5781 2.0859-.5547l1.5.0391c.5.0156.961-.2578 1.1953-.6953l.7188-1.3125c.3516-.6407.8828-1.1719 1.5234-1.5235l1.3125-.7187c.4375-.2422.7032-.7031.6953-1.1953l-.039-1.5c-.0156-.7344.1797-1.4532.5547-2.086l.7812-1.2812c.2578-.4219.2578-.961 0-1.3828l-.7812-1.2813c-.3828-.625-.5782-1.3515-.5547-2.0859l.039-1.5c.0157-.5-.2578-.961-.6953-1.1953l-1.3125-.7188c-.6406-.3515-1.1718-.8828-1.5234-1.5234l-.7188-1.32033c-.2421-.4375-.7031-.70312-1.1953-.69531l-1.5.03906c-.7343.01563-1.4531-.17968-2.0859-.55468l-1.2812-.78125zm-.6953 7.92971c-.5746 0-1.1435.1131-1.6743.333s-1.0131.5421-1.4193.9484c-.4063.4062-.7286.8885-.9484 1.4193-.2199.5308-.333 1.0997-.333 1.6743 0 .5745.1131 1.1434.333 1.6742.2198.5308.5421 1.0131.9484 1.4194.4062.4062.8885.7285 1.4193.9483.5308.2199 1.0997.3331 1.6743.3331.5745 0 1.1434-.1132 1.6742-.3331.5308-.2198 1.0131-.5421 1.4193-.9483.4063-.4063.7286-.8886.9484-1.4194.2199-.5308.3331-1.0997.3331-1.6742 0-.5746-.1132-1.1435-.3331-1.6743-.2198-.5308-.5421-1.0131-.9484-1.4193-.4062-.4063-.8885-.7285-1.4193-.9484s-1.0997-.333-1.6742-.333zm6.875 4.375c0 1.8233-.7244 3.572-2.0137 4.8613s-3.038 2.0137-4.8613 2.0137c-1.8234 0-3.5721-.7244-4.8614-2.0137s-2.0136-3.038-2.0136-4.8613c0-1.8234.7243-3.5721 2.0136-4.8614s3.038-2.0136 4.8614-2.0136c1.8233 0 3.572.7243 4.8613 2.0136s2.0137 3.038 2.0137 4.8614zm-21.77349 19.5156 3.21879-7.6484c.1172.1406.2812.375.539.8437.3125.5781.711 1.0938 1.1719 1.5313l-1.7656 4.1953 2.9765-.4453c.4844-.0704.961.1406 1.2266.5546l1.6641 2.5469 2.0312-4.8281c.1406.0703.3203.1719.5391.3047.5469.3359 1.1328.5781 1.7344.7265l-2.9141 6.9297c-.1797.4297-.5781.7188-1.0391.7578-.4609.0391-.9062-.1718-1.1562-.5625l-2.5156-3.8359-4.3829.6484c-.44527.0625-.89059-.1171-1.17184-.4687s-.33593-.8359-.16406-1.25zm19.37499 4.7187-2.914-6.9296c.6015-.1563 1.1875-.3985 1.7343-.7266.2188-.1328.3985-.2344.5391-.3047l2.0312 4.8281 1.6641-2.5468c.2656-.4063.75-.625 1.2266-.5547l2.9765.4453-1.7656-4.1953c.4609-.4375.8594-.9532 1.1719-1.5313.2578-.4687.4219-.7031.539-.8437l3.2188 7.6484c.1719.4141.1094.8906-.1641 1.25-.2734.3594-.7265.5391-1.1718.4688l-4.3829-.6485-2.5156 3.8438c-.25.3906-.6953.6015-1.1562.5625-.461-.0391-.8594-.336-1.0391-.7578z"/></svg>