<svg viewBox="0 0 48 48" xmlns="http://www.w3.org/2000/svg"><g><path d="m25.9932 4.55737c-1.2265-.74218-2.7578-.74218-3.9843 0l-1.2813.78125c-.2187.13282-.4687.20313-.7266.19532l-1.5-.03907c-1.4375-.03125-2.7656.73438-3.4531 1.99219l-.7187 1.3125c-.125.22656-.3047.40625-.5313.53125l-1.3125.71879c-1.2578.6875-2.0234 2.0234-1.9922 3.4531l.0391 1.5c.0078.2578-.0625.5078-.1953.7265l-.78126 1.2813c-.74219 1.2266-.74219 2.7578 0 3.9844l.78126 1.2812c.1328.2188.2031.4688.1953.7266l-.0391 1.5c-.0312 1.4375.7344 2.7656 1.9922 3.4531l1.3125.7188c.2266.125.4063.3046.5313.5312l.7187 1.3125c.6875 1.2578 2.0235 2.0234 3.4531 1.9922l1.5-.0391c.2579-.0078.5079.0625.7266.1953l1.2813.7813c.4749.2874.9955.4635 1.5264.5283.1829-.8759.4507-1.7207.7944-2.5253-.3427.088-.7148.0375-1.024-.1514l-1.2812-.7813c-.6328-.375-1.3516-.5703-2.086-.5547l-1.4999.0391c-.4922.0078-.9532-.2578-1.1954-.6953l-.7187-1.3125c-.3516-.6407-.8828-1.1719-1.5234-1.5235l-1.3126-.7187c-.4375-.2344-.7109-.6953-.6953-1.1953l.0391-1.5c.0234-.7344-.1719-1.461-.5547-2.086l-.7812-1.2812c-.2578-.4219-.2578-.961 0-1.3828l.7812-1.2813c.375-.6328.5703-1.3515.5547-2.0859l-.0391-1.5c-.0078-.4922.2578-.9531.6953-1.1953l1.3204-.7188c.6406-.3515 1.1718-.8828 1.5234-1.5234l.7187-1.32033c.2344-.4375.6954-.71093 1.1954-.69531l1.5.03906c.7343.02344 1.4609-.17187 2.0859-.55468l1.2812-.78125c.4219-.25782.961-.25782 1.3829 0h-.0079l1.2813.78125c.6328.375 1.3516.57031 2.0859.55468l1.5-.03906c.4922-.00781.9532.25781 1.1954.69531l.7187 1.32033c.3516.6406.8828 1.1719 1.5234 1.5234l1.3125.7188c.4375.2343.711.6953.6954 1.1953l-.0391 1.5c-.0234.7344.1719 1.4609.5547 2.0859l.7812 1.2813c.2578.4218.2578.9609 0 1.3828l-.7812 1.2812c-.375.6328-.5703 1.3516-.5547 2.086l.008.309c.5825-.0767 1.1766-.1163 1.78-.1163.2438 0 .4861.0065.7267.0192l-.0069-.2666c-.0078-.2578.0625-.5078.1953-.7266l.7813-1.2812c.7422-1.2266.7422-2.7578 0-3.9844l-.7813-1.2813c-.1328-.2187-.2031-.4687-.1953-.7265l.0391-1.5c.0312-1.4375-.7344-2.7656-1.9922-3.4531l-1.3125-.71879c-.2266-.125-.4063-.30469-.5313-.53125l-.7187-1.3125c-.6875-1.25781-2.0235-2.02344-3.4531-1.99219l-1.5.03907c-.2579.00781-.5079-.0625-.7266-.19532z"/><path clip-rule="evenodd" d="m28.8624 23.8562c1.2893-1.2893 2.0137-3.038 2.0137-4.8613 0-1.8234-.7244-3.5721-2.0137-4.8614s-3.038-2.0136-4.8614-2.0136c-1.8233 0-3.572.7243-4.8613 2.0136s-2.0137 3.038-2.0137 4.8614c.0001 1.8233.7244 3.572 2.0137 4.8613s3.038 2.0137 4.8613 2.0137c1.8234 0 3.5721-.7244 4.8614-2.0137zm-6.5356-8.9033c.5308-.2199 1.0997-.333 1.6742-.333.5746 0 1.1435.1131 1.6743.333s1.0131.5421 1.4193.9484c.4063.4062.7286.8885.9484 1.4193.2199.5308.3331 1.0997.3331 1.6743 0 .5745-.1132 1.1434-.3331 1.6742-.2198.5308-.5421 1.0131-.9484 1.4194-.4062.4062-.8885.7285-1.4193.9483-.5308.2199-1.0997.3331-1.6743.3331-.5745 0-1.1434-.1132-1.6742-.3331-.5308-.2198-1.0131-.5421-1.4193-.9483-.4063-.4063-.7286-.8886-.9484-1.4194-.2199-.5308-.3331-1.0997-.3331-1.6742 0-.5746.1132-1.1435.3331-1.6743.2198-.5308.5421-1.0131.9484-1.4193.4062-.4063.8885-.7285 1.4193-.9484z" fill-rule="evenodd"/><path d="m12.3214 30.8621-3.21879 7.6484h-.00781c-.17187.4141-.11719.8984.16406 1.25s.72657.5312 1.17184.4687l4.3829-.6484 2.5156 3.8359c.25.3907.6953.6016 1.1562.5625.461-.039.8594-.3281 1.0391-.7578l2.914-6.9297c-.6015-.1484-1.1875-.3906-1.7343-.7265-.2188-.1328-.3985-.2344-.5391-.3047l-2.0312 4.8281-1.6641-2.5469c-.2656-.414-.7422-.625-1.2266-.5546l-2.9765.4453 1.7656-4.1953c-.4609-.4375-.8594-.9532-1.1719-1.5313-.2578-.4687-.4218-.7031-.539-.8437z"/><path d="m37.6339 40.8662c-.2344-.2344-.5524-.3661-.8839-.3661s-.6495.1317-.8839.3661-.3661.5524-.3661.8839.1317.6495.3661.8839.5524.3661.8839.3661.6495-.1317.8839-.3661.3661-.5524.3661-.8839-.1317-.6495-.3661-.8839z"/><path d="m35 30.5001c-1.7969 0-3.25 1.4531-3.25 3.25v.5c0 .6875.5625 1.25 1.25 1.25s1.25-.5625 1.25-1.25v-.5078c0-.4141.3359-.75.75-.75h3.1719c.6015 0 1.0859.4844 1.0859 1.0859 0 .3985-.2187.7735-.5781.961l-2.5 1.3125c-.4141.2187-.6719.6484-.6719 1.1093v.5313c0 .6875.5625 1.25 1.25 1.25.6094 0 1.1172-.4297 1.2266-1.0078l1.8515-.9766c1.1719-.6172 1.9141-1.8359 1.9141-3.1719 0-1.9765-1.6016-3.5859-3.5859-3.5859z"/><path clip-rule="evenodd" d="m28.7951 28.7952c-2.1098 2.1097-3.2951 4.9712-3.2951 7.9549s1.1853 5.8452 3.2951 7.955c2.1097 2.1097 4.9712 3.295 7.9549 3.295s5.8452-1.1853 7.955-3.295c2.1097-2.1098 3.295-4.9713 3.295-7.955s-1.1853-5.8452-3.295-7.9549c-2.1098-2.1098-4.9713-3.2951-7.955-3.2951s-5.8452 1.1853-7.9549 3.2951zm14.1421 1.7677c1.6409 1.641 2.5628 3.8666 2.5628 6.1872 0 2.3207-.9219 4.5463-2.5628 6.1872-1.641 1.6409-3.8665 2.5628-6.1872 2.5628-2.3206 0-4.5462-.9219-6.1872-2.5628-1.6409-1.6409-2.5628-3.8665-2.5628-6.1872 0-2.3206.9219-4.5462 2.5628-6.1872 1.641-1.6409 3.8666-2.5628 6.1872-2.5628 2.3207 0 4.5462.9219 6.1872 2.5628z" fill-rule="evenodd"/></g></svg>