<svg viewBox="0 0 48 48" xmlns="http://www.w3.org/2000/svg"><g><path d="m9.55573 20.9946c-.70093-1.1584-.73989-2.5885-.11688-3.7771l2.07205 1.6357c-.0313.2873.0305.5832.1855.8367l.7812 1.2813c.3828.625.5781 1.3516.5547 2.0859l-.0391 1.5c-.0156.5.2578.961.6953 1.1953l1.3125.7188c.6407.3516 1.1719.8828 1.5235 1.5234l.7187 1.3125c.2422.4375.7032.7032 1.1953.6953l1.5-.039c.7344-.0156 1.4532.1797 2.086.5547l1.2812.7812c.4219.2578.961.2578 1.3828 0l1.2813-.7812c.0603-.037.1215-.0721.1835-.1055l2.6337 2.0791-.786-.0205c-.2578-.0078-.5078.0625-.7265.1953l-1.2813.7813c-1.2265.7421-2.7578.7421-3.9843 0l-1.2813-.7813c-.2187-.1328-.4687-.2031-.7266-.1953l-1.5.0391c-1.4296.0312-2.7656-.7344-3.4531-1.9922l-.7187-1.3125c-.125-.2266-.3047-.4063-.5313-.5313l-1.3125-.7187c-1.2578-.6875-2.0234-2.0157-1.9922-3.4532l.0391-1.5c.0078-.2578-.0625-.5078-.1953-.7265z"/><path d="m30.876 18.9946c0 1.6293-.5783 3.199-1.6213 4.4346l-1.9639-1.5505c.3147-.359.569-.7676.7522-1.2098.2199-.5308.333-1.0997.333-1.6743 0-.5745-.1131-1.1434-.333-1.6742-.2198-.5308-.5421-1.0131-.9484-1.4194-.4062-.4062-.8885-.7285-1.4193-.9483-.5308-.2199-1.0997-.3331-1.6743-.3331-.5745 0-1.1434.1132-1.6742.3331-.5308.2198-1.0131.5421-1.4193.9483-.1744.1744-.3333.3628-.4753.563l-1.9639-1.5504c.2028-.2749.4269-.5359.6714-.7803 1.2893-1.2893 3.038-2.0137 4.8613-2.0137 1.8234 0 3.5721.7244 4.8614 2.0137s2.0136 3.038 2.0136 4.8613z"/><path d="m34.3057 25.7524-1.2448.6817 2.1437 1.6924.3121-.1709c1.2578-.6875 2.0234-2.0235 1.9922-3.4532l-.0391-1.5c-.0078-.2578.0625-.5078.1953-.7265l.7813-1.2813c.7421-1.2265.7421-2.7578 0-3.9843l-.7813-1.2813c-.1328-.2187-.2031-.4687-.1953-.7266l.0391-1.5c.0312-1.4375-.7344-2.7656-1.9922-3.4531l-1.3125-.71873c-.2266-.125-.4063-.30469-.5313-.53125l-.7187-1.3125c-.6875-1.25782-2.0235-2.02344-3.4532-1.99219l-1.5.03906c-.2578.00781-.5078-.0625-.7265-.19531l-1.2813-.78125c-1.2265-.74219-2.7578-.74219-3.9843 0l-1.2813.78125c-.2187.13281-.4687.20312-.7266.19531l-1.5-.03906c-1.4375-.03125-2.7656.73437-3.4531 1.99219l-.7187 1.3125c-.125.22656-.3047.40625-.5313.53125l-1.3125.71873c-.035.0192-.0696.0388-.1039.0589l2.1351 1.6856.4923-.2679c.6406-.3516 1.1718-.8828 1.5234-1.5235l.7187-1.32027c.2344-.4375.6954-.71094 1.1954-.69531l1.5.03906c.7343.02344 1.4609-.17188 2.0859-.55469l1.2812-.78125c.4219-.25781.961-.25781 1.3829 0h-.0079l1.2813.78125c.6328.375 1.3516.57031 2.0859.55469l1.5-.03906c.4922-.00782.9532.25781 1.1953.69531l.7188 1.32027c.3516.6407.8828 1.1719 1.5234 1.5235l1.3125.7187c.4375.2344.711.6953.6953 1.1953l-.039 1.5c-.0235.7344.1719 1.461.5547 2.086l.7812 1.2812c.2578.4219.2578.961 0 1.3828l-.7812 1.2813c-.375.6328-.5703 1.3516-.5547 2.0859l.039 1.5c.0079.4922-.2578.9532-.6953 1.1953z"/><path d="m38.3928 40.0749-3.4968-2.7605-2.1371-.3198c-.4766-.0703-.961.1485-1.2266.5547l-1.6641 2.5469-2.0312-4.8281c-.1406.0703-.3203.1718-.5391.3047-.5469.3281-1.1328.5703-1.7344.7265l2.9141 6.9297-.0078.0078c.1797.4219.5781.7188 1.0391.7578.4609.0391.9062-.1718 1.1562-.5625l2.5156-3.8437 4.3828.6484c.2905.0459.5842-.0146.8293-.1619z"/><path d="m9.10261 38.5103 3.21879-7.6485c.1171.1406.2812.375.539.8438.3125.5781.711 1.0937 1.1719 1.5312l-1.7656 4.1953 2.9765-.4453c.4844-.0703.961.1406 1.2266.5547l1.6641 2.5469 2.0312-4.8281c.1406.0703.3203.1718.5391.3046.5468.336 1.1328.5782 1.7343.7266l-2.914 6.9297c-.1797.4297-.5781.7187-1.0391.7578-.4609.0391-.9062-.1719-1.1562-.5625l-2.5157-3.8359-4.3828.6484c-.44528.0625-.89059-.1172-1.17184-.4687-.28125-.3516-.33594-.836-.16407-1.25z"/><path d="m1.94561 5.05458c-.5175-.405-1.275-.315-1.6875.2025-.405.5175-.3150004 1.275.2025 1.6875l45.59249 35.99252c.525.4125 1.275.33 1.6875-.195s.3225-1.275-.195-1.6875z"/></g></svg>