<svg fill="none" height="48" viewBox="0 0 48 48" width="48" xmlns="http://www.w3.org/2000/svg"><g fill="#475569"><path d="m21.1888 33.7328-2.439 2.4391 2.1226 2.8281c1.0352 1.3805.7571 3.3398-.625 4.375-.5617.4212-1.2207.625-1.8726.625-.9453 0-1.8828-.4297-2.5-1.25l-3.75-5c-.932-1.2422-.8102-2.9844.2883-4.0805l4.0851-4.0843z"/><path d="m30.249 10.25c0 3.3867-2.7922 6.1797-6.2492 6.1797-3.4531 0-6.25-2.8633-6.25-6.25 0-3.38673 2.789-6.1797 6.25-6.1797 3.4609 0 6.2492 2.86328 6.2492 6.25z"/><path d="m34.0732 14.5664c1.4164-.9867 3.3602-.6539 4.3563.7617.9922 1.4141.6562 3.3594-.7602 4.3555l-3.1742 2.2266c-.9469.6687-1.9601 1.1853-2.9953 1.6437v2.9461h-15v-2.9531c-1.0391-.461-2.0547-.9766-3-1.6328l-3.1742-2.2266c-1.40628-1-1.74847-2.9453-.76175-4.3594.99605-1.4062 2.93905-1.75 4.34845-.7617l3.1742 2.2266c4.1172 2.8906 9.7008 2.8906 13.8125 0z"/><path d="m26.7175 39.7268c-.5054 1.2774-.1208 2.7845 1.0323 3.6482.5625.4219 1.2187.625 1.8047.625.1369 0 .2736-.0089.4091-.0267-1.4337-1.0871-2.5651-2.552-3.2461-4.2465z"/><path d="m28 36c0-4.4167 3.5833-8 8-8s8 3.5833 8 8-3.5833 8-8 8-8-3.5833-8-8zm8 5.3333c.7389 0 1.3333-.5944 1.3333-1.3333s-.5944-1.3333-1.3333-1.3333-1.3333.5944-1.3333 1.3333.5944 1.3333 1.3333 1.3333zm-3.5556-7.5555c0 .4889.4.8889.8889.8889s.8889-.4.8889-.8889v-.3556c0-.2944.2389-.5333.5334-.5333h2.25c.4277 0 .7722.3444.7722.7722 0 .2889-.1611.55-.4111.6889l-1.7778.9333c-.2945.1556-.4778.4556-.4778.7834v.8222c0 .4889.4.8889.8889.8889s.8889-.4.8889-.8889v-.2833l1.3055-.6834c.8389-.4444 1.3612-1.3611 1.3612-2.2611 0-1.4055-1.1445-2.55-2.55-2.55h-2.25c-1.2778 0-2.3112 1.0333-2.3112 2.3111z"/></g></svg>