<svg fill="none" height="48" viewBox="0 0 48 48" width="48" xmlns="http://www.w3.org/2000/svg"><path d="m18.7503 36.1719 2.439-2.4391-4.6906-4.1476-4.0851 4.0843c-1.0985 1.0961-1.2204 2.8383-.2883 4.0805l3.75 5c.6172.8203 1.5547 1.25 2.5 1.25.6519 0 1.3109-.2038 1.8726-.625 1.3821-1.0352 1.6602-2.9945.625-4.375zm5.25-19.7422c3.457 0 6.2492-2.793 6.2492-6.1797 0-3.38672-2.7883-6.25-6.2492-6.25-3.461 0-6.25 2.79297-6.25 6.1797 0 3.3867 2.7968 6.25 6.25 6.25zm14.4297-1.1016c-.9961-1.4156-2.9399-1.7484-4.3563-.7617l-3.1742 2.2266c-4.1117 2.8906-9.6953 2.8906-13.8125 0l-3.1742-2.2266c-1.4094-.9883-3.3524-.6445-4.34846.7617-.98672 1.4141-.64454 3.3594.76176 4.3594l3.1742 2.2266c.9453.6562 1.9609 1.1718 3 1.6328v2.9531h15v-2.9461c1.0351-.4584 2.0484-.975 2.9953-1.6437l3.1742-2.2266c1.4164-.9961 1.7523-2.9414.7602-4.3555zm-6.9297 14.25-4.6907 4.1477 2.4391 2.439-2.1234 2.8352c-1.0352 1.3805-.757 3.3398.625 4.375.5625.4219 1.2187.625 1.8047.625.95 0 1.8898-.4309 2.5023-1.25l3.75-5c.9328-1.2438.8109-2.9844-.2905-4.0844z" fill="#475569"/></svg>