<svg fill="none" height="48" viewBox="0 0 48 48" width="48" xmlns="http://www.w3.org/2000/svg"><g fill="#475569"><path d="m21.1893 33.7328-2.439 2.4391 2.1226 2.8281c1.0352 1.3805.7571 3.3398-.625 4.375-.5617.4212-1.2207.625-1.8726.625-.9453 0-1.8828-.4297-2.5-1.25l-3.75-5c-.9321-1.2422-.8102-2.9844.2883-4.0805l4.0851-4.0843z"/><path d="m30.2495 10.25c0 3.3867-2.7922 6.1797-6.2492 6.1797-3.4532 0-6.25-2.8633-6.25-6.25 0-3.38673 2.789-6.1797 6.25-6.1797 3.4609 0 6.2492 2.86328 6.2492 6.25z"/><path d="m34.0737 14.5664c1.4164-.9867 3.3602-.6539 4.3563.7617.9921 1.4141.6562 3.3594-.7602 4.3555l-3.1742 2.2266c-.9469.6687-1.9602 1.1853-2.9953 1.6437v2.9461h-15v-2.9531c-1.0391-.461-2.0547-.9766-3-1.6328l-3.1742-2.2266c-1.4063-1-1.74848-2.9453-.76176-4.3594.99606-1.4062 2.93906-1.75 4.34846-.7617l3.1742 2.2266c4.1172 2.8906 9.7008 2.8906 13.8125 0z"/><path d="m26.7181 39.7267c-.5056 1.2775-.1209 2.7846 1.0322 3.6483.5625.4219 1.2187.625 1.8047.625.1369 0 .2736-.009.4092-.0267-1.4337-1.0871-2.5652-2.5521-3.2461-4.2466z"/><path clip-rule="evenodd" d="m36 44c4.4183 0 8-3.5817 8-8s-3.5817-8-8-8-8 3.5817-8 8 3.5817 8 8 8zm5.0607-8.9393c.5857-.5858.5857-1.5356 0-2.1214-.5858-.5857-1.5356-.5857-2.1214 0l-3.9393 3.9394-1.9393-1.9394c-.5858-.5857-1.5356-.5857-2.1214 0-.5857.5858-.5857 1.5356 0 2.1214l3 3c.5858.5857 1.5356.5857 2.1214 0z" fill-rule="evenodd"/></g></svg>