<svg viewBox="0 0 48 48" xmlns="http://www.w3.org/2000/svg"><path d="m30.1003 22.1222c.7402.3897 1.3087.6507 2.1576.7352 1.5911.1597 3.2618-.5671 4.2065-1.8619.1604-.2197.3443-.4892.4231-.7512.0713-.2347.061-.507.061-.7512v-1.9718c0-.2592-.0235-.8094.0553-1.0329.1088-.3051.8415-1.1042 1.0985-1.5023.1961-.3033.6192-1.2686.8415-1.4066.227-.1399.9071-.0948 1.1942-.0958.3856-.0018.698 0 1.0216-.2488.5732-.4404.6023-1.3699.0722-1.8582-.4803-.4441-1.3236-.3343-1.9381-.3343-.1294-2.81782-1.6192-5.4366-4.3153-6.53049-1.2542-.50892-1.8837-.51362-3.1895-.51174-3.5957.00563-6.6192 3.32019-6.6436 6.85443v1.5963c-.0807.3023-.8884 1.1502-1.1426 1.4084l-2.8144 2.8169-4.1276 3.9521-3.5648 3.3559-3.0957 2.8291c-.3603.3427-.78334.6423-1.08916 1.0366-.45779.5925-.43528 1.4573.2486 1.8695.34522.2085.73546.1953 1.12196.1963h5.5348c3.4447-.016 7.063-1.7193 9.2994-4.3193.712-.8282 1.3922-1.7427 1.8818-2.723.6136-1.2272.9456-3.0451 1.0929-4.4131.0723-.6789.0901-2.1287.5104-2.6254.5244-.6206 1.2983-.6141 1.7345.0939.2261.3653.2083.7136.2092 1.123v.5634c-.0122 1.0141-.2749 2.3005-.5281 3.2864zm3.1896-13.29386c1.5741.02535 1.5178 2.05166.1876 2.19526-.8162.0874-1.4381-.7173-1.1248-1.48352.1829-.44789.4887-.61597.9372-.71174zm3.3771 14.98406c-1.7608 1.0573-3.2777 1.5934-5.3472 1.1587l-2.2514-.7831c-.5338 1.199-1.6088 2.5493-2.5329 3.4741-2.5525 2.555-6.2815 4.4132-9.9439 4.4132.365.6535 1.9119 1.3192 2.6267 1.5906.8847.3352 1.2046.2254 1.2196 1.0385v2.2535h-14.91585c-.45029.001-.84429-.0159-1.19796.3183-.56286.5305-.35929 1.6554.35367 1.9634.47468.2047 1.34805.1596 1.8762.1596h3.65864l-1.05541 2.0658c-.17636.354-.44184.83-.48687 1.2206-.10038.8676.53284 1.3662 1.35458 1.3099.744-.0517.9925-.6244 1.2899-1.216l1.1727-2.3474c.1219-.246.3564-.7972.5759-.9371.183-.1164.501-.0958.7139-.0958h28.3307c.47-.0009 1.1117-.0094 1.4907-.322.5609-.462.5356-1.5352-.0873-1.9305-.3283-.2085-.6576-.1878-1.0281-.1888h-2.8143c-1.0948-.0019-1.0141-.3943-1.4363-1.3145l-1.0732-2.1597c-.181-.3615-.3649-.8178-.6895-1.0657-.6754-.5145-1.7852-.185-1.939.6902-.1239.7014.3546 1.4582.6585 2.0657l.9147 1.784h-6.1915v-3.0047c0-.2235-.0197-.5352.0957-.7314.1332-.2263.6079-.4629.8424-.6151.7261-.4732 1.1201-.7549 1.7824-1.323 1.6032-1.3737 2.8424-3.3352 3.5601-5.3117.1763-.4883.5704-1.6779.4737-2.1596zm-9.1934 10.2347v2.9108h-4.5967v-2.4413l1.1258.092c.9446.0188 2.5497-.2948 3.4709-.5615z"/></svg>