<svg fill="none" height="40" viewBox="0 0 40 40" width="40" xmlns="http://www.w3.org/2000/svg"><path d="m26.1003 18.1221c.7402.3897 1.3087.6507 2.1576.7352 1.5911.1597 3.2618-.5671 4.2065-1.8619.1604-.2198.3443-.4892.4231-.7512.0713-.2348.061-.5071.061-.7512v-1.9718c0-.2592-.0235-.8094.0553-1.0329.1088-.3052.8415-1.1042 1.0985-1.5023.1961-.3033.6192-1.26858.8415-1.40661.227-.1399.9071-.09483 1.1942-.09577.3856-.00188.698 0 1.0216-.24883.5732-.44037.6023-1.36995.0722-1.85822-.4803-.44413-1.3236-.33427-1.9381-.33427-.1294-2.81784-1.6192-5.43662-4.3153-6.530515-1.2542-.50892001-1.8837-.5136148-3.1895-.51173687-3.5957.0056338-6.6192 3.32019187-6.6436 6.85446187v1.59624c-.0807.30235-.8884 1.15024-1.1426 1.40845l-2.8144 2.8169-4.1276 3.9521-3.56479 3.3559-3.09573 2.8291c-.36023.3427-.78332.6423-1.08914 1.0366-.45779.5925-.43528 1.4573.2486 1.8695.34522.2084.73547.1953 1.12197.1962h5.53479c3.4447-.0159 7.063-1.7192 9.2994-4.3192.712-.8282 1.3922-1.7427 1.8818-2.723.6136-1.2272.9457-3.0451 1.0929-4.4132.0723-.6788.0901-2.1286.5104-2.6253.5244-.6207 1.2983-.6141 1.7345.0939.2261.3652.2083.7136.2092 1.123v.5634c-.0122 1.0141-.2749 2.3004-.5281 3.2864zm3.1896-13.29388c1.5741.02535 1.5178 2.05164.1876 2.1953-.8162.08733-1.4381-.71737-1.1248-1.48357.1829-.44788.4887-.61596.9372-.71173zm3.3771 14.98408c-1.7608 1.0572-3.2777 1.5934-5.3472 1.1586l-2.2514-.7831c-.5338 1.1991-1.6088 2.5493-2.5329 3.4742-2.5525 2.555-6.2815 4.4132-9.9439 4.4132.365.6535 1.9119 1.3192 2.6267 1.5906.8847.3352 1.2046.2253 1.2196 1.0385v2.2535h-14.91585c-.45029.0009-.844293-.016-1.197957.3183-.562862.5305-.3592935 1.6554.353664 1.9634.474683.2047 1.348053.1596 1.876203.1596h3.6586l-1.05537 2.0657c-.17636.354-.44184.8301-.48687 1.2207-.10038.8676.53284 1.3662 1.35462 1.3099.74391-.0517.99251-.6245 1.28989-1.216l1.17262-2.3474c.12196-.246.35648-.7972.576-.9371.18293-.1164.50094-.0958.71389-.0958h28.33066c.47-.0009 1.1117-.0094 1.4907-.3221.5609-.4619.5356-1.5352-.0873-1.9305-.3283-.2084-.6576-.1878-1.0281-.1887h-2.8143c-1.0948-.0019-1.0141-.3944-1.4363-1.3146l-1.0732-2.1596c-.181-.3615-.3649-.8178-.6895-1.0657-.6754-.5146-1.7852-.185-1.939.6901-.1239.7014.3546 1.4582.6585 2.0658l.9147 1.784h-6.1915v-3.0047c0-.2235-.0197-.5352.0957-.7315.1332-.2262.6079-.4629.8424-.615.7261-.4732 1.1201-.7549 1.7824-1.323 1.6032-1.3737 2.8424-3.3352 3.5601-5.3117.1764-.4883.5704-1.678.4737-2.1596zm-9.1934 10.2347v2.9108h-4.5967v-2.4413l1.1258.092c.9446.0188 2.5497-.2948 3.4709-.5615z" fill="#475569"/></svg>