<svg viewBox="0 0 48 48" xmlns="http://www.w3.org/2000/svg"><path d="m32.6518 8c-3.0538 0-5.5295 2.4757-5.5295 5.5295v1.8347l-22.33777 17.1791c-.87969.6786-1.04306 1.9416-.37073 2.8213.67233.8796 1.9416 1.043 2.82128.3707l4.68752-3.6067h8.3633l2.9281 7.1066c.3141.7728 1.2001 1.1373 1.9667.8231s1.1373-1.2001.8231-1.9667l-2.4568-5.963h2.5699.2011l2.9281 7.1129c.3142.7728 1.2002 1.1373 1.9667.8231.7666-.3142 1.1373-1.2002.8232-1.9667l-2.6391-6.4092c5.0708-1.4389 8.7843-6.095 8.7843-11.6244v-4.0214-.5027l5.0582-1.263c.5404-.132.8671-.6786.7289-1.219-.4461-1.7908-2.0547-3.0475-3.902-3.0475h-3.1481c-1.0179-1.22527-2.5511-2.0107-4.2664-2.0107zm0 4.0214c.198 0 .3941.039.5771.1148.1829.0758.3492.1869.4892.3269.14.1401.2511.3063.3269.4893.0758.1829.1148.379.1148.5771 0 .198-.039.3941-.1148.5771-.0758.1829-.1869.3492-.3269.4892s-.3063.2511-.4892.3269c-.183.0758-.3791.1148-.5771.1148-.1981 0-.3942-.039-.5771-.1148-.183-.0758-.3493-.1869-.4893-.3269s-.2511-.3063-.3269-.4892c-.0758-.183-.1148-.3791-.1148-.5771 0-.1981.039-.3942.1148-.5771.0758-.183.1869-.3492.3269-.4893.14-.14.3063-.2511.4893-.3269.1829-.0758.379-.1148.5771-.1148z"/></svg>