<svg viewBox="0 0 48 48" xmlns="http://www.w3.org/2000/svg"><path d="m21.3333 39.2269c.75.2639 1.5556-.2847 1.5556-1.0764v-26.2083c0-.2917-.1111-.5834-.3472-.7639-1.3611-1.0834-4.4861-2.47225-8.5417-2.47225-3.5069 0-6.78472.92362-8.74306 1.67365-.78472.3055-1.25694 1.0833-1.25694 1.9236v25.7153c0 .8263.88889 1.4027 1.67361 1.1458 2.1875-.7292 5.65279-1.5695 8.32639-1.5695 2.3542 0 5.4861.9723 7.3333 1.632zm5.3334 0c1.8472-.6597 4.9791-1.632 7.3333-1.632 2.6736 0 6.1389.8403 8.3264 1.5695.7847.2639 1.6736-.3195 1.6736-1.1458v-25.7153c0-.8403-.4722-1.6181-1.2569-1.9167-1.9584-.75693-5.2362-1.68055-8.7431-1.68055-4.0556 0-7.1806 1.38885-8.5417 2.47225-.2291.1805-.3472.4722-.3472.7639v26.2083c0 .7917.8125 1.3403 1.5556 1.0764z"/></svg>