<svg viewBox="0 0 48 48" xmlns="http://www.w3.org/2000/svg"><path d="m14.8333 8.448c3.0973 0 6.2292.59722 9.1667 1.5694 2.9375-.97218 6.0694-1.5694 9.1667-1.5694 3.8472 0 7.4444 1.01389 8.9514 1.5 1.1666.375 1.8819 1.4514 1.8819 2.6042v21.625c0 1.868-1.7431 3.1111-3.4028 2.8194-1.2847-.2222-3.5625-.5-6.875-.5-4.0903 0-6.7916 1.6875-7.7222 2.3681-.5208.3819-1.1944.6666-1.9583.6875-.0139 0-.0348 0-.0486 0-.007 0-.007 0-.0139 0-.007 0-.0139 0-.0209 0-.7083 0-1.3611-.2361-1.875-.5834-1.0347-.6944-4.0555-2.4652-7.8055-2.4652-3.1389 0-5.56252.3055-6.94447.5347-1.66666.2778-3.33333-.9792-3.33333-2.7917v-21.6944c0-1.1528.71528-2.2292 1.88194-2.6042 1.50695-.48611 5.10416-1.5 8.95136-1.5zm10.2778 28.3333c1.4097-.9375 4.382-2.5 8.6111-2.5 3.4375 0 5.8403.2917 7.25.5278.1736.0278.3959-.0208.5695-.1597.1527-.125.2361-.2778.2361-.4722v-21.625c0-.2431-.1459-.4236-.3403-.4861-1.4236-.4584-4.7639-1.3959-8.2708-1.3959-2.6806 0-5.4236.4931-8.0556 1.3195zm-2.2222-24.7916c-2.632-.8334-5.375-1.3195-8.0556-1.3195-3.5069 0-6.84719.9375-8.2708 1.3889-.19444.0625-.34028.25-.34028.4861v21.7014c0 .1875.07639.3403.21528.4514.15278.125.35417.1736.52778.1458 1.47916-.25 4.02782-.5694 7.31252-.5694 3.9444 0 7.1389 1.6458 8.6111 2.5625z"/></svg>