<svg viewBox="0 0 48 48" xmlns="http://www.w3.org/2000/svg"><path d="m19.9219 11.6719c.789-1.6172 2.3437-2.6719 4.0781-2.6719s3.2891 1.0547 4.0781 2.6719c.1563.3203.4375.5625.7813.6562.3437.0938.7109.0469 1.0078-.1484.6953-.4297 1.4922-.6797 2.3359-.6797 2.1719 0 4.0703 1.6563 4.5156 3.9844.1172.6015.6485 1.0312 1.2579 1.0156h.0859c1.8203 0 3.4375 1.6016 3.4375 3.75 0 .6875.5625 1.25 1.25 1.25s1.25-.5625 1.25-1.25c0-3.0781-2.1484-5.7422-5.0703-6.1875-.9453-2.9062-3.5625-5.0625-6.7266-5.0625-.8906 0-1.7422.17187-2.5234.48437-1.2891-1.79687-3.3359-2.98437-5.6797-2.98437s-4.3906 1.1875-5.6797 2.98437c-.7812-.3125-1.6328-.48437-2.5234-.48437-3.1641 0-5.7813 2.1563-6.72659 5.0625-2.92187.4453-5.07031 3.1094-5.07031 6.1875 0 .6875.5625 1.25 1.25 1.25s1.25-.5625 1.25-1.25c0-2.1484 1.61719-3.75 3.4375-3.75h.0859c.6094.0156 1.1485-.4141 1.2578-1.0156.4454-2.3281 2.3438-3.9844 4.5157-3.9844.8437 0 1.6406.25 2.3281.6797.2969.1875.6719.2422 1.0078.1484.3359-.0937.625-.3359.7813-.6562zm-5.8203 25.539c-.211-.7031-.7188-1.2812-1.3907-1.5781-3.56246-1.5547-6.06246-5.0469-6.20309-9.1328h34.98439c-.1406 4.0859-2.6484 7.5781-6.2031 9.1328-.6719.2969-1.1875.875-1.3907 1.5781-.3125 1.0391-1.2656 1.7891-2.3984 1.7891h-15c-1.1328 0-2.0859-.75-2.3984-1.7891zm-7.96098-13.2109c-1.17968 0-2.14062.9609-2.14062 2.1406 0 5.2656 3.17187 9.7969 7.7031 11.7813.6172 2.0703 2.5313 3.5781 4.7969 3.5781h15c2.2656 0 4.1797-1.5078 4.7969-3.5703 4.539-1.9844 7.7031-6.5156 7.7031-11.7813 0-1.1797-.9609-2.1406-2.1406-2.1406h-35.71878z"/></svg>