<svg viewBox="0 0 48 48" xmlns="http://www.w3.org/2000/svg"><path d="m4 19c0-2.7578 2.24219-5 5-5h.125c.57812-2.8516 3.1016-5 6.125-5 1.1719 0 2.2656.32031 3.1953.875 1.0391-2 3.1406-3.375 5.5547-3.375s4.5156 1.375 5.5547 3.375c.9297-.55469 2.0234-.875 3.1953-.875 3.0234 0 5.5469 2.1484 6.125 5h.125c2.7578 0 5 2.2422 5 5 0 .9141-.2422 1.7656-.6719 2.5h-38.65622c-.42969-.7344-.67188-1.5859-.67188-2.5zm0 7.1406c0-1.1797.96094-2.1406 2.14062-2.1406h35.71878c1.1797 0 2.1406.9609 2.1406 2.1406 0 5.5078-3.4688 10.211-8.3359 12.0391l-.1407 1.1328c-.1562 1.25-1.2187 2.1875-2.4843 2.1875h-18.086c-1.2578 0-2.3281-.9375-2.4843-2.1875l-.1407-1.125c-4.85935-1.8359-8.3281-6.5391-8.3281-12.0469z"/></svg>