<svg viewBox="0 0 48 48" xmlns="http://www.w3.org/2000/svg"><path d="m12.75 4c-2.0703 0-3.75 1.67969-3.75 3.75v32.5c0 2.0703 1.6797 3.75 3.75 3.75h7.5v-6.25c0-2.0703 1.6797-3.75 3.75-3.75s3.75 1.6797 3.75 3.75v6.25h7.5c2.0703 0 3.75-1.6797 3.75-3.75v-32.5c0-2.07031-1.6797-3.75-3.75-3.75zm1.25 18.75c0-.6875.5625-1.25 1.25-1.25h2.5c.6875 0 1.25.5625 1.25 1.25v2.5c0 .6875-.5625 1.25-1.25 1.25h-2.5c-.6875 0-1.25-.5625-1.25-1.25zm8.75-1.25h2.5c.6875 0 1.25.5625 1.25 1.25v2.5c0 .6875-.5625 1.25-1.25 1.25h-2.5c-.6875 0-1.25-.5625-1.25-1.25v-2.5c0-.6875.5625-1.25 1.25-1.25zm6.25 1.25c0-.6875.5625-1.25 1.25-1.25h2.5c.6875 0 1.25.5625 1.25 1.25v2.5c0 .6875-.5625 1.25-1.25 1.25h-2.5c-.6875 0-1.25-.5625-1.25-1.25zm-13.75-11.25h2.5c.6875 0 1.25.5625 1.25 1.25v2.5c0 .6875-.5625 1.25-1.25 1.25h-2.5c-.6875 0-1.25-.5625-1.25-1.25v-2.5c0-.6875.5625-1.25 1.25-1.25zm6.25 1.25c0-.6875.5625-1.25 1.25-1.25h2.5c.6875 0 1.25.5625 1.25 1.25v2.5c0 .6875-.5625 1.25-1.25 1.25h-2.5c-.6875 0-1.25-.5625-1.25-1.25zm8.75-1.25h2.5c.6875 0 1.25.5625 1.25 1.25v2.5c0 .6875-.5625 1.25-1.25 1.25h-2.5c-.6875 0-1.25-.5625-1.25-1.25v-2.5c0-.6875.5625-1.25 1.25-1.25z"/></svg>