<svg viewBox="0 0 48 48" xmlns="http://www.w3.org/2000/svg"><path d="m30.1875 23.1172c.0391.289.0625.5859.0625.8828 0 3.4531-2.7969 6.25-6.25 6.25s-6.25-2.7969-6.25-6.25 2.7969-6.25 6.25-6.25c.2969 0 .5937.0234.8828.0625l2.4375-2.4375-.375-2.2344c-.9375-.2578-1.9297-.3906-2.9453-.3906-6.2109 0-11.25 5.0391-11.25 11.25s5.0391 11.25 11.25 11.25 11.25-5.0391 11.25-11.25c0-1.0234-.1328-2.0078-.3906-2.9453l-2.2344-.375zm8.6016-1.625c.1406.8125.2109 1.6484.2109 2.5078 0 8.2812-6.7188 15-15 15s-15-6.7188-15-15 6.7188-15 15-15c.8516 0 1.6875.07031 2.5078.21094l.7266-.72656 3.3672-3.36719c-2.0704-.72657-4.2891-1.11719-6.6016-1.11719-11.0469 0-20 8.9531-20 20s8.9531 20 20 20 20-8.9531 20-20c0-2.3125-.3906-4.5312-1.1172-6.6016l-3.3672 3.3672zm-6.2657-3.3672 3.961.6562c.7968.1329 1.6094-.1249 2.1797-.6953l4-4c.6328-.6328.414-1.7109-.4219-2.0468l-4.4922-1.7891-1.7969-4.49219c-.3359-.83593-1.4062-1.05469-2.0469-.42187l-3.9999 4.00781c-.5704.57031-.8282 1.38285-.6954 2.17965l.6563 3.961-7.1953 7.1875c-.7344.7343-.7344 1.9218 0 2.6484.7343.7266 1.9218.7344 2.6484 0l7.1953-7.1953z"/></svg>