<svg viewBox="0 0 48 48" xmlns="http://www.w3.org/2000/svg"><path d="m29.4922 4.76563c-1.7422-.5-3.586-.76563-5.4922-.76563-11.0469 0-20 8.9531-20 20s8.9531 20 20 20 20-8.9531 20-20c0-1.9062-.2656-3.75-.7656-5.4922l-1.7813 1.9844c-.0859.0937-.164.1797-.2578.2656.1953 1.0547.2969 2.1328.2969 3.2422 0 9.6641-7.836 17.5-17.5 17.5-9.6641 0-17.4922-7.8359-17.4922-17.5s7.8359-17.5 17.5-17.5c1.1094 0 2.1953.10156 3.2422.29687.0859-.08593.1719-.17187.2656-.25781zm-4.0391 6.82027c-.4765-.0547-.9609-.0859-1.4531-.0859-6.9063 0-12.5 5.5937-12.5 12.5s5.5937 12.5 12.5 12.5 12.5-5.5937 12.5-12.5c0-.4922-.0313-.9766-.0859-1.4531-.211-.0157-.4219-.0391-.6329-.0703l-1.9531-.3282c.1094.6016.1719 1.2188.1719 1.8516 0 5.5234-4.4766 10-10 10s-10-4.4766-10-10 4.4766-10 10-10c.6328 0 1.25.0625 1.8516.1719l-.3282-1.9532c-.039-.2109-.0625-.4218-.0703-.6328zm5.2266 7.5078 5.5.9141c1.2734.2109 2.5625-.2422 3.4219-1.2109l3.4297-3.8594c.914-1.0234.4531-2.6484-.8594-3.0391l-4.6641-1.3984-1.4062-4.67188c-.3907-1.31249-2.0157-1.77343-3.0391-.85937l-3.8594 3.42969c-.9609.85937-1.4218 2.14846-1.2109 3.42186l.914 5.5-5.7968 5.7969c-.4844.4844-.4844 1.2812 0 1.7656s1.2812.4844 1.7656 0l5.7969-5.7969zm2.1719-2.1718 4.0078-4.0078 3.6562 1.0937-2.7812 3.125c-.2891.3203-.7188.4766-1.1406.4063l-3.7422-.625zm2.2343-5.7735-4.0078 4.0079-.625-3.7422c-.0703-.4219.0781-.8516.4063-1.1407l3.125-2.78121 1.0937 3.65621z"/></svg>