<svg fill="none" height="48" viewBox="0 0 48 48" width="48" xmlns="http://www.w3.org/2000/svg"><path d="m34 12.6797c1.7258 0 3.125-1.3969 3.125-3.12267 0-1.72578-3.125-5.55703-3.125-5.55703s-3.125 3.89922-3.125 5.625c0 1.7258 1.3984 3.0547 3.125 3.0547zm-10 0c1.7258 0 3.125-1.3969 3.125-3.12267 0-1.72578-3.125-5.55703-3.125-5.55703s-3.125 3.89922-3.125 5.625c0 1.7258 1.3984 3.0547 3.125 3.0547zm12.4297 8.75.0703-4.9297c0-.6903-.5597-1.25-1.25-1.25h-2.5c-.6875 0-1.25.5625-1.25 1.25v5h-5v-5c0-.6903-.5597-1.25-1.25-1.25h-2.5c-.6875 0-1.25.5625-1.25 1.25v5h-5v-5c0-.6903-.5597-1.25-1.25-1.25h-2.5c-.6906 0-1.25.5625-1.25 1.25v4.9977c-2.76172 0-5 2.2382-5 4.9296v5.3672c.76672.4767 1.67109.8852 2.5.8852 1.6125 0 3.5195-1.5414 4.1172-2.1352.4883-.4858 1.2766-.4858 1.7648 0 .5321.6664 2.5086 2.1352 4.118 2.1352s3.5195-1.5414 4.1172-2.1352c.4883-.4858 1.2765-.4858 1.7648 0 .5321.6664 2.5086 2.1352 4.118 2.1352s3.5195-1.5414 4.1172-2.1352c.4883-.4858 1.2766-.4858 1.7648 0 .5321.6664 2.5086 2.1352 4.118 2.1352.8289 0 1.7336-.4084 2.5-.8852v-5.3648c0-2.6953-2.2422-5-5.0703-5zm-2.4297 11.7344c-1.0742.8554-2.9711 2.0828-5 2.0828s-3.9258-1.2266-5-2.0828c-1.0742.8554-2.9711 2.0828-5 2.0828s-3.9258-1.2266-5-2.0828c-1.0742.8554-2.9711 2.0828-5 2.0828-.88047 0-1.72578-.2439-2.5-.5764v6.8266c0 1.3857 1.11953 2.5029 2.5 2.5029h30c1.3805 0 2.5-1.1195 2.5-2.5v-6.8266c-.7742.3325-1.6195.5764-2.5.5764-2.0312-.0701-3.9219-1.2264-5-2.0857zm-20-20.4844c1.7258 0 3.125-1.3969 3.125-3.12267 0-1.72578-3.125-5.55703-3.125-5.55703s-3.125 3.89922-3.125 5.625c0 1.7258 1.3992 3.0547 3.125 3.0547z" fill="#475569"/></svg>