<svg viewBox="0 0 48 48" xmlns="http://www.w3.org/2000/svg"><path d="m16.5 4c1.3828 0 2.5 1.11719 2.5 2.5v2.5h10v-2.5c0-1.38281 1.1172-2.5 2.5-2.5s2.5 1.11719 2.5 2.5v2.5h3.75c2.0703 0 3.75 1.6797 3.75 3.75v3.75h-35v-3.75c0-2.0703 1.67969-3.75 3.75-3.75h3.75v-2.5c0-1.38281 1.1172-2.5 2.5-2.5zm-10 15h35v21.25c0 2.0703-1.6797 3.75-3.75 3.75h-27.5c-2.07031 0-3.75-1.6797-3.75-3.75zm6.25 5c-.6875 0-1.25.5625-1.25 1.25v7.5c0 .6875.5625 1.25 1.25 1.25h7.5c.6875 0 1.25-.5625 1.25-1.25v-7.5c0-.6875-.5625-1.25-1.25-1.25z"/></svg>