<svg fill="none" height="48" viewBox="0 0 48 48" width="48" xmlns="http://www.w3.org/2000/svg"><path d="m19 6.5v2.5h10v-2.5c0-1.38047 1.1172-2.5 2.5-2.5s2.5 1.11953 2.5 2.5v2.5h3.75c2.0703 0 3.75 1.6789 3.75 3.75v3.75h-35v-3.75c0-2.0711 1.67891-3.75 3.75-3.75h3.75v-2.5c0-1.38047 1.1172-2.5 2.5-2.5s2.5 1.11953 2.5 2.5zm-12.5 12.5h35v21.25c0 2.0703-1.6797 3.75-3.75 3.75h-27.5c-2.07109 0-3.75-1.6797-3.75-3.75zm5 8.75c0 .6875.5594 1.25 1.25 1.25h2.5c.6875 0 1.25-.5625 1.25-1.25v-2.5c0-.6875-.5625-1.25-1.25-1.25h-2.5c-.6906 0-1.25.5625-1.25 1.25zm10 0c0 .6875.5625 1.25 1.25 1.25h2.5c.6875 0 1.25-.5625 1.25-1.25v-2.5c0-.6875-.5625-1.25-1.25-1.25h-2.5c-.6875 0-1.25.5625-1.25 1.25zm11.25-3.75c-.6875 0-1.25.5625-1.25 1.25v2.5c0 .6875.5625 1.25 1.25 1.25h2.5c.6875 0 1.25-.5625 1.25-1.25v-2.5c0-.6875-.5625-1.25-1.25-1.25zm-21.25 13.75c0 .6875.5594 1.25 1.25 1.25h2.5c.6875 0 1.25-.5625 1.25-1.25v-2.5c0-.6875-.5625-1.25-1.25-1.25h-2.5c-.6906 0-1.25.5625-1.25 1.25zm11.25-3.75c-.6875 0-1.25.5625-1.25 1.25v2.5c0 .6875.5625 1.25 1.25 1.25h2.5c.6875 0 1.25-.5625 1.25-1.25v-2.5c0-.6875-.5625-1.25-1.25-1.25zm8.75 3.75c0 .6875.5625 1.25 1.25 1.25h2.5c.6875 0 1.25-.5625 1.25-1.25v-2.5c0-.6875-.5625-1.25-1.25-1.25h-2.5c-.6875 0-1.25.5625-1.25 1.25z" fill="#475569"/></svg>