<svg viewBox="0 0 48 48" xmlns="http://www.w3.org/2000/svg"><path d="m16.5 5.25c0-.6875-.5625-1.25-1.25-1.25s-1.25.5625-1.25 1.25v3.75h-2.5c-2.75781 0-5 2.2422-5 5v2.5 2.5 20c0 2.7578 2.24219 5 5 5h25c2.7578 0 5-2.2422 5-5v-20-2.5-2.5c0-2.7578-2.2422-5-5-5h-2.5v-3.75c0-.6875-.5625-1.25-1.25-1.25s-1.25.5625-1.25 1.25v3.75h-15zm-7.5 13.75h30v20c0 1.3828-1.1172 2.5-2.5 2.5h-25c-1.3828 0-2.5-1.1172-2.5-2.5zm2.5-7.5h25c1.3828 0 2.5 1.1172 2.5 2.5v2.5h-30v-2.5c0-1.3828 1.1172-2.5 2.5-2.5zm3.125 12.5h6.25c.3438 0 .625.2812.625.625v6.25c0 .3438-.2812.625-.625.625h-6.25c-.3438 0-.625-.2812-.625-.625v-6.25c0-.3438.2812-.625.625-.625zm-3.125.625v6.25c0 1.7266 1.3984 3.125 3.125 3.125h6.25c1.7266 0 3.125-1.3984 3.125-3.125v-6.25c0-1.7266-1.3984-3.125-3.125-3.125h-6.25c-1.7266 0-3.125 1.3984-3.125 3.125z"/></svg>