<svg viewBox="0 0 48 48" xmlns="http://www.w3.org/2000/svg"><path d="m15.25 4c.6875 0 1.25.5625 1.25 1.25v3.75h15v-3.75c0-.6875.5625-1.25 1.25-1.25s1.25.5625 1.25 1.25v3.75h2.5c2.7578 0 5 2.2422 5 5v2.5 2.5 20c0 2.7578-2.2422 5-5 5h-25c-2.75781 0-5-2.2422-5-5v-20-2.5-2.5c0-2.7578 2.24219-5 5-5h2.5v-3.75c0-.6875.5625-1.25 1.25-1.25zm23.75 15h-8.125v5.625h8.125zm0 8.125h-8.125v6.25h8.125zm0 8.75h-8.125v5.625h5.625c1.3828 0 2.5-1.1172 2.5-2.5zm-10.625-2.5v-6.25h-8.75v6.25zm-8.75 2.5v5.625h8.75v-5.625zm-2.5-2.5v-6.25h-8.125v6.25zm-8.125 2.5v3.125c0 1.3828 1.1172 2.5 2.5 2.5h5.625v-5.625zm0-11.25h8.125v-5.625h-8.125zm10.625 0h8.75v-5.625h-8.75zm16.875-13.125h-25c-1.3828 0-2.5 1.1172-2.5 2.5v2.5h30v-2.5c0-1.3828-1.1172-2.5-2.5-2.5z"/></svg>