<svg viewBox="0 0 48 48" xmlns="http://www.w3.org/2000/svg"><path d="m18.9297 6.5c-1.6172 0-3.0469 1.03125-3.5547 2.5625l-.8203 2.4375h-5.5547c-2.75781 0-5 2.2422-5 5v20c0 2.7578 2.24219 5 5 5h30c2.7578 0 5-2.2422 5-5v-20c0-2.7578-2.2422-5-5-5h-5.5547l-.8125-2.4375c-.5156-1.53125-1.9453-2.5625-3.5625-2.5625zm-1.1875 3.35156c.1719-.50781.6484-.85156 1.1875-.85156h10.1406c.5391 0 1.0156.34375 1.1875.85156l1.0938 3.28904c.1718.5078.6484.8516 1.1875.8516h6.4609c1.3828 0 2.5 1.1172 2.5 2.5v20.0078c0 1.3828-1.1172 2.5-2.5 2.5h-30c-1.38281 0-2.5-1.1172-2.5-2.5v-20c0-1.3828 1.11719-2.5 2.5-2.5h6.4609c.5391 0 1.0157-.3438 1.1875-.8516l1.0938-3.28902zm6.2578 25.39844c1.1491 0 2.2869-.2263 3.3485-.6661 1.0616-.4397 2.0262-1.0842 2.8387-1.8967s1.457-1.7771 1.8967-2.8387c.4398-1.0616.6661-2.1994.6661-3.3485s-.2263-2.2869-.6661-3.3485c-.4397-1.0616-1.0842-2.0262-1.8967-2.8387s-1.7771-1.457-2.8387-1.8967c-1.0616-.4398-2.1994-.6661-3.3485-.6661s-2.2869.2263-3.3485.6661c-1.0616.4397-2.0262 1.0842-2.8387 1.8967s-1.457 1.7771-1.8967 2.8387c-.4398 1.0616-.6661 2.1994-.6661 3.3485s.2263 2.2869.6661 3.3485c.4397 1.0616 1.0842 2.0262 1.8967 2.8387s1.7771 1.457 2.8387 1.8967c1.0616.4398 2.1994.6661 3.3485.6661zm-6.25-8.75c0-1.6576.6585-3.2473 1.8306-4.4194s2.7618-1.8306 4.4194-1.8306 3.2473.6585 4.4194 1.8306 1.8306 2.7618 1.8306 4.4194-.6585 3.2473-1.8306 4.4194-2.7618 1.8306-4.4194 1.8306-3.2473-.6585-4.4194-1.8306-1.8306-2.7618-1.8306-4.4194z"/></svg>