<svg viewBox="0 0 48 48" xmlns="http://www.w3.org/2000/svg"><path d="m15.6484 9.0625-.8125 2.4375h-5.8359c-2.75781 0-5 2.2422-5 5v20c0 2.7578 2.24219 5 5 5h30c2.7578 0 5-2.2422 5-5v-20c0-2.7578-2.2422-5-5-5h-5.8359l-.8125-2.4375c-.5079-1.53125-1.9375-2.5625-3.5547-2.5625h-9.5938c-1.6172 0-3.0468 1.03125-3.5547 2.5625zm8.3516 9.9375c1.9891 0 3.8968.7902 5.3033 2.1967s2.1967 3.3142 2.1967 5.3033-.7902 3.8968-2.1967 5.3033-3.3142 2.1967-5.3033 2.1967-3.8968-.7902-5.3033-2.1967-2.1967-3.3142-2.1967-5.3033.7902-3.8968 2.1967-5.3033 3.3142-2.1967 5.3033-2.1967z"/></svg>