<svg viewBox="0 0 48 48" xmlns="http://www.w3.org/2000/svg"><g><path d="m27.8344 18.9991h-1.3361c-5.2192 0-9.8134 2.6639-12.5012 6.7027v-6.6637c0-3.7888-2.8205-6.9761-6.5709-7.4448l-.61725-.0781c-1.36732-.1719-2.61743.8046-2.78933 2.1717-.17189 1.3671.80477 2.617 2.17209 2.7889l.61724.0781c1.25012.1563 2.18771 1.2265 2.18771 2.4842v17.4599c0 4.1404 3.35974 7.4996 7.50074 7.4996h11.251c.6355 0 1.2149-.2359 1.6555-.625-1.2802-1.1738-2.2538-2.6767-2.7867-4.3747h-3.2442l2.8145-2.2512c-.0182-.2466-.0275-.4956-.0275-.7468 0-5.5228 4.4772-10 10-10 .9864 0 1.9394.1428 2.8395.4089v-2.7225c-.7969.2031-1.6408.3125-2.5002.3125-3.7035 0-6.9382-2.0077-8.6649-4.9997z"/><g clip-rule="evenodd" fill-rule="evenodd"><path d="m36.4993 21.4989c.8751 0 1.7189-.1562 2.5002-.4296 1.7033-.6016 3.1331-1.8046 4.016-3.3514.6251-1.0937.9845-2.367.9845-3.7185v-9.16351c0-.46091-.3672-.82808-.8282-.83589h-.0156c-.2579 0-.5001.12499-.6563.3281v.00782l-1.0001 1.32804-2.5003 3.33574h-5.0005l-2.5002-3.33574-1.0001-1.32804v-.00782c-.1563-.20311-.3985-.3281-.6563-.3281h-.0156c-.461.00781-.8282.37498-.8282.83589v9.16351c0 1.453.4141 2.8123 1.1329 3.9685.2266.3672.4844.7109.7735 1.0312 1.3751 1.5311 3.3753 2.4998 5.5943 2.4998zm-1.6163-8.3833c.2345.2344.3662.5523.3662.8838s-.1317.6494-.3662.8838c-.2344.2344-.5524.3661-.884.3661-.3315 0-.6495-.1317-.8839-.3661-.2345-.2344-.3662-.5523-.3662-.8838s.1317-.6494.3662-.8838c.2344-.2344.5524-.3661.8839-.3661.3316 0 .6496.1317.884.3661zm5.0005 1.7676c-.2345.2344-.5524.3661-.884.3661-.3315 0-.6495-.1317-.8839-.3661-.2345-.2344-.3662-.5523-.3662-.8838s.1317-.6494.3662-.8838c.2344-.2344.5524-.3661.8839-.3661.3316 0 .6495.1317.884.3661.2344.2344.3661.5523.3661.8838s-.1317.6494-.3661.8838z"/><path d="m36.1601 44c4.4182 0 8-3.5817 8-8 0-4.4182-3.5818-8-8-8-4.4183 0-8 3.5818-8 8 0 4.4183 3.5817 8 8 8zm5.0606-8.9393c.5858-.5858.5858-1.5355 0-2.1213s-1.5355-.5858-2.1213 0l-3.9393 3.9393-1.9394-1.9393c-.5858-.5858-1.5355-.5858-2.1213 0s-.5858 1.5355 0 2.1213l3 3c.5858.5858 1.5355.5858 2.1213 0z"/></g></g></svg>