<svg viewBox="0 0 48 48" xmlns="http://www.w3.org/2000/svg"><path d="m26.4983 18.9991h1.3361c1.7267 2.992 4.9614 4.9997 8.6649 4.9997.8594 0 1.7033-.1094 2.5002-.3125v.3125 2.4998 14.9991c0 1.3827-1.1173 2.4999-2.5002 2.4999-1.383 0-2.5003-1.1172-2.5003-2.4999v-10.9993l-10.626 8.4995h4.3754c1.383 0 2.5003 1.1171 2.5003 2.4998s-1.1173 2.4999-2.5003 2.4999h-11.251c-4.141 0-7.50074-3.3592-7.50074-7.4996v-17.4599c0-1.2577-.93759-2.3279-2.18771-2.4842l-.61724-.0781c-1.36732-.1719-2.34398-1.4218-2.17209-2.7889.1719-1.3671 1.42201-2.3436 2.78933-2.1717l.61725.0781c3.7504.4687 6.5709 3.656 6.5709 7.4448v6.6637c2.6878-4.0388 7.282-6.7027 12.5012-6.7027zm12.5012 2.0702c-.7813.2734-1.6251.4296-2.5002.4296-2.219 0-4.2192-.9687-5.5943-2.4998-.2891-.3203-.5469-.664-.7735-1.0312-.7188-1.1562-1.1329-2.5155-1.1329-3.9685v-7.49955-1.56241-.10155c0-.46091.3672-.82808.8282-.83589h.0156c.2578 0 .5.12499.6563.3281v.00782l1.0001 1.32804 2.1252 2.83577.375.49997h5.0005l.3751-.49997 2.1252-2.83577 1.0001-1.32804v-.00782c.1562-.20311.3984-.3281.6563-.3281h.0156c.461.00781.8282.37498.8282.83589v.10155 1.56241 7.49955c0 1.3515-.3594 2.6248-.9845 3.7185-.8829 1.5468-2.3127 2.7498-4.016 3.3514zm-3.7503-7.0699c0-.3315-.1317-.6494-.3662-.8838-.2344-.2344-.5524-.3661-.884-.3661-.3315 0-.6495.1317-.8839.3661-.2345.2344-.3662.5523-.3662.8838s.1317.6494.3662.8838c.2344.2344.5524.3661.8839.3661.3316 0 .6496-.1317.884-.3661.2345-.2344.3662-.5523.3662-.8838zm3.7503 1.2499c.3316 0 .6495-.1317.884-.3661.2344-.2344.3661-.5523.3661-.8838s-.1317-.6494-.3661-.8838c-.2345-.2344-.5524-.3661-.884-.3661-.3315 0-.6495.1317-.8839.3661-.2345.2344-.3662.5523-.3662.8838s.1317.6494.3662.8838c.2344.2344.5524.3661.8839.3661z"/></svg>