<svg viewBox="0 0 48 48" xmlns="http://www.w3.org/2000/svg"><path d="m28.4419 8.51383v7.70837c0 3.0694 2.4861 5.5555 5.5556 5.5555 3.0694 0 5.5555-2.4861 5.5555-5.5555v-7.70837c0-.03472-.0278-.06944-.0694-.06944-.0209 0-.0348.00694-.0486.02083l-2.6598 2.65968c-.4166.4167-.9791.6528-1.5694.6528h-2.4167c-.5903 0-1.1528-.2361-1.5694-.6528l-2.6597-2.65968c-.0139-.01389-.0278-.02083-.0487-.02083-.0347 0-.0694.02778-.0694.06944zm.0694-2.29166c.6042 0 1.1875.24305 1.6181.67361l2.6597 2.65972h2.4097l2.6667-2.65972c.4306-.43056 1.0139-.67361 1.6181-.67361 1.2639 0 2.2916 1.02778 2.2916 2.29166v7.70837c0 4.2986-3.4791 7.7777-7.7777 7.7777-4.2987 0-7.7778-3.4791-7.7778-7.7777v-7.70837c0-1.26388 1.0278-2.29166 2.2916-2.29166zm-15.625 20.77773c2.3473-4.2708 6.3959-7.5138 11.3125-8.7638.1528.7361.382 1.4513.6875 2.118-6.9861 1.7153-12 8-12 15.3125v.5556c0 1.8402 1.4931 3.3333 3.3334 3.3333h8.8889 2.9583c.2014 0 .3681-.1667.3681-.3681 0-1.0208-.8264-1.8541-1.8542-1.8541h-2.5833c-.6112 0-1.1112-.5-1.1112-1.1111v-2.7778c0-1.5347-1.243-2.7778-2.7777-2.7778h-.5556c-.6111 0-1.1111-.5-1.1111-1.1111s.5-1.1111 1.1111-1.1111h.5556c2.7639 0 5 2.2361 5 5v.3055l8.1527-7.25c.2084-.1805.4653-.2777.7292-.2777h.007.0069c.1528 0 .3056.0347.4444.0972.3959.1805.6528.5764.6528 1.0139v11.1111c0 .6111.5 1.1111 1.1111 1.1111s1.1111-.5 1.1111-1.1111v-12.7917c.7917-.2778 1.5348-.6528 2.2223-1.118v13.9097c0 1.8403-1.4931 3.3333-3.3334 3.3333-1.8402 0-3.3333-1.493-3.3333-3.3333v-8.6389l-5.9792 5.3125c2.1042.1597 3.757 1.9167 3.757 4.0625 0 1.4306-1.1597 2.5903-2.5903 2.5903l-2.9583.0069h-8.8889-.007c-3.0625-.0069-5.5486-2.493-5.5486-5.5555v-.5556-17.1875c0-1.6805-1.24997-3.0972-2.91664-3.3055l-.54861-.0695c-.61111-.0764-1.04167-.6319-.96528-1.243.07639-.6112.63194-1.0417 1.24306-.9653l.54861.0694c2.77776.3472 4.86806 2.7084 4.86806 5.5139v8.5208zm17.7778-11.8888c0-.2947.1171-.5773.3255-.7857.2083-.2084.491-.3255.7856-.3255.2947 0 .5773.1171.7857.3255s.3254.491.3254.7857c0 .2946-.117.5773-.3254.7856-.2084.2084-.491.3255-.7857.3255-.2946 0-.5773-.1171-.7856-.3255-.2084-.2083-.3255-.491-.3255-.7856zm5.5556-1.1112c.2947 0 .5773.1171.7857.3255.2083.2084.3254.491.3254.7857 0 .2946-.1171.5773-.3254.7856-.2084.2084-.491.3255-.7857.3255s-.5773-.1171-.7857-.3255c-.2084-.2083-.3254-.491-.3254-.7856 0-.2947.117-.5773.3254-.7857s.491-.3255.7857-.3255z"/></svg>