<svg viewBox="0 0 48 48" xmlns="http://www.w3.org/2000/svg"><path d="m10.9572 26.7288v-3.379c0-1.835-.1361-3.1932 1.5018-4.4557 1.1113-.8569 1.9195-.5979 2.722-.7696 1.0287-.2197 1.8725-.7941 2.3907-1.7205.9085-1.6229.3745-3.762-1.1705-4.7766-.6627-.4356-1.4746-.5726-2.2527-.5735h-6.38259c-.42801.0009-.75559-.0197-1.12259.2487-.59039.4327-.66642 1.4633-.0779 1.9429.33227.2704.70678.2478 1.10663.2488h6.19485c.2375 0 .5247-.0104.7509.061.7415.2318 1.2052 1.0306.6758 1.7054-.4355.5548-.8278.4393-1.4267.5135-.3276.0403-.7152.1107-1.0325.2008-1.238.3492-2.3493 1.0813-3.11992 2.1185-1.41262 1.8988-1.19768 3.7019-1.19768 5.9133v7.1335c0 2.6131-.09104 4.7109 1.15075 7.1335.45895.8954 1.02775 1.6867 1.69235 2.4404 1.6247 1.8444 4.6292 3.2814 7.1063 3.2852h8.9168c0-.8016.0573-1.4699-.1642-2.2527-.3896-1.3845-1.6736-2.4226-3.1209-2.4404h-1.5018-2.722c-.7087-.001-1.4586-.0836-1.7571-.8448-.0939-.2271-.0995-.4327 0-.657.5162-1.1067 1.5459-.5238 2.8834-1.3028 2.1983-1.2794 2.1542-4.4209.4684-5.7819-.4665-.3764-1.0034-.6495-1.5947-.7565-.6336-.1145-1.1677.0384-1.6238-.6101-.5332-.7594.1389-1.6342.9667-1.682.4121-.0235.8213.0572 1.2203.1511 2.4638.5829 4.4462 2.9219 4.5044 5.4768.0206.9077-.214 1.8134-.6082 2.6281l-.6111 1.1264c2.5352 0 4.725 1.5299 5.567 3.9422.397 1.1385.3463 1.8406.3463 3.0036h5.7256c.2281 0 .5397.0122.7509-.0695 1.3422-.5191.5294-2.6253-.0845-3.3997-1.0728-1.3535-2.3287-1.2239-3.8577-1.2239v-18.7724c.9677 0 2.5924.0873 3.4729-.1389 2.7107-.6965 3.5705-2.844 3.5667-5.3989-.0009-.4853.0019-.9959-.3351-1.3883-.3632-.4233-1.0334-.4252-1.6688-1.3337-.4966-.7087-.2309-1.1545-.4571-1.8773-.4018-1.28306-1.5694-1.6876-2.7953-1.68948h-4.2237v-3.28516c-.0057-.40643-.0319-.76685-.3342-1.0766-.4468-.45898-1.4473-.38765-2.0124-.20368-1.6463.53689-2.4376 1.96641-2.4404 3.62682v7.2274c0 2.2273.1455 4.0332-1.5102 5.8194-.9095.9818-1.8613 1.6369-3.1829 1.9232l-3.5667.4121c-2.3503.5585-4.1534 1.7665-5.7256 3.578zm23.3716-13.1998c1.529-.0225 1.5769 2.0133.2816 2.1954-.8382.1183-1.56-.7631-1.1667-1.5712.1971-.4046.4721-.5285.8851-.6242zm.0939 12.9182v4.6931c0 .1774-.0132.4693.0535.6307.1041.2497 1.1854 1.2653 1.4482 1.5281l1.1264 1.1264c.704.7039 1.1864 1.3262 2.2527 1.3994 1.376.0948 2.5173-.8353 2.5342-2.2442.0029-.3032.0132-.6477-.075-.9386-.1728-.5726-.6411-.9978-1.0513-1.4079l-2.722-2.722c-.5359-.536-1.499-1.6314-2.1588-1.8998-.4965-.2018-.8889-.1652-1.4079-.1652z"/></svg>