<svg fill="none" height="48" viewBox="0 0 48 48" width="48" xmlns="http://www.w3.org/2000/svg"><g fill="#475569"><path clip-rule="evenodd" d="m10.9568 23.3498v3.379c1.5722-1.8115 3.3753-3.0196 5.7256-3.578l3.5668-.4121c1.3215-.2863 2.2733-.9414 3.1828-1.9232 1.5303-1.6509 1.522-3.3186 1.5119-5.3204-.0008-.164-.0016-.3303-.0016-.499v-7.2274c.0028-1.66041.794-3.08993 2.4404-3.62682.565-.18397 1.5656-.2553 2.0124.20368.3022.30975.3285.67017.3341 1.0766v3.28516h4.2238c1.2258.00188 2.3935.40642 2.7952 1.68948.088.2813.1016.5207.1145.7499.0204.3597.0393.6945.3426 1.1274.3889.556.7908.7725 1.1273.9537.2135.115.4006.2158.5416.38.3332.388.3341.8917.335 1.3722v.0161c.0038 2.5549-.856 4.7024-3.5667 5.3989-.7018.1803-1.8767.1614-2.8146.1463-.2387-.0038-.462-.0074-.6583-.0074v6.294c-3.5369 1.5409-6.0096 5.0678-6.0096 9.1721 0 .553.0449 1.0954.1312 1.624-.7794-.37-1.6517-.5704-2.5692-.5704l.6111-1.1264c.3942-.8147.6289-1.7204.6082-2.6281-.0582-2.5549-2.0405-4.8939-4.5044-5.4768-.3989-.0939-.8082-.1746-1.2202-.1511-.8279.0478-1.4999.9226-.9668 1.682.3453.4909.7352.5226 1.1792.5586.1425.0116.2906.0236.4446.0515.5913.107 1.1282.3801 1.5947.7565 1.6858 1.361 1.7299 4.5025-.4683 5.7819-.5682.3309-1.0809.4161-1.5222.4894-.5975.0993-1.0643.1768-1.3613.8134-.0995.2243-.0938.4299 0 .657.2985.7612 1.0485.8438 1.7571.8448h4.2238c1.4473.0178 2.7314 1.0559 3.1209 2.4404.183.6467.1757 1.2153.1677 1.8454-.0017.1326-.0034.2679-.0034.4073h-8.9169c-2.477-.0038-5.4815-1.4408-7.1063-3.2852-.6645-.7537-1.2333-1.545-1.69232-2.4404-1.16147-2.2659-1.15695-4.2477-1.1515-6.6327.00038-.1649.00076-.3318.00076-.5008v-7.1335c0-.2629-.00304-.5201-.00602-.7723-.02209-1.8692-.04098-3.4679 1.20369-5.141.77059-1.0372 1.88189-1.7693 3.11999-2.1185.3172-.0901.7049-.1605 1.0325-.2008.1254-.0156.2417-.0228.3513-.0296.4137-.0256.731-.0453 1.0754-.4839.5293-.6748.0657-1.4736-.6758-1.7054-.2013-.0635-.4508-.0623-.6707-.0613-.0272.0001-.054.0003-.0802.0003h-6.19492c-.02973-.0001-.05932 0-.08876 0-.36655.0008-.71031.0015-1.01787-.2488-.58851-.4796-.51249-1.5102.07791-1.9429.34135-.2497.6486-.2493 1.03428-.2487h.0883 6.38256c.7782.0009 1.5901.1379 2.2527.5735 1.545 1.0146 2.0791 3.1537 1.1705 4.7766-.5181.9264-1.362 1.5008-2.3907 1.7205-.2264.0484-.4533.0626-.6873.0772-.5953.0372-1.2369.0773-2.0347.6924-1.519 1.1709-1.5122 2.4241-1.5032 4.0637.0007.1282.0014.2588.0014.392zm23.6532-7.6254c1.2953-.1821 1.2474-2.2179-.2816-2.1954-.413.0957-.688.2196-.8851.6242-.3933.8081.3285 1.6895 1.1667 1.5712z" fill-rule="evenodd"/><path d="m29.6368 43.5796c-.0001.0222-.0002.0445-.0004.0669-.0005.1132-.0011.2305-.0011.3529h.5229c-.1785-.1342-.3525-.2742-.5214-.4198z"/><path clip-rule="evenodd" d="m36.16 44c4.4183 0 8-3.5817 8-8s-3.5817-8-8-8c-4.4182 0-8 3.5817-8 8s3.5818 8 8 8zm-1.9393-12.0607c-.5858-.5857-1.5355-.5857-2.1213 0-.5858.5858-.5858 1.5356 0 2.1214l1.9393 1.9393-1.9393 1.9393c-.5858.5858-.5858 1.5356 0 2.1214.5858.5857 1.5355.5857 2.1213 0l1.9393-1.9394 1.9394 1.9394c.5858.5857 1.5355.5857 2.1213 0 .5858-.5858.5858-1.5356 0-2.1214l-1.9393-1.9393 1.9393-1.9393c.5858-.5858.5858-1.5356 0-2.1214-.5858-.5857-1.5355-.5857-2.1213 0l-1.9394 1.9394z" fill-rule="evenodd"/></g></svg>