<svg viewBox="0 0 48 48" xmlns="http://www.w3.org/2000/svg"><path d="m20.4849 4.57341c-.4687-.49211-1.1717-.67958-1.8278-.50773-.6562.17185-1.1639.6952-1.3358 1.35134l-1.2341 4.88198-4.843-1.36692c-.6561-.18747-1.35915 0-1.83564.47648-.47648.47649-.66395 1.17954-.47648 1.83564l1.36692 4.843-4.88198 1.242c-.65614.164-1.17168.6795-1.35134 1.3357-.17966.6561.01562 1.3513.50773 1.82l3.60879 3.515-3.60879 3.5151c-.49211.4687-.67958 1.1717-.50773 1.8278.17185.6562.6952 1.1639 1.35134 1.3357l4.88198 1.2342-1.36692 4.843c-.18747.6561 0 1.3591.47648 1.8356.47649.4765 1.17954.664 1.83564.4765l4.843-1.367 1.2341 4.8821c.1641.6561.6796 1.1716 1.3358 1.3513.6561.1797 1.3513-.0156 1.8278-.4999l3.515-3.6088 3.5151 3.6088c.4765.4843 1.1717.6796 1.8278.4999.6562-.1797 1.1639-.6952 1.3357-1.3513l1.2342-4.8821 4.843 1.367c.6561.1875 1.3591 0 1.8356-.4765s.664-1.1795.4765-1.8356l-1.367-4.843 4.8821-1.2342c.6561-.164 1.1716-.6795 1.3513-1.3357.1797-.6561-.0156-1.3513-.4999-1.8278l-3.6088-3.5151 3.6088-3.515c.4843-.4765.6796-1.1717.4999-1.8278-.1797-.6562-.6952-1.1639-1.3513-1.3358l-4.8821-1.2341 1.367-4.843c.1875-.6561 0-1.35915-.4765-1.83564-.4765-.47648-1.1795-.66395-1.8356-.47648l-4.843 1.36692-1.242-4.88198c-.164-.65614-.6795-1.17168-1.3357-1.35134-.6561-.17966-1.3513.01562-1.82.50773l-3.5151 3.60879z"/></svg>