<svg viewBox="0 0 48 48" xmlns="http://www.w3.org/2000/svg"><path d="m10.1231 19.6366c-1.5565 2.9567-.15005 6.6134 2.9941 7.7573 3.1442 1.144 6.5697-.7501 7.2823-4.0193l.6813-3.1317-9.4638-3.4442zm11.3828-1.3689 1.2002-5.5383-7.5073-2.73163-2.6441 5.01323zm-13.15183.4375 5.06943-9.63881c.4688-.88762 1.5127-1.28768 2.4566-.95013l7.5136 2.73784c.225.0813.425.2001.6.3501.1751-.15.3751-.2688.6001-.3501l7.5136-2.73784c.9376-.3438 1.9878.06251 2.4566.95013l5.0757 9.63881c1.9627 3.7318.4625 8.2699-3.163 10.164l2.6254 7.2135 3.5567-1.294c.5189-.1875 1.0939.0813 1.2815.6001.1875.5188-.0813 1.0939-.6001 1.2814-3.0004 1.0939-5.9946 2.1816-8.995 3.2755-.5188.1875-1.0939-.0813-1.2814-.6001-.1876-.5188.0812-1.0939.6-1.2814l3.5568-1.2939-2.6254-7.2136c-3.9943.8814-8.0636-1.6314-8.9575-5.7508l-1.6377-7.5635-1.6377 7.5635c-.8939 4.1194-4.9632 6.6385-8.9575 5.7508l-2.6254 7.2136 3.5568 1.2939c.5188.1875.7876.7626.6 1.2814-.1875.5188-.7626.7876-1.2814.6001-3.0004-1.0939-5.99457-2.1816-8.99499-3.2755-.51882-.1875-.78761-.7626-.60008-1.2814.18752-.5188.7626-.7876 1.28142-.6001l3.55675 1.294 2.6254-7.2135c-3.62554-1.8941-5.12575-6.4322-3.16298-10.164zm29.51033.9314-1.4939-2.8379-9.4638 3.4442.6813 3.1317c.7063 3.2692 4.1381 5.157 7.2823 4.0193 3.1441-1.1376 4.5506-4.7944 2.9941-7.7573zm-11.3828-1.3689 8.9512-3.2567-2.6441-5.01323-7.5073 2.73163z"/></svg>