<svg viewBox="0 0 48 48" xmlns="http://www.w3.org/2000/svg"><path d="m13.7339 9.08836c.4624-.89363 1.5185-1.30607 2.4621-.96237l7.8115 2.84961 7.8114-2.84961c.9437-.3437 1.9998.06874 2.4622.96237l4.9244 9.55494c1.7997 3.4871.6436 7.6427-2.406 9.7862l1.956 5.3868 2.5622-.9374c1.0373-.3749 2.1872.1562 2.5621 1.1936.375 1.0374-.1562 2.1872-1.1936 2.5622-2.9621 1.0811-5.9242 2.1559-8.8863 3.237-1.0373.3812-2.1872-.1562-2.5621-1.1936-.375-1.0373.1562-2.1872 1.1936-2.5621l2.5621-.9374-1.956-5.3868c-3.712.325-7.2615-2.1184-8.1239-5.9492l-.9124-4.0432-.9123 4.0432c-.8624 3.8308-4.4119 6.2742-8.1239 5.9492l-1.956 5.3868 2.5621.9374c1.0374.3812 1.5748 1.5248 1.1936 2.5621-.3812 1.0374-1.5248 1.5748-2.5621 1.1936-2.9621-1.0811-5.92424-2.1622-8.88634-3.237-1.03736-.3812-1.57479-1.5248-1.19359-2.5622s1.53105-1.5685 2.56841-1.1936l2.56215.9374 1.95597-5.3868c-3.04332-2.1435-4.19317-6.2991-2.39341-9.7862zm2.7496 3.39954-1.6998 3.2996 5.5743 2.0309.8186-3.6182zm15.0542 0-4.6931 1.7123.8187 3.6182 5.5742-2.0309z"/></svg>