<svg viewBox="0 0 48 48" xmlns="http://www.w3.org/2000/svg"><path d="m5.46484 22.125c.64063 0 1.17969-.4843 1.28907-1.1172.44531-2.6015 1.46875-5.0078 2.92968-7.0859.36721-.5234.33591-1.25-.11718-1.7031-.52344-.5235-1.39063-.4844-1.82032.1172-1.75781 2.4531-2.98437 5.3125-3.48437 8.414-.125.7344.46094 1.375 1.20312 1.375zm8.45316-12.43746c2.0703-1.46094 4.4765-2.48438 7.0781-2.9375.6406-.10157 1.125-.64063 1.125-1.28125 0-.74219-.6406-1.32813-1.3672-1.20313-3.1094.5-5.9687 1.72656-8.4219 3.48438-.6015.42968-.6406 1.29687-.1172 1.82031.4532.45315 1.1797.49215 1.7032.11719zm11.9531 32.84376c0 .7422.6406 1.3281 1.3672 1.2031 3.1015-.5078 5.9687-1.7266 8.414-3.4844.6016-.4297.6407-1.2968.1172-1.8203-.4531-.4531-1.1797-.4922-1.7031-.1172-2.0703 1.461-4.4766 2.4844-7.0781 2.9375-.6328.1094-1.1172.6407-1.1172 1.2891zm12.4375-8.4531c-.3672.5234-.3359 1.25.1172 1.7031.5234.5234 1.3906.4844 1.8203-.1172 1.7578-2.4531 2.9844-5.3125 3.4844-8.4141.1172-.7343-.461-1.3672-1.2032-1.3672-.6406 0-1.1796.4844-1.289 1.1172-.4453 2.6016-1.4688 5.0078-2.9375 7.0782zm-26.0938 4.3515c-.5234.5235-.4843 1.3906.1172 1.8203 2.4532 1.7578 5.3125 2.9844 8.4141 3.4844.7344.1172 1.3672-.4609 1.3672-1.2031 0-.6406-.4844-1.1797-1.1172-1.2891-2.6016-.4453-5.0078-1.4687-7.0781-2.9375-.5235-.3672-1.25-.3359-1.7032.1172zm-4.46871-2.7656c.42969.6016 1.29688.6406 1.82032.1172.45309-.4531.49219-1.1797.11718-1.7031-1.46093-2.0782-2.48437-4.4844-2.92968-7.086-.10938-.6328-.64844-1.1172-1.28907-1.1172-.74218 0-1.32812.6407-1.20312 1.3672.5 3.1094 1.72656 5.9688 3.48437 8.4219zm28.03121-26.09375c.5235-.52344.4844-1.39063-.1171-1.82031-2.4532-1.75782-5.3125-2.98438-8.4141-3.48438-.7344-.125-1.375.46094-1.375 1.20313 0 .64062.4844 1.17968 1.1172 1.28906 2.6015.44531 5.0078 1.46875 7.0859 2.92969.5235.36716 1.25.33596 1.7031-.11719zm2.5313 4.35155c1.4609 2.0703 2.4844 4.4766 2.9375 7.0781.1094.6328.6406 1.1172 1.2891 1.1172.7421 0 1.3281-.6406 1.2031-1.3672-.5078-3.1015-1.7266-5.9687-3.4844-8.414-.4297-.6016-1.2969-.6407-1.8203-.1172-.4531.4531-.4922 1.1797-.1172 1.7031z"/></svg>