<svg viewBox="0 0 48 48" xmlns="http://www.w3.org/2000/svg"><path d="m24 44c5.3043 0 10.3914-2.1071 14.1421-5.8579 3.7508-3.7507 5.8579-8.8378 5.8579-14.1421s-2.1071-10.3914-5.8579-14.14214c-3.7507-3.75072-8.8378-5.85786-14.1421-5.85786s-10.3914 2.10714-14.14214 5.85786c-3.75072 3.75074-5.85786 8.83784-5.85786 14.14214s2.10714 10.3914 5.85786 14.1421c3.75074 3.7508 8.83784 5.8579 14.14214 5.8579zm-5.4453-29.3359 5.4453 6.4297 5.4453-6.4297c.6719-.7891 1.8516-.8907 2.6406-.2188.7891.6719.8907 1.8516.2188 2.6406l-5.8516 6.9141 5.8516 6.9141c.6719.789.5703 1.9765-.2188 2.6406-.789.664-1.9765.5703-2.6406-.2188l-5.4453-6.4296-5.4453 6.4296c-.6719.7891-1.8516.8907-2.6406.2188-.7891-.6719-.8907-1.8516-.2188-2.6406l5.8516-6.9141-5.8516-6.9141c-.6719-.789-.5703-1.9765.2188-2.6406.789-.6641 1.9765-.5703 2.6406.2188z"/></svg>