<svg viewBox="0 0 48 48" xmlns="http://www.w3.org/2000/svg"><path d="m41.5 24c0-4.6413-1.8437-9.0925-5.1256-12.3744-3.2819-3.28186-7.7331-5.1256-12.3744-5.1256s-9.0925 1.84374-12.3744 5.1256c-3.28186 3.2819-5.1256 7.7331-5.1256 12.3744s1.84374 9.0925 5.1256 12.3744c3.2819 3.2819 7.7331 5.1256 12.3744 5.1256s9.0925-1.8437 12.3744-5.1256 5.1256-7.7331 5.1256-12.3744zm-37.5 0c0-5.3043 2.10714-10.3914 5.85786-14.14214 3.75074-3.75072 8.83784-5.85786 14.14214-5.85786s10.3914 2.10714 14.1421 5.85786c3.7508 3.75074 5.8579 8.83784 5.8579 14.14214s-2.1071 10.3914-5.8579 14.1421c-3.7507 3.7508-8.8378 5.8579-14.1421 5.8579s-10.3914-2.1071-14.14214-5.8579c-3.75072-3.7507-5.85786-8.8378-5.85786-14.1421zm25.8984-7.2422c-.4843-.4844-1.2812-.4844-1.7656 0l-1.6719 1.6719 3.125 3.125 1.6719-1.6719c.4844-.4844.4844-1.2812 0-1.7656zm-11.6406 9.875c-.164.1641-.2734.3594-.3281.5781l-.9609 3.8282 3.8281-.961c.2187-.0547.4218-.1718.5781-.3281l6.4297-6.4297-3.125-3.125-6.4297 6.4297zm8.1094-11.6406c1.4609-1.461 3.8359-1.461 5.3047 0l1.3594 1.3594c1.4609 1.4609 1.4609 3.8359 0 5.3046l-9.8829 9.8672c-.4843.4844-1.0859.8203-1.7421.9844l-5.8516 1.461c-.4297.1093-.875-.0157-1.1875-.3282s-.4375-.7578-.3281-1.1875l1.4609-5.8515c.1641-.6563.5078-1.2579.9844-1.7422l9.875-9.8672z"/></svg>