<svg viewBox="0 0 48 48" xmlns="http://www.w3.org/2000/svg"><path d="m24 6.5c4.6413 0 9.0925 1.84374 12.3744 5.1256 3.2819 3.2819 5.1256 7.7331 5.1256 12.3744s-1.8437 9.0925-5.1256 12.3744-7.7331 5.1256-12.3744 5.1256-9.0925-1.8437-12.3744-5.1256c-3.28186-3.2819-5.1256-7.7331-5.1256-12.3744s1.84374-9.0925 5.1256-12.3744c3.2819-3.28186 7.7331-5.1256 12.3744-5.1256zm0 37.5c5.3043 0 10.3914-2.1071 14.1421-5.8579 3.7508-3.7507 5.8579-8.8378 5.8579-14.1421s-2.1071-10.3914-5.8579-14.14214c-3.7507-3.75072-8.8378-5.85786-14.1421-5.85786s-10.3914 2.10714-14.14214 5.85786c-3.75072 3.75074-5.85786 8.83784-5.85786 14.14214s2.10714 10.3914 5.85786 14.1421c3.75074 3.7508 8.83784 5.8579 14.14214 5.8579zm-6.5547-29.5625c-.4531-.5234-1.2422-.5859-1.7656-.1328s-.5859 1.2422-.1328 1.7656l6.8047 7.9297-6.7969 7.9375c-.4531.5234-.3906 1.3125.1328 1.7656.5234.4532 1.3125.3906 1.7656-.1328l6.5469-7.6484 6.5547 7.6406c.4531.5234 1.2344.5859 1.7656.1328.5313-.4531.586-1.2344.1328-1.7656l-6.8047-7.9297 6.8047-7.9375c.4532-.5234.3906-1.3125-.1328-1.7656s-1.3125-.3906-1.7656.1328l-6.5547 7.6484z"/></svg>