<svg fill="none" height="48" viewBox="0 0 48 48" width="48" xmlns="http://www.w3.org/2000/svg"><path d="m24 44c11.0469 0 20-8.9531 20-20s-8.9531-20-20-20-20 8.9531-20 20 8.9531 20 20 20zm-3.125-13.75h1.875v-5h-1.875c-1.0391 0-1.875-.8359-1.875-1.875s.8359-1.875 1.875-1.875h3.75c1.0391 0 1.875.8359 1.875 1.875v6.875h.625c1.0391 0 1.875.8359 1.875 1.875s-.8359 1.875-1.875 1.875h-6.25c-1.0391 0-1.875-.8359-1.875-1.875s.8359-1.875 1.875-1.875zm3.125-11.25c-1.3828 0-2.5-1.1172-2.5-2.5s1.1172-2.5 2.5-2.5 2.5 1.1172 2.5 2.5-1.1172 2.5-2.5 2.5z" fill="#475569"/></svg>