<svg viewBox="0 0 48 48" xmlns="http://www.w3.org/2000/svg"><path d="m40.25 24c0-4.3098-1.712-8.443-4.7595-11.4905-3.0475-3.04745-7.1807-4.7595-11.4905-4.7595s-8.443 1.71205-11.4905 4.7595c-3.04745 3.0475-4.7595 7.1807-4.7595 11.4905s1.71205 8.443 4.7595 11.4905c3.0475 3.0475 7.1807 4.7595 11.4905 4.7595s8.443-1.712 11.4905-4.7595 4.7595-7.1807 4.7595-11.4905zm-36.25 0c0-5.3043 2.10714-10.3914 5.85786-14.14214 3.75074-3.75072 8.83784-5.85786 14.14214-5.85786s10.3914 2.10714 14.1421 5.85786c3.7508 3.75074 5.8579 8.83784 5.8579 14.14214s-2.1071 10.3914-5.8579 14.1421c-3.7507 3.7508-8.8378 5.8579-14.1421 5.8579s-10.3914-2.1071-14.14214-5.8579c-3.75072-3.7507-5.85786-8.8378-5.85786-14.1421z"/></svg>