<svg viewBox="0 0 48 48" xmlns="http://www.w3.org/2000/svg"><path d="m6.16797 22.1211c.96094 0 1.75781-.7265 1.96875-1.664.41406-1.8672 1.14844-3.6094 2.14058-5.1719.5157-.8125.4688-1.8906-.2187-2.5703-.78907-.7891-2.09376-.7344-2.71094.1953-1.42188 2.1328-2.44532 4.5547-2.96094 7.1562-.21875 1.0938.66406 2.0547 1.78125 2.0547zm9.12503-11.8437c1.5625-.99221 3.3047-1.72658 5.1718-2.14065.9375-.21093 1.6641-1.00781 1.6641-1.96875 0-1.11718-.9609-2-2.0547-1.78125-2.6015.51563-5.0234 1.53907-7.1562 2.96094-.9297.61719-.9844 1.92188-.1953 2.71091.6796.6797 1.7578.7344 2.5703.2188zm10.5859 31.5547c0 1.1172.9609 2 2.0547 1.7812 2.6016-.5156 5.0234-1.539 7.1562-2.9609.9297-.6172.9844-1.9219.1954-2.711-.6797-.6796-1.7579-.7343-2.5704-.2187-1.5625.9922-3.3046 1.7266-5.1718 2.1406-.9375.211-1.6641 1.0078-1.6641 1.9688zm11.8438-9.125c-.5157.8125-.4688 1.8906.2187 2.5703.7891.789 2.0938.7344 2.7109-.1953 1.4219-2.1328 2.4454-4.5547 2.961-7.1563.2187-1.0937-.6641-2.0547-1.7813-2.0547-.9609 0-1.7578.7266-1.9687 1.6641-.4141 1.8672-1.1485 3.6094-2.1406 5.1719zm-25 5.2187c-.7891.7891-.7344 2.0938.1953 2.711 2.1328 1.4218 4.5547 2.4453 7.1562 2.9609 1.0938.2187 2.0547-.6641 2.0547-1.7813 0-.9609-.7266-1.7578-1.6641-1.9687-1.8671-.4141-3.6093-1.1484-5.1718-2.1406-.8125-.5157-1.8907-.4688-2.5703.2187zm-5.36723-2.8437c.61719.9297 1.92187.9843 2.71093.1953.6797-.6797.7344-1.7578.2188-2.5703-.99223-1.5625-1.72661-3.3047-2.14067-5.1719-.21094-.9375-1.00781-1.6641-1.96875-1.6641-1.11719 0-2 .961-1.78125 2.0547.51563 2.6016 1.53906 5.0235 2.96094 7.1563zm27.92973-25.0235c.789-.78903.7343-2.09372-.1954-2.71091-2.1328-1.42187-4.5546-2.44531-7.1562-2.96094-1.0938-.21875-2.0547.66407-2.0547 1.78125 0 .96094.7266 1.75782 1.6641 1.96875 1.8672.41407 3.6093 1.14844 5.1718 2.14065.8125.5156 1.8907.4687 2.5704-.2188zm2.4375 5.2188c.9921 1.5625 1.7265 3.3047 2.1406 5.1719.2109.9375 1.0078 1.664 1.9687 1.664 1.1172 0 2-.9609 1.7813-2.0547-.5156-2.6015-1.5391-5.0234-2.961-7.1562-.6171-.9297-1.9218-.9844-2.7109-.1953-.6797.6797-.7344 1.7578-.2187 2.5703z"/></svg>