<svg viewBox="0 0 48 48" xmlns="http://www.w3.org/2000/svg"><path d="m4.08594 22.125c.38281-4.1172 2.01562-7.8672 4.50781-10.8828l3.55465 3.5547c-1.6093 2.0781-2.68746 4.5859-3.03121 7.3281zm10.71876-9.9766-3.5625-3.55465c3.0156-2.49219 6.7656-4.125 10.8828-4.50781v5.03125c-2.7422.34375-5.25 1.42191-7.3203 3.03121zm11.0703 26.7344c2.7422-.3437 5.25-1.4219 7.3203-3.0312l3.5547 3.5546c-3.0078 2.4922-6.7578 4.125-10.875 4.5079zm9.9766-5.6875c1.6093-2.0781 2.6953-4.5859 3.0312-7.3203h5.0313c-.3829 4.1172-2.0157 7.8672-4.5079 10.8828l-3.5546-3.5547zm-24.6094 6.2109 3.5547-3.5546c2.0781 1.6093 4.5859 2.6953 7.3203 3.0312v5.0313c-4.1172-.3829-7.8672-2.0157-10.8828-4.5079zm-2.64845-2.6484c-2.49219-3.0156-4.125-6.7656-4.50781-10.8828h5.03125c.34375 2.7422 1.42191 5.25 3.03121 7.3203zm28.16405-28.16405-3.5547 3.55465c-2.0781-1.6093-4.5859-2.68746-7.3281-3.03121v-5.03125c4.1172.38281 7.8672 2.01562 10.8828 4.50781zm-.9062 6.21095 3.5546-3.5547c2.4922 3.0078 4.125 6.7656 4.5079 10.8828h-5.0313c-.3437-2.7422-1.4219-5.25-3.0312-7.3203z"/></svg>