<svg viewBox="0 0 48 48" xmlns="http://www.w3.org/2000/svg"><path d="m24 44c5.3043 0 10.3914-2.1071 14.1421-5.8579 3.7508-3.7507 5.8579-8.8378 5.8579-14.1421s-2.1071-10.3914-5.8579-14.14214c-3.7507-3.75072-8.8378-5.85786-14.1421-5.85786s-10.3914 2.10714-14.14214 5.85786c-3.75072 3.75074-5.85786 8.83784-5.85786 14.14214s2.10714 10.3914 5.85786 14.1421c3.75074 3.7508 8.83784 5.8579 14.14214 5.8579zm-6.3281-26.3281c.7343-.7344 1.9218-.7344 2.6484 0l3.6719 3.6719 3.6719-3.6719c.7343-.7344 1.9218-.7344 2.6484 0 .7266.7343.7344 1.9218 0 2.6484l-3.6719 3.6719 3.6719 3.6719c.7344.7343.7344 1.9218 0 2.6484s-1.9219.7344-2.6484 0l-3.6719-3.6719-3.6719 3.6719c-.7344.7344-1.9219.7344-2.6484 0-.7266-.7344-.7344-1.9219 0-2.6484l3.6719-3.6719-3.6719-3.6719c-.7344-.7344-.7344-1.9219 0-2.6484z"/></svg>