<svg viewBox="0 0 48 48" xmlns="http://www.w3.org/2000/svg"><path d="m24 44c5.3043 0 10.3914-2.1071 14.1421-5.8579 3.7508-3.7507 5.8579-8.8378 5.8579-14.1421s-2.1071-10.3914-5.8579-14.14214c-3.7507-3.75072-8.8378-5.85786-14.1421-5.85786s-10.3914 2.10714-14.14214 5.85786c-3.75072 3.75074-5.85786 8.83784-5.85786 14.14214s2.10714 10.3914 5.85786 14.1421c3.75074 3.7508 8.83784 5.8579 14.14214 5.8579zm7.9531-29.0859 1.125 1.125c1.2188 1.2187 1.2188 3.1953 0 4.4218l-1.6719 1.6719-5.5468-5.5469 1.6719-1.6718c1.2187-1.2188 3.1953-1.2188 4.4218 0zm-16.0859 11.664 8.2187-8.2187 5.5469 5.5469-8.2187 8.2109c-.3204.3203-.7188.5469-1.1641.6562l-4.6953 1.1719c-.4297.1094-.875-.0156-1.1875-.3281s-.4375-.7578-.3281-1.1875l1.1718-4.6953c.1094-.4375.336-.8438.6563-1.1641z"/></svg>