<svg viewBox="0 0 48 48" xmlns="http://www.w3.org/2000/svg"><path d="m24 44c5.3043 0 10.3914-2.1071 14.1421-5.8579 3.7508-3.7507 5.8579-8.8378 5.8579-14.1421s-2.1071-10.3914-5.8579-14.14214c-3.7507-3.75072-8.8378-5.85786-14.1421-5.85786s-10.3914 2.10714-14.14214 5.85786c-3.75072 3.75074-5.85786 8.83784-5.85786 14.14214s2.10714 10.3914 5.85786 14.1421c3.75074 3.7508 8.83784 5.8579 14.14214 5.8579zm-6.7344-27.0859c.6172-1.7422 2.2735-2.9141 4.125-2.9141h4.5547c2.7266 0 4.9297 2.2109 4.9297 4.9297 0 1.7656-.9453 3.3984-2.4766 4.2812l-2.5234 1.4453c-.0156 1.0157-.8516 1.8438-1.875 1.8438-1.0391 0-1.875-.8359-1.875-1.875v-1.0547c0-.6719.3594-1.2891.9453-1.625l3.4609-1.9844c.3672-.2109.5938-.6015.5938-1.0234 0-.6563-.5313-1.1797-1.1797-1.1797h-4.5547c-.2656 0-.5.1641-.5859.4141l-.0313.0937c-.3437.9766-1.4218 1.4844-2.3906 1.1406-.9687-.3437-1.4844-1.4218-1.1406-2.3906l.0312-.0937zm4.2344 14.5859c0-.663.2634-1.2989.7322-1.7678.4689-.4688 1.1048-.7322 1.7678-.7322s1.2989.2634 1.7678.7322c.4688.4689.7322 1.1048.7322 1.7678s-.2634 1.2989-.7322 1.7678c-.4689.4688-1.1048.7322-1.7678.7322s-1.2989-.2634-1.7678-.7322c-.4688-.4689-.7322-1.1048-.7322-1.7678z"/></svg>