<svg viewBox="0 0 48 48" xmlns="http://www.w3.org/2000/svg"><path d="m41.5 24c0 4.6413-1.8437 9.0925-5.1256 12.3744s-7.7331 5.1256-12.3744 5.1256-9.0925-1.8437-12.3744-5.1256c-3.28186-3.2819-5.1256-7.7331-5.1256-12.3744s1.84374-9.0925 5.1256-12.3744c3.2819-3.28186 7.7331-5.1256 12.3744-5.1256s9.0925 1.84374 12.3744 5.1256c3.2819 3.2819 5.1256 7.7331 5.1256 12.3744zm-37.5 0c0 5.3043 2.10714 10.3914 5.85786 14.1421 3.75074 3.7508 8.83784 5.8579 14.14214 5.8579s10.3914-2.1071 14.1421-5.8579c3.7508-3.7507 5.8579-8.8378 5.8579-14.1421s-2.1071-10.3914-5.8579-14.14214c-3.7507-3.75072-8.8378-5.85786-14.1421-5.85786s-10.3914 2.10714-14.14214 5.85786c-3.75072 3.75074-5.85786 8.83784-5.85786 14.14214zm18.75-11.25v11.25c0 .4141.2109.8047.5547 1.0391l7.5 5c.5781.3828 1.3515.2265 1.7344-.3438.3828-.5703.2265-1.3515-.3438-1.7344l-6.9453-4.6328v-10.5781c0-.6875-.5625-1.25-1.25-1.25s-1.25.5625-1.25 1.25z"/></svg>