<svg viewBox="0 0 48 48" xmlns="http://www.w3.org/2000/svg"><path d="m24 4c5.3043 0 10.3914 2.10714 14.1421 5.85786 3.7508 3.75074 5.8579 8.83784 5.8579 14.14214s-2.1071 10.3914-5.8579 14.1421c-3.7507 3.7508-8.8378 5.8579-14.1421 5.8579s-10.3914-2.1071-14.14214-5.8579c-3.75072-3.7507-5.85786-8.8378-5.85786-14.1421s2.10714-10.3914 5.85786-14.14214c3.75074-3.75072 8.83784-5.85786 14.14214-5.85786zm-1.875 9.375v10.625c0 .625.3125 1.2109.8359 1.5625l7.5 5c.8594.5781 2.0235.3437 2.6016-.5234.5781-.8672.3437-2.0235-.5234-2.6016l-6.6641-4.4375v-9.625c0-1.0391-.8359-1.875-1.875-1.875s-1.875.8359-1.875 1.875z"/></svg>