<svg viewBox="0 0 48 48" xmlns="http://www.w3.org/2000/svg"><path d="m6 19c0-4.675 4.6062-9 11-9 6.3937 0 11 4.325 11 9s-4.6063 9-11 9c-.9563 0-1.9125-.1187-2.8938-.3125-.2187-.0438-.4437-.0125-.6374.0875-.3813.1938-.75.375-1.125.5438-1.7751.8062-3.76255 1.4437-5.7188 1.625.93125-1.1875 1.675-2.4813 2.35-3.7438.20625-.3812.14375-.85-.15625-1.1625-1.69375-1.775-2.81875-3.7187-2.81875-6.0375zm11-11c-7.18125 0-13 4.9313-13 11 0 2.7625 1.2375 5.0063 2.875 6.875-.73125 1.3125-1.5 2.5375-2.46875 3.5938l-.00625.0062c-.40625.4375-.5125 1.0687-.275 1.6125.2375.5562.775.9125 1.375.9125 2.6875 0 5.4062-.8313 7.6687-1.8563.3063-.1375.6001-.2812.8938-.4249.9563.1749 1.9312.2875 2.9375.2875 7.1812 0 13-4.9313 13-11 0-6.0688-5.8188-11.0063-13-11.0063zm14.9625 10.0312c5.8875.4063 10.0375 4.5313 10.0375 8.9688 0 2.3188-1.125 4.2625-2.8187 6.0375-.3.3125-.3625.7813-.1563 1.1625.6813 1.2625 1.4187 2.55 2.35 3.7438-1.9562-.1875-3.95-.8251-5.7188-1.625-.375-.1688-.7437-.35-1.125-.5438-.2-.1-.425-.1313-.6375-.0875-.975.1938-1.9312.3125-2.8937.3125-4.2625 0-7.725-1.9187-9.5688-4.5812-.6875.1875-1.3937.3249-2.1124.425 2.1187 3.6437 6.5499 6.1562 11.6812 6.1562 1.0063 0 1.9813-.1125 2.9375-.2875.2875.1437.5875.2875.8937.425 2.2626 1.0313 4.9813 1.8625 7.6688 1.8625.6 0 1.1375-.3563 1.375-.9062.2375-.5438.125-1.1813-.275-1.6125l-.0062-.0063c-.9688-1.0625-1.7375-2.2812-2.4688-3.5937 1.6375-1.8688 2.875-4.1125 2.875-6.875 0-5.9-5.4875-10.7188-12.3875-10.9875.175.6499.2937 1.325.35 2.0187z"/></svg>