<svg viewBox="0 0 48 48" xmlns="http://www.w3.org/2000/svg"><path d="m24 9c-10.1719 0-17.5 6.6094-17.5 13.75 0 2.8984 1.21094 5.5156 3.125 7.8125.4062.4922.6562 1.1563.5781 1.8672-.24216 2.1094-.8906 4.1016-2.00779 5.9609-.03906.0703-.08594.1406-.125.2032.86719-.2266 1.73438-.5469 2.55469-.8985 1.3281-.5781 2.5781-1.3047 3.7812-2.1406.6641-.4609 1.5157-.5859 2.2813-.3281 2.3906.8125 4.8125 1.2734 7.3125 1.2734 10.1719 0 17.5-6.6094 17.5-13.75s-7.3281-13.75-17.5-13.75zm-20 13.75c0-8.9688 8.9453-16.25 20-16.25s20 7.2812 20 16.25-8.9453 16.25-20 16.25c-2.8125 0-5.5078-.5234-8.1094-1.3984-.0156-.0078-.039 0-.0547.0078-1.3203.914-2.7109 1.7265-4.2109 2.3828-1.875.8125-4.13281 1.5078-6.375 1.5078-.50782 0-.96094-.3047-1.15625-.7656-.19532-.461-.08594-1 .26562-1.3594.63281-.6406 1.1875-1.4219 1.69531-2.2656.91407-1.5313 1.46094-3.1719 1.66407-4.9297 0 0-.00781-.0078-.00781-.0156-2.17969-2.6094-3.71094-5.7735-3.71094-9.4141z"/></svg>