<svg viewBox="0 0 48 48" xmlns="http://www.w3.org/2000/svg"><path d="m17.0011 30.0003c7.1815 0 13.0005-4.9252 13.0005-11.0004s-5.819-11.00039-13.0005-11.00039c-7.18147 0-13.00042 4.92519-13.00042 11.00039 0 2.4126.91879 4.6439 2.47509 6.4627-.21876.5875-.54377 1.1063-.88753 1.5438-.30001.3875-.60627.6875-.83128.8938-.1125.1-.20626.1812-.26876.2312-.03125.025-.05625.0438-.06875.05l-.0125.0125c-.34376.2563-.49377.7063-.35626 1.1126.1375.4062.51876.6938.95003.6938 1.36254 0 2.73759-.3501 3.88138-.7813.57502-.2188 1.11254-.4625 1.5813-.7125 1.9188.95 4.1501 1.4938 6.5377 1.4938zm15.0005-11.0004c0 7.019-6.1939 12.3067-13.5317 12.9379 1.5188 4.6502 6.5565 8.0628 12.5317 8.0628 2.3876 0 4.6189-.5438 6.544-1.4938.4687.25 1 .4938 1.575.7125 1.1438.4313 2.5189.7813 3.8814.7813.4313 0 .8188-.2813.95-.6938.1313-.4125-.0125-.8625-.3625-1.1188l-.0125-.0125c-.0125-.0125-.0375-.025-.0687-.05-.0625-.05-.1563-.125-.2688-.2312-.225-.2063-.5313-.5063-.8313-.8938-.3437-.4375-.6687-.9625-.8875-1.5438 1.5563-1.8126 2.4751-4.0439 2.4751-6.4627 0-5.8002-5.3064-10.5566-12.0379-10.9691.025.3187.0375.6437.0375.9687z"/></svg>