<svg fill="none" height="48" viewBox="0 0 48 48" width="48" xmlns="http://www.w3.org/2000/svg"><path d="m44 22.75c0 8.9761-8.9526 16.2491-19.9988 16.2491-2.8983 0-5.6482-.5-8.1324-1.3984-.9296.6797-2.4452 1.6093-4.2419 2.3905-1.87492.8125-4.1326 1.5077-6.37466 1.5077-.50778 0-.96088-.3046-1.15618-.7733-.1953-.4688-.08593-1 .26561-1.3593l.02344-.0235c.02343-.0234.05468-.0547.10155-.1093.08594-.0938.21874-.2422.38279-.4453.3203-.3906.74996-.9687 1.18744-1.6874.7812-1.2968 1.52334-2.9999 1.67177-4.9138-2.34361-2.6561-3.72634-5.9137-3.72634-9.437 0-8.976 8.95258-16.24902 19.99888-16.24902 11.0462 0 19.9988 7.27302 19.9988 16.24902z" fill="#475569"/></svg>