<svg viewBox="0 0 48 48" xmlns="http://www.w3.org/2000/svg"><path d="m8.44444 8.44434c-2.45138 0-4.44444 1.99306-4.44444 4.44446v2.2222h40v-2.2222c0-2.4514-1.9931-4.44446-4.4444-4.44446zm35.55556 13.33336h-40v13.3333c0 2.4514 1.99306 4.4444 4.44444 4.4444h31.11116c2.4513 0 4.4444-1.993 4.4444-4.4444zm-32.2222 8.8889h4.4444c.6111 0 1.1111.5 1.1111 1.1111s-.5 1.1111-1.1111 1.1111h-4.4444c-.6111 0-1.1111-.5-1.1111-1.1111s.5-1.1111 1.1111-1.1111zm7.7778 1.1111c0-.6111.5-1.1111 1.1111-1.1111h8.8889c.6111 0 1.1111.5 1.1111 1.1111s-.5 1.1111-1.1111 1.1111h-8.8889c-.6111 0-1.1111-.5-1.1111-1.1111z"/></svg>