<svg viewBox="0 0 48 48" xmlns="http://www.w3.org/2000/svg"><g><path d="m1.94561 5.05462c-.5175-.405-1.275-.315-1.6875.2025-.405.5175-.3150004 1.275.2025 1.6875l45.59249 35.99248c.525.4125 1.275.33 1.6875-.195s.3225-1.275-.195-1.6875z"/><path d="m41.7778 15.1109h-23.0595l2.8148 2.2222h20.2447v4.4445h-14.6151l2.8149 2.2222h11.8002v9.316l2.2222 1.7544v-22.1815c0-2.4514-1.9931-4.44445-4.4444-4.44445h-29.2817l2.8148 2.22225h26.4669c1.2291 0 2.2222.993 2.2222 2.2222z"/><path d="m4 35.1109v-22.1871l2.22222 1.7543v.4328h.54825l2.81494 2.2222h-3.36319v4.4445h8.99308l2.8149 2.2222h-11.80798v11.1111c0 1.2292.99306 2.2222 2.22222 2.2222h26.47546l2.8149 2.2223h-29.29036c-2.45138 0-4.44444-1.9931-4.44444-4.4445z"/><path d="m26.475 30.6665h-5.8083c-.6111 0-1.1111.5-1.1111 1.1111s.5 1.1111 1.1111 1.1111h8.6233z"/><path d="m10.6667 31.7776c0-.6111.5-1.1111 1.1111-1.1111h4.4444c.6111 0 1.1111.5 1.1111 1.1111s-.5 1.1111-1.1111 1.1111h-4.4444c-.6111 0-1.1111-.5-1.1111-1.1111z"/></g></svg>