<svg viewBox="0 0 48 48" xmlns="http://www.w3.org/2000/svg"><path d="m8.44444 10.6666c-1.22916 0-2.22222.993-2.22222 2.2222v2.2222h35.55558v-2.2222c0-1.2292-.9931-2.2222-2.2222-2.2222zm-2.22222 6.6666v4.4445h35.55558v-4.4445zm0 6.6667v11.1111c0 1.2292.99306 2.2222 2.22222 2.2222h31.11116c1.2291 0 2.2222-.993 2.2222-2.2222v-11.1111zm-2.22222-11.1111c0-2.4514 1.99306-4.44446 4.44444-4.44446h31.11116c2.4513 0 4.4444 1.99306 4.4444 4.44446v22.2222c0 2.4514-1.9931 4.4444-4.4444 4.4444h-31.11116c-2.45138 0-4.44444-1.993-4.44444-4.4444zm6.6667 18.8889c0-.6111.5-1.1111 1.1111-1.1111h4.4444c.6111 0 1.1111.5 1.1111 1.1111s-.5 1.1111-1.1111 1.1111h-4.4444c-.6111 0-1.1111-.5-1.1111-1.1111zm8.8889 0c0-.6111.5-1.1111 1.1111-1.1111h8.8889c.6111 0 1.1111.5 1.1111 1.1111s-.5 1.1111-1.1111 1.1111h-8.8889c-.6111 0-1.1111-.5-1.1111-1.1111z"/></svg>