<svg viewBox="0 0 48 48" xmlns="http://www.w3.org/2000/svg"><g><path d="m2.91006 5.18248c-.78-.615-1.912505-.4725-2.527505.3075s-.4724996 1.9125.3075 2.5275l44.400045 34.80002c.78.615 1.9125.4725 2.5275-.3075s.4725-1.9125-.3075-2.5275l-3.7516-2.9404c.2829-.5842.4415-1.2394.4415-1.931v-13.3333h-19.9166l-8.5058-6.6667h28.4224v-2.2222c0-2.4514-1.9931-4.44446-4.4444-4.44446h-31.11116c-.4057 0-.79885.05459-1.1725.15682z"/><path clip-rule="evenodd" d="m13.1428 21.7778h-9.1428v13.3333c0 2.4514 1.99306 4.4445 4.44444 4.4445h27.38036l-8.5057-6.6667h-6.6524c-.6111 0-1.1111-.5-1.1111-1.1111s.5-1.1111 1.1111-1.1111h3.8171zm3.0794 8.8889h-4.4444c-.6111 0-1.1111.5-1.1111 1.1111s.5 1.1111 1.1111 1.1111h4.4444c.6111 0 1.1111-.5 1.1111-1.1111s-.5-1.1111-1.1111-1.1111z" fill-rule="evenodd"/></g></svg>