<svg viewBox="0 0 48 48" xmlns="http://www.w3.org/2000/svg"><path d="m24.5535 6.56919c4.5041 0 8.6229 1.65392 11.7782 4.39171l-8.4061 8.4061-4.5603-12.76569c.3934-.02409.7948-.04015 1.1882-.04015zm13.5927 6.20621c1.3648 1.5736 2.4567 3.3881 3.2114 5.3632.1205.3131.0562.5941-.1204.835-.1927.2489-.5299.4415-.9474.4415h-8.7834zm-9.209 9.2089h11.3526c2.3605 0 4.4319-2.248 3.4684-4.761-2.9465-7.73165-10.4293-13.2233-19.2047-13.2233-11.3526 0-20.5535 9.2009-20.5535 20.5535 0 8.7754 5.49165 16.2582 13.2233 19.2047 2.513.9635 4.761-1.1079 4.761-3.4603v-11.3527l.1686-.1686 1.1.4737c.9634.4175 2.0874.2008 2.8261-.5459l2.6655-2.6656c.6985-.6985.9394-1.7422.6022-2.6815l-.4657-1.3087.0642-.0643zm-9.3294 5.7004-8.6469 8.647c-2.73779-3.1553-4.39171-7.2741-4.39171-11.7782 0-.8109.0562-1.6057.16058-2.3925zm-6.8324 10.4615 6.6397-6.6398v8.7834c0 .4095-.1926.7467-.4415.9474-.2409.1847-.5219.2409-.835.1204-1.9831-.7547-3.7896-1.8546-5.3632-3.2114zm-5.51574-18.5464c1.81449-6.3347 7.00904-11.2402 13.50434-12.62917l.008.03211 6.15 17.22166-2.6655 2.6655-16.99684-7.2821z"/></svg>