<svg viewBox="0 0 48 48" xmlns="http://www.w3.org/2000/svg"><path d="m23.3016 4.02381c.3333-.01587.6746-.02381 1.0158-.02381 4.9286 0 9.4365 1.75397 12.9603 4.66666l-8.3095 8.30154zm-3.9048.57936 8.4206 19.22223c.3492.8016.1746 1.746-.4444 2.365l-1.0714 1.0635c-.6508.6508-1.6429.8096-2.4683.3969l-18.88092-9.5c2.12698-6.6746 7.59522-11.84922 14.44442-13.54763zm-15.26982 17.39683 13.17462 6.6349-8.64288 8.6428c-2.90475-3.5238-4.65872-8.0317-4.65872-12.9603 0-.7857.04762-1.5555.12698-2.3174zm7.23012 17.9682 9.5318-9.5317.8888.4444v10.7222c0 1.5238-1.3492 2.7222-2.8174 2.3175-2.8254-.7699-5.4048-2.1349-7.5952-3.9524zm19.7222-18.1905-.4682-1.0634 9.3571-9.3572c1.8175 2.1905 3.1825 4.7699 3.9524 7.5953.4047 1.4761-.7937 2.8174-2.3175 2.8174h-10.5238z"/></svg>