<svg fill="none" height="41" viewBox="0 0 40 41" width="40" xmlns="http://www.w3.org/2000/svg"><path d="m2.50881 38.6016c-.0879.7422.49317 1.3961 1.24543 1.3961l2.50493.005c.63483 0 1.1884-.4557 1.26653-1.0805.05861-.3808.14603-.8726.273-1.4195h24.3774c.1269.5371.2269 1.0398.2757 1.4203.0879.5547.6126 1.0891 1.2478 1.0797l2.5362-.0049c.752 0 1.3376-.6542 1.2493-1.3961-.3614-2.9586-2.0119-10.0078-9.3056-16.2265-1.3673.9664-2.8893 1.9039-4.5692 2.7726.4883.3613.9032.7348 1.333 1.1055h-9.966c1.6603-1.4156 3.6745-2.7836 6.1451-4.0141 13.4466-6.6797 15.9156-17.09374 16.3688-20.83592.0879-.742191-.492-1.39687863-1.2439-1.39687863l-2.526-.00625c-.6348 0-1.1595.45562463-1.247 1.08046863-.0586.38086-.146.87266-.2632 1.41953h-24.41891c-.1172-.54695-.20783-1.03055-.26643-1.42117-.08751-.624766-.61334-1.08859425-1.24778-1.07882863l-2.52056.01037503c-.75202 0-1.33528.6526566-1.24699 1.3945336.40043 3.34922 2.44476 12.01564 12.49337 18.60154-10.03923 6.5794-12.09451 15.2435-12.49499 18.595zm17.48459-21.4375c-1.9612-1.0781-3.6176-2.2187-5.0161-3.414h10.04c-1.3908 1.1953-3.0628 2.3515-5.0239 3.414zm10.251-9.66403c-.4591.81016-1.0064 1.65-1.6408 2.42969h-17.2673c-.6446-.84922-1.1954-1.68984-1.64471-2.5zm-20.47858 24.92973c.45898-.8102.99538-1.6508 1.63058-2.5h17.1423c.6544.8492 1.2095 1.6898 1.6588 2.5z" fill="#475569"/></svg>