<svg fill="none" height="48" viewBox="0 0 48 48" width="48" xmlns="http://www.w3.org/2000/svg"><path d="m6.51003 42.5989c-.08789.7422.49314 1.396 1.24534 1.396l2.50473.005c.6348 0 1.1883-.4557 1.2665-1.0804.0586-.3808.146-.8726.2729-1.4194h24.3757c.127.537.2269 1.0397.2757 1.4202.0879.5546.6125 1.089 1.2477 1.0796l2.536-.0049c.752 0 1.3375-.6542 1.2493-1.396-.3614-2.9584-2.0118-10.0071-9.305-16.2254-1.3672.9663-2.8891 1.9038-4.5689 2.7724.4883.3613.9032.7348 1.3329 1.1054h-9.9653c1.6602-1.4155 3.6743-2.7834 6.1447-4.0137 13.4457-6.6793 15.9145-17.0926 16.3676-20.83452.0879-.74214-.4919-1.39678-1.2438-1.39678l-2.5258-.00625c-.6348 0-1.1594.45559-1.2469 1.08039-.0586.38084-.146.8726-.2632 1.41944h-24.4172c-.1172-.54692-.2078-1.03048-.2664-1.42108-.0875-.62472-.6133-1.08851-1.2477-1.07875l-2.52035.01038c-.75197 0-1.33519.65261-1.2469 1.39443.4004 3.34898 2.44459 12.01474 12.49255 18.60024-10.03858 6.5789-12.09372 15.2424-12.49417 18.5937zm17.48337-21.436c-1.961-1.078-3.6173-2.2186-5.0158-3.4138h10.0393c-1.3906 1.1952-3.0625 2.3514-5.0235 3.4138zm10.2502-9.6634c-.459.8101-1.0062 1.6499-1.6406 2.4296h-17.2661c-.6446-.8492-1.1954-1.6898-1.6446-2.4999zm-20.4771 24.928c.459-.8101.9954-1.6507 1.6305-2.4998h17.1411c.6543.8491 1.2094 1.6897 1.6587 2.4998z" fill="#475569"/></svg>