<svg viewBox="0 0 48 48" xmlns="http://www.w3.org/2000/svg"><g><path clip-rule="evenodd" d="m27.1033 7.37507-1.6043 9.63243 7.7782 4.4447.3542-2.1182h4.8128c3.0696 0 5.5558-2.4862 5.5558-5.5558v-1.6668c0-.9236-.7431-1.6667-1.6668-1.6667h-3.889l-1.2501-1.24314c-.625-.62504-1.4723-.97922-2.3543-.97922h-3.6183l-1.1736-1.56258c-.3125-.41669-.7987-.65976-1.3195-.65976-.8056 0-1.4932.58336-1.6251 1.37507zm8.7931 3.39503c.2083.2084.3254.491.3254.7857s-.1171.5774-.3254.7858c-.2084.2083-.4911.3254-.7858.3254s-.5773-.1171-.7857-.3254c-.2084-.2084-.3254-.4911-.3254-.7858s.117-.5773.3254-.7857.491-.3254.7857-.3254.5774.117.7858.3254z" fill-rule="evenodd"/><path d="m32.8883 26.4936v-2.7079l-7.7921-4.4517h-14.2924c-1.02088 0-1.90981-.6944-2.15288-1.6806l-.27085-1.0765c-.29863-1.1945-1.50008-1.9167-2.69459-1.6181-1.1945.2986-1.91676 1.507-1.61814 2.6946l.26391 1.0764c.54169 2.1668 2.11122 3.8614 4.11132 4.6183v15.987c0 1.2292.99311 2.2223 2.22233 2.2223h2.2224c1.2292 0 2.2223-.9931 2.2223-2.2223v-8.0004c1.6667.8542 3.5557 1.3334 5.5558 1.3334s3.8891-.4792 5.5559-1.3334v2.563c.7472-3.4923 3.3177-6.3085 6.667-7.4041z"/><path d="m27.5684 41.379c-.6313-.9875-1.0939-2.0933-1.3471-3.2767v1.2328c0 .9183.5542 1.7048 1.3471 2.0439z"/><path clip-rule="evenodd" d="m36 44.0001c4.4183 0 8-3.5817 8-8s-3.5817-8-8-8c-4.4182 0-8 3.5817-8 8s3.5818 8 8 8zm-1.9393-12.0606c-.5858-.5858-1.5355-.5858-2.1213 0-.5858.5857-.5858 1.5355 0 2.1213l1.9393 1.9393-1.9393 1.9394c-.5858.5857-.5858 1.5355 0 2.1213s1.5355.5858 2.1213 0l1.9393-1.9394 1.9394 1.9394c.5858.5858 1.5355.5858 2.1213 0s.5858-1.5356 0-2.1213l-1.9393-1.9394 1.9393-1.9393c.5858-.5858.5858-1.5356 0-2.1213-.5858-.5858-1.5355-.5858-2.1213 0l-1.9394 1.9393z" fill-rule="evenodd"/></g></svg>