<svg viewBox="0 0 48 48" xmlns="http://www.w3.org/2000/svg"><g><path clip-rule="evenodd" d="m27.1033 7.37507-1.6043 9.63243 7.7782 4.4447.3542-2.1182h4.8127c3.0697 0 5.5559-2.4862 5.5559-5.5558v-1.6668c0-.9236-.7431-1.6667-1.6668-1.6667h-3.8891l-1.25-1.24314c-.6251-.62504-1.4723-.97922-2.3543-.97922h-3.6183l-1.1736-1.56258c-.3125-.41669-.7987-.65976-1.3195-.65976-.8056 0-1.4932.58336-1.6251 1.37507zm8.7931 3.39503c.2083.2084.3254.491.3254.7857s-.1171.5774-.3254.7858c-.2084.2083-.4911.3254-.7858.3254s-.5773-.1171-.7857-.3254c-.2084-.2084-.3254-.4911-.3254-.7858s.117-.5773.3254-.7857.491-.3254.7857-.3254.5774.117.7858.3254z" fill-rule="evenodd"/><path d="m32.8883 26.4935v-2.7078l-7.7921-4.4517h-14.2924c-1.02088 0-1.90982-.6944-2.15288-1.6806l-.27085-1.0765c-.29863-1.1945-1.50008-1.9167-2.69459-1.6181s-1.91677 1.507-1.61814 2.6946l.2639 1.0764c.5417 2.1668 2.11123 3.8614 4.11133 4.6183v15.987c0 1.2292.99311 2.2223 2.22233 2.2223h2.2223c1.2293 0 2.2224-.9931 2.2224-2.2223v-8.0004c1.6667.8542 3.5557 1.3334 5.5558 1.3334s3.8891-.4792 5.5559-1.3334v2.5629c.7472-3.4923 3.3177-6.3085 6.667-7.4041z"/><path d="m27.5685 41.3791c-.6314-.9876-1.094-2.0934-1.3472-3.2769v1.2329c0 .9183.5542 1.7048 1.3472 2.044z"/><path clip-rule="evenodd" d="m36 44c4.4183 0 8-3.5817 8-8 0-4.4182-3.5817-8-8-8-4.4182 0-8 3.5818-8 8 0 4.4183 3.5818 8 8 8zm5.0607-8.9393c.5858-.5858.5858-1.5355 0-2.1213s-1.5355-.5858-2.1213 0l-3.9394 3.9393-1.9393-1.9393c-.5858-.5858-1.5355-.5858-2.1213 0s-.5858 1.5355 0 2.1213l3 3c.5858.5858 1.5355.5858 2.1213 0z" fill-rule="evenodd"/></g></svg>