<svg viewBox="0 0 48 48" xmlns="http://www.w3.org/2000/svg"><path d="m25.499 17.0075 1.6043-9.63243c.1319-.79171.8195-1.37507 1.6251-1.37507.5208 0 1.007.24307 1.3195.65976l1.1736 1.56258h3.6183c.882 0 1.7293.35418 2.3543.97922l1.2501 1.24314h3.889c.9237 0 1.6668.7431 1.6668 1.6667v1.6668c0 3.0696-2.4862 5.5558-5.5558 5.5558h-2.2224-1.1112-1.4792l-.3542 2.1182zm7.3893 6.7782v15.5494c0 1.2292-.9931 2.2223-2.2223 2.2223h-2.2224c-1.2292 0-2.2223-.9931-2.2223-2.2223v-8.0004c-1.6668.8542-3.5558 1.3334-5.5559 1.3334s-3.8891-.4792-5.5558-1.3334v8.0004c0 1.2292-.9931 2.2223-2.2224 2.2223h-2.2223c-1.22922 0-2.22233-.9931-2.22233-2.2223v-15.987c-2.0001-.7569-3.56963-2.4515-4.11133-4.6183l-.2639-1.0764c-.29863-1.1876.42363-2.396 1.61814-2.6946s2.39596.4236 2.69459 1.6181l.27085 1.0765c.24306.9862 1.132 1.6806 2.15288 1.6806h2.0834 1.1112 11.0978zm3.3335-12.2299c0-.2947-.1171-.5773-.3254-.7857-.2084-.2084-.4911-.3254-.7858-.3254s-.5773.117-.7857.3254-.3254.491-.3254.7857.117.5774.3254.7858c.2084.2083.491.3254.7857.3254s.5774-.1171.7858-.3254c.2083-.2084.3254-.4911.3254-.7858z"/></svg>