<svg viewBox="0 0 48 48" xmlns="http://www.w3.org/2000/svg"><path d="m26.4224 30.493c.5695.4167.9097 1.0833.9097 1.7917v5.6041c0 .9236.7431 1.6667 1.6667 1.6667h1.1111c.9236 0 1.6667-.7431 1.6667-1.6667v-13.4791h-.007l-6.4097-3.7431c-.0208 0-.0486 0-.0694 0h-10.1806-1.6666-2.7778v17.2222c0 .9236.743 1.6667 1.6666 1.6667h1.1112c.9236 0 1.6666-.7431 1.6666-1.6667v-5.6041c0-.7084.3403-1.375.9097-1.7917.5695-.4167 1.3125-.5417 1.9862-.3194 1.0069.3194 2.0902.5 3.2152.5s2.2014-.1737 3.2153-.5c.6736-.2153 1.4167-.0973 1.9861.3194zm5.757-9.0764c.1805-1.0694 1.1041-1.8542 2.1944-1.8542h2.9583c2.4514 0 4.4445-1.993 4.4445-4.4444v-1.1181c0-.6111-.5-1.1111-1.1111-1.1111h-2.2222c-.5903 0-1.1528-.2361-1.5695-.6527l-1.25-1.2431c-.2083-.2083-.493-.3264-.7847-.3264h-3.0625c-.7014 0-1.3611-.3264-1.7778-.88888l-.8264-1.09722-1.6875 10.1319c-.0278.1598-.0694.3056-.125.4514l4.7153 2.75.0972-.5972zm-25.01392-4.1319c.61805.7222 1.52778 1.1597 2.52778 1.1597h.97224 2.7778 1.6666 10.1875l1.75-10.50001c.1597-.99306 1.0209-1.72222 2.0347-1.72222.6459 0 1.257.30555 1.6528.82639l1.0417 1.39583h3.0625c.8819 0 1.7292.35417 2.3542.97917l1.25 1.24304h2.2222c1.8403 0 3.3333 1.4931 3.3333 3.3333v1.1112c0 3.6805-2.9861 6.6666-6.6667 6.6666h-2.9652l-.3681 2.2222v13.8889c0 2.1459-1.743 3.8889-3.8889 3.8889h-1.1111c-2.1458 0-3.8889-1.743-3.8889-3.8889v-3.2847-2.3194c-.7153.2291-1.4583.3958-2.2222.493-.5486.0695-1.1042.1111-1.6667.1111s-1.118-.0347-1.6666-.1111c-.7639-.0972-1.507-.2639-2.2223-.493v2.3125 3.2916c0 2.1459-1.743 3.8889-3.8888 3.8889h-1.1112c-2.1458 0-3.88884-1.743-3.88884-3.8889v-17.2222c0-.0486 0-.0972.00694-.1389-.04861-.0139-.09722-.0208-.14583-.0347-1.9375-.5-3.49306-2.0208-4-4.0347l-.27084-1.0764c-.14583-.5972.21528-1.2014.80556-1.3472.59028-.1459 1.20139.2152 1.34722.8055l.27084 1.0764c.02083.0972.05555.1875.08333.2847.13889.4028.35417.7709.625 1.0834zm26.83332-4.3959c.2947 0 .5773.1171.7857.3255.2084.2083.3254.491.3254.7856 0 .2947-.117.5773-.3254.7857s-.491.3255-.7857.3255-.5773-.1171-.7857-.3255c-.2083-.2084-.3254-.491-.3254-.7857 0-.2946.1171-.5773.3254-.7856.2084-.2084.491-.3255.7857-.3255z"/></svg>