<svg viewBox="0 0 48 48" xmlns="http://www.w3.org/2000/svg"><g><path clip-rule="evenodd" d="m27.1033 7.37507-1.6043 9.63243 7.7782 4.4447.3542-2.1182h4.8127c3.0697 0 5.5559-2.4862 5.5559-5.5558v-1.6668c0-.9236-.7431-1.6667-1.6668-1.6667h-3.8891l-1.25-1.24314c-.625-.62504-1.4723-.97922-2.3543-.97922h-3.6183l-1.1736-1.56258c-.3125-.41669-.7987-.65976-1.3195-.65976-.8056 0-1.4932.58336-1.6251 1.37507zm8.7931 3.39503c.2083.2084.3254.491.3254.7857s-.1171.5774-.3254.7858c-.2084.2083-.4911.3254-.7858.3254s-.5773-.1171-.7857-.3254c-.2084-.2084-.3254-.4911-.3254-.7858s.117-.5773.3254-.7857.491-.3254.7857-.3254.5774.117.7858.3254z" fill-rule="evenodd"/><path d="m32.8883 26.4936v-2.7079l-7.7921-4.4517h-14.2924c-1.02088 0-1.90982-.6944-2.15288-1.6806l-.27085-1.0765c-.29863-1.1945-1.50008-1.9167-2.69459-1.6181s-1.91676 1.507-1.61814 2.6946l.2639 1.0764c.5417 2.1668 2.11123 3.8614 4.11133 4.6183v15.987c0 1.2292.99311 2.2223 2.22233 2.2223h2.2223c1.2293 0 2.2224-.9931 2.2224-2.2223v-8.0004c1.6667.8542 3.5557 1.3334 5.5558 1.3334s3.8891-.4792 5.5559-1.3334v2.5629c.7472-3.4922 3.3178-6.3084 6.667-7.404z"/><path d="m27.5684 41.379c-.6313-.9875-1.0939-2.0932-1.3471-3.2766v1.2327c0 .9183.5542 1.7048 1.3471 2.0439z"/><path d="m28 36.0001c0-4.4166 3.5834-8 8-8 4.4167 0 8 3.5834 8 8 0 4.4167-3.5833 8-8 8-4.4166 0-8-3.5833-8-8zm8 5.3334c.7389 0 1.3334-.5945 1.3334-1.3334s-.5945-1.3333-1.3334-1.3333-1.3333.5944-1.3333 1.3333.5944 1.3334 1.3333 1.3334zm-3.5555-7.5556c0 .4889.4.8889.8889.8889s.8889-.4.8889-.8889v-.3556c0-.2944.2388-.5333.5333-.5333h2.25c.4278 0 .7722.3445.7722.7722 0 .2889-.1611.55-.4111.6889l-1.7778.9334c-.2944.1555-.4778.4555-.4778.7833v.8222c0 .4889.4.8889.8889.8889s.8889-.4.8889-.8889v-.2833l1.3056-.6834c.8389-.4444 1.3611-1.3611 1.3611-2.2611 0-1.4055-1.1445-2.55-2.55-2.55h-2.25c-1.2778 0-2.3111 1.0334-2.3111 2.3111z"/></g></svg>