<svg viewBox="0 0 48 48" xmlns="http://www.w3.org/2000/svg"><path d="m28.045 15.0797-.5096 1.4084c-.7029 1.6451-1.8253 3.139-3.2443 4.2357-1.6358 1.2657-2.2899 1.2225-3.8477 2.045-1.6227.8563-3.0876 2.0357-4.2223 3.4845-1.3542 1.7295-2.273 3.9295-2.5883 6.1032-.2271 1.5624-.1548 5.6478-.1342 7.4177.0272 2.2911 1.8056 4.2216 4.1293 4.2254h10.0417c0-.5897.0714-2.3662-.1079-2.8169-.1117-.2826-.2768-.4695-.5509-.6038-.8972-.4413-2.7769.2169-3.5596-.4554-.5612-.4816-.4458-1.107-.6129-1.7577-.2074-.8084-.6034-1.4094-1.2688-1.922-.4504-.3474-.9497-.5212-1.5015-.631-.6983-.139-1.5204-.1193-1.7259-1.015-.1276-.5578.3857-1.0864.8812-1.2394.4974-.1531 1.4753.092 1.9708.2553 1.8639.6141 3.5437 2.3972 3.8478 4.3643.7461 0 1.5278-.0582 2.2523.1399.3595.0977.7302.2808 1.0324.4977 1.8844 1.3493 1.5954 3.1614 1.5954 5.184h1.5954v-16.6196c.0009-.7239.1661-1.6234 1.0323-1.7859.7686-.1436 1.2107.661 1.22 1.3164v17.0891h5.7248c.1961 0 .4711.0084.6569-.0479.8737-.2658.7517-1.2104.7508-1.924-.0019-1.4938-.793-2.5004-2.3462-2.5351v-9.6713c0-.246-.0103-.5145.061-.7512l.9657-2.0657c.534-1.4103.8671-3.1868.8502-4.6947-.0122-1.0047-.2336-2.3183-.5096-3.2864-.1379-.4845-.5649-1.4188-.4439-1.8779.0779-.2939.2778-.5362.488-.7474.8512-.8535 1.3777-.5277 2.1548-.7587 1.1759-.3502 1.8629-1.3239 1.8769-2.5314v-3.38026c0-.22817.0122-.5399-.0694-.75117-.3322-.85915-1.3495-.74929-2.0891-.75117-.2486-.00093-.5227.01784-.7507-.09577-.3323-.16619-1.4922-1.51547-1.8094-1.87603-1.1478-1.30328-2.0741-2.25068-3.9153-2.2535h-2.6278-1.4077c-1.3054.01596-2.5273.71361-3.264 1.78402-.2309.33521-.4233.74083-.55 1.12675-.1698.51548-.2327.96055-.2205 1.50233.0216.94083.5236 2.2056.8615 3.0986.1652.4356.2862.9417.595 1.2976.6579.7559 2.0112.8451 2.7619.184 1.1056-.9746.4364-2.8018 1.3374-3.58867.7874-.68825 1.7878.06573 1.754.98027l-.1549 1.1268c-.0769.4647-.1773 1.0685-.3481 1.5023-.6345 1.6075-2.1154 2.5652-3.8046 2.6751-.8062.0516-1.5363-.3014-2.2524-.6094zm-15.2033 28.9199c-.4251-.7409-.7855-1.093-1.1337-1.9719-.5115-1.292-.4617-2.2309-.4617-3.568-2.26552 0-4.11338-.1981-5.9115 1.5108-.4486.4272-1.01825 1.1859-1.22472 1.7756-.28248.8093-.02721 1.876.84839 2.1736.26934.0911.56402.0799.84463.0799z"/></svg>