<svg fill="none" height="48" viewBox="0 0 48 48" width="48" xmlns="http://www.w3.org/2000/svg"><g fill="#475569"><path d="m27.5354 16.4883.5096-1.4085c.0586.0252.1172.0506.1759.0762.6601.2868 1.3362.5806 2.0765.5332 1.6893-.1099 3.1702-1.0676 3.8047-2.6751.1708-.4338.2712-1.0376.3481-1.5024l.1549-1.1267c.0338-.91458-.9667-1.66857-1.7541-.9803-.4275.37342-.5015.9812-.5793 1.6209-.0862.7083-.1771 1.4557-.758 1.9678-.7508.6611-2.1041.5719-2.762-.184-.2402-.2768-.3668-.6446-.4889-.9994-.0349-.1013-.0694-.2015-.1061-.2983-.0204-.0539-.0414-.1092-.0628-.1657-.3339-.8788-.7784-2.04883-.7987-2.93285-.0122-.54179.0507-.98686.2205-1.50235.1267-.38592.3191-.79155.55-1.12676.7367-1.07042 1.9586-1.76808 3.2641-1.78404h4.0355c1.8413.00282 2.7676.95023 3.9153 2.25352.03.03404.0674.0769.111.12674.4179.47806 1.3976 1.59881 1.6984 1.74932.1987.09896.4322.09748.6535.09607.0328-.00021.0653-.00042.0973-.0003.075.00019.1528-.00076.2324-.00174.7063-.00869 1.5581-.01918 1.8567.75292.0725.18768.071.45466.0698.67189-.0002.0273-.0003.05381-.0003.07928v3.3803c-.0141 1.2075-.7011 2.1812-1.877 2.5314-.2469.0734-.4685.0906-.6832.1073-.4612.0357-.8908.0691-1.4716.6514-.2102.2113-.4101.4535-.488.7474-.0902.3421.1238.9478.2958 1.4349.0589.1667.1129.3195.1481.4431.2759.968.4974 2.2817.5096 3.2864.0157 1.4025-.2714 3.0373-.7412 4.3937-1.1422-.454-2.3879-.7036-3.6919-.7036-.8146 0-1.6065.0974-2.3646.2812-.1859-.4387-.5591-.7852-1.0856-.6868-.7387.1385-.9676.8131-1.0195 1.4577-3.279 1.6411-5.5303 5.0316-5.5303 8.9479 0 .7473.082 1.4754.2374 2.1759-.2597-.0089-.521-.0051-.7801-.0015-.1393.002-.278.004-.4154.004-.3041-1.9671-1.984-3.7502-3.8478-4.3643-.4955-.1634-1.4734-.4085-1.9708-.2554-.4956.153-1.0089.6817-.8813 1.2394.1748.7617.7954.8615 1.4065.9597.1076.0173.2149.0345.3194.0553.5518.1099 1.0511.2836 1.5016.631.6654.5127 1.0614 1.1136 1.2688 1.9221.0478.1863.0725.3705.0965.5498.0599.4471.1158.8641.5163 1.2079.4292.3686 1.1881.3373 1.934.3065.6146-.0254 1.2204-.0504 1.6257.1489.0493.0242.095.05.1375.0778.147.2788.3068.5498.4786.8123.0736.5271.0582 1.4714.048 2.0974-.0028.1744-.0052.3241-.0052.4332h-10.0419c-2.3237-.0038-4.1021-1.9343-4.1293-4.2253-.0016-.1365-.0035-.2868-.0056-.4486-.0244-1.9365-.0698-5.5273.1398-6.9693.3153-2.1737 1.2341-4.3737 2.5883-6.1033 1.1347-1.4488 2.5996-2.6281 4.2223-3.4845.5483-.2895.9847-.4718 1.3913-.6416.7487-.3127 1.3965-.5832 2.4565-1.4035 1.419-1.0967 2.5414-2.5906 3.2443-4.2356z"/><path d="m29.9221 43.9416c0 .0195-.0001.0389-.0001.0584h.077c-.0257-.0193-.0514-.0388-.0769-.0584z"/><path d="m12.4186 43.3287c.1346.2024.2749.4133.4229.6713h-7.03863c-.02773 0-.0556.0001-.08357.0002-.25503.001-.51834.0021-.76107-.08-.87561-.2977-1.13087-1.3643-.84839-2.1737.20647-.5897.77613-1.3484 1.22473-1.7756 1.62613-1.5455 3.29295-1.5313 5.27253-1.5144.2094.0018.4223.0036.639.0036 0 .1112-.0003.2196-.0007.3257-.0037 1.17-.0065 2.0578.4624 3.2424.2269.5727.459.9218.7108 1.3005z"/><path clip-rule="evenodd" d="m36 44c4.4183 0 8-3.5817 8-8s-3.5817-8-8-8-8 3.5817-8 8 3.5817 8 8 8zm-1.9393-12.0607c-.5858-.5857-1.5356-.5857-2.1214 0-.5857.5858-.5857 1.5356 0 2.1214l1.9394 1.9393-1.9394 1.9393c-.5857.5858-.5857 1.5356 0 2.1214.5858.5857 1.5356.5857 2.1214 0l1.9393-1.9394 1.9393 1.9394c.5858.5857 1.5356.5857 2.1214 0 .5857-.5858.5857-1.5356 0-2.1214l-1.9394-1.9393 1.9394-1.9393c.5857-.5858.5857-1.5356 0-2.1214-.5858-.5857-1.5356-.5857-2.1214 0l-1.9393 1.9394z" fill-rule="evenodd"/></g></svg>