<svg fill="none" height="40" viewBox="0 0 40 40" width="40" xmlns="http://www.w3.org/2000/svg"><path d="m22.5 2.5c0-1.38281-1.1172-2.5-2.5-2.5s-2.5 1.11719-2.5 2.5v18.9609l-5.7344-5.7343c-.9765-.9766-2.56247-.9766-3.53904 0-.97656.9765-.97656 2.5625 0 3.539l10.00004 10c.9765.9766 2.5625.9766 3.539 0l10-10c.9766-.9765.9766-2.5625 0-3.539-.9765-.9766-2.5625-.9766-3.539 0l-5.7266 5.7343zm-17.5 25c-2.75781 0-5 2.2422-5 5v2.5c0 2.7578 2.24219 5 5 5h30c2.7578 0 5-2.2422 5-5v-2.5c0-2.7578-2.2422-5-5-5h-7.9297l-3.539 3.5391c-1.9532 1.9531-5.1172 1.9531-7.0704 0l-3.5312-3.5391zm28.75 8.125c-1.0391 0-1.875-.8359-1.875-1.875s.8359-1.875 1.875-1.875 1.875.8359 1.875 1.875-.8359 1.875-1.875 1.875z" fill="#475569"/></svg>