<svg fill="none" height="48" viewBox="0 0 48 48" width="48" xmlns="http://www.w3.org/2000/svg"><path d="m14.3704 23.9999c0 2.8611-2.3213 5.1852-5.18521 5.1852-2.86389 0-5.18519-2.3241-5.18519-5.1852s2.3213-5.1852 5.18519-5.1852c2.86391 0 5.18521 2.3241 5.18521 5.1852zm14.8148 0c0 2.8611-2.3241 5.1852-5.1852 5.1852s-5.1852-2.3241-5.1852-5.1852 2.3241-5.1852 5.1852-5.1852 5.1852 2.3241 5.1852 5.1852zm4.4444 0c0-2.8611 2.3241-5.1852 5.1852-5.1852s5.1852 2.3241 5.1852 5.1852-2.3241 5.1852-5.1852 5.1852-5.1852-2.3241-5.1852-5.1852z" fill="#475569"/></svg>