<svg fill="none" height="40" viewBox="0 0 40 40" width="40" xmlns="http://www.w3.org/2000/svg"><path d="m12.5 20.625c0 2.4141-1.9586 4.375-4.375 4.375-2.41641 0-4.375-1.9609-4.375-4.375s1.95859-4.375 4.375-4.375c2.4164 0 4.375 1.9609 4.375 4.375zm12.5 0c0 2.4141-1.9609 4.375-4.375 4.375s-4.375-1.9609-4.375-4.375 1.9609-4.375 4.375-4.375 4.375 1.9609 4.375 4.375zm3.75 0c0-2.4141 1.9609-4.375 4.375-4.375s4.375 1.9609 4.375 4.375-1.9609 4.375-4.375 4.375-4.375-1.9609-4.375-4.375z" fill="#475569"/></svg>