<svg viewBox="0 0 48 48" xmlns="http://www.w3.org/2000/svg"><path d="m42.3828 7.38281c.4844-.48437.4844-1.28125 0-1.76562-.4844-.48438-1.2812-.48438-1.7656 0l-5.1563 5.15621c-3.0703-2.66403-7.0781-4.2734-11.4609-4.2734-9.6641 0-17.5 7.8359-17.5 17.5 0 4.3828 1.60937 8.3906 4.2734 11.4609l-5.15621 5.1563c-.48438.4844-.48438 1.2812 0 1.7656.48437.4844 1.28125.4844 1.76562 0l5.15629-5.1562c3.0703 2.664 7.0781 4.2734 11.4609 4.2734 9.6641 0 17.5-7.8359 17.5-17.5 0-4.3828-1.6094-8.3906-4.2734-11.4609zm-8.6953 5.16409-21.1406 21.1406c-2.211-2.6172-3.5469-5.9922-3.5469-9.6875 0-8.2813 6.7187-15 15-15 3.6953 0 7.0703 1.3359 9.6875 3.5469zm-19.375 22.9062 21.1406-21.1406c2.211 2.6172 3.5469 5.9922 3.5469 9.6875 0 8.2812-6.7188 15-15 15-3.6953 0-7.0703-1.3359-9.6875-3.5469z"/></svg>