<svg viewBox="0 0 48 48" xmlns="http://www.w3.org/2000/svg"><path d="m38.0156 13.5195 5.25-5.24997c.9766-.97656.9766-2.5625 0-3.53906-.9765-.97656-2.5625-.97656-3.539 0l-5.2422 5.25c-2.9219-2.1875-6.5547-3.48438-10.4844-3.48438-9.6641 0-17.5 7.83591-17.5 17.50001 0 3.9297 1.29687 7.5625 3.48437 10.4844l-5.24999 5.25c-.97657.9765-.97657 2.5625 0 3.539.97656.9766 2.5625.9766 3.53906 0l5.24996-5.25c2.9219 2.1875 6.5469 3.4844 10.4766 3.4844 9.6641 0 17.5-7.8359 17.5-17.5 0-3.9297-1.2969-7.5625-3.4844-10.4766zm-7.125.0547-17.3203 17.3125c-1.3047-1.9765-2.0703-4.3437-2.0703-6.8906 0-6.9063 5.5938-12.5 12.5-12.5 2.5469 0 4.9141.7656 6.8906 2.0703zm-13.789 20.8594 17.3281-17.3281c1.3047 1.9765 2.0703 4.3437 2.0703 6.8906 0 6.9062-5.5937 12.5-12.5 12.5-2.5469 0-4.9141-.7656-6.8906-2.0703z"/></svg>