<svg viewBox="0 0 48 48" xmlns="http://www.w3.org/2000/svg"><path d="m34.6211 6.5h-21.25c-1.0391 0-1.875.83594-1.875 1.875v13.0078l-1.4453-1.1953c-.32814-.2656-.67971-.4922-1.05471-.6719v-11.1406c0-2.41406 1.96091-4.375 4.37501-4.375h21.25c2.4141 0 4.375 1.96094 4.375 4.375v11.1406c-.375.1797-.7266.4063-1.0469.6719l-1.4531 1.1953v-13.0078c0-1.03906-.8359-1.875-1.875-1.875zm-27.89063 17.5c-.125 0-.23438.1016-.23438.2344v14.7656c0 1.3828 1.11719 2.5 2.5 2.5h30.00001c1.3828 0 2.5-1.1172 2.5-2.5v-14.7656c0-.125-.1016-.2344-.2344-.2344-.0547 0-.1015.0156-.1484.0547l-14.1094 11.5937c-.8437.6954-1.9141 1.0782-3.0078 1.0782-1.0938 0-2.1641-.3828-3.0078-1.0782l-14.11721-11.5937c-.03906-.0313-.09375-.0547-.14843-.0547zm-2.73438.2344c0-1.5078 1.21875-2.7344 2.73438-2.7344.63281 0 1.24219.2187 1.73437.6172l14.10936 11.5937c.3985.3282.9063.5078 1.4219.5078s1.0234-.1796 1.4219-.5078l14.1172-11.5937c.4921-.3985 1.1015-.6172 1.7343-.6172 1.5078 0 2.7344 1.2188 2.7344 2.7344v14.7656c0 2.7578-2.2422 5-5 5h-30.00781c-2.75781 0-5-2.2422-5-5zm21.25001-13.3594v1.3516c.6641.0937 1.3047.2422 1.8828.3984.6641.1797 1.0625.8594.8828 1.5312-.1797.6719-.8594 1.0626-1.5312.8829-.8672-.2344-1.7188-.4063-2.5078-.4141-.6563-.0078-1.3594.1406-1.8438.4297-.4453.2656-.6328.5703-.6328 1 0 .2891.1016.5078.5703.789.5391.3204 1.2969.5547 2.2813.8516l.039.0078c.8828.2656 1.9766.5938 2.836 1.1407.9453.5937 1.75 1.539 1.7734 2.9843.0234 1.5078-.75 2.6016-1.7891 3.25-.6015.375-1.2812.5938-1.9609.711v1.3359c0 .6875-.5625 1.25-1.25 1.25s-1.25-.5625-1.25-1.25v-1.3906c-.875-.1641-1.6953-.4453-2.4141-.6953-.164-.0547-.3281-.1094-.4843-.1641-.6563-.2187-1.0079-.9297-.7891-1.5781.2187-.6485.9297-1.0078 1.5781-.7891.1953.0625.375.125.5547.1875 1.0625.3594 1.9219.6563 2.8359.6797.711.0234 1.3985-.1328 1.8516-.4141.3984-.25.6172-.5703.6094-1.0937-.0078-.3594-.1406-.6094-.6016-.9063-.5312-.3359-1.289-.5781-2.2656-.875l-.125-.039c-.8594-.2578-1.8984-.5703-2.7188-1.0703-.9375-.5625-1.7656-1.4766-1.7734-2.9141-.0078-1.5156.8438-2.5625 1.8594-3.1641.5859-.3437 1.2344-.5625 1.8828-.6797v-1.3437c0-.6875.5625-1.25 1.25-1.25s1.25.5625 1.25 1.25z"/></svg>