<svg viewBox="0 0 48 48" xmlns="http://www.w3.org/2000/svg"><path d="m20.8281 11.5h-5.5781-2.8281-.9219v.6875 3.0625 3.1562 6.9532l-7.48437-5.5391c.125-1.4141.85156-2.7266 2.00781-3.5781l1.72656-1.2813v-3.4609c0-2.07031 1.67969-3.75 3.75-3.75h5.9844l3.8984-2.88281c.7578-.5625 1.6719-.86719 2.6172-.86719s1.8594.30469 2.6172.85938l3.8984 2.89062h5.9844c2.0703 0 3.75 1.67969 3.75 3.75v3.4609l1.7266 1.2813c1.1562.8515 1.8828 2.164 2.0078 3.5781l-7.4844 5.5391v-6.9532-3.1562-3.0625-.6875h-.9219-2.8281-5.5781-6.3516zm-16.8281 27.5v-16.0859l17 12.5937c.8672.6406 1.9219.9922 3 .9922s2.1328-.3438 3-.9922l17-12.5937v16.0859c0 2.7578-2.2422 5-5 5h-30c-2.75781 0-5-2.2422-5-5zm21.5625-24.375v1.0859c.5859.0938 1.1406.2266 1.6484.3672.836.2188 1.3282 1.0782 1.1094 1.9141-.2187.8359-1.0781 1.3281-1.9141 1.1094-.8593-.2266-1.6874-.3907-2.4374-.4063-.6172-.0078-1.25.1406-1.6797.3906-.375.2188-.4844.4375-.4844.7266 0 .1406.0078.2734.414.5234.4922.2969 1.211.5235 2.211.8204l.0547.0156c.875.2656 2 .6015 2.8984 1.1719 1.0078.6328 1.8984 1.664 1.9219 3.2499.0234 1.6329-.8203 2.8204-1.9375 3.5157-.5625.3515-1.1875.5703-1.8125.7031v1.0781c0 .8594-.7031 1.5625-1.5625 1.5625s-1.5625-.7031-1.5625-1.5625v-1.1406c-.8047-.1719-1.5625-.4297-2.2031-.6562-.1641-.0547-.3203-.1094-.4766-.1641-.8203-.2734-1.2578-1.1563-.9844-1.9766.2735-.8203 1.1563-1.2578 1.9766-.9843.1953.0625.3828.1328.5625.1875 1.0625.3593 1.875.6328 2.7422.664.6719.0235 1.289-.125 1.6719-.3672.3203-.1953.4687-.4297.4609-.8203 0-.2266-.0625-.3906-.4609-.6406-.4922-.3125-1.2032-.5391-2.1876-.836l-.1328-.039c-.8515-.2578-1.9218-.5781-2.7812-1.0938-.9922-.6015-1.9219-1.6015-1.9297-3.1796-.0078-1.6485.9219-2.7891 2.0156-3.4297.5391-.3204 1.1328-.5313 1.7344-.6641v-1.0938c0-.8593.7031-1.5624 1.5625-1.5624s1.5625.7031 1.5625 1.5624z"/></svg>