<svg viewBox="0 0 48 48" xmlns="http://www.w3.org/2000/svg"><path d="m16.8571 4c.7858 0 1.4286.64286 1.4286 1.42857 0 .78572-.6428 1.42857-1.4286 1.42857h-9.99996v9.99996c0 .7858-.64285 1.4286-1.42857 1.4286-.78571 0-1.42857-.6428-1.42857-1.4286v-11.42853c0-.78571.64286-1.42857 1.42857-1.42857zm-12.8571 27.1429c0-.7858.64286-1.4286 1.42857-1.4286.78572 0 1.42857.6428 1.42857 1.4286v10h9.99996c.7858 0 1.4286.6428 1.4286 1.4285s-.6428 1.4286-1.4286 1.4286h-11.42853c-.78571 0-1.42857-.6429-1.42857-1.4286zm38.5714-27.1429c.7857 0 1.4286.64286 1.4286 1.42857v11.42853c0 .7858-.6429 1.4286-1.4286 1.4286s-1.4285-.6428-1.4285-1.4286v-9.99996h-10c-.7858 0-1.4286-.64285-1.4286-1.42857 0-.78571.6428-1.42857 1.4286-1.42857zm-1.4285 27.1429c0-.7858.6428-1.4286 1.4285-1.4286s1.4286.6428 1.4286 1.4286v11.4285c0 .7857-.6429 1.4286-1.4286 1.4286h-11.4285c-.7858 0-1.4286-.6429-1.4286-1.4286s.6428-1.4285 1.4286-1.4285h10z"/></svg>