<svg viewBox="0 0 48 48" xmlns="http://www.w3.org/2000/svg"><path d="m6.85714 3.85718c-1.58035 0-2.85714 1.27678-2.85714 2.85714v8.57138c0 1.5804 1.27679 2.8572 2.85714 2.8572 1.58036 0 2.85715-1.2768 2.85715-2.8572v-5.71424h5.71431c1.5803 0 2.8571-1.27678 2.8571-2.85714s-1.2768-2.85714-2.8571-2.85714zm2.85715 28.57142c0-1.5804-1.27679-2.8571-2.85715-2.8571-1.58035 0-2.85714 1.2767-2.85714 2.8571v8.5714c0 1.5804 1.27679 2.8572 2.85714 2.8572h8.57146c1.5803 0 2.8571-1.2768 2.8571-2.8572 0-1.5803-1.2768-2.8571-2.8571-2.8571h-5.71431zm22.85711-28.57142c-1.5803 0-2.8571 1.27678-2.8571 2.85714s1.2768 2.85714 2.8571 2.85714h5.7143v5.71424c0 1.5804 1.2768 2.8572 2.8572 2.8572 1.5803 0 2.8571-1.2768 2.8571-2.8572v-8.57138c0-1.58036-1.2768-2.85714-2.8571-2.85714zm11.4286 28.57142c0-1.5804-1.2768-2.8571-2.8571-2.8571-1.5804 0-2.8572 1.2767-2.8572 2.8571v5.7143h-5.7143c-1.5803 0-2.8571 1.2768-2.8571 2.8571 0 1.5804 1.2768 2.8572 2.8571 2.8572h8.5715c1.5803 0 2.8571-1.2768 2.8571-2.8572z"/></svg>