<svg viewBox="0 0 48 48" xmlns="http://www.w3.org/2000/svg"><g><path d="m1.94561 5.05462c-.5175-.405-1.275-.315-1.6875.2025-.405.5175-.3150004 1.275.2025 1.6875l45.59249 35.99248c.525.4125 1.275.33 1.6875-.195s.3225-1.275-.195-1.6875z"/><path d="m4.17014 23.1457c.77082-1.8593 2.18616-4.3554 4.21671-6.7587l1.74495 1.3776c-1.8973 2.2331-3.21372 4.5527-3.91305 6.2353.92361 2.2222 2.92361 5.5556 5.91665 8.3333 2.9931 2.7778 6.9722 5 11.8611 5 3.0703 0 5.7818-.8764 8.1156-2.2165l1.8638 1.4713c-2.772 1.7521-6.1098 2.9675-9.9794 2.9675-5.6111 0-10.1041-2.5556-13.375-5.5973-3.24997-3.0139-5.42358-6.625-6.45136-9.1041-.22917-.5486-.22917-1.1598 0-1.7084z"/><path d="m15.1076 23.9999c0-.7159.0864-1.423.2534-2.1072l1.9904 1.5713c-.0143.1776-.0215.3564-.0215.5359 0 1.7681.7023 3.4638 1.9526 4.7141 1.2502 1.2502 2.9459 1.9526 4.714 1.9526.7075 0 1.4034-.1125 2.0637-.3275l1.9905 1.5713c-1.2433.6372-2.6311.9784-4.0542.9784-2.3575 0-4.6184-.9365-6.2854-2.6035s-2.6035-3.9279-2.6035-6.2854z"/><path d="m19.9516 16.0847 1.9919 1.5725c.6572-.2127 1.3494-.324 2.053-.324 1.7681 0 3.4638.7024 4.7141 1.9527 1.2502 1.2502 1.9526 2.9459 1.9526 4.714 0 .1758-.0069.3509-.0207.525l1.9919 1.5725c.1655-.6812.251-1.3849.251-2.0975 0-2.3575-.9365-4.6184-2.6035-6.2854s-3.9279-2.6035-6.2854-2.6035c-1.4195 0-2.804.3396-4.0449.9737z"/><path d="m41.7743 23.9999c-.6986 1.6809-2.0131 3.9975-3.9073 6.2285l1.7435 1.3765c2.0286-2.4028 3.4439-4.8928 4.2194-6.7508.2291-.5486.2291-1.1598 0-1.7084-1.0348-2.4791-3.2084-6.0902-6.4584-9.1041-3.2708-3.0417-7.7639-5.59725-13.375-5.59725-3.8656 0-7.2005 1.21288-9.9708 2.96205l1.8641 1.4716c2.3318-1.3372 5.0403-2.2114 8.1067-2.2114 4.8889 0 8.8681 2.2222 11.8611 5 2.9931 2.7777 4.9931 6.1111 5.9167 8.3333z"/></g></svg>