<svg viewBox="0 0 48 48" xmlns="http://www.w3.org/2000/svg"><path d="m12.1354 15.6666c2.9931-2.7778 6.9722-5 11.8611-5s8.8681 2.2222 11.8611 5c2.9931 2.7777 4.9931 6.1111 5.9167 8.3333-.9236 2.2222-2.9236 5.5555-5.9167 8.3333-2.993 2.7778-6.9722 5-11.8611 5s-8.868-2.2222-11.8611-5c-2.99304-2.7778-4.99304-6.1111-5.91665-8.3333.92361-2.2222 2.92361-5.5556 5.91665-8.3333zm11.8611-7.22226c-5.6111 0-10.1041 2.55556-13.375 5.59726-3.24998 3.0138-5.42359 6.625-6.45136 9.1041-.22917.5486-.22917 1.1597 0 1.7084 1.02777 2.4791 3.20138 6.0902 6.45136 9.1041 3.2709 3.0417 7.7639 5.5972 13.375 5.5972s10.1042-2.5555 13.375-5.5972c3.25-3.0208 5.4236-6.625 6.4584-9.1041.2291-.5487.2291-1.1598 0-1.7084-1.0348-2.4791-3.2084-6.0903-6.4584-9.1041-3.2708-3.0417-7.7639-5.59726-13.375-5.59726zm-6.6666 15.55556c0-1.7681.7023-3.4638 1.9526-4.7141 1.2502-1.2502 2.9459-1.9526 4.714-1.9526s3.4638.7024 4.7141 1.9526c1.2502 1.2503 1.9526 2.946 1.9526 4.7141s-.7024 3.4638-1.9526 4.714c-1.2503 1.2503-2.946 1.9527-4.7141 1.9527s-3.4638-.7024-4.714-1.9527c-1.2503-1.2502-1.9526-2.9459-1.9526-4.714zm15.5555 0c0-2.3575-.9365-4.6184-2.6035-6.2854s-3.9279-2.6035-6.2854-2.6035-4.6184.9365-6.2854 2.6035-2.6035 3.9279-2.6035 6.2854.9365 4.6184 2.6035 6.2854 3.9279 2.6035 6.2854 2.6035 4.6184-.9365 6.2854-2.6035 2.6035-3.9279 2.6035-6.2854z"/></svg>