<svg viewBox="0 0 48 48" xmlns="http://www.w3.org/2000/svg"><g><path clip-rule="evenodd" d="m2.91006 5.18248c-.78-.615-1.912505-.4725-2.527505.3075s-.4724996 1.9125.3075 2.5275l44.400045 34.80002c.78.615 1.9125.4725 2.5275-.3075s.4725-1.9125-.3075-2.5275l-10.2512-8.0347c2.3605-2.4796 3.9687-5.2197 4.7864-7.179.2063-.4937.2063-1.0437 0-1.5374-.9311-2.231-2.8872-5.4807-5.812-8.193-2.9435-2.7373-6.9869-5.0371-12.0364-5.0371-4.1379 0-7.6001 1.5444-10.3351 3.6082zm15.25994 11.96052 5.5411 4.343c.1843-.4595.2858-.9608.2858-1.4855 0-.7187-.1938-1.3937-.525-1.9749.175-.0187.35-.025.525-.025 3.3122 0 5.9995 2.6873 5.9995 5.9995 0 .7433-.1354 1.4552-.3827 2.1122l2.4355 1.909c.6059-1.2104.9469-2.5761.9469-4.0212 0-4.9683-4.0309-8.9992-8.9992-8.9992-2.2221 0-4.2566.8063-5.8269 2.1421z" fill-rule="evenodd"/><path d="m6.15467 23.2314c.55386-1.336 1.47747-3.0372 2.75742-4.7696l6.11601 4.7936c-.0202.2456-.0304.494-.0304.7447 0 4.9683 4.0309 8.9992 8.9992 8.9992 1.0024 0 1.9667-.1641 2.8674-.4668l4.6397 3.6365c-2.1772 1.1116-4.685 1.8299-7.5071 1.8299-5.0496 0-9.093-2.2998-12.0365-5.0371-2.92473-2.7122-4.88081-5.9619-5.80573-8.193-.20623-.4937-.20623-1.0437 0-1.5374z"/><path d="m18.2715 25.7976c.728 2.3192 2.8269 4.0329 5.3462 4.1902z"/></g></svg>