<svg viewBox="0 0 48 48" xmlns="http://www.w3.org/2000/svg"><path d="m23.9969 10.0012c-5.0496 0-9.093 2.2998-12.0365 5.0371-2.92473 2.7122-4.88081 5.962-5.80573 8.193-.20623.4937-.20623 1.0437 0 1.5374.92492 2.231 2.881 5.4808 5.80573 8.193 2.9435 2.7373 6.9869 5.0371 12.0365 5.0371 5.0495 0 9.0929-2.2998 12.0364-5.0371 2.9248-2.7185 4.8809-5.962 5.812-8.193.2063-.4937.2063-1.0437 0-1.5374-.9311-2.231-2.8872-5.4808-5.812-8.193-2.9435-2.7373-6.9869-5.0371-12.0364-5.0371zm8.9992 13.9988c0 4.9683-4.0309 8.9992-8.9992 8.9992s-8.9992-4.0309-8.9992-8.9992 4.0309-8.9992 8.9992-8.9992 8.9992 4.0309 8.9992 8.9992zm-8.9992-3.9996c0 2.206-1.7936 3.9996-3.9997 3.9996-.7187 0-1.3936-.1875-1.9748-.5249-.0125.1749-.025.3437-.025.5249 0 3.3122 2.6873 5.9995 5.9995 5.9995s5.9995-2.6873 5.9995-5.9995-2.6873-5.9995-5.9995-5.9995c-.175 0-.35.0063-.525.025.3312.5812.525 1.2562.525 1.9749z"/></svg>