<svg fill="none" height="48" viewBox="0 0 48 48" width="48" xmlns="http://www.w3.org/2000/svg"><path d="m6.42531 8.3191c-.64999-.5125-1.59372-.39375-2.10621.25624-.5125.64999-.39375 1.59376.25624 2.10626l36.99936 28.9994c.65.5125 1.5937.3938 2.1062-.2562s.3937-1.5937-.2562-2.1062l-6.5749-5.1499c2.4749-2.5375 4.1499-5.3812 4.9936-7.3999.2063-.4937.2063-1.0437 0-1.5375-.9312-2.2312-2.8874-5.4811-5.8124-8.1936-2.9374-2.7374-6.9811-5.0374-12.031-5.0374-4.2624 0-7.8124 1.6437-10.5811 3.7999zm11.51859 9.0248c1.5937-1.4562 3.7249-2.3437 6.0561-2.3437 4.9687 0 8.9998 4.0312 8.9998 8.9999 0 1.5562-.3937 3.0187-1.0874 4.2936l-2.4125-1.8874c.325-.7375.5-1.55.5-2.4062 0-3.3125-2.6875-5.9999-5.9999-5.9999-.175 0-.35.0062-.525.025.3313.5812.525 1.2562.525 1.9749 0 .6375-.15 1.2375-.4125 1.7688zm13.9435 18.6247-4.575-3.5999c-1.0249.4062-2.1437.6312-3.3124.6312-4.9687 0-8.9998-4.0312-8.9998-8.9998 0-.4313.0312-.85.0875-1.2625l-5.89369-4.6437c-1.42497 1.8562-2.44371 3.7062-3.03745 5.1374-.20624.4938-.20624 1.0438 0 1.5375.93124 2.2312 2.88745 5.4812 5.81244 8.1936 2.9374 2.7375 6.9811 5.0374 12.031 5.0374 2.9874 0 5.6187-.8062 7.8874-2.0312z" fill="#475569"/></svg>