<svg viewBox="0 0 48 48" xmlns="http://www.w3.org/2000/svg"><path d="m9 6.5c.39062 0 .76563.1875 1 .5l3.5 4.6641c.3281.4296.5.9609.5 1.5v3.3359h5v-3.3359c0-.5391.1719-1.0704.5-1.5l3.5-4.6641c.2344-.3125.6094-.5 1-.5s.7656.1875 1 .5l3.5 4.6641c.3281.4296.5.9609.5 1.5v3.3359h5v-3.3359c0-.5391.1719-1.0704.5-1.5l3.5-4.6641c.2344-.3125.6094-.5 1-.5s.7656.1875 1 .5l3.5 4.6641c.3281.4296.5.9609.5 1.5v25.8359c0 1.3828-1.1172 2.5-2.5 2.5h-5c-1.3828 0-2.5-1.1172-2.5-2.5v-5h-5v5c0 1.3828-1.1172 2.5-2.5 2.5h-5c-1.3828 0-2.5-1.1172-2.5-2.5v-5h-5v5c0 1.3828-1.1172 2.5-2.5 2.5h-5c-1.38281 0-2.5-1.1172-2.5-2.5v-25.8359c0-.5391.17188-1.0704.5-1.5l3.5-4.6641c.23438-.3125.60938-.5 1-.5zm17.5 27.5v-2.5-12.5-2.5-3.3359l-2.5-3.32816-2.5 3.33596v25.8281h5zm2.5-2.5h5v-12.5h-5zm7.5 0v2.5 5h5v-25.8359l-2.5-3.32816-2.5 3.33596zm-17.5-12.5h-5v12.5h5zm-7.5 0v-2.5-3.3359l-2.5-3.32816-2.5 3.32816v25.8359h5v-5-2.5z"/></svg>