<svg viewBox="0 0 48 48" xmlns="http://www.w3.org/2000/svg"><path d="m10 7c-.23438-.3125-.60938-.5-1-.5s-.76562.1875-1 .5l-3.5 4.6641c-.32812.4375-.5.9609-.5 1.5v25.8359c0 1.3828 1.11719 2.5 2.5 2.5h5c1.3828 0 2.5-1.1172 2.5-2.5v-2.5h2.5v-5h-2.5v-10h2.5v-5h-2.5v-3.3359c0-.5391-.1719-1.0703-.5-1.5zm15 0c-.2344-.3125-.6094-.5-1-.5s-.7656.1875-1 .5l-3.5 4.6641c-.3281.4297-.5.9609-.5 1.5v25.8359c0 1.3828 1.1172 2.5 2.5 2.5h5c1.3828 0 2.5-1.1172 2.5-2.5v-2.5h2.5v-5h-2.5v-10h2.5v-5h-2.5v-3.3359c0-.5391-.1719-1.0703-.5-1.5zm14-.5c-.3906 0-.7656.1875-1 .5l-3.5 4.6641c-.3281.4297-.5.9609-.5 1.5v25.8359c0 1.3828 1.1172 2.5 2.5 2.5h5c1.3828 0 2.5-1.1172 2.5-2.5v-25.8359c0-.5391-.1719-1.0703-.5-1.5l-3.5-4.6641c-.2344-.3125-.6094-.5-1-.5z"/></svg>