<svg viewBox="0 0 48 48" xmlns="http://www.w3.org/2000/svg"><path d="m14.0114 9c0-2.75781 2.2414-5 4.9981-5h12.4953v10c0 1.3828 1.1167 2.5 2.499 2.5h9.9962v22.5c0 2.7578-2.2413 5-4.9981 5h-17.7042c.1406-.3984.2109-.8203.2109-1.25v-6.25c.1015-.0391.1952-.0781.2967-.1172.5311-.2344 1.1168-.6094 1.6088-1.2109.4998-.6172.7887-1.3438.8903-2.1172.039-.2813.0625-.4453.0859-.5547.0859-.0703.2186-.1797.4373-.3516 1.5541-1.2031 2.1164-3.2968 1.3667-5.1172-.1094-.2578-.164-.4218-.2031-.5234.0391-.1094.0937-.2656.2031-.5234.7419-1.8203.1874-3.9141-1.3667-5.1172-.2187-.1719-.3514-.2813-.4373-.3516-.0234-.1094-.0469-.2812-.0859-.5547-.2656-1.9453-1.7962-3.4843-3.7408-3.7422-.2811-.039-.4451-.0624-.5545-.0859-.0703-.0859-.1796-.2187-.3514-.4375-1.2027-1.5547-3.2956-2.1172-5.1152-1.3672-.2031.086-.3983.1797-.5155.2344l-.0078.0078v-5.5703zm29.9886 5h-9.9962v-10zm-31.4568 2.625 1.2339.5c.1484.0625.3202.0625.4764 0l1.2339-.5078c.781-.3203 1.6791-.0781 2.1945.5859l.82 1.0547c.1015.1328.2499.2109.4061.2344l1.3198.1797c.8356.1172 1.4916.7734 1.601 1.6015l.1796 1.3203c.0234.1641.1093.3125.2343.4063l1.0542.8203c.6639.5156.906 1.4141.5858 2.1953l-.4998 1.25c-.0625.1485-.0625.3203 0 .4766l.5076 1.2344c.3202.7812.0781 1.6797-.5857 2.1953l-1.0543.8203c-.1328.1015-.2109.25-.2343.4062l-.1796 1.3204c-.1172.8359-.7732 1.4921-1.601 1.6093l-1.2261.1563v8.2656c0 .4609-.2499.8828-.6638 1.1016-.4139.2187-.8981.1953-1.2808-.0625l-3.0535-2.0391-3.0535 2.0391c-.3827.2578-.8747.2812-1.28077.0625-.40609-.2188-.66381-.6407-.66381-1.1016v-8.2656l-1.21047-.1641c-.83562-.1172-1.49162-.7734-1.60096-1.6094l-.17961-1.3203c-.02343-.164-.10934-.3125-.23429-.4062l-1.0621-.8203c-.66381-.5157-.9059-1.4141-.58571-2.1954l.49981-1.2343c.06248-.1485.06248-.3203 0-.4766l-.49981-1.2265c-.32019-.7813-.0781-1.6797.58571-2.1954l1.05429-.8203c.13276-.1015.21086-.25.23429-.4062l.17961-1.3203c.11715-.836.77315-1.4922 1.60096-1.6016l1.31981-.1797c.164-.0234.31238-.1094.40609-.2344l.81996-1.0547c.5155-.664 1.4136-.9062 2.1945-.5859zm6.4663 9.875c0-1.3261-.5266-2.5979-1.4639-3.5355-.9373-.9377-2.2086-1.4645-3.5342-1.4645s-2.5968.5268-3.5342 1.4645c-.93729.9376-1.46388 2.2094-1.46388 3.5355s.52659 2.5979 1.46388 3.5355c.9374.9377 2.2086 1.4645 3.5342 1.4645s2.5969-.5268 3.5342-1.4645c.9373-.9376 1.4639-2.2094 1.4639-3.5355z"/></svg>