<svg viewBox="0 0 48 48" xmlns="http://www.w3.org/2000/svg"><path d="m14 4c-2.7578 0-5 2.24219-5 5v30c0 2.7578 2.2422 5 5 5h20c2.7578 0 5-2.2422 5-5v-22.5h-10c-1.3828 0-2.5-1.1172-2.5-2.5v-10zm15 0v10h10zm-15 20c0-.663.2634-1.2989.7322-1.7678.4689-.4688 1.1048-.7322 1.7678-.7322s1.2989.2634 1.7678.7322c.4688.4689.7322 1.1048.7322 1.7678s-.2634 1.2989-.7322 1.7678c-.4689.4688-1.1048.7322-1.7678.7322s-1.2989-.2634-1.7678-.7322c-.4688-.4689-.7322-1.1048-.7322-1.7678zm11.875 2.5c.4141 0 .7969.2031 1.0312.5391l6.8751 10c.2656.3828.289.8828.0781 1.289-.211.4063-.6406.6719-1.1094.6719h-6.875-3.125-3.75-3.75c-.4531 0-.8672-.2422-1.0859-.6328-.2188-.3906-.2188-.875.0156-1.2578l3.75-6.25c.2266-.375.6328-.6094 1.0703-.6094s.8437.2266 1.0703.6094l1 1.6719 3.7735-5.4844c.2343-.336.6171-.5391 1.0312-.5391z"/></svg>