<svg viewBox="0 0 48 48" xmlns="http://www.w3.org/2000/svg"><path d="m9.625 41.5h3.75v2.5h-3.75c-2.75781 0-5-2.2422-5-5v-30c0-2.75781 2.24219-5 5-5h12.1953c.9922 0 1.9453.39844 2.6485 1.10156l9.0546 9.04684c.7032.7032 1.1016 1.6563 1.1016 2.6485v10.9531h-2.5v-8.75h-8.75c-2.0703 0-3.75-1.6797-3.75-3.75v-8.75h-10c-1.38281 0-2.5 1.11719-2.5 2.5v30c0 1.3828 1.11719 2.5 2.5 2.5zm22.4609-25c-.0546-.2187-.164-.4219-.3281-.5781l-9.0547-9.05471c-.164-.16406-.3594-.27344-.5781-.32813v8.71094c0 .6875.5625 1.25 1.25 1.25zm-13.7109 15h2.5c2.4141 0 4.375 1.9609 4.375 4.375s-1.9609 4.375-4.375 4.375h-1.25v2.5c0 .6875-.5625 1.25-1.25 1.25s-1.25-.5625-1.25-1.25v-3.75-6.25c0-.6875.5625-1.25 1.25-1.25zm2.5 6.25c1.0391 0 1.875-.8359 1.875-1.875s-.8359-1.875-1.875-1.875h-1.25v3.75zm7.5-6.25h2.5c2.0703 0 3.75 1.6797 3.75 3.75v5c0 2.0703-1.6797 3.75-3.75 3.75h-2.5c-.6875 0-1.25-.5625-1.25-1.25v-10c0-.6875.5625-1.25 1.25-1.25zm2.5 10c.6875 0 1.25-.5625 1.25-1.25v-5c0-.6875-.5625-1.25-1.25-1.25h-1.25v7.5zm6.25-8.75c0-.6875.5625-1.25 1.25-1.25h3.75c.6875 0 1.25.5625 1.25 1.25s-.5625 1.25-1.25 1.25h-2.5v2.5h2.5c.6875 0 1.25.5625 1.25 1.25s-.5625 1.25-1.25 1.25h-2.5v3.75c0 .6875-.5625 1.25-1.25 1.25s-1.25-.5625-1.25-1.25v-5z"/></svg>