<svg viewBox="0 0 48 48" xmlns="http://www.w3.org/2000/svg"><path d="m36.5 39v-20h-8.75c-2.0703 0-3.75-1.6797-3.75-3.75v-8.75h-10c-1.3828 0-2.5 1.11719-2.5 2.5v30c0 1.3828 1.1172 2.5 2.5 2.5h20c1.3828 0 2.5-1.1172 2.5-2.5zm-.0391-22.5c-.0546-.2187-.164-.4219-.3281-.5781l-9.0547-9.05471c-.164-.16406-.3594-.27344-.5781-.32813v8.71094c0 .6875.5625 1.25 1.25 1.25zm-27.4609-7.5c0-2.75781 2.2422-5 5-5h12.1953c.9922 0 1.9453.39844 2.6485 1.10156l9.0546 9.04684c.7032.7032 1.1016 1.6563 1.1016 2.6485v22.2031c0 2.7578-2.2422 5-5 5h-20c-2.7578 0-5-2.2422-5-5z"/></svg>