<svg viewBox="0 0 48 48" xmlns="http://www.w3.org/2000/svg"><path d="m4.625 9c0-2.75781 2.24219-5 5-5h12.5v10c0 1.3828 1.1172 2.5 2.5 2.5h10v11.25h-16.25c-2.7578 0-5 2.2422-5 5v11.25h-3.75c-2.75781 0-5-2.2422-5-5zm30 5h-10v-10zm-16.25 17.5h2.5c2.4141 0 4.375 1.9609 4.375 4.375s-1.9609 4.375-4.375 4.375h-1.25v2.5c0 .6875-.5625 1.25-1.25 1.25s-1.25-.5625-1.25-1.25v-3.75-6.25c0-.6875.5625-1.25 1.25-1.25zm2.5 6.25c1.0391 0 1.875-.8359 1.875-1.875s-.8359-1.875-1.875-1.875h-1.25v3.75zm7.5-6.25h2.5c2.0703 0 3.75 1.6797 3.75 3.75v5c0 2.0703-1.6797 3.75-3.75 3.75h-2.5c-.6875 0-1.25-.5625-1.25-1.25v-10c0-.6875.5625-1.25 1.25-1.25zm2.5 10c.6875 0 1.25-.5625 1.25-1.25v-5c0-.6875-.5625-1.25-1.25-1.25h-1.25v7.5zm6.25-8.75c0-.6875.5625-1.25 1.25-1.25h3.75c.6875 0 1.25.5625 1.25 1.25s-.5625 1.25-1.25 1.25h-2.5v2.5h2.5c.6875 0 1.25.5625 1.25 1.25s-.5625 1.25-1.25 1.25h-2.5v3.75c0 .6875-.5625 1.25-1.25 1.25s-1.25-.5625-1.25-1.25v-5z"/></svg>