<svg viewBox="0 0 48 48" xmlns="http://www.w3.org/2000/svg"><path d="m41.5001 39c0 1.3828-1.1171 2.5-2.5 2.5h-17.5v1.25c0 .4297-.0781.8516-.2109 1.25h17.7109c2.7579 0 5-2.2422 5-5v-22.1953c0-.9922-.3984-1.9453-1.1015-2.6485l-9.0469-9.05464c-.7031-.70312-1.6562-1.10156-2.6484-1.10156h-12.2032c-2.7578 0-5 2.24219-5 5v5.5547l.0079-.0078c.1171-.0547.3125-.1563.5156-.2344.6406-.2656 1.3203-.3594 1.9765-.3125v-5c0-1.38281 1.1172-2.5 2.5-2.5h10v8.75c0 2.0703 1.6797 3.75 3.75 3.75h8.75zm-.039-22.5h-8.711c-.6875 0-1.25-.5625-1.25-1.25v-8.71094c.2188.05469.4219.16407.5782.32813l9.0546 9.05471c.1641.164.2735.3594.3282.5781zm-17.9453 10c0-.0625.0156-.1875.2734-.8125.4922-1.2031.125-2.5859-.9062-3.375-.5391-.4141-.6094-.5156-.6407-.5703-.0312-.0547-.0781-.1641-.1718-.836-.1719-1.289-1.1875-2.2968-2.4688-2.4687-.6719-.0937-.7812-.1406-.8359-.1719-.0547-.0312-.1563-.1015-.5703-.6406-.7969-1.0234-2.1797-1.3984-3.375-.9062-.625.2578-.75.2734-.8125.2734s-.1875-.0156-.8125-.2734c-1.2032-.4922-2.586-.1251-3.37505.9062-.41406.5391-.51562.6094-.57031.6406-.05469.0313-.16406.0782-.83594.1719-1.29687.1719-2.30469 1.1797-2.48437 2.4687-.09375.6719-.14063.7813-.17188.836s-.10156.1562-.64062.5703c-1.02344.7891-1.39063 2.1719-.89844 3.375.25781.625.27344.75.27344.8125s-.01563.1875-.27344.8125c-.49219 1.2031-.125 2.5859.90625 3.375.53906.4141.60937.5156.64062.5703s.07813.1641.17188.836c.17187 1.289 1.17969 2.2968 2.46875 2.4765.28906.0391.47656.0703.59375.0938v8.0859c0 .4609.25.8828.66406 1.1016.4141.2187.8984.1953 1.2813-.0625l3.0546-2.0391 3.0547 2.0391c.3828.2578.875.2812 1.2813.0625.4062-.2188.664-.6407.664-1.1016v-8.0859c.125-.0235.3047-.0547.5938-.0938 1.2891-.1719 2.2969-1.1875 2.4687-2.4687.0938-.6719.1407-.7813.1719-.836.0313-.0547.1016-.1562.6406-.5703 1.0235-.7969 1.3985-2.1797.9063-3.375-.2578-.625-.2734-.75-.2734-.8125zm-12.0157 13.9141v-3.9766c.5547.1172 1.1407.0703 1.6875-.1562.625-.2579.75-.2735.8125-.2735s.1875.0156.8125.2735c.5469.2265 1.1329.2656 1.6875.1562v3.9766l-1.8046-1.2032c-.4219-.2812-.9688-.2812-1.3907 0zm-4.51559-13.9141c0-.6328-.22656-1.2031-.45312-1.7578-.0625-.1641-.01563-.3438.125-.4531.47656-.3672.96094-.75 1.27344-1.2969s.40625-1.1563.48437-1.75c.02344-.1719.15625-.3047.32813-.3281.60156-.0782 1.20312-.1719 1.74997-.4844.5469-.3125.9219-.7969 1.2969-1.2735.1094-.1406.2891-.1875.4531-.125.5547.2266 1.125.4532 1.7578.4532.6329 0 1.2032-.2266 1.7579-.4532.164-.0625.3437-.0156.4531.125.3672.4766.75.961 1.2969 1.2735.5468.3125 1.1562.4062 1.75.4844.1718.0234.3046.1562.3281.3281.0781.6015.1719 1.2031.4844 1.75s.7968.9219 1.2734 1.2969c.1406.1093.1875.289.125.4531-.2266.5547-.4531 1.125-.4531 1.7578s.2265 1.2031.4531 1.7578c.0625.1641.0156.3438-.125.4531-.4766.3672-.9609.75-1.2734 1.2969s-.4063 1.1563-.4844 1.75c-.0235.1719-.1563.3047-.3281.3281-.6016.0782-1.2032.1719-1.75.4844-.5469.3125-.9219.7969-1.2969 1.2735-.1094.1406-.2891.1875-.4531.125-.5547-.2266-1.125-.4532-1.7579-.4532-.6328 0-1.2031.2266-1.7578.4532-.164.0625-.3437.0156-.4531-.125-.3672-.4766-.75-.961-1.2969-1.2735-.54685-.3125-1.15622-.4062-1.74997-.4844-.17188-.0234-.30469-.1562-.32813-.3281-.07812-.6016-.17187-1.2031-.48437-1.75s-.79688-.9219-1.27344-1.2969c-.14063-.1093-.1875-.289-.125-.4531.22656-.5547.45312-1.125.45312-1.7578z"/></svg>