<svg viewBox="0 0 48 48" xmlns="http://www.w3.org/2000/svg"><path d="m36.5 39v-20h-8.75c-2.0703 0-3.75-1.6797-3.75-3.75v-8.75h-10c-1.3828 0-2.5 1.11719-2.5 2.5v30c0 1.3828 1.1172 2.5 2.5 2.5h20c1.3828 0 2.5-1.1172 2.5-2.5zm-.0391-22.5c-.0546-.2187-.164-.4219-.3281-.5781l-9.0547-9.05471c-.164-.16406-.3594-.27344-.5781-.32813v8.71094c0 .6875.5625 1.25 1.25 1.25zm-27.4609-7.5c0-2.75781 2.2422-5 5-5h12.1953c.9922 0 1.9453.39844 2.6485 1.10156l9.0546 9.04684c.7032.7032 1.1016 1.6563 1.1016 2.6485v22.2031c0 2.7578-2.2422 5-5 5h-20c-2.7578 0-5-2.2422-5-5zm5.625 15c0-.4973.1975-.9742.5492-1.3258.3516-.3517.8285-.5492 1.3258-.5492s.9742.1975 1.3258.5492c.3517.3516.5492.8285.5492 1.3258s-.1975.9742-.5492 1.3258c-.3516.3517-.8285.5492-1.3258.5492s-.9742-.1975-1.3258-.5492c-.3517-.3516-.5492-.8285-.5492-1.3258zm8.5391 8.8203c-.2266.3359-.6016.5469-1.0079.5547-.4062.0078-.789-.1719-1.0312-.5l-1.125-1.5078-3.2656 5.1328h14.5469l-5.1172-8.1797zm3.0156-7.5703c.625 0 1.2109.3203 1.5469.8594l5.9375 9.4922c.2187.3515.3359.7578.3359 1.1797 0 1.2265-.9922 2.2187-2.2187 2.2187h-15.5625c-1.2266 0-2.2188-.9922-2.2188-2.2187 0-.4219.1172-.836.3438-1.1876l4.0468-6.3593c.336-.5313.9297-.8516 1.5547-.8516.5781 0 1.125.2734 1.4766.7344l.6328.8515 2.6015-3.8984c.336-.5078.9063-.8125 1.5157-.8125z"/></svg>