<svg viewBox="0 0 48 48" xmlns="http://www.w3.org/2000/svg"><path d="m7.74846 24.0009c0-8.977 7.27234-16.25073 16.24754-16.25073 5.4133 0 10.2016 2.64073 13.1621 6.71903.6093.836 1.781 1.0235 2.6168.4141s1.0233-1.7813.414-2.6173c-3.6323-5.00804-9.5298-8.266-16.1929-8.266-11.0452 0-19.99698 8.9535-19.99698 20.0009v.625c0 1.0391.83582 1.8751 1.87472 1.8751 1.03891 0 1.87472-.836 1.87472-1.8751zm35.81494-4.133c-.2109-1.0157-1.2108-1.6641-2.2184-1.4454-1.0077.2188-1.6638 1.211-1.4451 2.2189.2265 1.086.3515 2.211.3515 3.3673v.625c0 1.0391.8358 1.8751 1.8747 1.8751s1.8747-.836 1.8747-1.8751v-.625c0-1.4141-.1484-2.797-.4296-4.133zm-22.2154-5.8518c.8436-.2266 1.7263-.3438 2.648-.3438 5.7023 0 10.3266 4.6252 10.3266 10.3286 0 2.4298-.1484 4.8752-.3047 6.719-.0781.922-.1562 1.6876-.2109 2.2189-.0312.2656-.0546.4766-.0703.6172l-.0156.1563-.0078.039v.0078c-.125 1.0313.6015 1.9611 1.6248 2.0939 1.0232.1328 1.9606-.6016 2.0934-1.6251l-1.8591-.2344c1.8591.2344 1.8591.2344 1.8591.2344v-.0156l.0078-.0469.0234-.1719c.0157-.1484.0391-.375.0703-.6484.0625-.5626.1406-1.3595.2188-2.3126.1562-1.9064.3202-4.4612.3202-7.0316 0-7.7738-6.3037-14.07876-14.076-14.07876-1.242 0-2.4527.16406-3.6088.46876-.9999.2656-1.6013 1.2891-1.3358 2.2892.2656 1 1.2889 1.6016 2.2888 1.336zm-5.8195 4.0705c.5937-.8516.3906-2.0157-.4608-2.6095-.8515-.5938-2.0154-.3907-2.609.4609-1.5935 2.2814-2.53869 5.0628-2.53869 8.0629 0 2.3517-.29683 4.5783-.59366 6.2268-.14842.8204-.29683 1.4923-.40619 1.9454-.05468.2266-.10155.4063-.13279.5235-.01563.0547-.02344.1016-.03125.125l-.00781.0313v.0078c-.28121.9922.28902 2.0313 1.28889 2.3204.9998.2891 2.0309-.2891 2.3199-1.2891l-1.8122-.5157c1.8044.5157 1.8044.5157 1.8044.5157v-.0079-.0156l.0157-.0469c.0078-.039.0234-.0937.0468-.164.0391-.1407.0938-.3438.1484-.6016.125-.5157.2891-1.2579.4531-2.1564.3281-1.7891.6561-4.2501.6561-6.8987 0-2.2032.6874-4.2424 1.8591-5.9143zm8.4675 1.5391c2.4137 0 4.3744 1.961 4.3744 4.3752 0 3.6798-.211 6.7425-.4297 8.8754-.1093 1.0704-.2109 1.8985-.289 2.4689-.039.2812-.0703.4922-.0937.6328-.0078.0703-.0156.125-.0235.1562l-.0078.0391v.0078c-.1796 1.0235.5078 1.9923 1.5232 2.172 1.0155.1797 1.9919-.5 2.1716-1.5235l-1.8513-.3281c1.8435.3203 1.8435.3203 1.8435.3203v-.0078-.0157l.0078-.0546c.0078-.0469.0156-.1094.0312-.1876.0235-.164.0625-.3984.1016-.7031.0859-.6094.1953-1.4923.3124-2.6095.2266-2.2423.4453-5.4299.4453-9.2504 0-4.4846-3.6401-8.1254-8.1238-8.1254s-8.1238 3.6408-8.1238 8.1254c0 3.6486-.3046 6.5159-.6014 8.4691-.1485.9766-.2969 1.711-.4062 2.2032-.0547.2422-.1016.4297-.125.5391-.0156.0547-.0235.1016-.0313.125l-.0078.0235c-.2812.9922.289 2.0313 1.2889 2.3204.9998.2891 2.0309-.2891 2.32-1.2891l-1.8045-.5079c1.8045.5157 1.8045.5157 1.8045.5157v-.0078l.0078-.0157.0156-.0547c.0078-.039.0234-.1015.0469-.1797.039-.1562.0937-.375.1562-.6562.125-.5626.289-1.3907.453-2.4455.2344-1.5.4609-3.4845.5703-5.883.0468-.9844.0703-2.0314.0703-3.1486 0-2.4142 1.9606-4.3752 4.3743-4.3752zm1.8747 4.3752c0-1.0391-.8358-1.8751-1.8747-1.8751s-1.8747.836-1.8747 1.8751c0 3.547-.2031 6.5159-.4921 8.9457l-1.8513 8.4223c-.414.9453.0078 2.0469.953 2.4688s2.0544-.0078 2.4762-.9531l-1.7107-.7579c1.7107.7579 1.7107.7579 1.7107.7579v-.0079l.0078-.0234.0312-.0703c.0235-.0625.0547-.1406.0938-.2422.0781-.211.1874-.5078.3124-.8985.2578-.7891.5859-1.9454.9139-3.4923.664-3.1095 1.3045-7.7738 1.3045-14.1491zm-4.2415 8.9457 2.3668-10.8208zm0 0c-.2109 1.7579-.4609 3.2267-.7187 4.4221-.2968 1.4219-.5936 2.4454-.8045 3.1095-.1094.3281-.1953.5703-.25.7188-.0312.0703-.0469.125-.0625.1562l-.0078.0313 1.8435-8.4301z"/></svg>