<svg viewBox="0 0 48 48" xmlns="http://www.w3.org/2000/svg"><path clip-rule="evenodd" d="m9.43207 10.2943-6.52201-5.11182c-.78-.615-1.912505-.4725-2.527505.3075s-.4724996 1.9125.3075 2.5275l44.400045 34.80002c.78.615 1.9125.4725 2.5275-.3075s.4725-1.9125-.3075-2.5275l-9.6793-7.5865c.0388-.4036.0799-.862.121-1.3635.1562-1.9064.3203-4.4612.3203-7.0316 0-7.7738-6.3038-14.07876-14.076-14.07876-1.242 0-2.4528.16406-3.6089.46876-.9998.2656-1.6013 1.2891-1.3357 2.2892.2656 1 1.2889 1.6016 2.2887 1.336h.0078c.8437-.2266 1.7263-.3438 2.6481-.3438 5.7022 0 10.3265 4.6252 10.3265 10.3286 0 1.9774-.0982 3.9651-.2191 5.6305l-2.0726-1.6245c.0504-1.238.0811-2.5814.0811-4.0138 0-4.4846-3.64-8.1254-8.1237-8.1254-1.9414 0-3.7245.6825-5.1226 1.8206l-6.4678-5.0694c2.9482-3.00498 7.055-4.86873 11.5982-4.86873 5.4132 0 10.2016 2.64073 13.1621 6.71903.6092.836 1.7809 1.0235 2.6167.4141.8359-.6094 1.0233-1.7813.414-2.6173-3.6322-5.00804-9.5298-8.266-16.1928-8.266-5.7414 0-10.9172 2.41927-14.56403 6.2943zm12.53933 9.8282 2.7295 2.1393c.3292.1328.6113.3562.8161.6396l2.8468 2.2313c.0043-.3703.0066-.7477.0066-1.1318 0-2.4142-1.9606-4.3752-4.3743-4.3752-.7303 0-1.4191.1795-2.0247.4968z" fill-rule="evenodd"/><path d="m8.76 18.3426c-.6541 1.7619-1.01148 3.6683-1.01148 5.6583v.625c0 1.0391-.83581 1.8751-1.87472 1.8751-1.0389 0-1.87472-.836-1.87472-1.8751v-.625c0-2.8693.60389-5.5974 1.69149-8.0641z"/><path d="m10.5718 19.7627c-.4227 1.3373-.65173 2.7613-.65173 4.2382 0 2.3517-.29683 4.5783-.59366 6.2268-.14842.8204-.29683 1.4923-.40619 1.9454-.05468.2266-.10155.4063-.13279.5235-.0083.0291-.0144.0559-.01946.0782-.00446.0197-.00813.0358-.01179.0468l-.00781.0313v.0078c-.28121.9922.28902 2.0313 1.28883 2.3204.9999.2891 2.031-.2891 2.32-1.2891l-.0078-.0023v-.0212l.0156-.0469c.0078-.039.0234-.0937.0469-.164.039-.1407.0937-.3438.1484-.6016.125-.5157.289-1.2579.4531-2.1564.328-1.7891.6561-4.2501.6561-6.8987 0-.5797.0476-1.148.1391-1.7013z"/><path d="m15.8649 23.9113c-.0003.0272-.0004.0545-.0004.0818 0 3.6486-.3047 6.5159-.6015 8.4691-.1484.9766-.2968 1.711-.4062 2.2032-.0278.1231-.0535.2321-.0752.3239-.021.0887-.0382.1615-.0498.2152-.0083.0291-.0144.056-.0194.0783-.0045.0196-.0081.0358-.0118.0467l-.0078.0235c-.2812.9922.289 2.0313 1.2889 2.3204.9974.2884 2.0259-.2863 2.3178-1.2819l.0021.0006v-.0078l.0078-.0157.0157-.0547c.0078-.039.0234-.1015.0468-.1797.0391-.1562.0938-.375.1562-.6562.125-.5626.2891-1.3907.4531-2.4455.2343-1.5.4609-3.4845.5702-5.883.0053-.1115.0103-.2239.0151-.337z"/><path clip-rule="evenodd" d="m21.9938 28.7151c-.0873 1.5598-.2143 2.9685-.3646 4.2315l-1.8512 8.4223c-.414.9453.0078 2.0469.9529 2.4688.9452.4219 2.0544-.0078 2.4762-.9531v-.0079l.0078-.0234.0313-.0703c.0131-.035.0287-.0749.0467-.1211l.0305-.0783.0165-.0428c.0781-.211.1875-.5078.3125-.8985.2578-.7891.5858-1.9454.9139-3.4923.369-1.728.7307-3.9361.9793-6.6511zm-.3666 4.2488-1.8414 8.4206.0078-.0313c.0073-.0146.0146-.0344.0235-.0585.0101-.0272.0225-.0607.039-.0977.0547-.1485.1406-.3907.2499-.7188.2109-.6641.5078-1.6876.8046-3.1095.2569-1.1915.5061-2.6545.7166-4.4048z" fill-rule="evenodd"/><path d="m27.8925 33.3383c-.0908.8493-.1742 1.5215-.2407 2.0069-.0391.2812-.0703.4922-.0938.6328-.0078.0703-.0156.125-.0234.1562l-.0078.0391v.0078c-.1797 1.0235.5077 1.9923 1.5232 2.172s1.9919-.5 2.1715-1.5235l-1.8512-.3281 1.8434.3203v-.0235l.0078-.0546.0028-.017.0046-.0299c.0059-.0392.013-.0863.0239-.1407.0074-.0516.0163-.1102.0263-.1758.0152-.0997.0328-.2155.0512-.3475z"/><path d="m43.5634 19.8679c-.2109-1.0157-1.2107-1.6641-2.2184-1.4454-1.0076.2188-1.6638 1.211-1.4451 2.2189.2266 1.086.3515 2.211.3515 3.3673v.625c0 1.0391.8359 1.8751 1.8748 1.8751s1.8747-.836 1.8747-1.8751v-.625c0-1.4141-.1484-2.797-.4296-4.133z"/></svg>