<svg viewBox="0 0 48 48" xmlns="http://www.w3.org/2000/svg"><path d="m6.5 24.6216c0-9.6641 7.8359-17.50002 17.5-17.50002 5.4922 0 10.3906 2.53125 13.6016 6.48442.4375.539 1.2187.6171 1.7578.1875.539-.4297.6172-1.2188.1875-1.7579-3.6641-4.52339-9.2735-7.41402-15.5469-7.41402-11.0469 0-20 8.95312-20 20.00002v3.75c0 .6875.5625 1.25 1.25 1.25s1.25-.5625 1.25-1.25zm36.7812-5.336c-.1874-.664-.875-1.0546-1.539-.875-.6641.1797-1.0547.875-.875 1.5391.4062 1.4844.6328 3.0469.6328 4.6641v3.75c0 .6875.5625 1.25 1.25 1.25s1.25-.5625 1.25-1.25v-3.7422c0-1.8438-.25-3.6328-.7188-5.336zm-19.2812-8.414c-1.7812 0-3.4844.3359-5.0469.9531-.7578.2969-.9375 1.2578-.4062 1.8828.375.4375 1 .5625 1.539.3594 1.2188-.4531 2.5391-.7031 3.9141-.7031 6.2109 0 11.25 5.039 11.25 11.25v1.9453c0 2.2109-.1406 4.4219-.4297 6.6094-.1015.7578.4844 1.4453 1.25 1.4453.6172 0 1.1406-.4532 1.2188-1.0625.3047-2.3125.4531-4.6485.4531-6.9922v-1.9375c0-7.5938-6.1563-13.75-13.75-13.75zm-8.6641 4.8515c-.4687-.5468-1.3125-.5937-1.7812-.039-2.0625 2.3984-3.3047 5.5234-3.3047 8.9375v1.9453c0 2.1719-.26562 4.3281-.79688 6.4297-.20312.8125.39063 1.625 1.22658 1.625.5469 0 1.0312-.3594 1.1719-.8906.6015-2.336.9062-4.7422.9062-7.1641v-1.9453c0-2.711.961-5.1953 2.5547-7.1406.4219-.5079.4609-1.2579.0234-1.7579zm8.6641 1.3985c-4.1406 0-7.5 3.3594-7.5 7.5v1.9453c0 3.0156-.4219 6.0156-1.2422 8.9062-.2344.8125.3672 1.6485 1.211 1.6485.539 0 1.0156-.3516 1.164-.8672.9063-3.1406 1.3672-6.4063 1.3672-9.6875v-1.9453c0-2.7578 2.2422-5 5-5s5 2.2422 5 5v1.9453c0 3.0312-.3047 6.0547-.9141 9.0156-.164.7891.4297 1.5391 1.2344 1.5391.5781 0 1.0859-.3985 1.2031-.9688.6485-3.1484.9766-6.3593.9766-9.5859v-1.9453c0-4.1406-3.3594-7.5-7.5-7.5zm1.25 7.5c0-.6875-.5625-1.25-1.25-1.25s-1.25.5625-1.25 1.25v1.9453c0 4.7578-.875 9.4687-2.5859 13.9141l-.461 1.1953c-.25.6406.0703 1.3672.7188 1.6172.6484.25 1.3672-.0704 1.6172-.7188l.4609-1.1953c1.8203-4.7266 2.75-9.75 2.75-14.8125z"/></svg>