<svg viewBox="0 0 48 48" xmlns="http://www.w3.org/2000/svg"><path d="m31.5 24c0 1.7344-.0937 3.4063-.2578 5h-14.4844c-.1719-1.5937-.2578-3.2656-.2578-5s.0938-3.4063.2578-5h14.4844c.1719 1.5937.2578 3.2656.2578 5zm2.25-5h9.6172c.414 1.6016.6328 3.2734.6328 5s-.2188 3.3984-.6328 5h-9.6172c.1641-1.6094.25-3.2812.25-5s-.0859-3.3906-.25-5zm8.7969-2.5h-9.1172c-.7813-4.9922-2.3281-9.17187-4.3203-11.84375 6.1172 1.61719 11.0937 6.05465 13.4297 11.84375zm-11.6485 0h-13.7968c.4765-2.8438 1.2109-5.3594 2.1093-7.39844.8203-1.84375 1.7344-3.17968 2.6172-4.02343.875-.82813 1.6016-1.07813 2.1719-1.07813s1.2969.25 2.1719 1.07813c.8828.84375 1.7968 2.17968 2.6172 4.02343.9062 2.03124 1.6328 4.54684 2.1093 7.39844zm-16.3281 0h-9.11717c2.34375-5.7891 7.31247-10.22656 13.43747-11.84375-1.9922 2.67188-3.539 6.85155-4.3203 11.84375zm-9.93749 2.5h9.61719c-.1641 1.6094-.25 3.2812-.25 5s.0859 3.3906.25 5h-9.61719c-.41406-1.6016-.63281-3.2734-.63281-5s.21875-3.3984.63281-5zm14.57809 19.8906c-.9062-2.0312-1.6328-4.5468-2.1093-7.3906h13.7968c-.4765 2.8438-1.2109 5.3594-2.1093 7.3906-.8204 1.8438-1.7344 3.1797-2.6172 4.0235-.875.8359-1.6016 1.0859-2.1719 1.0859s-1.2969-.25-2.1719-1.0781c-.8828-.8438-1.7969-2.1797-2.6172-4.0235zm-4.6406-7.3906c.7813 4.9922 2.3281 9.1719 4.3203 11.8438-6.125-1.6172-11.09372-6.0547-13.43747-11.8438zm27.9766 0c-2.3438 5.7891-7.3125 10.2266-13.4297 11.8438 1.9922-2.6719 3.5312-6.8516 4.3203-11.8438z"/></svg>