<svg viewBox="0 0 48 48" xmlns="http://www.w3.org/2000/svg"><path d="m24 41.5c1.3047 0 3.1562-1.125 4.8359-4.4766.7735-1.5468 1.4219-3.414 1.8829-5.5234h-13.4376c.461 2.1094 1.1094 3.9766 1.8829 5.5234 1.6797 3.3516 3.5312 4.4766 4.8359 4.4766zm-7.1641-12.5h14.3282c.2187-1.5781.3359-3.2578.3359-5s-.1172-3.4219-.3359-5h-14.3282c-.2187 1.5781-.3359 3.2578-.3359 5s.1172 3.4219.3359 5zm.4453-12.5h13.4376c-.461-2.1094-1.1094-3.9766-1.8829-5.5234-1.6797-3.3516-3.5312-4.4766-4.8359-4.4766s-3.1562 1.125-4.8359 4.4766c-.7735 1.5468-1.4219 3.414-1.8829 5.5234zm16.4063 2.5c.2031 1.6016.3125 3.2734.3125 5s-.1094 3.3984-.3125 5h7.0937c.4688-1.5859.7266-3.2656.7266-5s-.25-3.4141-.7266-5zm6.1328-2.5c-2.0234-4.2578-5.7109-7.57031-10.2265-9.08594 1.6406 2.21094 2.9374 5.37504 3.6874 9.08594h6.5469zm-25.0859 0c.75-3.7188 2.0468-6.875 3.6875-9.08594-4.5235 1.51563-8.2188 4.82814-10.2344 9.08594h6.5391zm-7.50002 2.5c-.46876 1.5859-.72657 3.2656-.72657 5s.25 3.4141.72657 5h7.07812c-.2031-1.6016-.3125-3.2734-.3125-5s.1094-3.3984.3125-5h-7.08594zm22.35152 21.5859c4.5157-1.5234 8.2032-4.8281 10.2266-9.0859h-6.5391c-.75 3.7188-2.0468 6.875-3.6875 9.0859zm-11.1718 0c-1.6407-2.2109-2.9297-5.375-3.6875-9.0859h-6.5391c2.0234 4.2578 5.7109 7.5703 10.2266 9.0859zm5.5859 3.4141c-5.3043 0-10.3914-2.1071-14.14214-5.8579-3.75072-3.7507-5.85786-8.8378-5.85786-14.1421s2.10714-10.3914 5.85786-14.14214c3.75074-3.75072 8.83784-5.85786 14.14214-5.85786s10.3914 2.10714 14.1421 5.85786c3.7508 3.75074 5.8579 8.83784 5.8579 14.14214s-2.1071 10.3914-5.8579 14.1421c-3.7507 3.7508-8.8378 5.8579-14.1421 5.8579z"/></svg>