<svg fill="none" height="48" viewBox="0 0 48 48" width="48" xmlns="http://www.w3.org/2000/svg"><g fill="#475569"><path d="m20.6667 24c0 2.4546-1.9898 4.4444-4.4444 4.4444s-4.4445-1.9898-4.4445-4.4444 1.9899-4.4444 4.4445-4.4444 4.4444 1.9898 4.4444 4.4444z"/><path d="m36.2223 24c0 2.4546-1.9899 4.4444-4.4445 4.4444s-4.4444-1.9898-4.4444-4.4444 1.9898-4.4444 4.4444-4.4444 4.4445 1.9898 4.4445 4.4444z"/><path d="m20.6667 8.44444c0 2.45456-1.9898 4.44446-4.4444 4.44446s-4.4445-1.9899-4.4445-4.44446c0-2.45459 1.9899-4.44444 4.4445-4.44444s4.4444 1.98985 4.4444 4.44444z"/><path d="m36.2223 8.44444c0 2.45456-1.9899 4.44446-4.4445 4.44446s-4.4444-1.9899-4.4444-4.44446c0-2.45459 1.9898-4.44444 4.4444-4.44444s4.4445 1.98985 4.4445 4.44444z"/><path d="m20.6667 39.5556c0 2.4546-1.9898 4.4444-4.4444 4.4444s-4.4445-1.9898-4.4445-4.4444 1.9899-4.4445 4.4445-4.4445 4.4444 1.9899 4.4444 4.4445z"/><path d="m36.2223 39.5556c0 2.4546-1.9899 4.4444-4.4445 4.4444s-4.4444-1.9898-4.4444-4.4444 1.9898-4.4445 4.4444-4.4445 4.4445 1.9899 4.4445 4.4445z"/></g></svg>