<svg fill="none" height="40" viewBox="0 0 40 40" width="40" xmlns="http://www.w3.org/2000/svg"><g fill="#475569"><path d="m17 20c0 2.2091-1.7909 4-4 4s-4-1.7909-4-4 1.7909-4 4-4 4 1.7909 4 4z"/><path d="m31 20c0 2.2091-1.7909 4-4 4s-4-1.7909-4-4 1.7909-4 4-4 4 1.7909 4 4z"/><path d="m17 6c0 2.20914-1.7909 4-4 4s-4-1.79086-4-4 1.7909-4 4-4 4 1.79086 4 4z"/><path d="m31 6c0 2.20914-1.7909 4-4 4s-4-1.79086-4-4 1.7909-4 4-4 4 1.79086 4 4z"/><path d="m17 34c0 2.2091-1.7909 4-4 4s-4-1.7909-4-4 1.7909-4 4-4 4 1.7909 4 4z"/><path d="m31 34c0 2.2091-1.7909 4-4 4s-4-1.7909-4-4 1.7909-4 4-4 4 1.7909 4 4z"/></g></svg>