<svg fill="none" height="48" viewBox="0 0 48 48" width="48" xmlns="http://www.w3.org/2000/svg"><path d="m24.9125 21.586-1.875 1.7182c-2.5375 2.3256-5.425.7443-6.3563-.2682-1.6812-1.8375-1.5499-4.6812.2751-6.3562l5.1125-4.6813h-.4126c-3.6124 0-7.0875 1.4344-9.6437 3.9875l-6.0125.0188c-1.1 0-2 .8994-2 1.9987v9.9875c0 1.0994.9 2.0025 1.94375 2.0025l7.14375-.0037 5.6562 5.1137c1.7188 1.3981 4.2344 1.1319 5.625-.5784l1.1325.9531c.9925.7562 2.4613.6562 3.2738-.3356l1.9612-2.4125.3359.2812c.8594.6875 2.1175.5626 2.8125-.2968l.5985-.7394c.6925-.8562.5612-2.1093-.2938-2.8037zm17.0875-5.5812-6-.0079c-2.5612-2.56-6.035-3.9925-9.6562-3.9925l-.5376-.0059c-.5 0-.9762.1998-1.3512.5355l-6.1425 5.6083c-.0063.0125-.0125.025-.0125.025-1.05.9875-1.025 2.5375-.1375 3.5.6016.6562 2.1875 1.3512 3.5081.1719 0-.0079.0157-.0079.0235-.0157l5-4.5687c.4062-.367 1.0387-.3435 1.4137.0625s.3438 1.0387-.0625 1.4137l-1.6325 1.4919 9.1 7.3813c.7575.6245 1.2188 1.4681 1.3825 2.3737l5.1047.0019c1.1 0 2-.8988 2-1.9988v-9.9762c0-1.1063-.8937-2-2-2z" fill="#475569"/></svg>