<svg viewBox="0 0 48 48" xmlns="http://www.w3.org/2000/svg"><path d="m15.3819 8.00175c1.9306-1.95833 4.9931-2.0625 7.0417-.31944.4028.34027.7639.72222 1.132 1.10416.1458.15278.2916.3125.4444.45834.1458-.15278.2986-.30556.4444-.45834.3612-.38194.7292-.76389 1.132-1.10416 2.0486-1.74306 5.1111-1.63889 7.0417.31944 2.0416 2.06945 2.0416 5.43055 0 7.50005l-7.0556 7.1666c-.4306.4375-.9931.6528-1.5625.6528s-1.1319-.2153-1.5625-.6528l-7.0556-7.1666c-2.0416-2.0695-2.0416-5.4306 0-7.50005zm5.8056 1.5625c-1.1667-1.1875-3.0556-1.1875-4.2222 0-1.1875 1.20835-1.1875 3.17365 0 4.38195l7.0347 7.1389 7.0347-7.1458c1.1875-1.2084 1.1875-3.1737 0-4.38199-1.1666-1.1875-3.0555-1.1875-4.2222 0l-2.0208 2.05559c-.4375.4444-1.1459.4444-1.5834 0zm-6.7014 18.47225c.9097-.6111 1.9861-.9306 3.0833-.9306h10.3195c2.1458 0 3.8889 1.7431 3.8889 3.8889 0 .5972-.132 1.1597-.375 1.6667h.3889l6.5764-3.9167c.5763-.3403 1.2361-.5278 1.9097-.5278h.0903c2.0069 0 3.6319 1.625 3.6319 3.632 0 1.2291-.625 2.375-1.6528 3.0416l-8.3055 5.4028c-1.2639.8195-2.7361 1.257-4.2361 1.257h-24.69449c-.61111 0-1.11111-.5-1.11111-1.1111 0-.6112.5-1.1112 1.11111-1.1112h24.68749c1.0764 0 2.125-.3125 3.0278-.8958l8.3055-5.4028c.4028-.2569.6389-.7083.6389-1.1805 0-.7778-.6319-1.4097-1.4097-1.4097h-.0903c-.2708 0-.5347.0763-.7708.2083l-6.8403 4.0764c-.1736.1041-.368.1597-.5694.1597h-4.2014-1.6667-4.4444c-.6111 0-1.1111-.5-1.1111-1.1111s.5-1.1111 1.1111-1.1111h4.4444 1.6667c.9236 0 1.6667-.7431 1.6667-1.6667s-.7431-1.6667-1.6667-1.6667h-10.3195c-.6597 0-1.2986.1945-1.8472.5625l-5.5486 3.6945c-.18054.125-.39582.1875-.61804.1875h-4.44445c-.61111 0-1.11111-.5-1.11111-1.1111s.5-1.1111 1.11111-1.1111h4.11111z"/></svg>