<svg viewBox="0 0 48 48" xmlns="http://www.w3.org/2000/svg"><path d="m19.7969 4.03446c.6719.14842 1.1015.81237.9609 1.48414l-1.8203 8.483h14.4219l1.9297-9.01417c.1484-.67176.8125-1.10138 1.4843-.96078.6719.1406 1.1016.81237.961 1.48414l-1.8203 8.49081h6.8359c.6875 0 1.25.5624 1.25 1.2498s-.5625 1.2498-1.25 1.2498h-7.375l-3.2109 14.9976h6.8359c.6875 0 1.25.5624 1.25 1.2498s-.5625 1.2498-1.25 1.2498h-7.375l-1.9297 9.0142c-.1406.6717-.8125 1.1014-1.4844.9607-.6718-.1406-1.1015-.8123-.9609-1.4841l1.8203-8.4908h-14.4219l-1.9296 9.0142c-.1485.6717-.8125 1.1014-1.4844.9607-.6719-.1406-1.1016-.8123-.961-1.4841l1.8204-8.4908h-6.8438c-.6875 0-1.25-.5624-1.25-1.2498s.5625-1.2498 1.25-1.2498h7.3828l3.211-14.9976h-6.8438c-.6875 0-1.25-.5624-1.25-1.2498s.5625-1.2498 1.25-1.2498h7.3828l1.9297-9.01417c.1484-.67176.8125-1.10138 1.4844-.96078zm-1.3907 12.46674-3.2109 14.9976h14.4219l3.2109-14.9976z"/></svg>