<svg viewBox="0 0 48 48" xmlns="http://www.w3.org/2000/svg"><path d="m20.7734 4.05595c1.3516.28904 2.211 1.61708 1.9219 2.96856l-1.4922 6.97609h9.8828l1.7188-8.0229c.2891-1.35147 1.6172-2.2108 2.9687-1.92175 1.3516.28904 2.211 1.61708 1.9219 2.96856l-1.4922 6.97609h5.2969c1.3828 0 2.5 1.1172 2.5 2.4999s-1.1172 2.4998-2.5 2.4998h-6.375l-2.1406 9.9994h5.2968c1.3829 0 2.5 1.1171 2.5 2.4998 0 1.3828-1.1171 2.4999-2.5 2.4999h-6.3749l-1.7188 8.0229c-.2891 1.3515-1.6172 2.2108-2.9687 1.9218-1.3516-.2891-2.211-1.6171-1.9219-2.9686l1.4922-6.9761h-9.8829l-1.7187 8.0229c-.2891 1.3515-1.6172 2.2108-2.9688 1.9218-1.3515-.2891-2.2109-1.6171-1.9218-2.9686l1.5-6.9761h-5.2969c-1.38281 0-2.5-1.1171-2.5-2.4999 0-1.3827 1.11719-2.4998 2.5-2.4998h6.375l2.1406-9.9994h-5.29685c-1.38281 0-2.5-1.1171-2.5-2.4998s1.11719-2.4999 2.5-2.4999h6.37505l1.7187-8.0229c.2813-1.35147 1.6094-2.2108 2.9609-1.92175zm-.6484 14.94435-2.1406 9.9994h9.8828l2.1406-9.9994z"/></svg>