<svg viewBox="0 0 48 48" xmlns="http://www.w3.org/2000/svg"><path d="m23.0625 13.7856-.9375-1.0547-.3281-.3672c-2.0313-2.2812-5.1016-3.34371-8.1094-2.79684-4.16406.75784-7.1875 4.38284-7.1875 8.61724v.2734c0 2.5234 1.04687 4.9297 2.89844 6.6484l14.36716 13.3828c.0625.0547.1485.0938.2344.0938s.1719-.0313.2344-.0938l14.375-13.3828c1.8437-1.7187 2.8906-4.125 2.8906-6.6484v-.2734c0-4.2344-3.0234-7.8594-7.1875-8.61724-3.0078-.54687-6.0781.51564-8.1094 2.79684l-.3281.3672-.9375 1.0547c-.2344.2656-.5781.4219-.9375.4219s-.6953-.1563-.9375-.4219zm2.7266-4.46092c2.5078-1.96094 5.7656-2.79688 8.9687-2.21875 5.3516.97656 9.2422 5.64067 9.2422 11.07817v.2734c0 2.8125-1.0234 5.5156-2.8594 7.6172-.2656.2969-.539.5859-.8359.8594l-14.375 13.3828c-.0625.0625-.1328.1172-.2031.1718-.4922.3829-1.1016.586-1.7266.586-.7187 0-1.4063-.2735-1.9375-.7578l-14.375-13.375c-.29687-.2735-.57031-.5625-.83594-.8594-1.82812-2.1094-2.85156-4.8125-2.85156-7.625v-.2734c0-5.4375 3.89063-10.10161 9.2422-11.07817 3.1953-.57813 6.4531.25 8.9609 2.21875.5235.41406 1.0156.86722 1.461 1.37502l.3281.3672.3281-.3672c.3281-.3672.6719-.71096 1.0391-1.02346.1406-.11719.2812-.23438.4218-.35156z"/></svg>