<svg viewBox="0 0 48 48" xmlns="http://www.w3.org/2000/svg"><path d="m13.3281 7.04893c1.8203-.30313 3.6563-.14844 5.2891.41641l3.9609 6.05236-5.8984 5.8906c-.1172.125-.25.2188-.1797.4609 0 .1641.0078.3282.2031.4454l8.75 8.125c.2266.2109.5078.2187.8203.0234.2422-.2031.2969-.5469.1328-.8125l-4.7187-7.6641 7.0859-5.9062c.2032-.2344.2813-.4375.1875-.6875l-1.7734-4.96565c2.2344-1.30546 4.875-1.81328 7.4844-1.37812 5.3828.89687 9.3281 5.55467 9.3281 11.01567v.4531c0 3.2422-1.3438 6.3437-3.7188 8.5547l-14.1171 13.1797c-.586.5468-1.3594.8515-2.1641.8515s-1.5781-.3047-2.1641-.8515l-14.11793-13.1797c-2.37188-2.211-3.71797-5.3125-3.71797-8.5547v-.4531c0-5.461 3.94688-10.1188 9.3281-11.01645z"/></svg>