<svg viewBox="0 0 48 48" xmlns="http://www.w3.org/2000/svg"><path d="m27.4205 16.2222c0 .6111-.5 1.1111-1.1111 1.1111h-6.1112-2.7777-3.1459c-1.9444 0-3.5208 1.5764-3.5208 3.5208 0 .4653.0903.9236.2708 1.3542l2.3195 5.5625c.125.2986.1875.618.1875.9375 0 .3333-.0695.6597-.1945.9653l-.5625 1.3194c-.6458 1.5069-.7569 3.1944-.3194 4.7778l.9375 3.375c.0694.243.2847.4097.5347.4097h2.3056c.368 0 .6319-.3472.5347-.7014l-1.1042-3.9722c-.2361-.8542-.1736-1.757.1736-2.5695l.5625-1.3194c.3056-.7222.4653-1.4931.4653-2.2778 0-.3194-.0278-.6389-.0764-.9514-.0625-.368.0625-.7361.3334-.993.2708-.257.6458-.3611 1.0069-.2778l8.0694 1.8125c.0973.0208.1945.0417.2987.0556.5347.0902.9236.5555.9236 1.0972v9.5416c0 .3056.25.5556.5555.5556h2.2222c.3056 0 .5556-.25.5556-.5556v-11.1388c0-.3195.1319-.6181.3681-.8264 1.1319-1.0139 1.8541-2.4792 1.8541-4.1459 0-.1597-.0069-.3125-.0208-.4652-.007-.1042 0-.2153.0208-.3125v-3.6667c0-.6111.5-1.1111 1.1111-1.1111h2.2223c.375 0 .7152.1875.9236.493l.4444.6667c.6528.9861 1.9792 1.2708 2.9792.6389.7014-.4375 1.0972-1.2361 1.0208-2.0625l-.5347-5.6111c-.1597-1.70835-1.5972-3.01391-3.3195-3.01391h-.4027-.5556-1.6667c-4.2986 0-7.7777 3.47921-7.7777 7.77781zm14.8055-7.84031c.6181.80556 1.0278 1.78471 1.132 2.86801l.5347 5.6112c.1597 1.6597-.6389 3.2708-2.0556 4.1597-2.0208 1.2639-4.6805.6944-6.0069-1.2917l-.1181-.1736h-.5139v2.7778c0 .0486-.0069.1041-.0069.1528.0069.1319.0069.2708.0069.4027 0 2.1459-.8611 4.0556-2.2222 5.4445v10.6666c0 1.5348-1.243 2.7778-2.7778 2.7778h-2.2222c-1.5347 0-2.7778-1.243-2.7778-2.7778v-8.6388l-6.118-1.375c-.0347.993-.25 1.9652-.6389 2.875l-.5625 1.3194c-.1528.3472-.1736.7361-.0764 1.1042l1.1042 3.9722c.493 1.7708-.8403 3.5208-2.6736 3.5208h-2.3056c-1.25 0-2.3403-.8333-2.6736-2.0347l-.9444-3.375c-.57643-2.0694-.43059-4.2708.4166-6.25l.5625-1.3194c.0139-.0278.0209-.0556.0209-.0903 0-.0278-.007-.0556-.0139-.0834l-2.31947-5.5625c-.29167-.7013-.44445-1.4444-.44445-2.2013-1.29166.4583-2.22222 1.6944-2.22222 3.1458v3.3333c0 .6111-.5 1.1111-1.11111 1.1111s-1.11111-.5-1.11111-1.1111v-3.3333c0-2.8681 2.17361-5.2222 4.95833-5.5208.90278-1.9862 2.90273-3.3681 5.22913-3.3681h3.1459 2.7777 5.0625c.5556-5 4.7917-8.88889 9.9375-8.88889h1.6667.5556.4027l4.0417-.00694c.6111 0 1.1111.5 1.1111 1.11111 0 .48611-.3125.90278-.75 1.04861zm-5.9166 4.50691c0-.2947.117-.5773.3254-.7856.2084-.2084.491-.3255.7857-.3255s.5773.1171.7856.3255c.2084.2083.3255.4909.3255.7856s-.1171.5773-.3255.7857c-.2083.2084-.4909.3254-.7856.3254s-.5773-.117-.7857-.3254-.3254-.491-.3254-.7857z"/></svg>