<svg viewBox="0 0 48 48" xmlns="http://www.w3.org/2000/svg"><path d="m35.1111 22.7535v-5.4236h1.1111l.6806 1.3611c.868 1.743 2.9305 2.5278 4.743 1.8055 1.4236-.5694 2.3542-1.9444 2.3542-3.4791v-5.2431c0-1.3264-.5833-2.52083-1.5069-3.33333h.3958c.6111 0 1.1111-.5 1.1111-1.11111s-.5-1.11111-1.1111-1.11111h-5.5556-2.2222c-4.9097 0-8.8889 3.97915-8.8889 8.88885h-6.6666-1.4445-3.7778c-2.1319 0-4 1.132-5.03469 2.8334-2.99305.3958-5.29861 2.9583-5.29861 6.0555v3.8889c0 .9236.74306 1.6667 1.66667 1.6667s1.66666-.7431 1.66666-1.6667v-3.8889c0-.9305.45834-1.75 1.15973-2.2569.11111.9028.4375 1.7639.94444 2.5278l1.9583 2.9444c.5764.8611.4445 1.9931-.0833 2.8889-1.1458 1.9444-1.43056 4.3194-.6944 6.5208l1.2152 3.6389c.3056.9097 1.1528 1.5209 2.1111 1.5209h2.3403c1.5139 0 2.5903-1.4862 2.1111-2.9237l-1.4444-4.3402c-.1458-.4445-.0347-.9306.2986-1.2639l.8819-.882c.9167-.9166 1.4306-2.1597 1.4306-3.4514 0-.1597-.0069-.3194-.0208-.4791l5.8333 1.6666c.2847.0834.5694.1459.8542.1945l-.007 9.25c0 1.2292.9931 2.2222 2.2222 2.2222h2.2223c1.2291 0 2.2222-.993 2.2222-2.2222v-11.4097c1.3333-1.3334 2.1875-3.1736 2.2222-5.257zm3.3333-12.0903c.2947 0 .5773.1171.7857.3254.2084.2084.3255.491.3255.7857s-.1171.5773-.3255.7857-.491.3254-.7857.3254c-.2946 0-.5773-.117-.7856-.3254-.2084-.2084-.3255-.491-.3255-.7857s.1171-.5773.3255-.7857c.2083-.2083.491-.3254.7856-.3254z"/></svg>