<svg viewBox="0 0 48 48" xmlns="http://www.w3.org/2000/svg"><path clip-rule="evenodd" d="m39.5431 26.1945.0487 11.1185c0 .1945-.0139.375-.0348.5625v1.1251c0 1.5348-1.2431 2.7779-2.7779 2.7779h-1.1111c-.0265 0-.0529-.0075-.0794-.015-.0499-.0142-.0998-.0283-.1498.008-.0636-.0363-.1271-.0222-.1907-.008-.0337.0075-.0673.015-.101.015h-22.2509c-.1041 0-.2082-.007-.3123-.0139-.0833.0069-.1669.0139-.2502.0139h-1.1112c-1.53407 0-2.77787-1.2431-2.77787-2.7779v-7.7781c0-.0625.00208-.132.00625-.1945v-4.8335h-2.22509c-1.25214 0-2.22579-.9792-2.22579-2.2293 0-.625.20862-1.1806.69517-1.6667l17.80563-15.52037c.4861-.48711 1.0417-.55669 1.5278-.55669s1.0417.13917 1.4653.4871l7.3962 6.50626v-2.5487c0-1.22717.9931-2.22235 2.2223-2.22235h2.2223c1.2292 0 2.2223.99518 2.2223 2.22235v8.4031l3.6668 3.2293c.5556.4861.8404 1.0417.764 1.6667 0 1.2501-1.0417 2.2293-2.2223 2.2293zm-22.2607 5.8191c0-2.7252 3.9288-7.0397 6.7197-7.0397 2.7919 0 6.7196 4.318 6.7492 7.0414 0 1.2262-.9719 1.9604-2.5226 1.9604-.8919 0-1.6296-.2434-2.3302-.4745-.6336-.2091-1.2369-.4081-1.8964-.4081-.6494 0-1.2455.1969-1.8745.4047-.7028.2321-1.4467.4779-2.3522.4779-1.5837 0-2.524-.7349-2.493-1.9621zm-.9748-9.2451c1.024-.2462 2.1538.545 2.5184 1.7624.3622 1.2166-.1684 2.4051-1.1923 2.6513-1.024.2461-2.1538-.5451-2.5184-1.7652-.3648-1.2167.1684-2.4024 1.1923-2.6485zm6.7099-2.2522c.4174 1.5567-.1277 2.9975-1.2131 3.2832-1.0901.2883-2.3067-.7209-2.7248-2.2459-.4174-1.5567.1276-2.9975 1.2131-3.2832 1.0897-.2542 2.3074.6892 2.7248 2.2459zm6.1634 4.0153c.3646-1.2174 1.4944-1.9769 2.5184-1.7624.9916.2461 1.5542 1.4311 1.1909 2.6502-.3692 1.2174-1.4944 1.9769-2.5183 1.7624-1.024-.2461-1.5557-1.4325-1.191-2.6502zm-.2564-2.978c-.4173 1.525-1.6663 2.5316-2.7248 2.2459-1.0865-.2849-1.6315-1.7582-1.2131-3.2832.4174-1.525 1.6664-2.5316 2.7248-2.2459 1.0857.2855 1.6305 1.7582 1.2131 3.2832z" fill-rule="evenodd"/></svg>