<svg viewBox="0 0 48 48" xmlns="http://www.w3.org/2000/svg"><path d="m39.5431 26.1602.0487 10.9448c0 .1914-.0139.3692-.0348.5538v1.1074c0 1.5108-1.2431 2.7345-2.7779 2.7345h-1.1111c-.0764 0-.1528-.0615-.2292-.0068-.0972-.0547-.1944.0068-.2917.0068h-3.9237c-1.5348 0-2.7779-1.2237-2.7779-2.7345v-6.0158c0-1.2101-.9931-2.1876-2.2224-2.1876h-4.4446c-1.2292 0-2.2223.9775-2.2223 2.1876v6.0158c0 1.5108-1.2431 2.7345-2.7779 2.7345h-3.8821c-.1042 0-.2083-.0068-.3125-.0137-.0833.0069-.1667.0137-.25.0137h-1.1112c-1.53407 0-2.77787-1.2237-2.77787-2.7345v-7.6565c0-.0616.00208-.1299.00625-.1914v-4.7581h-2.22509c-1.25214 0-2.22579-.9639-2.22579-2.1944 0-.6152.20862-1.1621.69517-1.6407l17.80563-15.27784c.4861-.47949 1.0417-.54799 1.5278-.54799s1.0417.137 1.4653.47949l7.3962 6.40454v-2.5089c0-1.20791.9931-2.18754 2.2223-2.18754h2.2223c1.2292 0 2.2223.97963 2.2223 2.18754v8.2719l3.6669 3.1788c.5555.4786.8403 1.0255.7639 1.6407 0 1.2305-1.0417 2.1944-2.2223 2.1944z"/></svg>