<svg viewBox="0 0 48 48" xmlns="http://www.w3.org/2000/svg"><path d="m24 10h16c1.1063 0 2 .8937 2 2v24c0 1.1063-.8937 2-2 2h-10.1c-.15.7375-.4625 1.4188-.9 2h11c2.2062 0 4-1.7938 4-4v-24c0-2.20625-1.7938-4-4-4h-16c-2.2062 0-4 1.79375-4 4v1.9563l2 1.8312v-3.7875c0-1.1063.8937-2 2-2zm11 11c-1.1063 0-2 .8938-2 2v2c0 1.1063.8937 2 2 2h2c1.1063 0 2-.8937 2-2v-2c0-1.1062-.8937-2-2-2zm0 2h2v2h-2zm-2 8v2c0 1.1063.8937 2 2 2h2c1.1063 0 2-.8937 2-2v-2c0-1.1063-.8937-2-2-2h-2c-1.1063 0-2 .8937-2 2zm4 0v2h-2v-2zm-10-18c-1.1063 0-2 .8938-2 2v2c0 1.1062.8937 2 2 2h2c1.1063 0 2-.8938 2-2v-2c0-1.1062-.8937-2-2-2zm0 2h2v2h-2zm6 0v2c0 1.1062.8937 2 2 2h2c1.1063 0 2-.8938 2-2v-2c0-1.1062-.8937-2-2-2h-2c-1.1063 0-2 .8938-2 2zm4 0v2h-2v-2zm-31 10.7625c0-.5625.2375-1.0937.65-1.475l8-7.3312c.7625-.7 1.9375-.7 2.7 0l8 7.3312c.4125.3813.65.9125.65 1.475v10.2375c0 1.1063-.8937 2-2 2h-16c-1.10625 0-2-.8937-2-2zm-2 10.2375c0 2.2062 1.79375 4 4 4h16c2.2062 0 4-1.7938 4-4v-10.2375c0-1.1187-.4688-2.1937-1.3-2.95l-8-7.3313c-1.5313-1.4-3.875-1.4-5.4063 0l-7.9937 7.3313c-.83125.7563-1.3 1.825-1.3 2.95zm14-10v4h-4v-4zm-4-2c-1.1062 0-2 .8937-2 2v4c0 1.1063.8938 2 2 2h4c1.1062 0 2-.8937 2-2v-4c0-1.1063-.8938-2-2-2z"/></svg>