<svg viewBox="0 0 48 48" xmlns="http://www.w3.org/2000/svg"><g clip-rule="evenodd" fill-rule="evenodd"><path d="m42 8h-16c-1.1046 0-2 .89543-2 2v7.6202l4 3.6667v-.2869c0-.5523.4477-1 1-1h2c.5523 0 1 .4477 1 1v2c0 .5523-.4477 1-1 1h-1.0979c.0645.2863.0979.5812.0979.8798v1.1202h1c.5523 0 1 .4477 1 1v2c0 .5523-.4477 1-1 1h-1v8c0 .7286-.1948 1.4117-.5351 2h12.5351c1.1046 0 2-.8954 2-2v-28c0-1.10457-.8954-2-2-2zm-13 6c-.5523 0-1 .4477-1 1v2c0 .5523.4477 1 1 1h2c.5523 0 1-.4477 1-1v-2c0-.5523-.4477-1-1-1zm7 1c0-.5523.4477-1 1-1h2c.5523 0 1 .4477 1 1v2c0 .5523-.4477 1-1 1h-2c-.5523 0-1-.4477-1-1zm0 12c0-.5523.4477-1 1-1h2c.5523 0 1 .4477 1 1v2c0 .5523-.4477 1-1 1h-2c-.5523 0-1-.4477-1-1zm0-6c0-.5523.4477-1 1-1h2c.5523 0 1 .4477 1 1v2c0 .5523-.4477 1-1 1h-2c-.5523 0-1-.4477-1-1z"/><path d="m27.3514 23.4055-10-9.1667c-.7646-.7009-1.9382-.7009-2.7028 0l-10.00005 9.1667c-.41326.3788-.64855.9137-.64855 1.4743v13.1202c0 1.1046.89543 2 2 2h20c1.1046 0 2-.8954 2-2v-13.1202c0-.5606-.2353-1.0955-.6486-1.4743zm-14.3514 3.5945c0-1.1046.8954-2 2-2h2c1.1046 0 2 .8954 2 2v2c0 1.1046-.8954 2-2 2h-2c-1.1046 0-2-.8954-2-2z"/></g></svg>