<svg viewBox="0 0 48 48" xmlns="http://www.w3.org/2000/svg"><path d="m4 11.5c0-2.75781 2.24219-5 5-5h30c2.7578 0 5 2.24219 5 5v25c0 2.7578-2.2422 5-5 5h-30c-2.75781 0-5-2.2422-5-5zm25.2969 8.3203c-.3516-.5156-.9297-.8203-1.5469-.8203s-1.2031.3047-1.5469.8203l-6.7969 9.9688-2.0703-2.586c-.3593-.4453-.8984-.7031-1.4609-.7031s-1.1094.2578-1.4609.7031l-5.00004 6.25c-.45312.5625-.53906 1.336-.22656 1.9844s.9688 1.0625 1.6875 1.0625h7.5 2.5 16.25c.6953 0 1.3359-.3828 1.6563-1 .3203-.6172.2812-1.3594-.1094-1.9297zm-16.5469-.8203c.9946 0 1.9484-.3951 2.6517-1.0983.7032-.7033 1.0983-1.6571 1.0983-2.6517s-.3951-1.9484-1.0983-2.6517c-.7033-.7032-1.6571-1.0983-2.6517-1.0983s-1.9484.3951-2.6517 1.0983c-.70321.7033-1.0983 1.6571-1.0983 2.6517s.39509 1.9484 1.0983 2.6517c.7033.7032 1.6571 1.0983 2.6517 1.0983z"/></svg>