<svg viewBox="0 0 48 48" xmlns="http://www.w3.org/2000/svg"><path d="m1.94561 5.05462c-.5175-.405-1.275-.315-1.6875.2025-.405.5175-.3150004 1.275.2025 1.6875l45.59249 35.99248c.525.4125 1.275.33 1.6875-.195s.3225-1.275-.195-1.6875z"/><path d="m8.68715 18.9999v-2.3758l2.50005 1.9736v.4022h.5094l2.794 2.2057c-.2177.1834-.4982.2943-.8034.2943h-7.50005c-.6875 0-1.25-.5625-1.25-1.25s.5625-1.25 1.25-1.25z"/><path d="m18.8876 24.6768c.1497.2308.3734.4098.6368.5027z"/><path d="m28.3942 22.7499 3.1667 2.5h10.8762c.6875 0 1.25-.5625 1.25-1.25s-.5625-1.25-1.25-1.25z"/><path d="m35.4476 37.7499-3.1668-2.5h-12.3437c-.6875 0-1.25.5625-1.25 1.25s.5625 1.25 1.25 1.25z"/><path d="m7.8109 6.4999 3.3763 2.66546v-1.41546c0-.6875-.5625-1.25-1.25005-1.25z"/><path d="m18.6871 11.4999c0 .6875.5625 1.25 1.25 1.25h22.5c.6875 0 1.25-.5625 1.25-1.25s-.5625-1.25-1.25-1.25h-22.5c-.6875 0-1.25.5625-1.25 1.25z"/><path d="m8.27309 29.3046c.86719-.8672 2.28121-.8203 3.09371.1016.7188.8203.6954 2.0468-.0468 2.8359l-6.67191 7.1562c-.33594.3672-.42969.8985-.23438 1.3516.19532.4531.64844.75 1.14844.75h8.12505c.6875 0 1.25-.5625 1.25-1.25s-.5625-1.25-1.25-1.25h-5.25005l4.71095-5.0469c1.6172-1.7343 1.6562-4.4062.1016-6.1953-1.7579-2.0078-4.85161-2.1172-6.74224-.2265l-1.20312 1.2109c-.48438.4844-.48438 1.2812 0 1.7656.48437.4844 1.28125.4844 1.76562 0z"/></svg>