<svg viewBox="0 0 48 48" xmlns="http://www.w3.org/2000/svg"><path d="m6.18717 7.75c0 .6875.5625 1.25 1.25 1.25h1.25v10h-2.5c-.6875 0-1.25.5625-1.25 1.25s.5625 1.25 1.25 1.25h7.50003c.6875 0 1.25-.5625 1.25-1.25s-.5625-1.25-1.25-1.25h-2.5v-11.25c0-.6875-.5625-1.25-1.25003-1.25h-2.5c-.6875 0-1.25.5625-1.25 1.25zm12.50003 3.75c0 .6875.5625 1.25 1.25 1.25h22.5c.6875 0 1.25-.5625 1.25-1.25s-.5625-1.25-1.25-1.25h-22.5c-.6875 0-1.25.5625-1.25 1.25zm0 12.5c0 .6875.5625 1.25 1.25 1.25h22.5c.6875 0 1.25-.5625 1.25-1.25s-.5625-1.25-1.25-1.25h-22.5c-.6875 0-1.25.5625-1.25 1.25zm0 12.5c0 .6875.5625 1.25 1.25 1.25h22.5c.6875 0 1.25-.5625 1.25-1.25s-.5625-1.25-1.25-1.25h-22.5c-.6875 0-1.25.5625-1.25 1.25zm-10.4141-7.1953c.86719-.8672 2.2813-.8203 3.0938.1016.7187.8203.6953 2.0468-.0469 2.8359l-6.6719 7.1562c-.33593.3672-.42968.8985-.23437 1.3516s.64844.75 1.14844.75h8.12503c.6875 0 1.25-.5625 1.25-1.25s-.5625-1.25-1.25-1.25h-5.25003l4.71093-5.0469c1.6172-1.7344 1.6563-4.4062.1016-6.1953-1.7578-2.0078-4.8516-2.1172-6.74222-.2265l-1.20313 1.2109c-.48437.4844-.48437 1.2812 0 1.7656.48438.4844 1.28125.4844 1.76563 0z"/></svg>