<svg viewBox="0 0 48 48" xmlns="http://www.w3.org/2000/svg"><path d="m36.5 19.0518c0-6.9063-5.5938-12.50004-12.5-12.50004s-12.5 5.59374-12.5 12.50004c0 1.2187.4219 2.8906 1.2969 4.9531.8515 2.0234 2.0469 4.2187 3.4062 6.414 2.6641 4.3204 5.8125 8.4532 7.8047 10.9375 1.9844-2.4843 5.1406-6.6171 7.8047-10.9375 1.3516-2.1953 2.5547-4.3984 3.4063-6.414.8593-2.0625 1.2812-3.7344 1.2812-4.9531zm2.5 0c0 6.8281-9.1406 18.9843-13.1484 24-.961 1.1953-2.7422 1.1953-3.7032 0-4.0078-5.0157-13.1484-17.1719-13.1484-24 0-8.2813 6.7188-15.00004 15-15.00004s15 6.71874 15 15.00004zm-18.75 0c0 .9945.3951 1.9483 1.0983 2.6516.7033.7033 1.6571 1.0984 2.6517 1.0984s1.9484-.3951 2.6517-1.0984c.7032-.7033 1.0983-1.6571 1.0983-2.6516 0-.9946-.3951-1.9484-1.0983-2.6517-.7033-.7033-1.6571-1.0983-2.6517-1.0983s-1.9484.395-2.6517 1.0983c-.7032.7033-1.0983 1.6571-1.0983 2.6517zm3.75 6.25c-1.6576 0-3.2473-.6585-4.4194-1.8306s-1.8306-2.7618-1.8306-4.4194.6585-3.2474 1.8306-4.4195 2.7618-1.8305 4.4194-1.8305 3.2473.6584 4.4194 1.8305 1.8306 2.7619 1.8306 4.4195-.6585 3.2473-1.8306 4.4194-2.7618 1.8306-4.4194 1.8306z"/></svg>