<svg viewBox="0 0 48 48" xmlns="http://www.w3.org/2000/svg"><path d="m43.0858 38.6603-9.3515-9.3505c2.1265-3.1567 3.1758-7.1008 2.614-11.3035-.9578-7.1485-6.8171-12.96581-13.9734-13.87173-10.6398-1.34619-19.58671 7.59973-18.2403 18.23843.90625 7.1586 6.725 13.0221 13.875 13.9751 4.2031.5616 8.1484-.4872 11.3047-2.6138l9.3515 9.3506c1.2204 1.2201 3.1993 1.2201 4.4196 0 1.2192-1.2218 1.2192-3.2059.0004-4.4246zm-32.9062-18.4121c0-5.5134 4.4859-9.9989 10-9.9989s10 4.4855 10 9.9989c0 5.5135-4.4859 9.999-10 9.999s-10-4.4839-10-9.999z"/></svg>