<svg viewBox="0 0 48 48" xmlns="http://www.w3.org/2000/svg"><path d="m30.25 6.5c-.6875 0-1.25.5625-1.25 1.25s.5625 1.25 1.25 1.25h6.9844l-8.1875 8.1797c-2.3828-1.9844-5.4531-3.1797-8.7969-3.1797-7.5938 0-13.75 6.1562-13.75 13.75s6.1562 13.75 13.75 13.75 13.75-6.1562 13.75-13.75c0-3.3438-1.1953-6.4141-3.1797-8.7969l8.1797-8.1875v6.9844c0 .6875.5625 1.25 1.25 1.25s1.25-.5625 1.25-1.25v-10c0-.6875-.5625-1.25-1.25-1.25zm-21.25 21.25c0-2.9837 1.1853-5.8452 3.295-7.955 2.1098-2.1097 4.9713-3.295 7.955-3.295s5.8452 1.1853 7.955 3.295c2.1097 2.1098 3.295 4.9713 3.295 7.955s-1.1853 5.8452-3.295 7.955c-2.1098 2.1097-4.9713 3.295-7.955 3.295s-5.8452-1.1853-7.955-3.295c-2.1097-2.1098-3.295-4.9713-3.295-7.955z"/></svg>