<svg viewBox="0 0 48 48" xmlns="http://www.w3.org/2000/svg"><path d="m42.4941 4h-10.0334c-1.9087 0-2.8648 2.30341-1.5149 3.65071l2.6385 2.63399-5.0479 5.039c-2.6759-1.8409-5.7955-2.7623-8.9107-2.7623-4.2762-.0002-8.5507 1.7322-11.6819 5.2029-5.42304 6.0156-5.22611 15.5937.42308 21.3946 3.16792 3.2551 7.26152 4.8412 11.35152 4.8412 4.0205 0 8.0499-1.5309 11.1205-4.5935 5.4453-5.4346 6.0388-13.865 1.8196-19.9688l5.0479-5.039 2.6384 2.634c.4384.4312.9731.6273 1.4988.6273 1.096 0 2.1564-.8554 2.1564-2.1386v-10.09579c0-.70751-.6416-1.42571-1.5059-1.42571zm-16.7165 30.3676c-1.6707 1.6672-3.8654 2.5012-6.0592 2.5012-2.1947 0-4.3885-.8336-6.0602-2.5012-3.3415-3.3353-3.3415-8.7619 0-12.1007 1.6708-1.6672 3.8655-2.5012 6.0602-2.5012s4.3885.8337 6.0592 2.5012c3.3416 3.3326 3.3416 8.7681 0 12.1007z"/></svg>