<svg viewBox="0 0 48 48" xmlns="http://www.w3.org/2000/svg"><path d="m39.1182 18.6011-9.7188-9.71877.3672-.36719c2.6875-2.6875 7.0391-2.6875 9.7188 0 2.6796 2.68746 2.6875 7.03906 0 9.72656l-.3672.3672zm-1.7657 1.7656-.3671.3672c-1.3672 1.3672-3.1719 2.039-4.9688 2.0156l-6.7656-6.7656c-.0313-1.7969.6406-3.6016 2.0156-4.9688l.3672-.3671zm-5.3593 4.8828c2.4453.0313 4.8984-.8828 6.7578-2.7422l.3672-.3672.8828-.8828.8828-.8828.3672-.3672c3.664-3.664 3.664-9.5937 0-13.25779-3.6641-3.66406-9.5938-3.66406-13.2578-.00781l-.3672.36719-.8828.88281-.8828.89063-.3672.36718c-1.8594 1.85939-2.7735 4.31249-2.7422 6.75779l-17.57815 18.75c-.75.8047-1.17187 1.8672-1.17187 2.9688 0 1.1484.45312 2.25 1.27343 3.0703l1.9375 1.9375c.8125.8125 1.91407 1.2656 3.07029 1.2656 1.1016 0 2.1641-.4219 2.9688-1.1719l10.75-10.0859v10.0078c0 .6875.5625 1.25 1.25 1.25s1.25-.5625 1.25-1.25v-12.3516zm-20.4532 15.75c-.3437.3203-.789.5-1.2578.5-.48435 0-.9531-.1953-1.29685-.5391l-1.94531-1.9375c-.34375-.3437-.53906-.8124-.53906-1.2968 0-.4688.17968-.9141.5-1.2578l17.03122-18.1719 5.6719 5.6719z"/></svg>