<svg viewBox="0 0 48 48" xmlns="http://www.w3.org/2000/svg"><path d="m41.4375 6.5625c-3.414-3.41406-8.9609-3.41406-12.375 0l-.3672.36719 12.375 12.37501.3672-.3672c3.4141-3.4141 3.4141-8.96094 0-12.375zm-14.5078 2.13281-.3672.36719c-1.9062 1.9063-2.75 4.4688-2.5312 6.9531l7.9531 7.9532c2.4844.2187 5.0469-.625 6.9531-2.5313l.3672-.3672zm-5.0312 8.71879-1.0391 1.1953-16.25001 18.75c-.85938.9922-.80469 2.4765.125 3.4062l2.5 2.5c.92969.9297 2.41406.9844 3.40621.125l10.8594-9.414v7.5234c0 1.3828 1.1172 2.5 2.5 2.5s2.5-1.1172 2.5-2.5v-11.8594l2.8906-2.5 1.1953-1.039z"/></svg>