<svg viewBox="0 0 48 48" xmlns="http://www.w3.org/2000/svg"><path d="m34.9687 12.8203c.1875-.6172.2813-1.2734.2813-1.9453 0-3.79687-3.0781-6.875-6.875-6.875s-6.875 3.07813-6.875 6.875c0 2.3359 1.1641 4.3984 2.9375 5.6406-7.1953.3203-12.9375 6.2657-12.9375 13.5469 0 .9609.2109 1.875.5859 2.6875h-2.4609c-3.10937 0-5.625 2.5156-5.625 5.625s2.51563 5.625 5.625 5.625h30c1.0391 0 1.875-.8359 1.875-1.875s-.8359-1.875-1.875-1.875h-30c-1.03906 0-1.875-.8359-1.875-1.875s.83594-1.875 1.875-1.875h8.3125 4.1875.625 1.4844 9.6562c1.4453 0 2.6094-1.1719 2.6094-2.6094 0-1.1015-.6875-2.0781-1.7188-2.4531l-3.414-1.2422 1.8594-4.9609c.1562.0078.3125.0156.4687.0156h8.0313c1.2578 0 2.2734-1.0156 2.2734-2.2734 0-3.2422-1.5078-6.125-3.8594-8 .8516-1.1485 1.3594-2.5625 1.3594-4.1016 0-3.625-2.8047-6.59375-6.3594-6.85937 1.6094 1.59374 2.6094 3.79687 2.6094 6.23437 0 1.0859-.1953 2.125-.5625 3.0859-.7109-.25-1.4531-.4296-2.2188-.5156zm.2813 6.4922c0-.4144.1646-.8118.4576-1.1049.2931-.293.6905-.4576 1.1049-.4576s.8118.1646 1.1049.4576c.293.2931.4576.6905.4576 1.1049s-.1646.8118-.4576 1.1049c-.2931.293-.6905.4576-1.1049.4576s-.8118-.1646-1.1049-.4576c-.293-.2931-.4576-.6905-.4576-1.1049zm-6.875-11.5625c1.7266 0 3.125 1.39844 3.125 3.125v1.875c0 .6875-.5625 1.25-1.25 1.25h-1.875c-1.7266 0-3.125-1.3984-3.125-3.125 0-1.72656 1.3984-3.125 3.125-3.125z"/></svg>