<svg viewBox="0 0 48 48" xmlns="http://www.w3.org/2000/svg"><path d="m33.6406 6.85937c.4844-.23437 1.0313-.35937 1.6094-.35937 2.0703 0 3.75 1.67969 3.75 3.75 0 .75-.2188 1.4531-.6016 2.0391-.9765-.4297-2.0312-.6953-3.1484-.7657v-.0234c0-1.75-.6016-3.35938-1.6094-4.64063zm6.8907 6.73443c.6093-.9688.9687-2.1172.9687-3.3438 0-3.45313-2.7969-6.25-6.25-6.25-1.3203 0-2.5547.41406-3.5625 1.11719-1.1484-.71094-2.4922-1.11719-3.9375-1.11719-4.1484 0-7.5 3.39063-7.5 7.5234 0 2.0079.7969 3.8907 2.1484 5.2735-6.2265 1.3125-10.8984 6.8359-10.8984 13.4531 0 1.4062.4688 2.7031 1.25 3.75h-3.75c-2.75781 0-5 2.2422-5 5s2.24219 5 5 5h31.25c.6875 0 1.25-.5625 1.25-1.25s-.5625-1.25-1.25-1.25h-31.25c-1.38281 0-2.5-1.1172-2.5-2.5s1.11719-2.5 2.5-2.5h8.75 13.125.9453c1.8906 0 3.4297-1.5391 3.4297-3.4297 0-1.4765-.9453-2.789-2.3438-3.25l-.9999-.3359 1.6874-4.2344h6.6563c2.0703 0 3.75-1.6797 3.75-3.75v-.625c0-2.9375-1.3516-5.5625-3.4687-7.2812zm-22.7813 20.4062c-2.0703 0-3.75-1.6797-3.75-3.75 0-6.2109 5.0391-11.25 11.25-11.25h1.25c.6016 0 1.125-.4297 1.2266-1.0234.1015-.5938-.2266-1.1797-.7891-1.3907l-.9453-.3515c-1.9453-.7266-3.2422-2.6094-3.2422-4.7031 0-2.77349 2.2422-5.0313 5-5.0313s5 2.24219 5 5v1.25c0 .6875.5625 1.25 1.25 1.25h.625c3.7969 0 6.875 3.0781 6.875 6.875v.625c0 .6875-.5625 1.25-1.25 1.25h-7.5c-.5078 0-.9687.3125-1.1641.7891l-2.0625 5.1562-2.6328-.875c-.6562-.2187-1.3594.1328-1.5781.7891-.2188.6562.1328 1.3594.7891 1.5781l6.0078 2c.3828.125.6328.4844.6328.8828 0 .5156-.4141.9297-.9297.9297h-.9375zm12.5-23.75c0-.6875-.5625-1.25-1.25-1.25s-1.25.5625-1.25 1.25v1.25h-1.25c-.6875 0-1.25.5625-1.25 1.25s.5625 1.25 1.25 1.25h2.5c.6875 0 1.25-.5625 1.25-1.25zm7.5 8.4375c0-.4144-.1646-.8118-.4576-1.1049-.2931-.293-.6905-.4576-1.1049-.4576s-.8118.1646-1.1049.4576c-.293.2931-.4576.6905-.4576 1.1049s.1646.8118.4576 1.1049c.2931.293.6905.4576 1.1049.4576s.8118-.1646 1.1049-.4576c.293-.2931.4576-.6905.4576-1.1049z"/></svg>