<svg fill="none" height="48" viewBox="0 0 48 48" width="48" xmlns="http://www.w3.org/2000/svg"><path d="m11.5 11.5c0-2.75781 2.2422-5 5-5h22.5c2.7578 0 5 2.24219 5 5v25c0 2.7578-2.2422 5-5 5h-28.75c-3.45313 0-6.25-2.7969-6.25-6.25v-21.25c0-1.3828 1.11719-2.5 2.5-2.5s2.5 1.1172 2.5 2.5v21.25c0 .6875.5625 1.25 1.25 1.25s1.25-.5625 1.25-1.25zm5 1.875v6.25c0 1.0391.8359 1.875 1.875 1.875h8.75c1.0391 0 1.875-.8359 1.875-1.875v-6.25c0-1.0391-.8359-1.875-1.875-1.875h-8.75c-1.0391 0-1.875.8359-1.875 1.875zm16.25-.625c0 .6875.5625 1.25 1.25 1.25h3.75c.6875 0 1.25-.5625 1.25-1.25s-.5625-1.25-1.25-1.25h-3.75c-.6875 0-1.25.5625-1.25 1.25zm0 7.5c0 .6875.5625 1.25 1.25 1.25h3.75c.6875 0 1.25-.5625 1.25-1.25s-.5625-1.25-1.25-1.25h-3.75c-.6875 0-1.25.5625-1.25 1.25zm-16.25 7.5c0 .6875.5625 1.25 1.25 1.25h20c.6875 0 1.25-.5625 1.25-1.25s-.5625-1.25-1.25-1.25h-20c-.6875 0-1.25.5625-1.25 1.25zm0 7.5c0 .6875.5625 1.25 1.25 1.25h20c.6875 0 1.25-.5625 1.25-1.25s-.5625-1.25-1.25-1.25h-20c-.6875 0-1.25.5625-1.25 1.25z" fill="#475569"/></svg>