<svg viewBox="0 0 48 48" xmlns="http://www.w3.org/2000/svg"><path d="m41.4927 24.1797c-.0078 1.1015-1.0779 2.3203-2.976 2.3203h-7.6469c-3.4525 0-6.2488 2.7969-6.2488 6.25 0 .4375.0468.875.1328 1.2969.2265 1.0781.6951 2.1328 1.031 2.8906.0625.1328.1172.2578.164.375.3906.9063.539 1.4219.539 1.8359 0 1.5-.9608 2.3125-1.7731 2.3438-.2421.0078-.4843.0156-.7264.0156-9.6544-.0078-17.48879-7.8437-17.48879-17.5078s7.83439-17.5 17.49659-17.5 17.4966 7.8359 17.4966 17.5zm2.4995.0234c0-.0703 0-.1406 0-.2109 0-11.0391-8.9514-19.9922-19.9961-19.9922s-19.9961 8.9531-19.9961 20 8.9514 20 19.9961 20c.2734 0 .5546-.0078.828-.0156 2.4838-.1016 4.171-2.3516 4.171-4.8438 0-1.1328-.4764-2.2109-.9451-3.2812-.3359-.7657-.6796-1.5391-.8436-2.336-.0547-.25-.0781-.5078-.0781-.7734 0-2.0703 1.6794-3.75 3.7493-3.75h7.6469c2.851 0 5.4443-1.9375 5.4755-4.7891zm-28.1195-.2031c0-.4973-.1975-.9742-.5491-1.3258-.3515-.3517-.8284-.5492-1.3256-.5492-.4971 0-.974.1975-1.3255.5492-.3516.3516-.5491.8285-.5491 1.3258s.1975.9742.5491 1.3258c.3515.3517.8284.5492 1.3255.5492.4972 0 .9741-.1975 1.3256-.5492.3516-.3516.5491-.8285.5491-1.3258zm.6249-5.625c.4971 0 .974-.1975 1.3255-.5492.3516-.3516.5491-.8285.5491-1.3258s-.1975-.9742-.5491-1.3258c-.3515-.3517-.8284-.5492-1.3255-.5492-.4972 0-.974.1975-1.3256.5492-.3516.3516-.5491.8285-.5491 1.3258s.1975.9742.5491 1.3258c.3516.3517.8284.5492 1.3256.5492zm9.3731-4.375c0-.4973-.1975-.9742-.549-1.3258-.3516-.3517-.8284-.5492-1.3256-.5492s-.974.1975-1.3256.5492c-.3515.3516-.549.8285-.549 1.3258s.1975.9742.549 1.3258c.3516.3517.8284.5492 1.3256.5492s.974-.1975 1.3256-.5492c.3515-.3516.549-.8285.549-1.3258zm5.6239 4.375c.4972 0 .974-.1975 1.3256-.5492.3516-.3516.5491-.8285.5491-1.3258s-.1975-.9742-.5491-1.3258c-.3516-.3517-.8284-.5492-1.3256-.5492s-.974.1975-1.3255.5492c-.3516.3516-.5491.8285-.5491 1.3258s.1975.9742.5491 1.3258c.3515.3517.8283.5492 1.3255.5492z"/></svg>