<svg viewBox="0 0 48 48" xmlns="http://www.w3.org/2000/svg"><path d="m27.0554 13.978c1.47.3967 3.2046-1.001 3.7843-3.1187.5797-2.11767-.177-4.16259-1.6848-4.55908-1.47-.39673-3.2046 1.00098-3.7843 3.11866-.5811 2.11772.1758 4.16352 1.6848 4.55912z"/><path d="m20.951 13.978c1.5075-.3968 2.2645-2.3975 1.6848-4.55912-.5797-2.16163-2.2709-3.47168-3.7843-3.11866-1.5075.39673-2.2645 2.39746-1.6848 4.55908.5807 2.1177 2.2704 3.519 3.7843 3.1187z"/><path d="m13.317 12.5463c1.4221-.3418 2.9912.7569 3.4976 2.4473.503 1.6894-.2339 3.3398-1.656 3.6816s-2.9912-.7568-3.4976-2.4511c-.5067-1.6895.2339-3.336 1.656-3.6778z"/><path d="m14.6707 25.3842c0-3.7842 5.4564-9.7754 9.3325-9.7754 3.8776 0 9.3325 5.9961 9.3735 9.7778 0 .6817-.2164 1.2539-.6141 1.695-6.2215-1.0857-11.3022-1.0858-17.5235-.0003-.3864-.4416-.5856-1.0145-.5684-1.6971z"/><path d="m31.1957 14.9946c.5065-1.6905 2.0755-2.7452 3.4976-2.4473 1.3772.3418 2.1586 1.9873 1.6541 3.6802-.5128 1.6904-2.0755 2.7451-3.4976 2.4472-1.4221-.3418-2.1605-1.9892-1.6541-3.6801z"/><path d="m10.8837 33.7478c-.1442-1.654.0946-3.4696 1.1163-3.9805 9-2 15-2 24 .0001 1.0217.5108 1.2605 2.3264 1.1163 3.9804-.1035 1.1879-.4045 2.2924-.7549 2.7705-.1168.1593-.2391.249-.3614.249-2.4639-.5475-4.703-.9451-6.8403-1.1929-3.5324-.4094-6.787-.4094-10.3194 0-2.1373.2478-4.3764.6454-6.8403 1.1929-.4892 0-.9783-1.4356-1.1163-3.0195z"/><path d="m5.38697 34.7673c1.22283-.2717 2.39027-.5065 3.51738-.7044.08466.8582.25852 1.711.50561 2.4143.13215.3761.32071.8128.59604 1.1964.2025.2822.849 1.0937 1.994 1.0937.1459 0 .2914-.0159.4339-.0476 2.3388-.5197 4.4607-.9 6.4823-1.1407-.1639 1.0295-.6426 2.0006-1.4361 2.6884-3.7811-.0083-7.55589.4917-12.09314 1.4999-1.3549 0-.47984-.9644.44887-1.988.67363-.7424 1.37548-1.5159 1.27504-1.9751-.08743-.3997-.85592-.7628-1.60712-1.1178-1.30153-.615-2.55116-1.2054-.11678-1.9191z"/><path d="m39.0956 34.0629c1.1272.1979 2.2946.4327 3.5174.7044 2.4344.7137 1.1848 1.3041-.1167 1.9191-.7513.355-1.5197.7181-1.6072 1.1178-.1004.4592.6014 1.2327 1.2751 1.9751.9287 1.0236 1.8037 1.988.4488 1.988-4.5372-1.0082-8.312-1.5082-12.0931-1.4999-.7935-.6878-1.2722-1.6589-1.4361-2.6884 2.0216.2407 4.1435.621 6.4823 1.1407.1425.0317.288.0476.4339.0476 1.145 0 1.7915-.8115 1.994-1.0937.2753-.3836.4639-.8203.596-1.1964.2471-.7033.421-1.5561.5056-2.4143z"/></svg>