<svg viewBox="0 0 48 48" xmlns="http://www.w3.org/2000/svg"><path d="m24.0027 21.5007c-6.2017 0-14.93199 9.586-14.93199 15.6406-.06876 2.7266 2.02059 4.3594 5.53989 4.3594 3.8131 0 6.3369-1.9609 9.3921-1.9609 3.0864 0 5.6181 1.9609 9.3921 1.9609 3.4458 0 5.6055-1.6312 5.6055-4.3555-.0656-6.0507-8.7935-15.6445-14.9976-15.6445zm-11.5018-.9844c-.8103-2.7046-3.3208-4.4625-5.59615-3.9156s-3.46022 3.1813-2.64963 5.8844c.81028 2.7109 3.32083 4.4687 5.59618 3.9219 2.2754-.5469 3.4544-3.1875 2.6496-5.8907zm6.6182-1.625c2.4121-.6347 3.6233-3.8359 2.6958-7.2945-.9275-3.45858-3.6334-5.55468-6.0549-4.98983-2.4121.63476-3.6232 3.83593-2.6957 7.29453.929 3.3883 3.6326 5.6305 6.0548 4.9898zm21.9878-2.289c-2.2753-.4766-4.7859 1.2109-5.5962 3.9156-.8102 2.7055.3712 5.3414 2.6465 5.8883 2.2754.4766 4.7758-1.211 5.5962-3.9156.8072-2.7086-.443-5.3414-2.6465-5.8883zm-12.2206 2.289c2.3519.6348 5.1273-1.6015 6.0548-4.9898s-.2832-6.66016-2.6957-7.29453c-2.3519-.63477-5.1274 1.60156-6.0549 4.98983-.9298 3.3883.2813 6.6617 2.6958 7.2945z"/></svg>