<svg fill="none" height="40" viewBox="0 0 40 40" width="40" xmlns="http://www.w3.org/2000/svg"><path d="m20.0032 17.5c-6.2017 0-14.932 9.5859-14.932 15.6406-.06876 2.7266 2.02062 4.3594 5.5399 4.3594 3.8131 0 6.3369-1.961 9.3921-1.961 3.0864 0 5.6181 1.961 9.3921 1.961 3.4458 0 5.6055-1.6313 5.6055-4.3555-.0656-6.0508-8.7935-15.6445-14.9976-15.6445zm-11.50178-.9844c-.81028-2.7047-3.32083-4.4625-5.59618-3.9156-2.275356.5469-3.460227 3.1812-2.649632 5.8844.810282 2.7109 3.320822 4.4687 5.596182 3.9218 2.27535-.5468 3.45444-3.1875 2.64963-5.8906zm6.61818-1.625c2.4121-.6348 3.6232-3.8359 2.6958-7.29452-.9275-3.45859-3.6334-5.55469-6.0549-4.98984-2.41208.63476-3.6232 3.83593-2.69571 7.29453.92905 3.38823 3.63261 5.63043 6.05481 4.98983zm21.9878-2.2891c-2.2753-.4765-4.7859 1.211-5.5962 3.9157-.8102 2.7054.3712 5.3414 2.6465 5.8883 2.2754.4765 4.7758-1.211 5.5962-3.9157.8072-2.7086-.443-5.3414-2.6465-5.8883zm-12.2206 2.2891c2.3519.6348 5.1273-1.6016 6.0548-4.98983.9275-3.38828-.2832-6.66016-2.6957-7.29453-2.3519-.63477-5.1274 1.60156-6.0549 4.98984-.9298 3.38832.2813 6.66172 2.6958 7.29452z" fill="#475569"/></svg>