<svg viewBox="0 0 48 48" xmlns="http://www.w3.org/2000/svg"><path d="m26.2716 34.6875c.3404 2.7431 2.6812 4.8611 5.5153 4.8611h9.6692c-1.4726 0-2.6048-.7986-3.2786-1.7292-.6599-.9097-.9864-2.0833-.8683-3.243.0208-.1875.0278-.382.0278-.5764 0-2.8333-2.1186-5.1736-4.8624-5.5139l1.8407-1.8403c3.0495 1.0486 5.2445 3.9445 5.2445 7.3542 0 .2708-.0139.5417-.0417.8056-.125 1.2152.7085 2.5277 1.9311 2.5277h.3334c1.2295 0 2.2228.9931 2.2228 2.2223 0 1.2291-.9933 2.2222-2.2228 2.2222h-10.0026c-3.4106 0-6.3072-2.1945-7.3561-5.2431zm-12.9895-12.9167-7.97431-7.9652c-1.73656-1.7362-1.73656-4.54866 0-6.28477 1.73657-1.73611 4.5498-1.73611 6.28641 0l7.9743 7.96527-1.5699 1.5695-7.9743-7.96532c-.86828-.86806-2.27837-.86806-3.14665 0-.86828.86805-.86828 2.27782 0 3.14582l7.97425 7.9653zm22.8045-12.80552c-.6529-.65278-1.7087-.65278-2.3547 0l-3.8135 3.80552 5.3208 5.3195 3.8065-3.8056c.653-.6528.653-1.7083 0-2.3541zm-24.0826 21.72222c-.5279.5278-.91 1.1736-1.1184 1.8889l-1.90324 6.4444 6.44614-1.8958c.7154-.2083 1.3615-.5972 1.8894-1.1181l16.3514-16.3472-5.3208-5.3194zm20.1511-23.29167c1.5212-1.52083 3.9802-1.52083 5.5014 0l2.9591 2.95837c1.5212 1.5208 1.5212 3.9791 0 5.5l-21.7209 21.7222c-.7919.7917-1.7644 1.368-2.8341 1.6805l-8.40497 2.4723c-.38899.118-.81271.0069-1.09751-.2778s-.39594-.7083-.27785-1.0972l2.47287-8.4028c.31258-1.0695.89606-2.0417 1.68096-2.8333z"/></svg>