<svg viewBox="0 0 48 48" xmlns="http://www.w3.org/2000/svg"><path d="m10.6398 7.36206 9.0764 9.07634-5.5 5.5-9.07643-9.0763c-1.52083-1.5209-1.52083-3.97921 0-5.50004s3.97917-1.52083 5.50003 0zm21.1389 34.41664c-3.7223 0-6.8403-2.618-7.5973-6.118l9.257-9.257c3.493.7639 6.118 3.875 6.118 7.5973 0 .2708-.0139.5416-.0416.8055-.125 1.2153.7083 2.5278 1.9305 2.5278h.3334c1.2291 0 2.2222.993 2.2222 2.2222s-.9931 2.2222-2.2222 2.2222zm7.0347-34.21525 1.625 1.625c1.7361 1.73615 1.7361 4.54865 0 6.28475l-3.9167 3.9166-7.9167-7.9097 3.9167-3.91665c1.7361-1.73611 4.5486-1.73611 6.2847 0zm-29.47224 23.18755 17.69444-17.7014 7.9167 7.9166-17.7014 17.6945c-.4653.4653-1.0486.8055-1.6806.9861l-7.2222 2.0625c-.58333.1667-1.20833.0069-1.63888-.4236-.43056-.4306-.59028-1.0556-.42362-1.6389l2.0625-7.2222c.18056-.6389.52084-1.2153.98612-1.6806z"/></svg>