<svg fill="none" height="48" viewBox="0 0 48 48" width="48" xmlns="http://www.w3.org/2000/svg"><path d="m32.8461 5.29321-4.3868 4.39338 9.8604 9.85751 4.3867-4.3855c1.7248-1.7243 1.7248-4.5114 0-6.23573l-3.6228-3.62966c-1.7248-1.72428-4.5128-1.72428-6.2375 0zm-6.3321 6.00739-.7245.2205-11.3489 3.4013c-1.5672.4724-2.8116 1.6692-3.3314 3.2281l-6.97782 20.8017c-.29928.8897-.07876 1.8817.57492 2.551l12.097-12.0858c-.2362-.496-.3701-1.0471-.3701-1.6298 0-2.0864 1.6932-3.7792 3.7803-3.7792s3.7803 1.6928 3.7803 3.7792c0 2.0865-1.6932 3.7793-3.7803 3.7793-.5828 0-1.1341-.1339-1.6303-.3701l-12.097 12.0936c.67731.6535 1.66177.8819 2.55172.5748l20.81538-6.9759c1.5515-.5196 2.7565-1.7636 3.229-3.3304l3.4023-11.3457.2206-.7243z" fill="#475569"/></svg>