<svg viewBox="0 0 48 48" xmlns="http://www.w3.org/2000/svg"><path d="m16.07 9c0-.66304-.2634-1.29893-.7323-1.76777-.4688-.46884-1.1047-.73223-1.7677-.73223-.6631 0-1.299.26339-1.7678.73223s-.7322 1.10473-.7322 1.76777.2634 1.2989.7322 1.7678c.4688.4688 1.1047.7322 1.7678.7322.663 0 1.2989-.2634 1.7677-.7322.4689-.4689.7323-1.10476.7323-1.7678zm-7.50003 0c0-1.32608.52679-2.59785 1.46443-3.53553.9377-.93769 2.2095-1.46447 3.5356-1.46447s2.5978.52678 3.5355 1.46447c.9377.93768 1.4645 2.20945 1.4645 3.53553 0 1.3261-.5268 2.5979-1.4645 3.5355-.9377.9377-2.2094 1.4645-3.5355 1.4645s-2.5979-.5268-3.5356-1.4645c-.93764-.9376-1.46443-2.2094-1.46443-3.5355zm-.48437 13.4375-.32031 3.8516c-.125 1.4609 1.02343 2.7109 2.49221 2.7109h6.6328c1.4609 0 2.6094-1.25 2.4922-2.7109l-.3282-3.8516c-.164-1.9453-1.789-3.4375-3.7343-3.4375h-3.5c-1.95315 0-3.57815 1.4922-3.7344 3.4375zm-2.49219-.2109c.26563-3.2344 2.97656-5.7266 6.22659-5.7266h3.5c3.25 0 5.9609 2.4922 6.2265 5.7344l.3203 3.8515c.1954 2.3282-1.2265 4.3828-3.2968 5.125v11.5391c0 .6875-.5625 1.25-1.25 1.25s-1.25-.5625-1.25-1.25v-11.25h-5v11.25c0 .6875-.5625 1.25-1.25003 1.25-.6875 0-1.25-.5625-1.25-1.25v-11.5391c-2.07031-.7422-3.49218-2.7968-3.29687-5.125l.32031-3.8515zm30.47659-13.2266c0-.66304-.2634-1.29893-.7323-1.76777-.4688-.46884-1.1047-.73223-1.7677-.73223-.6631 0-1.299.26339-1.7678.73223s-.7322 1.10473-.7322 1.76777.2634 1.2989.7322 1.7678c.4688.4688 1.1047.7322 1.7678.7322.663 0 1.2989-.2634 1.7677-.7322.4689-.4689.7323-1.10476.7323-1.7678zm-7.5 0c0-1.32608.5268-2.59785 1.4644-3.53553.9377-.93769 2.2095-1.46447 3.5356-1.46447s2.5978.52678 3.5355 1.46447c.9377.93768 1.4645 2.20945 1.4645 3.53553 0 1.3261-.5268 2.5979-1.4645 3.5355-.9377.9377-2.2094 1.4645-3.5355 1.4645s-2.5979-.5268-3.5356-1.4645c-.9376-.9376-1.4644-2.2094-1.4644-3.5355zm1.3672 11.8125-3.0547 10.6875h13.375l-3.0547-10.6875c-.3047-1.0703-1.2891-1.8125-2.4063-1.8125h-2.4531c-1.1172 0-2.0937.7422-2.4062 1.8125zm-2.4063-.6875c.6094-2.1484 2.5781-3.625 4.8047-3.625h2.4531c2.2344 0 4.1953 1.4766 4.8047 3.625l3.0547 10.6875c.4531 1.5938-.7422 3.1875-2.4063 3.1875h-1.6718v8.75c0 .6875-.5625 1.25-1.25 1.25s-1.25-.5625-1.25-1.25v-8.75h-5v8.75c0 .6875-.5625 1.25-1.25 1.25s-1.25-.5625-1.25-1.25v-8.75h-1.6875c-1.6641 0-2.8594-1.5859-2.4063-3.1875z"/></svg>