<svg viewBox="0 0 48 48" xmlns="http://www.w3.org/2000/svg"><path d="m25 20c2.9195 0 5.4179 1.7836 6.4688 4.3213-.9423.4009-1.8295.9064-2.6475 1.501-.1687-.5471-.4504-1.0445-.8213-1.46v2.1074c-2.9064 2.4762-4.75 6.1628-4.75 10.2803 0 .4215.0198.8384.0576 1.25h-1.3076c-1.1062 0-2-.8938-2-2v-2.6748c-2.3625-1.125-4-3.5315-4-6.3252 0-3.8687 3.1312-7 7-7zm-5 4.3564c-.6249.7063-1 1.6312-1 2.6436s.3751 1.9373 1 2.6436z"/><path d="m13 19c1.5 0 2.8879.4686 4.0254 1.2686v.0068c-1.8563 1.6437-3.0254 4.0496-3.0254 6.7246 0 2.1437.75 4.1125 2 5.6562v1.3438c0 1.1062-.8938 2-2 2h-4c-1.10625 0-2-.8938-2-2v-1.6748c-2.3625-1.125-4-3.5315-4-6.3252 0-3.8687 3.13125-7 7-7zm-5 4.3564c-.62494.7-1 1.6312-1 2.6436s.37506 1.9436 1 2.6436z"/><path d="m37 19c3.6461 0 6.6355 2.7813 6.9678 6.3398-1.1273-.7146-2.3678-1.2662-3.6885-1.623-.0868-.1233-.1792-.2424-.2793-.3545v.2822c-1.041-.2573-2.1295-.3945-3.25-.3945-1.1688 0-2.3032.1475-3.3848.4268-.5236-1.3168-1.3485-2.4819-2.3906-3.4082 1.1375-.8 2.5254-1.2686 4.0254-1.2686z"/><path d="m24 10c2.2062 0 4 1.7938 4 4s-1.7938 4-4 4-4-1.7938-4-4 1.7938-4 4-4z"/><path d="m12 10c1.9312 0 3.5 1.5688 3.5 3.5s-1.5688 3.5-3.5 3.5-3.5-1.5688-3.5-3.5 1.5688-3.5 3.5-3.5z"/><path d="m36 10c1.9312 0 3.5 1.5688 3.5 3.5s-1.5688 3.5-3.5 3.5-3.5-1.5688-3.5-3.5 1.5688-3.5 3.5-3.5z"/><path d="m36.75 48c2.9837 0 5.8452-1.1853 7.9549-3.295 2.1098-2.1098 3.2951-4.9713 3.2951-7.955s-1.1853-5.8452-3.2951-7.955c-2.1097-2.1097-4.9712-3.295-7.9549-3.295s-5.8452 1.1853-7.955 3.295c-2.1097 2.1098-3.295 4.9713-3.295 7.955s1.1853 5.8452 3.295 7.955c2.1098 2.1097 4.9713 3.295 7.955 3.295zm1.25-16.25v3.75h3.75c.6875 0 1.25.5625 1.25 1.25s-.5625 1.25-1.25 1.25h-3.75v3.75c0 .6875-.5625 1.25-1.25 1.25s-1.25-.5625-1.25-1.25v-3.75h-3.75c-.6875 0-1.25-.5625-1.25-1.25s.5625-1.25 1.25-1.25h3.75v-3.75c0-.6875.5625-1.25 1.25-1.25s1.25.5625 1.25 1.25z"/></svg>