<svg viewBox="0 0 48 48" xmlns="http://www.w3.org/2000/svg"><path d="m12 12c.197 0 .392.0388.574.1142s.3474.1859.4867.3251c.1392.1393.2497.3047.3251.4867s.1142.377.1142.574-.0388.392-.1142.574-.1859.3474-.3251.4867c-.1393.1392-.3047.2497-.4867.3251s-.377.1142-.574.1142-.392-.0388-.574-.1142-.3474-.1859-.4867-.3251c-.1392-.1393-.2497-.3047-.3251-.4867s-.1142-.377-.1142-.574.0388-.392.1142-.574.1859-.3474.3251-.4867c.1393-.1392.3047-.2497.4867-.3251s.377-.1142.574-.1142zm0 5c.4596 0 .9148-.0905 1.3394-.2664s.8105-.4337 1.1355-.7587.5828-.7109.7587-1.1355.2664-.8798.2664-1.3394-.0905-.9148-.2664-1.3394-.4337-.8105-.7587-1.1355-.7109-.5828-1.1355-.7587-.8798-.2664-1.3394-.2664-.9148.0905-1.3394.2664-.81047.4337-1.13547.7587c-.32501.325-.58282.7109-.75871 1.1355s-.26642.8798-.26642 1.3394.09053.9148.26642 1.3394.4337.8105.75871 1.1355c.325.325.71087.5828 1.13547.7587s.8798.2664 1.3394.2664zm-8 8.5c0 2.7062 1.65 5.025 4 6v3c0 .8312.66875 1.5 1.5 1.5h5c.8313 0 1.5-.6688 1.5-1.5v-2.5c0-.55-.45-1-1-1s-1 .45-1 1v2h-4v-12.975c.1625-.0188.3313-.025.5-.025h3c.5813 0 1.1312.1062 1.6375.3062.5125.2 1.0937-.0562 1.2937-.5687s-.0562-1.0937-.5687-1.2937c-.7312-.2876-1.5312-.4438-2.3625-.4438h-3c-3.5875 0-6.5 2.9125-6.5 6.5zm4 3.7437c-1.20625-.8062-2-2.1875-2-3.7437 0-1.5625.79375-2.9375 2-3.7437zm28-17.2437c.197 0 .392.0388.574.1142s.3474.1859.4867.3251c.1392.1393.2497.3047.3251.4867s.1142.377.1142.574-.0388.392-.1142.574-.1859.3474-.3251.4867c-.1393.1392-.3047.2497-.4867.3251s-.377.1142-.574.1142-.392-.0388-.574-.1142-.3474-.1859-.4867-.3251c-.1392-.1393-.2497-.3047-.3251-.4867s-.1142-.377-.1142-.574.0388-.392.1142-.574.1859-.3474.3251-.4867c.1393-.1392.3047-.2497.4867-.3251s.377-.1142.574-.1142zm0 5c.4596 0 .9148-.0905 1.3394-.2664s.8105-.4337 1.1355-.7587.5828-.7109.7587-1.1355.2664-.8798.2664-1.3394-.0905-.9148-.2664-1.3394-.4337-.8105-.7587-1.1355-.7109-.5828-1.1355-.7587-.8798-.2664-1.3394-.2664-.9148.0905-1.3394.2664-.8105.4337-1.1355.7587-.5828.7109-.7587 1.1355-.2664.8798-.2664 1.3394.0905.9148.2664 1.3394.4337.8105.7587 1.1355.7109.5828 1.1355.7587.8798.2664 1.3394.2664zm8 8.5c0-3.5875-2.9125-6.5-6.5-6.5h-3c-.8312 0-1.6312.1562-2.3625.4438-.5125.2-.7688.7812-.5687 1.2937.2.5125.7812.7687 1.2937.5687.5062-.2 1.0563-.3062 1.6375-.3062h3c.1688 0 .3375.0062.5.025v12.975h-4v-2c0-.55-.45-1-1-1s-1 .45-1 1v2.5c0 .8312.6688 1.5 1.5 1.5h5c.8312 0 1.5-.6688 1.5-1.5v-3c2.35-.9813 4-3.2938 4-6zm-4 3.7437v-7.4874c1.2062.8062 2 2.1812 2 3.7437 0 1.5562-.7938 2.9375-2 3.7437zm-18-15.2437c0-.5304.2107-1.0391.5858-1.4142s.8838-.5858 1.4142-.5858 1.0391.2107 1.4142.5858.5858.8838.5858 1.4142-.2107 1.0391-.5858 1.4142-.8838.5858-1.4142.5858-1.0391-.2107-1.4142-.5858-.5858-.8838-.5858-1.4142zm6 0c0-1.0609-.4214-2.0783-1.1716-2.8284-.7501-.7502-1.7675-1.1716-2.8284-1.1716s-2.0783.4214-2.8284 1.1716c-.7502.7501-1.1716 1.7675-1.1716 2.8284s.4214 2.0783 1.1716 2.8284c.7501.7502 1.7675 1.1716 2.8284 1.1716s2.0783-.4214 2.8284-1.1716c.7502-.7501 1.1716-1.7675 1.1716-2.8284zm-5 6c-3.5875 0-6.5 2.9125-6.5 6.5 0 2.5063 1.4187 4.6812 3.5 5.7687v4.2313c0 .8312.6688 1.5 1.5 1.5h5c.8312 0 1.5-.6688 1.5-1.5v-4.2313c2.0812-1.0812 3.5-3.2562 3.5-5.7687 0-3.5875-2.9125-6.5-6.5-6.5zm-3 3.1438v6.7125c-.9187-.8251-1.5-2.0251-1.5-3.3563 0-1.3313.5813-2.5312 1.5-3.3562zm2 12.8562v-13.8875c.3188-.075.6562-.1125 1-.1125h2c.3438 0 .6812.0375 1 .1125v13.8875zm6-6.1437v-6.7125c.9188.825 1.5 2.0187 1.5 3.3562 0 1.3312-.5812 2.5312-1.5 3.3563z"/></svg>