<svg viewBox="0 0 48 48" xmlns="http://www.w3.org/2000/svg"><path d="m25 20c2.8723 0 5.3104 1.8675 6.1689 4.4531-.6258.2845-1.2255.6164-1.7959.9893-.2174-.9034-.7049-1.6989-1.373-2.2988v3.3261c-.7398.6303-1.4108 1.339-2 2.1133v-6.4707c-.3187-.075-.6563-.1123-1-.1123h-2c-.3437 0-.6813.0373-1 .1123v13.8877h1.2715c-.0136.2483-.0215.4983-.0215.75 0 .4215.0198.8384.0576 1.25h-1.8076c-.8313 0-1.5-.6687-1.5-1.5v-4.2314c-2.0812-1.0876-3.5-3.2624-3.5-5.7686 0-3.5875 2.9125-6.5 6.5-6.5zm-5 3.1436c-.9187.825-1.5 2.0252-1.5 3.3564s.5813 2.5314 1.5 3.3564z"/><path d="m13.5 19c.8311 0 1.6311.1559 2.3623.4434.5124.1999.7691.7815.5693 1.2939-.1999.5124-.7815.7691-1.2939.5693-.5063-.2-1.0564-.3066-1.6377-.3066h-3c-.1688 0-.3375.0066-.5.0254v12.9746h4v-2c0-.55.45-1 1-1s1 .45 1 1v2.5c0 .8313-.6687 1.5-1.5 1.5h-5c-.83125 0-1.5-.6687-1.5-1.5v-3c-2.35-.975-4-3.2938-4-6 0-3.5875 2.9125-6.5 6.5-6.5zm-5.5 2.7559c-1.20625.8062-2 2.1816-2 3.7441 0 1.5562.79375 2.9379 2 3.7441z"/><path d="m37.5 19c3.5398 0 6.4201 2.8357 6.4961 6.3574-.6864-.4375-1.4154-.8137-2.1787-1.123-.2994-1.0252-.9507-1.8992-1.8174-2.4785v1.8886c-.6495-.1605-1.3173-.2742-2-.3369v-2.2822c-.1625-.0188-.3312-.0254-.5-.0254h-3c-.5813 0-1.1314.1066-1.6377.3066-.5124.1998-1.094-.0569-1.2939-.5693-.1998-.5124.0569-1.094.5693-1.2939.7312-.2875 1.5312-.4434 2.3623-.4434z"/><path d="m24 10c1.0609 0 2.078.4217 2.8281 1.1719.7502.7501 1.1719 1.7672 1.1719 2.8281s-.4217 2.078-1.1719 2.8281c-.7501.7502-1.7672 1.1719-2.8281 1.1719s-2.078-.4217-2.8281-1.1719c-.7502-.7501-1.1719-1.7672-1.1719-2.8281s.4217-2.078 1.1719-2.8281c.7501-.7502 1.7672-1.1719 2.8281-1.1719zm0 2c-.5304 0-1.039.2109-1.4141.5859-.375.3751-.5859.8837-.5859 1.4141s.2109 1.039.5859 1.4141c.3751.375.8837.5859 1.4141.5859s1.039-.2109 1.4141-.5859c.375-.3751.5859-.8837.5859-1.4141s-.2109-1.039-.5859-1.4141c-.3751-.375-.8837-.5859-1.4141-.5859z"/><path d="m12 10c.4596 0 .9152.0907 1.3398.2666.4245.1759.8099.4339 1.1348.7588s.5829.7103.7588 1.1348c.1759.4246.2666.8802.2666 1.3398s-.0907.9152-.2666 1.3398c-.1759.4245-.4339.8099-.7588 1.1348s-.7103.5829-1.1348.7588c-.4246.1759-.8802.2666-1.3398.2666s-.9152-.0907-1.3398-.2666c-.4245-.1759-.80992-.4339-1.13481-.7588s-.5829-.7103-.75879-1.1348c-.17589-.4246-.2666-.8802-.2666-1.3398s.09071-.9152.2666-1.3398c.17589-.4245.4339-.8099.75879-1.1348s.71031-.5829 1.13481-.7588c.4246-.1759.8802-.2666 1.3398-.2666zm0 2c-.197 0-.3922.0389-.5742.1143-.1819.0753-.3471.1859-.4863.3252-.1393.1392-.2499.3044-.3252.4863-.0754.182-.1143.3772-.1143.5742s.0389.3922.1143.5742c.0753.1819.1859.3471.3252.4863.1392.1393.3044.2499.4863.3252.182.0754.3772.1143.5742.1143s.3922-.0389.5742-.1143c.1819-.0753.3471-.1859.4863-.3252.1393-.1392.2499-.3044.3252-.4863.0754-.182.1143-.3772.1143-.5742s-.0389-.3922-.1143-.5742c-.0753-.1819-.1859-.3471-.3252-.4863-.1392-.1393-.3044-.2499-.4863-.3252-.182-.0754-.3772-.1143-.5742-.1143z"/><path d="m36 10c.4596 0 .9152.0907 1.3398.2666.4245.1759.8099.4339 1.1348.7588s.5829.7103.7588 1.1348c.1759.4246.2666.8802.2666 1.3398s-.0907.9152-.2666 1.3398c-.1759.4245-.4339.8099-.7588 1.1348s-.7103.5829-1.1348.7588c-.4246.1759-.8802.2666-1.3398.2666s-.9152-.0907-1.3398-.2666c-.4245-.1759-.8099-.4339-1.1348-.7588s-.5829-.7103-.7588-1.1348c-.1759-.4246-.2666-.8802-.2666-1.3398s.0907-.9152.2666-1.3398c.1759-.4245.4339-.8099.7588-1.1348s.7103-.5829 1.1348-.7588c.4246-.1759.8802-.2666 1.3398-.2666zm0 2c-.197 0-.3922.0389-.5742.1143-.1819.0753-.3471.1859-.4863.3252-.1393.1392-.2499.3044-.3252.4863-.0754.182-.1143.3772-.1143.5742s.0389.3922.1143.5742c.0753.1819.1859.3471.3252.4863.1392.1393.3044.2499.4863.3252.182.0754.3772.1143.5742.1143s.3922-.0389.5742-.1143c.1819-.0753.3471-.1859.4863-.3252.1393-.1392.2499-.3044.3252-.4863.0754-.182.1143-.3772.1143-.5742s-.0389-.3922-.1143-.5742c-.0753-.1819-.1859-.3471-.3252-.4863-.1392-.1393-.3044-.2499-.4863-.3252-.182-.0754-.3772-.1143-.5742-.1143z"/><path d="m45.5 36.75c0-2.3206-.9219-4.5462-2.5628-6.1872-1.641-1.6409-3.8666-2.5628-6.1872-2.5628s-4.5462.9219-6.1872 2.5628c-1.6409 1.641-2.5628 3.8666-2.5628 6.1872s.9219 4.5462 2.5628 6.1872c1.641 1.6409 3.8666 2.5628 6.1872 2.5628s4.5462-.9219 6.1872-2.5628c1.6409-1.641 2.5628-3.8666 2.5628-6.1872zm-20 0c0-2.9837 1.1853-5.8452 3.295-7.955 2.1098-2.1097 4.9713-3.295 7.955-3.295s5.8452 1.1853 7.9549 3.295c2.1098 2.1098 3.2951 4.9713 3.2951 7.955s-1.1853 5.8452-3.2951 7.9549c-2.1097 2.1098-4.9712 3.2951-7.9549 3.2951s-5.8452-1.1853-7.955-3.2951c-2.1097-2.1097-3.295-4.9712-3.295-7.9549zm12.5-5v3.75h3.75c.6875 0 1.25.5625 1.25 1.25s-.5625 1.25-1.25 1.25h-3.75v3.75c0 .6875-.5625 1.25-1.25 1.25s-1.25-.5625-1.25-1.25v-3.75h-3.75c-.6875 0-1.25-.5625-1.25-1.25s.5625-1.25 1.25-1.25h3.75v-3.75c0-.6875.5625-1.25 1.25-1.25s1.25.5625 1.25 1.25z"/></svg>