<svg viewBox="0 0 48 48" xmlns="http://www.w3.org/2000/svg"><path d="m6.84351 11.1326c0-1.13752.45188-2.22847 1.25625-3.03284s1.89532-1.25625 3.03284-1.25625c1.1376 0 2.2285.45188 3.0329 1.25625s1.2563 1.89532 1.2563 3.03284c0 1.1376-.4519 2.2285-1.2563 3.0329s-1.8953 1.2563-3.0329 1.2563c-1.13752 0-2.22847-.4519-3.03284-1.2563s-1.25625-1.8953-1.25625-3.0329zm-2.55337 11.3528c.22786-2.7812 2.55337-4.9191 5.3413-4.9191h3.00236c1.8095 0 3.4179.8981 4.3897 2.2853-.181.1273-.3485.2681-.5027.4222l-4.2891 4.2891c-1.4677 1.4677-1.4677 3.8402 0 5.3078l3.1901 3.1901v4.8789c0 1.7759-1.4409 3.2168-3.2169 3.2168h-2.1446c-1.77592 0-3.21679-1.4409-3.21679-3.2168v-7.754c-1.77597-.6366-2.99569-2.3992-2.82815-4.3963zm28.28806-11.3528c0-1.13752.4519-2.22847 1.2563-3.03284s1.8953-1.25625 3.0329-1.25625c1.1375 0 2.2285.45188 3.0328 1.25625.8044.80437 1.2563 1.89532 1.2563 3.03284 0 1.1376-.4519 2.2285-1.2563 3.0329-.8043.8044-1.8953 1.2563-3.0328 1.2563-1.1376 0-2.2285-.4519-3.0329-1.2563s-1.2563-1.8953-1.2563-3.0329zm-1.099 9.1412c-.1542-.1541-.3284-.2949-.5027-.4222.9718-1.3872 2.5869-2.2853 4.3897-2.2853h3.0024c2.7879 0 5.1134 2.1379 5.3413 4.9191l.2747 3.304c.1676 1.9971-1.0521 3.7597-2.8281 4.3963v7.754c0 1.7759-1.4409 3.2168-3.2168 3.2168h-2.1446c-1.776 0-3.2169-1.4409-3.2169-3.2168v-4.8789l3.1901-3.1901c1.4677-1.4676 1.4677-3.8401 0-5.3078zm-10.696 2.6539v2.1446h6.4336v-2.1446c0-.6501.3887-1.2398.9919-1.4878.6032-.2479 1.2934-.1139 1.7559.3485l4.2891 4.2891c.63.63.63 1.6487 0 2.2719l-4.2891 4.2892c-.4625.4624-1.1527.5964-1.7559.3485-.6032-.248-.9919-.8378-.9919-1.4878v-2.1446h-6.4336v2.1446c0 .65-.3887 1.2398-.9919 1.4878-.6032.2479-1.2934.1139-1.7559-.3485l-4.2891-4.2892c-.63-.6299-.63-1.6486 0-2.2719l4.2891-4.2891c.4625-.4624 1.1527-.5964 1.7559-.3485.6032.248.9919.8377.9919 1.4878z"/></svg>