<svg viewBox="0 0 48 48" xmlns="http://www.w3.org/2000/svg"><path d="m11.9969 14c.5304 0 1.0391-.2107 1.4142-.5858s.5858-.8838.5858-1.4142-.2107-1.0391-.5858-1.4142-.8838-.5858-1.4142-.5858c-.5305 0-1.0392.2107-1.4142.5858-.3751.3751-.58582.8838-.58582 1.4142s.21072 1.0391.58582 1.4142c.375.3751.8837.5858 1.4142.5858zm0-6c1.0608 0 2.0783.42143 2.8284 1.17157.7501.75015 1.1716 1.76753 1.1716 2.82843s-.4215 2.0783-1.1716 2.8284c-.7501.7502-1.7676 1.1716-2.8284 1.1716-1.0609 0-2.07831-.4214-2.82845-1.1716-.75015-.7501-1.17157-1.7675-1.17157-2.8284s.42142-2.07828 1.17157-2.82843c.75014-.75014 1.76755-1.17157 2.82845-1.17157zm-1.4 12c-1.56252 0-2.86252 1.1938-2.98752 2.75l-.25625 3.0812c-.1 1.1688.81875 2.1688 1.99375 2.1688h2.82502c.1437.4125.3812.7937.7062 1.1187l.875.8813h-3.75622v9c0 .55-.45 1-1 1s-1-.45-1-1v-9.2313c-1.65625-.5937-2.79375-2.2374-2.6375-4.0999l.25625-3.0813c.2125-2.5938 2.38125-4.5875 4.98127-4.5875h2.8c1.7687 0 3.3375.925 4.2312 2.3313-.2687.1375-.525.3187-.75.55l-.7875.7874c-.4937-.9937-1.5187-1.6687-2.6875-1.6687h-2.8zm3.4 19v-8.7563l2 2v6.7563c0 .55-.45 1-1 1s-1-.45-1-1zm18 0v-6.7563l2-2v8.7563c0 .55-.45 1-1 1s-1-.45-1-1zm6-9h-3.7563l.8813-.8813c.325-.325.5625-.7125.7062-1.1187h2.825c1.1688 0 2.0875-1 1.9938-2.1688l-.2625-3.0812c-.1313-1.5562-1.4313-2.75-2.9875-2.75h-2.8c-1.1688 0-2.1938.675-2.6875 1.6687l-.7875-.7874c-.225-.225-.4813-.4063-.75-.55.8875-1.4063 2.4562-2.3313 4.2312-2.3313h2.8c2.6 0 4.7688 1.9937 4.9813 4.5875l.2562 3.0813c.1563 1.8625-.9812 3.5062-2.6375 4.0999l-.0062 9.2313c0 .55-.45 1-1 1s-1-.45-1-1zm-2-16c.5304 0 1.0391-.2107 1.4142-.5858s.5858-.8838.5858-1.4142-.2107-1.0391-.5858-1.4142-.8838-.5858-1.4142-.5858c-.5305 0-1.0392.2107-1.4142.5858-.3751.3751-.5858.8838-.5858 1.4142s.2107 1.0391.5858 1.4142c.375.3751.8837.5858 1.4142.5858zm0-6c1.0608 0 2.0783.42143 2.8284 1.17157.7501.75015 1.1716 1.76753 1.1716 2.82843s-.4215 2.0783-1.1716 2.8284c-.7501.7502-1.7676 1.1716-2.8284 1.1716-1.0609 0-2.0783-.4214-2.8285-1.1716-.7501-.7501-1.1715-1.7675-1.1715-2.8284s.4214-2.07828 1.1715-2.82843c.7502-.75014 1.7676-1.17157 2.8285-1.17157zm-16.2938 15.7063-2.2937 2.2937h13.1687l-2.2937-2.2937c-.3875-.3875-.3875-1.0251 0-1.4126s1.025-.3875 1.4125 0l4 4.0001c.3875.3875.3875 1.0249 0 1.4124l-4 4c-.3875.3875-1.025.3875-1.4125 0s-.3875-1.0249 0-1.4124l2.3-2.2938h-13.1688l2.2938 2.2938c.3875.3875.3875 1.0249 0 1.4124s-1.025.3875-1.4125 0l-4-4c-.3875-.3875-.3875-1.0249 0-1.4124l4-4.0001c.3875-.3875 1.025-.3875 1.4125 0s.3875 1.0251 0 1.4126z"/></svg>