<svg fill="none" height="40" viewBox="0 0 40 40" width="40" xmlns="http://www.w3.org/2000/svg"><path d="m11.5 9.5c0 1.9312-1.56875 3.5-3.5 3.5s-3.5-1.5688-3.5-3.5c0-1.93125 1.56875-3.5 3.5-3.5s3.5 1.56875 3.5 3.5zm-7.5 9.8562c-.625.7-1 1.6313-1 2.6438s.375 1.9437 1 2.6437zm9.025-3.0812c-1.8563 1.6437-3.025 4.05-3.025 6.725 0 2.1437.75 4.1125 2 5.6562v1.3438c0 1.1063-.8937 2-2 2h-4c-1.10625 0-2-.8937-2-2v-1.675c-2.3625-1.125-4-3.5312-4-6.325 0-3.8688 3.13125-7 7-7h2c1.5 0 2.8875.4688 4.025 1.2688zm14.975 13.725v-1.3438c1.25-1.5437 2-3.5125 2-5.6562 0-2.675-1.1687-5.0812-3.025-6.7312 1.1375-.8 2.525-1.2688 4.025-1.2688h2c3.8688 0 7 3.1312 7 7 0 2.7938-1.6375 5.2-4 6.325v1.675c0 1.1063-.8937 2-2 2h-4c-1.1063 0-2-.8937-2-2zm7.5-20.5c0 1.9312-1.5688 3.5-3.5 3.5s-3.5-1.5688-3.5-3.5c0-1.93125 1.5688-3.5 3.5-3.5s3.5 1.56875 3.5 3.5zm.5 9.8562v5.2938c.625-.7063 1-1.6312 1-2.6437s-.375-1.9438-1-2.6438zm-16-5.3562c-2.2062 0-4-1.7938-4-4 0-2.20625 1.7938-4 4-4s4 1.79375 4 4c0 2.2062-1.7938 4-4 4zm-5 9c0 1.0125.375 1.9375 1 2.6437v-5.2874c-.625.7062-1 1.6312-1 2.6437zm9-2.6437v5.2937c.625-.7063 1-1.6312 1-2.6437s-.375-1.9438-1-2.6438zm4 2.6437c0 2.7938-1.6375 5.2-4 6.325v2.675c0 1.1063-.8937 2-2 2h-4c-1.1063 0-2-.8937-2-2v-2.675c-2.3625-1.125-4-3.5312-4-6.325 0-3.8688 3.1312-7 7-7h2c3.8688 0 7 3.1312 7 7z" fill="#475569"/></svg>