<svg viewBox="0 0 48 48" xmlns="http://www.w3.org/2000/svg"><path d="m13.5582 14c1.3261 0 2.5979-.5268 3.5356-1.4645.9377-.9376 1.4644-2.2094 1.4644-3.5355 0-1.32608-.5267-2.59785-1.4644-3.53553-.9377-.93769-2.2095-1.46447-3.5356-1.46447-1.326 0-2.5978.52678-3.5355 1.46447-.93768.93768-1.46446 2.20945-1.46446 3.53553 0 1.3261.52678 2.5979 1.46446 3.5355.9377.9377 2.2095 1.4645 3.5355 1.4645zm-1.75 2.5c-3.24996 0-5.9609 2.4922-6.22652 5.7344l-.32032 3.8515c-.19531 2.3282 1.22657 4.3828 3.29688 5.125v9.0391c0 2.0703 1.67966 3.75 3.74996 3.75h2.5c2.0704 0 3.75-1.6797 3.75-3.75v-9.0391c2.0704-.7422 3.4922-2.7968 3.2969-5.125l-.3203-3.8515c-.2656-3.2422-2.9766-5.7344-6.2266-5.7344zm21.75-2.5c1.3261 0 2.5979-.5268 3.5356-1.4645.9377-.9376 1.4644-2.2094 1.4644-3.5355 0-1.32608-.5267-2.59785-1.4644-3.53553-.9377-.93769-2.2095-1.46447-3.5356-1.46447-1.326 0-2.5978.52678-3.5355 1.46447-.9377.93768-1.4645 2.20945-1.4645 3.53553 0 1.3261.5268 2.5979 1.4645 3.5355.9377.9377 2.2095 1.4645 3.5355 1.4645zm-1.2265 2.5c-2.2344 0-4.1953 1.4766-4.8047 3.625l-3.0547 10.6875c-.4531 1.5938.7422 3.1875 2.4063 3.1875h1.6875v6.25c0 2.0703 1.6796 3.75 3.75 3.75h2.5c2.0703 0 3.75-1.6797 3.75-3.75v-6.25h1.6875c1.664 0 2.8593-1.5859 2.4062-3.1875l-3.0625-10.6875c-.6172-2.1484-2.5781-3.625-4.8047-3.625h-2.4531z"/></svg>