<svg fill="none" height="48" viewBox="0 0 48 48" width="48" xmlns="http://www.w3.org/2000/svg"><path d="m16.8822 5.92355c-.6015-1.45306-2.1874-2.22646-3.7029-1.81242l-6.87471 1.87492c-1.35932.37498-2.30459 1.6093-2.30459 3.01549 0 19.32726 15.6712 34.99846 34.9985 34.99846 1.4061 0 2.6405-.9453 3.0155-2.3046l1.8749-6.8747c.414-1.5155-.3594-3.1014-1.8124-3.7029l-7.4997-3.1249c-1.2734-.5312-2.7499-.1641-3.617.9062l-3.1562 3.8514c-5.4997-2.6015-9.9526-7.0544-12.5541-12.5541l3.8514-3.1483c1.0703-.875 1.4374-2.3437.9062-3.6171l-3.1249-7.49964z" fill="#475569"/></svg>