<svg viewBox="0 0 48 48" xmlns="http://www.w3.org/2000/svg"><path d="m33.3543 25.4964c-1.281-.5468-2.7652-.1875-3.6478.8904l-2.5933 3.1714c-3.5931-2.0856-6.5926-5.0851-8.6782-8.6782l3.1635-2.5855c1.078-.8827 1.4451-2.3668.8905-3.6478l-3.7494-8.74849c-.5858-1.37477-2.0621-2.14026-3.5228-1.82781l-8.74848 1.87467c-1.43725.30464-2.46832 1.57785-2.46832 3.05416 0 18.48897 14.3335 33.62697 32.4944 34.90797.3515.0235.7108.0469 1.0701.0625h.0078c.4765.0157.9452.0313 1.4294.0313 1.4764 0 2.7496-1.0311 3.0542-2.4683l1.8747-8.7485c.3124-1.4607-.4531-2.937-1.8278-3.5229l-8.7485-3.7493zm5.6162 15.9972c-17.9344-.0156-32.47093-14.5522-32.47093-32.49437 0-.29682.20309-.54678.4921-.60927l8.74853-1.87467c.289-.06249.5858.09373.703.36712l3.7493 8.74849c.1094.2578.0391.5546-.1797.7264l-3.1713 2.5933c-.9451.7733-1.1951 2.1247-.578 3.187 2.3043 3.9759 5.6162 7.2878 9.5843 9.5843 1.0623.617 2.4136.3671 3.1869-.5781l2.5933-3.1713c.1797-.2187.4765-.289.7265-.1797l8.7484 3.7494c.2734.1172.4297.414.3672.703l-1.8747 8.7485c-.0625.289-.3203.4921-.6093.4921-.0078 0-.0156 0-.0234 0z"/></svg>