<svg fill="none" height="41" viewBox="0 0 41 41" width="41" xmlns="http://www.w3.org/2000/svg"><path d="m12.8828 2.92193c-.6016-1.45313-2.1875-2.226565-3.70311-1.8125l-6.875 1.875c-1.359377.375-2.30469 1.60937-2.30469 3.01562 0 19.32815 15.6719 35.00005 35 35.00005 1.4062 0 2.6406-.9454 3.0156-2.3047l1.875-6.875c.4141-1.5157-.3594-3.1016-1.8125-3.7032l-7.5-3.125c-1.2734-.5312-2.75-.164-3.6172.9063l-3.1562 3.8516c-5.5-2.6016-9.9531-7.0547-12.5547-12.5547l3.8516-3.1485c1.0703-.875 1.4375-2.3437.9062-3.6172l-3.125-7.49996z" fill="#475569"/></svg>