<svg fill="none" height="48" viewBox="0 0 48 48" width="48" xmlns="http://www.w3.org/2000/svg"><path d="m14 4c-2.7578 0-5 2.24219-5 5v7.5h5v-7.5h17.7109l2.2891 2.2891v5.2109h5v-5.2109c0-1.32816-.5234-2.6016-1.4609-3.5391l-2.2891-2.28906c-.9375-.9375-2.2109-1.46094-3.5391-1.46094zm20 27.5v2.5 5h-20v-5-1.25-1.25zm5 2.5h2.5c1.3828 0 2.5-1.1172 2.5-2.5v-7.5c0-2.7578-2.2422-5-5-5h-30c-2.75781 0-5 2.2422-5 5v7.5c0 1.3828 1.11719 2.5 2.5 2.5h2.5v5c0 2.7578 2.2422 5 5 5h20c2.7578 0 5-2.2422 5-5zm-1.25-10.625c.4973 0 .9742.1975 1.3258.5492.3517.3516.5492.8285.5492 1.3258s-.1975.9742-.5492 1.3258c-.3516.3517-.8285.5492-1.3258.5492s-.9742-.1975-1.3258-.5492c-.3517-.3516-.5492-.8285-.5492-1.3258s.1975-.9742.5492-1.3258c.3516-.3517.8285-.5492 1.3258-.5492z" fill="#475569"/></svg>