<svg fill="none" height="48" viewBox="0 0 48 48" width="48" xmlns="http://www.w3.org/2000/svg"><path d="m38.1743 10.7907c0-1.0103-.1491-2.01405-.3565-3.00186-.2523-1.19793-.7692-2.67635-1.8011-3.41087-1.0647-.75891-2.4437-.29644-3.1613.69043-.1051.14446-.3256.49062-.3734.65666-.0253.10788-.0356.17073 0 .28142.0554.19794 1.0178 1.32739 1.2223 1.59475l1.0882 1.59474c.1426.22702.4165.72983.6032.88363.243.1989.6904.2224.9962.2843zm-9.9437 33.2082v-2.1576c-.0019-1.3011-.6173-2.0572-1.97-2.0638h-3.4709c-.6623-.0009-1.2336-.0788-1.5657-.7504-.1866-.3799-.0975-.9738-.1388-1.4072-.1238-1.2973-.1707-2.7523-.7702-3.9399-.4709-.9334-1.1801-1.394-2.2157-1.4071-.5948-.0066-1.1801.0844-1.6707-.334-.8922-.7589-.2608-1.9006.9202-1.9174.758-.0104 1.2242-.0244 1.97.1801 1.6979.4653 2.7542 1.7861 3.3358 3.3846.3152.8649.4681 1.8086.5779 2.7204.03.2533-.0103.9025.1219 1.0694.1473.1858.5329.1501.7486.1501h1.6886l-.3565-1.9699c-.0647-.3349-.2026-.895-.1229-1.2196.1529-.6228.9484-1.2617 1.6951-.6303.4841.409.4897.8058.5901 1.3808l.4822 2.6173c.1276.364.5985.5553.9015.8039.3771.3096.7382.7552.9878 1.1754.7139 1.2064.5131 2.9419.5131 4.3152h5.4409c.2767 0 .591.0197.8424-.1097.925-.4766.7186-2.3133.5375-3.1736-.408-1.9399-2.0347-3.2654-4.0065-3.2833l-.9269-4.1275c-.1022-.4456-.3958-1.6726-.3771-2.0638.0479-.9785.9916-2.8105 1.4109-3.7524l.6407-1.5947c.076-.2402.1614-.7186.3368-.8818.1642-.1539.3949-.1454.6041-.1501 1.6782-.031 2.9212.1567 4.5028-.6867 1.2918-.6895 2.106-1.6773 2.743-2.9718.2795-.5676.5572-1.2346.5366-1.8762-.046-1.3893-1.4381-3.6567-2.4362-4.5807-1.1051-1.0225-2.3856-1.7232-3.8452-2.09-.3987-.0995-1.1886-.2346-1.5948-.2627-.333-.0234-.6229.0422-.879-.2251l-1.1304-1.9409c-.9277-1.48877-2.2917-3.2186-3.7129-4.24581-.757-.5469-1.4784-.98405-2.439-1.00656-1.137-.02533-2.0132.50094-2.2364 1.68761v1.0319c-.0122 1.92213 1.2223 4.24486 2.2692 5.81616l1.4034 1.9699c.0816.2683-.0713.5854-.1492.8443-.1379.4616-.2383.9306-.3086 1.4071-.0582.3884-.1098 1.8021-.2842 2.0141-.1914.2345-.8687.53-1.1633.6858l-2.3452 1.1857c-1.8452.803-3.1276 1.3283-5.0656 1.9287-2.2477.6951-4.0985.9765-5.91 2.7261-.9887.9559-1.3949 1.879-1.9484 3.0919-1.49998 3.287-1.96058 7.5563-.3255 10.8818.546 1.1116.8837 1.667 1.6876 2.6266.3143.3743.773.8903 1.243 1.0582.2251.0797.5122.0675.7504.0675zm5.9099-27.4136c1.5817.2336 1.2083 2.2814-.1876 2.1679-1.2561-.1032-1.379-2.076.1876-2.1679zm-26.73538 19.0647c0-2.3162.34615-4.0207 1.1651-6.1914l.73546-1.6885.53846-1.1257c-1.3893.1838-2.61632.6435-3.53564 1.7823-1.39212 1.7861-1.47936 4.4981 0 6.2852.32645.424.59005.7092 1.09662.9381z" fill="#475569"/></svg>