<svg viewBox="0 0 48 48" xmlns="http://www.w3.org/2000/svg"><path d="m32.1086 13.9997c.375 0 .75.0234 1.1172.0703.0859-1.8749-.2031-3.7421-.8515-5.47638.5937-1.39059 1.453-2.6718 2.5546-3.77333l.3593-.35937c.2891-.28905.6875-.45311 1.0938-.45311.7187 0 1.3437.49999 1.5077 1.20309l.0781.34374c.7656 3.31241.1407 6.75766-1.6405 9.56226.4296.2421.8359.5156 1.2187.8281l2.7187 2.1952c1.0937.8906 1.7343 2.2343 1.7343 3.6483 0 2.6015-2.1093 4.7108-4.7108 4.7108h-2.789v2.0156l4.8202 12.0543c.5156 1.2813-.1094 2.7343-1.3906 3.2499-1.2812.5157-2.7343-.1093-3.2499-1.3905l-3.0781-7.7029-3.8514 4.2733h1.7499c1.3828 0 2.5 1.1171 2.5 2.4999s-1.1172 2.4999-2.5 2.4999h-6.2498-3.7499c-2.2265 0-4.1092-1.4531-4.7576-3.453-.8047.9609-2.0156 1.5781-3.3671 1.5781-2.41402 0-4.3749-1.9609-4.3749-4.3749s1.96088-4.3749 4.3749-4.3749c1.3593 0 2.578.625 3.3827 1.6016 1.1484-6.1561 6.0545-10.9841 12.2418-12.0153v-3.8515c0-.8515.2109-1.6562.5781-2.3593-2.6796-2.8515-3.9296-6.78102-3.3749-10.68716l.0547-.3828c.1406-.96091.9609-1.67964 1.9375-1.67964.5156 0 1.0077.20312 1.3749.5703l.2422.24218c2.4843 2.46086 3.7421 5.84362 3.5468 9.24972.2421-.0391.4921-.0547.7499-.0547zm3.6406 7.4998c.3315 0 .6494-.1317.8838-.3661s.3661-.5524.3661-.8839-.1317-.6494-.3661-.8838-.5523-.3661-.8838-.3661c-.3316 0-.6495.1317-.8839.3661s-.3661.5523-.3661.8838.1317.6495.3661.8839.5523.3661.8839.3661z"/></svg>