<svg viewBox="0 0 48 48" xmlns="http://www.w3.org/2000/svg"><path d="m29.3203 5.625c.5078.73437.9453 1.5 1.3203 2.30469.2735-.34375.5625-.67188.875-.98438l.2422-.24219c.1328-.13281.3125-.20312.5-.20312.3516 0 .6484.25781.6953.60156l.0547.38281c.2578 1.77344.0938 3.56253-.4375 5.21873-1.0078-.375-2.0859-.5781-3.1797-.5859-.4922-2.59376-1.7578-5.03126-3.7031-6.95314l-.2422-.24218-.875.89843.8828-.89062c-.6015-.59375-1.414-.92969-2.2578-.92969-1.5937 0-2.9453 1.17188-3.1719 2.75l-.0547.38281c-.5937 4.14059.6719 8.29689 3.4063 11.39839v2.9376c-4.9063 1.3671-8.875 4.9765-10.7344 9.6562-.8672-.5547-1.9062-.875-3.0156-.875-3.10938 0-5.625 2.5156-5.625 5.625s2.51562 5.625 5.625 5.625c.9687 0 1.8828-.2422 2.6797-.6797 1.0703 1.8906 3.0937 3.1641 5.414 3.1797h.0235.0078 10c2.0703 0 3.75-1.6797 3.75-3.75 0-2.0234-1.6016-3.6719-3.6094-3.75l1.6406-1.7344 4.3672 7.3906c1.0547 1.7813 3.3516 2.375 5.1328 1.3204 1.7813-1.0547 2.375-3.3516 1.3204-5.1328l-6.625-11.2188h.5703c3.289 0 5.9609-2.6641 5.9609-5.9609 0-1.7891-.8047-3.4844-2.1953-4.6172l-2.8906-2.3516c-.1172-.0937-.2422-.1953-.3672-.2812.7656-2.1407 1.0156-4.46098.6797-6.78129l-.0547-.38281c-.2266-1.57812-1.5781-2.75-3.1719-2.75-.8437 0-1.6562.33594-2.2578.92969l-.2422.24219c-.1484.14843-.2969.30468-.4375.45312zm-17.7891 32.7266c-.5312.4062-1.1875.6484-1.9062.6484-1.72656 0-3.125-1.3984-3.125-3.125s1.39844-3.125 3.125-3.125c.875 0 1.6719.3594 2.2344.9453-.2344 1.1094-.3594 2.2578-.3594 3.4297v.625c0 .2031.0078.4063.0312.6016zm10.9688-31.25004c.0469-.34375.3437-.60156.6953-.60156.1875 0 .3672.07031.4922.20312l.2422.24219c1.8281 1.8125 2.914 4.17969 3.1484 6.65629.0313.3593.2188.6797.5078.8906.2891.2109.6563.289 1.0078.2109.2422-.0547.4922-.0781.75-.0781 1.5469 0 3.0469.5313 4.2422 1.5078l2.8828 2.3516c.8047.6562 1.2735 1.6406 1.2735 2.6797 0 1.9062-1.5469 3.4609-3.461 3.4609h-2.75c-.4453 0-.8593.2422-1.0859.6328s-.2187.8672.0078 1.2578l7.7422 13.1016c.3516.5937.1563 1.3594-.4375 1.7109-.5937.3516-1.3594.1563-1.7109-.4375l-5.2032-8.8203c-.2031-.3359-.5468-.5625-.9375-.6094-.3906-.0468-.7812.0938-1.0468.3828l-4.7813 5.0469c-.3437.3594-.4375.8985-.2422 1.3516s.6485.7578 1.1485.7578h2.7656c.6875 0 1.25.5625 1.25 1.25s-.5625 1.25-1.25 1.25h-10-.0156c-2.0625-.0078-3.7344-1.6875-3.7344-3.75v-.625c0-6.6094 4.6641-12.1328 10.8828-13.4531.5781-.125.9922-.6328.9922-1.2266v-4.3516-.0312c0-.3203-.1172-.6328-.3438-.875-2.4453-2.5859-3.5937-6.1563-3.0859-9.70313zm9 13.14844c.3315 0 .6495-.1317.8839-.3661s.3661-.5524.3661-.8839-.1317-.6495-.3661-.8839-.5524-.3661-.8839-.3661-.6495.1317-.8839.3661-.3661.5524-.3661.8839.1317.6495.3661.8839.5524.3661.8839.3661z"/></svg>