<svg viewBox="0 0 48 48" xmlns="http://www.w3.org/2000/svg"><path d="m24.5562 8.16875c-.3375-.225-.7749-.225-1.1124 0l-8.7438 5.83125h-6.7c-2.20625 0-4 1.7938-4 4v18c0 2.2062 1.79375 4 4 4h12 2 4 2 12c2.2062 0 4-1.7938 4-4v-18c0-2.2062-1.7938-4-4-4h-6.7zm3.4438 23.83125c0-2.2062-1.7938-4-4-4s-4 1.7938-4 4v6h-12c-1.10625 0-2-.8937-2-2v-18c0-1.1063.89375-2 2-2h7c.2 0 .3875-.0562.5562-.1687l8.4438-5.6313 8.4438 5.6313c.1625.1125.3562.1687.5562.1687h7c1.1063 0 2 .8937 2 2v18c0 1.1063-.8937 2-2 2h-12zm-2 6h-4v-6c0-1.1063.8937-2 2-2s2 .8937 2 2zm-16-18v4c0 1.1063.8937 2 2 2h2c1.1063 0 2-.8937 2-2v-4c0-1.1063-.8937-2-2-2h-2c-1.1063 0-2 .8937-2 2zm4 0v4h-2v-4zm20-2c-1.1063 0-2 .8937-2 2v4c0 1.1063.8937 2 2 2h2c1.1063 0 2-.8937 2-2v-4c0-1.1063-.8937-2-2-2zm0 2h2v4h-2zm-24 10v4c0 1.1063.8937 2 2 2h2c1.1063 0 2-.8937 2-2v-4c0-1.1063-.8937-2-2-2h-2c-1.1063 0-2 .8937-2 2zm4 0v4h-2v-4zm20-2c-1.1063 0-2 .8937-2 2v4c0 1.1063.8937 2 2 2h2c1.1063 0 2-.8937 2-2v-4c0-1.1063-.8937-2-2-2zm0 2h2v4h-2zm-10-14c1.0609 0 2.0783.4214 2.8284 1.1716.7502.7501 1.1716 1.7675 1.1716 2.8284s-.4214 2.0783-1.1716 2.8284c-.7501.7502-1.7675 1.1716-2.8284 1.1716s-2.0783-.4214-2.8284-1.1716c-.7502-.7501-1.1716-1.7675-1.1716-2.8284s.4214-2.0783 1.1716-2.8284c.7501-.7502 1.7675-1.1716 2.8284-1.1716zm0 10c1.5913 0 3.1174-.6321 4.2426-1.7574 1.1253-1.1252 1.7574-2.6513 1.7574-4.2426s-.6321-3.1174-1.7574-4.2426c-1.1252-1.1253-2.6513-1.7574-4.2426-1.7574s-3.1174.6321-4.2426 1.7574c-1.1253 1.1252-1.7574 2.6513-1.7574 4.2426s.6321 3.1174 1.7574 4.2426c1.1252 1.1253 2.6513 1.7574 4.2426 1.7574zm1-8c0-.55-.45-1-1-1s-1 .45-1 1v2c0 .55.45 1 1 1h1.5c.55 0 1-.45 1-1s-.45-1-1-1h-.5z"/></svg>