<svg viewBox="0 0 48 48" xmlns="http://www.w3.org/2000/svg"><path d="m25.1125 8.3375c-.675-.45-1.55-.45-2.225 0l-8.4937 5.6625h-7.3938c-1.65625 0-3 1.3438-3 3v20c0 1.6562 1.34375 3 3 3h13v-6c0-2.2062 1.7938-4 4-4s4 1.7938 4 4v6h13c1.6562 0 3-1.3438 3-3v-20c0-1.6562-1.3438-3-3-3h-7.3937zm-15.1125 11.6625h2c.55 0 1 .45 1 1v4c0 .55-.45 1-1 1h-2c-.55 0-1-.45-1-1v-4c0-.55.45-1 1-1zm25 1c0-.55.45-1 1-1h2c.55 0 1 .45 1 1v4c0 .55-.45 1-1 1h-2c-.55 0-1-.45-1-1zm-25 7h2c.55 0 1 .45 1 1v4c0 .55-.45 1-1 1h-2c-.55 0-1-.45-1-1v-4c0-.55.45-1 1-1zm25 1c0-.55.45-1 1-1h2c.55 0 1 .45 1 1v4c0 .55-.45 1-1 1h-2c-.55 0-1-.45-1-1zm-16.5-10c0-1.4587.5795-2.8576 1.6109-3.8891 1.0315-1.0314 2.4304-1.6109 3.8891-1.6109s2.8576.5795 3.8891 1.6109c1.0314 1.0315 1.6109 2.4304 1.6109 3.8891s-.5795 2.8576-1.6109 3.8891c-1.0315 1.0314-2.4304 1.6109-3.8891 1.6109s-2.8576-.5795-3.8891-1.6109c-1.0314-1.0315-1.6109-2.4304-1.6109-3.8891zm5.5-3c-.55 0-1 .45-1 1v2c0 .55.45 1 1 1h2c.55 0 1-.45 1-1s-.45-1-1-1h-1v-1c0-.55-.45-1-1-1z"/></svg>