<svg viewBox="0 0 48 48" xmlns="http://www.w3.org/2000/svg"><path d="m43.7031 38.5625c.4453-.5234.3828-1.3125-.1406-1.7656l-11.875-10.1016c-.5234-.4453-1.3125-.3828-1.7656.1406-.4532.5235-.3828 1.3125.1406 1.7657l11.875 10.1015c.5234.4453 1.3125.3828 1.7656-.1406zm-17.2812-16.1953-6.1328-5.1641c.7734-1.3047 1.2109-2.8281 1.2109-4.4453 0-4.84374-3.9141-8.7578-8.75-8.7578-4.83594 0-8.75 3.91406-8.75 8.75 0 4.8359 3.91406 8.75 8.75 8.75 2.3047 0 4.4062-.8906 5.9688-2.3516l5.7656 4.8516-5.7656 4.8516c-1.5626-1.461-3.6641-2.3516-5.9688-2.3516-4.83594 0-8.75 3.9141-8.75 8.75s3.91406 8.75 8.75 8.75c4.8359 0 8.75-3.9141 8.75-8.75 0-1.625-.4453-3.1484-1.2109-4.4453l23.2656-19.6016c.5312-.4453.5937-1.23435.1484-1.75779-.4453-.52343-1.2343-.59375-1.7578-.14843zm-13.6719-3.3672c-1.6576 0-3.24731-.6585-4.41942-1.8306-1.1721-1.1721-1.83058-2.7618-1.83058-4.4194s.65848-3.24731 1.83058-4.41942c1.17211-1.1721 2.76182-1.83058 4.41942-1.83058s3.2473.65848 4.4194 1.83058c1.1721 1.17211 1.8306 2.76182 1.8306 4.41942s-.6585 3.2473-1.8306 4.4194-2.7618 1.8306-4.4194 1.8306zm0 10c1.6576 0 3.2473.6585 4.4194 1.8306s1.8306 2.7618 1.8306 4.4194-.6585 3.2473-1.8306 4.4194-2.7618 1.8306-4.4194 1.8306-3.24731-.6585-4.41942-1.8306c-1.1721-1.1721-1.83058-2.7618-1.83058-4.4194s.65848-3.2473 1.83058-4.4194c1.17211-1.1721 2.76182-1.8306 4.41942-1.8306z"/></svg>