<svg viewBox="0 0 48 48" xmlns="http://www.w3.org/2000/svg"><path d="m24.292 19-3.0859-3.0859c.3828-.9844.5859-2.0469.5859-3.1641 0-4.83594-3.9141-8.75-8.75-8.75-4.83595 0-8.75001 3.91406-8.75001 8.75 0 4.8359 3.91406 8.75 8.75001 8.75 1.1172 0 2.1797-.2109 3.1641-.5859l3.0859 3.0859-3.0859 3.0859c-.9844-.3828-2.0469-.5859-3.1641-.5859-4.83595 0-8.75001 3.9141-8.75001 8.75s3.91406 8.75 8.75001 8.75c4.8359 0 8.75-3.9141 8.75-8.75 0-1.1172-.2109-2.1797-.5859-3.1641l22.0859-22.0859c.5547-.55469.5547-1.44531 0-2-2.2109-2.21094-5.7891-2.21094-8 0zm1.7656 11.7656 9.2344 9.2344c2.2109 2.2109 5.7891 2.2109 8 0 .5547-.5547.5547-1.4453 0-2l-12.2344-12.2344zm-9.2656-18.0156c0 2.0703-1.6797 3.75-3.75 3.75s-3.75001-1.6797-3.75001-3.75 1.67971-3.75 3.75001-3.75 3.75 1.6797 3.75 3.75zm-3.75 26.25c-2.0703 0-3.75001-1.6797-3.75001-3.75s1.67971-3.75 3.75001-3.75 3.75 1.6797 3.75 3.75-1.6797 3.75-3.75 3.75z"/></svg>