<svg viewBox="0 0 48 48" xmlns="http://www.w3.org/2000/svg"><path d="m12.75 21.5c-4.77735 0-8.65503-3.8198-8.74828-8.5747l3.06102 2.4165c.30704.6738.73421 1.294 1.26784 1.8276.88497.885 2.00802 1.4771 3.21852 1.7142l3.063 2.418c-.6003.13-1.2234.1984-1.8621.1984z"/><path d="m19 12.75c0 .7777-.1449 1.5404-.4198 2.2521l2.0317 1.604c.5712-1.1635.8881-2.4719.8881-3.8483 0-4.84374-3.9141-8.7578-8.75-8.7578-2.1178 0-4.05877.75064-5.57166 2.00061l2.02801 1.60106c1.03515-.71251 2.26935-1.10167 3.54365-1.10167 1.6576 0 3.2473.65848 4.4194 1.83058 1.1721 1.17211 1.8306 2.76182 1.8306 4.41942z"/><path d="m29.1455 23.3431-2.0038-1.582 14.8036-12.46422c.5235-.44532 1.3125-.375 1.7578.14843.4453.52344.3828 1.31249-.1484 1.75779z"/><path clip-rule="evenodd" d="m21.3602 26.6288 2.0058 1.5835-3.0769 2.5924c.7656 1.2969 1.2109 2.8203 1.2109 4.4453 0 4.8359-3.9141 8.75-8.75 8.75-4.83594 0-8.75-3.9141-8.75-8.75s3.91406-8.75 8.75-8.75c2.3047 0 4.4062.8906 5.9688 2.3516zm-8.6102 2.3712c1.6576 0 3.2473.6585 4.4194 1.8306s1.8306 2.7618 1.8306 4.4194-.6585 3.2473-1.8306 4.4194-2.7618 1.8306-4.4194 1.8306-3.24731-.6585-4.41942-1.8306c-1.1721-1.1721-1.83058-2.7618-1.83058-4.4194s.65848-3.2473 1.83058-4.4194c1.17211-1.1721 2.76182-1.8306 4.41942-1.8306z" fill-rule="evenodd"/><path d="m1.94561 5.05471c-.5175-.405-1.275-.315-1.6875.2025-.405.5175-.3150004 1.275.2025 1.6875l45.59249 35.99249c.525.4125 1.275.33 1.6875-.195s.3225-1.275-.195-1.6875z"/></svg>