<svg viewBox="0 0 48 48" xmlns="http://www.w3.org/2000/svg"><path d="m42.75 4 .25.02344c.5703.11719 1 .625 1 1.22656v2.5l-.0234.89844c-.4532 8.94536-7.6328 16.12496-16.5782 16.57816l-.8984.0234v17.5c0 .6875-.5625 1.25-1.25 1.25s-1.25-.5625-1.25-1.25v-13.75h-2.5l-.8984-.0234c-9.25-.4688-16.6016-8.1172-16.6016-17.4766v-1.25c0-.60156.42969-1.10937 1-1.22656l.25-.02344h3.75l.89844.02344c6.22656.3125 11.59376 3.89066 14.43746 9.04686 1.5391-7.7422 8.1797-13.64061 16.2657-14.04686l.8984-.02344zm-36.25 7.5c0 8.2812 6.7188 15 15 15h2.5c0-8.2812-6.7188-15-15-15zm35-5c-8.2812 0-15 6.7188-15 15v1.25c8.2812 0 15-6.7188 15-15z"/></svg>