<svg viewBox="0 0 48 48" xmlns="http://www.w3.org/2000/svg"><path d="m25.0608 4.22781c-.3325-.14926-.6887-.22781-1.0608-.22781s-.7283.07855-1.0608.22781l-14.90709 6.27649c-1.74166.7306-3.03999 2.4352-3.03207 4.4933.03958 7.7927 3.26957 22.0503 16.90996 28.5311 1.3221.6284 2.8579.6284 4.18 0 13.6404-6.4808 16.8704-20.7384 16.91-28.5311.0079-2.0581-1.2904-3.7627-3.0321-4.4933zm-8.5895 22.25449c.38.0943.7837.1414 1.1954.1414 2.7946 0 5.0666-2.2545 5.0666-5.0275v-5.0275h3.4992c.9579 0 1.8367.5342 2.2642 1.3905l.57 1.1233h5.0666c.6967 0 1.2667.5656 1.2667 1.2569v2.5137c0 3.4721-2.8342 6.2844-6.3333 6.2844h-3.8v3.9827c0 .5734-.4671 1.0448-1.0529 1.0448-.1425 0-.285-.0315-.4117-.0864l-7.8138-3.3229c-.5225-.22-.8549-.7306-.8549-1.2883 0-.22.0474-.4321.1504-.6284zm-.0713-9.9136h3.1667.6333v2.5138 2.5137c0 1.3904-1.1321 2.5138-2.5333 2.5138-1.4013 0-2.5333-1.1234-2.5333-2.5138v-3.7706c0-.6913.5699-1.2569 1.2666-1.2569zm10.1333 3.7707c0-.3334-.1334-.6531-.371-.8888-.2375-.2357-.5597-.3681-.8956-.3681-.336 0-.6582.1324-.8957.3681s-.371.5554-.371.8888c0 .3333.1335.653.371.8887s.5597.3681.8957.3681c.3359 0 .6581-.1324.8956-.3681.2376-.2357.371-.5554.371-.8887z"/></svg>