<svg viewBox="0 0 48 48" xmlns="http://www.w3.org/2000/svg"><g><path d="m23.0234 6.91797c.625-.26563 1.3282-.26563 1.9532 0l13.8047 5.85933c.8828.375 1.4765 1.211 1.4687 2.1563-.0391 7.3437-3.0781 20.2969-15.2734 26.1328-.6172.2969-1.3438.2969-1.961 0-12.1953-5.8437-15.22653-18.7969-15.26559-26.1406-.00782-.9453.58593-1.7813 1.46875-2.1563l13.80464-5.85934zm2.9297-2.30469c-1.25-.53125-2.6562-.53125-3.9062 0l-13.80471 5.85942c-1.71875.7265-3 2.4218-2.99218 4.4687.03906 7.75 3.22656 21.9297 16.68749 28.375 1.3047.625 2.8203.625 4.125 0 13.4609-6.4453 16.6484-20.625 16.6875-28.375.0078-2.0469-1.2734-3.7422-2.9922-4.4687z"/><path clip-rule="evenodd" d="m26.9945 17.3654c-.0667-.2329-.0921-.6023.0295-1.0452.1236-.4515.3505-.7748.5466-.9507.0668.2332.0922.6028-.0291 1.0458-.1237.452-.3506.7743-.547.9501zm.7748-2.129s-.0048.0024-.0142.0042c.0095-.0039.0142-.0042.0142-.0042zm-.9728 2.2615s.0048-.0025.0143-.0042c-.0096.0038-.0143.0042-.0143.0042zm-12.6689 3.7372c-.4053-1.3516.1871-2.6687 1.3248-2.9422.532-.1278 1.0896-.0037 1.5741.3029.5516.3491 1.0083.9349 1.224 1.6549.0033.0113.0066.0225.0098.0338.1139.3985.1417.7936.0949 1.1592-.1104.8632-.637 1.5618-1.4295 1.7523-.0669.0161-.1341.0282-.2016.0364-1.0807.1322-2.2152-.7215-2.5965-1.9973zm10.9677-5.4441c.4637-1.6942 1.8514-2.8123 3.0274-2.495 1.2062.3172 1.8116 1.9532 1.3479 3.6473-.0382.1394-.0826.2749-.1326.406-.2819.7387-.7422 1.3384-1.2679 1.7135-.3729.2662-.7787.4193-1.1771.4288-.1518.0036-.3025-.0136-.4499-.0534-.2851-.0747-.5368-.2232-.7486-.4286-.3314-.3214-.5655-.7824-.6787-1.3192-.099-.4697-.1054-.9975-.0034-1.5406.0224-.119.0499-.2388.0829-.3588zm-2.1067 1.9025c.0971-.4675.1024-.9951.0002-1.5444-.0221-.1185-.0491-.238-.0814-.3581-.4637-1.7293-1.8166-2.7774-3.0274-2.495-1.206.3174-1.8116 1.918-1.3478 3.6473.0362.1324.0779.2612.1246.3862.2837.7601.7496 1.3754 1.2875 1.7527.366.2568.7654.4034 1.1633.4104.1515.0027.3028-.0149.452-.0544.2876-.0757.541-.2243.754-.4303.3304-.3196.5634-.7773.675-1.3144zm-.9467 3.5683-.0022.0011c-.1213.0592-.2428.1229-.3642.1908-.5181.2898-1.0348.6557-1.5298 1.0742-.8322.7036-1.6033 1.5559-2.2174 2.4451-.8452 1.2239-1.3929 2.5179-1.3929 3.5902-.0344 1.3633 1.0103 2.1797 2.7699 2.1797 1.0061 0 1.8326-.273 2.6134-.5309.6989-.2308 1.3611-.4496 2.0827-.4496.7328 0 1.4031.2211 2.107.4534.7785.2567 1.5981.5271 2.589.5271 1.7229 0 2.8028-.8156 2.8028-2.1777-.0116-1.0716-.5666-2.3653-1.4164-3.5895-.6178-.8901-1.3916-1.7434-2.2257-2.4477-.4954-.4183-1.012-.7841-1.53-1.0737-.1211-.0678-.2424-.1314-.3634-.1906-.0042-.002-.0084-.004-.0126-.0061-.4005-.1946-.7988-.3403-1.1857-.4261-.2612-.0579-.5171-.0886-.765-.0886-.247 0-.502.0304-.7621.0879-.3907.0863-.793.2337-1.1974.431zm7.607.1816c.1095.8636.6368 1.5617 1.4297 1.7522.0667.014.1338.0243.201.0309 1.0804.1068 2.2109-.7156 2.5971-1.9887.4036-1.3543-.2215-2.6707-1.3232-2.9441-.5387-.1128-1.1037.0169-1.5924.3284-.5434.3463-.9924.9174-1.2057 1.6294-.0013.0042-.0025.0083-.0037.0125-.1197.4056-.1499.8079-.1028 1.1794zm2.0224-.6181c-.0408.1361-.0479.2477-.0418.331.1241-.0919.2589-.2575.3319-.4943.0389-.1327.0437-.2428.035-.3259-.1238.0928-.2555.2572-.3251.4892zm-2.1712 7.7493c-.0067-.3209-.1412-.861-.5177-1.574-.3681-.6968-.903-1.4359-1.5379-2.1112-.6359-.6765-1.3275-1.2416-1.9805-1.6253-.6759-.3971-1.1744-.5212-1.4626-.5212-.2883 0-.7867.1241-1.4616.5206-.6522.3832-1.3423.9474-1.9755 1.6226-.6324.6741-1.1633 1.4111-1.5262 2.105-.3762.7192-.5027 1.2586-.5027 1.5721v.0252l-.0007.0252-.0001.0066c.0938.0441.3243.1227.7707.1227.645 0 1.189-.1667 1.9861-.43.0279-.0092.0562-.0186.0852-.0282.6459-.214 1.5759-.5223 2.6248-.5223 1.0596 0 1.9969.3103 2.6491.5261.0287.0095.0569.0188.0845.0279.7967.2628 1.3329.4265 1.9624.4265.4936 0 .7269-.1025.8018-.1461.0004-.0064.0008-.0138.0009-.0222zm-.0057.0574.0006-.0021zm-9.032-12.2122c.129.4665.3567.7882.5456.9573.0649-.2252.0937-.5981-.0323-1.0681-.1313-.4897-.3633-.7993-.5441-.952-.0647.2242-.0936.5952.0308 1.0628zm-4.1283 4.4033c-.0717-.238-.2074-.4099-.3311-.505-.008.0841-.0025.1997.0403.3425.0715.2392.2073.4131.3303.5087.0083-.0853.0031-.2023-.0395-.3462zm4.8406-3.329c.0088.0016.0132.0039.0132.0039s-.0043-.0003-.0132-.0039z" fill-rule="evenodd"/></g></svg>