<svg viewBox="0 0 48 48" xmlns="http://www.w3.org/2000/svg"><path clip-rule="evenodd" d="m25.0469 4.33594c-.3281-.14844-.6797-.22656-1.0469-.22656s-.7187.07812-1.0468.22656l-14.71098 6.24216c-1.71875.7266-3 2.4219-2.99218 4.4688.03906 7.75 3.22656 21.9297 16.68746 28.375 1.3047.625 2.8203.625 4.125 0 13.461-6.4453 16.6485-20.625 16.6875-28.375.0078-2.0469-1.2734-3.7422-2.9921-4.4688zm1.3962 15.11006c1.176.3174 2.5637-.8007 3.0275-2.4949.4637-1.6941-.1417-3.3301-1.3479-3.6472-1.176-.3174-2.5637.8007-3.0274 2.4949-.4649 1.6941.1406 3.3308 1.3478 3.6472zm-4.8835 0c1.206-.3173 1.8116-1.9179 1.3478-3.6472-.4637-1.7293-1.8167-2.7774-3.0274-2.4949-1.206.3173-1.8116 1.9179-1.3479 3.6472.4646 1.6942 1.8163 2.8153 3.0275 2.4949zm-6.1072-1.1453c1.1377-.2734 2.3929.6055 2.7981 1.9578.4024 1.3516-.1872 2.6719-1.3249 2.9453-1.1376.2735-2.3929-.6054-2.798-1.9609-.4053-1.3515.1871-2.6687 1.3248-2.9422zm1.083 10.2703c0-3.0273 4.3651-7.8203 7.466-7.8203 3.102 0 7.466 4.7969 7.4988 7.8223 0 1.3621-1.0799 2.1777-2.8028 2.1777-.9909 0-1.8105-.2703-2.589-.5271-.7039-.2322-1.3742-.4533-2.107-.4533-.7216 0-1.3838.2187-2.0827.4495-.7808.2579-1.6074.5309-2.6134.5309-1.7596 0-2.8043-.8164-2.7699-2.1797zm13.22-8.3117c.4051-1.3523 1.6604-2.1961 2.7981-1.9578 1.1017.2734 1.7268 1.5898 1.3232 2.9441-.4102 1.3524-1.6604 2.1961-2.7981 1.9579-1.1377-.2735-1.7284-1.5914-1.3232-2.9442z" fill-rule="evenodd"/></svg>