<svg viewBox="0 0 48 48" xmlns="http://www.w3.org/2000/svg"><path d="m23.0234 6.91797c.625-.26563 1.3282-.26563 1.9532 0l13.8047 5.85933c.8828.375 1.4765 1.211 1.4687 2.1563-.0391 7.3437-3.0781 20.2969-15.2734 26.1328-.6172.2969-1.3438.2969-1.961 0-12.1953-5.8437-15.22653-18.7969-15.26559-26.1406-.00782-.9453.58593-1.7813 1.46875-2.1563l13.80464-5.85934zm2.9297-2.30469c-1.25-.53125-2.6562-.53125-3.9062 0l-13.80471 5.85942c-1.71875.7265-3 2.4218-2.99218 4.4687.03906 7.75 3.22656 21.9297 16.68749 28.375 1.3047.625 2.8203.625 4.125 0 13.4609-6.4453 16.6484-20.625 16.6875-28.375.0078-2.0469-1.2734-3.7422-2.9922-4.4687zm-6.3281 9.39062h-1.6641c-2.5312 0-4.5859 2.0547-4.5859 4.5859v2.2891c0 1.7656 1.0469 3.2891 2.5547 3.9766l-1.1719 2.3359c-.3125.6172-.0547 1.3672.5625 1.6797s1.3672.0547 1.6797-.5625l1.5625-3.1328c2.0313-.3828 3.5625-2.1641 3.5625-4.2969v-4.375h4.7031c.4766 0 .9063.2656 1.1172.6875l.5625 1.1172c.211.4219.6406.6875 1.1172.6875h4.375v1.25c0 2.7578-2.2422 5-5 5h-3.75c-.6875 0-1.25.5625-1.25 1.25v6.25c0 .6875.5625 1.25 1.25 1.25s1.25-.5625 1.25-1.25v-4.9922h2.5c4.1406 0 7.5-3.3594 7.5-7.5v-1.25c0-1.3828-1.1172-2.5-2.5-2.5h-3.6016l-.2109-.4297c-.6406-1.2656-1.9375-2.0703-3.3594-2.0703h-4.7031-1.25zm-1.8984 8.75c-1.0235-.0078-1.8516-.8437-1.8516-1.875v-2.2891c0-.8515.5156-1.5859 1.25-1.9062.2578-.1094.5391-.1719.8359-.1719h1.6641v2.5 1.875c0 1.0313-.8281 1.8672-1.8516 1.875h-.039zm7.5234-2.5c.3315 0 .6495-.1317.8839-.3661s.3661-.5524.3661-.8839-.1317-.6495-.3661-.8839-.5524-.3661-.8839-.3661-.6495.1317-.8839.3661-.3661.5524-.3661.8839.1317.6495.3661.8839.5524.3661.8839.3661z"/></svg>