<svg viewBox="0 0 48 48" xmlns="http://www.w3.org/2000/svg"><path d="m10.8547 44.738v.4459c.0637.5096 2.4205 1.2103 4.6507 1.2103 2.0383 0 4.0138-.5733 4.0775-2.485l.3821-7.7083c.8281.2549 1.7199.3185 2.6124.3185 1.0192 0 2.0384-.1274 3.0576-.3185l.2547 7.7083c.0638 1.848 2.2302 2.4213 4.333 2.4213 2.2295 0 4.396-.5733 4.5234-1.1466v-.5096c0-1.3909-.2523-5.2784-.6361-10.1679.0703-.0075.1408-.0156.2114-.0243 1.939-.2384 4.0709-.924 5.5224-2.4497 1.6055-1.6875 2.1567-3.5825 2.2783-6.6437.0208-.5225.0048-1.0574-.0103-1.5665-.0063-.2101-.0124-.416-.0158-.6146-.0118-.7004.0084-1.3477.1464-1.9559.1361-.5993.3873-1.1626.8458-1.6912.4617-.5323 1.1527-1.0514 2.1987-1.5301.1994-.0913.3196-.2982.3-.5166-.0195-.2184-.1746-.4007-.387-.4551-2.4167-.6185-4.792-.9925-7.1578.5702-1.2199.8057-1.7906 1.8371-2.1531 3.2214-.2221.8482-.3756 1.8769-.5572 3.0947-.1027.6878-.2143 1.4361-.3524 2.2461-.2486 1.4584-.7397 2.5265-1.2794 3.3026-.9847-11.6126-2.3997-25.63792-3.0313-27.05965-.3185-.637-9.1748-.82809-14.2078-.82809l-3.1856.06368c-2.2932.19109-2.8665.44591-2.8665 1.52877 0 .43076.0718.93286.1614 1.56041.0298.20873.0616.43133.0934.6698.0391.26407.0693.49812.0959.70515.1468 1.14133.188 1.46132 1.0507 1.46132.4459 0 1.1466-.06368 2.2939-.19109-1.3384 10.3843-3.2494 33.4477-3.2494 37.334zm13.4584-16.2007c-.0443.0047-.092.0098-.1432.0183l-1.5288.0637-1.4658-.0637c-.0485-.0081-.094-.0131-.1364-.0177-.2912-.0321-.4369-.0481-.4369-.9385 0-.5593.0655-1.4678.1709-2.9301.0747-1.0358.1694-2.3495.275-4.0138.5096-6.6261 1.0837-9.9392 1.5932-9.9392.5733 0 1.1466 3.3131 1.5925 9.9392.0907 1.1617.1711 2.1527.2397 2.998.1722 2.1219.2699 3.3264.2699 4.0096 0 .8282-.1434.8435-.4301.8742zm13.1996-7.9461-.5209.1635c.3146-1.0154.7692-1.7001 1.6206-2.2624 1.5941-1.053 3.1954-1.0831 5.011-.733-.5366.3485-.9699.7231-1.317 1.1232-.5845.6739-.9045 1.3978-1.0731 2.1402-.1665.7334-.1841 1.4823-.1719 2.2024.0039.2275.0105.4496.017.6684.0033.1086.0065.2164.0094.3237l-.3742.2342-1.0209-2.0554c-.0215-.0435-.0604-.0758-.1071-.0892-.0466-.0133-.0967-.0063-.138.0191l-1.5581.9625-.153-2.543c-.0031-.053-.0306-.1016-.0743-.1317s-.0988-.0384-.1495-.0225z"/></svg>