<svg viewBox="0 0 48 48" xmlns="http://www.w3.org/2000/svg"><g><path clip-rule="evenodd" d="m2.91042 5.18248c-.78-.615-1.912498-.4725-2.527498.3075s-.4725004 1.9125.3075 2.5275l44.399978 34.80002c.78.615 1.9125.4725 2.5275-.3075s.4725-1.9125-.3075-2.5275l-9.3591-7.3355c-.1458-.325-.4726-.5929-.816-.6397l-2.561-2.0072h.4539l-1.5013-12.5c-.2403-2-1.5014-3.5-3.5032-3.5h-12.0108c-1.0401 0-1.8803.405-2.4812 1.0747zm16.68958 13.08102.1631.1279c-.0352-.0557-.0887-.0972-.1631-.1279z" fill-rule="evenodd"/><path d="m13.0084 30.0001.9142-7.6114 3.0195 2.3666-.7378 5.2448z"/><path d="m18.2258 30.0001.537-3.8177 4.871 3.8177z"/><path d="m11.0067 32.0001h15.1788l7.6552 6h-22.834c-.5005 0-1.0009-.5-1.0009-1v-4c0-.5.5004-1 1.0009-1z"/><path d="m41.7974 10.7501c.4146.7175.1686 1.6349-.5495 2.0491l-3.4672 2c-.7181.4142-1.6363.1684-2.0509-.5491-.4146-.7174-.1685-1.6348.5495-2.049l3.4672-2c.7181-.41423 1.6363-.1684 2.0509.549z"/><path d="m4.00037 22.0001c0-.8284.67217-1.5 1.50134-1.5h4.0036c.82919 0 1.50139.6716 1.50139 1.5 0 .8285-.6722 1.5-1.50139 1.5h-4.0036c-.82917 0-1.50134-.6715-1.50134-1.5z"/><path d="m36.9941 22.0001c0-.8284.6722-1.5 1.5013-1.5h4.0036c.8292 0 1.5014.6716 1.5014 1.5 0 .8285-.6722 1.5-1.5014 1.5h-4.0036c-.8291 0-1.5013-.6715-1.5013-1.5z"/></g></svg>