<svg fill="none" height="48" viewBox="0 0 48 48" width="48" xmlns="http://www.w3.org/2000/svg"><g fill="#475569"><path d="m16.204 30h-3.1959l1.5013-12.5c.2402-2 1.5014-3.5 3.5032-3.5h12.0107c2.0018 0 3.263 1.5 3.5032 3.5l1.5013 12.5h-16.8024l1.5792-11.2265c.0516-.3664-.0542-.5125-.4259-.5647l-.9911-.1392c-.3717-.0522-.513.0542-.5653.4255z"/><path d="m11.0063 32c-.5005 0-1.0009.5-1.0009 1v4c0 .5.5004 1 1.0009 1h26.0233c.5005 0 1.0009-.5 1.0009-1v-4c0-.5-.5004-1-1.0009-1z"/><path clip-rule="evenodd" d="m6.20294 10.75c.41458-.7174 1.33279-.96325 2.05088-.549l3.46718 2c.7181.4142.9641 1.3316.5496 2.049-.4146.7174-1.3328.9633-2.0509.549l-3.46723-2c-.71808-.4142-.96412-1.3316-.54953-2.049zm35.59416 0c.4145.7174.1685 1.6348-.5496 2.049l-3.4672 2c-.7181.4143-1.6363.1684-2.0509-.549-.4145-.7174-.1685-1.6348.5496-2.049l3.4672-2c.7181-.41425 1.6363-.1684 2.0509.549zm-37.7971 11.25c0-.8284.67218-1.5 1.50135-1.5h4.00359c.82916 0 1.50136.6716 1.50136 1.5s-.6722 1.5-1.50136 1.5h-4.00359c-.82917 0-1.50135-.6716-1.50135-1.5zm32.9937 0c0-.8284.6722-1.5 1.5014-1.5h4.0036c.8291 0 1.5013.6716 1.5013 1.5s-.6722 1.5-1.5013 1.5h-4.0036c-.8292 0-1.5014-.6716-1.5014-1.5z" fill-rule="evenodd"/></g></svg>