<svg viewBox="0 0 48 48" xmlns="http://www.w3.org/2000/svg"><path d="m15.2509 6.5c-4.8359 0-8.74995 3.9141-8.74995 8.75s3.91405 8.75 8.74995 8.75c1.2266 0 2.3594.6641 2.9454 1.7422.75 1.3515.4062 2.8906-.336 3.9453-.8594 1.2187-1.3594 2.7031-1.3594 4.3125 0 4.1406 3.3594 7.5 7.5 7.5h8.75c2.7579 0 5-2.2422 5-5s-2.2421-5-5-5c-.5234 0-1.0312.0781-1.5.2266-.6562.2031-1.3593-.1563-1.5703-.8204-.2109-.664.1563-1.3593.8203-1.5703.711-.2265 1.4688-.3437 2.25-.3437.875 0 1.7188.1484 2.5.4297v-6.6797c0-.6875.5625-1.25 1.25-1.25h.8985c1.6562 0 3.1719-.9375 3.9141-2.4219l.1562-.3203-.0234-.2656c-.2579-2.5391-2.4063-4.4844-4.9766-4.4844h-1.2188c-.6875 0-1.25-.5625-1.25-1.25v-2.5c0-.6875.5625-1.25 1.25-1.25s1.25.5625 1.25 1.25v1.25c3.836.0156 7.0469 2.9297 7.4297 6.75l.0625.625c.0235.2344-.0234.4688-.125.6797l-.3203.6406c-1.1093 2.2266-3.3359 3.6641-5.7969 3.7891v6.9218c1.5313 1.375 2.5 3.3672 2.5 5.5938 0 1.9219-.7187 3.6719-1.9062 5h3.1562c.6875 0 1.25.5625 1.25 1.25s-.5625 1.25-1.25 1.25h-8.75-8.75c-5.5234 0-10-4.4766-10-10 0-2.1406.6719-4.125 1.8125-5.75.3516-.4922.3594-1 .1875-1.3047-.1484-.2734-.4453-.4453-.7578-.4453-6.20309 0-11.24215-5.0391-11.24215-11.25 0-6.21094 5.03906-11.25 11.24995-11.25 6.211 0 11.25 5.03906 11.25 11.25v2.5c0 .6875-.5625 1.25-1.25 1.25s-1.25-.5625-1.25-1.25v-2.5c0-4.8359-3.914-8.75-8.75-8.75zm16.25 3.75v5.9531c0 3.0469-.5546 5.2032-1.6562 7.1797-.9297 1.6563-2.2344 3.1641-3.7656 4.9219-.2188.25-.4453.5078-.6719.7734l-.875 1.0157c-1.1172 1.2812-1.7813 3.3281-1.7813 5.1562 0 .6875-.5625 1.25-1.25 1.25s-1.25-.5625-1.25-1.25c0-2.3125.8125-4.9766 2.3907-6.7969l.875-1.0156c.2343-.2734.4609-.5312.6797-.7813 1.5546-1.789 2.6796-3.0781 3.4687-4.4921.8594-1.5391 1.3359-3.25 1.3359-5.9532v-5.9609c0-.6875.5625-1.25 1.25-1.25s1.25.5625 1.25 1.25zm5 5c.3316 0 .6495.1317.8839.3661.2345.2344.3661.5524.3661.8839s-.1316.6495-.3661.8839c-.2344.2344-.5523.3661-.8839.3661-.3315 0-.6494-.1317-.8838-.3661-.2345-.2344-.3662-.5524-.3662-.8839s.1317-.6495.3662-.8839c.2344-.2344.5523-.3661.8838-.3661z"/></svg>