<svg viewBox="0 0 48 48" xmlns="http://www.w3.org/2000/svg"><path d="m16.5 27.1445c0 .1563-.0547.3047-.1562.4219-1.461 1.7422-2.3438 3.9844-2.3438 6.4297 0 5.5234 4.4766 10 10 10h7.5 7.5c1.3828 0 2.5-1.1172 2.5-2.5s-1.1172-2.5-2.5-2.5h-1.25c.7812-1.0469 1.25-2.3438 1.25-3.75 0-2.0469-.9844-3.8594-2.5-5-1.0469-.7813-2.3438-1.25-3.75-1.25-.7344 0-1.4297.125-2.0859.3516-.6485.2265-1.3672-.1094-1.5938-.7657-.2266-.6562.1094-1.3672.7656-1.5937.9141-.3203 1.8985-.5 2.9141-.5 1.3438 0 2.6172.3047 3.75.8437v-4.5937h1.6563c2.0859 0 4.039-1.0469 5.2031-2.7813l.6406-.9531c0-4.1406-3.3594-7.5-7.5-7.5v-1.62499c0-.48438-.3906-.875-.875-.875-1.1875 0-2.2422.59375-2.875 1.49999-.6328-.90624-1.6875-1.49999-2.875-1.49999-.4844 0-.875.39062-.875.875v1.62499c0 4.25-.8203 8.4453-2.3984 12.3438-.0704-.1563-.1016-.3282-.1016-.5v-8.0938c0-6.21093-5.0391-11.24999-11.25-11.24999-6.21094 0-11.25 5.03906-11.25 11.24999 0 6.2109 5.03906 11.25 11.25 11.25.1797 0 .3594-.0078.5391-.0156.3828-.0156.7109.2734.7109.6562zm20-11.8906c.3315 0 .6495.1317.8839.3661s.3661.5524.3661.8839-.1317.6495-.3661.8839-.5524.3661-.8839.3661-.6495-.1317-.8839-.3661-.3661-.5524-.3661-.8839.1317-.6495.3661-.8839.5524-.3661.8839-.3661z"/></svg>