<svg viewBox="0 0 48 48" xmlns="http://www.w3.org/2000/svg"><path d="m12.3636 6.26367c.4243 1.27273-.2651 2.64394-1.5303 3.06818l-1.98482.65909v9.15906c0 4.0152 3.25762 7.2728 7.27272 7.2728 4.0152 0 7.2727-3.2576 7.2727-7.2728v-9.15906l-1.9772-.65909c-1.2728-.42424-1.9546-1.79545-1.5303-3.06818.4242-1.27273 1.7954-1.95455 3.0681-1.5303l1.9773.65909c1.9773.65909 3.3106 2.50757 3.3106 4.59848v9.15906c0 5.8485-4.1363 10.7273-9.6439 11.8712.4773 4.2349 4.0682 7.5228 8.4318 7.5228 4.6894 0 8.4849-3.7955 8.4849-8.4849v-5.356c-2.144-.9319-3.6364-3.0682-3.6364-5.5531 0-3.3485 2.7121-6.0606 6.0606-6.0606s6.0606 2.7121 6.0606 6.0606c0 2.4849-1.4924 4.6212-3.6364 5.5531v5.356c0 7.3637-5.9697 13.3334-13.3333 13.3334-7.0379 0-12.7955-5.447-13.2955-12.3561-5.55298-1.1136-9.7348-6.0076-9.7348-11.8864v-9.15906c0-2.08333 1.33333-3.93939 3.31818-4.59848l1.97727-.65909c1.27275-.42425 2.64395.26515 3.06815 1.5303zm25.5758 15.31063c1.3409 0 2.4242-1.0834 2.4242-2.4243s-1.0833-2.4242-2.4242-2.4242-2.4242 1.0833-2.4242 2.4242 1.0833 2.4243 2.4242 2.4243z"/></svg>