<svg viewBox="0 0 48 48" xmlns="http://www.w3.org/2000/svg"><g><path d="m2.91006 5.18248c-.78-.615-1.912505-.4725-2.527505.3075s-.4724996 1.9125.3075 2.5275l44.400045 34.80002c.78.615 1.9125.4725 2.5275-.3075s.4725-1.9125-.3075-2.5275l-7.7559-6.0789v-10.1397c-.2778.0694-.5556.125-.8542.1597h-.0069c-.3681.0486-.7431.0764-1.125.0764-.8611 0-1.6875-.1319-2.4583-.3681v6.7882l-12.3014-9.6416c.4383-.2881.8359-.63 1.1833-1.0146 1.1042 1.2222 2.7153 2.0139 4.5278 2.0139 1.8194 0 3.4236-.7917 4.5278-2.0139 1.1111 1.2222 2.7152 2.0139 4.5277 2.0139.2848 0 .5625-.0209.8403-.0556 3.8542-.5139 5.6806-5.0347 3.6181-8.2916h-.007l-3.9791-6.29866c-.3542-.5625-.9862-.90972-1.6598-.90972h-24.7777c-.6737 0-1.3056.34722-1.65977.90972l-1.5095 2.38523z"/><path d="m9.56809 21.7222c-3.05737-.4146-4.83388-3.3646-4.39391-6.1901l7.44212 5.833c-.6822.2655-1.4263.4127-2.2079.4127-.2778 0-.56254-.0209-.84031-.0556z"/><path d="m27.3191 32.8889h-14.4316v-9.2639c-.7777.2431-1.6111.375-2.4722.375-.3819 0-.76388-.0278-1.13194-.0764h-.00694c-.28472-.0417-.5625-.0903-.83333-.1597v13.5694c0 2.4514 1.99301 4.4445 4.44441 4.4445h22.2223c.9417 0 1.8159-.2942 2.5353-.7955z"/></g></svg>