<svg viewBox="0 0 48 48" xmlns="http://www.w3.org/2000/svg"><path d="m43.0834 12.8109-4.2125-6.66791c-.3749-.59548-1.0439-.96306-1.757-.96306h-26.2306c-.7131 0-1.38215.36758-1.75708.96306l-4.21983 6.66791c-2.17609 3.4406-.24996 8.2265 3.81549 8.7779.29406.0367.59548.0588.88955.0588 1.91877 0 3.62437-.8381 4.79327-2.132 1.1689 1.2939 2.8745 2.132 4.7932 2.132 1.9188 0 3.6244-.8381 4.7933-2.132 1.1689 1.2939 2.8745 2.132 4.7933 2.132 1.9261 0 3.6243-.8381 4.7932-2.132 1.1763 1.2939 2.8745 2.132 4.7933 2.132.3014 0 .5955-.0221.8895-.0588 4.0802-.5441 6.0137-5.33 3.8302-8.7779zm-3.5214 11.1083s0 0-.0074 0c-.3896.0515-.7866.0809-1.191.0809-.9116 0-1.7864-.1397-2.6024-.3896v9.7997h-23.5252v-9.8071c-.8234.2573-1.7056.397-2.61722.397-.40434 0-.80868-.0294-1.19832-.0809h-.00735c-.30141-.0441-.59548-.0955-.88219-.1691v9.6601 4.705c0 2.5951 2.10991 4.7051 4.70508 4.7051h23.5252c2.5951 0 4.705-2.11 4.705-4.7051v-4.705-9.6601c-.2941.0736-.5881.1324-.9042.1691z"/></svg>