<svg viewBox="0 0 48 48" xmlns="http://www.w3.org/2000/svg"><g><path d="m1.94561 5.05462c-.5175-.405-1.275-.315-1.6875.2025-.405.5175-.3150004 1.275.2025 1.6875l45.59249 35.99248c.525.4125 1.275.33 1.6875-.195s.3225-1.275-.195-1.6875z"/><path d="m24.0091 17.5416c-.5503 0-1.0845.2046-1.4887.5711l4.3451 3.4303c.5253.148 1.0808.2277 1.6575.2277 1.375 0 2.625-.4514 3.6319-1.2014.3264-.243.625-.5138.8958-.8125.2709.2987.5764.5764.9028.8195 1.0069.743 2.2569 1.1944 3.625 1.1944l-.0069.007c.2847 0 .5625-.0209.8402-.0556 3.8542-.5139 5.6806-5.0347 3.6181-8.2916l-3.9792-6.29865c-.3541-.5625-.9861-.90972-1.6597-.90972h-24.7778c-.6736 0-1.3055.34722-1.6597.90972l-.44715.70657 1.75365 1.38443.4921-.7785h24.5l3.9028 6.17365c1.2986 2.0555.0208 4.625-2.0278 4.9027-.1805.0209-.3611.0348-.5486.0348-1.1458 0-2.1667-.5-2.8819-1.2848-.4237-.4652-1.0209-.7291-1.6459-.7291s-1.2222.2639-1.6458.7291c-.7083.7778-1.7222 1.2778-2.875 1.2778-1.1458 0-2.1736-.5-2.875-1.2778-.4236-.4652-1.0208-.7291-1.6458-.7291z"/><path d="m9.57156 21.7221c-3.55729-.4824-5.3806-4.3971-3.99621-7.5546l1.84581 1.4572c-.43866 1.807.73735 3.6624 2.44901 3.896.18753.0209.36803.0348.54863.0348.5605 0 1.0882-.1183 1.5647-.3291l1.8796 1.4838c-.9774.6683-2.1613 1.0675-3.4513 1.0675-.2777 0-.56246-.0209-.84024-.0556z"/><path d="m26.475 30.6666h-15.8062v-5.5556c0-.6111-.5-1.1111-1.11113-1.1111-.61111 0-1.11111.5-1.11111 1.1111v12.2222c0 2.4514 1.99304 4.4445 4.44444 4.4445h22.2222c1.3695 0 2.5959-.622 3.4117-1.5985l-1.7435-1.3763c-.4069.4617-1.0029.7526-1.6682.7526h-22.2222c-1.2292 0-2.2222-.9931-2.2222-2.2223v-4.4444h18.6212z"/><path d="m37.3355 25.111v4.6978l2.2222 1.7544v-6.4522c0-.6111-.5-1.1111-1.1111-1.1111s-1.1111.5-1.1111 1.1111z"/></g></svg>