<svg viewBox="0 0 48 48" xmlns="http://www.w3.org/2000/svg"><path d="m40.1549 14.618c1.2986 2.0556.0208 4.625-2.0278 4.9028-.1805.0208-.3611.0347-.5486.0347-1.1458 0-2.1667-.5-2.8819-1.2847-.4236-.4653-1.0209-.7292-1.6459-.7292s-1.2222.2639-1.6458.7292c-.7083.7778-1.7222 1.2778-2.875 1.2778-1.1458 0-2.1736-.5-2.875-1.2778-.4236-.4653-1.0208-.7292-1.6458-.7292s-1.2292.2639-1.6459.7292c-.7222.7847-1.743 1.2847-2.8958 1.2847-1.1458 0-2.1736-.5-2.875-1.2778-.4236-.4653-1.0208-.7291-1.6458-.7291s-1.2292.2638-1.6459.7291c-.7153.7778-1.7291 1.2778-2.8819 1.2778-.1806 0-.3611-.0139-.54863-.0347-2.03472-.2778-3.3125-2.8472-2.02083-4.9028l3.90276-6.17361h24.5zm-2.5833 7.1597c.2847 0 .5625-.0208.8402-.0555 3.8542-.5139 5.6806-5.0348 3.6181-8.2917l-3.9792-6.29861c-.3541-.5625-.9861-.90972-1.6597-.90972h-24.7778c-.6736 0-1.3055.34722-1.6597.90972l-3.98611 6.29861c-2.05555 3.25-.23611 7.7708 3.60417 8.2917.27778.0347.56254.0555.84024.0555 1.3611 0 2.6042-.4444 3.6111-1.1805.3334-.2431.6389-.5278.9167-.8264.2778.3055.5833.5833.9167.8264 1.0069.7361 2.25 1.1805 3.6111 1.1805s2.6042-.4444 3.6111-1.1805c.3333-.2431.6389-.5278.9167-.8334.2777.3056.5833.5834.9166.8264 1.007.7361 2.25 1.1806 3.6112 1.1806 1.375 0 2.625-.4514 3.6319-1.2014.3264-.2431.625-.5139.8958-.8125.2709.2986.5764.5764.9028.8194 1.007.7431 2.257 1.1945 3.625 1.1945zm-28.01393 2.2222c-.61111 0-1.11111.5-1.11111 1.1112v5.5555 1.1111 1.1111 4.4445c0 2.4514 1.99304 4.4444 4.44444 4.4444h22.2222c2.4514 0 4.4445-1.993 4.4445-4.4444v-4.4445-1.1111-1.1111-5.5555c0-.6112-.5-1.1112-1.1111-1.1112s-1.1111.5-1.1111 1.1112v5.5555h-26.6667v-5.5555c0-.6112-.5-1.1112-1.11113-1.1112zm1.11113 8.8889h26.6667v4.4445c0 1.2291-.9931 2.2222-2.2223 2.2222h-22.2222c-1.2292 0-2.2222-.9931-2.2222-2.2222z"/></svg>