<svg viewBox="0 0 48 48" xmlns="http://www.w3.org/2000/svg"><path d="m8.44444 8.44434c-2.45138 0-4.44444 1.99306-4.44444 4.44446v22.2222c0 2.4514 1.99306 4.4444 4.44444 4.4444h31.11116c2.4513 0 4.4444-1.993 4.4444-4.4444v-22.2222c0-2.4514-1.9931-4.44446-4.4444-4.44446zm3.88886 14.44446h12.2223c.9236 0 1.6666.743 1.6666 1.6666 0 .9237-.743 1.6667-1.6666 1.6667h-12.2223c-.9236 0-1.6666-.743-1.6666-1.6667 0-.9236.743-1.6666 1.6666-1.6666zm17.7778 0h5.5556c.9236 0 1.6666.743 1.6666 1.6666 0 .9237-.743 1.6667-1.6666 1.6667h-5.5556c-.9236 0-1.6667-.743-1.6667-1.6667 0-.9236.7431-1.6666 1.6667-1.6666zm-17.7778 6.6666h5.5556c.9236 0 1.6667.7431 1.6667 1.6667s-.7431 1.6667-1.6667 1.6667h-5.5556c-.9236 0-1.6666-.7431-1.6666-1.6667s.743-1.6667 1.6666-1.6667zm11.1111 0h12.2223c.9236 0 1.6666.7431 1.6666 1.6667s-.743 1.6667-1.6666 1.6667h-12.2223c-.9236 0-1.6666-.7431-1.6666-1.6667s.743-1.6667 1.6666-1.6667z"/></svg>