<svg viewBox="0 0 48 48" xmlns="http://www.w3.org/2000/svg"><path d="m38.4488 4.54008 2.5002 2.50019 2.5002 2.50018c.7344.73445.7344 1.92205 0 2.64865-.7345.7266-1.922.7344-2.6487 0l-1.1719-1.172-2.9846 2.9768 4.2972 4.2972c.7344.7344.7344 1.922 0 2.6486s-1.922.7344-2.6486 0l-5.6255-5.6254-5.6254-5.61759c-.7344-.73443-.7344-1.92202 0-2.64863.7345-.72662 1.922-.73443 2.6487 0l4.2971 4.29722 2.9846-2.97681-1.1797-1.17196c-.7345-.73443-.7345-1.92202 0-2.64863.7344-.72662 1.922-.73443 2.6486 0zm-18.0247 11.61802 4.7737-4.7738c.0235.0235.0469.0547.0782.0782l1.2501 1.2501 4.3753 4.3753 4.3753 4.3753 1.2501 1.2501c.0234.0234.0469.0469.0781.0781l-14.9229 14.923c-.8204.8204-1.9299 1.2813-3.094 1.2813h-6.9458l-4.44567 4.4535c-.73443.7344-1.92202.7344-2.64863 0-.72662-.7345-.73443-1.922 0-2.6487l4.45345-4.4534v-6.938c0-1.1642.46097-2.2736 1.28135-3.094l3.3831-3.383 4.4534 4.4534c.4844.4844 1.2813.4844 1.7658 0 .4844-.4844.4844-1.2813 0-1.7658l-4.4535-4.4534 3.2346-3.2346 4.4535 4.4534c.4844.4844 1.2813.4844 1.7657 0s.4844-1.2813 0-1.7657l-4.4534-4.4535z"/></svg>