<svg fill="none" height="40" viewBox="0 0 40 40" width="40" xmlns="http://www.w3.org/2000/svg"><path d="m34.4463.540043 2.5 2.499997 2.5 2.5c.7344.73438.7344 1.92188 0 2.64844s-1.9219.73438-2.6484 0l-1.1719-1.17187-2.9844 2.97656 4.2969 4.29683c.7344.7344.7344 1.9219 0 2.6485-.7344.7265-1.9219.7344-2.6485 0l-5.625-5.625-5.625-5.61721c-.7343-.73437-.7343-1.92187 0-2.64843.7344-.72657 1.9219-.73438 2.6485 0l4.2969 4.29687 2.9843-2.97656-1.1797-1.17188c-.7343-.73437-.7343-1.92187 0-2.648435.7344-.726562 1.9219-.734375 2.6485 0zm-18.0234 11.617157 4.7734-4.77341c.0234.02344.0469.05469.0781.07813l1.25 1.25 4.375 4.37498 4.375 4.375 1.25 1.25.0781.0781-14.9218 14.9219c-.8203.8203-1.9297 1.2813-3.0938 1.2813h-6.94529l-4.44532 4.4531c-.73437.7344-1.92187.7344-2.648435 0-.726562-.7344-.734375-1.9219 0-2.6484l4.453125-4.4532v-6.9375c0-1.164.46094-2.2734 1.28125-3.0937l3.38281-3.3828 4.45316 4.4531c.4843.4844 1.2812.4844 1.7656 0s.4844-1.2813 0-1.7656l-4.4531-4.4532 3.2343-3.2343 4.4532 4.4531c.4843.4844 1.2812.4844 1.7656 0s.4844-1.2813 0-1.7656l-4.4531-4.4532z" fill="#475569"/></svg>