<svg viewBox="0 0 48 48" xmlns="http://www.w3.org/2000/svg"><path d="m18.9688 8.99707h-8.7188c-.6875 0-1.25.5625-1.25 1.25003 0 .6875.5625 1.25 1.25 1.25h6.8906l-4.0937 10h-7.7969c-.6875 0-1.25.5625-1.25 1.25s.5625 1.25 1.25 1.25h6.7734 2.7032 18.5468 2.7032 6.7734c.6875 0 1.25-.5625 1.25-1.25s-.5625-1.25-1.25-1.25h-7.7969l-4.0937-10h6.8906c.6875 0 1.25-.5625 1.25-1.25 0-.68753-.5625-1.25003-1.25-1.25003h-8.7188c-.0156 0-.039 0-.0546 0h-9.9454c-.0156 0-.039 0-.0546 0zm9.1953 2.50003 4.0937 10h-16.5l4.0781-10h8.3204zm-17.1641 15-4.40625 10.7734c-.25781.6406.04688 1.3672.6875 1.6328s1.36719-.0469 1.63281-.6875l4.78904-11.7187zm26 0h-2.7031l4.7969 11.7265c.2578.6407.9921.9453 1.6328.6875.6406-.2578.9453-.9922.6875-1.6328z"/></svg>