<svg viewBox="0 0 48 48" xmlns="http://www.w3.org/2000/svg"><path d="m28.9492 8.99951h-9.8906c-.0391 0-.0781 0-.1172 0h-7.4375c-1.3828 0-2.49999 1.11719-2.49999 2.49999s1.11719 2.5 2.49999 2.5h3.8047l-3 7.5h-5.80469c-1.38282 0-2.5 1.1172-2.5 2.5s1.11718 2.5 2.5 2.5h3.80469 5.3828 16.6172 5.3828 3.8047c1.3828 0 2.5-1.1172 2.5-2.5s-1.1172-2.5-2.5-2.5h-5.8047l-3-7.5h3.8047c1.3828 0 2.5-1.1172 2.5-2.5s-1.1172-2.49999-2.5-2.49999h-7.4453c-.0391 0-.0781 0-.1172 0zm9.75 19.99999h-5.3828l3.375 8.4297c.5156 1.2812 1.9688 1.9063 3.25 1.3906 1.2813-.5156 1.9063-1.9687 1.3906-3.25zm-24 0h-5.38279l-2.63282 6.5703c-.51562 1.2813.10938 2.7344 1.39063 3.25 1.28125.5157 2.73438-.1094 3.24998-1.3906zm3-7.5 3-7.5h6.6172l3 7.5z"/></svg>