<svg viewBox="0 0 48 48" xmlns="http://www.w3.org/2000/svg"><path d="m6.68823 9.37646c0-1.48693 1.2013-2.68823 2.68823-2.68823h13.11354c.714 0 1.3945.28562 1.8985.78967l16.1294 16.1294c1.0501 1.0501 1.0501 2.7554 0 3.7971l-13.1135 13.1135c-1.0501 1.0501-2.7554 1.0501-3.8055 0l-16.1294-16.1294c-.50405-.504-.78967-1.1845-.78967-1.8985zm2.68823-5.37646c-2.96545 0-5.37646 2.41101-5.37646 5.37646v13.11354c0 1.4281.56285 2.789 1.57093 3.8055l16.12937 16.1294c2.1002 2.1001 5.5025 2.1001 7.6027 0l13.1219-13.1135c2.1001-2.1002 2.1001-5.5025 0-7.6027l-16.1294-16.12937c-1.0081-1.00808-2.3774-1.57093-3.8055-1.57093zm4.03234 11.425c.5347 0 1.0475-.2124 1.4256-.5906.3782-.3781.5906-.8909.5906-1.4256s-.2124-1.0475-.5906-1.4256c-.3781-.3782-.8909-.5906-1.4256-.5906s-1.0475.2124-1.4256.5906c-.3782.3781-.5906.8909-.5906 1.4256s.2124 1.0475.5906 1.4256c.3781.3782.8909.5906 1.4256.5906z"/></svg>