<svg viewBox="0 0 48 48" xmlns="http://www.w3.org/2000/svg"><path d="m4 9.45203v12.73557c0 1.4482.57088 2.8368 1.59335 3.859l16.35955 16.3561c2.1302 2.1297 5.581 2.1297 7.7112 0l12.7383-12.7356c2.1301-2.1297 2.1301-5.5798 0-7.7095l-16.3596-16.35607c-1.0225-1.03077-2.4028-1.60153-3.8513-1.60153h-12.73831c-3.00778 0-5.45319 2.44489-5.45319 5.45203zm9.5431 1.36297c.7231 0 1.4166.2872 1.928.7985.5113.5112.7986 1.2046.7986 1.9276 0 .7229-.2873 1.4163-.7986 1.9275-.5114.5113-1.2049.7985-1.928.7985-.7232 0-1.4167-.2872-1.928-.7985-.5113-.5112-.7986-1.2046-.7986-1.9275 0-.723.2873-1.4164.7986-1.9276.5113-.5113 1.2048-.7985 1.928-.7985z"/></svg>