<svg viewBox="0 0 48 48" xmlns="http://www.w3.org/2000/svg"><path d="m30.9479 7.0542 9.9824 10.1016c4.0929 4.1406 4.0929 10.7968 0 14.9375l-8.7483 8.8515c-.7264.7344-1.9137.7422-2.6479.0156-.7343-.7265-.7421-1.914-.0156-2.6484l8.7404-8.8516c2.648-2.6796 2.648-6.9843 0-9.664l-9.9746-10.10158c-.7264-.73437-.7186-1.92187.0156-2.64843.7343-.72657 1.9215-.71875 2.648.01562zm-26.9479 14.875v-11.6797c0-2.0703 1.67936-3.74999 3.74927-3.74999h11.67743c1.3278 0 2.601.52344 3.5383 1.46094l13.1225 13.12495c1.9527 1.9532 1.9527 5.1172 0 7.0704l-10.4277 10.4296c-1.9527 1.9532-5.1162 1.9532-7.0689 0l-13.12244-13.125c-.94512-.9375-1.46846-2.2031-1.46846-3.5312zm11.2478-6.6797c0-.663-.2633-1.2989-.7321-1.7678-.4687-.4688-1.1045-.7322-1.7674-.7322s-1.2987.2634-1.7674.7322c-.4688.4689-.7321 1.1048-.7321 1.7678 0 .6631.2633 1.2989.7321 1.7678.4687.4688 1.1045.7322 1.7674.7322s1.2987-.2634 1.7674-.7322c.4688-.4689.7321-1.1047.7321-1.7678z"/></svg>