<svg viewBox="0 0 48 48" xmlns="http://www.w3.org/2000/svg"><path d="m19.9492 6.50395c.9922 0 1.9453.39844 2.6485 1.10156l13.4921 13.48439c1.9532 1.9531 1.9532 5.1172 0 7.0703l-10.4218 10.4297c-1.9532 1.9531-5.1172 1.9531-7.0703 0l-13.49223-13.4844c-.70313-.7031-1.10156-1.6562-1.10156-2.6484v-12.2032c0-2.07026 1.67968-3.74995 3.75-3.74995zm-13.07811 16.82815 13.49221 13.4922c.9765.9765 2.5625.9765 3.539 0l10.4219-10.4297c.9766-.9766.9766-2.5625 0-3.5391l-13.4922-13.48436c-.2343-.23438-.5547-.36719-.8828-.36719h-12.19529c-.6875 0-1.25.5625-1.25 1.24995v12.1954c0 .3281.13281.6484.36718.8828zm21.22661-16.44534c.4765-.5 1.2656-.51562 1.7656-.03906l11.039 10.5469c4.125 3.9375 4.125 10.5234 0 14.4609l-9.7343 9.2969c-.5.4765-1.2891.4609-1.7657-.0391-.4765-.5-.4609-1.289.0391-1.7656l9.7344-9.2969c3.0937-2.9531 3.0937-7.8906 0-10.8437l-11.0391-10.5469c-.5-.47656-.5156-1.26563-.039-1.76563zm-15.9688 5.86714c.4973 0 .9742.1976 1.3258.5492.3517.3517.5492.8286.5492 1.3258 0 .4973-.1975.9742-.5492 1.3259-.3516.3516-.8285.5491-1.3258.5491s-.9742-.1975-1.3258-.5491c-.3516-.3517-.5492-.8286-.5492-1.3259 0-.4972.1976-.9741.5492-1.3258.3516-.3516.8285-.5492 1.3258-.5492z"/></svg>