<svg viewBox="0 0 48 48" xmlns="http://www.w3.org/2000/svg"><path d="m14.7396 13.4236c-1.1111-.6806-1.8542-1.9098-1.8542-3.3125 0-2.14588 1.7431-3.88893 3.8889-3.88893 1.6806 0 3.1042 1.0625 3.6528 2.54861 1.1041-.22222 2.3055-.32639 3.5694-.32639s2.4653.10417 3.5695.32639c.5486-1.48611 1.9722-2.54861 3.6527-2.54861 2.1459 0 3.8889 1.74305 3.8889 3.88893 0 1.4027-.743 2.6319-1.8541 3.3125.125.5138.1875 1.0763.1875 1.6875 0 4.9097-4.2292 8.8888-9.4445 8.8888s-9.4444-3.9791-9.4444-8.8888c0-.6112.0625-1.1667.1875-1.6875zm5.9236 1.6875c.2947 0 .5773-.1171.7857-.3255.2083-.2084.3254-.491.3254-.7857 0-.2946-.1171-.5773-.3254-.7856-.2084-.2084-.491-.3255-.7857-.3255s-.5773.1171-.7857.3255c-.2084.2083-.3254.491-.3254.7856 0 .2947.117.5773.3254.7857s.491.3255.7857.3255zm7.7778-1.1112c0-.2946-.1171-.5773-.3255-.7856-.2083-.2084-.491-.3255-.7856-.3255-.2947 0-.5773.1171-.7857.3255-.2084.2083-.3255.491-.3255.7856 0 .2947.1171.5773.3255.7857s.491.3255.7857.3255c.2946 0 .5773-.1171.7856-.3255.2084-.2084.3255-.491.3255-.7857zm0 4.4445c0-1.8403-1.9931-3.3333-4.4445-3.3333s-4.4444 1.493-4.4444 3.3333 1.993 3.3333 4.4444 3.3333 4.4445-1.493 4.4445-3.3333zm-2.2223-.5556c0 .9236-.993 1.6667-2.2222 1.6667-1.2291 0-2.2222-.7431-2.2222-1.6667s.9931-1.6666 2.2222-1.6666c1.2292 0 2.2222.743 2.2222 1.6666zm-18.72912.7153c1.44444-1.1389 3.54162-.8889 4.68052.5556l1.7917 2.2708c5.1181 6.4931 14.9583 6.4931 20.0764 0l1.7917-2.2708c1.1388-1.4445 3.2361-1.6945 4.6805-.5556 1.4445 1.1389 1.6945 3.2361.5556 4.6806l-1.7917 2.2708c-1.2292 1.5556-2.6319 2.8681-4.1597 3.9375v4.5069h1.1528c.2708-1.8819 1.8888-3.3333 3.8472-3.3333 2.1458 0 3.8889 1.7431 3.8889 3.8889 0 .1875-.0139.375-.0417.5556l-.9028 3.7013c-.4028 1.6528-1.8264 2.8403-3.5 2.9584v.0069h-.2778-1.9513-26.6667-1.94446-.27777v-.0069c-1.67362-.1181-3.09723-1.3056-3.5-2.9584l-.90278-3.7013c-.02778-.1806-.04167-.3681-.04167-.5556 0-2.1458 1.74306-3.8889 3.88889-3.8889 1.95833 0 3.58329 1.4514 3.84719 3.3333h1.1528v-4.5069c-1.5278-1.0694-2.93749-2.3819-4.15971-3.9375l-1.79167-2.2708c-1.13889-1.4445-.88889-3.5417.55556-4.6806zm14.28472 12.0625c-2.4514 0-4.4444 1.9931-4.4444 4.4445h13.3333c0-2.4514-1.9931-4.4445-4.4445-4.4445z"/></svg>