<svg viewBox="0 0 48 48" xmlns="http://www.w3.org/2000/svg"><path d="m15.1076 10.6666c0 .8681.5 1.625 1.2362 1.9931.4791.2361.7152.7777.5763 1.2916-.0902.3334-.1458.7223-.1458 1.1598 0 3.5625 3.1042 6.6666 7.2222 6.6666 4.1181 0 7.2223-3.1041 7.2223-6.6666 0-.4445-.0556-.8264-.1459-1.1598-.1389-.5139.1042-1.0555.5764-1.2916.7361-.3681 1.2361-1.125 1.2361-1.9931 0-1.22915-.993-2.22221-2.2222-2.22221-1.0486 0-1.9306.72917-2.1667 1.71531-.1389.5972-.7291.9652-1.3264.8333-1.0208-.2361-2.1319-.3264-3.1736-.3264-1.0416 0-2.1527.0903-3.1736.3195-.5972.1319-1.1875-.2362-1.3264-.8334-.2361-.97914-1.118-1.70831-2.1666-1.70831-1.2292 0-2.2223.99306-2.2223 2.22221zm2.2223-4.44443c1.7222 0 3.2222.98611 3.9583 2.41666.9236-.13888 1.8472-.19444 2.7083-.19444s1.7848.05556 2.7084.19444c.7361-1.43055 2.2361-2.41666 3.9583-2.41666 2.4514 0 4.4444 1.99305 4.4444 4.44443 0 1.4306-.6805 2.7014-1.7291 3.5139.0416.2986.0625.6111.0625.9306 0 4.9097-4.2292 8.8888-9.4445 8.8888-5.2152 0-9.4444-3.9791-9.4444-8.8888 0-.3195.0208-.632.0625-.9306-1.0486-.8125-1.7292-2.0833-1.7292-3.5139 0-2.45138 1.9931-4.44443 4.4445-4.44443zm6.6666 12.77773c-1.2291 0-2.2222-.743-2.2222-1.6666s.9931-1.6667 2.2222-1.6667c1.2292 0 2.2223.7431 2.2223 1.6667s-.9931 1.6666-2.2223 1.6666zm-16.11108.4167c1.91666-1.5347 4.71528-1.2222 6.24998.6945l.75.9375c4.6736 5.8402 13.5486 5.8402 18.2222 0l.75-.9375c1.5348-1.9167 4.3334-2.2292 6.25-.6945 1.9167 1.5347 2.2292 4.3333.6945 6.25l-.75.9375c-1.875 2.3403-4.132 4.1528-6.6042 5.4306v.8541h1.8056c.493-1.9166 2.2361-3.3333 4.3055-3.3333 2.4514 0 4.4445 1.9931 4.4445 4.4444 0 2.4792-1.0764 4.875-1.757 6.1598-.5625 1.0625-1.6666 1.618-2.7708 1.618h-3.2569-.007-24.4305-.007-3.25694c-1.10416 0-2.20833-.5555-2.77083-1.618-.67361-1.2848-1.75-3.6806-1.75-6.1598 0-2.4513 1.99305-4.4444 4.44444-4.4444 2.06943 0 3.81253 1.4167 4.30553 3.3333h1.8056v-.8541c-2.4722-1.2778-4.73613-3.0903-6.60418-5.4306l-.75695-.9375c-1.53472-1.9167-1.22222-4.7153.69445-6.25zm3.88198 20.1389h.0069 6.6667v-1.1111c0-1.8403-1.4931-3.3333-3.3334-3.3333h-3.3333c-.6111 0-1.1111-.5-1.1111-1.1112 0-1.2291-.99306-2.2222-2.22223-2.2222-1.22916 0-2.22222.9931-2.22222 2.2222 0 1.9167.86111 3.9167 1.49306 5.1181.13194.25.42361.4375.80555.4375zm5.0069-6.4097c.2778.0903.5486.1944.8056.3264.7014-2.2709 2.8125-3.9167 5.3055-3.9167h2.2222c2.4931 0 4.6042 1.6458 5.3056 3.9097.2569-.125.5278-.2361.8056-.3264v-1.7916c0-.4306.25-.8195.6388-1.007 2.4237-1.1458 4.6389-2.8541 6.4584-5.125l.75-.9375c.7639-.9583.6111-2.3541-.3472-3.125-.9584-.7708-2.3542-.6111-3.125.3472l-.75.9375c-5.5625 6.9514-16.132 6.9514-21.6875 0l-.757-.9375c-.7639-.9583-2.1667-1.1111-3.12499-.3472-.95834.7639-1.11111 2.1667-.34723 3.125l.75.9375c1.81942 2.2709 4.03472 3.9792 6.45832 5.125.3889.1806.6389.5764.6389 1.007zm2.7778 1.9653c.6944.9305 1.1111 2.0833 1.1111 3.3333v1.1111h6.6667v-1.1111c0-1.25.4166-2.4028 1.1111-3.3333 0-1.8403-1.4931-3.3334-3.3334-3.3334h-2.2222c-1.8403 0-3.3333 1.4931-3.3333 3.3334zm13.3333 0c-1.8403 0-3.3333 1.493-3.3333 3.3333v1.1111h6.6667.0069 3.25c.3819 0 .6736-.1875.8056-.4375.6388-1.2014 1.493-3.2014 1.493-5.1181 0-1.2291-.993-2.2222-2.2222-2.2222s-2.2222.9931-2.2222 2.2222c0 .6112-.5 1.1112-1.1111 1.1112zm-12.2222-22.2223c.2947 0 .5773.1171.7857.3255.2083.2083.3254.491.3254.7856 0 .2947-.1171.5773-.3254.7857-.2084.2084-.491.3255-.7857.3255s-.5773-.1171-.7857-.3255-.3254-.491-.3254-.7857c0-.2946.117-.5773.3254-.7856.2084-.2084.491-.3255.7857-.3255zm5.5556 1.1111c0-.2946.117-.5773.3254-.7856.2084-.2084.491-.3255.7857-.3255.2946 0 .5773.1171.7856.3255.2084.2083.3255.491.3255.7856 0 .2947-.1171.5773-.3255.7857-.2083.2084-.491.3255-.7856.3255-.2947 0-.5773-.1171-.7857-.3255s-.3254-.491-.3254-.7857z"/></svg>