<svg viewBox="0 0 48 48" xmlns="http://www.w3.org/2000/svg"><path d="m22.7076 6.41667c.7708-.55556 1.8125-.55556 2.5833 0l15.5556 11.11113c.5139.368.8472.9375.9167 1.5625l2.2222 20c.0694.625-.132 1.2569-.5556 1.7291-.4236.4723-1.0208.7431-1.6527.7431h-5.5556-1.9583c-.8403 0-1.6111-.4722-1.9861-1.2292l-6.9792-13.9514c-.1181-.2361-.3542-.3819-.6111-.3819-.382 0-.6875.3056-.6875.6875v12.6458c0 1.2292-.9931 2.2223-2.2222 2.2223h-1.1112-14.44441c-.63194 0-1.23611-.2709-1.65277-.7431-.41667-.4722-.625-1.0972-.55556-1.7292l2.22222-20c.06945-.625.40278-1.1944.91667-1.5625z"/></svg>