<svg viewBox="0 0 48 48" xmlns="http://www.w3.org/2000/svg"><path d="m22.4531 4.46094-11.6093 12.77346c-.3047.3281-.4688.7656-.4688 1.2109 0 1 .8047 1.8047 1.8047 1.8047h1.9453l-5.73438 5.7344c-.32812.3281-.51562.7812-.51562 1.25 0 .9765.78906 1.7656 1.76562 1.7656h2.60938l-5.82812 6.9922c-.27344.3281-.42188.7422-.42188 1.1719 0 1.0156.82031 1.8359 1.83594 1.8359h13.16406v2.5c0 1.3828 1.1172 2.5 2.5 2.5s2.5-1.1172 2.5-2.5v-2.5h13.1641c1.0156 0 1.8359-.8203 1.8359-1.8359 0-.4297-.1484-.8438-.4219-1.1719l-5.8281-6.9922h2.6094c.9765 0 1.7656-.7891 1.7656-1.7656 0-.4688-.1875-.9219-.5156-1.25l-5.7344-5.7344h1.9453c.9922 0 1.8047-.8047 1.8047-1.8047 0-.4453-.1641-.8828-.4688-1.2109l-11.6093-12.77346c-.2657-.29688-.6485-.46094-1.0469-.46094s-.7812.16406-1.0469.46094z"/></svg>