<svg viewBox="0 0 48 48" xmlns="http://www.w3.org/2000/svg"><path d="m37.2128 31.9546 10.0323 7.9803c.8645.6876 1.0078 1.9458.3202 2.8102-.6876.8645-1.9458 1.0078-2.8103.3202l-43.99997-35.00002c-.864437-.68762-1.007775-1.94581-.320155-2.81025.687625-.86444 1.945815-1.00778 2.810245-.32015l10.89828 8.66912 8.3098-9.14306c.2656-.29688.6484-.46094 1.0469-.46094.3984 0 .7812.16406 1.0469.46094l11.6093 12.77346c.3047.3281.4688.7656.4688 1.2109 0 1-.8125 1.8047-1.8047 1.8047h-1.9453l5.7344 5.7344c.3281.3281.5156.7812.5156 1.25 0 .9765-.7891 1.7656-1.7656 1.7656h-2.6094z"/><path d="m8.3907 25.9844 3.8126-3.8126 21.1555 16.8282h-7.3587v2.5c0 1.3828-1.1172 2.5-2.5 2.5s-2.5-1.1172-2.5-2.5v-2.5h-13.16409c-1.01562 0-1.83593-.8203-1.83593-1.8359 0-.4297.14843-.8438.42187-1.1719l5.82815-6.9922h-2.6094c-.97656 0-1.76562-.7891-1.76562-1.7656 0-.4688.1875-.9219.51562-1.25z"/></svg>