<svg viewBox="0 0 48 48" xmlns="http://www.w3.org/2000/svg"><path d="m10.8438 17.2344 11.6093-12.77346c.2657-.29688.6485-.46094 1.0469-.46094s.7812.16406 1.0469.46094l11.6093 12.77346c.3047.3281.4688.7656.4688 1.2109 0 1-.8125 1.8047-1.8047 1.8047h-1.9453l5.7344 5.7344c.118.118.2178.2522.2973.3974-.8727-.2487-1.7942-.3819-2.7467-.3819-5.5228 0-10 4.4772-10 10 0 1.0453.1604 2.053.4579 3.0001h-.6179v2.5c0 1.3828-1.1172 2.5-2.5 2.5s-2.5-1.1172-2.5-2.5v-2.5h-13.16406c-1.01563 0-1.83594-.8203-1.83594-1.8359 0-.4297.14844-.8438.42188-1.1719l5.82812-6.9922h-2.60938c-.97656 0-1.76562-.7891-1.76562-1.7656 0-.4688.1875-.9219.51562-1.25l5.73438-5.7344h-1.9453c-1 0-1.8047-.8047-1.8047-1.8047 0-.4453.1641-.8828.4688-1.2109z"/><path d="m28.1601 36c0-4.4166 3.5833-8 8-8 4.4166 0 8 3.5834 8 8 0 4.4167-3.5834 8-8 8-4.4167 0-8-3.5833-8-8zm8 5.3334c.7388 0 1.3333-.5945 1.3333-1.3334 0-.7388-.5945-1.3333-1.3333-1.3333-.7389 0-1.3334.5945-1.3334 1.3333 0 .7389.5945 1.3334 1.3334 1.3334zm-3.5556-7.5556c0 .4889.4.8889.8889.8889s.8889-.4.8889-.8889v-.3555c0-.2945.2389-.5334.5333-.5334h2.25c.4278 0 .7722.3445.7722.7723 0 .2888-.1611.55-.4111.6888l-1.7778.9334c-.2944.1555-.4777.4555-.4777.7833v.8222c0 .4889.4.8889.8889.8889.4888 0 .8888-.4.8888-.8889v-.2833l1.3056-.6833c.8389-.4445 1.3611-1.3611 1.3611-2.2611 0-1.4056-1.1444-2.55-2.55-2.55h-2.25c-1.2778 0-2.3111 1.0333-2.3111 2.3111z"/></svg>