<svg viewBox="0 0 48 48" xmlns="http://www.w3.org/2000/svg"><path d="m23.9985 6.49878c1.1095 0 2.133.58598 2.6956 1.54699l16.8762 28.75203c.5703.9688.5703 2.1642.0156 3.1331-.5547.9688-1.5939 1.5704-2.7111 1.5704h-33.75246c-1.11727 0-2.1564-.6016-2.71113-1.5704-.55473-.9689-.54692-2.1721.01562-3.1331l16.87617-28.75203c.5626-.96101 1.5861-1.54699 2.6955-1.54699zm0 10.00072c-1.0391 0-1.8751.836-1.8751 1.8751v8.7507c0 1.0391.836 1.8751 1.8751 1.8751 1.0392 0 1.8752-.836 1.8752-1.8751v-8.7507c0-1.0391-.836-1.8751-1.8752-1.8751zm2.5002 17.5012c0-1.3829-1.1172-2.5001-2.5002-2.5001-1.3829 0-2.5001 1.1172-2.5001 2.5001 0 1.383 1.1172 2.5002 2.5001 2.5002 1.383 0 2.5002-1.1172 2.5002-2.5002z"/></svg>