<svg viewBox="0 0 48 48" xmlns="http://www.w3.org/2000/svg"><path d="m30.6667 23.0833c0 1.4861-1.2084 2.6945-2.6945 2.6945h-19.05553c-1.48611 0-2.69445-1.2084-2.69445-2.6945v-2.8611c0-6.75 5.47218-12.2222 12.22218-12.2222s12.2223 5.4722 12.2223 12.2222zm6.6666 2.6945c-.1389 0-.2777-.007-.4097-.0209-1.1319 3.7014-4.4653 6.4375-8.4792 6.6667v3.9097c0 1.5348-1.243 2.7778-2.7777 2.7778h-3.3334c-1.5347 0-2.7777-1.243-2.7777-2.7778v-3.8889h-2.2223v3.8889c0 1.5348-1.243 2.7778-2.7777 2.7778h-3.3334c-1.5347 0-2.77776-1.243-2.77776-2.7778v-3.8889h-2.22222c-1.22916 0-2.22222-.993-2.22222-2.2222 0-1.2291.99306-2.2222 2.22222-2.2222h4.99998 3.3334 7.7777 3.3334 2.2222c2.7639 0 5-2.2361 5-5v-1.6667-2.2222-1.1111c0-2.4514 1.993-4.4444 4.4444-4.4444 3.6806 0 6.6667 2.9861 6.6667 6.6666v1.1111c0 2.4514-1.9931 4.4445-4.4444 4.4445zm1.1111-4.4445c.2947 0 .5773-.117.7857-.3254s.3255-.491.3255-.7857-.1171-.5773-.3255-.7857c-.2084-.2083-.491-.3254-.7857-.3254-.2946 0-.5773.1171-.7856.3254-.2084.2084-.3255.491-.3255.7857s.1171.5773.3255.7857c.2083.2084.491.3254.7856.3254z"/></svg>