<svg viewBox="0 0 48 48" xmlns="http://www.w3.org/2000/svg"><path d="m10.4796 31.6044c0 1.3257-.4301 2.8468.583 3.935.7615.8178 1.6009.7596 2.6093.7596 1.2366 0 2.3858.1521 3.183-1.0328.8028-1.1943.3812-1.9605.1033-3.1924 3.3435 0 6.7321-.4469 9.8588-1.6901l-.0939 1.5023v1.8779c.0065.5568.1042 1.0394.4356 1.5023.8169 1.1436 1.8093 1.0328 3.0384 1.0328 1.3558 0 2.6516.1296 3.3802-1.3145.5352-1.0591.1164-2.445-.0705-3.5679-.3361-2.0122-.43-3.6947 1.0263-5.3519.7981-.908 2.0102-1.7896 2.9877-2.5229l4.0374-2.9624c.4967-.3549 2.1004-1.3915 2.3313-1.8393.109-.2132.1061-.4254.1099-.6564.0235-1.7792-.6441-4.0007-1.9802-5.2298-1.9577-1.8018-5.642-1.3633-7.503.3559-.7455.6882-1.0601 1.2469-1.4732 2.151-.1559.3399-.3465.7465-.2723 1.1268l.5897 1.3145c.2807.6328.5061 1.3013.6741 1.9717.1108.4385.2836.8798.0639 1.3136-.2104.4122-.7061.6901-1.0845.9399l-2.8168 1.6694c-3.5914 1.9069-7.2138 3.2121-11.2672 3.6965l-2.0656.1738h-2.2534l-1.1268-.0939h-.845l-2.91069-.308-4.1313-.6441c-.49388-.0282-1.26005.4206-1.48633.86-.11079.2151-.11924.5108-.1061.7493.05164.8995.81781 1.0319 1.49854 1.3436 1.29854.5944 3.65244 2.0112 4.97638 2.1305zm10.9854-19.0603h-1.1267c-1.4149.0018-3.1191.3539-4.4129.9257-.3127.1381-1.1315.4864-1.2592.7953-.1126.2704.1587 1.414.2263 1.753.0629.3155.2113 1.4084.4282 1.5812.1896.1502 1.1586.2694 1.4497.3201.4347.0751 1.7117.3765 2.0656.323.3794-.0572 1.4976-.7943 1.8779-1.0337.2901-.1822 1.2356-.6751 1.3539-.9446.109-.2451-.0422-.8216-.0957-1.091zm2.3474.2816.4131 2.3474.323 1.3145 1.0751 1.5023 2.9773 4.0374c.6169-.2263 1.7633-.8986 2.3474-1.2601.2187-.1361.6976-.3925.7802-.6375.0695-.2056-.0563-.5315-.123-.7314-.1915-.5681-.5427-1.2648-.846-1.784-1.5361-2.6234-4.0045-4.1961-6.9471-4.7886zm13.8962 2.8647c1.4919.1099 1.5013 2.0159.1877 2.184-1.3736.1755-1.7811-1.8939-.1877-2.184zm-29.95195 8.9659 3.28625.3755 1.4084-4.4129.6206-2.0657-.4328-2.7229c-.6845.3239-1.3915 1.3474-1.8375 1.9718-1.13235 1.5839-2.75012 4.9359-3.04495 6.8542zm12.48775-4.6008.5634 4.7886c1.9764-.3719 3.8646-1.0394 5.7275-1.784-.1953-.5878-.738-1.1878-1.1145-1.6901l-2.1718-3.0046c-.6619.1343-2.3605 1.2695-3.0046 1.6901zm-5.258-.1878-1.6901 5.3519 3.6619.0939 1.5962-.0939-.4695-4.7885z"/></svg>