<svg fill="none" height="40" viewBox="0 0 40 40" width="40" xmlns="http://www.w3.org/2000/svg"><path d="m6.47882 27.6056c0 1.3258-.43004 2.847.5831 3.9352.7615.8179 1.60094.7596 2.60939.7596 1.23659 0 2.38589.1522 3.18309-1.0328.8028-1.1944.3812-1.9606.1033-3.1925 3.3437 0 6.7324-.447 9.8592-1.6902l-.0939 1.5024v1.8779c.0065.5568.1042 1.0395.4356 1.5024.8169 1.1436 1.8094 1.0328 3.0385 1.0328 1.3559 0 2.6517.1296 3.3803-1.3145.5352-1.0592.1164-2.4451-.0704-3.5681-.3362-2.0122-.4301-3.6948 1.0263-5.3521.7981-.908 2.0103-1.7897 2.9878-2.523l4.0375-2.9624c.4968-.355 2.1005-1.3916 2.3315-1.8395.1089-.2131.1061-.4253.1099-.6563.0234-1.7794-.6442-4.001-1.9803-5.23007-1.9578-1.80187-5.6423-1.36338-7.5033.35587-.7456.68826-1.0601 1.2469-1.4733 2.1512-.1558.3399-.3464.7465-.2723 1.1267l.5897 1.3146c.2808.6329.5061 1.3014.6742 1.9718.1108.4385.2836.8798.0638 1.3136-.2103.4122-.7061.6902-1.0845.9399l-2.8169 1.6695c-3.5915 1.9071-7.2141 3.2122-11.2676 3.6967l-2.0657.1737h-2.2535l-1.12678-.0938h-.84507l-2.9108-.308-4.13146-.6442c-.49389-.0281-1.26009.4207-1.486381.8601-.11079861.2151-.11924932.5108-.10610378.7493.05164318.8996.81784078 1.032 1.49859478 1.3437 1.29859.5944 3.65258 2.0113 4.97652 2.1305zm10.98588-19.06103h-1.1267c-1.415.00188-3.1193.35399-4.4132.92583-.3126.13802-1.1314.48638-1.2591.7953-.1127.2704.1587 1.4141.2263 1.7531.0629.3154.2112 1.4084.4281 1.5812.1897.1502 1.1587.2695 1.4498.3202.4347.0751 1.7117.3765 2.0657.323.3794-.0573 1.4977-.7944 1.878-1.0338.2901-.1822 1.2356-.6752 1.354-.9446.1089-.2451-.0423-.8216-.0958-1.0911zm2.3475.28169.4131 2.34744.323 1.3145 1.0751 1.5024 2.9775 4.0375c.6169-.2262 1.7634-.8985 2.3474-1.2601.2188-.1361.6977-.3924.7803-.6375.0695-.2056-.0563-.5315-.123-.7315-.1916-.568-.5427-1.2648-.846-1.784-1.5362-2.6235-4.0047-4.19625-6.9474-4.78874zm13.8967 2.86484c1.492.1098 1.5014 2.0159.1878 2.184-1.3737.1756-1.7813-1.8939-.1878-2.184zm-29.95308 8.9661 3.28638.3756 1.40845-4.4131.62066-2.0657-.43286-2.723c-.68451.3239-1.39155 1.3474-1.83756 1.9718-1.1324 1.584-2.75024 4.9361-3.04507 6.8544zm12.48828-4.6009.5634 4.7887c1.9765-.3718 3.8648-1.0394 5.7277-1.784-.1953-.5878-.7381-1.1878-1.1146-1.6901l-2.1718-3.0047c-.662.1342-2.3606 1.2695-3.0047 1.6901zm-5.2582-.1878-1.69018 5.3521 3.66198.0939 1.5962-.0939-.4694-4.7887z" fill="#475569"/></svg>