<svg fill="none" height="40" viewBox="0 0 40 40" width="40" xmlns="http://www.w3.org/2000/svg"><path d="m22.5 8.53906v18.96094c0 1.3828-1.1172 2.5-2.5 2.5s-2.5-1.1172-2.5-2.5v-18.96094l-5.7344 5.73434c-.9765.9766-2.56248.9766-3.53904 0-.97656-.9765-.97656-2.5625 0-3.539l10.00004-10.000025c.9765-.976563 2.5625-.976563 3.539 0l10 10.000025c.9766.9765.9766 2.5625 0 3.539-.9765.9766-2.5625.9766-3.539 0zm-17.5 18.96094h10c0 2.7578 2.2422 5 5 5s5-2.2422 5-5h10c2.7578 0 5 2.2422 5 5v2.5c0 2.7578-2.2422 5-5 5h-30c-2.75781 0-5-2.2422-5-5v-2.5c0-2.7578 2.24219-5 5-5zm28.75 8.125c.4973 0 .9742-.1975 1.3258-.5492.3517-.3516.5492-.8285.5492-1.3258s-.1975-.9742-.5492-1.3258c-.3516-.3517-.8285-.5492-1.3258-.5492s-.9742.1975-1.3258.5492c-.3517.3516-.5492.8285-.5492 1.3258s.1975.9742.5492 1.3258c.3516.3517.8285.5492 1.3258.5492z" fill="#475569"/></svg>