<svg viewBox="0 0 48 48" xmlns="http://www.w3.org/2000/svg"><path d="m26.5001 12.5375v18.9619c0 1.3829-1.1172 2.5001-2.5001 2.5001s-2.5001-1.1172-2.5001-2.5001v-18.9619l-5.7347 5.7347c-.9766.9766-2.5626.9766-3.5392 0s-.9766-2.5626 0-3.5393l10.0005-10.00044c.9766-.97661 2.5626-.97661 3.5392 0l10.0005 10.00044c.9766.9767.9766 2.5627 0 3.5393s-2.5626.9766-3.5392 0zm-17.50083 18.9619h10.00053c0 2.7579 2.2423 5.0002 5.0002 5.0002s5.0002-2.2423 5.0002-5.0002h10.0005c2.758 0 5.0003 2.2423 5.0003 5.0002v2.5002c0 2.7579-2.2423 5.0002-5.0003 5.0002h-30.00143c-2.75795 0-5.00025-2.2423-5.00025-5.0002v-2.5002c0-2.7579 2.2423-5.0002 5.00025-5.0002zm28.75143 8.1254c.4973 0 .9742-.1976 1.3259-.5492.3516-.3517.5492-.8286.5492-1.3259s-.1976-.9742-.5492-1.3259c-.3517-.3516-.8286-.5492-1.3259-.5492s-.9743.1976-1.3259.5492c-.3517.3517-.5492.8286-.5492 1.3259s.1975.9742.5492 1.3259c.3516.3516.8286.5492 1.3259.5492z"/></svg>