<svg viewBox="0 0 48 48" xmlns="http://www.w3.org/2000/svg"><path d="m31.5 14c0-.9849-.194-1.9602-.5709-2.8701-.3769-.91-.9294-1.73676-1.6258-2.4332s-1.5232-1.24889-2.4332-1.6258c-.9099-.37691-1.8852-.5709-2.8701-.5709s-1.9602.19399-2.8701.5709c-.91.37691-1.7368.92936-2.4332 1.6258s-1.2489 1.5232-1.6258 2.4332c-.3769.9099-.5709 1.8852-.5709 2.8701s.194 1.9602.5709 2.8701c.3769.91.9294 1.7368 1.6258 2.4332s1.5232 1.2489 2.4332 1.6258c.9099.3769 1.8852.5709 2.8701.5709s1.9602-.194 2.8701-.5709c.91-.3769 1.7368-.9294 2.4332-1.6258s1.2489-1.5232 1.6258-2.4332c.3769-.9099.5709-1.8852.5709-2.8701zm-17.5 0c0-2.6522 1.0536-5.1957 2.9289-7.07107 1.8754-1.87536 4.4189-2.92893 7.0711-2.92893s5.1957 1.05357 7.0711 2.92893c1.8753 1.87537 2.9289 4.41887 2.9289 7.07107s-1.0536 5.1957-2.9289 7.0711c-1.8754 1.8753-4.4189 2.9289-7.0711 2.9289s-5.1957-1.0536-7.0711-2.9289c-1.8753-1.8754-2.9289-4.4189-2.9289-7.0711zm-5 27.5h30c-.0938-6.2266-5.1719-11.25-11.4297-11.25h-7.1406c-6.25 0-11.32814 5.0234-11.4297 11.25zm-2.5.1797c0-7.6953 6.2344-13.9297 13.9297-13.9297h7.1406c7.6953 0 13.9297 6.2344 13.9297 13.9297 0 1.2812-1.0391 2.3203-2.3203 2.3203h-30.35939c-1.28125 0-2.32031-1.0391-2.32031-2.3203z"/></svg>