<svg viewBox="0 0 48 48" xmlns="http://www.w3.org/2000/svg"><path d="m37.75 17.7729c0-7.6064-6.1563-13.7729-13.75-13.7729s-13.75 6.1665-13.75 13.7729c0 6.7502 4.8516 12.3564 11.25 13.4676v2.7429h-3.75c-.6903 0-1.25.5604-1.25 1.252v2.5042c0 .6915.5597 1.2521 1.25 1.2521h3.75v3.7562c0 .6915.5597 1.2521 1.25 1.2521h2.5c.6905 0 1.25-.5606 1.25-1.2521v-3.7562h3.75c.6905 0 1.25-.5606 1.25-1.2521v-2.5042c0-.6916-.5595-1.252-1.25-1.252h-3.75v-2.7429c6.3984-1.1112 11.25-6.7142 11.25-13.4676zm-13.75 7.5124c-4.1352 0-7.5-3.3704-7.5-7.5124 0-4.1428 3.3648-7.5125 7.5-7.5125 4.1359 0 7.5 3.3697 7.5 7.5125 0 4.1397-3.3672 7.5124-7.5 7.5124z"/></svg>