<svg viewBox="0 0 48 48" xmlns="http://www.w3.org/2000/svg"><path d="m12.75 17.75c0-1.4774.291-2.9403.8564-4.3052.5653-1.3649 1.394-2.6051 2.4386-3.64975 1.0447-1.04466 2.2849-1.87333 3.6498-2.43869 1.3649-.56537 2.8278-.85636 4.3052-.85636s2.9403.29099 4.3052.85636c1.3649.56536 2.6051 1.39403 3.6498 2.43869 1.0446 1.04465 1.8733 2.28485 2.4386 3.64975.5654 1.3649.8564 2.8278.8564 4.3052s-.291 2.9403-.8564 4.3052c-.5653 1.3649-1.394 2.6051-2.4386 3.6498-1.0447 1.0446-2.2849 1.8733-3.6498 2.4386-1.3649.5654-2.8278.8564-4.3052.8564s-2.9403-.291-4.3052-.8564c-1.3649-.5653-2.6051-1.394-3.6498-2.4386-1.0446-1.0447-1.8733-2.2849-2.4386-3.6498-.5654-1.3649-.8564-2.8278-.8564-4.3052zm12.5 13.6953c7.0078-.6328 12.5-6.5234 12.5-13.6953 0-7.5938-6.1562-13.75-13.75-13.75s-13.75 6.1562-13.75 13.75c0 7.1719 5.4922 13.0625 12.5 13.6953v5.0547h-5c-.6875 0-1.25.5625-1.25 1.25s.5625 1.25 1.25 1.25h5v3.75c0 .6875.5625 1.25 1.25 1.25s1.25-.5625 1.25-1.25v-3.75h5c.6875 0 1.25-.5625 1.25-1.25s-.5625-1.25-1.25-1.25h-5z"/></svg>