<svg fill="none" height="48" viewBox="0 0 48 48" width="48" xmlns="http://www.w3.org/2000/svg"><g fill="#475569"><path clip-rule="evenodd" d="m26.4999 6.5c0-1.38281-1.1172-2.5-2.5-2.5s-2.5 1.11719-2.5 2.5v.89844c0 3.89846-4.7109 5.85156-7.4687 3.09376l-.6407-.63282c-.9765-.97657-2.5546-.97657-3.5312 0-.06298.06298-.1219.12849-.17676.19622l-6.43757-5.1208c-.86444-.68762-2.12263-.54428-2.810247.32015-.687621.86444-.544283 2.12263.320155 2.81025l44.000022 35c.8644.6876 2.1226.5443 2.8102-.3202.6876-.8644.5443-2.1226-.3201-2.8102l-11.0121-8.7596c-.1464-2.3431 1.6335-4.6752 4.3764-4.6752h.8906c1.3828 0 2.5-1.1172 2.5-2.5s-1.1172-2.5-2.5-2.5h-.8984c-3.8985 0-5.8516-4.7109-3.0938-7.4688l.6407-.6406c.9765-.9765.9765-2.5625 0-3.53904-.9766-.97656-2.5625-.97656-3.5391 0l-.6406.64064c-2.7578 2.7578-7.4688.8047-7.4688-3.09376zm-1.3498 15.8594c.0662-.281.0998-.5694.0998-.8594 0-.4925-.097-.9801-.2854-1.4351-.1885-.4549-.4647-.8683-.8129-1.2166-.3482-.3482-.7616-.6244-1.2166-.8128-.455-.1885-.9426-.2855-1.4351-.2855-.4924 0-.9801.097-1.435.2855-.0757.0313-.1501.065-.2233.1011z" fill-rule="evenodd"/><path d="m7.39836 21.5c1.09029 0 2.02842-.3685 2.75404-.9595l19.8322 15.7756c-1.8792.4046-3.4769 2.0152-3.4769 4.2855v.8984c0 1.3828-1.1172 2.5-2.5 2.5s-2.5-1.1172-2.5-2.5v-.8984c0-3.8985-4.7109-5.8516-7.4687-3.0938l-.6406.6406c-.9766.9766-2.5625.9766-3.5391 0-.97656-.9765-.97656-2.5625 0-3.539l.6328-.6406c2.7578-2.7579.8047-7.4688-3.09374-7.4688h-.89844c-1.38281 0-2.5-1.1172-2.5-2.5s1.11719-2.5 2.5-2.5z"/></g></svg>