<svg fill="none" height="48" viewBox="0 0 48 48" width="48" xmlns="http://www.w3.org/2000/svg"><path d="m26.5 6.5c0-1.38281-1.1172-2.5-2.5-2.5s-2.5 1.11719-2.5 2.5v.89844c0 3.89846-4.7109 5.85156-7.4688 3.09376l-.6406-.63282c-.9765-.97657-2.5547-.97657-3.53122 0-.97657.97652-.97657 2.56252 0 3.53902l.64062.6407c2.75 2.75.7969 7.4609-3.10156 7.4609h-.89844c-1.38281 0-2.5 1.1172-2.5 2.5s1.11719 2.5 2.5 2.5h.89844c3.89846 0 5.85156 4.7109 3.09376 7.4688l-.63282.6406c-.97657.9765-.97657 2.5625 0 3.539.97652.9766 2.56252.9766 3.53902 0l.6407-.6406c2.7578-2.7578 7.4687-.8047 7.4687 3.0938v.8984c0 1.3828 1.1172 2.5 2.5 2.5s2.5-1.1172 2.5-2.5v-.8984c0-3.8985 4.711-5.8516 7.4688-3.0938l.6406.6406c.9766.9766 2.5625.9766 3.539 0 .9766-.9765.9766-2.5625 0-3.539l-.6406-.6406c-2.7578-2.7579-.8047-7.4688 3.0938-7.4688h.8906c1.3828 0 2.5-1.1172 2.5-2.5s-1.1172-2.5-2.5-2.5h-.8984c-3.8985 0-5.8516-4.7109-3.0938-7.4688l.6406-.6406c.9766-.9765.9766-2.5625 0-3.53904-.9765-.97656-2.5625-.97656-3.539 0l-.6406.64064c-2.7579 2.7578-7.4688.8047-7.4688-3.09376zm-8.75 15c0-.4925.097-.9801.2855-1.4351.1884-.4549.4646-.8683.8128-1.2166.3483-.3482.7617-.6244 1.2166-.8128.455-.1885.9426-.2855 1.4351-.2855s.9801.097 1.4351.2855c.4549.1884.8683.4646 1.2166.8128.3482.3483.6244.7617.8128 1.2166.1885.455.2855.9426.2855 1.4351s-.097.9801-.2855 1.4351c-.1884.4549-.4646.8683-.8128 1.2166-.3483.3482-.7617.6244-1.2166.8128-.455.1885-.9426.2855-1.4351.2855s-.9801-.097-1.4351-.2855c-.4549-.1884-.8683-.4646-1.2166-.8128-.3482-.3483-.6244-.7617-.8128-1.2166-.1885-.455-.2855-.9426-.2855-1.4351zm10 4.375c.4973 0 .9742.1975 1.3258.5492.3517.3516.5492.8285.5492 1.3258s-.1975.9742-.5492 1.3258c-.3516.3517-.8285.5492-1.3258.5492s-.9742-.1975-1.3258-.5492c-.3517-.3516-.5492-.8285-.5492-1.3258s.1975-.9742.5492-1.3258c.3516-.3517.8285-.5492 1.3258-.5492z" fill="#475569"/></svg>