<svg fill="none" height="40" viewBox="0 0 40 40" width="40" xmlns="http://www.w3.org/2000/svg"><path clip-rule="evenodd" d="m19.9401 4.00091c.9222-.02763 1.7437.57918 1.9883 1.46879l4.5411 16.5129 3.0562-3.334c.3788-.4133.9137-.6486 1.4743-.6486h7c1.1046 0 2 .8954 2 2s-.8954 2-2 2h-6.1202l-4.9055 5.3515c-.4917.5364-1.236.7634-1.9435.5927-.7074-.1707-1.2662-.7122-1.4592-1.4139l-3.318-12.0654-3.7969 17.949c-.1786.8441-.8783 1.4786-1.7359 1.5739-.8575.0953-1.6794-.3701-2.0389-1.1545l-4.9653-10.8333h-5.7166c-1.10457 0-2-.8954-2-2s.89543-2 2-2h7c.78202 0 1.4923.4558 1.8181 1.1667l2.978 6.4973 4.2472-20.07791c.1909-.90265.9746-1.55755 1.8968-1.58518z" fill="#475569" fill-rule="evenodd"/></svg>