<svg viewBox="0 0 48 48" xmlns="http://www.w3.org/2000/svg"><path d="m35.7637 32.2347c.9765.9765.9765 2.5584 0 3.5349-.4843.4882-1.1249.7304-1.7655.7304-.6405 0-1.2795-.2441-1.767-.7324l-8.2322-8.2278-8.2314 8.2259c-.4882.4921-1.128.7343-1.7678.7343s-1.2788-.2422-1.7674-.7343c-.9765-.9765-.9765-2.5584 0-3.5349l8.2337-8.2337-8.2337-8.2299c-.9765-.9764-.9765-2.5583 0-3.5348s2.5584-.9765 3.5348 0l8.2318 8.2376 8.2338-8.2337c.9764-.9765 2.5583-.9765 3.5348 0s.9765 2.5584 0 3.5349l-8.2337 8.2337z"/></svg>