<svg height="1em" viewBox="0 0 1418 401" preserveAspectRatio="xMidYMid meet" fill="none" xmlns="http://www.w3.org/2000/svg"><path d="M110.8 277.4H36.4L20.6 314h-17l62.6-142.4h14.4L143.2 314h-16.8l-15.6-36.6zm-5.8-13.6l-31.4-73.2-31.4 73.2H105zM212.675 211c24.133 0 36.2 13.267 36.2 39.8V314h-16.2v-62.4c0-9.333-1.867-16.133-5.6-20.4-3.733-4.4-9.6-6.6-17.6-6.6-9.333 0-16.8 2.867-22.4 8.6-5.6 5.733-8.4 13.467-8.4 23.2V314h-16.2v-72.4c0-10.4-.533-19.8-1.6-28.2h15.4l1.6 18c3.067-6.533 7.667-11.533 13.8-15 6.133-3.6 13.133-5.4 21-5.4zm66.792 2.4h16.2V314h-16.2V213.4zm18.2-42.6v18.4h-19.8v-18.4h19.8z" fill="currentColor"/><path d="M344.923 171.6v14.6c0 5.6-.933 10.733-2.8 15.4-1.866 4.667-5 9.267-9.4 13.8l-7.6-6c5.2-6 8.134-11.733 8.8-17.2h-9.6v-20.6h20.6z" fill="#32B54F"/><path d="M509.2 171.6V314H494V208.2L447.8 314h-11.6l-46.6-105 .2 105h-15.2V171.6h13.6l54 122.8 53.4-122.8h13.6zm117.327 91.6h-73.8c.133 12.8 3.066 22.467 8.8 29 5.866 6.533 14.333 9.8 25.4 9.8 11.733 0 22.533-3.933 32.4-11.8l5.4 11.8c-4.4 4.133-10.067 7.4-17 9.8-6.8 2.4-13.8 3.6-21 3.6-15.734 0-28.067-4.6-37-13.8-8.934-9.333-13.4-22.067-13.4-38.2 0-10.267 2-19.333 6-27.2 4-8 9.6-14.2 16.8-18.6 7.2-4.4 15.4-6.6 24.6-6.6 13.333 0 23.8 4.4 31.4 13.2 7.6 8.667 11.4 20.667 11.4 36v3zm-42.6-39.6c-8.4 0-15.267 2.533-20.6 7.6-5.2 5.067-8.534 12.2-10 21.4h58.6c-.8-9.467-3.6-16.667-8.4-21.6-4.667-4.933-11.2-7.4-19.6-7.4zm155.789-10.2V314h-16v-18.2c-2.934 6.267-7.4 11.133-13.4 14.6-5.867 3.333-12.734 5-20.6 5-8.934 0-16.8-2.133-23.6-6.4-6.667-4.267-11.867-10.267-15.6-18-3.6-7.867-5.4-17-5.4-27.4 0-10.4 1.866-19.533 5.6-27.4 3.733-8 8.933-14.2 15.6-18.6 6.8-4.4 14.6-6.6 23.4-6.6 7.866 0 14.733 1.733 20.6 5.2 5.866 3.467 10.333 8.333 13.4 14.6v-17.4h16zm-46.8 88.6c9.866 0 17.466-3.333 22.8-10 5.333-6.8 8-16.4 8-28.8 0-12.4-2.667-21.933-8-28.6-5.334-6.667-12.934-10-22.8-10-9.867 0-17.6 3.467-23.2 10.4-5.467 6.8-8.2 16.333-8.2 28.6 0 12.267 2.733 21.733 8.2 28.4 5.466 6.667 13.2 10 23.2 10zm162.322-88.6V314h-15.801v-17.4c-3.199 6.133-7.666 10.8-13.4 14-5.733 3.2-12.2 4.8-19.399 4.8-11.867 0-20.867-3.333-27.001-10-6.133-6.667-9.199-16.533-9.199-29.6v-62.4h16.2v62c0 9.067 1.866 15.733 5.6 20 3.733 4.267 9.4 6.4 16.999 6.4 8.934 0 16.134-2.867 21.601-8.6 5.466-5.867 8.2-13.533 8.2-23v-56.8h16.2zM975.467 314h-19.4l-31.8-39.6-31.4 39.6h-19.8l41.8-51.8-39.4-48.8h19.6l29.2 37 29.2-37h19.8l-39.2 48.8 41.4 51.8z" fill="currentColor"/><path d="M1295.1 299.716c22.78 43.9 19.02 85.631-83.31 90.26-121.87 5.512-120.49-27.56-88.13-96.461 21.52-45.835 33.37-95.082 88.13-95.082 54.75 0 55.77 48.23 83.31 101.283z" fill="#0078BF"/><ellipse rx="45.715" ry="61.312" transform="matrix(.89133 -.45342 .45285 .89155 1059.64 157.825)" fill="#32B54F"/><ellipse rx="45.71" ry="61.319" transform="rotate(14.198 221.352 5252.243) skewX(.019)" fill="#ED2A26"/><ellipse rx="56.641" ry="75.986" transform="rotate(-9.401 1096.026 -7058.963) skewX(-.013)" fill="#FFC31B"/><ellipse rx="36.843" ry="49.405" transform="rotate(34.652 366.83 2276.78) skewX(.038)" fill="#00BFBF"/></svg>