<svg fill="none" height="16" viewBox="0 0 40 40" width="16" xmlns="http://www.w3.org/2000/svg"><path d="m22.1778 4.46073c-.033-.92505-.4658-1.82384-1.3463-1.82384-.8806 0-1.3134.89879-1.3464 1.82384-1.78-.67537-4.883-1.45001-7.7198-1.93564-2.86363-.49023-6.1331-.49022-6.1331-.07501 0 .3645 1.19253.60009 1.99982.84401-1.08998 0-1.71323 0-1.71323.2551 0 .37808 1.2514.54225 1.83291.6708-.60293.0499-1.03613.10344-1.03613.35903 0 .31902.80081.46892 1.23139.56373-.19402.02445-.35588.03397-.35588.2299 0 .34374.73061.4371 1.24084.37162-.10177.49099.89555.57029 1.16838.55113-.01724.43619.9694.44828 1.1527.40312-.0648.60348.9581.52103 1.1054.47869.0846.32061.8138.33865.9416.2551.1671.211.5217.29247.6614.211.313.41908.6431.31724.844.23935.1537.15899.5026.25141.6897.12598.3108.28952.6107.34799.7999.24249.2144.20546.5596.27902.7748.13857.3167.32529.6449.25173.759.20785.0425.08535.2907.14191.2907.14191h5.6239s.2482-.05656.2908-.14191c.1141.04388.4422.11744.7589-.20785.2152.14045.5604.06689.7748-.13857.1892.1055.4891.04703.7999-.24249.1871.12543.5361.03301.6897-.12598.201.07789.531.17973.844-.23935.1397.08147.4943 0 .6614-.211.1278.08355.857.06551.9416-.2551.1473.04234 1.1702.12479 1.1055-.47869.1832.04516 1.1699.03307 1.1526-.40312.2728.01916 1.2702-.06014 1.1684-.55113.5102.06548 1.2408-.02788 1.2408-.37162 0-.19593-.1618-.20545-.3558-.2299.4305-.09481 1.2313-.24471 1.2313-.56373 0-.25559-.4332-.30913-1.0361-.35903.5815-.12855 1.8329-.29272 1.8329-.6708 0-.2551-.6232-.2551-1.7132-.2551.8073-.24392 1.9998-.47951 1.9998-.84401 0-.41521-3.2694-.41522-6.1331.07501-2.8368.48563-5.9398 1.26027-7.7198 1.93564z" fill="#83df92"/><path d="m25.8831 9.87846c-1.4971-1.14794-3.6411-1.67314-5.0516-1.67314s-3.5546.5252-5.0517 1.67314c-.2542.19494-1.4769.38164-2.1357.76274-.6158.3562-1.9714 2.0447-2.5374 2.2471-.1683.0602-1.72743.5704-1.72743 1.802 0 .7656.51179.8197 1.22573 2.0327.2106.3578.5071 1.4336 1.133 2.1315.6943 1.0028 1.2593 1.3355 1.7414 1.3355.9109 0 1.0564-.9481 1.3612-2.0498.2154.8611-.2097 1.6276-.2722 2.4661-.3432 1.4454-.4564 2.4237-.4564 3.3229-.8004 1.8951-2.374 9.2594-1.8944 13.9465h17.2277c.4797-4.6871-1.094-12.0514-1.8943-13.9465 0-.8992-.1132-1.8775-.4564-3.3229-.0625-.8385-.4877-1.605-.2723-2.4661.3049 1.1017.4503 2.0498 1.3612 2.0498.4821 0 1.0471-.3327 1.7415-1.3355.6259-.6979.9223-1.7737 1.133-2.1315.7139-1.213 1.2257-1.2671 1.2257-2.0327 0-1.2316-1.5591-1.7418-1.7275-1.802-.5659-.2024-1.9216-1.8909-2.5374-2.2471-.6587-.3811-1.8814-.5678-2.1357-.76274z" fill="#ed2a26"/><path d="m36.1506 32.0097c.0526-.144.0547-.3316-.0609-.4125-.1155-.0809-.2897-.0142-.407.0845-.7221-.1143-.8909.8545-1.0708 1.0797-.3022-.0757-.4553-.0914-.7017-.0735.0371-.1995.0242-.3019-.0387-.4748-.0326-.0895-.0764-.1926-.3504-.2229-.0821-.0091-.5976-.243-1.2355-.0502-.1741.0527-.277.1318-.3597.2414-.0958.1362-.3091.1733-.2452.3488.1786.4906 1.3337-.1214 1.55.2406-.5098.0832-.7184.1618-.9628.3504-.4992.4337-1.1283 1.426-1.103 1.7125-.2085.053-.3164.1006-.4905.2218l.8802 2.8202h3.1385c.0544-.205.0622-.3285.0407-.5426.2779-.0742.9952-1.0048 1.232-1.6222.0936-.2941.0961-.5171 0-1.0246.4142.0795.2341 1.3742.7562 1.3742.1868 0 .1487-.2131.244-.3496.0746-.1153.1138-.2391.1037-.4207-.037-.6653-.433-1.0697-.4697-1.1438-.1222-.2471-.2341-.253-.3293-.253-.1841 0-.2847.023-.4594.1261-.0675-.2377-.1346-.3763-.3091-.6343.1501-.2461 1.0027-.7361.6484-1.3755z" fill="#d83870"/><path d="m30.4569 23.9374c-1.1186 2.0631-1.3174 3.2982-.9057 5.638h-.4272c.3331-1.5672.1196-3.7007-.8207-5.2124s-1.5321-1.9777-2.1094-1.8899-.8021 1.9347-.4677 3.7416c.1346.7274.7413 1.4184.8611 2.0115.1002.496.2155 1.2938.4265 1.8512-.3722 2.9163-.3267 4.0067.5218 4.8768-.4258.9689-.5435 1.63-.618 2.9215h5.9046c-.2481-1.3569-.5885-2.2561-1.0033-2.8743.7397-1.2167.6253-2.7992-.2084-5.1412.1264-.228.1907-.4792.2091-.6503.1936-1.8057.6526-2.3264.8671-2.9421.6145-1.7637.2204-3.7755-.2555-3.9253-.7022-.2211-1.5335.7819-1.9743 1.5949z" fill="#0085d4"/><path d="m14.2488 22.1394c-.2714-1.5143-1.3674-2.9543-1.7994-2.9543-.3197 0-.4659.5203-.7025.8752-.1108.231-.9537 1.6743-1.009 3.5061-.93786.0155-1.4182.1076-2.17779.4278-.73906-1.4966-2.01462-2.7409-2.69166-3.1319-.07999-.0462-.29602-.295-.46663-.2757-.53469.0607-.97406 1.649-.65762 3.4614-.2572.9066-.19754 1.7309.15263 2.229-.31851 3.5489-.14619 5.0532.92899 6.4173.26823.3403-.23182 2.9835-.11408 5.1814l12.16516-.0001c-.3196-3.3784-.8832-5.6128-1.5604-6.4596.0838-1.2707.4175-1.4504.0838-3.4432-.2105-1.2569-1.093-3.6413-1.3969-3.7924.0233-.8492-.2369-1.3319-.7546-2.041z" fill="#ffbc53"/></svg>