<svg fill="none" height="80" viewBox="0 0 80 80" width="80" xmlns="http://www.w3.org/2000/svg"><path d="m43.2864 11.8863c-.0607-1.7014-.8567-3.35461-2.4764-3.35461s-2.4157 1.65321-2.4764 3.35461c-3.274-1.2422-8.9815-2.66701-14.1993-3.56024-5.2671-.9017-11.2808-.90169-11.2808-.13798 0 .67044 2.1935 1.10377 3.6784 1.55243-2.0049 0-3.1513 0-3.1513.46919 0 .6954 2.3018.9974 3.3714 1.2338-1.109.0918-1.9058.1903-1.9058.6604 0 .5868 1.473.8625 2.2649 1.0369-.3568.045-.6546.0625-.6546.4229 0 .6322 1.3439.8039 2.2824.6835-.1872.9031 1.6472 1.0489 2.149 1.0137-.0317.8023 1.783.8245 2.1201.7415-.1191 1.11 1.7624.9583 2.0333.8805.1556.5897 1.4968.6228 1.732.4692.3073.3881.9596.5379 1.2164.3881.5758.7708 1.1829.5835 1.5525.4402.2826.2924.9244.4624 1.2685.2317.5717.5325 1.1233.6401 1.4714.4461.3943.3779 1.0292.5132 1.425.2548.5825.5983 1.1861.463 1.396.3823.0783.157.5348.2611.5348.2611h10.3442s.4565-.1041.5348-.2611c.2099.0807.8135.216 1.396-.3823.3958.2584 1.0307.1231 1.425-.2548.3481.194.8997.0864 1.4714-.4461.3441.2307.9859.0607 1.2686-.2317.3695.1433.9767.3306 1.5524-.4402.2569.1498.9091 0 1.2164-.3881.2352.1536 1.5764.1205 1.732-.4692.2709.0778 2.1524.2295 2.0333-.8805.3371.083 2.1518.0608 2.1201-.7415.5018.0352 2.3362-.1106 2.1491-1.0137.9384.1204 2.2823-.0513 2.2823-.6835 0-.3604-.2977-.3779-.6546-.4229.792-.1744 2.2649-.4501 2.2649-1.0369 0-.4701-.7968-.5686-1.9058-.6604 1.0696-.2364 3.3714-.5384 3.3714-1.2338 0-.46919-1.1464-.46919-3.1512-.46919 1.4848-.44866 3.6783-.88199 3.6783-1.55243 0-.76371-6.0136-.76372-11.2808.13798-5.2178.89323-10.9253 2.31804-14.1993 3.56024z" fill="#83df92"/><path d="m73.6365 49.2128c.0462-.2602-.0065-.5794-.227-.6822-.2204-.1028-.4962.0626-.6659.2653-1.2604.0222-1.257 1.7179-1.4951 2.1542-.5358-.038-.8006-.0187-1.2137.0855.0033-.3499-.0492-.52-.2079-.7948-.082-.1422-.1873-.3042-.6617-.2737-.1422.0091-1.0875-.2336-2.1131.2848-.2799.1415-.431.3068-.5387.5176-.1218.26-.4729.3869-.3119.6658.4502.7797 2.2285-.6056 2.7044-.0556-.841.294-1.1717.49-1.5302.8834l7.0551 3.2905c.071-.5275.0085-.9068-.3068-1.74.7273.011.8091 2.2637 1.6958 2.1073.3171-.0559.1887-.4064.3096-.6668.0922-.2181.1217-.44.0501-.7454-.262-1.1189-1.0556-1.687-1.14-1.8018-.2817-.383-.4734-.3595-.635-.331-.3126.0551-.4766.1242-.7425.3516-.1857-.3834-.3412-.5987-.7147-.9846.1812-.4629 1.4824-1.5503.6892-2.5301z" fill="#d83870"/><path d="m67.9139 39.6088c-3.5409 2.4366-4.8923 4.2869-6.1661 8.4475l-.6971-.3552c1.8467-2.2806 3.2724-5.9397 2.9949-9.1885-.2776-3.2487-.8558-4.5012-1.8709-4.838-1.0151-.3367-2.9176 2.4904-3.8743 5.717-.3852 1.2989.0303 2.931-.2673 3.9984-.2489.8927-.7241 2.2906-.8432 3.3756-.3114.4569-.5996.8861-.8653 1.2907l8.2613 3.9985c.1073-.5708.2021-1.1774.2858-1.8214.3957-.2671.7096-.6235.8818-.8875 1.8173-2.7856 2.9994-3.2538 3.8614-4.0801 2.4693-2.3671 3.4988-5.978 2.8469-6.6181-.9622-.9446-3.1527.001-4.5479.9611z" fill="#0085d4"/><path d="m50.0537 21.9629c-2.7394-2.1005-6.6627-3.0615-9.2437-3.0615-2.5809 0-6.5042.961-9.2437 3.0615-.4652.3567-2.7026.6984-3.9079 1.3957-1.1269.6519-3.6075 3.7415-4.643 4.1118-.3082.1102-3.161 1.0438-3.161 3.2975 0 1.4009.9365 1.4999 2.2428 3.7194.3854.6548.9279 2.6233 2.0732 3.9003 1.2705 1.8349 2.3044 2.4437 3.1866 2.4437 1.6668 0 1.9329-1.7348 2.4907-3.7507.3942 1.5757-.3838 2.9781-.4981 4.5126-.4402 1.8537-.6736 3.2875-.7738 4.5459l12.2168-6.2054 12.2517 6.2054c-.1003-1.2584-.3337-2.6922-.7738-4.5459-.1144-1.5345-.8924-2.9369-.4982-4.5126.5578 2.0159.824 3.7507 2.4907 3.7507.8822 0 1.9161-.6088 3.1866-2.4437 1.1454-1.277 1.6878-3.2455 2.0732-3.9003 1.3064-2.2195 2.2429-2.3185 2.2429-3.7194 0-2.2537-2.8529-3.1873-3.161-3.2975-1.0355-.3703-3.5162-3.4599-4.643-4.1118-1.2054-.6973-3.4428-1.039-3.908-1.3957z" fill="#ed2a26"/><path d="m21.7087 40.2538c-1.4781-2.7614-4.5064-4.8602-5.3429-4.5884-.619.2012-.5746 1.3006-.8094 2.1367-.0692.5169-.7933 3.842.2521 7.4236-1.8063.62-2.6784 1.1006-3.9478 2.1985-2.37258-2.433-5.62526-4.0398-7.18221-4.3709-.18395-.0392-.75878-.385-1.07694-.2402-.99711.454-.84859 3.8058.90433 7.1159.07238 1.9173.7065 3.4759 1.69787 4.22.26233 1.148.51581 2.1835.76897 3.1213l20.36598-10.4399c-1.2204-1.625-2.4849-3.04-2.8847-3.0994-.4893-1.659-1.2967-2.4299-2.7453-3.4772z" fill="#ffbc53"/><path d="m72.0847 65.2078 1.0373-2.4088s.0352-.0762.1055-.2286c.0821-.1524.2403-.3048.4748-.4572.2461-.1523.6153-.2227 1.1076-.2109.4924 0 .8147.0879.9671.2637.1641.1641.2227.3634.1758.5978-.0352.2227-.1114.4337-.2286.633-.0703.1172-.1992.3164-.3868.5978-.1758.2813-.3751.5978-.5978.9494-.2227.3517-.4395.6916-.6505 1.0198-.211.3165-.3868.5802-.5275.7912-.1289.211-.1934.3165-.1934.3165l3.0769 4.167s.0293.0469.0879.1407c.0586.082.0879.1934.0879.334.0118.1407-.0527.2814-.1934.422-.1289.1407-.3868.2638-.7736.3693-.3868.1054-.7209.1113-1.0022.0175-.2696-.0937-.4923-.2227-.6681-.3868-.1759-.1758-.3048-.334-.3868-.4747-.0821-.1407-.1231-.211-.1231-.211l-1.055-2.2857-.8967 2.4967s-.0293.0527-.0879.1582c-.0586.0938-.1992.1934-.422.2989-.2109.1055-.5509.1583-1.0197.1583-.4689 0-.7971-.0821-.9847-.2462-.1758-.1758-.2637-.3692-.2637-.5802 0-.2227.041-.4102.1231-.5626.0469-.0938.1524-.2755.3165-.5451.1641-.2813.3516-.5978.5626-.9494.211-.3517.4161-.6916.6154-1.0198.1993-.3399.3634-.6154.4923-.8264.1407-.2227.211-.3341.211-.3341l-2.6022-3.6571s-.0352-.0527-.1055-.1582c-.0586-.1055-.0879-.2345-.0879-.3869 0-.1523.082-.293.2461-.4219.1641-.129.4748-.2169.9319-.2638.3868-.0351.7033-.0058.9495.0879.2461.0821.4337.1935.5626.3341.1407.129.2344.2462.2813.3517.0586.1055.0879.1582.0879.1582z" fill="#ed2a26"/><path d="m61.6095 62.1133s.0762.0117.2286.0351c.1524.0118.3223.0645.5099.1583.1993.082.3692.2344.5099.4571.1406.211.1992.5216.1758.9319-.0117.2696-.0293.633-.0527 1.0901-.0118.4454-.0176.9377-.0176 1.4769 0 .5275.0117 1.055.0351 1.5824.0352.5275.088 1.014.1583 1.4594.082.4454.1875.8029.3165 1.0725.1406.2579.3106.381.5099.3692.2109-.0117.3692-.1523.4747-.4219.1055-.2813.1758-.633.211-1.055.0351-.4337.0469-.8908.0351-1.3714-.0117-.4806-.0351-.9377-.0703-1.3714-.0352-.4455-.0703-.8088-.1055-1.0901-.0234-.2931-.041-.4572-.0527-.4923-.0118-.0469-.0293-.1466-.0528-.299-.0234-.1523-.0117-.3164.0352-.4923.0469-.1758.1641-.334.3516-.4747.1993-.1406.5099-.2286.9319-.2637.422-.0352.7502.0176.9846.1582.2344.1407.3985.3106.4923.5099.1055.1993.1641.3751.1758.5275.0235.1524.0352.2286.0352.2286s.0176.1348.0528.4044c.0468.2695.082.6271.1055 1.0725.0351.4337.0351.9143 0 1.4417-.0235.5275-.0997 1.0608-.2286 1.6-.1172.5275-.3106 1.014-.5802 1.4594-.2696.4337-.633.7853-1.0901 1.0549-.4572.2696-1.0315.4044-1.7231.4044s-1.2777-.1406-1.7583-.422c-.4688-.293-.8556-.674-1.1604-1.1428-.293-.4806-.5216-1.0139-.6857-1.6-.1524-.5861-.2579-1.1839-.3165-1.7934-.0469-.6213-.0703-1.2073-.0703-1.7583.0117-.5509.0293-1.0315.0527-1.4417.0352-.4103.0586-.7033.0703-.8791.0235-.3048.1114-.5334.2638-.6858.1524-.1641.3223-.2754.5099-.334.1992-.0586.3692-.0879.5099-.0879.1523-.0118.2285-.0176.2285-.0176z" fill="#83df92"/><path d="m53.0808 62.7813c-.0118 0 .0058-.0644.0527-.1934.0586-.1406.1875-.2754.3868-.4044.1993-.1289.5275-.1992.9846-.211.4103-.0117.7209.0411.9319.1583.211.1055.3516.211.422.3165.082.1055.1231.1582.1231.1582s.0644.1524.1934.4572c.1289.3047.3047.7091.5274 1.2131.2227.4924.4689 1.0433.7385 1.6528s.5392 1.2308.8088 1.8637c.2813.6213.5392 1.2074.7736 1.7583.2462.5392.4513.9963.6154 1.3714.1641.3634.2696.5919.3165.6857.1055.2227.1641.381.1758.4747.0117.0938.0059.1583-.0176.1934-.0117.0235-.0176.0411-.0176.0528-.082.1641-.2461.3048-.4923.422-.2344.1289-.5216.1992-.8615.211-.4689.0117-.8088-.0411-1.0198-.1583-.211-.1055-.3516-.2168-.422-.3341-.0586-.1054-.082-.1523-.0703-.1406 0 0-.0645-.1348-.1934-.4044-.1172-.2696-.2579-.5919-.422-.967-.1641-.3869-.3165-.7385-.4571-1.055 0 0-.0821 0-.2462 0-.1524 0-.334 0-.545 0s-.3986 0-.5627 0c-.1523 0-.2285 0-.2285 0-.0469.1641-.0938.3692-.1407.6154-.0469.2344-.0879.4454-.1231.633-.0351.1875-.0527.2813-.0527.2813s-.0293.0703-.0879.211c-.0469.1406-.1817.2813-.4044.422-.2227.1406-.592.2109-1.1077.2109-.3868 0-.6799-.041-.8791-.123-.1876-.0938-.3165-.1993-.3869-.3165-.0586-.1172-.0879-.2169-.0879-.2989 0-.0938 0-.1407 0-.1407.0235-.1172.0704-.3575.1407-.7209.082-.375.1758-.8205.2813-1.3362.1172-.5275.2344-1.0843.3517-1.6704.1289-.586.252-1.1663.3692-1.7406.1172-.5744.2227-1.096.3165-1.5648.0937-.4806.1699-.8616.2285-1.1429.0587-.293.088-.4396.088-.4396zm1.8461 2.7781c-.0117.0468-.0234.1406-.0352.2813l-.0703.4923c-.0234.2696-.0527.5568-.0879.8615-.0352.3048-.0703.592-.1055.8616-.0234.1406-.041.2285-.0527.2637h.2285c.1407 0 .2931-.0059.4572-.0176s.3106-.0176.4395-.0176c-.0469-.0937-.0879-.211-.123-.3516-.0235-.1524-.0528-.2931-.088-.422-.0703-.2696-.1523-.5509-.2461-.8439-.0821-.2931-.1582-.5685-.2286-.8264-.0351-.1407-.0644-.2345-.0879-.2813z" fill="#ffbc53"/><path d="m43.2516 63.3615s-.0117-.0468-.0351-.1406c-.0235-.1055-.0176-.2286.0175-.3693.0469-.1406.1524-.2696.3165-.3868.1758-.1172.4513-.1934.8264-.2285.3751-.0352.7971-.0645 1.2659-.0879.4806-.0235.9378-.0469 1.3715-.0704.4454-.0234.8088-.041 1.0901-.0527s.4219-.0176.4219-.0176.0762.0059.2286.0176c.1641 0 .3517.0234.5627.0703.2227.0352.4219.1114.5978.2286.1758.1055.2813.2637.3164.4747.0352.211-.0058.3751-.123.4923-.1173.1172-.2579.2051-.422.2637-.1641.0469-.3106.0762-.4396.088-.1289.0117-.1934.0175-.1934.0175l-2.8132.1583s.0176.0762.0528.2286c.0351.1523.0703.3282.1055.5274.0469.1876.0762.3517.0879.4923.0117.129.0234.2989.0352.5099.0117.1993.0234.381.0351.5451.0117.1524.0176.2285.0176.2285h1.3011s.0645.0059.1934.0176c.1289 0 .2755.0235.4396.0704.1758.0351.3282.0937.4571.1758.1289.082.1993.2051.211.3692.0117.211-.0703.3692-.2462.4747-.1641.1055-.3399.1759-.5274.211-.1759.0235-.2872.0411-.3341.0528-.0352 0-.1289.0058-.2813.0176-.1524 0-.3224 0-.5099 0-.1758 0-.3341 0-.4747 0-.1407 0-.211 0-.211 0v.2637c.0117.1641.0234.3575.0351.5802.0118.2227.0118.4161 0 .5802 0 .1524-.0058.34-.0175.5627-.0118.211-.0235.3985-.0352.5626-.0117.1524-.0176.2286-.0176.2286l2.3736-.0879h.2286c.1524-.0118.3341 0 .5451.0351.211.0352.3985.1055.5626.211s.252.2638.2637.4747c.0235.211-.0351.381-.1758.5099-.1406.129-.3047.2227-.4923.2814-.1875.0586-.3575.0996-.5099.123-.1406.0118-.211.0176-.211.0176l-3.7978.1934s-.0937 0-.2813 0c-.1758.0117-.3809 0-.6154-.0351-.2344-.0469-.4395-.1348-.6154-.2638-.1758-.1406-.2578-.3516-.2461-.6329.0234-.3751.0469-.9612.0703-1.7583.0235-.8088.0117-1.7524-.0351-2.8308-.0469-1.0783-.17-2.2095-.3693-3.3934z" fill="#d83870"/><path d="m33.8847 72.2758c-.4337 0-.7619-.0586-.9846-.1758-.211-.1172-.3517-.252-.422-.4044s-.1055-.2872-.1055-.4044 0-.1758 0-.1758l-.211-7.6308s-.0058-.0586-.0176-.1758c-.0117-.1172.0118-.252.0704-.4044.0586-.1641.1817-.3048.3692-.422.1875-.1289.4806-.1934.8791-.1934.5275-.0117.926.0645 1.1956.2286.2696.1524.4455.3106.5275.4747.0938.1524.1407.2286.1407.2286l2.0219 3.6747s.0469-.1055.1407-.3165c.1055-.2227.2286-.4982.3692-.8264.1524-.3282.3048-.6622.4572-1.0022.1524-.3399.2872-.6329.4044-.8791.1172-.2579.1934-.422.2285-.4923.0586-.1172.1641-.2754.3165-.4747.1524-.211.3693-.4044.6506-.5802.293-.1759.674-.2696 1.1428-.2814.3517-.0117.6213.0294.8088.1231.1876.0821.3165.1817.3868.2989.0821.1172.129.2227.1407.3165s.0176.1407.0176.1407v.4571 1.178c.0117.4923.0176 1.0315.0176 1.6176v1.7758 1.6176c.0117.4923.0175.8909.0175 1.1956v.4748c0 .0117-.0058.0703-.0175.1758 0 .1055-.0411.2285-.1231.3692-.0821.1289-.2286.2462-.4396.3517-.1992.0937-.4981.1406-.8967.1406-.3985 0-.7033-.041-.9143-.1231-.1992-.0937-.3399-.1934-.4219-.2989-.0821-.1172-.129-.2168-.1407-.2989-.0117-.082-.0176-.123-.0176-.123s0-.0997 0-.2989c0-.211 0-.4689 0-.7737.0117-.3165.0176-.6271.0176-.9318.0117-.3165.0176-.5803.0176-.7912 0-.211 0-.3165 0-.3165l.1406-2.5143-.9142 1.9516s-.0352.0645-.1055.1934c-.0587.129-.1759.2579-.3517.3869-.1758.1289-.4396.1992-.7912.2109-.3399.0118-.6095-.0351-.8088-.1406-.1875-.1172-.3223-.2286-.4044-.3341-.0703-.1172-.1055-.1758-.1055-.1758l-1.1428-2.0923s.0058.1406.0175.422c.0235.2696.0469.6271.0704 1.0725.0234.4337.0469.8967.0703 1.389.0234.4806.041.9377.0527 1.3714.0235.422.0411.7619.0528 1.0198.0117.3165-.0528.5626-.1934.7385-.1407.1641-.3048.2813-.4923.3516-.1876.0586-.3575.0938-.5099.1055-.1407 0-.211 0-.211 0z" fill="#0085d4"/><g fill="#003047"><path d="m30.2971 59.2084c-.9429 0-.8428.8571-.8428.9235 0 .4017.1179.7632.096 1.1224-.0136.223-.171.5006-.171.6968 0 .1963.194.4549.5631.3921.3076-.0523 1.2603-.897 1.2603-2.0589 0-.0603-.0214-1.0759-.9056-1.0759z"/><path clip-rule="evenodd" d="m8.22283 61.9725c.41025-.0117.72087.0411.93185.1583.21099.1055.35168.211.422.3165.08168.105.12269.1577.12306.1582 0 0 .06449.1524.19343.4572.12893.3047.30473.7091.52743 1.2131.2227.4923.4689 1.0433.7385 1.6528s.5392 1.2308.8088 1.8637c.2813.6213.5392 1.2074.7736 1.7583.2462.5392.4513.9963.6154 1.3714.1641.3633.2696.5919.3165.6857.1055.2227.1641.381.1758.4747.0117.0938.0059.1583-.0176.1934-.0117.0235-.0176.041-.0176.0528-.082.1641-.2461.3048-.4923.422-.2344.1289-.5216.1992-.8615.211-.4689.0117-.8088-.0411-1.0198-.1583-.211-.1055-.3517-.2168-.422-.3341-.0586-.1054-.082-.1523-.0703-.1406-.0006-.0013-.0651-.1361-.1934-.4044-.1172-.2696-.2579-.592-.422-.967-.1641-.3869-.3165-.7385-.45712-1.055h-1.58243c-.04689.1641-.09375.3692-.14064.6154-.04689.2344-.08792.4454-.12308.633-.03516.1875-.05276.2813-.05276.2813-.00042.001-.02973.0713-.08791.211-.04689.1406-.18168.2813-.40438.4219-.22271.1407-.59195.211-1.1077.211-.38681 0-.67985-.041-.87912-.123-.18754-.0938-.3165-.1993-.38683-.3165-.0586-.1172-.0879-.2169-.0879-.2989v-.1407c.02344-.1172.07033-.3575.14066-.7209.08205-.3751.17582-.8205.28131-1.3362.11722-.5275.23444-1.0843.35165-1.6704.12894-.586.25203-1.1663.36924-1.7406.11722-.5744.22271-1.096.31649-1.5649.09377-.4805.16996-.8615.22857-1.1428.05861-.2931.08791-.4396.08791-.4396-.01173 0 .00584-.0644.05273-.1934.05861-.1406.18756-.2754.38683-.4044.19926-.1289.52747-.1992.98461-.211zm.42197 3.5868c-.01172.0469-.02345.1407-.03517.2814l-.07032.4923c-.02344.2696-.05274.5568-.08791.8615-.03516.3048-.07033.592-.10549.8615-.02344.1407-.04104.2286-.05276.2638h.22857c.14066 0 .29305-.0059.45715-.0176s.31062-.0176.43956-.0176c-.04688-.0938-.08791-.211-.12308-.3516-.02344-.1524-.05274-.2931-.08791-.422-.07032-.2696-.15238-.5509-.24616-.844-.08205-.293-.15824-.5685-.22857-.8263-.03516-.1407-.06446-.2345-.08791-.2814z" fill-rule="evenodd"/><path d="m21.1126 61.9901c.1407.0118.299.0645.4748.1583.1758.082.3282.2344.4571.4571.1407.211.2051.5216.1934.9319-.0117.504.0059 1.0784.0528 1.7231.0469.6329.1055 1.2835.1758 1.9516.0821.6681.1582 1.2952.2286 1.8813.082.5744.1524 1.055.211 1.4418.0703.3868.1113.6271.123.7208.0235.1407.0294.3107.0176.51-.0117.1992-.1055.375-.2813.5274-.1641.1524-.4747.2345-.9319.2462-.4571 0-.797-.0528-1.0197-.1583-.2228-.1055-.3751-.211-.4572-.3165-.0703-.1172-.1055-.1758-.1055-.1758l-2.6373-4.7297s.0234.1173.0703.3517.0996.5392.1582.9143c.0704.3751.1348.7795.1934 1.2132.0704.4337.1231.8498.1583 1.2483.0351.3986-.0118.6975-.1407.8967-.1172.1876-.2696.3165-.4571.3868-.1759.0704-.3341.1055-.4747.1055h-.211c-.422 0-.7444-.0469-.9671-.1406-.211-.1055-.3633-.2227-.4571-.3517-.0821-.1406-.1289-.2578-.1407-.3516v-.1583c0-.0004-.0176-.1762-.0527-.5274-.0352-.3517-.0821-.803-.1407-1.3539-.0586-.5626-.1231-1.1604-.1934-1.7934-.0586-.6447-.1231-1.2601-.1934-1.8462-.0586-.5977-.1055-1.1018-.1407-1.512-.0351-.422-.0586-.6858-.0703-.7912-.0117-.3048.0528-.5685.1934-.7913.1524-.2344.5158-.3692 1.0901-.4043.3868-.0235.6975.0351.9319.1758s.4044.2872.5099.4396c.1055.1406.1582.2109.1582.2109l1.6528 4.0088.6505 1.2132-.4044-3.3407v-.5802c.0117-.3868.0352-.8498.0704-1.389.0234-.2696.1113-.4747.2637-.6154.1524-.1406.3223-.2403.5099-.2989.1993-.0586.3692-.0879.5099-.0879.1518-.0116.228-.0175.2285-.0176 0 0 .0645.0059.1934.0176z"/><path d="m26.3361 62.078c.1524.0118.3165.0411.4924.0879.1758.0469.2989.129.3692.2462.1524.2344.2227.463.211.6857 0 .211-.0117.4865-.0352.8264-.0703.8791-.1113 1.7406-.1231 2.5846-.0117.8439-.0117 1.6117 0 2.3033.0118.6916.0235 1.2425.0352 1.6527.0234.4103.0352.6154.0352.6154-.0001.0009-.006.0654-.0176.1934 0 .1172-.0352.252-.1055.4044s-.2051.2931-.4044.422c-.1993.1172-.4923.1758-.8791.1758s-.6857-.041-.8967-.123c-.1993-.0938-.34-.1993-.422-.3165-.0703-.129-.1114-.2345-.1231-.3165-.0117-.0936-.0175-.1405-.0176-.1407-.0351-.3985-.0586-.8967-.0703-1.4945-.0117-.6095-.0176-1.2601-.0176-1.9516 0-.6916.0059-1.3597.0176-2.0044.0234-.6564.0469-1.2367.0703-1.7407.0235-.504.0469-.8674.0704-1.0901.0351-.2813.1348-.4923.2989-.633.1641-.1523.3458-.2578.545-.3164.211-.0586.3868-.0879.5275-.0879.1522-.0118.2284-.0176.2286-.0176.0001 0 .0705.0117.2109.0351z"/><path d="m30.1487 54.6748c.1519.8232.3117 1.6384.5035 2.4536.008.0319.008.0639-.008.0879-.0159.024-.0319.0479-.0559.0559-.032.016-.0559.024-.0879.016-.024 0-.056-.016-.0719-.0399-.016-.024-.024-.048-.032-.072l-.0559-.2317c-.048-.1998-.088-.4076-.1359-.6154-.048-.2318-.1039-.4716-.1519-.7033-.2557-.008-.5194-.024-.7752-.04-.1199-.016-.2477-.024-.3756-.0399-.032.1438-.0719.2877-.1119.4235l-.1758.6154-.1758.6234c-.008.032-.032.0639-.064.0879-.0319.024-.0719.032-.1039.024-.0399 0-.0719-.016-.1039-.04-.0239-.024-.0479-.0559-.0479-.0959 0-.008 0-.016 0-.024 0-.0159 0-.0239 0-.0319s0-.016.008-.024v-.016l.0239-.0799.04-.1519.3517-1.2307c.0559-.2078.1038-.4156.1598-.6234.1039-.4076.2078-.8232.3197-1.2388.1199-.4076.2397-.8151.3996-1.2227.008-.032.0319-.056.0639-.08.032-.0239.0719-.0239.1039-.0239.016 0 .04 0 .0559.008h.024c.032 0 .072.0159.0959.0479.024.032.024.0719.032.0879l.008.0799.024.1599.1039.6154c.0719.4156.1358.8231.2157 1.2387zm-.1598.6314c-.016-.0719-.032-.1359-.04-.1998-.1358-.6633-.2637-1.3267-.3756-1.99-.0479.1279-.0879.2557-.1199.3916-.0639.1998-.1198.4076-.1758.6074-.0559.2078-.1119.4156-.1598.6234-.048.1758-.0879.3516-.1359.5274.0799-.008.1678 0 .2478 0 .1358.016.2797.024.4235.024.1119.008.2238.008.3357.016z"/><path d="m32.8852 54.9466c.032.0799.0559.1598.0719.2477.04.1599.056.3357.048.5035 0 .1678-.016.3357-.056.4955-.0399.1678-.0879.3277-.1758.4795-.04.072-.0879.1439-.1438.2078-.048.064-.1119.1279-.1759.1838-.0639.056-.1358.1039-.2078.1439-.0799.04-.1598.0719-.2477.0879-.04.016-.0799.016-.1279.024-.0399 0-.0799 0-.1279 0-.0879-.008-.1758-.04-.2477-.0879-.1519-.0959-.2478-.2478-.3117-.3996-.0639-.1599-.1039-.3197-.1199-.4875 0-.04-.008-.088 0-.1279-.008-.008 0-.024 0-.032 0-.016.008-.024.008-.0399.016-.024.032-.04.056-.056.0159-.016.0479-.024.0719-.024s.0479.008.0719.016.04.024.056.048c.0079.008.0159.024.0159.0319.008.016.008.024.008.04 0 .1598.024.3197.08.4715.0319.08.0719.1519.1198.2078.056.064.1199.1119.1998.1279.04.008.08.016.1119.008.04 0 .0799-.008.1199-.024.0799-.024.1518-.0559.2158-.1039.1358-.0959.2397-.2238.3197-.3676.0799-.1439.1278-.3037.1518-.4636.024-.1598.032-.3276.024-.4875 0-.0799-.008-.1678-.024-.2477-.008-.0799-.024-.1599-.0479-.2398-.024-.0719-.064-.1518-.1199-.2078-.048-.0639-.1199-.1039-.1998-.1438-.0719-.032-.1519-.056-.2238-.0879-.04-.016-.0799-.04-.1119-.056-.0399-.016-.0719-.0479-.1039-.0639-.1358-.0959-.2557-.2238-.3436-.3597-.08-.1438-.1359-.3037-.1599-.4715s-.008-.3357.032-.4955c.0559-.1598.1359-.3117.2398-.4396.1118-.1278.2477-.2317.4075-.2877.08-.0319.1679-.0399.2558-.0319s.1678.0319.2477.0719c.024.016.048.024.056.0559.016.016.024.048.024.072-.008.0559-.032.1039-.08.1278-.0399.032-.1118.032-.1518.008l-.056-.0239c-.0159 0-.0319-.008-.0479-.008-.0719-.016-.1519 0-.2158.0399-.0719.032-.1279.0879-.1838.1439-.1039.1199-.1838.2557-.2158.4076-.0399.1598-.032.3197.016.4635.04.1519.1279.2877.2398.3916.1118.1039.2637.1679.4075.2398.08.0319.1599.0639.2318.1119.0719.0479.1359.1119.1918.1758.056.0719.1039.1518.1279.2318z"/><path d="m35.2968 54.9466c.032.0799.056.1598.072.2477.0399.1599.0559.3357.0479.5035 0 .1678-.016.3357-.0559.4955-.04.1678-.0879.3277-.1758.4795-.04.072-.088.1439-.1439.2078-.0479.064-.1119.1279-.1758.1838-.064.056-.1359.1039-.2078.1439-.0799.04-.1599.0719-.2478.0879-.0399.016-.0799.016-.1278.024-.04 0-.08 0-.1279 0-.0879-.008-.1758-.04-.2478-.0879-.1518-.0959-.2477-.2478-.3117-.3996-.0639-.1599-.1038-.3197-.1198-.4875 0-.04-.008-.088 0-.1279-.008-.008 0-.024 0-.032 0-.016.008-.024.008-.0399.0159-.024.0319-.04.0559-.056.016-.016.048-.024.0719-.024.024 0 .048.008.072.016.0239.008.0399.024.0559.048.008.008.016.024.016.0319.008.016.008.024.008.04 0 .1598.024.3197.0799.4715.032.08.0719.1519.1199.2078.0559.064.1199.1119.1998.1279.0399.008.0799.016.1119.008.0399 0 .0799-.008.1198-.024.08-.024.1519-.0559.2158-.1039.1359-.0959.2398-.2238.3197-.3676.0799-.1439.1279-.3037.1519-.4636.0239-.1598.0319-.3276.0239-.4875 0-.0799-.008-.1678-.0239-.2477-.008-.0799-.024-.1599-.048-.2398-.024-.0719-.0639-.1518-.1199-.2078-.0479-.0639-.1198-.1039-.1998-.1438-.0719-.032-.1518-.056-.2237-.0879-.04-.016-.08-.04-.1119-.056-.04-.016-.072-.0479-.1039-.0639-.1359-.0959-.2558-.2238-.3437-.3597-.0799-.1438-.1359-.3037-.1598-.4715-.024-.1678-.008-.3357.0319-.4955.056-.1598.1359-.3117.2398-.4396.1119-.1278.2478-.2317.4076-.2877.0799-.0319.1678-.0399.2557-.0319s.1679.0319.2478.0719c.024.016.0479.024.0559.0559.016.016.024.048.024.072-.008.0559-.032.1039-.0799.1278-.04.032-.1119.032-.1519.008l-.0559-.0239c-.016 0-.032-.008-.048-.008-.0719-.016-.1518 0-.2157.0399-.072.032-.1279.0879-.1839.1439-.1039.1199-.1838.2557-.2157.4076-.04.1598-.032.3197.0159.4635.04.1519.1279.2877.2398.3916s.2637.1679.4076.2398c.0799.0319.1598.0639.2318.1119.0719.0479.1358.1119.1918.1758.0559.0719.1039.1518.1278.2318z"/><path d="m37.7405 53.6119c.0319.2238.0479.4396.0639.6633.016.4476 0 .8951-.04 1.3347-.0159.2238-.0479.4475-.0799.6633-.024.1119-.0399.2238-.0639.3277-.024.1119-.064.2158-.1119.3197-.024.0479-.0559.0959-.0959.1358-.032.048-.0719.088-.1199.1199-.0879.064-.1998.1039-.3117.1119-.0319 0-.0559 0-.0879 0-.024-.008-.0559-.008-.0799-.024-.032 0-.056-.0159-.0799-.0319-.024-.008-.048-.024-.072-.04-.0239-.016-.0399-.0399-.0639-.0559-.016-.024-.04-.04-.0559-.064-.032-.0479-.064-.0959-.0879-.1438-.1119-.1998-.1759-.4156-.2238-.6314-.048-.2158-.072-.4396-.1039-.6633-.048-.4396-.0799-.8871-.0799-1.3347-.008-.2238-.008-.4475.008-.6713.0079-.1119.0239-.2238.0399-.3357.024-.1119.048-.2238.0959-.3277.048-.1118.1119-.2078.1918-.2957.0879-.0879.1998-.1438.3117-.1758.1199-.032.2478-.032.3597 0 .0799.016.1518.048.2157.0879.032 0 .064 0 .0959.016.024.016.048.04.064.0639.0719.088.1199.1919.1598.2957.0879.2078.1279.4316.1519.6554zm-.4636-.6394c-.0399.008-.0799 0-.1119-.016-.008-.0079-.0239-.0079-.0319-.0159l-.016-.016-.032-.024-.0319-.016-.032-.024c-.04-.0159-.0799-.0319-.1279-.0239-.0479 0-.0879.008-.1359.0239-.0399.024-.0799.048-.1118.08-.032.0399-.064.0719-.0959.1198-.024.04-.04.088-.056.1359-.0639.1998-.0799.4156-.0879.6394v.3276.3357c0 .2158.008.4396.024.6633.008.2158.0319.4396.0559.6554.016.1119.032.2158.048.3277.016.1118.0399.2157.0639.3196.032.1039.0639.1998.1199.2878.0559.0879.1199.1758.1998.2077.0399.016.0719.016.1119 0 .0399-.0159.0799-.0399.1119-.0799.0639-.0719.1198-.1678.1518-.2637.024-.048.032-.0959.048-.1519.008-.0479.0239-.1039.0319-.1598.024-.1039.04-.2158.056-.3277.0639-.4315.0879-.8791.0879-1.3187 0-.2237-.008-.4475-.024-.6633-.008-.1119-.024-.2238-.032-.3357-.0159-.1039-.0319-.2157-.0559-.3196-.024-.1119-.0559-.2158-.1039-.3117-.008-.024-.016-.04-.024-.056z"/><path d="m40.3569 56.6968c.008.024.008.04.016.0639.008.08-.008.1679-.04.2398-.0319.0719-.0879.1359-.1518.1838-.0639.048-.1439.0879-.2158.1039-.1598.032-.3197.016-.4715-.024-.1439-.0399-.2877-.1039-.4156-.1918s-.2318-.2158-.2877-.3596c-.032-.0719-.048-.1439-.064-.2238-.008-.0719-.0159-.1518-.0319-.2238-.016-.1518-.024-.3037-.032-.4555-.016-.3037-.024-.6154-.04-.9191-.0079-.3037-.0079-.6074 0-.9111 0-.3037-.0079-.6154.04-.9191.024-.1518.0799-.3037.1838-.4235.048-.056.1119-.1119.1838-.1439.072-.0399.1439-.0639.2238-.0799.1519-.024.3197 0 .4636.0479.1438.056.2877.1279.4155.2078.04.024.072.072.072.1279.008.048-.016.0959-.056.1279-.0319.0319-.0959.0479-.1438.0319-.016-.0079-.024-.0159-.032-.0159l-.0719-.048c-.1359-.0719-.2718-.1438-.4076-.1678-.072-.008-.1439-.008-.2078 0-.0719.016-.1359.0479-.1838.0879-.048.0479-.08.1039-.1039.1758-.016.064-.032.1359-.04.2078-.024.3037-.024.6074-.032.9111v.4555l.008.4556c0 .3037 0 .6074.024.9111.008.1518.032.3037.056.4475.0079.04.0079.0799.0159.1119s.024.0719.032.1039c.032.0639.0639.1199.1199.1678.0479.048.1039.088.1678.1199.032.024.0719.032.1039.048.032.008.064.024.1039.0319.0719.016.1439.024.2158.032.0719 0 .1518 0 .2078-.024.032-.0159.0559-.0319.0719-.0559s.016-.056.016-.0879c0-.008 0-.016 0-.024l-.008-.016v-.016c0-.0239 0-.0559.008-.0799.024-.0399.0639-.0719.1119-.0879.024 0 .0479-.008.0719 0 .016 0 .024.008.04.008.008.008.024.016.0319.024l.008.016c.008.0079.008.0079.016.0159 0 .008.008.024.008.032z"/><path d="m41.8437 52.6209c.024.024.04.0479.048.0719.016.056-.008.1199-.048.1519-.0239.0159-.0559.0159-.0799.0159h-.0719l-.1519-.0079c-.0239-.008-.0559-.008-.0799-.008v.0879l-.008.6074c0 .1998-.008.3996-.016.6074l-.0319.5994c-.032.7592-.1279 1.5184-.0879 2.2777.0799 0 .1598-.008.2397-.016.04 0 .0879.016.1119.0639.024.04.024.0879 0 .1359-.016.04-.0639.0719-.1119.0799-.0399.008-.0879.008-.1278.016-.08.008-.1599.008-.2478.008-.0799.008-.1678-.008-.2478-.016-.0479 0-.1038-.04-.1278-.0879-.016-.048-.016-.1039.008-.1439.016-.0239.0319-.0479.0559-.0559.008-.008.024-.008.032-.008h.0399c.04.008.072.008.1119.016 0-.032 0-.056 0-.0879-.008-.1998-.008-.3996-.008-.6074.016-.3996.04-.7992.056-1.2068.0319-.7592.0559-1.5265.0879-2.2857-.0799 0-.1598-.008-.2398-.016-.0239-.008-.0559-.016-.0799-.032-.016-.024-.0399-.0479-.0479-.0719-.008-.032-.008-.0559-.008-.0879.008-.032.0239-.064.0559-.0799.024-.024.0639-.024.0959-.024l.2158.024c.1918.0159.3916.0399.5834.0479.032.008.056.016.0799.032z"/><path d="m44.2596 54.6748c.1519.8232.3117 1.6384.5035 2.4536.008.0319.008.0639-.008.0879-.0159.024-.0319.0479-.0559.0559-.032.016-.0559.024-.0879.016-.024 0-.056-.016-.0719-.0399-.016-.024-.024-.048-.032-.072l-.056-.2317c-.0479-.1998-.0879-.4076-.1358-.6154-.048-.2318-.1039-.4716-.1519-.7033-.2557-.008-.5195-.024-.7752-.04-.1199-.016-.2477-.024-.3756-.0399-.032.1438-.0719.2877-.1119.4235l-.1758.6154-.1759.6234c-.0079.032-.0319.0639-.0639.0879s-.0719.032-.1039.024c-.0399 0-.0719-.016-.1039-.04-.024-.024-.0479-.0559-.0479-.0959 0-.008 0-.016 0-.024 0-.0159 0-.0239 0-.0319s0-.016.008-.024v-.016l.0239-.0799.04-.1519.3516-1.2307c.056-.2078.1039-.4156.1599-.6234.1039-.4076.2078-.8232.3197-1.2388.1198-.4076.2397-.8151.3996-1.2227.008-.032.0319-.056.0639-.08.032-.0239.0719-.0239.1039-.0239.016 0 .04 0 .0559.008h.024c.032 0 .0719.0159.0959.0479s.024.0719.032.0879l.008.0799.024.1599.1038.6154c.072.4156.1359.8231.2158 1.2387zm-.1598.6314c-.016-.0719-.032-.1359-.04-.1998-.1358-.6633-.2637-1.3267-.3756-1.99-.0479.1279-.0879.2557-.1199.3916-.0639.1998-.1199.4076-.1758.6074-.0559.2078-.1119.4156-.1598.6234-.048.1758-.0879.3516-.1359.5274.0799-.008.1678 0 .2478 0 .1358.016.2797.024.4235.024.1119.008.2238.008.3357.016z"/><path d="m46.4982 52.501c.056 0 .1039.04.1279.0879.024.048.024.0959.008.1519-.016.0239-.032.0399-.056.0559-.016.008-.0239.016-.0399.016s-.024 0-.04 0c-.04 0-.0799-.008-.1199-.008-.1598-.024-.3197-.032-.4795-.04-.008 0-.024 0-.04 0v.1199.6154 1.2228c.008.8152.008 1.6304 0 2.4455 0 .032-.0079.064-.0319.0959-.024.032-.056.048-.0879.056-.032.008-.072 0-.1039-.008-.032-.008-.056-.032-.0799-.0639-.008-.016-.008-.032-.016-.048 0-.016 0-.04 0-.0479v-.2318l.0239-1.8302c.008-.4076.016-.8152.016-1.2228l.008-1.1109c-.0559.008-.1119.008-.1678.008-.1519.008-.3117.032-.4715.056-.024 0-.048 0-.072-.008-.0239-.008-.0399-.032-.0479-.048-.024-.0479-.024-.0959-.008-.1438.016-.04.0639-.0719.1119-.0879.0399-.008.0799-.008.1199-.016.1598-.024.3196-.04.4795-.056.3197-.0159.6473 0 .967.04z"/><path d="m48.0485 52.6209c.0239.024.0399.0479.0479.0719.016.056-.008.1199-.0479.1519-.024.0159-.056.0159-.0799.0159h-.072l-.1518-.0079c-.024-.008-.056-.008-.0799-.008v.0879l-.008.6074c0 .1998-.008.3996-.016.6074l-.032.5994c-.032.7592-.1279 1.5184-.0879 2.2777.0799 0 .1598-.008.2398-.016.0399 0 .0879.016.1118.0639.024.04.024.0879 0 .1359-.0159.04-.0639.0719-.1118.0799-.04.008-.088.008-.1279.016-.0799.008-.1599.008-.2478.008-.0799.008-.1678-.008-.2477-.016-.048 0-.1039-.04-.1279-.0879-.016-.048-.016-.1039.008-.1439.016-.0239.032-.0479.0559-.0559.008-.008.024-.008.032-.008h.04c.0399.008.0719.008.1119.016 0-.032 0-.056 0-.0879-.008-.1998-.008-.3996-.008-.6074.016-.3996.0399-.7992.0559-1.2068.032-.7592.056-1.5265.0879-2.2857-.0799 0-.1598-.008-.2397-.016-.024-.008-.056-.016-.08-.032-.0159-.024-.0399-.0479-.0479-.0719-.008-.032-.008-.0559-.008-.0879.008-.032.024-.064.0559-.0799.024-.024.064-.024.096-.024l.2157.024c.1918.0159.3916.0399.5835.0479.0319.008.0559.016.0799.032z"/><path d="m50.3294 53.6119c.032.2238.048.4396.064.6633.016.4476 0 .8951-.04 1.3347-.016.2238-.0479.4475-.0799.6633-.024.1119-.04.2238-.0639.3277-.024.1119-.064.2158-.1119.3197-.024.0479-.056.0959-.0959.1358-.032.048-.072.088-.1199.1199-.0879.064-.1998.1039-.3117.1119-.032 0-.0559 0-.0879 0-.024-.008-.056-.008-.0799-.024-.032 0-.056-.0159-.08-.0319-.0239-.008-.0479-.024-.0719-.04s-.0399-.0399-.0639-.0559c-.016-.024-.04-.04-.056-.064-.0319-.0479-.0639-.0959-.0879-.1438-.1119-.1998-.1758-.4156-.2237-.6314-.048-.2158-.072-.4396-.1039-.6633-.048-.4396-.08-.8871-.08-1.3347-.008-.2238-.008-.4475.008-.6713.008-.1119.024-.2238.04-.3357.024-.1119.0479-.2238.0959-.3277.0479-.1118.1119-.2078.1918-.2957.0879-.0879.1998-.1438.3117-.1758.1199-.032.2477-.032.3596 0 .0799.016.1519.048.2158.0879.032 0 .0639 0 .0959.016.024.016.048.04.064.0639.0719.088.1198.1919.1598.2957.0879.2078.1279.4316.1518.6554zm-.4635-.6394c-.04.008-.0799 0-.1119-.016-.008-.0079-.024-.0079-.032-.0159l-.0159-.016-.032-.024-.032-.016-.0319-.024c-.04-.0159-.08-.0319-.1279-.0239-.048 0-.0879.008-.1359.0239-.0399.024-.0799.048-.1119.08-.0319.0399-.0639.0719-.0959.1198-.0239.04-.0399.088-.0559.1359-.064.1998-.0799.4156-.0879.6394v.3276.3357c0 .2158.008.4396.024.6633.0079.2158.0319.4396.0559.6554.016.1119.032.2158.0479.3277.016.1118.04.2157.064.3196.032.1039.0639.1998.1199.2878.0559.0879.1198.1758.1998.2077.0399.016.0719.016.1119 0 .0399-.0159.0799-.0399.1118-.0799.064-.0719.1199-.1678.1519-.2637.024-.048.032-.0959.0479-.1519.008-.0479.024-.1039.032-.1598.024-.1039.04-.2158.056-.3277.0639-.4315.0879-.8791.0879-1.3187 0-.2237-.008-.4475-.024-.6633-.008-.1119-.024-.2238-.032-.3357-.016-.1039-.0319-.2157-.0559-.3196-.024-.1119-.056-.2158-.1039-.3117-.008-.024-.016-.04-.024-.056z"/><path d="m53.1297 54.7707.0879 2.3896c0 .032-.008.072-.024.0959-.0239.032-.0559.048-.0879.056-.0639.016-.1278-.008-.1678-.056-.024-.0319-.032-.0639-.032-.0959v-.0719l-.008-.1518-.0239-.5994-.016-.4636c-.008-.008-.016-.016-.024-.0239-.008-.008-.016-.024-.024-.032-.008-.016-.008-.032-.016-.04l-.0159-.0479c-.048-.1519-.1119-.2877-.1839-.4236-.1438-.2717-.3196-.5275-.4795-.7992-.2158-.3676-.4156-.7433-.6154-1.1189 0 .064.008.1279.008.1918l.0799 1.1749c.04.7912.0959 1.5744.1599 2.3576 0 .032-.008.0639-.024.0959-.024.032-.0559.0479-.0879.0559-.0639.016-.1279-.008-.1758-.0559-.016-.024-.024-.0559-.032-.0879l-.008-.0719-.008-.1519-.0479-.5914c-.024-.3916-.048-.7832-.072-1.1748-.0239-.3916-.0479-.7832-.0719-1.1748l-.0399-.5915-.024-.5914c-.008-.0319 0-.0639.024-.0959.0159-.0239.0479-.0399.0799-.0479.0239-.016.0559-.016.0879-.008.024 0 .0479.008.0719.016s.04.0239.056.0479c.0159.016.0239.032.0319.048l.024.0559.2238.4156.2238.4076c.0719.1359.1518.2717.2317.4076s.1599.2717.2398.4076c.0799.1279.1678.2637.2477.3996.048.0719.0879.1518.1359.2317l-.016-.5114-.008-.3037-.016-.2957c-.0159-.3996-.0319-.7992-.0399-1.1988 0-.032.008-.064.024-.088.0159-.0239.0479-.0399.0799-.0479.0559-.016.1278 0 .1598.0559.024.024.032.056.032.0879l.008.2238z"/><path d="m43.4713 37.7275c.2277.3682.1699 2.0306.189 2.5388l28.8991 13.9567c1.9785.9635 4.6345 1.9647 4.7698 2.4362.0343.1194.019.174-.0192.273-.4814 1.2502-1.2564 2.3755-1.6465 2.6067-.0992.0587-.2474.0275-.3183-.0087-1.413-.7219-3.9826-2.2198-4.934-2.7295-11.4922-6.1575-17.9571-9.5691-29.4633-15.7005-.0442-.0235-.1058-.0292-.1378-.0292-.0321 0-.0937.0057-.1379.0292-11.5062 6.1314-17.9711 9.543-29.4633 15.7005-.9514.5097-3.52095 2.0076-4.93397 2.7295-.07091.0362-.21909.0674-.3183.0087-.39014-.2312-1.16511-1.3565-1.64655-2.6067-.03813-.099-.05343-.1536-.01917-.273.13531-.4715 2.79124-1.4727 4.76984-2.4362l28.89905-13.9567c.0191-.5082-.0387-2.1706.189-2.5388.2746-.4443 1.4715-.7288 2.6613-.7288s2.3866.2845 2.6612.7288z"/></g></svg>