<svg fill="none" height="40" viewBox="0 0 40 40" width="40" xmlns="http://www.w3.org/2000/svg"><path d="m5.15379 10.7877c-1.02154.2062-1.83384.8308-2.33846 1.8062-.15385.2984-.32923.8184-.4 1.1754-.08615.4553-.11692 1.283-.06462 1.7384.02462.2031.10462.6708.12924.7446.0123.0462.02461.0985.05846.2554.02461.1169.22461.7077.30769.9077.86154 2.0954 2.64308 3.6708 4.46461 3.9569.26154.04.86462.037 1.08924-.003.36615-.0677.39076-.0739.60923-.157.89538-.3353 1.56312-1.003 1.95382-1.9507.1016-.2462.2246-.6462.2554-.8277.0092-.0431.0215-.1016.0277-.1262s.0215-.1261.0308-.2246c.0123-.0985.0246-.2092.0338-.2461.0185-.0985.0185-.8739 0-1.037-.0092-.0769-.0246-.1938-.0308-.2615-.0892-.7508-.323-1.52-.6984-2.28-.3569-.7231-.77232-1.3108-1.32002-1.8615-.38769-.3877-.48615-.477-.73846-.6585-.09231-.0677-.17538-.1292-.18461-.1385-.02154-.0246-.29539-.1907-.52923-.3169-.17231-.0985-.67077-.3138-.79385-.3477-.60308-.1631-.66769-.1723-1.15385-.1815-.3323-.0062-.56307.0061-.70769.0338z" fill="#32b54f"/><path d="m16.2092 2.44614c-.0031.00308-.1416.01847-.3016.0277-.3169.01846-.3507.02461-.6307.09538-.1016.02769-.197.05231-.2154.05539-.1262.03076-.4769.18153-.6985.29846-1.0954.5723-1.9969 1.72-2.4708 3.14769-.1353.40308-.2738.96615-.3076 1.24615-.0124.08-.0247.16616-.0308.19077-.0831.31077-.0831 1.84923-.0031 2.36923.0031.02462.0185.12919.0308.23079.1015.7538.4307 1.8092.7907 2.5415.0831.1693.1508.32.1508.3354 0 .0123.0092.0308.0246.0369.0123.0031.0554.0708.0954.1477.1139.2093.4216.6677.6.8923.2246.2862.2831.3508.5569.6277.7754.7846 1.6431 1.2769 2.6154 1.48.4493.0923 1.2031.0893 1.6246-.0123 1.1231-.2646 2.0554-.9477 2.7693-2.0338.2061-.317.5507-1.0246.683-1.4154.1108-.3169.2739-.9385.3077-1.1662.0093-.0615.0247-.1477.0308-.1877.1108-.5415.1231-1.76919.0308-2.50766-.1662-1.27384-.6616-2.67692-1.2739-3.6-.0769-.11692-.1477-.22769-.1538-.24615-.0062-.01538-.0246-.04308-.04-.06154-.0123-.01538-.0677-.08615-.12-.15384-.4062-.53847-.8369-.97847-1.2739-1.3077-.1015-.07692-.1907-.14769-.2-.15692-.0461-.05538-.6677-.4-.8923-.49538-.3107-.13231-.7046-.25847-.8923-.28616-.0769-.01231-.1446-.02461-.1538-.03077-.0123-.00615-.1446-.02154-.2954-.03077-.1508-.0123-.2892-.02461-.3108-.03077-.0184-.00615-.04-.00615-.0461 0z" fill="#ffc31b"/><path d="m28.6708 5.83077c-.0061.00615-.0769.01538-.1631.02769-.1692.01846-.1877.02462-.4769.09231-.3046.07384-.8061.29538-1.1385.50769-.3753.24-.9353.74154-1.2523 1.12615-.1446.17539-.5077.69539-.5815.83077-.0185.03385-.0738.13847-.1262.23077-.2061.36923-.5538 1.23385-.6061 1.51385-.0062.04-.0277.1108-.0492.1631-.0185.0492-.0339.0954-.0308.1015.0031.0031-.0123.08-.0277.1692-.0492.2247-.0554.2616-.08.4524-.0123.0923-.0277.1938-.0308.2215-.0277.1446-.0492.5108-.0523.8554 0 .4923.0185.6861.1139 1.2461.0246.1477.16.6677.2.7693.0154.0338.0554.1446.0954.2461.4523 1.1939 1.3969 2.1108 2.4584 2.3846.4246.1108.9692.1354 1.3631.0616.2831-.0523.28-.0523.3292-.0677.0246-.0093.1446-.0493.2616-.0862.7846-.2523 1.6615-.9169 2.2707-1.7231.0954-.1261.1846-.2461.1969-.2615.1354-.1661.4708-.7785.6647-1.2154.203-.4554.4646-1.3938.5292-1.8923.0615-.4954.0769-1.2123.0369-1.64614-.0861-.96615-.4492-1.98154-.9507-2.67077-.1724-.24-.68-.73846-.8862-.87077-.4523-.29538-.8831-.46769-1.3538-.53846-.1354-.01846-.6985-.04-.7139-.02769z" fill="#ed2a26"/><path d="m35.16 15.3108c-.003.0031-.1107.0154-.2369.0246-.2184.0185-.6831.1169-.8154.1692-.3569.1446-.5815.2462-.723.32-1.2708.6739-2.3785 2.1077-2.757 3.56-.1261.4923-.163.8216-.1507 1.3385.0123.6708.1415 1.1538.443 1.6769.1416.2431.6154.7446.7877.8369.0523.0246.1539.0831.2308.1231.6677.3662 1.5538.4031 2.4523.1015.4831-.16.8739-.3723 1.3169-.7046 1.2616-.9507 2.0862-2.3661 2.277-3.9107.0246-.1816.0246-.8277 0-.9385-.0093-.0431-.0247-.1385-.0339-.2154-.08-.5815-.3908-1.2-.8154-1.6277-.3107-.3107-.8246-.6-1.1723-.6615-.0461-.0062-.0954-.0216-.1108-.0308-.0307-.0184-.6738-.0769-.6923-.0615z" fill="#00bfbf"/><path d="m19.8185 19.8307c-1.3477.1785-2.397.6893-3.3447 1.6308-.3569.3569-.5692.6092-.8553 1.0154-.0954.1354-.1847.2615-.2.2769-.0524.0677-.4031.6646-.4031.6923 0 .0123-.0093.0308-.0216.0369-.0338.0123-.0923.1231-.44.8246-.3907.7816-.5353 1.0985-1.123 2.4616-.1046.2461-.2277.5231-.2708.6154-.04.0923-.12.2738-.1754.4-.0554.1261-.1569.3477-.2246.4923-.3538.7538-.3662.7877-.76 1.6769-.0369.0831-.0985.24-.1385.3477-.043.1046-.0954.2369-.12.2923-.2154.4677-.6123 1.8-.68 2.2677-.0123.0738-.0246.1477-.0338.1569-.0246.04-.0554.5754-.0492.8831.003.3046.0523.6123.1415.8985.2031.6646.72 1.2246 1.4954 1.6184.1261.0646.2369.12.2461.12.0093.0031.0585.0216.1077.0431.1693.0738.6093.2185.8462.28.4277.1108.5969.1477 1.0923.2308.0338.0061.1785.0277.3231.0461.1446.0185.3107.04.3692.0462.0585.0092.1908.0215.2923.0307.1015.0093.2431.0216.3169.0277.9477.0862 3.7723.0893 4.9908.0031.84-.0585.8646-.0615 1.4462-.1231.0892-.0092.3353-.04.5076-.0615.0985-.0154.5785-.0923 1.1385-.1846.1015-.0185.4769-.1046.7385-.1693.1354-.0338.28-.0707.32-.08.04-.0092.12-.0338.1754-.0584.0584-.0246.1046-.0369.1046-.0308 0 .0185.6984-.2338.9815-.3508.4923-.2061 1.1815-.6184 1.5046-.9046.36-.3138.6616-.6892.8646-1.0677.1262-.2369.2954-.7046.3262-.8984.0092-.0554.0277-.1754.0431-.2677.0277-.1816.0215-.9662-.0123-1.1416-.0093-.0584-.0308-.1846-.0493-.2769-.0615-.3569-.12-.5907-.2646-1.0154-.1631-.483-.3138-.8307-.7169-1.6461-.4092-.8339-.6462-1.3231-.6462-1.3477 0-.0092-.0461-.1169-.1046-.2431-.1231-.2677-.4338-1.0184-.8031-1.9323-.1446-.3631-.283-.7046-.3076-.7538-.0216-.0523-.077-.1816-.1231-.2923-.0431-.1108-.0985-.2431-.12-.2924-.0246-.0523-.08-.1815-.1293-.2923-.3169-.7261-.8-1.6-1.1415-2.0553-.7908-1.0585-1.7692-1.6708-3.0092-1.88-.1016-.0154-.2339-.04-.2923-.0493-.2308-.0431-1.4893-.04-1.8123 0z" fill="#0078bf"/></svg>