<svg fill="none" height="40" viewBox="0 0 166 40" width="166" xmlns="http://www.w3.org/2000/svg"><path d="m152.94 25.474 1.643-3.8152s.055-.1207.167-.362c.13-.2414.38-.4827.752-.7241.389-.2413.974-.3527 1.754-.3341.78 0 1.29.1392 1.532.4177.26.2599.352.5755.278.9468-.056.3528-.176.6869-.362 1.0026-.111.1856-.316.5012-.613.9468-.278.4456-.594.9468-.946 1.5038-.353.5569-.697 1.0953-1.031 1.6152-.334.5012-.612.919-.835 1.2531-.204.3342-.307.5013-.307.5013l4.874 6.6s.046.0743.139.2228c.093.1299.139.3063.139.5291.019.2228-.083.4456-.306.6684-.204.2227-.613.4177-1.225.5848-.613.1671-1.142.1763-1.588.0278-.427-.1485-.779-.3527-1.058-.6126-.278-.2785-.483-.5292-.613-.7519-.129-.2228-.194-.3342-.194-.3342l-1.671-3.6203-1.421 3.9545s-.046.0835-.139.2506c-.093.1485-.315.3063-.668.4734-.334.1671-.873.2506-1.615.2506-.743 0-1.263-.1299-1.56-.3898-.278-.2785-.418-.5848-.418-.919 0-.3528.065-.6498.195-.8912.075-.1485.242-.4362.502-.8632.259-.4456.557-.9469.891-1.5038.334-.557.659-1.0954.974-1.6152.316-.5384.576-.9747.78-1.3089.223-.3527.334-.5291.334-.5291l-4.121-5.7924s-.056-.0836-.167-.2506c-.093-.1671-.14-.3714-.14-.6127 0-.2414.13-.4641.39-.6684.26-.2042.752-.3434 1.476-.4177.613-.0557 1.114-.0093 1.504.1393.39.1299.687.3063.891.5291.223.2042.372.3898.446.5569.093.1671.139.2507.139.2507z" fill="#ed2a26"/><path d="m136.348 20.5728s.121.0185.362.0556c.242.0186.511.1022.808.2507.316.1299.585.3713.808.724.222.3342.315.8262.278 1.476-.018.427-.046 1.0025-.083 1.7266-.019.7055-.028 1.4852-.028 2.3392 0 .8354.018 1.6709.055 2.5063.056.8355.14 1.6059.251 2.3114.13.7055.297 1.2718.501 1.6988.223.4084.492.6033.808.5848.334-.0186.585-.2414.752-.6684.167-.4456.278-1.0025.334-1.6709.056-.6869.074-1.4109.056-2.1721-.019-.7612-.056-1.4853-.112-2.1722-.055-.7055-.111-1.281-.167-1.7266-.037-.4641-.065-.724-.083-.7797-.019-.0743-.047-.2321-.084-.4734-.037-.2414-.018-.5013.056-.7798.074-.2784.26-.5291.557-.7519.315-.2228.807-.362 1.476-.4177.668-.0557 1.188.0279 1.559.2506.372.2228.631.492.78.8076.167.3157.26.5941.278.8355.038.2413.056.362.056.362s.028.2135.084.6405c.074.427.13.9933.167 1.6987.055.687.055 1.4482 0 2.2836-.037.8354-.158 1.6802-.362 2.5342-.186.8354-.492 1.6059-.919 2.3114-.427.6869-1.003 1.2438-1.727 1.6709-.724.427-1.634.6405-2.729.6405s-2.024-.2228-2.785-.6684c-.742-.4641-1.355-1.0675-1.838-1.8101-.464-.7612-.826-1.6059-1.086-2.5342-.241-.9283-.408-1.8751-.501-2.8405-.074-.984-.111-1.9122-.111-2.7848.018-.8726.046-1.6338.083-2.2836.056-.6498.093-1.1139.111-1.3924.038-.4827.177-.8447.418-1.086.242-.26.511-.4363.808-.5292.315-.0928.585-.1392.807-.1392.242-.0186.362-.0278.362-.0278z" fill="#83df92"/><path d="m122.84 21.631c-.019 0 .009-.1022.084-.3064.092-.2228.297-.4363.612-.6405.316-.2042.836-.3156 1.56-.3342.649-.0185 1.141.065 1.476.2507.334.1671.557.3342.668.5012.13.1671.195.2507.195.2507s.102.2413.306.724.483 1.1232.836 1.9215c.352.7798.742 1.6524 1.169 2.6178s.854 1.9493 1.281 2.9519c.446.9839.854 1.9122 1.226 2.7848.39.854.714 1.578.974 2.1721.26.5756.427.9376.502 1.0861.167.3527.26.6034.278.7519.019.1485.009.2506-.028.3063-.018.0372-.028.065-.028.0836-.13.2599-.389.4827-.779.6683-.372.2043-.827.3156-1.365.3342-.743.0186-1.281-.065-1.615-.2506-.334-.1671-.557-.3435-.668-.5291-.093-.1671-.13-.2414-.112-.2228 0 0-.102-.2135-.306-.6405-.186-.427-.409-.9376-.669-1.5317-.259-.6126-.501-1.1696-.724-1.6709 0 0-.13 0-.389 0-.242 0-.53 0-.864 0s-.631 0-.891 0c-.241 0-.362 0-.362 0-.074.26-.148.5848-.223.9747-.074.3713-.139.7055-.195 1.0026-.055.297-.083.4455-.083.4455s-.047.1114-.139.3342c-.075.2228-.288.4456-.641.6684-.353.2227-.937.3341-1.754.3341-.613 0-1.077-.0649-1.393-.1949-.297-.1485-.501-.3156-.612-.5013-.093-.1856-.14-.3434-.14-.4734 0-.1485 0-.2228 0-.2228.037-.1856.112-.5662.223-1.1417.13-.5941.279-1.2996.446-2.1165.185-.8354.371-1.7173.557-2.6456.204-.9282.399-1.8472.584-2.7569.186-.9097.353-1.7359.502-2.4785.148-.7612.269-1.3646.362-1.8101.093-.4642.139-.6962.139-.6962zm2.924 4.4c-.019.0742-.037.2227-.056.4455l-.111.7798c-.037.427-.084.8818-.139 1.3645-.056.4827-.112.9376-.167 1.3646-.037.2228-.065.362-.084.4177h.362c.223 0 .464-.0093.724-.0278.26-.0186.492-.0279.696-.0279-.074-.1485-.139-.3342-.195-.5569-.037-.2414-.083-.4642-.139-.6684-.111-.427-.241-.8726-.39-1.3367-.13-.4641-.25-.9004-.362-1.3089-.055-.2228-.102-.3713-.139-.4455z" fill="#ffbc53"/><path d="m107.272 22.5499s-.018-.0742-.056-.2227c-.037-.1671-.027-.3621.028-.5849.074-.2227.242-.427.501-.6126.279-.1857.715-.3063 1.309-.362s1.263-.1021 2.005-.1393c.762-.0371 1.486-.0742 2.173-.1114.705-.0371 1.281-.0649 1.726-.0835.446-.0186.668-.0279.668-.0279s.121.0093.363.0279c.259 0 .556.0371.891.1114.352.0557.668.1764.946.362.279.1671.446.4177.502.7519.055.3342-.01.5941-.195.7798-.186.1856-.409.3248-.669.4177-.259.0742-.492.1206-.696.1392s-.306.0279-.306.0279l-4.456.2506s.028.1207.084.362c.055.2414.111.5199.167.8355.074.297.121.5569.139.7797.019.2042.037.4734.056.8076.018.3156.037.6034.056.8633.018.2413.027.362.027.362h2.061s.102.0093.306.0279c.205 0 .437.0371.697.1114.278.0557.519.1485.724.2784.204.13.315.3249.334.5849.018.3341-.112.5848-.39.7519-.26.167-.538.2784-.835.3341-.279.0372-.455.065-.53.0836-.055 0-.204.0093-.445.0278-.241 0-.511 0-.808 0-.278 0-.529 0-.752 0-.222 0-.334 0-.334 0v.4177c.019.26.037.5663.056.919.018.3528.018.6591 0 .919 0 .2414-.009.5384-.028.8912-.019.3341-.037.6312-.056.8911-.018.2413-.027.362-.027.362l3.759-.1392h.362c.241-.0186.529 0 .863.0557s.632.1671.891.3342c.26.167.4.4177.418.7519.037.3341-.056.6033-.278.8075-.223.2043-.483.3528-.78.4456s-.566.1578-.808.195c-.222.0185-.334.0278-.334.0278l-6.015.3063s-.149 0-.446 0c-.278.0186-.603 0-.974-.0557-.372-.0742-.696-.2135-.975-.4177-.278-.2228-.408-.5569-.39-1.0025.037-.5941.074-1.5224.112-2.7848.037-1.281.018-2.7756-.056-4.4836s-.269-3.4996-.585-5.3747z" fill="#d83870"/><path d="m92.4363 36.6689c-.6869 0-1.2068-.0928-1.5595-.2784-.3342-.1857-.557-.3992-.6684-.6405-.1114-.2414-.1671-.4549-.1671-.6406 0-.1856 0-.2784 0-.2784l-.3341-12.0861s-.0093-.0928-.0279-.2785c-.0185-.1856.0186-.3991.1114-.6405.0928-.2599.2878-.4827.5848-.6684.2971-.2042.7612-.3063 1.3924-.3063.8355-.0185 1.4667.1021 1.8937.362.427.2414.7055.492.8354.7519.1486.2414.2228.3621.2228.3621l3.2026 5.8202s.0742-.1671.2227-.5012c.1671-.3528.3621-.7891.5849-1.3089.2413-.5198.4827-1.049.724-1.5873.2414-.5384.4549-1.0026.641-1.3925.185-.4084.306-.6683.362-.7797.092-.1857.259-.4363.501-.7519.241-.3342.585-.6405 1.03-.919.464-.2785 1.068-.427 1.81-.4456.557-.0185.984.0465 1.281.195.297.1299.502.2877.613.4734.13.1857.204.3527.223.5013.018.1485.028.2228.028.2228v.724 1.8658c.018.7798.027 1.6338.027 2.5621v2.8126 2.562c.019.7798.028 1.411.028 1.8937v.7519c0 .0186-.009.1114-.028.2785 0 .1671-.065.362-.194.5848-.13.2042-.362.3899-.697.557-.315.1485-.789.2227-1.42.2227s-1.114-.0649-1.448-.1949c-.316-.1485-.538-.3063-.668-.4734-.13-.1857-.205-.3435-.223-.4734-.019-.13-.028-.195-.028-.195s0-.1578 0-.4734c0-.3342 0-.7426 0-1.2253.019-.5013.028-.9933.028-1.476.018-.5012.028-.9189.028-1.2531s0-.5013 0-.5013l.222-3.9823-1.448 3.0912s-.055.1021-.1667.3063c-.0929.2042-.2785.4084-.557.6127-.2785.2042-.6962.3156-1.2532.3341-.5383.0186-.9654-.0557-1.281-.2227-.297-.1857-.5105-.3621-.6405-.5292-.1114-.1856-.1671-.2784-.1671-.2784l-1.8101-3.314s.0093.2228.0279.6684c.0371.427.0742.9932.1114 1.6987.0371.6869.0742 1.4203.1113 2.2.0372.7612.065 1.4853.0836 2.1722.0371.6683.065 1.2067.0835 1.6152.0186.5012-.0835.8911-.3063 1.1696-.2228.2599-.4827.4456-.7797.557-.2971.0928-.5663.1485-.8076.167-.2228 0-.3342 0-.3342 0z" fill="#0085d4"/><g fill="#003047"><path d="m86.7539 15.9719c-1.4934 0-1.3349 1.3576-1.3349 1.4627.0001.6363.1867 1.2089.1521 1.7778-.0216.3532-.2709.7928-.2709 1.1037 0 .3108.3072.7204.8919.621.4872-.0828 1.9961-1.4208 1.9961-3.2611 0-.0955-.0339-1.7041-1.4343-1.7041z"/><path d="m49.5358 21.6311c-.0186 0 .0093-.1021.0835-.3063.0929-.2228.2971-.4363.6127-.6406.3156-.2042.8354-.3156 1.5595-.3341.6498-.0186 1.1418.0649 1.4759.2506.3342.1671.557.3342.6684.5013.13.1671.1949.2506.1949.2506s.1021.2413.3064.724c.2042.4827.4827 1.1233.8354 1.9216.3528.7797.7426 1.6523 1.1696 2.6177s.854 1.9494 1.281 2.9519c.4456.984.8541 1.9122 1.2254 2.7848.3898.854.7147 1.5781.9746 2.1721.26.5756.427.9376.5013 1.0861.1671.3528.2599.6034.2785.7519s.0093.2507-.0279.3064c-.0185.0371-.0278.0649-.0278.0835-.13.2599-.3899.4827-.7798.6684-.3713.2042-.8261.3156-1.3645.3341-.7426.0186-1.281-.0649-1.6152-.2506-.3342-.1671-.557-.3435-.6684-.5291-.0928-.1671-.1299-.2414-.1113-.2228 0 0-.1022-.2135-.3064-.6405-.1856-.427-.4084-.9376-.6683-1.5317-.2599-.6126-.5013-1.1696-.7241-1.6708 0 0-.1299 0-.3899 0-.2413 0-.5291 0-.8632 0-.3342 0-.6313 0-.8912 0-.2413 0-.362 0-.362 0-.0743.2599-.1485.5848-.2228.9746-.0743.3714-.1392.7055-.1949 1.0026-.0557.297-.0836.4455-.0836.4455s-.0464.1114-.1392.3342c-.0743.2228-.2878.4456-.6405.6684-.3528.2228-.9376.3342-1.7545.3342-.6126 0-1.0767-.065-1.3924-.195-.297-.1485-.5012-.3156-.6126-.5012-.0928-.1857-.1393-.3435-.1393-.4735 0-.1485 0-.2228 0-.2228.0372-.1856.1114-.5662.2228-1.1417.13-.5941.2785-1.2996.4456-2.1165.1857-.8354.3713-1.7173.557-2.6455.2042-.9283.3991-1.8473.5848-2.757.1856-.9097.3527-1.7359.5012-2.4785.1486-.7612.2692-1.3645.3621-1.8101.0928-.4642.1392-.6962.1392-.6962zm2.9241 4.4c-.0186.0742-.0372.2228-.0557.4455l-.1114.7798c-.0372.427-.0836.8819-.1393 1.3646s-.1114.9375-.1671 1.3645c-.0371.2228-.0649.362-.0835.4177h.362c.2228 0 .4642-.0093.7241-.0278.2599-.0186.492-.0279.6962-.0279-.0743-.1485-.1393-.3341-.195-.5569-.0371-.2414-.0835-.4642-.1392-.6684-.1114-.427-.2414-.8726-.3899-1.3367-.1299-.4641-.2506-.9004-.362-1.3089-.0557-.2227-.1021-.3713-.1392-.4455z"/><path d="m65.5515 36.6691c-.6683 0-1.1789-.0743-1.5316-.2228-.3342-.1671-.5756-.3528-.7241-.557-.1299-.2228-.2042-.4084-.2228-.557 0-.167 0-.2506 0-.2506s-.0278-.2785-.0835-.8354c-.0557-.557-.13-1.2718-.2228-2.1443-.0928-.8912-.1949-1.838-.3063-2.8405-.0929-1.0211-.195-1.9958-.3064-2.9241-.0928-.9468-.1671-1.7451-.2227-2.3949-.0557-.6684-.0929-1.0861-.1114-1.2532-.0186-.4827.0835-.9004.3063-1.2532.2413-.3713.8169-.5848 1.7266-.6405.6126-.0371 1.1046.0557 1.4759.2785s.6405.4549.8076.6962c.1671.2228.2506.3342.2506.3342l2.6178 6.3494 1.0303 1.9215-.6405-5.2912s0-.3063 0-.9189c.0186-.6127.0557-1.346.1114-2.2.0372-.427.1764-.7519.4178-.9747.2413-.2228.5105-.3806.8076-.4734.3156-.0929.5848-.1393.8075-.1393.2414-.0186.3621-.0278.3621-.0278s.1021.0092.3063.0278c.2228.0186.4734.1021.7519.2506.2785.13.5198.3714.7241.7241.2227.3342.3248.8262.3063 1.4759-.0186.7984.0093 1.7081.0835 2.7292.0743 1.0025.1671 2.0329.2785 3.0911.13 1.0582.2506 2.0515.362 2.9797.13.9098.2414 1.6709.3342 2.2836.1114.6127.1764.9932.1949 1.1418.0372.2227.0465.4919.0279.8076-.0186.3156-.1671.5941-.4456.8354-.2599.2414-.7519.3713-1.4759.3899-.7241 0-1.2625-.0836-1.6152-.2507-.3528-.167-.5941-.3341-.7241-.5012-.1114-.1857-.1671-.2785-.1671-.2785l-4.1772-7.4911s.0372.1856.1114.5569c.0743.3713.1578.854.2507 1.4481.1113.5941.2135 1.2346.3063 1.9215.1114.687.1949 1.346.2506 1.9773.0557.6312-.0185 1.1046-.2228 1.4202-.1856.2971-.427.5013-.724.6127-.2785.1114-.5291.1671-.7519.1671s-.3342 0-.3342 0z"/><path d="m77.5007 35.2488c-.0557-.6312-.0928-1.4203-.1114-2.3671-.0185-.9654-.0278-1.9958-.0278-3.0911 0-1.0954.0093-2.1536.0278-3.1747.0372-1.0397.0743-1.9587.1114-2.757.0372-.7983.0743-1.3738.1114-1.7266.0557-.4455.2135-.7797.4734-1.0025.26-.2413.5477-.4084.8633-.5013.3342-.0928.6127-.1392.8355-.1392.2413-.0186.362-.0278.362-.0278s.1114.0185.3342.0557c.2413.0185.5012.0649.7797.1392s.4734.2042.5848.3899c.2414.3713.3528.7333.3342 1.086 0 .3342-.0186.7705-.0557 1.3089-.1114 1.3924-.1764 2.757-.1949 4.0937-.0186 1.3367-.0186 2.5527 0 3.6481.0185 1.0953.0371 1.9679.0557 2.6177.0371.6498.0557.9747.0557.9747s-.0093.1021-.0279.3063c0 .1857-.0557.3992-.1671.6405-.1114.2414-.3249.4642-.6405.6684-.3156.1856-.7797.2785-1.3924.2785-.6126 0-1.086-.065-1.4202-.195-.3156-.1485-.5384-.3156-.6684-.5012-.1114-.2043-.1764-.3714-.1949-.5013-.0186-.1485-.0279-.2228-.0279-.2228z"/><path d="m51.1138 8.36692c.3527 1.91228.7241 3.80588 1.1696 5.69958.0186.0743.0186.1485-.0185.2042-.0372.0557-.0743.1114-.13.13-.0743.0371-.13.0557-.2042.0371-.0557 0-.13-.0371-.1671-.0928s-.0557-.1114-.0743-.1671l-.1299-.5384c-.1114-.4641-.2042-.9468-.3156-1.4295-.1114-.5384-.2414-1.0954-.3528-1.6338-.5941-.0186-1.2067-.0557-1.8008-.0928-.2785-.0372-.5756-.0557-.8726-.0928-.0743.3341-.1671.6683-.2599.9839l-.4085 1.4296-.4084 1.4481c-.0186.0742-.0743.1485-.1485.2042-.0743.0557-.1671.0742-.2414.0557-.0928 0-.1671-.0372-.2413-.0929-.0557-.0557-.1114-.1299-.1114-.2227 0-.0186 0-.0372 0-.0557 0-.0372 0-.0557 0-.0743s0-.0371.0186-.0557v-.0371l.0557-.1857.0928-.3527.8169-2.8591c.1299-.4827.2413-.9654.3713-1.4481.2413-.94683.4827-1.91223.7426-2.87763.2785-.94684.5569-1.89367.9283-2.84051.0185-.07426.0742-.12996.1485-.18565.0742-.0557.1671-.0557.2413-.0557.0372 0 .0929 0 .13.01857h.0557c.0742 0 .1671.03713.2228.11139s.0557.16709.0742.20422l.0186.18565.0557.37131.2413 1.42954c.1671.9654.3157 1.91223.5013 2.87763zm-.3713 1.46667c-.0371-.16709-.0743-.31561-.0928-.46414-.3156-1.54092-.6127-3.08185-.8726-4.62278-.1114.29705-.2042.59409-.2785.9097-.1485.46414-.2785.94684-.4084 1.41097-.13.48271-.2599.96541-.3713 1.44811-.1114.40843-.2043.81687-.3156 1.22531.1856-.01856.3898 0 .5755 0 .3156.03713.6498.0557.9839.0557.26.01856.5199.01856.7798.03713z"/><path d="m57.4706 8.99815c.0742.18565.1299.3713.1671.57552.0928.37131.1299.77973.1113 1.16963 0 .3899-.0371.7797-.1299 1.151-.0928.3899-.2042.7612-.4084 1.114-.0929.1671-.2043.3342-.3342.4827-.1114.1485-.2599.297-.4085.427-.1485.1299-.3156.2413-.4827.3342-.1856.0928-.3713.167-.5755.2042-.0928.0371-.1856.0371-.297.0557-.0929 0-.1857 0-.2971 0-.2042-.0186-.4084-.0929-.5755-.2042-.3528-.2228-.5755-.5756-.7241-.9283-.1485-.3713-.2413-.7426-.2784-1.1325 0-.0928-.0186-.2042 0-.2971-.0186-.0185 0-.0557 0-.0742 0-.0371.0185-.0557.0185-.0928.0372-.0557.0743-.0929.13-.13.0371-.0371.1114-.0557.1671-.0557s.1114.0186.1671.0371c.0557.0186.0928.0557.1299.1114.0186.0186.0371.0557.0371.0743.0186.0371.0186.0557.0186.0928 0 .3713.0557.7426.1857 1.0954.0742.1856.1671.3527.2784.4827.13.1485.2785.2599.4642.297.0928.0186.1856.0372.2599.0186.0928 0 .1857-.0186.2785-.0557.1856-.0557.3527-.13.5012-.2414.3157-.2227.557-.5198.7427-.854.1856-.3341.297-.7055.3527-1.0768s.0743-.7611.0557-1.1325c0-.1856-.0186-.3898-.0557-.57548-.0186-.18565-.0557-.37131-.1114-.55696-.0557-.16709-.1485-.35274-.2785-.4827-.1114-.14853-.2785-.24135-.4641-.33418-.1671-.07426-.3527-.12996-.5198-.20422-.0929-.03713-.1857-.09283-.26-.12996-.0928-.03713-.167-.11139-.2413-.14852-.3156-.22278-.5941-.51983-.7983-.83544-.1857-.33418-.3156-.70549-.3713-1.09536s-.0186-.77975.0742-1.15106c.13-.3713.3157-.72405.557-1.02109.2599-.29705.5755-.5384.9468-.66836.1857-.07426.3899-.09282.5941-.07426.2042.01857.3899.07426.5756.16709.0557.03713.1113.0557.1299.12996.0371.03713.0557.11139.0557.16709-.0186.12995-.0743.24135-.1856.29704-.0929.07426-.26.07426-.3528.01857l-.1299-.0557c-.0372 0-.0743-.01856-.1114-.01856-.1671-.03713-.3528 0-.5013.09282-.1671.07426-.297.20422-.427.33418-.2414.27848-.427.59409-.5013.94684-.0928.3713-.0742.74261.0372 1.07679.0928.35274.297.66835.5569.9097s.6127.38988.9469.55697c.1856.07426.3713.14852.5384.25991.167.11139.3156.25992.4455.40844.13.16709.2414.35274.2971.5384z"/><path d="m63.0728 8.99815c.0743.18565.13.3713.1671.57552.0928.37131.13.77973.1114 1.16963 0 .3899-.0371.7797-.13 1.151-.0928.3899-.2042.7612-.4084 1.114-.0928.1671-.2042.3342-.3342.4827-.1114.1485-.2599.297-.4084.427-.1485.1299-.3156.2413-.4827.3342-.1857.0928-.3713.167-.5755.2042-.0929.0371-.1857.0371-.2971.0557-.0928 0-.1856 0-.297 0-.2043-.0186-.4085-.0929-.5756-.2042-.3527-.2228-.5755-.5756-.724-.9283-.1485-.3713-.2414-.7426-.2785-1.1325 0-.0928-.0186-.2042 0-.2971-.0186-.0185 0-.0557 0-.0742 0-.0371.0186-.0557.0186-.0928.0371-.0557.0742-.0929.1299-.13.0372-.0371.1114-.0557.1671-.0557s.1114.0186.1671.0371c.0557.0186.0928.0557.13.1114.0185.0186.0371.0557.0371.0743.0186.0371.0186.0557.0186.0928 0 .3713.0557.7426.1856 1.0954.0743.1856.1671.3527.2785.4827.13.1485.2785.2599.4641.297.0929.0186.1857.0372.26.0186.0928 0 .1856-.0186.2784-.0557.1857-.0557.3528-.13.5013-.2414.3156-.2227.557-.5198.7426-.854.1857-.3341.2971-.7055.3528-1.0768s.0742-.7611.0557-1.1325c0-.1856-.0186-.3898-.0557-.57548-.0186-.18565-.0557-.37131-.1114-.55696-.0557-.16709-.1486-.35274-.2785-.4827-.1114-.14853-.2785-.24135-.4642-.33418-.167-.07426-.3527-.12996-.5198-.20422-.0928-.03713-.1856-.09283-.2599-.12996-.0928-.03713-.1671-.11139-.2413-.14852-.3157-.22278-.5941-.51983-.7984-.83544-.1856-.33418-.3156-.70549-.3713-1.09536s-.0185-.77975.0743-1.15106c.13-.3713.3156-.72405.557-1.02109.2599-.29705.5755-.5384.9468-.66836.1856-.07426.3899-.09282.5941-.07426.2042.01857.3899.07426.5755.16709.0557.03713.1114.0557.13.12996.0371.03713.0557.11139.0557.16709-.0186.12995-.0743.24135-.1857.29704-.0928.07426-.2599.07426-.3527.01857l-.13-.0557c-.0371 0-.0743-.01856-.1114-.01856-.1671-.03713-.3527 0-.5012.09282-.1671.07426-.2971.20422-.4271.33418-.2413.27848-.427.59409-.5012.94684-.0928.3713-.0743.74261.0371 1.07679.0928.35274.2971.66835.557.9097s.6126.38988.9468.55697c.1857.07426.3713.14852.5384.25991s.3156.25992.4456.40844c.1299.16709.2413.35274.297.5384z"/><path d="m68.7493 5.89772c.0743.51984.1114 1.0211.1486 1.54093.0371 1.03967 0 2.07933-.0929 3.10045-.0371.5198-.1114 1.0396-.1856 1.5409-.0557.2599-.0928.5198-.1485.7612-.0557.2599-.1486.5013-.26.7426-.0557.1114-.1299.2228-.2227.3156-.0743.1114-.1671.2042-.2785.2785-.2042.1485-.4642.2413-.7241.2599-.0742 0-.1299 0-.2042 0-.0557-.0186-.13-.0186-.1856-.0557-.0743 0-.13-.0371-.1857-.0742-.0557-.0186-.1114-.0557-.1671-.0929-.0557-.0371-.0928-.0928-.1485-.1299-.0371-.0557-.0928-.0929-.13-.1486-.0742-.1113-.1485-.2227-.2042-.3341-.2599-.4642-.4084-.9654-.5198-1.4667s-.1671-1.0211-.2414-1.5409c-.1114-1.02113-.1856-2.06079-.1856-3.10045-.0186-.51983-.0186-1.03966.0185-1.55949.0186-.25992.0557-.51984.0929-.77975.0557-.25992.1114-.51983.2227-.76118.1114-.25992.26-.4827.4456-.68692.2042-.20422.4642-.33418.7241-.40844.2785-.07426.5755-.07426.8354 0 .1857.03713.3528.11139.5013.20422.0742 0 .1485 0 .2228.03713.0557.03713.1114.09283.1485.14852.1671.20422.2785.44557.3713.68692.2042.4827.297 1.00253.3527 1.52236zm-1.0768-1.48523c-.0928.01857-.1856 0-.2599-.03713-.0185-.01856-.0557-.01856-.0742-.03713l-.0372-.03713-.0742-.0557-.0743-.03713-.0742-.05569c-.0929-.03713-.1857-.07426-.2971-.0557-.1114 0-.2042.01857-.3156.0557-.0928.05569-.1857.11139-.2599.18565-.0743.09283-.1485.16709-.2228.27848-.0557.09283-.0928.20422-.13.31561-.1485.46414-.1856.9654-.2042 1.48524v.76118.77974c0 .50127.0186 1.0211.0557 1.54093.0186.50129.0743 1.02109.13 1.52239.0371.2599.0742.5012.1114.7612.0371.2599.0928.5012.1485.7426.0742.2413.1485.4641.2785.6683.1299.2042.2784.4085.4641.4827.0928.0372.1671.0372.2599 0 .0928-.0371.1857-.0928.2599-.1856.1486-.1671.2785-.3899.3528-.6127.0557-.1114.0742-.2228.1114-.3527.0185-.1114.0557-.2414.0742-.3713.0557-.2414.0929-.5013.13-.7612.1485-1.0025.2042-2.04221.2042-3.06331 0-.51983-.0186-1.03966-.0557-1.54093-.0186-.25991-.0557-.51983-.0743-.77974-.0371-.24135-.0742-.50127-.1299-.74262-.0557-.25992-.13-.50126-.2414-.72405-.0185-.0557-.0371-.09283-.0557-.12996z"/><path d="m74.8273 13.064c.0186.0557.0186.0928.0372.1485.0185.1856-.0186.3899-.0929.557-.0742.167-.2042.3156-.3527.427s-.3342.2042-.5013.2413c-.3713.0743-.7426.0371-1.0953-.0557-.3342-.0928-.6684-.2413-.9654-.4456-.2971-.2042-.5384-.5012-.6684-.8354-.0742-.1671-.1114-.3342-.1485-.5198-.0186-.1671-.0371-.3528-.0743-.5199-.0371-.3527-.0557-.7054-.0742-1.0582-.0372-.7055-.0557-1.42953-.0929-2.13501-.0185-.70549-.0185-1.41097 0-2.11646 0-.70548-.0185-1.42953.0929-2.13502.0557-.35274.1856-.70548.427-.98396.1114-.12996.2599-.25992.427-.33418.1671-.09283.3342-.14852.5198-.18566.3527-.05569.7426 0 1.0768.1114.3342.12995.6684.29704.9654.4827.0928.05569.1671.16709.1671.29704.0186.1114-.0371.22279-.13.29705-.0742.07426-.2228.11139-.3341.07426-.0372-.01856-.0557-.03713-.0743-.03713l-.1671-.11139c-.3156-.16709-.6312-.33418-.9468-.38987-.1671-.01857-.3342-.01857-.4827 0-.1671.03713-.3156.11139-.427.20421-.1114.1114-.1857.24135-.2414.40844-.0371.14853-.0742.31562-.0928.4827-.0557.70549-.0557 1.41097-.0743 2.11646v1.05823l.0186 1.05823c0 .70548 0 1.41096.0557 2.11646.0186.3527.0742.7055.1299 1.0397.0186.0928.0186.1856.0372.2599.0185.0742.0557.1671.0742.2413.0743.1485.1486.2785.2785.3899.1114.1114.2414.2042.3899.2785.0743.0557.1671.0742.2413.1114.0743.0185.1486.0557.2414.0742.1671.0372.3342.0557.5013.0743.167 0 .3527 0 .4827-.0557.0742-.0371.1299-.0743.167-.13.0372-.0557.0372-.1299.0372-.2042 0-.0185 0-.0371 0-.0557l-.0186-.0371v-.0371c0-.0557 0-.13.0186-.1857.0557-.0928.1485-.1671.2599-.2042.0557 0 .1114-.0186.1671 0 .0371 0 .0557.0185.0928.0185.0186.0186.0557.0372.0743.0557l.0185.0372c.0186.0185.0186.0185.0372.0371 0 .0186.0185.0557.0185.0743z"/><path d="m78.2812 3.59561c.0557.0557.0928.1114.1114.16709.0371.12996-.0186.27848-.1114.35275-.0557.03713-.1299.03713-.1856.03713h-.1671l-.3528-.01857c-.0557-.01856-.1299-.01856-.1856-.01856v.20421l-.0186 1.41098c0 .46413-.0186.92827-.0371 1.41097l-.0743 1.3924c-.0742 1.76369-.297 3.52739-.2042 5.29119.1857 0 .3713-.0186.557-.0372.0928 0 .2042.0372.2599.1485.0557.0929.0557.2043 0 .3157-.0372.0928-.1485.167-.2599.1856-.0929.0186-.2043.0186-.2971.0371-.1856.0186-.3713.0186-.5755.0186-.1857.0186-.3899-.0186-.5755-.0371-.1114 0-.2414-.0929-.2971-.2042-.0371-.1114-.0371-.2414.0186-.3342.0371-.0557.0742-.1114.1299-.13.0186-.0185.0557-.0185.0743-.0185h.0928c.0929.0185.1671.0185.2599.0371 0-.0743 0-.13 0-.2042-.0185-.4642-.0185-.9283-.0185-1.411.0371-.9283.0928-1.8565.1299-2.80338.0743-1.76371.13-3.54599.2043-5.3097-.1857 0-.3713-.01857-.557-.03714-.0557-.01856-.13-.03713-.1857-.07426-.0371-.05569-.0928-.11139-.1114-.16709-.0185-.07426-.0185-.12995-.0185-.20422.0185-.07426.0557-.14852.1299-.18565.0557-.0557.1486-.0557.2228-.0557l.5013.0557c.4456.03713.9097.09283 1.3553.11139.0742.01857.1299.03713.1856.07426z"/><path d="m83.8933 8.36692c.3528 1.91228.7241 3.80588 1.1697 5.69958.0185.0743.0185.1485-.0186.2042s-.0743.1114-.13.13c-.0742.0371-.1299.0557-.2042.0371-.0557 0-.1299-.0371-.1671-.0928-.0371-.0557-.0557-.1114-.0742-.1671l-.13-.5384c-.1114-.4641-.2042-.9468-.3156-1.4295-.1114-.5384-.2414-1.0954-.3527-1.6338-.5941-.0186-1.2068-.0557-1.8009-.0928-.2785-.0372-.5755-.0557-.8726-.0928-.0742.3341-.1671.6683-.2599.9839l-.4084 1.4296-.4085 1.4481c-.0185.0742-.0742.1485-.1485.2042-.0742.0557-.1671.0742-.2413.0557-.0929 0-.1671-.0372-.2414-.0929-.0557-.0557-.1114-.1299-.1114-.2227 0-.0186 0-.0372 0-.0557 0-.0372 0-.0557 0-.0743s0-.0371.0186-.0557v-.0371l.0557-.1857.0928-.3527.8169-2.8591c.1299-.4827.2413-.9654.3713-1.4481.2413-.94683.4827-1.91223.7426-2.87763.2785-.94684.557-1.89367.9283-2.84051.0186-.07426.0742-.12996.1485-.18565.0743-.0557.1671-.0557.2414-.0557.0371 0 .0928 0 .1299.01857h.0557c.0743 0 .1671.03713.2228.11139s.0557.16709.0743.20422l.0185.18565.0557.37131.2414 1.42954c.1671.9654.3156 1.91223.5012 2.87763zm-.3713 1.46667c-.0371-.16709-.0742-.31561-.0928-.46414-.3156-1.54092-.6127-3.08185-.8726-4.62278-.1114.29705-.2042.59409-.2785.9097-.1485.46414-.2784.94684-.4084 1.41097-.13.48271-.2599.96541-.3713 1.44811-.1114.40843-.2042.81687-.3156 1.22531.1856-.01856.3899 0 .5755 0 .3156.03713.6498.0557.984.0557.2599.01856.5198.01856.7797.03713z"/><path d="m89.0935 3.31713c.13 0 .2414.09283.2971.20422.0557.1114.0557.22279.0185.35275-.0371.05569-.0742.09282-.1299.12995-.0371.01857-.0557.03713-.0928.03713-.0372 0-.0557 0-.0929 0-.0928 0-.1856-.01856-.2784-.01856-.3714-.0557-.7427-.07426-1.114-.09283-.0185 0-.0557 0-.0928 0v.27848 1.42954 2.84051c.0186 1.89368.0186 3.78738 0 5.68098 0 .0743-.0186.1486-.0743.2228-.0557.0743-.1299.1114-.2042.13-.0742.0185-.1671 0-.2413-.0186-.0743-.0186-.13-.0743-.1857-.1485-.0185-.0371-.0185-.0743-.0371-.1114 0-.0371 0-.0928 0-.1114v-.5384l.0557-4.25148c.0185-.94683.0371-1.89367.0371-2.8405l.0186-2.58059c-.13.01856-.2599.01856-.3899.01856-.3527.01857-.724.07426-1.0954.12996-.0557 0-.1113 0-.167-.01857-.0557-.01856-.0929-.07426-.1114-.11139-.0557-.11139-.0557-.22278-.0186-.33418.0371-.09282.1485-.16708.2599-.20421.0928-.01857.1857-.01857.2785-.03714.3713-.05569.7426-.09282 1.1139-.12995.7426-.03713 1.5038 0 2.2464.09282z"/><path d="m92.6948 3.59561c.0557.0557.0928.1114.1114.16709.0371.12996-.0186.27848-.1114.35275-.0557.03713-.13.03713-.1857.03713h-.1671l-.3527-.01857c-.0557-.01856-.13-.01856-.1857-.01856v.20421l-.0185 1.41098c0 .46413-.0186.92827-.0371 1.41097l-.0743 1.3924c-.0743 1.76369-.2971 3.52739-.2042 5.29119.1856 0 .3713-.0186.5569-.0372.0929 0 .2043.0372.26.1485.0556.0929.0556.2043 0 .3157-.0372.0928-.1486.167-.26.1856-.0928.0186-.2042.0186-.297.0371-.1857.0186-.3713.0186-.5755.0186-.1857.0186-.3899-.0186-.5756-.0371-.1114 0-.2413-.0929-.297-.2042-.0371-.1114-.0371-.2414.0185-.3342.0372-.0557.0743-.1114.13-.13.0186-.0185.0557-.0185.0743-.0185h.0928c.0928.0185.1671.0185.2599.0371 0-.0743 0-.13 0-.2042-.0186-.4642-.0186-.9283-.0186-1.411.0372-.9283.0929-1.8565.13-2.80338.0743-1.76371.13-3.54599.2042-5.3097-.1856 0-.3713-.01857-.5569-.03714-.0557-.01856-.13-.03713-.1857-.07426-.0371-.05569-.0928-.11139-.1114-.16709-.0185-.07426-.0186-.12995-.0186-.20422.0186-.07426.0557-.14852.13-.18565.0557-.0557.1485-.0557.2228-.0557l.5013.0557c.4455.03713.9097.09283 1.3552.11139.0743.01857.13.03713.1857.07426z"/><path d="m97.9935 5.89772c.0742.51984.1114 1.0211.1485 1.54093.0371 1.03967 0 2.07933-.0928 3.10045-.0372.5198-.1114 1.0396-.1857 1.5409-.0557.2599-.0928.5198-.1485.7612-.0557.2599-.1485.5013-.2599.7426-.0557.1114-.13.2228-.2228.3156-.0743.1114-.1671.2042-.2785.2785-.2042.1485-.4641.2413-.724.2599-.0743 0-.13 0-.2043 0-.0557-.0186-.1299-.0186-.1856-.0557-.0743 0-.13-.0371-.1857-.0742-.0557-.0186-.1114-.0557-.1671-.0929-.0557-.0371-.0928-.0928-.1485-.1299-.0371-.0557-.0928-.0929-.1299-.1486-.0743-.1113-.1486-.2227-.2043-.3341-.2599-.4642-.4084-.9654-.5198-1.4667s-.1671-1.0211-.2413-1.5409c-.1114-1.02113-.1857-2.06079-.1857-3.10045-.0186-.51983-.0186-1.03966.0186-1.55949.0185-.25992.0557-.51984.0928-.77975.0557-.25992.1114-.51983.2228-.76118.1114-.25992.2599-.4827.4455-.68692.2043-.20422.4642-.33418.7241-.40844.2785-.07426.5755-.07426.8354 0 .1857.03713.3528.11139.5013.20422.0743 0 .1485 0 .2228.03713.0557.03713.1114.09283.1485.14852.1671.20422.2785.44557.3713.68692.2042.4827.2971 1.00253.3528 1.52236zm-1.0768-1.48523c-.0929.01857-.1857 0-.2599-.03713-.0186-.01856-.0557-.01856-.0743-.03713l-.0371-.03713-.0743-.0557-.0743-.03713-.0742-.05569c-.0928-.03713-.1857-.07426-.2971-.0557-.1114 0-.2042.01857-.3156.0557-.0928.05569-.1856.11139-.2599.18565-.0743.09283-.1485.16709-.2228.27848-.0557.09283-.0928.20422-.1299.31561-.1486.46414-.1857.9654-.2043 1.48524v.76118.77974c0 .50127.0186 1.0211.0557 1.54093.0186.50129.0743 1.02109.13 1.52239.0371.2599.0743.5012.1114.7612.0371.2599.0928.5012.1485.7426.0743.2413.1485.4641.2785.6683s.2785.4085.4641.4827c.0929.0372.1671.0372.2599 0 .0929-.0371.1857-.0928.26-.1856.1485-.1671.2784-.3899.3527-.6127.0557-.1114.0743-.2228.1114-.3527.0186-.1114.0557-.2414.0743-.3713.0557-.2414.0928-.5013.1299-.7612.1485-1.0025.2042-2.04221.2042-3.06331 0-.51983-.0185-1.03966-.0557-1.54093-.0185-.25991-.0557-.51983-.0742-.77974-.0372-.24135-.0743-.50127-.13-.74262-.0557-.25992-.1299-.50126-.2413-.72405-.0186-.0557-.0372-.09283-.0557-.12996z"/><path d="m104.498 8.58971.205 5.55109c0 .0742-.019.1671-.056.2227-.056.0743-.13.1114-.204.13-.149.0371-.297-.0186-.39-.13-.056-.0742-.074-.1485-.074-.2227v-.1671l-.019-.3528-.056-1.3924-.037-1.0768c-.018-.0185-.037-.0371-.055-.0557-.019-.0185-.038-.0557-.056-.0742-.019-.0372-.019-.0743-.037-.0929l-.037-.1113c-.112-.3528-.26-.6684-.427-.98401-.335-.63122-.743-1.22532-1.114-1.85654-.502-.85401-.966-1.72658-1.43-2.59916 0 .14853.019.29705.019.44557l.185 2.72912c.093 1.83802.223 3.65742.372 5.47682 0 .0742-.019.1485-.056.2228-.056.0742-.13.1113-.204.1299-.149.0371-.297-.0186-.409-.1299-.037-.0557-.055-.13-.074-.2043l-.019-.1671-.018-.3527-.111-1.3738c-.056-.9097-.112-1.8194-.168-2.72915-.055-.9097-.111-1.81941-.167-2.72911l-.0925-1.37384-.0557-1.37384c-.0186-.07426 0-.14853.0557-.22279.0375-.05569.1115-.09282.1855-.11139.056-.03713.13-.03713.204-.01857.056 0 .112.01857.167.03714.056.01856.093.05569.13.11139.038.03713.056.07426.075.11139l.055.12996.52.9654.52.94683c.167.31562.353.63123.538.94684.186.31561.372.63122.557.94684.186.29704.39.61265.576.92827.111.16708.204.35274.316.53839l-.038-1.18818-.018-.70549-.037-.68692c-.037-.92827-.075-1.85654-.093-2.78481 0-.07426.018-.14852.056-.20422.037-.05569.111-.09283.185-.11139.13-.03713.297 0 .372.12996.055.05569.074.12996.074.20422l.018.51983z"/></g><path d="m22.1778 4.46073c-.033-.92505-.4658-1.82384-1.3463-1.82384-.8806 0-1.3134.89879-1.3464 1.82384-1.78-.67537-4.883-1.45001-7.7198-1.93564-2.86363-.49023-6.1331-.49022-6.1331-.07501 0 .3645 1.19253.60009 1.99982.84401-1.08998 0-1.71323 0-1.71323.2551 0 .37808 1.2514.54225 1.83291.6708-.60293.0499-1.03613.10344-1.03613.35903 0 .31902.80081.46892 1.23139.56373-.19402.02445-.35588.03397-.35588.2299 0 .34374.73061.4371 1.24084.37162-.10177.49099.89555.57029 1.16838.55113-.01724.43619.9694.44828 1.1527.40311-.0648.60349.9581.52104 1.1054.4787.0846.32061.8138.33865.9416.2551.1671.211.5217.29247.6614.211.313.41908.6431.31723.844.23935.1537.15899.5026.25141.6897.12598.3108.28952.6107.34799.7999.24249.2144.20546.5596.27902.7748.13857.3167.32529.6449.25173.759.20785.0425.08535.2907.14191.2907.14191h5.6239s.2482-.05656.2908-.14191c.1141.04388.4422.11744.7589-.20785.2152.14045.5604.06689.7748-.13857.1892.1055.4891.04703.7999-.24249.1871.12543.5361.03301.6897-.12598.201.07788.531.17973.844-.23935.1397.08147.4943 0 .6614-.211.1278.08355.857.06551.9416-.2551.1473.04234 1.1702.12479 1.1054-.4787.1833.04517 1.17.03308 1.1527-.40311.2728.01916 1.2702-.06014 1.1684-.55113.5102.06548 1.2408-.02788 1.2408-.37162 0-.19593-.1618-.20545-.3558-.2299.4305-.09481 1.2313-.24471 1.2313-.56373 0-.25559-.4332-.30913-1.0361-.35903.5815-.12855 1.8329-.29272 1.8329-.6708 0-.2551-.6232-.2551-1.7132-.2551.8073-.24392 1.9998-.47951 1.9998-.84401 0-.41521-3.2695-.41522-6.1331.07501-2.8368.48563-5.9398 1.26027-7.7198 1.93564z" fill="#83df92"/><path d="m25.8831 9.87846c-1.4971-1.14794-3.6411-1.67314-5.0516-1.67314s-3.5546.5252-5.0517 1.67314c-.2542.19494-1.4769.38164-2.1357.76274-.6158.3562-1.9714 2.0447-2.5374 2.2471-.1683.0602-1.72743.5704-1.72743 1.802 0 .7656.51179.8197 1.22573 2.0327.2106.3578.5071 1.4336 1.133 2.1315.6943 1.0028 1.2593 1.3355 1.7414 1.3355.9109 0 1.0564-.9481 1.3612-2.0498.2154.8611-.2097 1.6276-.2722 2.4661-.3432 1.4454-.4564 2.4237-.4564 3.3229-.8004 1.8951-2.374 9.2594-1.8944 13.9465h17.2277c.4797-4.6871-1.094-12.0514-1.8943-13.9465 0-.8992-.1132-1.8775-.4564-3.3229-.0625-.8385-.4877-1.605-.2723-2.4661.3049 1.1017.4503 2.0498 1.3612 2.0498.4821 0 1.0471-.3327 1.7415-1.3355.6259-.6979.9223-1.7737 1.133-2.1315.7139-1.213 1.2257-1.2671 1.2257-2.0327 0-1.2316-1.5591-1.7418-1.7275-1.802-.5659-.2024-1.9216-1.8909-2.5374-2.2471-.6587-.3811-1.8814-.5678-2.1357-.76274z" fill="#ed2a26"/><path d="m36.1506 32.0097c.0526-.144.0547-.3316-.0609-.4125-.1155-.0809-.2897-.0142-.407.0845-.7221-.1143-.8909.8545-1.0708 1.0797-.3022-.0757-.4553-.0914-.7017-.0735.0371-.1995.0242-.3019-.0387-.4748-.0326-.0895-.0764-.1926-.3504-.2229-.0821-.0091-.5976-.243-1.2355-.0502-.1741.0527-.277.1318-.3597.2414-.0958.1362-.3091.1733-.2452.3488.1786.4906 1.3337-.1214 1.55.2406-.5098.0832-.7184.1618-.9628.3504-.4992.4337-1.1283 1.426-1.103 1.7125-.2085.053-.3164.1006-.4905.2218l.8802 2.8202h3.1385c.0544-.205.0622-.3285.0407-.5426.2779-.0742.9952-1.0048 1.232-1.6222.0936-.2941.0961-.5171 0-1.0246.4142.0795.2341 1.3742.7562 1.3742.1868 0 .1487-.2131.244-.3496.0746-.1153.1138-.2391.1037-.4207-.037-.6653-.433-1.0697-.4697-1.1438-.1222-.2471-.2341-.253-.3293-.253-.1841 0-.2847.023-.4594.1261-.0675-.2377-.1346-.3763-.3091-.6343.1501-.2461 1.0027-.7361.6484-1.3755z" fill="#d83870"/><path d="m30.4569 23.9374c-1.1186 2.0631-1.3174 3.2982-.9057 5.638h-.4272c.3331-1.5672.1196-3.7007-.8207-5.2124s-1.5321-1.9777-2.1094-1.8899-.8021 1.9347-.4677 3.7416c.1346.7274.7413 1.4184.8611 2.0115.1002.496.2155 1.2938.4265 1.8512-.3722 2.9163-.3267 4.0067.5218 4.8768-.4258.9689-.5435 1.63-.618 2.9215h5.9046c-.2481-1.3569-.5885-2.2561-1.0033-2.8743.7397-1.2167.6253-2.7992-.2084-5.1412.1264-.228.1907-.4792.2091-.6503.1936-1.8057.6526-2.3264.8671-2.9421.6145-1.7637.2204-3.7755-.2555-3.9253-.7022-.2211-1.5335.7819-1.9743 1.5949z" fill="#0085d4"/><path d="m14.2488 22.1394c-.2714-1.5143-1.3674-2.9543-1.7994-2.9543-.3198 0-.4659.5203-.7025.8752-.1108.231-.9537 1.6743-1.009 3.5061-.93786.0155-1.4182.1076-2.17779.4278-.73906-1.4966-2.01462-2.7409-2.69166-3.1319-.07999-.0462-.29602-.295-.46663-.2757-.53469.0607-.97406 1.649-.65762 3.4614-.2572.9066-.19754 1.7309.15263 2.229-.31851 3.5489-.14619 5.0532.92899 6.4173.26823.3403-.23182 2.9835-.11408 5.1814l12.16516-.0001c-.3196-3.3784-.8832-5.6128-1.5604-6.4596.0838-1.2707.4175-1.4504.0838-3.4432-.2105-1.2569-1.093-3.6413-1.3969-3.7924.0233-.8492-.2369-1.3319-.7546-2.041z" fill="#ffbc53"/></svg>