<svg viewBox="0 0 40 40" xmlns="http://www.w3.org/2000/svg"><path d="m35.2422 19.9844-1.0078 12.289c-.2578 3.1797-4.9922 2.7422-4.7344-.3828l.7812-9.5703-3.2109.1797c.7891 1.6172 1.2344 3.4297 1.2344 5.3516 0 3.2187-1.2578 6.1484-3.3047 8.3203l-3.0703-3.0703c4.5234-4.9766 1.0234-13.0625-5.7813-13.0625-2.0234 0-3.8672.7734-5.25 2.0312l-3.07028-3.0703c1.71876-1.6172 3.91408-2.7422 6.35938-3.1406l5.8828-6.69534-3.3281-1.9375-4.0313 3.59374c-2.3437 2.0938-5.51559-1.4453-3.16402-3.54686l5.31252-4.74219c.7656-.6875 1.8828-.79687 2.7734-.28125 0 0 10.8828 6.32031 10.8984 6.33594 1.2657.78906 1.6172 2.81246.4766 4.10936l-4.5625 5.1953 8.2891-.4609c1.4453-.0859 2.625 1.125 2.5078 2.5547zm-5.0703-12.03128c2.1953 0 3.9765-1.78124 3.9765-3.97656 0-2.19531-1.7812-3.97656-3.9765-3.97656s-3.9766 1.78125-3.9766 3.97656c0 2.19532 1.7813 3.97656 3.9766 3.97656zm-14.0157 27.71098c-6.29682 0-9.95308-7.0782-6.46089-12.1953l-3.10156-3.1016c-1.625 2.0547-2.59375 4.6562-2.59375 7.4766 0 10.2109 11.7734 15.7343 19.6406 9.5703l-3.1015-3.1016c-1.25.8516-2.7579 1.3516-4.3829 1.3516z"/></svg>