<svg fill="none" height="40" viewBox="0 0 40 40" width="40" xmlns="http://www.w3.org/2000/svg"><path d="m23 4.5c0-1.38047 1.1172-2.5 2.5-2.5h9.9297c.4062 0 .7344.06719 1.0234.18984.2266.1211.5703.3.8125.53672 0 .00391 0 .00781.0078.01094.4844.48594.6563 1.12031.7266 1.75469v.00781 10c0 1.3828-1.1172 2.5-2.5 2.5s-2.5-1.1172-2.5-2.5v-3.9609l-13.2344 13.2265c-.9765.9766-2.5547.9766-3.5312 0-.9766-.9765-.9766-2.5547 0-3.5312l13.2265-13.2344h-3.9609c-1.3828 0-2.5-1.11953-2.5-2.5zm-20 5c0-2.76172 2.23828-5 5-5h7.5c1.3828 0 2.5 1.11953 2.5 2.5 0 1.38281-1.1172 2.5-2.5 2.5h-7.5v22.5h22.5v-7.5c0-1.3828 1.1172-2.5 2.5-2.5s2.5 1.1172 2.5 2.5v7.5c0 2.7578-2.2422 5-5 5h-22.5c-2.76172 0-5-2.2422-5-5z" fill="#1f2937"/></svg>