<svg viewBox="0 0 40 40" xmlns="http://www.w3.org/2000/svg"><g><path d="m17.1888 29.7328-2.439 2.4391 2.1226 2.8281c1.0352 1.3805.7571 3.3398-.625 4.375-.5617.4212-1.2207.625-1.8726.625-.9453 0-1.8828-.4297-2.5-1.25l-3.75002-5c-.93203-1.2422-.81015-2.9844.28829-4.0805l4.08513-4.0843z"/><path d="m26.249 6.25c0 3.38672-2.7922 6.1797-6.2492 6.1797-3.4531 0-6.25-2.86329-6.25-6.25001s2.789-6.17969 6.25-6.17969c3.4609 0 6.2492 2.86328 6.2492 6.25z"/><path d="m30.0732 10.5664c1.4164-.98671 3.3602-.6539 4.3563.7617.9922 1.4141.6562 3.3594-.7602 4.3555l-3.1742 2.2266c-.9469.6687-1.9601 1.1853-2.9953 1.6437v2.9461h-15v-2.9531c-1.0391-.461-2.0547-.9766-3.00002-1.6328l-3.17421-2.2266c-1.40625-1-1.74844-2.9453-.76172-4.3594.99609-1.40622 2.93906-1.74998 4.34843-.7617l3.17422 2.2266c4.1172 2.8906 9.7008 2.8906 13.8125 0z"/><path d="m22.7175 35.7268c-.5054 1.2774-.1208 2.7845 1.0323 3.6482.5625.4219 1.2187.625 1.8047.625.1369 0 .2736-.0089.4091-.0267-1.4337-1.0871-2.5651-2.552-3.2461-4.2465z"/><path clip-rule="evenodd" d="m32 40c4.4183 0 8-3.5817 8-8s-3.5817-8-8-8-8 3.5817-8 8 3.5817 8 8 8zm5.0607-8.9393c.5857-.5858.5857-1.5356 0-2.1214-.5858-.5857-1.5356-.5857-2.1214 0l-3.9393 3.9394-1.9393-1.9394c-.5858-.5857-1.5356-.5857-2.1214 0-.5857.5858-.5857 1.5356 0 2.1214l3 3c.5858.5857 1.5356.5857 2.1214 0z" fill-rule="evenodd"/></g></svg>