<svg fill="none" height="40" viewBox="0 0 40 40" width="40" xmlns="http://www.w3.org/2000/svg"><g fill="#1f2937"><path d="m37.926 10.9451c.0487-.3079.074-.6235.074-.9451 0-3.31371-2.6863-6-6-6s-6 2.68629-6 6c0 .3216.0253.6372.074.9451-1.2564.9082-2.074 2.3861-2.074 4.0549 0 2.7614 2.2386 5 5 5 .3425 0 .6769-.0344 1-.1v14.1c0 1.1046.8954 2 2 2s2-.8954 2-2v-14.1c.3231.0656.6575.1 1 .1 2.7614 0 5-2.2386 5-5 0-1.6688-.8176-3.1467-2.074-4.0549z"/><path clip-rule="evenodd" d="m4 36c-1 0-2-.5-2-2v-4h-.5c-.75 0-1.5-.75-1.5-1.5v-1c0-.75.75-1.5 1.5-1.5h2.5v-2h-2v-6c0-1 1-2 2-2h16c1 0 2 1 2 2v6h-2v2h2.5c.75 0 1.5.75 1.5 1.5v1c0 .75-.75 1.5-1.5 1.5h-.5v4c0 1.5-1 2-2 2s-2-.5-2-2v-4h-12v4c0 1.5-1 2-2 2zm2-10v-2h12v2z" fill-rule="evenodd"/></g></svg>