<svg viewBox="0 0 40 40" xmlns="http://www.w3.org/2000/svg" xmlns:xlink="http://www.w3.org/1999/xlink"><clipPath id="a"><path d="m0 0h40v40h-40z"/></clipPath><g clip-path="url(#a)"><path d="m26.0835 18.1221c.7401.3897 1.3086.6507 2.1576.7352 1.591.1597 3.2618-.5671 4.2065-1.8619.1604-.2198.3442-.4892.423-.7512.0713-.2348.061-.5071.061-.7512v-1.9718c0-.2592-.0234-.8094.0554-1.0329.1088-.3052.8414-1.1042 1.0985-1.5023.196-.3033.6191-1.26858.8415-1.40661.227-.1399.9071-.09483 1.1942-.09577.3855-.00188.6979 0 1.0216-.24883.5731-.44037.6022-1.36995.0722-1.85822-.4803-.44413-1.3237-.33427-1.9381-.33427-.1295-2.81784-1.6192-5.43662-4.3153-6.530515-1.2542-.50892001-1.8837-.5136148-3.1895-.51173687-3.5958.0056338-6.6193 3.32019187-6.6437 6.85446187v1.59624c-.0807.30235-.8884 1.15024-1.1426 1.40845l-2.8143 2.8169-4.1276 3.9521-3.56483 3.3559-3.09574 2.8291c-.36023.3427-.78331.6423-1.08913 1.0366-.4578.5925-.43528 1.4573.24859 1.8695.34522.2084.73547.1953 1.12197.1962h5.53484c3.4447-.0159 7.0629-1.7192 9.2994-4.3192.712-.8282 1.3921-1.7427 1.8818-2.723.6135-1.2272.9456-3.0451 1.0929-4.4132.0722-.6788.09-2.1286.5103-2.6253.5244-.6207 1.2983-.6141 1.7346.0939.226.3652.2082.7136.2092 1.123v.5634c-.0122 1.0141-.2749 2.3004-.5282 3.2864zm3.1895-13.29388c1.5741.02535 1.5179 2.05164.1876 2.1953-.8161.08733-1.4381-.71737-1.1247-1.48357.1829-.44788.4887-.61596.9371-.71173zm3.3772 14.98408c-1.7608 1.0572-3.2777 1.5934-5.3472 1.1586l-2.2514-.7831c-.5338 1.1991-1.6089 2.5493-2.5329 3.4742-2.5526 2.555-6.2815 4.4132-9.9439 4.4132.3649.6535 1.9119 1.3192 2.6267 1.5906.8846.3352 1.2045.2253 1.2195 1.0385v2.2535h-14.9158c-.45029.0009-.844289-.016-1.197953.3183-.562861.5305-.3592932 1.6554.353664 1.9634.474679.2047 1.348049.1596 1.876199.1596h3.6586l-1.05536 2.0657c-.17637.354-.44185.8301-.48688 1.2207-.10037.8676.53284 1.3662 1.35462 1.3099.74392-.0517.99251-.6245 1.28989-1.216l1.17263-2.3474c.12195-.246.35648-.7972.57599-.9371.18293-.1164.50095-.0958.7139-.0958h28.3307c.47-.0009 1.1116-.0094 1.4906-.3221.561-.4619.5357-1.5352-.0872-1.9305-.3284-.2084-.6576-.1878-1.0282-.1887h-2.8143c-1.0948-.0019-1.0141-.3944-1.4362-1.3146l-1.0732-2.1596c-.1811-.3615-.3649-.8178-.6895-1.0657-.6755-.5146-1.7852-.185-1.9391.6901-.1238.7014.3546 1.4582.6586 2.0658l.9146 1.784h-6.1915v-3.0047c0-.2235-.0197-.5352.0957-.7315.1332-.2262.6079-.4629.8425-.615.726-.4732 1.12-.7549 1.7823-1.323 1.6033-1.3737 2.8425-3.3352 3.5601-5.3117.1764-.4883.5704-1.678.4738-2.1596zm-9.1934 10.2347v2.9108h-4.5967v-2.4413l1.1257.092c.9447.0188 2.5498-.2948 3.471-.5615z"/></g></svg>