<svg viewBox="0 0 40 40" xmlns="http://www.w3.org/2000/svg"><path d="m38 26.25v-22.5c0-2.07109-1.6797-3.75-3.75-3.75h-23.75c-4.14219 0-7.5 3.35781-7.5 7.5v25c0 4.1422 3.35781 7.5 7.5 7.5h25c1.3805 0 2.5-1.1195 2.5-2.4297 0-.9156-.5162-1.6812-1.25-2.1172v-6.3562c.7656-.7531 1.25-1.7375 1.25-2.8469zm-23.8203-16.25h15c.7578 0 1.3203.5625 1.3203 1.25s-.5625 1.25-1.25 1.25h-15.0703c-.6172 0-1.1797-.5625-1.1797-1.25s.5625-1.25 1.1797-1.25zm0 5h15c.7578 0 1.3203.5625 1.3203 1.25s-.5625 1.25-1.25 1.25h-15.0703c-.6172 0-1.1797-.5625-1.1797-1.25s.5625-1.25 1.1797-1.25zm18.8203 20h-22.5c-1.38047 0-2.5-1.1195-2.5-2.5s1.11953-2.5 2.5-2.5h22.5z"/></svg>