<svg viewBox="0 0 40 40" xmlns="http://www.w3.org/2000/svg"><path clip-rule="evenodd" d="m38 3.75v22.5c0 1.1094-.4844 2.0938-1.25 2.8469v6.3562c.7338.436 1.25 1.2016 1.25 2.1172 0 1.3102-1.1195 2.4297-2.5 2.4297h-25c-4.14219 0-7.5-3.3578-7.5-7.5v-25c0-4.14219 3.35781-7.5 7.5-7.5h23.75c2.0703 0 3.75 1.67891 3.75 3.75zm-27.5 31.25h22.5v-5h-22.5c-1.38047 0-2.5 1.1195-2.5 2.5s1.11953 2.5 2.5 2.5zm2.5-22.2537v.1926c0 1.3779.5721 2.6961 1.5801 3.6357l6.0002 5.6014c.249.2324.5777.3619.9197.3619s.6707-.1295.9197-.3619l5.9998-5.6014c1.0094-.9396 1.5805-2.2578 1.5805-3.6357v-.1926c0-2.3209-1.6768-4.30046-3.9645-4.68163-1.514-.25201-3.0546.24139-4.1669 1.32547l-.3686.39777-.3984-.39777c-1.0825-1.08408-2.653-1.57748-4.1371-1.32547-2.2871.38117-3.9645 2.36073-3.9645 4.68163z" fill-rule="evenodd"/></svg>