<svg viewBox="0 0 40 40" xmlns="http://www.w3.org/2000/svg"><g><path d="m3 12 3.96094-7.92969c.64062-1.26562 1.9375-2.07031 3.35936-2.07031h8.9297v10z"/><path d="m38 12h-16.25v-10h8.9297c1.4219 0 2.7187.80469 3.3594 2.07031z"/><path clip-rule="evenodd" d="m3 14.5h35v17.5c0 2.7578-2.2422 5-5 5h-25c-2.75781 0-5-2.2422-5-5zm10 8.6879v.1699c0 1.2159.5048 2.3789 1.3942 3.208l5.2943 4.9424c.2197.2051.5097.3194.8115.3194s.5918-.1143.8115-.3194l5.294-4.9424c.8906-.8291 1.3945-1.9921 1.3945-3.208v-.1699c0-2.0478-1.4795-3.7945-3.498-4.1308-1.336-.2224-2.6954.2129-3.6768 1.1695l-.3252.351-.3516-.351c-.955-.9566-2.3408-1.3919-3.6504-1.1695-2.0179.3363-3.498 2.083-3.498 4.1308z" fill-rule="evenodd"/></g></svg>