<svg fill="none" height="40" viewBox="0 0 40 40" width="40" xmlns="http://www.w3.org/2000/svg"><path d="m19.7778 2c9.3333 0 15.5555 2.44444 15.5555 5.55556v3.33334c1.2292 0 2.2223.993 2.2223 2.2222v4.4445c0 1.2291-.9931 2.2222-2.2223 2.2222v11.1111c0 1.2292-.993 2.2222-2.2222 2.2222v2.2222c0 1.2292-.993 2.2223-2.2222 2.2223h-2.2222c-1.2292 0-2.2223-.9931-2.2223-2.2223v-2.2222h-13.3333v2.2222c0 1.2292-.993 2.2223-2.2222 2.2223h-2.22223c-1.22917 0-2.22223-.9931-2.22223-2.2223v-2.2222c-1.22708 0-2.22222-.993-2.22222-2.2222v-11.1111c-1.22708 0-2.22222-.9931-2.22222-2.2222v-4.4445c0-1.2292.99514-2.2222 2.22222-2.2222v-3.33334c0-3.11112 6.22218-5.55556 15.55558-5.55556zm-11.11113 17.7778c0 1.2291.99305 2.2222 2.22223 2.2222h7.7778v-11.1111h-7.7778c-1.22918 0-2.22223.993-2.22223 2.2222zm12.22223 2.2222h7.7778c1.2291 0 2.2222-.9931 2.2222-2.2222v-6.6667c0-1.2292-.9931-2.2222-2.2222-2.2222h-7.7778zm-11.11112 7.7778c1.22912 0 2.22222-.9931 2.22222-2.2222 0-1.2292-.9931-2.2223-2.22222-2.2223-1.22917 0-2.22222.9931-2.22222 2.2223 0 1.2291.99305 2.2222 2.22222 2.2222zm20.00002 0c1.2291 0 2.2222-.9931 2.2222-2.2222 0-1.2292-.9931-2.2223-2.2222-2.2223-1.2292 0-2.2222.9931-2.2222 2.2223 0 1.2291.993 2.2222 2.2222 2.2222zm-4.4445-23.33336h-11.1111c-.6111 0-1.1111.49723-1.1111 1.11112 0 .61388.5 1.11111 1.1111 1.11111h11.1111c.6111 0 1.1111-.49723 1.1111-1.11111 0-.61389-.5-1.11112-1.1111-1.11112z" fill="#1f2937"/></svg>