<svg viewBox="0 0 40 40" xmlns="http://www.w3.org/2000/svg"><path d="m3.09453 14.875 2.74922-7.85234c1.05234-3.0086 3.89063-5.02266 7.07815-5.02266h14.1562c3.1875 0 6.0235 2.01406 7.0781 5.02266l2.75 7.85234c1.8126.75 3.0938 2.5391 3.0938 4.625v15c0 1.3828-1.1172 2.5-2.5 2.5h-2.5c-1.3828 0-2.5-1.1172-2.5-2.5v-3.75h-25v3.75c0 1.3828-1.11953 2.5-2.5 2.5h-2.5c-1.38047 0-2.5-1.1172-2.5-2.5v-15c0-2.0859 1.27813-3.875 3.09453-4.625zm5.42891-.375h22.95316l-2.0391-5.82812c-.3516-1-1.2969-1.67188-2.3594-1.67188h-14.1562c-1.0625 0-2.0078.67188-2.3594 1.67188zm-1.02344 5c-1.38047 0-2.5 1.1172-2.5 2.5s1.11953 2.5 2.5 2.5c1.38281 0 2.5-1.1172 2.5-2.5s-1.11719-2.5-2.5-2.5zm25 5c1.3828 0 2.5-1.1172 2.5-2.5s-1.1172-2.5-2.5-2.5-2.5 1.1172-2.5 2.5 1.1172 2.5 2.5 2.5z"/></svg>