<svg fill="none" height="40" viewBox="0 0 40 40" width="40" xmlns="http://www.w3.org/2000/svg" xmlns:xlink="http://www.w3.org/1999/xlink"><clipPath id="a"><path d="m0 0h40v40h-40z"/></clipPath><g clip-path="url(#a)" clip-rule="evenodd" fill="#1f2937" fill-rule="evenodd"><path d="m6.79681 22.7288v-3.379c0-.1332-.00072-.2638-.00142-.392-.00899-1.6396-.01586-2.8928 1.50321-4.0637.79778-.6151 1.43932-.6552 2.0347-.6924.234-.0146.4609-.0288.6873-.0772 1.0287-.2197 1.8725-.7941 2.3907-1.7205.9085-1.6229.3745-3.76199-1.1705-4.77664-.6627-.43552-1.4746-.57256-2.25269-.5735l-6.47091-.00001c-.38568-.00052-.69293-.00094-1.03428.24875-.59039.4327-.66642 1.4633-.0779 1.94294.30756.25022.65132.24952 1.01786.24878l6.28364-.00005.08027-.00025c.21981-.00103.46941-.0022.67061.06126.7415.23184 1.2052 1.03062.6758 1.70542-.3443.4386-.6616.4583-1.0754.4839-.10953.0068-.22588.014-.35128.0296-.32757.0403-.71522.1107-1.03248.2008-1.23803.3492-2.34936 1.0813-3.11996 2.1185-1.24467 1.6731-1.22578 3.2718-1.2037 5.141.00298.2522.00602.5094.00602.7723v7.1335c0 .169-.00038.3358-.00075.5006-.00545 2.3851-.00997 4.367 1.1515 6.6329.45898.8954 1.02778 1.6867 1.69233 2.4404 1.62474 1.8444 4.62922 3.2814 7.10632 3.2852h8.9168c0-.1394.0018-.2747.0034-.4073.0081-.6301.0154-1.1987-.1676-1.8454-.3896-1.3845-1.6736-2.4226-3.1209-2.4404h-4.2238c-.7087-.001-1.4586-.0836-1.7571-.8448-.0939-.2271-.0995-.4327 0-.657.2969-.6366.7637-.7141 1.3613-.8134.4413-.0733.9539-.1585 1.5221-.4894 2.1983-1.2794 2.1542-4.4209.4684-5.7819-.4665-.3764-1.0034-.6495-1.5947-.7565-.154-.0279-.3021-.0399-.4447-.0515-.4439-.036-.8338-.0677-1.1791-.5586-.5332-.7594.1389-1.6342.9667-1.682.4121-.0235.8213.0572 1.2203.1511 2.4638.5829 4.4462 2.9219 4.5044 5.4768.0206.9077-.214 1.8134-.6082 2.6281l-.6111 1.1264c.9175 0 1.7897.2004 2.5692.5704-.0863-.5286-.1312-1.071-.1312-1.624 0-4.1043 2.4727-7.6312 6.0096-9.1721v-6.294c.1962 0 .4193.0036.6578.0074.938.0151 2.1132.034 2.8151-.1463 2.7107-.6965 3.5705-2.844 3.5667-5.3989v-.0161c-.0009-.4805-.0018-.98415-.3351-1.37216-.1409-.16425-.3281-.26506-.5415-.38-.3366-.18128-.7385-.39774-1.1273-.95377-.3033-.43285-.3223-.76765-.3426-1.12738-.013-.22922-.0265-.46857-.1145-.74986-.4018-1.28309-1.5694-1.68763-2.7953-1.68951h-4.2237v-3.28516c-.0057-.40643-.0319-.766855-.3342-1.076599-.4468-.458984-1.4473-.3876488-2.0124-.20368-1.6463.53689-2.4376 1.966409-2.4404 3.626819v7.2274c0 .1686.0009.3347.0017.4987.01 2.0017.0184 3.6698-1.5119 5.3207-.9095.9818-1.8613 1.6369-3.1829 1.9232l-3.5667.4121c-2.3503.5584-4.15341 1.7665-5.72559 3.578zm23.37159-13.1998c1.529-.02253 1.5769 2.0133.2816 2.1954-.8382.1183-1.56-.7631-1.1667-1.5712.1971-.40456.4721-.52846.8851-.6242z"/><path d="m32 40c4.4183 0 8-3.5817 8-8s-3.5817-8-8-8-8 3.5817-8 8 3.5817 8 8 8zm5.0607-8.9393c.5857-.5858.5857-1.5356 0-2.1214-.5858-.5857-1.5356-.5857-2.1214 0l-3.9393 3.9394-1.9393-1.9394c-.5858-.5857-1.5356-.5857-2.1214 0-.5857.5858-.5857 1.5356 0 2.1214l3 3c.5858.5857 1.5356.5857 2.1214 0z"/></g></svg>