<svg viewBox="0 0 40 40" xmlns="http://www.w3.org/2000/svg"><path clip-rule="evenodd" d="m31.25 5h-4.2094c-1.0328-2.90625-3.7828-5-7.0406-5s-6.0078 2.09375-7.0391 5h-4.2109c-2.07031 0-3.75 1.67812-3.75 3.75v27.5c0 2.0703 1.67969 3.75 3.75 3.75h22.5c2.0703 0 3.75-1.6781 3.75-3.75v-27.5c0-2.07188-1.6797-3.75-3.75-3.75zm-11.25 0c1.3805 0 2.5 1.11953 2.5 2.5s-1.1195 2.5-2.5 2.5-2.5-1.11719-2.5-2.5 1.1172-2.5 2.5-2.5zm-2.5 14c0-.75.25-1 1-1h3c.75 0 1 .25 1 1v4h4c.75 0 1 .25 1 1v3c0 .75-.25 1-1 1h-4v4c0 .75-.25 1-1 1h-3c-.75 0-1-.25-1-1v-4h-4c-.75 0-1-.25-1-1v-3c0-.75.25-1 1-1h4z" fill-rule="evenodd"/></svg>