<svg viewBox="0 0 40 40" xmlns="http://www.w3.org/2000/svg"><path d="m24.0448 11.0797-.5096 1.4084c-.7029 1.6451-1.8254 3.139-3.2443 4.2357-1.6358 1.2657-2.2899 1.2225-3.8478 2.045-1.6226.8563-3.0876 2.0357-4.2222 3.4845-1.3542 1.7295-2.273 3.9295-2.58832 6.1032-.22712 1.5624-.15485 5.6478-.13421 7.4177.02722 2.2911 1.80563 4.2216 4.12933 4.2253h10.0417c0-.5896.0713-2.3661-.1079-2.8168-.1117-.2826-.2769-.4695-.5509-.6038-.8972-.4413-2.777.2169-3.5597-.4554-.5612-.4816-.4457-1.107-.6128-1.7577-.2074-.8084-.6034-1.4094-1.2688-1.922-.4505-.3474-.9498-.5212-1.5016-.631-.6982-.139-1.5203-.1193-1.7258-1.015-.1277-.5578.3857-1.0864.8812-1.2394.4974-.1531 1.4753.092 1.9708.2553 1.8638.6141 3.5437 2.3972 3.8478 4.3643.746 0 1.5278-.0582 2.2523.1399.3594.0977.7301.2808 1.0323.4977 1.8845 1.3493 1.5954 3.1614 1.5954 5.1839h1.5954v-16.6195c.001-.7239.1662-1.6234 1.0324-1.7859.7686-.1436 1.2106.661 1.22 1.3164v17.089h5.7247c.1962 0 .4711.0085.6569-.0478.8738-.2658.7518-1.2104.7508-1.924-.0018-1.4938-.793-2.5004-2.3462-2.5351v-9.6713c0-.246-.0103-.5145.061-.7512l.9657-2.0657c.534-1.4103.8672-3.1868.8503-4.6947-.0122-1.0047-.2337-2.3183-.5096-3.2864-.138-.4845-.565-1.4188-.4439-1.8779.0779-.2939.2778-.5362.488-.7474.8512-.8535 1.3777-.5277 2.1547-.7587 1.176-.3502 1.8629-1.3239 1.877-2.53142v-3.38024c0-.22817.0122-.5399-.0694-.75117-.3323-.85915-1.3496-.74929-2.0891-.75117-.2487-.00093-.5227.01784-.7508-.09577-.3322-.16619-1.4922-1.51547-1.8094-1.87603-1.1477-1.303276-2.074-2.25068313-3.9153-2.2535h-2.6277-1.4077c-1.3055.0159623-2.5274.713607-3.2641 1.78402-.2308.33521-.4232.74083-.5499 1.12675-.1699.51548-.2328.96055-.2206 1.50233.0216.94083.5237 2.2056.8616 3.09855.1651.43568.2862.94178.595 1.29764.6578.75586 2.0111.84506 2.7619.18404 1.1055-.97464.4364-2.80185 1.3373-3.5887.7874-.68825 1.7878.06573 1.754.98027l-.1548 1.12675c-.077.46479-.1774 1.06853-.3482 1.50233-.6344 1.60752-2.1153 2.56522-3.8046 2.67512-.8061.0516-1.5363-.3014-2.2523-.6094zm-15.20336 28.9198c-.42513-.7408-.78551-1.0929-1.13368-1.9718-.51147-1.292-.46173-2.2309-.46173-3.568-2.26549 0-4.11335-.1981-5.91148 1.5108-.44859.4272-1.018246 1.1859-1.224711 1.7756-.282482.8093-.0272158 1.876.848384 2.1736.269347.0911.564027.0798.844627.0798z"/></svg>