<svg viewBox="0 0 40 40" xmlns="http://www.w3.org/2000/svg"><path d="m38.8889 33.1114h-3.3333v-23.2292c0-1.89236-1.4931-3.4375-3.3334-3.4375l-7.7778.00069v4.44371h6.6667v26.6667h7.7778c.6163 0 1.1111-.4948 1.1111-1.0486v-2.1597c0-.7431-.4931-1.2361-1.1111-1.2361zm-19.4236-31.04122-13.33335 3.45486c-1.05556.26063-1.68751 1.18077-1.68751 2.23077v25.35559h-3.33333c-.616318 0-1.11111.4948-1.11111 1.0486v2.1597c0 .7431.494792 1.2361 1.11111 1.2361h21.11109v-33.25485c0-1.49306-1.3541-2.59535-2.7569-2.23077zm-3.3542 19.93012c-.9201 0-1.6667-.998-1.6667-2.1598 0-1.2236.7466-2.1597 1.6667-2.1597s1.6667.875 1.6667 2.0972c0 1.2223-.7431 2.2223-1.6667 2.2223z"/></svg>