<svg fill="none" height="40" viewBox="0 0 40 40" width="40" xmlns="http://www.w3.org/2000/svg"><path d="m38.8889 33.1111h-5.5556v-27.58679c0-1.94445-1.493-3.52431-3.3333-3.52431h-20c-1.84028 0-3.33333 1.57986-3.33333 3.52431v27.58679h-5.55556c-.616318 0-1.11111.4931-1.11111 1.1111v2.2222c0 .6181.494792 1.1112 1.11111 1.1112h37.77779c.6163 0 1.1111-.4948 1.1111-1.1112v-2.2222c0-.618-.4931-1.1111-1.1111-1.1111zm-12.2222-11.1111c-1.2236 0-2.2223-.9986-2.2223-2.2222s.9987-2.2222 2.2223-2.2222 2.2222.9986 2.2222 2.2222-1 2.2222-2.2222 2.2222z" fill="#1f2937"/></svg>