<svg fill="none" height="40" viewBox="0 0 40 40" width="40" xmlns="http://www.w3.org/2000/svg"><path d="m10.5 18.25c-1.38047 0-2.5-1.1172-2.5-2.5s1.11953-2.5 2.5-2.5h2.2102c2.3132-6.55391 8.5007-11.25 15.9148-11.25h1.875c1.3828 0 2.5 1.11953 2.5 2.5s-1.1172 2.5-2.5 2.5h-1.875c-4.5234 0-8.4531 2.53125-10.4609 6.25h9.8359c1.3828 0 2.5 1.1172 2.5 2.5s-1.1172 2.5-2.5 2.5h-11.2344c-.0078.2031-.0156.4141-.0156.625v1.25c0 .2109.0078.4219.0156.625h11.2344c1.3828 0 2.5 1.1172 2.5 2.5s-1.1172 2.5-2.5 2.5h-9.8359c2.0078 3.7188 5.9375 6.25 10.4609 6.25h1.875c1.3828 0 2.5 1.1172 2.5 2.5s-1.1172 2.5-2.5 2.5h-1.875c-7.4141 0-13.6016-4.6953-15.9148-11.25h-2.2102c-1.38047 0-2.5-1.1172-2.5-2.5s1.11953-2.5 2.5-2.5h1.2617c-.0078-.2109-.0117-.4141-.0117-.625v-1.25c0-.2109.0039-.4141.0117-.625z" fill="#1f2937"/></svg>