<svg viewBox="0 0 40 40" xmlns="http://www.w3.org/2000/svg"><path d="m25 0v10h10zm-2.5 10v-10h-13.75c-2.07109 0-3.75 1.67891-3.75 3.75v32.5c0 2.0703 1.67891 3.75 3.75 3.75h22.5c2.0711 0 3.75-1.6789 3.75-3.75v-23.75h-9.9297c-1.4531 0-2.5703-1.1172-2.5703-2.5zm3.75 22.5h-12.5c-.6875 0-1.25-.5625-1.25-1.25s.5625-1.25 1.25-1.25h12.5c.6903 0 1.25.5595 1.25 1.25 0 .6875-.5625 1.25-1.25 1.25zm0-5h-12.5c-.6875 0-1.25-.5625-1.25-1.25s.5625-1.25 1.25-1.25h12.5c.6903 0 1.25.5595 1.25 1.25 0 .6875-.5625 1.25-1.25 1.25zm1.25-6.25c0 .6875-.5625 1.25-1.25 1.25h-12.5c-.6875 0-1.25-.5625-1.25-1.25s.5625-1.25 1.25-1.25h12.5c.6875 0 1.25.5625 1.25 1.25z"/></svg>