<svg fill="none" height="40" viewBox="0 0 40 40" width="40" xmlns="http://www.w3.org/2000/svg"><path d="m10 0c-2.75781 0-5 2.24219-5 5v30c0 2.7578 2.24219 5 5 5h20c2.7578 0 5-2.2422 5-5v-22.5h-10c-1.3828 0-2.5-1.1172-2.5-2.5v-10zm15 0v10h10zm-13.75 5h5c.6875 0 1.25.5625 1.25 1.25s-.5625 1.25-1.25 1.25h-5c-.6875 0-1.25-.5625-1.25-1.25s.5625-1.25 1.25-1.25zm0 5h5c.6875 0 1.25.5625 1.25 1.25s-.5625 1.25-1.25 1.25h-5c-.6875 0-1.25-.5625-1.25-1.25s.5625-1.25 1.25-1.25zm4.2344 19.8281c-.4766 1.586-1.9375 2.6719-3.5938 2.6719h-.6406c-.6875 0-1.25-.5625-1.25-1.25s.5625-1.25 1.25-1.25h.6406c.5547 0 1.0391-.3594 1.1953-.8906l1.1641-3.8672c.2656-.8828 1.0781-1.4922 2-1.4922s1.7344.6016 2 1.4922l.9062 3.0156c.5782-.4844 1.3126-.7578 2.0938-.7578 1.2422 0 2.375.7031 2.9297 1.8125l.3437.6875h4.2266c.6875 0 1.25.5625 1.25 1.25s-.5625 1.25-1.25 1.25h-5c-.4766 0-.9063-.2656-1.1172-.6875l-.6875-1.3828c-.1328-.2656-.3984-.4297-.6875-.4297-.289 0-.5625.1641-.6875.4297l-.6875 1.3828c-.2266.4609-.7187.7344-1.2265.6875-.5079-.0469-.9454-.3984-1.086-.8828l-1.3203-4.3516z" fill="#1f2937"/></svg>