<svg fill="none" height="40" viewBox="0 0 40 40" width="40" xmlns="http://www.w3.org/2000/svg"><path d="m20.9125 17.5875-1.875 1.7181c-2.5375 2.3257-5.425.7444-6.3563-.2681-1.6812-1.8375-1.5499-4.6813.2751-6.3563l5.1125-4.6812h-.4126c-3.6125 0-7.0874 1.43438-9.6437 3.9875l-6.0125.0188c-1.1 0-2 .8993-2 1.9987v9.9875c0 1.0994.9 2.0025 1.94375 2.0025l7.14375-.0038 5.6562 5.1138c1.7188 1.3981 4.2344 1.1318 5.625-.5785l1.1325.9532c.9925.7562 2.4613.6562 3.2738-.3356l1.9612-2.4125.3359.2811c.8594.6875 2.1175.5626 2.8125-.2967l.5985-.7394c.6925-.8563.5612-2.1094-.2938-2.8038zm17.0875-5.5812-6-.0079c-2.5613-2.56001-6.035-3.99251-9.6562-3.99251l-.5376-.00589c-.5 0-.9762.19981-1.3512.5355l-6.1425 5.6083c-.0063.0124-.0125.0249-.0125.0249-1.05.9875-1.025 2.5376-.1375 3.5.6016.6563 2.1875 1.3513 3.5081.1719 0-.0078.0157-.0078.0235-.0156l5-4.5687c.4062-.367 1.0387-.3435 1.4137.0625s.3438 1.0387-.0625 1.4137l-1.6325 1.4919 9.1 7.3812c.7575.6245 1.2188 1.4682 1.3825 2.3738l5.1047.0019c1.1 0 2-.8988 2-1.9988v-9.9762c0-1.1063-.8937-2-2-2z" fill="#1f2937"/></svg>