<svg viewBox="0 0 40 40" xmlns="http://www.w3.org/2000/svg"><g><path d="m39.4661 25.3542c-.9113-1.2368-2.6492-1.5042-3.8848-.5882l-8.3142 6.123h-8.3766c-.6076 0-1.0488-.5035-1.0488-1.1105 0-.6076.5036-1.1111 1.0488-1.1111h5.4351c1.0488 0 2.1358-.7555 2.3178-1.8486.2258-1.3889-.8418-2.5958-2.1963-2.5958h-11.1737c-1.8128 0-3.68958.6423-5.1482 1.8229l-3.2298 2.6208-3.84658-.0625c-.54518 0-1.04882.5694-1.04882 1.1736v6.6653c0 .6125.50364 1.1125 1.04882 1.1125h24.03938c1.5302 0 3.0506-.4992 4.2856-1.4077l9.3838-6.9111c1.3544-.9104 1.6184-2.6465.7085-3.8826z"/><path clip-rule="evenodd" d="m15.4154 7c1.7146-3.57621 5.6129-5.9793 9.7605-5.48966.8227.09713 1.4109.84281 1.3138 1.66552-.0972.82271-.8428 1.41092-1.6656 1.31379-2.2952-.27097-4.5048.78596-5.8857 2.51035h4.0616c.8284 0 1.5.67157 1.5 1.5s-.6716 1.5-1.5 1.5h-5.4178c-.054.3268-.0822.6608-.0822 1s.0282.6732.0822 1h5.4178c.8284 0 1.5.6716 1.5 1.5s-.6716 1.5-1.5 1.5h-4.0616c1.3809 1.7244 3.5905 2.7813 5.8857 2.5103.8228-.0971 1.5684.4911 1.6656 1.3138.0971.8228-.4911 1.5684-1.3138 1.6656-4.1476.4896-8.0459-1.9135-9.7605-5.4897h-.9154c-.8284 0-1.5-.6716-1.5-1.5s.6716-1.5 1.5-1.5h.0547c-.0361-.3289-.0547-.6625-.0547-1s.0186-.6711.0547-1h-.0547c-.8284 0-1.5-.67157-1.5-1.5s.6716-1.5 1.5-1.5z" fill-rule="evenodd"/></g></svg>