<svg viewBox="0 0 40 40" xmlns="http://www.w3.org/2000/svg"><path d="m35.5417 21.9722.0486 11.1181c0 .1944-.0139.375-.0347.5625v1.125c0 1.5347-1.2431 2.7778-2.7778 2.7778h-1.1111c-.0764 0-.1528-.0625-.2292-.007-.0972-.0555-.1944.007-.2917.007h-3.9236c-1.5347 0-2.7778-1.2431-2.7778-2.7778v-6.1111c0-1.2292-.993-2.2223-2.2222-2.2223h-4.4444c-1.2292 0-2.2222.9931-2.2222 2.2223v6.1111c0 1.5347-1.2431 2.7778-2.7778 2.7778h-3.88197c-.10416 0-.20833-.007-.3125-.0139-.08333.0069-.16666.0139-.25.0139h-1.11111c-1.53403 0-2.77778-1.2431-2.77778-2.7778v-7.7778c0-.0625.00209-.1319.00625-.1944v-4.8334h-2.225c-1.252079 0-2.22569-.9791-2.22569-2.2291 0-.625.208611-1.1806.695139-1.6667l17.804861-15.51973c.4861-.48709 1.0417-.55667 1.5278-.55667s1.0416.13917 1.4653.48708l7.3958 6.50598v-2.54862c0-1.22708.993-2.22222 2.2222-2.22222h2.2222c1.2292 0 2.2223.99514 2.2223 2.22222v8.40276l3.6666 3.2292c.5556.4861.8403 1.0417.7639 1.6667 0 1.25-1.0417 2.2291-2.2222 2.2291z"/></svg>