<svg viewBox="0 0 40 40" xmlns="http://www.w3.org/2000/svg"><path clip-rule="evenodd" d="m35.5417 21.9722.0486 11.1181c0 .1944-.0139.375-.0347.5625v1.125c0 1.5347-1.2431 2.7778-2.7778 2.7778h-1.1111c-.0265 0-.0529-.0075-.0794-.015-.0499-.0142-.0999-.0283-.1498.008-.0636-.0363-.1271-.0222-.1907-.008-.0337.0075-.0673.015-.101.015h-22.24997c-.10411 0-.20821-.007-.31232-.0139-.08329.0069-.16689.0139-.25018.0139h-1.11111c-1.53403 0-2.77778-1.2431-2.77778-2.7778v-7.7778c0-.0625.00209-.1319.00625-.1944v-4.8334h-2.225c-1.252079 0-2.22569-.9791-2.22569-2.2291 0-.625.208611-1.1806.695139-1.6667l17.804861-15.51973c.4861-.48709 1.0417-.55667 1.5278-.55667s1.0416.13917 1.4653.48708l7.3958 6.50598v-2.54862c0-1.22708.993-2.22222 2.2222-2.22222h2.2222c1.2292 0 2.2223.99514 2.2223 2.22222v8.40276l3.6666 3.2292c.5556.4861.8403 1.0417.7639 1.6667 0 1.25-1.0417 2.2291-2.2222 2.2291zm-22.2599 5.8189c0-2.7251 3.9286-7.0394 6.7194-7.0394 2.7919 0 6.7194 4.3179 6.749 7.0411 0 1.2261-.9719 1.9603-2.5225 1.9603-.8919 0-1.6295-.2434-2.3301-.4745-.6336-.209-1.2368-.4081-1.8964-.4081-.6493 0-1.2454.1969-1.8744.4047-.7027.2322-1.4466.4779-2.352.4779-1.5837 0-2.5239-.7349-2.493-1.962zm-.9747-9.2447c1.0239-.2462 2.1537.545 2.5183 1.7623.3622 1.2166-.1684 2.405-1.1923 2.6512-1.0239.2461-2.1537-.5451-2.5183-1.7652-.3648-1.2166.1684-2.4022 1.1923-2.6483zm6.7096-2.2521c.4174 1.5566-.1276 2.9973-1.2131 3.283-1.09.2883-2.3066-.7208-2.7247-2.2458-.4173-1.5566.1277-2.9973 1.2131-3.283 1.0897-.2542 2.3073.6891 2.7247 2.2458zm6.1631 4.0151c.3647-1.2173 1.4944-1.9768 2.5183-1.7623.9916.2461 1.5542 1.431 1.1909 2.6501-.3692 1.2173-1.4943 1.9768-2.5182 1.7623-1.0239-.2461-1.5556-1.4325-1.191-2.6501zm-.2563-2.9779c-.4174 1.525-1.6663 2.5315-2.7247 2.2458-1.0865-.2848-1.6315-1.7581-1.2131-3.283.4174-1.525 1.6664-2.5315 2.7247-2.2458 1.0856.2855 1.6305 1.7581 1.2131 3.283z" fill-rule="evenodd"/></svg>