<svg viewBox="0 0 40 40" xmlns="http://www.w3.org/2000/svg"><path d="m19.5137 10.5293c-4.9688 0-8.9766 4.0078-8.9766 8.9766 0 4.9687 4.0078 8.9765 8.9766 8.9765 4.9687 0 8.9765-4.0078 8.9765-8.9765 0-4.9688-4.0078-8.9766-8.9765-8.9766zm0 14.8125c-3.211 0-5.836-2.6172-5.836-5.8359 0-3.2188 2.6172-5.836 5.836-5.836 3.2187 0 5.8359 2.6172 5.8359 5.836 0 3.2187-2.625 5.8359-5.8359 5.8359zm11.4375-15.1797c0 1.1641-.9375 2.0938-2.0938 2.0938-1.164 0-2.0937-.9375-2.0937-2.0938 0-1.15624.9375-2.09374 2.0937-2.09374 1.1563 0 2.0938.9375 2.0938 2.09374zm5.9453 2.125c-.1328-2.80468-.7735-5.28905-2.8281-7.33593-2.0469-2.04687-4.5313-2.6875-7.336-2.82812-2.8906-.16407-11.5547-.16407-14.4453 0-2.79687.13281-5.28124.77343-7.33593 2.82031-2.05469 2.04687-2.6875 4.53125-2.82812 7.33594-.16407 2.8906-.16407 11.5547 0 14.4453.13281 2.8047.77343 5.2891 2.82812 7.3359 2.05469 2.0469 4.53125 2.6875 7.33593 2.8282 2.8906.164 11.5547.164 14.4453 0 2.8047-.1328 5.2891-.7735 7.336-2.8282 2.0468-2.0468 2.6875-4.5312 2.8281-7.3359.164-2.8906.164-11.5469 0-14.4375zm-3.7344 17.5391c-.6094 1.5312-1.7891 2.7109-3.3281 3.3281-2.3047.9141-7.7735.7031-10.3203.7031-2.5469 0-8.0235.2031-10.32034-.7031-1.53125-.6094-2.71094-1.7891-3.32813-3.3281-.91406-2.3047-.70312-7.7735-.70312-10.3203 0-2.5469-.20313-8.0235.70312-10.32035.60938-1.53125 1.78907-2.71094 3.32813-3.32813 2.30464-.91406 7.77344-.70312 10.32034-.70312 2.5468 0 8.0234-.20313 10.3203.70312 1.5312.60938 2.7109 1.78906 3.3281 3.32813.9141 2.30465.7031 7.77345.7031 10.32035 0 2.5468.211 8.0234-.7031 10.3203z"/></svg>