<svg fill="none" height="40" viewBox="0 0 40 40" width="40" xmlns="http://www.w3.org/2000/svg"><path d="m10.8344 37.9992h-7.25628v-23.3672h7.25628zm-3.63206-26.5547c-2.32031 0-4.20234-1.92184-4.20234-4.24216 0-1.11453.44275-2.18341 1.23084-2.9715s1.85697-1.23084 2.9715-1.23084 2.18342.44275 2.97146 1.23084c.7881.78809 1.2309 1.85697 1.2309 2.9715 0 2.32032-1.88283 4.24216-4.20236 4.24216zm30.78986 26.5547h-7.2406v-11.375c0-2.7109-.0547-6.1875-3.7727-6.1875-3.7727 0-4.3508 2.9453-4.3508 5.9922v11.5703h-7.2484v-23.3672h6.9594v3.1875h.1015c.9688-1.8359 3.3352-3.7734 6.8656-3.7734 7.3438 0 8.6938 4.8359 8.6938 11.1172v12.8359z" fill="#1f2937"/></svg>