<svg viewBox="0 0 40 40" xmlns="http://www.w3.org/2000/svg"><path d="m6 10c0-2.20937 1.79375-4 4-4h26c2.2062 0 4 1.79063 4 4v14c0 2.2062-1.7938 4-4 4h-26c-2.20625 0-4-1.7938-4-4zm4 14h4c0-2.2062-1.7938-4-4-4zm0-14v4c2.2062 0 4-1.7938 4-4zm26 10c-2.2062 0-4 1.7938-4 4h4zm-4-10c0 2.2062 1.7938 4 4 4v-4zm-9 2c-2.7625 0-5 2.2375-5 5s2.2375 5 5 5 5-2.2375 5-5-2.2375-5-5-5zm-20 14.5c0 2.4875 2.015 4.5 4.5 4.5h25c.8313 0 1.5.6687 1.5 1.5s-.6687 1.5-1.5 1.5h-25c-4.14187 0-7.5-3.3562-7.5-7.5v-15c0-.8313.671875-1.5 1.5-1.5.82812 0 1.5.6687 1.5 1.5z"/></svg>