<svg fill="none" height="40" viewBox="0 0 40 40" width="40" xmlns="http://www.w3.org/2000/svg"><path d="m37.5 2h-27.5c-1.38281 0-2.5 1.11953-2.5 2.5v26.25c0 .6875-.55937 1.25-1.25 1.25s-1.25-.5625-1.25-1.25v-23.75h-2.5c-1.38047 0-2.5 1.11719-2.5 2.5v22.5c0 2.7617 2.23828 5 5 5h30c2.7617 0 5-2.2383 5-5v-27.5c0-1.38047-1.1172-2.5-2.5-2.5zm-16.25 30h-7.5c-.6875 0-1.25-.5625-1.25-1.25s.5625-1.25 1.25-1.25h7.5c.6903 0 1.25.5595 1.25 1.25 0 .6875-.5625 1.25-1.25 1.25zm0-7.5h-7.5c-.6875 0-1.25-.5625-1.25-1.25s.5625-1.25 1.25-1.25h7.5c.6875 0 1.25.5625 1.25 1.25s-.5625 1.25-1.25 1.25zm12.5 7.5h-7.5c-.6903 0-1.25-.5597-1.25-1.25 0-.6905.5597-1.25 1.25-1.25h7.5c.6903 0 1.25.5595 1.25 1.25 0 .6875-.5625 1.25-1.25 1.25zm0-7.5h-7.5c-.6875 0-1.25-.5625-1.25-1.25s.5625-1.25 1.25-1.25h7.5c.6875 0 1.25.5625 1.25 1.25s-.5625 1.25-1.25 1.25zm1.25-8.75c0 .6875-.5625 1.25-1.25 1.25h-20c-.6875 0-1.25-.5625-1.25-1.25v-7.5c0-.6875.5625-1.25 1.25-1.25h20c.6875 0 1.25.5625 1.25 1.25z" fill="#1f2937"/></svg>