<svg viewBox="0 0 40 40" xmlns="http://www.w3.org/2000/svg"><path d="m19.9996 17.0015c-6.2008 0-14.92968 9.5859-14.92968 15.6406-.06875 2.7265 2.02032 4.3593 5.53908 4.3593 3.8125 0 6.3359-1.9609 9.3906-1.9609 3.0859 0 5.6172 1.9609 9.3906 1.9609 3.4453 0 5.6047-1.6312 5.6047-4.3554-.0656-6.0508-8.7922-15.6445-14.9953-15.6445zm-11.49999-.9844c-.81015-2.7047-3.32031-4.4625-5.59531-3.9156-2.275002.5468-3.459689 3.1812-2.64922 5.8843.81016 2.711 3.32031 4.4688 5.59531 3.9219s3.45391-3.1875 2.64922-5.8906zm6.61719-1.625c2.4117-.6348 3.6227-3.836 2.6953-7.29456-.9273-3.45859-3.6328-5.55468-6.0539-4.98984-2.41171.63477-3.62265 3.83594-2.69531 7.29453.92891 3.38827 3.63201 5.63047 6.05391 4.98987zm21.9844-2.2891c-2.275-.4765-4.7852 1.211-5.5953 3.9156-.8102 2.7055.3711 5.3414 2.6461 5.8883 2.275.4766 4.775-1.2109 5.5953-3.9156.807-2.7086-.443-5.3414-2.6461-5.8883zm-12.2188 2.2891c2.3516.6347 5.1266-1.6016 6.0539-4.98987.9274-3.38828-.2832-6.66015-2.6953-7.29453-2.3515-.63477-5.1265 1.60156-6.0539 4.98984-.9297 3.38826.2813 6.66176 2.6953 7.29456z"/></svg>