<svg viewBox="0 0 40 40" xmlns="http://www.w3.org/2000/svg"><path d="m28.8461 1.29321-4.3868 4.39338 9.8604 9.85751 4.3867-4.3855c1.7248-1.72425 1.7248-4.51145 0-6.23573l-3.6228-3.62966c-1.7248-1.724281-4.5128-1.724281-6.2375 0zm-6.3321 6.00744-.7245.22045-11.3489 3.4013c-1.56723.4724-2.81158 1.6692-3.33138 3.2281l-6.977842 20.8017c-.299276.8897-.0787571 1.8817.574924 2.551l12.096998-12.0858c-.2362-.496-.3701-1.0471-.3701-1.6298 0-2.0864 1.6932-3.7792 3.7803-3.7792s3.7803 1.6928 3.7803 3.7792c0 2.0865-1.6932 3.7793-3.7803 3.7793-.5828 0-1.1341-.1339-1.6303-.3701l-12.097 12.0936c.67731.6535 1.66177.8819 2.55172.5748l20.81538-6.9759c1.5515-.5196 2.7565-1.7636 3.229-3.3304l3.4023-11.3457.2206-.7243z"/></svg>