<svg fill="none" height="40" viewBox="0 0 40 40" width="40" xmlns="http://www.w3.org/2000/svg"><path d="m11.5 9.5c0 1.9313-1.56875 3.5-3.5 3.5-1.93313 0-3.5-1.5687-3.5-3.5 0-1.93313 1.56687-3.5 3.5-3.5 1.93125 0 3.5 1.56687 3.5 3.5zm1.525 6.7688c-1.8563 1.6499-3.025 4.0562-3.025 6.7312 0 2.1437.6938 4.1125 2 5.6562v1.3438c0 1.1063-.8938 2-2 2h-4c-1.10437 0-2-.8937-2-2v-1.675c-2.365-1.125-4-3.5312-4-6.325 0-3.8687 3.13375-7 7-7h2c1.4438 0 2.8875.4688 4.025 1.2688zm-9.025 3.0874c-.6225.7-1 1.6313-1 2.6438s.3775 1.9437 1 2.6437zm24 10.6438v-1.3438c1.25-1.5437 2-3.5125 2-5.6562 0-2.675-1.1687-5.0813-3.025-6.7312 1.1375-.8 2.525-1.2688 4.025-1.2688h2c3.8688 0 7 3.1313 7 7 0 2.7938-1.6375 5.2-4 6.325v1.675c0 1.1063-.8937 2-2 2h-4c-1.1063 0-2-.8937-2-2zm8-5.3563c.5687-.7 1-1.6312 1-2.6437s-.4313-1.9438-1-2.6438zm-.5-15.1437c0 1.9313-1.5687 3.5-3.5 3.5-1.9312 0-3.5-1.5687-3.5-3.5 0-1.93313 1.5688-3.5 3.5-3.5 1.9313 0 3.5 1.56687 3.5 3.5zm-19.5.5c0-2.20937 1.7938-4 4-4s4 1.79063 4 4c0 2.2063-1.7938 4-4 4s-4-1.7937-4-4zm12 13c0 2.7938-1.6375 5.2-4 6.325v2.675c0 1.1063-.8937 2-2 2h-4c-1.1063 0-2-.8937-2-2v-2.675c-2.3625-1.125-4-3.5312-4-6.325 0-3.8687 3.1313-7 7-7h2c3.8687 0 7 3.1313 7 7zm-12 2.6437v-5.2874c-.625.7-1 1.6312-1 2.6437s.375 1.9437 1 2.6437zm8-5.2874v5.2874c.5688-.7062 1-1.6312 1-2.6437s-.4312-1.9437-1-2.6437z" fill="#1f2937"/></svg>