<svg fill="none" height="40" viewBox="0 0 40 40" width="40" xmlns="http://www.w3.org/2000/svg"><path d="m8.00008 7c0-1.65688 1.34375-3 3.00002-3 1.6562 0 3 1.34312 3 3s-1.3438 3-3 3c-1.65627 0-3.00002-1.34312-3.00002-3zm.5 29c-1.10625 0-2-.8937-2-2v-13.9438l-1.78562 2.975c-.56875.9438-1.7975 1.25-2.74438.6813-.94687-.5688-1.253122-1.7938-.68375-2.7437l3.64188-6.0563c1.08437-1.8062 3.03437-2.9125 5.14059-2.9125h8.9313v-5c0-1.65688 1.3437-2.99998 3-2.99998h14c1.6562 0 3 1.3431 3 2.99998v14c0 1.6562-1.3438 3-3 3h-14c-1.6563 0-3-1.3438-3-3v-3h4v2h12v-12h-12v4h1c1.1062 0 2 .8937 2 2s-.8938 2-2 2h-8.5v18c0 1.1063-.8938 2-2 2-1.1063 0-2-.8937-2-2v-8h-1v8c0 1.1063-.89377 2-2.00002 2z" fill="#1f2937"/></svg>