<svg fill="none" height="40" viewBox="0 0 40 40" width="40" xmlns="http://www.w3.org/2000/svg"><path d="m28 3.75c0 2.07109-1.6797 3.75-3.75 3.75s-3.75-1.67891-3.75-3.75 1.6797-3.75 3.75-3.75 3.75 1.67891 3.75 3.75zm-10.1172 11.8203c-.0703.0313-.1484.0625-.2187.0938l-.8594.3828c-1.1945.5312-2.1313 1.5-2.6156 2.7109l-.118.2969c-.5125 1.2812-1.9672 1.9062-3.2492 1.3906-1.28206-.5156-1.90549-1.9687-1.39299-3.25l.11796-.2969c.96793-2.414 2.84223-4.3593 5.22343-5.4218l.8594-.3828c1.6281-.7188 3.3156-1.0938 5.1594-1.0938 3.4843 0 6.625 2.0937 7.9609 5.3047l1.1328 2.875 1.7344.8359c1.2344.6172 1.7344 2.1172 1.1172 3.3516s-2.1172 1.7344-3.3516 1.1172l-2.0859-1.0391c-.8047-.4062-1.4375-1.0859-1.7813-1.9141l-.75-1.7968-1.5078 5.1172 3.8672 4.2265c.4219.461.7266 1.0157.875 1.625l1.7969 7.1875c.3359 1.3438-.4766 2.7032-1.8125 3.0313-1.3438.3359-2.7031-.4766-3.1016-1.8125l-1.6562-6.8906-5.5157-6.0235c-1.1562-1.2578-1.6562-3.0156-1.1484-4.6641zm-4.5133 15.5235 1.95-4.875c.168.2343.3492.4531.5477.6718l3.1797 3.4688-1.1328 2.8281c-.1875.4766-.4688.9062-.8282 1.2578l-4.8179 4.8203c-.9766.9766-2.55941.9766-3.53581 0-.97625-.9765-.97625-2.5547 0-3.5312z" fill="#1f2937"/></svg>