<svg fill="none" height="40" viewBox="0 0 40 40" width="40" xmlns="http://www.w3.org/2000/svg" xmlns:xlink="http://www.w3.org/1999/xlink"><clipPath id="a"><path d="m0 0h40v40h-40z"/></clipPath><g clip-path="url(#a)"><path d="m39.9375 30.2343-1.8164 7.875c-.2552 1.1133-1.2336 1.8922-2.3797 1.8922-19.7102-.0015-35.7414-16.0328-35.7414-35.74372 0-1.14531.778828-2.125 1.89219-2.3789l7.875-1.8164084c1.14691-.2657816 2.31871.3295314 2.79531 1.4156284l3.6344 8.47656c.4248.99844.1383 2.16174-.7016 2.84764l-4.2062 3.3774c2.6547 5.4078 7.0515 9.8046 12.4609 12.4609l3.4437-4.2031c.6788-.8422 1.8508-1.1336 2.8493-.7012l8.4765 3.6336c1.0196.5363 1.6836 1.7238 1.418 2.8644z" fill="#1f2937"/></g></svg>