<svg viewBox="0 0 40 40" xmlns="http://www.w3.org/2000/svg"><path d="m10.5 7c-4.14219 0-7.5 3.2891-7.5 7.5s3.35781 7.5 7.5 7.5c.8813 0 1.7148-.1801 2.5-.4593v.4593c0 2.7578-2.2422 5-5 5-1.38047 0-2.5 1.1195-2.5 2.5s1.11953 2.5 2.5 2.5c5.5141 0 10-4.4859 10-10v-7.5c0-4.2109-3.3594-7.5-7.5-7.5zm27.5 7.5c0-4.1422-3.3578-7.5-7.5-7.5s-7.5 3.3578-7.5 7.5 3.3578 7.5 7.5 7.5c.8813 0 1.7148-.1801 2.5-.4593v.4593c0 2.7578-2.2422 5-5 5-1.3805 0-2.5 1.1195-2.5 2.5s1.1195 2.5 2.5 2.5c5.5141 0 10-4.4859 10-10z"/></svg>