<svg fill="none" height="40" viewBox="0 0 40 40" width="40" xmlns="http://www.w3.org/2000/svg"><path d="m33.9429 6.79072c0-1.01032-.1492-2.01407-.3565-3.00188-.2524-1.19793-.7692-2.67635-1.8011-3.410872-1.0648-.758911-2.4437-.296435-3.1614.690432-.105.14446-.3255.49062-.3733.65666-.0254.10788-.0357.17073 0 .28142.0553.19794 1.0178 1.32739 1.2223 1.59475l1.0882 1.59474c.1426.22702.4165.72983.6032.88368.2429.19887.6904.22232.9962.28424zm-9.9437 33.20818v-2.1576c-.0019-1.3011-.6173-2.0572-1.97-2.0638h-3.4709c-.6623-.0009-1.2336-.0788-1.5657-.7504-.1867-.3799-.0976-.9738-.1388-1.4072-.1239-1.2973-.1708-2.7523-.7702-3.9399-.4709-.9334-1.1801-1.394-2.2158-1.4071-.5947-.0066-1.1801.0844-1.6707-.334-.8921-.7589-.2608-1.9006.9203-1.9174.7579-.0104 1.2242-.0244 1.97.1801 1.6979.4653 2.7542 1.7861 3.3358 3.3846.3152.8649.4681 1.8086.5778 2.7204.0301.2533-.0103.9025.122 1.0694.1473.1858.5328.1501.7486.1501h1.6885l-.3564-1.9699c-.0648-.3349-.2027-.895-.1229-1.2196.1529-.6228.9484-1.2617 1.6951-.6303.4841.409.4897.8058.5901 1.3808l.4821 2.6173c.1276.364.5985.5553.9015.8039.3771.3096.7383.7552.9878 1.1754.7139 1.2064.5132 2.9419.5132 4.3152h5.4409c.2767 0 .5909.0197.8424-.1097.9249-.4766.7185-2.3133.5375-3.1736-.4081-1.9399-2.0347-3.2654-4.0066-3.2833l-.9268-4.1275c-.1023-.4456-.3959-1.6726-.3771-2.0638.0478-.9785.9915-2.8105 1.4109-3.7524l.6407-1.5947c.076-.2402.1613-.7186.3367-.8818.1642-.1539.395-.1454.6042-.1501 1.6782-.031 2.9212.1567 4.5028-.6867 1.2917-.6895 2.106-1.6773 2.7429-2.9718.2796-.5676.5573-1.2346.5366-1.8762-.0459-1.3893-1.4381-3.6567-2.4362-4.5807-1.1051-1.02249-2.3855-1.72324-3.8452-2.09003-.3987-.09944-1.1885-.23452-1.5947-.26267-.3331-.02345-.6229.04222-.879-.22514l-1.1304-1.94089c-.9278-1.48874-2.2918-3.21857-3.713-4.24578-.757-.5469-1.4784-.984048-2.439-1.006562-1.1369-.025328-2.0131.500942-2.2364 1.687612v1.0319c-.0122 1.92213 1.2224 4.24483 2.2693 5.81612l1.4033 1.96994c.0816.2683-.0713.5854-.1491.8443-.1379.4616-.2383.9306-.3087 1.4071-.0581.3884-.1097 1.8021-.2842 2.0141-.1914.2345-.8687.53-1.1632.6858l-2.3452 1.1857c-1.8452.803-3.1276 1.3283-5.0657 1.9287-2.2476.6951-4.0985.9765-5.90992 2.7261-.98875.9559-1.39494 1.879-1.94841 3.0919-1.49999 3.287-1.96059 7.5563-.32551 10.8818.54596 1.1116.88367 1.667 1.68761 2.6266.31426.3743.77298.8903 1.24297 1.0582.22514.0797.51219.0675.75046.0675zm5.9099-27.4136c1.5816.2336 1.2082 2.2814-.1876 2.1679-1.2561-.1032-1.379-2.076.1876-2.1679zm-26.73543 19.0647c0-2.3162.34616-4.0207 1.16511-6.1914l.73545-1.6885.53846-1.1257c-1.3893.1838-2.61631.6435-3.53564 1.7823-1.392115 1.7861-1.479357 4.4981 0 6.2852.32646.424.59006.7092 1.09662.9381z" fill="#1f2937"/></svg>