<svg viewBox="0 0 40 40" xmlns="http://www.w3.org/2000/svg"><path d="m6.47955 27.9095c0 1.3258-.43003 2.8469.58308 3.9351.76147.8178 1.60088.7596 2.60929.7596 1.23658 0 2.38578.1521 3.18298-1.0328.8028-1.1944.3812-1.9605.1033-3.1924 3.3435 0 6.7321-.4469 9.8588-1.6901l-.0939 1.5023v1.8779c.0065.5568.1042 1.0394.4356 1.5023.8169 1.1436 1.8093 1.0328 3.0384 1.0328 1.3558 0 2.6516.1296 3.3802-1.3145.5352-1.0591.1164-2.445-.0705-3.568-.3361-2.0121-.43-3.6946 1.0263-5.3519.7981-.9079 2.0102-1.7896 2.9877-2.5229l4.0374-2.9623c.4967-.3549 2.1004-1.3915 2.3313-1.8394.109-.2131.1061-.4253.1099-.6563.0235-1.7793-.6441-4.0008-1.9802-5.22982-1.9577-1.80181-5.642-1.36333-7.503.35585-.7455.68827-1.0601 1.24687-1.4732 2.15107-.1559.3399-.3465.7465-.2723 1.1267l.5897 1.3145c.2807.6329.5061 1.3014.6741 1.9718.1108.4385.2836.8798.0639 1.3136-.2104.4122-.7061.6901-1.0845.9398l-2.8168 1.6695c-3.5914 1.9069-7.2138 3.212-11.2672 3.6965l-2.0656.1737h-2.2534l-1.12677-.0939h-.84504l-2.91068-.3079-4.1313-.6441c-.49388-.0282-1.260047.4206-1.486329.86-.11079405.215-.11924443.5108-.10609939.7493.05164119.8995.81780939 1.0319 1.49853839 1.3436 1.29854.5943 3.65244 2.0112 4.97633 2.1304zm10.98545-19.06027h-1.1267c-1.4149.00188-3.1191.35398-4.4129.92579-.3127.13802-1.1315.48638-1.2592.79528-.1126.2704.1587 1.414.2263 1.753.0629.3155.2113 1.4084.4282 1.5811.1896.1503 1.1586.2695 1.4497.3202.4347.0751 1.7117.3765 2.0656.323.3794-.0573 1.4976-.7943 1.8779-1.0338.2901-.1821 1.2356-.6751 1.3539-.9445.109-.2451-.0422-.8216-.0957-1.0911zm2.3474.28168.4131 2.34729.323 1.3145 1.0751 1.5023 2.9773 4.0374c.6169-.2262 1.7633-.8985 2.3474-1.26.2187-.1362.6976-.3925.7802-.6375.0695-.2057-.0563-.5315-.123-.7315-.1915-.568-.5427-1.2647-.846-1.7839-1.5361-2.6234-4.0045-4.19613-6.9471-4.78859zm13.8962 2.86469c1.4919.1098 1.5013 2.0159.1877 2.1839-1.3736.1756-1.7811-1.8938-.1877-2.1839zm-29.95195 8.9658 3.28626.3756 1.4084-4.413.62063-2.0656-.43285-2.7229c-.68448.3239-1.39149 1.3474-1.83748 1.9717-1.13236 1.584-2.75013 4.936-3.04496 6.8542zm12.48775-4.6007.5634 4.7885c1.9764-.3718 3.8646-1.0394 5.7275-1.7839-.1953-.5878-.738-1.1878-1.1145-1.6901l-2.1718-3.0046c-.6619.1343-2.3605 1.2694-3.0046 1.6901zm-5.258-.1878-1.69005 5.3519 3.66185.0939 1.5962-.0939-.4695-4.7885z"/></svg>