<svg viewBox="0 0 40 40" xmlns="http://www.w3.org/2000/svg"><path d="m35.8883 12.0964c.0254.3553.0254.7107.0254 1.066 0 10.8375-8.2487 23.3249-23.3249 23.3249-4.64466 0-8.95935-1.3453-12.5888-3.6802.659922.0761 1.29437.1015 1.97969.1015 3.83242 0 7.36039-1.2944 10.17761-3.5025-3.60402-.0762-6.62433-2.4366-7.66496-5.6853.50766.0761 1.01524.1269 1.54829.1269.73601 0 1.4721-.1016 2.15734-.2792-3.75633-.7615-6.57367-4.0609-6.57367-8.0457v-.1015c1.09133.6092 2.36047.9899 3.70554 1.0406-2.20812-1.4721-3.65476-3.9848-3.65476-6.82745 0-1.52281.40601-2.91875 1.11672-4.13703 4.03554 4.97458 10.1016 8.22328 16.9035 8.57868-.1269-.6091-.203-1.2436-.203-1.8781 0-4.51784 3.6548-8.198 8.1979-8.198 2.3604 0 4.4924.98984 5.9899 2.58883 1.8527-.35531 3.6294-1.04063 5.203-1.97969-.6092 1.90359-1.9036 3.50258-3.604 4.51773 1.6497-.17757 3.2487-.63453 4.7207-1.26898-1.1165 1.6243-2.5125 3.07091-4.1115 4.23851z"/></svg>