<svg viewBox="0 0 40 40" xmlns="http://www.w3.org/2000/svg" xmlns:xlink="http://www.w3.org/1999/xlink"><clipPath id="a"><path d="m0 0h40v40h-40z"/></clipPath><g clip-path="url(#a)"><path d="m19.3278 11.6245c.2421.9844.25 2.0156.039 3.0078-.2187.9297-.664 1.9297-1.289 2.7266-1.1329 1.2891-2.5469 2.1094-4.2579 2.5v17.0234c0 .8282-.2578 1.625-.8437 2.211-.5859.5859-1.3828.914-2.2813.914-.75777 0-1.55308-.3281-2.1398-.914-.58594-.586-.98516-1.3828-.98516-2.211v-17.0234c-1.57343-.3125-3.05781-1.1875-4.125-2.4766-.63359-.7968-1.07586-1.7265-1.29258-2.7265-.21671-1-.20207-2.0313.04282-3.0235l2.35992-10.652317c.06641-.300937.24219-.56664.49297-.746094.25-.1795308.55859-.2601323.86484-.22635889.30703.03340629.59141.17971889.79766.41065589.20625.23086.31875.529766.31719.839144v11.24997h1.35703l1.33515-11.569504c.03125-.25586.15469-.491328.34996-.662188.1875-.170781.4375-.2651482.625-.2651482.3282 0 .5782.0943672.7657.2651482.1953.17086.25.406328.3515.662188l1.336 11.569504h1.2968v-11.24997c0-.307034.1797-.604066.3125-.834612.2735-.230547.5547-.3783598.8594-.41518789.3047-.03350001.5469.04815629.8672.22917189.25.181016.4219.448516.4922.751094zm17.6875 25.2578c0 .8282-.3282 1.625-.9141 2.211-.5859.5859-1.3828.914-2.2109.914-.8282 0-1.625-.3281-2.211-.914-.5859-.586-.914-1.3828-.914-2.211v-9.375h-1.3125c-.6563 0-1.3125-.1328-1.9219-.3828-.6016-.2578-1.1563-.625-1.625-1.0937-.461-.4688-.8281-1.0235-1.1485-1.6328-.1796-.6094-.3046-1.2657-.3046-1.9219l-.0079-8.8906c.0704-2.8829.9375-5.70317 2.5547-8.08755 1.6172-2.38828 3.9063-4.23672 6.586-5.307889.3125-.1514059.789-.2077496 1.1953-.1640543.4062.0436797.7969.1860073 1.1328.4146013s.6172.53625.8047.897192c.1953.36015.2265.76171.2969 1.16953z"/></g></svg>