<svg viewBox="0 0 40 40" xmlns="http://www.w3.org/2000/svg"><path d="m33.5 13.75c0-7.59375-6.1562-13.75-13.75-13.75s-13.75 6.15625-13.75 13.75c0 6.7391 4.8516 12.3359 11.25 13.4453v2.7383h-3.75c-.6903 0-1.25.5595-1.25 1.25v2.5c0 .6903.5597 1.25 1.25 1.25h3.75v3.75c0 .6903.5597 1.25 1.25 1.25h2.5c.6905 0 1.25-.5597 1.25-1.25v-3.75h3.75c.6905 0 1.25-.5597 1.25-1.25v-2.5c0-.6905-.5595-1.25-1.25-1.25h-3.75v-2.7383c6.3984-1.1094 11.25-6.7031 11.25-13.4453zm-13.75 7.5c-4.1352 0-7.5-3.3648-7.5-7.5 0-4.13594 3.3648-7.5 7.5-7.5 4.1359 0 7.5 3.36406 7.5 7.5 0 4.1328-3.3672 7.5-7.5 7.5z"/></svg>