<svg viewBox="0 0 40 40" xmlns="http://www.w3.org/2000/svg"><g><path clip-rule="evenodd" d="m22.0833 5.41659c0-1.15235-.931-2.08334-2.0834-2.08334-1.1523 0-2.0833.93099-2.0833 2.08334v.74869c0 3.2487-3.9258 4.87632-6.2239 2.57813l-.5339-.52735c-.8138-.8138-2.12891-.8138-2.94271 0-.05249.05249-.10159.10708-.1473.16352l-5.36464-4.26733c-.72037-.57302-1.768859-.45357-2.341876.2668-.573017.72036-.4535687 1.76885.266796 2.34187l36.66663 29.16668c.7204.573 1.7689.4536 2.3419-.2668s.4536-1.7689-.2668-2.3419l-9.1767-7.2997c-.122-1.9525 1.3612-3.8959 3.647-3.8959h.7422c1.1523 0 2.0833-.931 2.0833-2.0834 0-1.1523-.931-2.0833-2.0833-2.0833h-.7487c-3.2487 0-4.8763-3.9258-2.5781-6.224l.5338-.5338c.8138-.8138.8138-2.13544 0-2.94925-.8138-.8138-2.1354-.8138-2.9492 0l-.5339.53386c-2.2981 2.29819-6.2239.67057-6.2239-2.57813zm-1.1249 13.21611c.0552-.2341.0832-.4744.0832-.7161 0-.4104-.0808-.8168-.2379-1.1959-.157-.3791-.3872-.7236-.6774-1.0138s-.6347-.5204-1.0138-.6774c-.3791-.1571-.7855-.2379-1.1959-.2379s-.8167.0808-1.1959.2379c-.063.0261-.1251.0542-.1861.0843z" fill-rule="evenodd"/><path d="m6.16531 17.9166c.90857 0 1.69034-.3071 2.29505-.7996l16.52684 13.1464c-1.566.3371-2.8974 1.6792-2.8974 3.5712v.7487c0 1.1523-.931 2.0833-2.0833 2.0833-1.1524 0-2.0834-.931-2.0834-2.0833v-.7487c0-3.2487-3.9258-4.8763-6.2239-2.5782l-.5339.5339c-.8138.8138-2.13541.8138-2.94921 0s-.8138-2.1354 0-2.9492l.52734-.5339c2.29817-2.2982.67057-6.2239-2.57812-6.2239h-.7487c-1.15234 0-2.08333-.931-2.08333-2.0834 0-1.1523.93099-2.0833 2.08333-2.0833z"/></g></svg>