<svg viewBox="0 0 40 40" xmlns="http://www.w3.org/2000/svg"><path d="m22.0833 5.41659c0-1.15235-.931-2.08334-2.0834-2.08334-1.1523 0-2.0833.93099-2.0833 2.08334v.74869c0 3.2487-3.9258 4.87632-6.224 2.57813l-.5338-.52735c-.8138-.8138-2.12893-.8138-2.94274 0-.8138.81381-.8138 2.13544 0 2.94924l.53386.5338c2.29168 2.2917.66406 6.2175-2.58464 6.2175h-.74869c-1.15235 0-2.08334.931-2.08334 2.0833 0 1.1524.93099 2.0834 2.08334 2.0834h.74869c3.2487 0 4.87632 3.9257 2.57813 6.2239l-.52735.5339c-.8138.8138-.8138 2.1354 0 2.9492.81381.8138 2.13544.8138 2.94924 0l.5338-.5339c2.2982-2.2981 6.224-.6705 6.224 2.5782v.7487c0 1.1523.931 2.0833 2.0833 2.0833 1.1524 0 2.0834-.931 2.0834-2.0833v-.7487c0-3.2487 3.9257-4.8763 6.2239-2.5782l.5339.5339c.8138.8138 2.1354.8138 2.9492 0s.8138-2.1354 0-2.9492l-.5339-.5339c-2.2981-2.2982-.6705-6.2239 2.5782-6.2239h.7422c1.1523 0 2.0833-.931 2.0833-2.0834 0-1.1523-.931-2.0833-2.0833-2.0833h-.7487c-3.2487 0-4.8763-3.9258-2.5782-6.224l.5339-.5338c.8138-.8138.8138-2.13544 0-2.94925-.8138-.8138-2.1354-.8138-2.9492 0l-.5339.53386c-2.2982 2.29819-6.2239.67057-6.2239-2.57813zm-7.2917 12.50001c0-.4104.0808-.8168.2379-1.1959.157-.3791.3872-.7236.6774-1.0138s.6347-.5204 1.0138-.6774c.3791-.1571.7855-.2379 1.1959-.2379s.8167.0808 1.1959.2379c.3791.157.7236.3872 1.0138.6774s.5204.6347.6774 1.0138c.1571.3791.2379.7855.2379 1.1959s-.0808.8167-.2379 1.1959c-.157.3791-.3872.7236-.6774 1.0138s-.6347.5204-1.0138.6774c-.3792.1571-.7855.2379-1.1959.2379s-.8168-.0808-1.1959-.2379c-.3791-.157-.7236-.3872-1.0138-.6774s-.5204-.6347-.6774-1.0138c-.1571-.3792-.2379-.7855-.2379-1.1959zm8.3333 3.6458c.4144 0 .8118.1646 1.1049.4577.293.293.4576.6904.4576 1.1048s-.1646.8118-.4576 1.1049c-.2931.293-.6905.4576-1.1049.4576s-.8118-.1646-1.1048-.4576c-.2931-.2931-.4577-.6905-.4577-1.1049s.1646-.8118.4577-1.1048c.293-.2931.6904-.4577 1.1048-.4577z"/></svg>