<svg fill="none" height="1024" viewBox="0 0 1024 1024" width="1024" xmlns="http://www.w3.org/2000/svg" xmlns:xlink="http://www.w3.org/1999/xlink"><clipPath id="a"><path d="m0 0h40v40h-40z" transform="matrix(.90630779 -.42261826 .42261826 .90630779 549.421 54.3262)"/></clipPath><clipPath id="b"><path d="m0 0h40v40h-40z" transform="matrix(.90630779 -.42261826 .42261826 .90630779 805.422 310.326)"/></clipPath><clipPath id="c"><path d="m684 556h40v39.9985h-40z"/></clipPath><clipPath id="d"><path d="m0 0h40v40h-40z" transform="matrix(.70710678 -.70710678 .70710678 .70710678 291.716 448)"/></clipPath><clipPath id="e"><path d="m0 0h40v40h-40z" transform="matrix(.93969262 .34202014 -.34202014 .93969262 948.047 806.366)"/></clipPath><g clip-path="url(#a)"><path d="m574.735 61.2812c-5.621 2.621-9.482 14.9984-6.923 20.4858 1.09 2.5001 3.674 3.097 6.863 1.6096 3.456-1.6114 4.915-4.4553 7.684-5.7464 2.797-1.3044 5.92-.5971 9.341-2.1921 3.123-1.4563 4.391-3.8474 3.239-6.3164-2.616-5.4561-14.581-10.4624-20.204-7.8405zm-10.84 3.9687c-1.877-2.1088-4.896-2.6409-6.727-1.1837-1.831 1.4573-1.791 4.3456.086 6.4529 1.88 2.1145 4.898 2.6466 6.729 1.1893 1.831-1.4572 1.784-4.3487-.088-6.4585zm5.311-4.2697c1.918-1.5947 1.663-5.0078-.639-7.7504-2.303-2.7425-5.641-3.4987-7.597-1.9634-1.917 1.5947-1.662 5.0078.64 7.7504 2.274 2.6781 5.672 3.5677 7.596 1.9634zm18.961-11.367c-2.264.5297-3.826 3.1201-3.417 5.9138.409 2.7944 2.593 4.6841 4.887 4.2181 2.263-.5297 3.816-3.1158 3.417-5.9138-.413-2.7959-2.659-4.6537-4.887-4.2181zm-10.109 7.2392c2.4-.4186 3.971-3.6184 3.379-7.0812-.591-3.4628-3.071-5.9164-5.526-5.4718-2.4.4187-3.97 3.6184-3.379 7.0812.59 3.4638 3.071 5.9187 5.526 5.4718z" fill="#e8eff3"/></g><path d="m194.703 697.5c-1.578 0-8.344.156-12.703 6.719v-6.719c0-4.141-3.359-7.5-7.5-7.5-1.377 0-2.5 1.125-2.5 2.5s1.123 2.5 2.5 2.5 2.5 1.123 2.5 2.5v20c0 2.754 2.246 5 5 5h13.75c.693 0 1.25-.557 1.25-1.18v-1.32c0-1.377-1.123-2.5-2.5-2.5h-2.5l10-7.5v11.25c0 .693.557 1.25 1.25 1.25h2.5c.693 0 1.25-.557 1.25-1.25v-16.102c-.801.206-1.631.352-2.5.352-4.828 0-8.867-3.438-9.797-8zm12.297-7.5h-5l-5-5v10.5c0 4.141 3.359 7.43 7.5 7.43s7.5-3.289 7.5-7.43v-10.5zm-5.625 6.25c-.693 0-1.25-.557-1.25-1.25s.557-1.25 1.25-1.25 1.25.557 1.25 1.25-.555 1.25-1.25 1.25zm6.25 0c-.693 0-1.25-.557-1.25-1.25s.557-1.25 1.25-1.25 1.25.557 1.25 1.25-.555 1.25-1.25 1.25z" fill="#e8eff3"/><path d="m67.1044 175.601c.1319-.796.8194-1.379 1.625-1.379.5208 0 1.0069.245 1.3194.66l1.1736 1.563h3.618c.8819 0 1.7361.351 2.3611.976l1.243 1.246h3.8889c.9236 0 1.6666.746 1.6666 1.666v1.667c0 3.069-2.4861 5.556-5.5555 5.556h-4.8124l-.3542 2.118-7.7777-4.445zm8.0068 3.066c-.6111 0-1.1111.497-1.1111 1.111s.5 1.111 1.1111 1.111 1.1111-.497 1.1111-1.111-.5-1.111-1.1111-1.111zm-2.2222 13.34v15.548c0 1.229-.993 2.223-2.2222 2.223h-2.2222c-1.2291 0-2.2222-.994-2.2222-2.223v-8c-1.7291.855-3.5555 1.334-5.5554 1.334-2 0-3.8889-.479-5.5555-1.334v8c0 1.229-.9931 2.223-2.2222 2.223h-2.2222c-1.2271 0-2.2222-.994-2.2222-2.223v-15.986c-1.9979-.757-3.5666-2.451-4.1086-4.618l-.2694-1.076c-.2977-1.194.4262-2.403 1.6169-2.757 1.1903-.236 2.3972.486 2.6951 1.674l.2695 1.083c.2472.986 1.1361 1.618 2.1555 1.618h14.2936z" fill="#e8eff3"/><g clip-path="url(#b)"><path d="m831.214 307.664c3.572-1.361 7.18-1.281 10.214-.642 3.33.7 6.135 2.097 7.769 3.236.652.462 1.01 1.23.945 2.026-.178 1.984-.911 5.03-2.515 8.031-1.461 2.735-3.719 5.55-7.057 7.413l-3.176 5.941c-.432.815-1.324 1.269-2.241 1.16-.913-.118-1.662-.788-1.88-1.683l-.816-3.343c-1.535.026-2.9-.173-4.273-.421-1.25-.299-2.526-.654-3.576-1.114l-4.265 6.149c-.573.827-1.63 1.166-2.576.826-.947-.34-1.547-1.271-1.464-2.275l.53-6.385-5.232-3.698c-.822-.582-1.15-1.64-.802-2.584s1.287-1.535 2.288-1.442l7.453.685c.322-1.1.87-2.306 1.446-3.455.691-1.212 1.416-2.385 2.424-3.545l-2.038-2.775c-.545-.743-.576-1.745-.079-2.519.504-.777 1.427-1.163 2.328-.973zm7.717 6.163c-1.115.519-1.595 1.839-1.075 2.953.519 1.114 1.839 1.594 2.953 1.075 1.114-.52 1.594-1.839 1.075-2.953-.52-1.114-1.839-1.595-2.953-1.075z" fill="#e8eff3"/></g><g clip-path="url(#c)"><path d="m720.496 574.836-9.046 3.664h7.357c-.602 1.16-1.271 2.287-2.018 3.36l-10.333 4.14h6.68c-4.628 4.118-11.238 6.276-20.628 4.126l-5.313 5.323c-.731.733-1.915.732-2.647 0-.731-.732-.731-1.919 0-2.652l19.762-19.796c.378-.491.362-1.187-.087-1.637-.487-.488-1.277-.488-1.764 0l-13.148 13.172c-3.327-24.005 23.371-27.902 32.105-28.53 1.472-.105 2.684 1.109 2.578 2.582-.254 3.547-1.049 10.052-3.498 16.248z" fill="#e8eff3"/></g><g clip-path="url(#d)"><path d="m334.918 454.694c1.347 1.414 1.772 3.475 1.102 5.316l-.104.286c-.844 2.32-3.156 3.902-5.603 3.568-2.688-.367-4.565-2.676-4.494-5.267 0-.008 0-.015 0-.023.042-1.25-.705-2.386-1.88-2.814l-13.521-4.921c-1.167-.425-2.469-.044-3.238.932l-.024.031c-1.611 2.031-4.534 2.592-6.829 1.146-2.088-1.317-2.842-4.015-1.999-6.332l.104-.286c.67-1.841 2.319-3.148 4.264-3.364.725-.087 1.045-.968.546-1.501-1.351-1.415-1.776-3.469-1.104-5.316l.104-.287c.845-2.32 3.156-3.903 5.603-3.569 2.688.368 4.565 2.683 4.494 5.274-.037 1.254.705 2.404 1.879 2.831l13.522 4.921c1.167.425 2.469.044 3.238-.932l.024-.031c1.611-2.03 4.533-2.592 6.829-1.146 2.088 1.317 2.842 4.016 1.999 6.333l-.104.286c-.673 1.847-2.321 3.147-4.262 3.364-.728.09-1.048.971-.546 1.501z" fill="#e8eff3"/></g><path d="m447.5 953.065v-2.195c-2.207-2.842-3.682-6.195-4.228-9.781-.17-1.055-1.49-1.478-2.17-.658-1.719 1.944-2.945 4.236-3.82 6.765 2.672 2.986 6.25 5.049 10.218 5.869zm8.75-8.065c-3.457 0-6.179 2.799-6.179 6.257v4.643c-8.156-.488-15.078-5.504-18.203-12.632-.502-.98-1.886-1.032-2.336-.075-1.299 2.744-2.031 5.81-2.031 9.044 0 5.528 2.665 10.695 6.649 14.524 1.025.996 2.042 1.817 3.038 2.56l-11.241 2.807c-.84.215-1.211 1.179-.742 1.911 1.358 2.1 4.72 5.668 11.969 5.961.625.019 1.249-.206 1.728-.616l5.096-4.385 6.003.005c6.905 0 12.5-5.585 12.5-12.492v-12.516l2.43-4.999zm0 7.511c-.683 0-1.25-.568-1.25-1.251 0-.694.567-1.254 1.25-1.254.684 0 1.25.557 1.25 1.251 0 .683-.562 1.254-1.25 1.254z" fill="#e8eff3"/><g clip-path="url(#e)"><path d="m949.792 818.77c.036.013.074.026.11.04 1.43-2.337 4.353-3.424 7.027-2.451.974.355 1.838.99 2.543 1.806 1.565-1.441 3.865-1.977 6-1.2s3.552 2.667 3.825 4.776c1.002-.194 2.073-.126 3.109.252 2.674.973 4.152 3.662 3.808 6.393.034.013.076.028.11.041 2.439.887 3.701 3.592 2.813 6.031-.294.809-.783 1.484-1.399 1.995l-34.191-12.445c-.14-.786-.081-1.617.213-2.426.888-2.439 3.589-3.701 6.032-2.812zm-9.436 8.725c.38-1.043 1.538-1.584 2.584-1.203l33.8 12.302c1.043.379 1.584 1.539 1.204 2.582-1.833 5.037-6.665 8.122-11.748 7.962-.017.197-.06.401-.13.594-.445 1.223-1.793 1.852-3.016 1.407l-17.688-6.438c-1.223-.446-1.852-1.793-1.407-3.016.071-.194.169-.377.283-.539-3.997-3.145-5.715-8.614-3.882-13.651z" fill="#e8eff3"/></g></svg>