<svg xmlns="http://www.w3.org/2000/svg" width="1em" height="1em" viewBox="0 0 600 600" fill="#0078BF"><path d="M292 464c3.38 8.1 5.07 25.72 6.28 35l4.81 53 .91 17 2-22v-27l-1-23-2-29 13.89 23c3.28 4.37 7.07 9.18 11.11 12.83 3.26 2.94 7.83 5.64 10.16 9.21 1.5 2.29 4.14 9.97 5.26 12.96 5.66 15.01 8.58 25.87 8.58 42l53-5.73c47.48-6.84 97.8-18.72 138-45.94 15.91-10.77 28.86-24.46 38.14-41.33 1.65-3.01 7.46-16 7.22-18.91-.27-3.28-4-5.08-6.36-6.85-4.4-3.29-8.5-7.02-12-11.25-14.34-17.39-27.96-36.14-38.69-55.99-5.39-9.96-9.92-19.91-12.42-31l-2.17-20-5.6-28-14.45-50L486 220c15.23 19.73 34.83 59.17 43.31 83l16 49c6.56 14.31 16.68 26.1 29.69 34.97 4.82 3.29 10.24 6.86 16 8.03-.8-3-1.7-8.59-2.98-11l-13.01-16c-5.48-7.01-13.53-19.89-17.15-28-7.24-16.21-10.9-27.81-14.98-45-5.02-21.2-4.56-29.47-16.31-50-7.44-13-18.62-28.06-30.57-37.1-10.89-8.24-23.47-11.84-42-26.57-18.41-14.63-28.55-30.18-36-36.33 9.19 23.1 12.52 52.26 15.16 77l2.84 26v9l2 22 2 46c-6.72-6.17-25.9-20.9-34-24l10.58 15c9.61 15.42 20.04 37.18 27.27 54 6.77 15.76 12.12 25.31 12.15 43 .02 14.17-1.09 25.2-4.63 39-5.12 19.99-17.28 43.36-37.37 51.55-8.62 3.51-12.97 3.55-22 3.45-8.78-.11-16.95-2.95-25-6.2-44.05-17.76-64-68.21-64-112.8l-9.81 27c-9.34 24.11-24.93 57.3-46.19 72.57-4.52 3.25-9.74 6.45-15 8.34-27.15 9.74-46.86-8.98-66-25.63-17.17-14.94-30.71-27.88-31-52.28-.19-16.35 4.41-33.08 13.06-47l20.52-27c10.4-14.73 26.68-45.3 29.42-63l-7.42 10c-6.62 8.52-14.25 16.16-22.58 23 6.34-33.69 15.24-67.07 24.71-100L207 166c-6.72 2.87-12.85 8.88-18 14-10.68 10.63-17.3 18.25-25.41 31-16.66 26.17-31.37 63.91-44.01 93l-16.84 35L96 352c10.76-5.77 21.91-22.56 28.42-33 16.07-25.76 33.61-63.25 43.58-92 1.8 6.32 1.08 25.42 1 33-.28 23.43-8.49 59.89-20.45 80l-22.11 29c-10.47 14.93-17.41 32.64-17.44 51-.01 8.64.76 15.79 3.7 24 2.72 7.63 8 11.69 3.34 20-3.16 5.62-9.63 10.81-15.04 14.19-10.68 6.66-32.45 15.99-45 16.72-19.09 1.11-26.92-15.36-27-31.91-.08-17.69 2.93-35.39 9.19-52l29.12-67 17.23-38 10.34-42c5.74-21.83 14.44-42.53 23.81-63 5.11-11.15 13.03-29.46 19.75-39 15.4-21.88 39.49-35.96 66.56-35.86h18c4.13.69 10.42 2.72 14 2.47l18-4c11.62-2.19 30.32-4.55 42-4.61 17.02-.08 34.14.93 51 3.43l28 5.18 27-6.96c16.85-3.87 29.81-6.1 47-7.82l18-1.83c-3.69-11.67-22.13-34.12-31-43-25.79-25.82-57.84-39.19-94-42.08L333 26h-26c-29.91.05-67.96 11.08-93 27.34-47.49 30.85-77.17 81.27-100.31 131.66L56.22 311c-12.8 27.1-24.4 54.55-33.89 83-5.22 15.67-12.14 41.7-12.33 58-.19 16.61-.62 29.08 5.61 45 11.01 28.12 35.11 43.69 62.39 53.68 39.7 14.55 96.69 20.25 139 20.32l15 1h29c2.51-.01 7.17.54 8.2-2.31.71-1.5.01-4.95 0-6.69l-1.2-17v-43c.02-12.31 2.69-9.77 11.83-20 4.59-5.15 9.78-12.53 12.17-19zm-24-297.47c-23.09 6.88-33.76 38.62-30.08 60.47 2.54 15.1 11.33 30.28 29.08 26.48 24.18-5.16 34.22-38.93 31.13-60.48-2.43-16.89-11.6-29.5-30.13-26.47zm84 0c-20.53 6.07-30.91 30.51-31 50.47-.08 17.36 7.68 41.59 30 36.47 19.47-4.47 30.91-30.1 31-48.47v-6c-.03-18.37-8.9-35.92-30-32.47zm-77 26.89c12.21.04 15.95 10 16 20.58.05 11.21-4.95 28.58-18 30.78-11.69 1.96-17.49-7.34-17.96-17.78-.62-13.79 4.75-30.46 19.96-33.58zm84 0c9.53.16 13.97 6.91 15.54 15.58 2.48 13.76-5.4 37.37-22.54 35.89-10.27-.88-14.47-12.93-13.82-21.89.93-12.78 7.1-26.79 20.82-29.58zM486 219v1l-1-1h1zm-208 85.42c-8.63 1.23-21.88 1.55-27.27 9.62-3.93 5.91-1.44 15.93 1.14 21.96 6.75 15.72 24.1 33.23 42.13 33.96 26.79 1.08 48.38-17.74 48.99-44.96.27-12.3-5.97-15.17-16.99-17.87-11.74-2.87-36.02-4.16-48-2.71z"/></svg>