<svg fill="none" height="40" viewBox="0 0 40 40" width="40" xmlns="http://www.w3.org/2000/svg"><path d="m6.0332 20.002 10.7344-10.73442c.9765-.97656.9765-2.5586 0-3.53516-.9766-.97656-2.5586-.97656-3.5352 0l-12.499978 12.49998c-.976563.9766-.976563 2.5586 0 3.5352l12.499978 12.5c.4844.4922 1.125.7344 1.7656.7344.6407 0 1.2797-.2442 1.7672-.7325.9766-.9765.9766-2.5586 0-3.5351zm15.0039 0 10.7344-10.73442c.9765-.97656.9765-2.5586 0-3.53516-.9766-.97656-2.5586-.97656-3.5352 0l-12.5 12.49998c-.9765.9766-.9765 2.5586 0 3.5352l12.5 12.5c.4805.4922 1.1211.7344 1.7617.7344.6407 0 1.2797-.2442 1.7672-.7325.9766-.9765.9766-2.5586 0-3.5351z" fill="#475569"/></svg>