<svg fill="none" height="40" viewBox="0 0 40 40" width="40" xmlns="http://www.w3.org/2000/svg"><path d="m24.2676 18.2324-12.5-12.49998c-.9766-.97656-2.55862-.97656-3.53518 0s-.97656 2.5586 0 3.53516l10.73828 10.73042-10.73437 10.7344c-.97656.9766-.97656 2.5586 0 3.5352.48672.4883 1.12578.7304 1.76567.7304.6398 0 1.2796-.2441 1.7671-.7324l12.5-12.5c.975-.9785.975-2.5566-.0015-3.5332zm15 0-12.5-12.49998c-.9766-.97656-2.5586-.97656-3.5352 0-.9765.97656-.9765 2.5586 0 3.53516l10.7383 10.73042-10.7344 10.7344c-.9765.9766-.9765 2.5586 0 3.5352.4844.4883 1.125.7304 1.7657.7304.6406 0 1.2796-.2441 1.7671-.7324l12.5-12.5c.975-.9785.975-2.5566-.0015-3.5332z" fill="#475569"/></svg>