<svg fill="none" height="40" viewBox="0 0 40 40" width="40" xmlns="http://www.w3.org/2000/svg"><path d="m28.6875 32.2266-20.91406-20.9141c-1.75 2.4453-2.77344 5.4453-2.77344 8.6875 0 8.2812 6.7188 15 15 15 3.2422 0 6.2422-1.0234 8.6875-2.7734zm3.5391-3.5391c1.75-2.4453 2.7734-5.4453 2.7734-8.6875 0-8.2812-6.7188-15-15-15-3.2422 0-6.2422 1.02344-8.6875 2.77344zm7.7734-8.6875c0 11.0469-8.9531 20-20 20-11.04688 0-20-8.9531-20-20 0-11.04688 8.95312-20 20-20 11.0469 0 20 8.95312 20 20z" fill="#475569"/></svg>