<svg fill="none" height="40" viewBox="0 0 41 40" width="41" xmlns="http://www.w3.org/2000/svg"><path d="m27.0793 18.1221c.7401.3897 1.3086.6507 2.1576.7352 1.591.1597 3.2618-.5671 4.2064-1.8619.1605-.2198.3443-.4892.4231-.7512.0713-.2348.061-.5071.061-.7512v-1.9718c0-.2592-.0235-.8094.0553-1.0329.1089-.3052.8415-1.1042 1.0986-1.5023.196-.3033.6191-1.26858.8414-1.40661.2271-.1399.9072-.09483 1.1942-.09577.3856-.00188.698 0 1.0216-.24883.5732-.44037.6023-1.36995.0723-1.85822-.4803-.44413-1.3237-.33427-1.9381-.33427-.1295-2.81784-1.6192-5.43662-4.3153-6.530515-1.2543-.50892001-1.8837-.5136148-3.1896-.51173687-3.5957.0056338-6.6192 3.32019187-6.6436 6.85446187v1.59624c-.0807.30235-.8884 1.15024-1.1426 1.40845l-2.8143 2.8169-4.1277 3.9521-3.5647 3.3559-3.09578 2.8291c-.36023.3427-.78331.6423-1.08914 1.0366-.45779.5925-.43527 1.4573.2486 1.8695.34522.2084.73547.1953 1.12197.1962h5.53485c3.4447-.0159 7.0629-1.7192 9.2994-4.3192.712-.8282 1.3921-1.7427 1.8818-2.723.6135-1.2272.9456-3.0451 1.0929-4.4132.0722-.6788.09-2.1286.5103-2.6253.5244-.6207 1.2983-.6141 1.7346.0939.226.3652.2082.7136.2091 1.123v.5634c-.0121 1.0141-.2748 2.3004-.5281 3.2864zm3.1895-13.29388c1.5741.02535 1.5179 2.05164.1876 2.1953-.8161.08733-1.4381-.71737-1.1248-1.48357.183-.44788.4888-.61596.9372-.71173zm3.3772 14.98408c-1.7608 1.0572-3.2778 1.5934-5.3472 1.1586l-2.2515-.7831c-.5337 1.1991-1.6088 2.5493-2.5328 3.4742-2.5526 2.555-6.2816 4.4132-9.9439 4.4132.3649.6535 1.9118 1.3192 2.6267 1.5906.8846.3352 1.2045.2253 1.2195 1.0385v2.2535h-14.91581c-.45029.0009-.84429-.016-1.19795.3183-.562866.5305-.359298 1.6554.35366 1.9634.47468.2047 1.34805.1596 1.8762.1596h3.6586l-1.05536 2.0657c-.17637.354-.44185.8301-.48688 1.2207-.10038.8676.53284 1.3662 1.35462 1.3099.74391-.0517.99251-.6245 1.28989-1.216l1.17263-2.3474c.12195-.246.35648-.7972.576-.9371.1829-.1164.5009-.0958.7139-.0958h28.3307c.4699-.0009 1.1116-.0094 1.4906-.3221.561-.4619.5357-1.5352-.0872-1.9305-.3284-.2084-.6576-.1878-1.0282-.1887h-2.8143c-1.0948-.0019-1.0141-.3944-1.4362-1.3146l-1.0732-2.1596c-.1811-.3615-.3649-.8178-.6895-1.0657-.6755-.5146-1.7852-.185-1.9391.6901-.1238.7014.3546 1.4582.6586 2.0658l.9146 1.784h-6.1915v-3.0047c0-.2235-.0197-.5352.0957-.7315.1332-.2262.6079-.4629.8424-.615.7261-.4732 1.1201-.7549 1.7824-1.323 1.6032-1.3737 2.8425-3.3352 3.5601-5.3117.1764-.4883.5704-1.678.4738-2.1596zm-9.1934 10.2347v2.9108h-4.5967v-2.4413l1.1257.092c.9447.0188 2.5498-.2948 3.471-.5615z" fill="#475569"/></svg>