<svg fill="none" height="41" viewBox="0 0 40 41" width="40" xmlns="http://www.w3.org/2000/svg"><path d="m6.94662 23.7145v-3.379c0-1.835-.1361-3.1932 1.50179-4.4556 1.11132-.857 1.91949-.5979 2.72199-.7697 1.0287-.2196 1.8725-.7941 2.3907-1.7205.9085-1.6229.3745-3.76198-1.1705-4.77662-.6627-.43552-1.4746-.57256-2.2527-.5735h-6.38258c-.42801.00094-.75559-.01971-1.12259.24874-.59039.4327-.66642 1.4633-.0779 1.94298.33227.2703.70678.2477 1.10663.2487h6.19488c.23746 0 .52466-.0103.75086.061.7415.2318 1.2052 1.0306.6758 1.7055-.4355.5547-.8278.4392-1.42666.5134-.32758.0404-.71523.1107-1.03248.2009-1.23804.3491-2.34937 1.0812-3.11997 2.1184-1.41262 1.8988-1.19768 3.7019-1.19768 5.9133v7.1335c0 2.6131-.09104 4.7109 1.15075 7.1335.45898.8954 1.02779 1.6867 1.69233 2.4404 1.62474 1.8444 4.62931 3.2814 7.10631 3.2852h8.9168c0-.8016.0573-1.4699-.1642-2.2527-.3895-1.3845-1.6736-2.4226-3.1209-2.4404h-1.5018-2.722c-.7087-.001-1.4586-.0836-1.7571-.8448-.0939-.2271-.0995-.4327 0-.657.5162-1.1066 1.5459-.5238 2.8834-1.3028 2.1983-1.2793 2.1542-4.4209.4684-5.7819-.4665-.3764-1.0034-.6495-1.5947-.7565-.6336-.1145-1.1677.0385-1.6238-.6101-.5332-.7594.1389-1.6342.9668-1.682.412-.0235.8212.0572 1.2202.1511 2.4638.5829 4.4462 2.9219 4.5044 5.4768.0206.9077-.214 1.8134-.6082 2.6282l-.6111 1.1263c2.5352 0 4.725 1.5299 5.567 3.9422.397 1.1385.3463 1.8406.3463 3.0036h5.7256c.2281 0 .5397.0122.7509-.0695 1.3422-.519.5294-2.6253-.0845-3.3997-1.0728-1.3534-2.3287-1.2239-3.8577-1.2239v-18.7724c.9677 0 2.5924.0873 3.4729-.1389 2.7107-.6964 3.5705-2.844 3.5667-5.3989-.0009-.4853.0019-.9959-.3351-1.3882-.3632-.4234-1.0334-.4252-1.6688-1.33382-.4966-.70865-.2309-1.1545-.4571-1.87723-.4018-1.28309-1.5694-1.68764-2.7952-1.68951h-4.2238v-3.28517c-.0057-.40642-.0319-.76685-.3342-1.07659-.4468-.458985-1.4473-.38765-2.0124-.20368-1.6463.53689-2.4376 1.9664-2.4404 3.62682v7.22738c0 2.2273.1455 4.0332-1.5102 5.8194-.9095.9818-1.8613 1.637-3.1829 1.9232l-3.5667.4121c-2.3503.5585-4.1534 1.7665-5.72558 3.578zm23.37158-13.1998c1.529-.0225 1.5769 2.0134.2816 2.1954-.8382.1183-1.56-.7631-1.1667-1.5712.1971-.4045.4721-.5284.8851-.6242zm.0939 12.9182v4.6931c0 .1774-.0132.4693.0535.6308.1042.2496 1.1854 1.2652 1.4483 1.528l1.1263 1.1264c.704.7039 1.1864 1.3262 2.2527 1.3994 1.376.0949 2.5174-.8353 2.5342-2.2442.0029-.3032.0132-.6476-.075-.9386-.1727-.5726-.6411-.9978-1.0513-1.4079l-2.722-2.722c-.5359-.536-1.499-1.6313-2.1588-1.8998-.4965-.2018-.8889-.1652-1.4079-.1652z" fill="#475569"/></svg>