<svg fill="none" height="40" viewBox="0 0 40 40" width="40" xmlns="http://www.w3.org/2000/svg"><path d="m20 0c-11.04688 0-20 8.95312-20 20 0 11.0469 8.95312 20 20 20 11.0469 0 20-8.9531 20-20 0-11.04688-8.9531-20-20-20zm-1.875 11.875c0-1.0312.8438-1.875 1.875-1.875s1.875.8398 1.875 1.875v10c0 1.0352-.8398 1.875-1.875 1.875s-1.875-.8359-1.875-1.875zm1.875 19.375c-1.3563 0-2.4562-1.1-2.4562-2.4562 0-1.3563 1.0992-2.4563 2.4562-2.4563s2.4562 1.1 2.4562 2.4563c-.0031 1.3546-1.0968 2.4562-2.4562 2.4562z" fill="#475569"/></svg>