<svg fill="none" height="40" viewBox="0 0 41 40" width="41" xmlns="http://www.w3.org/2000/svg"><path d="m40.0023 18.25c0 8.9766-8.9531 16.25-20 16.25-2.8984 0-5.6484-.5-8.1328-1.3984-.9297.6796-2.44531 1.6093-4.24218 2.3906-1.875.8125-4.13282 1.5078-6.375 1.5078-.507816 0-.960941-.3047-1.1562532-.7734-.1953125-.4688-.0859375-1 .2656252-1.3594l.023437-.0234c.023438-.0235.054688-.0547.101563-.1094.085937-.0938.21875-.2422.382812-.4453.320316-.3907.749996-.9688 1.187496-1.6875.78125-1.2969 1.52344-3 1.67188-4.9141-2.34375-2.6563-3.7265632-5.9141-3.7265632-9.4375 0-8.97656 8.9531232-16.25 19.9999832-16.25 11.0469 0 20 7.27344 20 16.25z" fill="#475569"/></svg>