<svg fill="none" height="40" viewBox="0 0 40 40" width="40" xmlns="http://www.w3.org/2000/svg"><path d="m13.0007 26c7.1812 0 13-4.925 13-11s-5.8188-11-13-11c-7.18127 0-13.00001597 4.925-13.00001597 11 0 2.4125.91874997 4.6437 2.47499597 6.4625-.21875.5875-.54375 1.1063-.8875 1.5438-.3.3875-.606246.6875-.831246.8937-.1125.1-.20625.1813-.26875.2313-.03125.0249-.05625.0437-.06875.0499l-.0125.0126c-.34375.2562-.49375.7062-.35625 1.1124.1375.4063.51875.6938.949996.6938 1.3625 0 2.7375-.35 3.88125-.7812.575-.2188 1.1125-.4625 1.58125-.7125 1.91875.95 4.15002 1.4937 6.53752 1.4937zm15-11c0 7.0187-6.1938 12.3062-13.5313 12.9375 1.5188 4.65 6.5563 8.0625 12.5313 8.0625 2.3875 0 4.6187-.5437 6.5437-1.4937.4688.25 1 .4937 1.575.7125 1.1438.4312 2.5188.7812 3.8813.7812.4312 0 .8187-.2812.95-.6938.1312-.4125-.0125-.8624-.3625-1.1187l-.0125-.0125c-.0125-.0125-.0375-.025-.0688-.05-.0625-.05-.1562-.125-.2687-.2313-.225-.2062-.5313-.5062-.8313-.8937-.3437-.4375-.6687-.9625-.8875-1.5438 1.5563-1.8125 2.475-4.0437 2.475-6.4625 0-5.8-5.3062-10.5562-12.0375-10.9687.025.3188.0375.6437.0375.9687z" fill="#475569"/></svg>