<svg fill="none" height="40" viewBox="0 0 41 40" width="41" xmlns="http://www.w3.org/2000/svg"><path d="m25.0254 11.0798-.5096 1.4085c-.7029 1.645-1.8254 3.1389-3.2444 4.2356-1.6357 1.2658-2.2899 1.2226-3.8478 2.0451-1.6226.8564-3.0876 2.0357-4.2222 3.4845-1.3543 1.7296-2.273 3.9296-2.5884 6.1033-.2271 1.5624-.1548 5.6479-.1342 7.4178.0272 2.2911 1.8057 4.2216 4.1294 4.2254h10.0418c0-.5897.0713-2.3662-.1079-2.8169-.1117-.2826-.2769-.4695-.5509-.6038-.8972-.4413-2.777.2169-3.5597-.4554-.5612-.4816-.4458-1.107-.6128-1.7577-.2074-.8085-.6035-1.4094-1.2689-1.9221-.4504-.3474-.9497-.5211-1.5016-.631-.6982-.1389-1.5203-.1192-1.7258-1.015-.1277-.5577.3857-1.0864.8812-1.2394.4974-.1531 1.4753.092 1.9708.2554 1.8639.6141 3.5438 2.3972 3.8478 4.3643.7461 0 1.5279-.0582 2.2524.1399.3594.0977.7301.2808 1.0323.4977 1.8845 1.3493 1.5955 3.1615 1.5955 5.184h1.5954v-16.6197c.0009-.724.1661-1.6235 1.0323-1.7859.7687-.1437 1.2107.661 1.2201 1.3164v17.0892h5.7248c.1961 0 .4711.0085.6569-.0479.8737-.2657.7517-1.2103.7508-1.9239-.0019-1.4939-.793-2.5005-2.3462-2.5352v-9.6714c0-.246-.0104-.5146.061-.7512l.9657-2.0657c.534-1.4103.8671-3.1869.8502-4.6948-.0122-1.0047-.2336-2.3184-.5096-3.2864-.1379-.4845-.5649-1.4188-.4439-1.878.0779-.2939.2778-.5361.4881-.7474.8512-.8535 1.3777-.5277 2.1547-.7587 1.1759-.3502 1.8629-1.3239 1.877-2.53142v-3.38028c0-.22817.0122-.53991-.0694-.75117-.3323-.85916-1.3496-.7493-2.0891-.75118-.2487-.00094-.5228.01784-.7508-.09577-.3322-.1662-1.4922-1.5155-1.8094-1.87606-1.1478-1.303285-2.0741-2.2507031-3.9154-2.25352h-2.6278-1.4077c-1.3054.0159624-2.5273.713615-3.2641 1.78404-.2308.33521-.4232.74084-.5499 1.12676-.1699.51549-.2328.96056-.2206 1.50235.0216.94084.5237 2.20563.8616 3.09859.1652.43568.2862.94178.595 1.29765.6579.75587 2.0112.84507 2.7619.18404 1.1056-.97465.4364-2.80188 1.3374-3.58873.7874-.68827 1.7878.06572 1.754.98028l-.1548 1.12676c-.077.46479-.1774 1.06854-.3482 1.50234-.6344 1.60752-2.1154 2.56522-3.8046 2.67512-.8062.0516-1.5363-.3014-2.2524-.6094zm-15.20352 28.9202c-.42513-.7408-.78551-1.093-1.13369-1.9718-.51148-1.292-.46174-2.231-.46174-3.5681-2.26551 0-4.11339-.1981-5.91154 1.5108-.44859.4272-1.01826 1.1859-1.22472 1.7756-.282488.8094-.02722 1.876.84839 2.1737.26935.0911.56403.0798.84464.0798z" fill="#475569"/></svg>