<svg fill="none" height="40" viewBox="0 0 40 40" width="40" xmlns="http://www.w3.org/2000/svg"><path d="m24.045 11.0798-.5096 1.4085c-.7029 1.645-1.8253 3.1389-3.2443 4.2356-1.6358 1.2658-2.2899 1.2226-3.8478 2.0451-1.6227.8564-3.0876 2.0357-4.2223 3.4845-1.3542 1.7296-2.27298 3.9296-2.58832 6.1033-.22711 1.5625-.15485 5.6479-.1342 7.4179.02721 2.291 1.80562 4.2215 4.12932 4.2253h10.0419c0-.5897.0713-2.3662-.108-2.8169-.1117-.2826-.2768-.4695-.5509-.6038-.8972-.4413-2.777.2169-3.5597-.4554-.5612-.4816-.4457-1.107-.6128-1.7577-.2074-.8085-.6034-1.4094-1.2688-1.9221-.4505-.3474-.9498-.5211-1.5016-.631-.6982-.1389-1.5204-.1192-1.7259-1.015-.1276-.5577.3857-1.0864.8813-1.2394.4974-.1531 1.4753.092 1.9708.2554 1.8638.6141 3.5437 2.3972 3.8478 4.3643.7461 0 1.5278-.0582 2.2524.1399.3594.0977.7301.2808 1.0323.4977 1.8845 1.3493 1.5954 3.1615 1.5954 5.184h1.5955v-16.6197c.0009-.724.1661-1.6235 1.0323-1.7859.7686-.1437 1.2106.661 1.22 1.3164v17.0892h5.7248c.1962 0 .4711.0084.657-.0479.8737-.2657.7517-1.2103.7507-1.9239-.0018-1.4939-.793-2.5005-2.3462-2.5352v-9.6714c0-.246-.0103-.5146.061-.7512l.9657-2.0657c.534-1.4103.8672-3.1869.8503-4.6948-.0122-1.0047-.2337-2.3184-.5096-3.2864-.138-.4845-.565-1.4188-.4439-1.878.0779-.2939.2778-.5361.488-.7474.8512-.8535 1.3777-.5277 2.1548-.7587 1.1759-.3502 1.8629-1.3239 1.877-2.53142v-3.38028c0-.22817.0122-.53991-.0695-.75117-.3322-.85916-1.3495-.7493-2.0891-.75118-.2487-.00094-.5227.01784-.7508-.09577-.3322-.1662-1.4922-1.5155-1.8094-1.87606-1.1477-1.303285-2.074-2.2507031-3.9153-2.25352h-2.6278-1.4077c-1.3055.0159624-2.5274.713615-3.2641 1.78404-.2309.33521-.4233.74084-.55 1.12676-.1698.51549-.2327.96056-.2205 1.50235.0216.94084.5237 2.20563.8615 3.09859.1652.43568.2863.94178.595 1.29765.6579.75587 2.0112.84507 2.762.18404 1.1055-.97465.4364-2.80188 1.3373-3.58873.7874-.68827 1.7879.06572 1.7541.98028l-.1549 1.12676c-.0769.46479-.1773 1.06854-.3481 1.50234-.6345 1.60752-2.1154 2.56522-3.8047 2.67512-.8061.0516-1.5363-.3014-2.2524-.6094zm-15.20346 28.9202c-.42514-.7408-.78552-1.093-1.1337-1.9718-.51147-1.292-.46173-2.231-.46173-3.5681-2.26551 0-4.1134-.1981-5.91154 1.5108-.4486.4272-1.018262 1.1859-1.22473 1.7756-.282485.8094-.0272159 1.876.848394 2.1737.269346.0911.564036.0798.844636.0798z" fill="#475569"/></svg>