<svg fill="none" height="40" viewBox="0 0 40 40" width="40" xmlns="http://www.w3.org/2000/svg"><g fill="#475569"><path d="m23.5352 12.4881.5096-1.4084c.0585.0252.1171.0506.1758.0761.6601.2869 1.3363.5807 2.0765.5333 1.6893-.1099 3.1702-1.0676 3.8046-2.67512.1708-.4338.2712-1.03754.3482-1.50233l.1548-1.12675c.0338-.91454-.9666-1.66852-1.754-.98027-.4275.37343-.5015.98117-.5793 1.6209-.0862.70825-.1771 1.4557-.758 1.9678-.7508.66102-2.1041.57182-2.7619-.18404-.2402-.27682-.3668-.64456-.489-.99933-.0348-.10122-.0694-.20161-.106-.29831l-.0629-.16569c-.3339-.87884-.7784-2.04885-.7987-2.93286-.0122-.54178.0507-.98685.2206-1.50233.1267-.38592.3191-.79154.5499-1.12675.7367-1.070413 1.9586-1.7680577 3.2641-1.78402h4.0354c1.8413.00281687 2.7676.950224 3.9153 2.2535.03.03402.0674.07684.1109.12665.4179.47801 1.3977 1.59887 1.6985 1.74938.1987.09896.4322.09748.6535.09607.0327-.00021.0653-.00042.0973-.0003.0749.00019.1527-.00076.2324-.00174.7063-.00869 1.5581-.01917 1.8567.75291.0725.18766.071.4546.0697.67182l-.0003.07935v3.38024c-.0141 1.20752-.701 2.18122-1.877 2.53142-.2468.0734-.4684.0906-.6831.1072-.4612.0358-.8908.0691-1.4716.6515-.2102.2112-.4101.4535-.488.7474-.0902.342.1238.9477.2958 1.4347l.0004.0011c.0587.1663.1126.3188.1477.4421.2759.9681.4974 2.2817.5096 3.2864.0157 1.4025-.2714 3.0373-.7412 4.3937-1.1422-.4539-2.3877-.7034-3.6915-.7034-.8147 0-1.6066.0974-2.3648.2812-.1859-.4388-.5592-.7855-1.0857-.6871-.7389.1386-.9677.8134-1.0196 1.4582-3.2788 1.6412-5.5299 5.0315-5.5299 8.9477 0 .7472.0819 1.4752.2373 2.1756-.2597-.009-.5209-.0052-.78-.0015h-.0011c-.1389.0019-.2775.0039-.4145.0039-.3041-1.9671-1.984-3.7502-3.8478-4.3643-.4955-.1633-1.4734-.4084-1.9708-.2553-.4955.153-1.0089.6816-.8812 1.2394.1747.7617.7953.8614 1.4064.9597.1076.0172.2149.0345.3194.0553.5518.1098 1.0511.2836 1.5016.631.6654.5126 1.0614 1.1136 1.2688 1.922.0478.1863.0725.3705.0965.5498.0599.4471.1158.8641.5163 1.2079.4291.3686 1.188.3373 1.934.3065.6146-.0254 1.2204-.0504 1.6257.1489.0492.0242.095.05.1375.0778.147.2788.3068.5498.4785.8123.0737.5271.0583 1.4714.0481 2.0973-.0029.1743-.0053.3243-.0053.4332h-10.0417c-2.3237-.0037-4.10211-1.9342-4.12933-4.2253l-.00553-.4485c-.02448-1.9365-.06986-5.5273.13974-6.9692.31532-2.1737 1.23412-4.3737 2.58832-6.1032 1.1346-1.4488 2.5996-2.6282 4.2222-3.4845.5483-.2895.9847-.4718 1.3913-.6416.7487-.3127 1.3965-.5832 2.4565-1.4034 1.4189-1.0967 2.5414-2.5906 3.2443-4.2357z"/><path d="m8.84144 39.9995c-.14808-.258-.2883-.4689-.42289-.6713-.25181-.3787-.48389-.7277-.71079-1.3005-.46894-1.1845-.46613-2.0723-.46241-3.2423.00033-.1061.00068-.2145.00068-.3257-.21645 0-.42909-.0018-.63824-.0036-1.97955-.0168-3.64712-.031-5.27324 1.5144-.44859.4272-1.018246 1.1859-1.224711 1.7756-.282482.8093-.0272158 1.876.848384 2.1736.242727.0821.506027.0811.761067.0801l.08356-.0003z"/><path clip-rule="evenodd" d="m32 40c4.4183 0 8-3.5817 8-8s-3.5817-8-8-8-8 3.5817-8 8 3.5817 8 8 8zm-1.9393-12.0607c-.5858-.5857-1.5356-.5857-2.1214 0-.5857.5858-.5857 1.5356 0 2.1214l1.9394 1.9393-1.9394 1.9393c-.5857.5858-.5857 1.5356 0 2.1214.5858.5857 1.5356.5857 2.1214 0l1.9393-1.9394 1.9393 1.9394c.5858.5857 1.5356.5857 2.1214 0 .5857-.5858.5857-1.5356 0-2.1214l-1.9394-1.9393 1.9394-1.9393c.5857-.5858.5857-1.5356 0-2.1214-.5858-.5857-1.5356-.5857-2.1214 0l-1.9393 1.9394z" fill-rule="evenodd"/></g></svg>