<svg fill="none" height="40" viewBox="0 0 40 40" width="40" xmlns="http://www.w3.org/2000/svg"><path d="m19.9984 6c-5.05 0-9.0937 2.3-12.03746 5.0375-2.925 2.7125-4.88125 5.9625-5.80625 8.1937-.20625.4938-.20625 1.0438 0 1.5375.925 2.2313 2.88125 5.4813 5.80625 8.1938 2.94376 2.7375 6.98746 5.0375 12.03746 5.0375s9.0938-2.3 12.0375-5.0375c2.925-2.7188 4.8813-5.9625 5.8125-8.1938.2063-.4937.2063-1.0437 0-1.5375-.9312-2.2312-2.8875-5.4812-5.8125-8.1937-2.9437-2.7375-6.9875-5.0375-12.0375-5.0375zm9 14c0 4.9688-4.0312 9-9 9-4.9687 0-9-4.0312-9-9s4.0313-9 9-9c4.9688 0 9 4.0312 9 9zm-9-4c0 2.2063-1.7937 4-4 4-.7187 0-1.3937-.1875-1.975-.525-.0125.175-.025.3438-.025.525 0 3.3125 2.6875 6 6 6s6-2.6875 6-6-2.6875-6-6-6c-.175 0-.35.0062-.525.025.3313.5812.525 1.2562.525 1.975z" fill="#475569"/></svg>