<svg fill="none" height="40" viewBox="0 0 40 40" width="40" xmlns="http://www.w3.org/2000/svg"><path d="m2.42535 4.3191c-.65-.5125-1.593749-.39375-2.106249.25625s-.3937497 1.59375.25625 2.10625l37.000049 29c.65.5125 1.5937.3938 2.1062-.2562s.3938-1.5938-.2562-2.1063l-6.5751-5.15c2.475-2.5375 4.1501-5.3812 4.9938-7.4.2063-.4937.2063-1.0437 0-1.5375-.9312-2.2312-2.8875-5.4812-5.8125-8.1937-2.9375-2.73755-6.9812-5.03755-12.0312-5.03755-4.2625 0-7.8125 1.64375-10.5813 3.8zm11.51875 9.025c1.5938-1.4562 3.725-2.3437 6.0563-2.3437 4.9687 0 9 4.0312 9 9 0 1.5562-.3938 3.0187-1.0875 4.2937l-2.4125-1.8875c.325-.7375.5-1.55.5-2.4062 0-3.3125-2.6875-6-6-6-.175 0-.35.0062-.525.025.3312.5812.525 1.2562.525 1.975 0 .6375-.15 1.2375-.4125 1.7687zm13.9438 18.625-4.575-3.6c-1.025.4063-2.1438.6313-3.3125.6313-4.9688 0-9-4.0313-9-9 0-.4313.0312-.85.0875-1.2625l-5.8938-4.6438c-1.425 1.8563-2.44375 3.7063-3.0375 5.1375-.20625.4938-.20625 1.0438 0 1.5375.93125 2.2313 2.8875 5.4813 5.8125 8.1938 2.9375 2.7375 6.9813 5.0375 12.0313 5.0375 2.9875 0 5.6187-.8063 7.8875-2.0313z" fill="#475569"/></svg>