<svg fill="none" height="40" viewBox="0 0 40 40" width="40" xmlns="http://www.w3.org/2000/svg"><path d="m3.74927 20c0-8.9766 7.27203-16.25 16.24683-16.25 5.413 0 10.2011 2.64062 13.1615 6.7188.6092.8359 1.7809 1.0234 2.6167.414.8357-.6094 1.0232-1.78124.4139-2.61718-3.6321-5.00781-9.5293-8.26562-16.1921-8.26562-11.04472 0-19.9961 8.95312-19.9961 20v.625c0 1.0391.835774 1.875 1.87463 1.875 1.03886 0 1.87464-.8359 1.87464-1.875zm35.81333-4.1328c-.2109-1.0156-1.2107-1.6641-2.2183-1.4453-1.0076.2187-1.6638 1.2109-1.4451 2.2187.2266 1.086.3515 2.211.3515 3.3672v.625c0 1.0391.8358 1.875 1.8747 1.875 1.0388 0 1.8746-.8359 1.8746-1.875v-.625c0-1.414-.1484-2.7969-.4296-4.1328zm-22.2144-5.8516c.8436-.22654 1.7262-.34372 2.6479-.34372 5.702 0 10.3261 4.62502 10.3261 10.32812 0 2.4297-.1484 4.875-.3046 6.7188-.0781.9218-.1562 1.6874-.2109 2.2187-.0313.2656-.0547.4766-.0703.6172l-.0156.1562-.0079.0391v.0078c-.1249 1.0313.6015 1.961 1.6247 2.0938 1.0233.1328 1.9606-.6016 2.0934-1.625l-1.859-.2344c1.859.2344 1.859.2344 1.859.2344v-.0157l.0078-.0468.0234-.1719c.0156-.1484.0391-.375.0703-.6484.0625-.5626.1406-1.3594.2187-2.3126.1562-1.9062.3203-4.4609.3203-7.0312 0-7.7734-6.3035-14.07812-14.0754-14.07812-1.2419 0-2.4527.16406-3.6087.46874-.9998.26563-1.6012 1.28907-1.3357 2.28907.2656 1 1.2889 1.60151 2.2887 1.33591zm-5.8192 4.0703c.5936-.8515.3905-2.0156-.4608-2.6093-.8514-.5938-2.01528-.3907-2.60891.4609-1.59344 2.2813-2.53857 5.0625-2.53857 8.0625 0 2.3516-.29682 4.5781-.59364 6.2266-.1484.8203-.29681 1.4922-.40617 1.9453-.05467.2265-.10154.4062-.13278.5234-.01562.0547-.02344.1016-.03125.125l-.00781.0313v.0078c-.28119.9922.28901 2.0312 1.28881 2.3203.99981.2891 2.03086-.2891 2.31986-1.2891l-1.81214-.5156c1.80433.5156 1.80433.5156 1.80433.5156v-.0078-.0156l.01562-.0469c.00782-.0391.02344-.0937.04687-.1641.03905-.1406.09373-.3437.14841-.6015.12497-.5156.289-1.2578.45304-2.1563.32806-1.789.65612-4.25.65612-6.8984 0-2.2031.68741-4.2422 1.85901-5.9141zm8.4671 1.5391c2.4136 0 4.3741 1.9609 4.3741 4.375 0 3.6797-.2109 6.7422-.4296 8.875-.1093 1.0703-.2109 1.8984-.289 2.4688-.039.2812-.0703.4921-.0937.6328-.0078.0703-.0156.125-.0234.1562l-.0078.0391v.0078c-.1797 1.0234.5077 1.9922 1.5231 2.1719 1.0154.1796 1.9918-.5 2.1714-1.5235l-1.8512-.3281c1.8434.3203 1.8434.3203 1.8434.3203v-.0078-.0156l.0078-.0547c.0079-.0469.0157-.1094.0313-.1875.0234-.1641.0625-.3985.1015-.7031.086-.6094.1953-1.4922.3125-2.6094.2265-2.2422.4452-5.4297.4452-9.25 0-4.4844-3.6399-8.125-8.1234-8.125s-8.1234 3.6406-8.1234 8.125c0 3.6484-.3047 6.5156-.6015 8.4687-.1484.9766-.2968 1.711-.4061 2.2032-.0547.2421-.1016.4297-.125.539-.0156.0547-.0235.1016-.0313.125l-.0078.0235c-.2812.9922.289 2.0312 1.2888 2.3203.9998.289 2.0309-.2891 2.3199-1.2891l-1.8043-.5078c1.8043.5156 1.8043.5156 1.8043.5156v-.0078l.0078-.0156.0156-.0547c.0078-.0391.0235-.1016.0469-.1797.039-.1562.0937-.375.1562-.6562.125-.5625.289-1.3907.4531-2.4454.2343-1.5.4608-3.4843.5702-5.8828.0468-.9843.0703-2.0312.0703-3.1484 0-2.4141 1.9605-4.375 4.3741-4.375zm1.8746 4.375c0-1.0391-.8357-1.875-1.8746-1.875s-1.8746.8359-1.8746 1.875c0 3.5469-.2031 6.5156-.4921 8.9453l-1.8512 8.4219c-.414.9453.0078 2.0469.9529 2.4687.9451.4219 2.0543-.0078 2.4761-.9531l-1.7106-.7578c1.7106.7578 1.7106.7578 1.7106.7578v-.0078l.0078-.0234.0312-.0704c.0235-.0624.0547-.1406.0938-.2421.0781-.211.1874-.5079.3124-.8985.2578-.789.5858-1.9453.9139-3.4922.6639-3.1093 1.3044-7.7734 1.3044-14.1484zm-4.2413 8.9453 2.3667-10.8203zm0 0c-.2109 1.7578-.4609 3.2266-.7186 4.4219-.2969 1.4219-.5937 2.4453-.8046 3.1094-.1093.3281-.1952.5703-.2499.7187-.0313.0703-.0469.125-.0625.1563l-.0078.0312 1.8434-8.4297z" fill="#475569"/></svg>