<svg fill="none" height="40" viewBox="0 0 40 40" width="40" xmlns="http://www.w3.org/2000/svg"><path d="m19.1149 19.3947c.4862.5122 1.2849.5122 1.7711 0l7.5084-7.9306c2.188-2.29996 2.0643-6.11801-.3924-8.24301-2.1449-1.85764-5.3309-1.52084-7.2861.53639l-.7745.80458-.7154-.80764c-1.9518-2.05729-5.1469-2.39403-7.3417-.53611-2.38939 2.12639-2.52831 5.94722-.3265 8.24579zm20.3512 5.9583c-.9113-1.2368-2.6492-1.5041-3.8848-.5881l-8.3142 6.1229h-8.3766c-.6076 0-1.0488-.5034-1.0488-1.0486 0-.6073.5036-1.0486 1.0488-1.0486h5.4351c1.0488 0 2.1358-.7549 2.3178-1.8486.2258-1.3264-.8418-2.5951-2.1963-2.5951h-11.1737c-1.8128 0-3.68958.6423-5.1482 1.8229l-3.2298 2.6208-3.8459-.0018c-.607615 0-1.04881236.5053-1.04881236 1.1125l-.00068764 6.542c0 .6111.503633 1.1111 1.04881 1.1111h24.03939c1.5302 0 3.0506-.4991 4.2856-1.4083l9.3838-6.9104c1.3544-.9104 1.6184-2.6466.7085-3.8827z" fill="#475569"/></svg>