<svg fill="none" height="40" viewBox="0 0 40 40" width="40" xmlns="http://www.w3.org/2000/svg"><path d="m35.5417 22.1602.0486 10.9443c0 .1914-.0139.3691-.0347.5537v1.1074c0 1.5108-1.2431 2.7344-2.7778 2.7344h-1.1111c-.0764 0-.1528-.0615-.2292-.0068-.0972-.0547-.1944.0068-.2917.0068h-3.9236c-1.5347 0-2.7778-1.2236-2.7778-2.7344v-6.0156c0-1.21-.993-2.1875-2.2222-2.1875h-4.4444c-1.2292 0-2.2222.9775-2.2222 2.1875v6.0156c0 1.5108-1.2431 2.7344-2.7778 2.7344h-3.88197c-.10416 0-.20833-.0068-.3125-.0137-.08333.0069-.16666.0137-.25.0137h-1.11111c-1.53403 0-2.77778-1.2236-2.77778-2.7344v-7.6562c0-.0615.00209-.1299.00625-.1914v-4.7578h-2.225c-1.252079 0-2.22569-.9639-2.22569-2.1944 0-.6152.208611-1.1621.695139-1.6406l17.804861-15.27723c.4861-.47947 1.0417-.54797 1.5278-.54797s1.0416.13699 1.4653.47947l7.3958 6.40432v-2.50879c0-1.20791.993-2.1875 2.2222-2.1875h2.2222c1.2292 0 2.2223.97959 2.2223 2.1875v8.2715l3.6666 3.1787c.5556.4785.8403 1.0254.7639 1.6406 0 1.2305-1.0417 2.1944-2.2222 2.1944z" fill="#475569"/></svg>