<svg fill="none" height="41" viewBox="0 0 40 41" width="40" xmlns="http://www.w3.org/2000/svg"><path d="m39.086 34.664-9.3516-9.3515c2.1266-3.1571 3.1758-7.1016 2.6141-11.3047-.9578-7.14923-6.8172-12.9672-13.9735-13.873218-10.63981-1.346332-19.58669 7.600548-18.240281 18.240418.906251 7.1593 6.725001 13.0234 13.874981 13.9765 4.2031.5617 8.1485-.4872 11.3047-2.614l9.3516 9.3515c1.2203 1.2203 3.1992 1.2203 4.4195 0 1.2192-1.2218 1.2192-3.2062.0005-4.425zm-32.90628-18.414c0-5.5141 4.48598-10.00003 9.99998-10.00003 5.5141 0 10 4.48593 10 10.00003 0 5.514-4.4859 10-10 10-5.514 0-9.99998-4.4844-9.99998-10z" fill="#475569"/></svg>