<svg fill="none" height="41" viewBox="0 0 40 41" width="40" xmlns="http://www.w3.org/2000/svg"><path d="m39.0858 34.664-9.3515-9.3515c2.1265-3.1571 3.1758-7.1016 2.614-11.3047-.9578-7.14923-6.8171-12.9672-13.9734-13.873218-10.63983-1.346332-19.58671 7.600548-18.240303 18.240418.906253 7.1593 6.725003 13.0234 13.875003 13.9765 4.2031.5617 8.1484-.4872 11.3047-2.614l9.3515 9.3515c1.2204 1.2203 3.1993 1.2203 4.4196 0 1.2192-1.2218 1.2192-3.2062.0004-4.425zm-32.9062-18.414c0-5.5141 4.4859-10.00003 10-10.00003s10 4.48593 10 10.00003c0 5.514-4.4859 10-10 10s-10-4.4844-10-10z" fill="#475569"/></svg>