<svg fill="none" height="40" viewBox="0 0 40 40" width="40" xmlns="http://www.w3.org/2000/svg"><path d="m35.7499 2h-8.7968c-1.6735 0-2.5118 2.01953-1.3282 3.20078l2.3133 2.30938-4.4258 4.41794c-2.3461-1.614-5.0812-2.42185-7.8125-2.42185-3.7492-.00016-7.49683 1.51875-10.24214 4.56175-4.754692 5.2742-4.582036 13.6718.37093 18.7578 2.7775 2.8539 6.36661 4.2445 9.95251 4.2445 3.525 0 7.0578-1.3422 9.75-4.0273 4.7742-4.7649 5.2945-12.1563 1.5953-17.5078l4.4258-4.418 2.3133 2.3094c.3843.3781.8531.55 1.314.55.961 0 1.8907-.75 1.8907-1.875v-8.8516c0-.62031-.5625-1.25-1.3204-1.25zm-14.6562 26.625c-1.4649 1.4617-3.3891 2.193-5.3125 2.193-1.9242 0-3.8477-.7309-5.3133-2.193-2.92968-2.9242-2.92968-7.682 0-10.6094 1.4649-1.4617 3.3891-2.1929 5.3133-2.1929s3.8476.731 5.3125 2.1929c2.9297 2.9219 2.9297 7.6875 0 10.6094z" fill="#475569"/></svg>