<svg fill="none" height="40" viewBox="0 0 40 40" width="40" xmlns="http://www.w3.org/2000/svg"><path d="m40 19.9297c0 .1406-.0703.2109-.0703.2812.0391 2.8516-2.5547 4.7188-5.4063 4.7188h-7.6484c-2.0703 0-3.75 1.75-3.75 3.8203 0 .2656.0312.5234.0781.7734.1719.7969.5078 1.5.8516 2.336.4687 1.0781.9453 2.1484.9453 3.2812 0 2.4922-1.6875 4.7422-4.1719 4.8438-.2734.0078-.5547.0156-.8281.0156-11.04687 0-20-8.9531-20-20 0-11.04687 8.95313-20 20-20 11.0469 0 20 8.95313 20 20zm-32.5 0c-1.38047 0-2.5 1.1875-2.5 2.5 0 1.4531 1.11953 2.5 2.5 2.5 1.38281 0 2.5-1.0469 2.5-2.5 0-1.3125-1.11719-2.5-2.5-2.5zm2.5-5c1.3828 0 2.5-1.0469 2.5-2.5 0-1.3125-1.1172-2.50001-2.5-2.50001-1.38281 0-2.5 1.18751-2.5 2.50001 0 1.4531 1.11719 2.5 2.5 2.5zm10-10.00001c-1.3828 0-2.5 1.18984-2.5 2.5 0 1.45312 1.1172 2.5 2.5 2.5s2.5-1.04688 2.5-2.5c0-1.31016-1.1172-2.5-2.5-2.5zm10 10.00001c1.3828 0 2.5-1.0469 2.5-2.5 0-1.3125-1.1172-2.50001-2.5-2.50001s-2.5 1.18751-2.5 2.50001c0 1.4531 1.1172 2.5 2.5 2.5z" fill="#475569"/></svg>