<svg fill="none" height="40" viewBox="0 0 40 40" width="40" xmlns="http://www.w3.org/2000/svg"><path d="m20 17.5c-6.2008 0-14.92971 9.5859-14.92971 15.6406-.06875 2.7266 2.02031 4.3594 5.53911 4.3594 3.8125 0 6.3359-1.961 9.3906-1.961 3.0859 0 5.6172 1.961 9.3906 1.961 3.4453 0 5.6047-1.6313 5.6047-4.3555-.0656-6.0508-8.7922-15.6445-14.9953-15.6445zm-11.50002-.9844c-.81016-2.7047-3.32032-4.4625-5.59532-3.9156-2.274995.5469-3.459683 3.1812-2.649214 5.8844.810154 2.7109 3.320314 4.4687 5.595314 3.9218 2.275-.5468 3.45391-3.1875 2.64922-5.8906zm6.61722-1.625c2.4117-.6348 3.6226-3.8359 2.6953-7.29452-.9274-3.45859-3.6328-5.55469-6.0539-4.98984-2.41175.63476-3.62268 3.83593-2.69534 7.29453.92891 3.38823 3.63204 5.63043 6.05394 4.98983zm21.9843-2.2891c-2.275-.4765-4.7851 1.211-5.5953 3.9157-.8101 2.7054.3711 5.3414 2.6461 5.8883 2.275.4765 4.775-1.211 5.5953-3.9157.8071-2.7086-.4429-5.3414-2.6461-5.8883zm-12.2187 2.2891c2.3516.6348 5.1266-1.6016 6.0539-4.98983.9273-3.38828-.2832-6.66016-2.6953-7.29453-2.3516-.63477-5.1266 1.60156-6.0539 4.98984-.9297 3.38832.2812 6.66172 2.6953 7.29452z" fill="#475569"/></svg>