<svg fill="none" height="41" viewBox="0 0 40 41" width="40" xmlns="http://www.w3.org/2000/svg"><path d="m34.1474 7.75422c0-1.01032-.1491-2.01407-.3564-3.00187-.2524-1.19794-.7693-2.67636-1.8011-3.41088-1.0648-.758912-2.4438-.29644-3.1614.69043-.1051.14446-.3255.49062-.3733.65666-.0254.10788-.0357.17073 0 .28142.0553.19794 1.0178 1.32739 1.2223 1.59475l1.0882 1.59474c.1425.22702.4165.72983.6031.88368.243.19887.6905.22233.9963.28424zm-9.9437 33.20818v-2.1576c-.0018-1.3011-.6172-2.0572-1.9699-2.0638h-3.4709c-.6623-.0009-1.2336-.0788-1.5657-.7504-.1867-.3799-.0976-.9738-.1388-1.4072-.1239-1.2973-.1708-2.7523-.7702-3.9399-.4709-.9334-1.1801-1.394-2.2158-1.4071-.5947-.0066-1.1801.0844-1.6707-.334-.8921-.7589-.2608-1.9006.9203-1.9174.7579-.0104 1.2242-.0244 1.9699.1801 1.698.4653 2.7543 1.7861 3.3359 3.3846.3152.8649.4681 1.8086.5778 2.7204.0301.2533-.0103.9025.122 1.0694.1473.1858.5328.1501.7486.1501h1.6885l-.3564-1.9699c-.0648-.3349-.2027-.895-.1229-1.2195.1529-.6229.9484-1.2618 1.6951-.6304.484.409.4897.8058.59 1.3808l.4822 2.6173c.1276.364.5985.5553.9015.8039.3771.3096.7383.7552.9878 1.1754.7139 1.2064.5132 2.9419.5132 4.3152h5.4408c.2768 0 .591.0197.8424-.1097.925-.4766.7186-2.3133.5376-3.1736-.4081-1.9399-2.0347-3.2654-4.0066-3.2833l-.9268-4.1275c-.1023-.4456-.3959-1.6726-.3771-2.0638.0478-.9785.9915-2.8105 1.4109-3.7524l.6407-1.5947c.0759-.2402.1613-.7186.3367-.8818.1642-.1539.395-.1454.6042-.1501 1.6782-.031 2.9212.1567 4.5028-.6867 1.2917-.6895 2.106-1.6773 2.7429-2.9718.2796-.5676.5572-1.2346.5366-1.8762-.046-1.3893-1.4381-3.6567-2.4362-4.5807-1.1051-1.0225-2.3855-1.72324-3.8452-2.09003-.3987-.09944-1.1886-.23452-1.5947-.26266-.3331-.02346-.6229.04221-.879-.22514l-1.1304-1.9409c-.9278-1.48874-2.2918-3.21857-3.713-4.24578-.757-.5469-1.4784-.98405-2.439-1.00656-1.1369-.02533-2.0131.50094-2.2364 1.68761v1.0319c-.0122 1.92213 1.2223 4.24483 2.2692 5.81616l1.4034 1.9699c.0816.2683-.0713.5854-.1491.8443-.1379.4616-.2383.9306-.3087 1.4071-.0581.3884-.1097 1.8021-.2842 2.0141-.1914.2345-.8687.53-1.1632.6858l-2.3452 1.1857c-1.8453.803-3.1276 1.3283-5.0657 1.9287-2.2477.6951-4.0985.9765-5.90993 2.7261-.98875.9559-1.39494 1.879-1.94841 3.0919-1.49999 3.2871-1.96059 7.5563-.32551 10.8818.54596 1.1116.88367 1.667 1.68761 2.6266.31426.3743.77298.8903 1.24296 1.0582.22515.0797.51218.0675.75048.0675zm5.91-27.4136c1.5816.2336 1.2082 2.2814-.1876 2.1679-1.2561-.1032-1.379-2.076.1876-2.1679zm-26.73544 19.0647c0-2.3162.34616-4.0207 1.16511-6.1914l.73545-1.6885.53846-1.1257c-1.3893.1838-2.61631.6435-3.53564 1.7823-1.392116 1.7861-1.479358 4.4981 0 6.2852.32646.424.59006.7092 1.09662.9381z" fill="#475569"/></svg>