<svg fill="none" height="40" viewBox="0 0 40 40" width="40" xmlns="http://www.w3.org/2000/svg"><path d="m12.5 7c1.3828 0 2.5-1.11719 2.5-2.5s-1.1172-2.5-2.5-2.5h-5c-4.14062 0-7.5 3.35938-7.5 7.5v20c0 4.1406 3.35938 7.5 7.5 7.5h5c1.3828 0 2.5-1.1172 2.5-2.5s-1.1172-2.5-2.5-2.5h-5c-1.38281 0-2.5-1.1172-2.5-2.5v-20c0-1.38281 1.11719-2.5 2.5-2.5zm26.9141 13.8594c.375-.3516.5859-.8438.5859-1.3594s-.2109-1.0078-.5859-1.3594l-11.25-10.62498c-.5469-.51562-1.3438-.65624-2.0313-.35937s-1.1328.97656-1.1328 1.71875v5.625h-10c-1.3828 0-2.5 1.1172-2.5 2.5v5c0 1.3828 1.1172 2.5 2.5 2.5h10v5.625c0 .75.4453 1.4219 1.1328 1.7188.6875.2968 1.4844.1562 2.0313-.3594z" fill="#475569"/></svg>