<svg fill="none" height="40" viewBox="0 0 40 40" width="40" xmlns="http://www.w3.org/2000/svg"><path d="m20 15-3.0859-3.0859c.3828-.9844.5859-2.04691.5859-3.1641 0-4.83594-3.9141-8.75-8.75-8.75-4.83594 0-8.75 3.91406-8.75 8.75 0 4.8359 3.91406 8.75 8.75 8.75 1.11719 0 2.1797-.2109 3.1641-.5859l3.0859 3.0859-3.0859 3.0859c-.9844-.3828-2.04691-.5859-3.1641-.5859-4.83594 0-8.75 3.9141-8.75 8.75s3.91406 8.75 8.75 8.75c4.8359 0 8.75-3.9141 8.75-8.75 0-1.1172-.2109-2.1797-.5859-3.1641l22.0859-22.0859c.5547-.55469.5547-1.44531 0-2-2.2109-2.21094-5.7891-2.21094-8 0zm1.7656 11.7656 9.2344 9.2344c2.2109 2.2109 5.7891 2.2109 8 0 .5547-.5547.5547-1.4453 0-2l-12.2344-12.2344zm-9.2656-18.0156c0 2.0703-1.6797 3.75-3.75 3.75-2.07031 0-3.75-1.6797-3.75-3.75 0-2.07031 1.67969-3.75 3.75-3.75 2.0703 0 3.75 1.67969 3.75 3.75zm-3.75 26.25c-2.07031 0-3.75-1.6797-3.75-3.75s1.67969-3.75 3.75-3.75c2.0703 0 3.75 1.6797 3.75 3.75s-1.6797 3.75-3.75 3.75z" fill="#475569"/></svg>