<svg fill="none" height="40" viewBox="0 0 40 40" width="40" xmlns="http://www.w3.org/2000/svg"><path d="m9.66667 3.96268c.38893 1.16667-.24306 2.42362-1.40278 2.8125l-1.81945.60417v8.39585c0 3.6805 2.98612 6.6667 6.66666 6.6667 3.6806 0 6.6667-2.9862 6.6667-6.6667v-8.39585l-1.8125-.60417c-1.1667-.38888-1.7917-1.64583-1.4028-2.8125.3889-1.16666 1.6458-1.79166 2.8125-1.40277l1.8125.60416c1.8125.60417 3.0347 2.29861 3.0347 4.21528v8.39585c0 5.3611-3.7916 9.8333-8.8403 10.8819.4375 3.882 3.7292 6.8959 7.7292 6.8959 4.2986 0 7.7778-3.4792 7.7778-7.7778v-4.9097c-1.9653-.8542-3.3333-2.8125-3.3333-5.0903 0-3.0695 2.4861-5.5556 5.5555-5.5556 3.0695 0 5.5556 2.4861 5.5556 5.5556 0 2.2778-1.3681 4.2361-3.3334 5.0903v4.9097c0 6.75-5.4722 12.2222-12.2222 12.2222-6.4514 0-11.7292-4.993-12.1875-11.3264-5.09027-1.0208-8.9236-5.5069-8.9236-10.8958v-8.39585c0-1.90972 1.22222-3.61111 3.04167-4.21528l1.8125-.60416c1.16666-.38889 2.42361.24305 2.8125 1.40277zm23.44443 14.03472c1.2292 0 2.2222-.993 2.2222-2.2222s-.993-2.2222-2.2222-2.2222-2.2222.993-2.2222 2.2222.993 2.2222 2.2222 2.2222z" fill="#475569"/></svg>