<svg fill="none" height="40" viewBox="0 0 40 40" width="40" xmlns="http://www.w3.org/2000/svg"><path d="m12.5625 1.38281-.5625 1.11719h-7.5c-1.38281 0-2.5 1.11719-2.5 2.5s1.11719 2.5 2.5 2.5h30c1.3828 0 2.5-1.11719 2.5-2.5s-1.1172-2.5-2.5-2.5h-7.5l-.5625-1.11719c-.4219-.85156-1.2891-1.38281-2.2344-1.38281h-9.4062c-.9453 0-1.8125.53125-2.2344 1.38281zm21.9375 8.61719h-30l1.65625 26.4844c.125 1.9765 1.76563 3.5156 3.74219 3.5156h19.20316c1.9765 0 3.6171-1.5391 3.7422-3.5156z" fill="#475569"/></svg>