<svg fill="none" height="40" viewBox="0 0 40 40" width="40" xmlns="http://www.w3.org/2000/svg"><path d="m19.9971 2c1.1094 0 2.1328.58594 2.6953 1.54688l16.875 28.75002c.5703.9687.5703 2.164.0157 3.1328-.5547.9687-1.5938 1.5703-2.711 1.5703h-33.74998c-1.11719 0-2.156254-.6016-2.710941-1.5703-.554688-.9688-.546875-2.1719.015625-3.1328l16.874996-28.75002c.5625-.96094 1.5859-1.54688 2.6953-1.54688zm0 10c-1.039 0-1.875.8359-1.875 1.875v8.75c0 1.0391.836 1.875 1.875 1.875 1.0391 0 1.875-.8359 1.875-1.875v-8.75c0-1.0391-.8359-1.875-1.875-1.875zm2.5 17.5c0-1.3828-1.1172-2.5-2.5-2.5s-2.5 1.1172-2.5 2.5 1.1172 2.5 2.5 2.5 2.5-1.1172 2.5-2.5z" fill="#475569"/></svg>