<svg fill="none" height="40" viewBox="0 0 40 40" width="40" xmlns="http://www.w3.org/2000/svg"><path d="m31.7656 28.2363c.9766.9766.9766 2.5586 0 3.5352-.4844.4883-1.125.7305-1.7656.7305s-1.2797-.2442-1.7672-.7325l-8.2328-8.2285-8.232 8.2266c-.4883.4922-1.1282.7344-1.768.7344-.63984 0-1.27891-.2422-1.76758-.7344-.97656-.9766-.97656-2.5586 0-3.5352l8.23438-8.2344-8.23438-8.2304c-.97656-.9766-.97656-2.55862 0-3.53518s2.55858-.97656 3.53518 0l8.2324 8.23828 8.2344-8.23437c.9765-.97656 2.5586-.97656 3.5351 0 .9766.97656.9766 2.55857 0 3.53517l-8.2343 8.2344z" fill="#475569"/></svg>