<svg fill="none" height="40" viewBox="0 0 124 40" width="124" xmlns="http://www.w3.org/2000/svg"><path d="m18.7619 15.2038c-.6638.2505-1.1181.6534-1.2829 1.3676-.2038.88.2772 1.46-.8123 2.0162-1.2219.6219-1.3772-.5124-2.381-.9228-1.1457-.4676-1.8981.1381-2.6667.9066-.3523.3524-.7142.6715-.9066 1.1429-.2476.6067-.1695 1.3667.2066 1.9048.5105.7314 1.2534.9514.7162 2-.5581 1.0876-1.2219.6285-2.01615.8123-.91524.2115-1.41619.9458-1.42858 1.8543-.01428 1.1115-.23809 2.4553.85715 3.1438 1.07428.6743 2.06758-.3085 2.67338 1.2372.4133 1.0562-.6115 1.219-1.0086 2.1905-.4676 1.1457.1381 1.898.9066 2.6666.2172.2172.5162.5286.762.7.6657.4657 1.62.4657 2.2857 0 .6923-.4838.9152-1.2019 1.9047-.7619 1.1943.5314.6934 1.1381.9076 2.0619.2115.9153.9458 1.4162 1.8543 1.4286 1.0286.0133 2.28.2181 3.0105-.6705.9162-1.1152-.2505-2.2447 1.3705-2.859.1838-.0696.3752-.1124.5714-.08.6143.1019.8667.78 1.6191 1.0876 1.1438.4676 1.9933-.2333 2.7619-1.0019.2971-.2972.5876-.5667.7695-.9524.2962-.6257.2314-1.4324-.1648-2-.4857-.6962-1.2038-.9248-.7619-1.9048.541-1.1981 1.1305-.6923 2.0619-.9076.5934-.1371 1.0581-.5343 1.2991-1.0924.1209-.2819.1247-.4628.1295-.7619.0143-1.1114.2381-2.4552-.8571-3.1438-1.0743-.6743-2.0677.3086-2.6734-1.2371-.4133-1.0562.6114-1.2191 1.0086-2.1905.4676-1.1457-.1381-1.8981-.9067-2.6667-.2171-.2171-.5162-.5285-.7619-.7-.6657-.4657-1.62-.4657-2.2857 0-.6457.4505-.8848 1.1524-1.8095.801-1.4895-.5667-.621-1.5505-1.1819-2.5772-.5686-1.04-1.4343-.9523-2.4372-.9523-.4466 0-.8942-.0277-1.3333.0609zm.7619 6.7286c.9391-.0886 1.8991.0457 2.7619.439 2.9753 1.3572 3.8238 5.1086 1.98 7.7238-.4305.6115-.8676.9848-1.5038 1.3696-.6486.3933-1.3457.6066-2.0952.6981-4.1143.5066-7.1124-3.9905-5.101-7.5915.2695-.4828.5972-.9428 1.0067-1.3171.88-.8038 1.7962-1.1457 2.9514-1.3219z" fill="#2094f3"/><path d="m4.96262 10.6419c-.88952.5133-.30571 1.2286-.9619 1.5266-.40858.1848-.63429-.2323-1.04191-.3838-.69428-.26-1.50095.3505-1.73905.9772-.11809.3114-.06952.6686.09334.9524.15809.2762.45047.4981.29047.8514-.21428.4714-.736187.3219-1.117139.5248-.5580953.298-.48666674.8447-.48000008 1.3857.00666668.4962.06285718.8324.57333308 1.0466.366667.1543.819996.0334 1.023806.4829.16.3533-.13238.5752-.28952.8514-.20571.3562-.2181.7886 0 1.1429.33619.5419.98381 1.0333 1.64476.7866.37714-.1409.59048-.5028.95048-.4171.55143.1324.41238.7667.61619 1.1505.25714.48.62.4781 1.1.48.47619.0019.93524.06 1.23714-.3914.27524-.4096.08953-1.1.66953-1.2391.30666-.0733.52.1867.76.3238.31523.181.71619.2172 1.04761.0524.58667-.2933 1.13624-1.0191.88194-1.6981-.1515-.4076-.5686-.6333-.38384-1.0419.22854-.5038.77524-.2895 1.20574-.5781.1514-.101.2524-.2143.3209-.3838.1353-.3343.12-1.3981-.0952-1.6905-.4305-.5867-1.30287-.2028-1.46477-.879-.08572-.36.27617-.5734.41717-.9505.2543-.6791-.29527-1.4048-.88194-1.6981-.33142-.1648-.73238-.1286-1.04761.0524-.2762.1581-.4981.4504-.85143.2904-.50381-.2285-.28953-.7752-.5781-1.2057-.34667-.519-1.36-.4543-1.9-.3209zm.56762 3.1962c2.67619-.14 3.5981 3.3095 1.42857 4.5543-.32168.1853-.67849.3014-1.04762.3409-1.72762.1857-3.04571-1.6067-2.51428-3.2095.3419-1.0324 1.1019-1.5181 2.13333-1.6857z" fill="#4caf50"/><path d="m16.381 1.01526c-.4143.17238-.6724.36191-.8429.79429-.1581.39905-.0448.78762-.4962 1.03047-.6581.35619-.9933-.48095-1.519-.69904-.8877-.36762-2.2858.64952-2.3515 1.57333-.0514.73143.6619 1.10762.5286 1.61905-.2914 1.11905-1.5314.05143-2.16286 1.14666-.16666.28858-.18095.62667-.21047.94858-.06191.6619-.16286 1.09619.48666 1.55238.50567.35524 1.24477.12762 1.37807.82857.0857.44955-.3362.69615-.559.97905-.3086.3943-.4.8419-.201 1.3067.2791.6504 1.0619 1.5419 1.8543 1.3762.4667-.0972.7895-.4381 1.0476-.5058.3257-.0847.7562.1838.8457.5048.0839.301-.2514 1.4352.8686 1.7733.2714.0819.4905.0762.7619.1048.6657.0705 1.1229.0819 1.5153-.5886.2352-.4.12-.9733.5857-1.219.6371-.3362.8876.4371 1.519.699.8695.3591 2.2867-.6638 2.3515-1.5733.0514-.7314-.662-1.1076-.5286-1.6191.1971-.76.7724-.5057 1.319-.5914.4915-.0771.8153-.3628.9581-.83713.0819-.27143.0762-.49047.1048-.7619.0705-.66572.0819-1.12286-.5886-1.51524-.4324-.25429-1.0571-.10571-1.259-.67714-.2429-.68381.6628-.81715.8257-1.71238.1457-.79524-.9353-2.09143-1.7553-2.06762-.54.01523-.9571.45714-1.2381.53047-.1809.04762-.3142.00667-.4733-.08285-.7447-.42096-.1124-.98-.5752-1.70953-.3676-.58-1.5686-.709522-2.1895-.60762zm-.2858 4.15524c.4591-.0419 1.0953.00857 1.5238.18095 3.122 1.25334 2.1524 6.07045-1.238 5.87805-.7229-.0409-1.4543-.2666-1.9915-.7714-1.2028-1.12665-1.2933-3.27808-.0952-4.44189.5124-.49714 1.1105-.72952 1.8009-.84571z" fill="#ffc107"/><path d="m28.1943 6.26096c-.8895.51334-.3057 1.22857-.9619 1.52667-.4086.18476-.6343-.23238-1.0419-.38381-.6943-.26-1.501.35048-1.7391.97714-.1181.31143-.0695.66857.0934.95238.1581.27619.4504.4981.2904.85146-.2143.4714-.7362.3219-1.1171.5247-.5581.2981-.4867.8448-.48 1.3857.0067.4962.0629.8324.5733 1.0467.3667.1543.82.0333 1.0238.4829.16.3533-.1323.5752-.2895.8514-.2057.3562-.2181.7886 0 1.1429.3362.5419.9838 1.0333 1.6448.7866.3771-.1409.5905-.5028.9505-.4171.5514.1324.4123.7666.6161 1.1505.2572.48.62.4781 1.1.48.4762.0019.9353.06 1.2372-.3915.2752-.4095.0895-1.1.6695-1.239.3067-.0734.52.1866.76.3238.3152.1809.7162.2171 1.0476.0524.5867-.2934 1.1362-1.0191.8819-1.6981-.1514-.4076-.5685-.6334-.3838-1.0419.2286-.5038.7753-.2896 1.2057-.5781.1515-.101.2524-.2143.321-.3838.1352-.3343.12-1.3981-.0952-1.6905-.4305-.5867-1.3029-.2029-1.4648-.8791-.0857-.35996.2762-.57329.4171-.95043.2543-.67905-.2952-1.40476-.8819-1.6981-.3314-.16476-.7324-.12857-1.0476.05238-.2762.1581-.4981.45048-.8514.29048-.5038-.22857-.2895-.77524-.5781-1.20571-.3467-.51905-1.36-.45429-1.9-.32096zm.5676 3.19619c2.6762-.14 3.5981 3.30955 1.4286 4.55425-.3217.1853-.6785.3015-1.0476.341-1.7277.1857-3.0458-1.6067-2.5143-3.2095.3419-1.0324 1.1019-1.51813 2.1333-1.68575z" fill="#f44336"/><path d="m34.2857 16.3314c-.4314.0905-.8895.1581-1.0724.6229-.1514.3828.0896.82-.2781 1.079-.3.2105-.5704-.04-.9352-.0542-.6038-.0229-1.16.7095-1.1771 1.259-.0229.7705.8942.8305.6533 1.4152-.1343.3267-.4905.2848-.7267.5353-.3714.3781-.2533 1.1609 0 1.5628.4486.6877 1.1362.1181 1.4743.5991.2105.3-.04.5705-.0543.9352-.0209.5562.4915.9514.9734 1.1191.3485.1209.6447.0514.9171-.1934.2143-.1933.3448-.4981.6981-.4276.3476.0695.379.4181.5057.6133.2143.3324.5533.4219.9267.3667.4619-.0676.9666-.2124 1.1019-.7162.0895-.3371-.0943-.7447.2486-.9628.2761-.2162.5533-.0143.84 0 .3885.0723.6552-.0772.8942-.3762.2924-.3648.5219-.8772.2543-1.3181-.1962-.3248-.6371-.4524-.5552-.8629.0781-.3933.5219-.3752.759-.6209.3867-.4.2391-1.3638-.1428-1.7229-.4781-.4486-1.1429.0353-1.3857-.5238-.1181-.2705.0895-.5171.1019-.8505.0219-.5704-.561-1.0209-1.0686-1.1485-.8733-.22-.9486.7638-1.52.6504-.3771-.0752-.3638-.4504-.5581-.6895-.2419-.2971-.5238-.32-.8743-.2905zm.6667 2.7467c.3228-.0333.6581-.0457.9686.0695 2.0438.7553 1.66 4.0105-.8648 3.8905-1.2733-.06-2.1562-1.4886-1.7181-2.6733.2914-.7905.8352-1.1162 1.6143-1.2867z" fill="#03a9f4"/><g fill="#1f2937"><path d="m55.7305 29h-3.5743v-17.1328h9.8204v2.9766h-6.2461v4.4179h5.8125v2.9649h-5.8125z"/><path d="m70.4141 15.6289c1.7578 0 3.1054.3828 4.0429 1.1484.9375.7657 1.4063 1.9297 1.4063 3.4922v8.7305h-2.4961l-.6914-1.7812h-.0938c-.375.4687-.7578.8515-1.1484 1.1484s-.8398.5156-1.3477.6562c-.5078.1407-1.125.211-1.8515.211-.7735 0-1.4688-.1485-2.086-.4453-.6093-.2969-1.0898-.75-1.4414-1.3594-.3515-.6172-.5273-1.3985-.5273-2.3438 0-1.3906.4883-2.414 1.4648-3.0703.9766-.664 2.4414-1.0312 4.3946-1.1015l2.2734-.0703v-.5743c0-.6875-.1797-1.1914-.5391-1.5117-.3593-.3203-.8593-.4805-1.5-.4805-.6328 0-1.2539.0899-1.8632.2696-.6094.1797-1.2188.4062-1.8282.6797l-1.1836-2.4141c.6954-.3672 1.4727-.6563 2.3321-.8672.8672-.2109 1.7617-.3164 2.6836-.3164zm1.8984 7.3008-1.3828.0469c-1.1563.0312-1.9609.2382-2.4141.6211-.4453.3828-.6679.8867-.6679 1.5117 0 .5468.1601.9375.4804 1.1718.3203.2266.7383.3399 1.2539.3399.7657 0 1.4102-.2266 1.9336-.6797.5313-.4531.7969-1.0976.7969-1.9336z"/><path d="m91.5781 15.8984v13.1016h-2.7422l-.4804-1.6758h-.1875c-.2813.4453-.6328.8086-1.0547 1.0899-.4219.2812-.8867.4882-1.3945.6211-.5079.1328-1.0352.1992-1.5821.1992-.9375 0-1.7539-.1641-2.4492-.4922-.6953-.336-1.2383-.8555-1.6289-1.5586-.3828-.7031-.5742-1.6172-.5742-2.7422v-8.543h3.5742v7.6524c0 .9375.168 1.6445.5039 2.1211.3359.4765.8711.7148 1.6055.7148.7265 0 1.2968-.164 1.7109-.4922.4141-.3359.7031-.8242.8672-1.4648.1719-.6485.2578-1.4375.2578-2.3672v-6.1641z"/><path d="m102.77 15.6523c1.398 0 2.523.3829 3.375 1.1485.851.7578 1.277 1.9765 1.277 3.6562v8.543h-3.574v-7.6523c0-.9375-.172-1.6446-.516-2.1211-.336-.4766-.867-.7149-1.594-.7149-1.093 0-1.8396.3711-2.238 1.1133s-.5977 1.8125-.5977 3.2109v6.1641h-3.5742v-13.1016h2.7305l.4805 1.6758h.1992c.2812-.4531.6289-.8203 1.0429-1.1015.4218-.2813.8868-.4883 1.3948-.6211.515-.1328 1.047-.1993 1.594-.1993z"/><path d="m116.504 15.6523c1.211 0 2.254.2344 3.129.7032.875.4609 1.551 1.1328 2.027 2.0156.477.8828.715 1.9609.715 3.2344v1.7343h-8.449c.039 1.0079.34 1.8008.902 2.379.57.5703 1.36.8554 2.367.8554.836 0 1.602-.0859 2.297-.2578.696-.1719 1.41-.4297 2.145-.7734v2.7656c-.649.3203-1.328.5547-2.039.7031-.703.1485-1.559.2227-2.567.2227-1.312 0-2.476-.2422-3.492-.7266-1.008-.4844-1.801-1.2226-2.379-2.2148-.57-.9922-.855-2.2422-.855-3.75 0-1.5313.257-2.8047.773-3.8203.524-1.0235 1.25-1.7891 2.18-2.2969.93-.5156 2.012-.7735 3.246-.7735zm.023 2.543c-.695 0-1.273.2227-1.734.668-.453.4453-.715 1.1445-.785 2.0976h5.015c-.007-.5312-.105-1.0039-.293-1.4179-.179-.4141-.453-.7422-.82-.9844-.359-.2422-.82-.3633-1.383-.3633z"/></g></svg>