<svg fill="none" height="48" viewBox="0 0 153 48" width="153" xmlns="http://www.w3.org/2000/svg" xmlns:xlink="http://www.w3.org/1999/xlink"><clipPath id="a"><path d="m0 0h152.8v48h-152.8z"/></clipPath><g clip-path="url(#a)"><path d="m23.1195 18.2446c-.818.3005-1.3778.784-1.5808 1.6411-.2511 1.056.3415 1.752-1.0011 2.4194-1.5057.7463-1.697-.6148-2.9339-1.1074-1.4118-.5611-2.339.1657-3.286 1.088-.4343.4229-.8802.8057-1.1173 1.3714-.3051.728-.2089 1.64.2547 2.2858.629.8777 1.5444 1.1417.8825 2.4-.6877 1.3051-1.5057.7542-2.4845.9748-1.1278.2537-1.7451 1.1349-1.7603 2.2252-.0176 1.3337-.29342 2.9462 1.0562 3.7725 1.3238.8092 2.5478-.3703 3.2942 1.4846.5094 1.2674-.7534 1.4629-1.2428 2.6286-.5762 1.3748.1702 2.2777 1.1173 3.2.2675.2605.636.6343.9388.84.8204.5588 1.9963.5588 2.8166 0 .8532-.5806 1.1278-1.4423 2.3472-.9143 1.4716.6377.8543 1.3657 1.1184 2.4743.2605 1.0983 1.1654 1.6994 2.285 1.7143 1.2674.016 2.8095.2617 3.7096-.8046 1.129-1.3383-.3086-2.6937 1.6888-3.4309.2265-.0834.4624-.1348.7042-.096.7569.1223 1.0679.936 1.9951 1.3052 1.4094.5611 2.4563-.28 3.4033-1.2023.3662-.3566.7241-.68.9483-1.1429.365-.7508.2852-1.7188-.203-2.4-.5986-.8354-1.4834-1.1097-.9389-2.2857.6666-1.4377 1.393-.8308 2.5408-1.0891.7311-.1646 1.3038-.6412 1.6008-1.3109.149-.3383.1537-.5554.1596-.9143.0176-1.3337.2934-2.9463-1.0563-3.7725-1.3238-.8092-2.5478.3702-3.2942-1.4846-.5093-1.2674.7534-1.4629 1.2428-2.6286.5762-1.3748-.1701-2.2777-1.1172-3.2-.2676-.2606-.6361-.6343-.9389-.84-.8203-.5588-1.9962-.5588-2.8166 0-.7957.5406-1.0902 1.3829-2.2298.9612-1.8355-.68-.7652-1.8606-1.4564-3.0926-.7006-1.248-1.7674-1.1429-3.0032-1.1429-.5504 0-1.102-.0331-1.643.0732zm.9389 8.0743c1.1571-.1063 2.3401.0548 3.4034.5268 3.6662 1.6286 4.7119 6.1303 2.4398 9.2686-.5304.7337-1.0691 1.1817-1.8531 1.6434-.7992.472-1.6582.728-2.5818.8377-5.0699.608-8.7643-4.7885-6.2857-9.1097.3321-.5794.7358-1.1314 1.2404-1.5806 1.0844-.9645 2.2134-1.3748 3.637-1.5862z" fill="#2094f3"/><path d="m6.11523 12.7703c-1.09612.616-.37672 1.4743-1.18531 1.832-.50347.2217-.78161-.2789-1.2839-.4606-.85554-.312-1.84956.4206-2.14296 1.1726-.14552.3737-.08567.8023.11502 1.1428.19481.3315.5551.5977.35794 1.0217-.26406.5658-.90718.3863-1.376612.6298-.6877169.3577-.5996985 1.0137-.59148344 1.6628.00821504.5954.07745624.9989.70649444 1.256.451831.1852 1.010451.04 1.261601.5794.19716.424-.16313.6903-.35677 1.0218-.25349.4274-.26875.9462 0 1.3714.41427.6503 1.21231 1.24 2.02677.944.46474-.1692.72762-.6034 1.17123-.5006.6795.1589.50816.92.75931 1.3806.31686.576.764.5737 1.35548.576.58679.0023 1.15246.072 1.52448-.4697.33917-.4915.11032-1.32.82503-1.4869.37789-.088.64077.224.93655.3886.3884.2171.8825.2606 1.2909.0628.7229-.352 1.4001-1.2228 1.0867-2.0377-.1866-.4891-.7006-.76-.4729-1.2503.2816-.6045.9553-.3474 1.4857-.6937.1866-.1211.311-.2571.3955-.4605.1667-.4012.1479-1.6778-.1173-2.0286-.5305-.704-1.6055-.2434-1.805-1.0549-.1056-.432.3403-.688.514-1.1405.3134-.8149-.3638-1.6858-1.0867-2.0378-.4084-.1977-.9025-.1542-1.2909.0629-.34037.1897-.61382.5406-1.04922.3486-.62082-.2743-.35676-.9303-.71236-1.4469-.42718-.6228-1.67587-.5451-2.34129-.3851zm.69945 3.8354c3.29772-.168 4.43382 3.9714 1.76037 5.4651-.39639.2224-.83608.3618-1.29093.4092-2.12888.2228-3.75311-1.928-3.09825-3.8514.42131-1.2389 1.35783-1.8218 2.62881-2.0229z" fill="#4caf50"/><path d="m20.1856 1.21827c-.5105.20686-.8286.43429-1.0387.95315-.1948.47885-.0551.94514-.6114 1.23657-.8109.42743-1.224-.57715-1.8719-.83886-1.0937-.44114-2.8165.77943-2.8975 1.888-.0634.87771.8156 1.32914.6513 1.94286-.3591 1.34285-1.8871.06171-2.6652 1.376-.2054.34628-.223.752-.2593 1.13828-.0763.79429-.2007 1.31543.5997 1.86283.6231.4263 1.5338.1532 1.6981.9943.1056.5394-.4142.8354-.6889 1.1749-.3802.4731-.4929 1.0103-.2476 1.568.3439.7805 1.3086 1.8503 2.285 1.6514.575-.1166.9729-.5257 1.2909-.6069.4014-.1017.9318.2206 1.0421.6058.1033.3611-.3098 1.7222 1.0703 2.128.3345.0982.6044.0914.9389.1257.8203.0845 1.3837.0983 1.8672-.7063.2898-.48.1478-1.168.7217-1.4629.7852-.4034 1.0938.5246 1.8719.8389 1.0715.4308 2.8177-.7966 2.8976-1.888.0633-.8777-.8157-1.3292-.6514-1.9429.2429-.912.9518-.6068 1.6254-.7097.6056-.0926 1.0046-.4354 1.1806-1.0046.101-.3257.0939-.5885.1291-.9142.0869-.7989.101-1.34747-.7252-1.81833-.5328-.30514-1.3027-.12685-1.5515-.81257-.2993-.82057.8168-.98057 1.0175-2.05486.1795-.95428-1.1525-2.50971-2.1629-2.48114-.6654.01829-1.1795.54857-1.5257.63657-.223.05715-.3873.008-.5832-.09943-.9178-.50514-.1385-1.176-.7089-2.05142-.453-.696-1.9329-.85143-2.698-.72915zm-.3521 4.98629c.5656-.05029 1.3496.01028 1.8777.21714 3.847 1.504 2.6523 7.2846-1.5256 7.0537-.8908-.0491-1.7921-.32-2.454-.9257-1.4822-1.352-1.5937-3.93371-.1174-5.33029.6314-.59657 1.3684-.87542 2.2193-1.01485z" fill="#ffc107"/><path d="m34.7426 7.51313c-1.0961.616-.3767 1.47429-1.1853 1.832-.5034.22171-.7816-.27886-1.2839-.46057-.8555-.312-1.8495.42057-2.1429 1.17254-.1456.3737-.0857.8023.115 1.1429.1948.3314.5551.5977.3579 1.0217-.264.5657-.9072.3863-1.3766.6297-.6877.3577-.5997 1.0137-.5915 1.6629.0082.5954.0775.9988.7065 1.256.4519.1851 1.0105.04 1.2616.5794.1972.424-.1631.6903-.3567 1.0217-.2535.4274-.2688.9463 0 1.3714.4142.6503 1.2123 1.24 2.0267.944.4648-.1691.7276-.6034 1.1713-.5005.6795.1588.5081.92.7593 1.3805.3168.576.764.5738 1.3554.576.5868.0023 1.1525.072 1.5245-.4697.3392-.4914.1103-1.32.825-1.4868.3779-.088.6408.224.9366.3885.3884.2172.8825.2606 1.2909.0629.7229-.352 1.4001-1.2229 1.0867-2.0377-.1866-.4892-.7006-.76-.4729-1.2503.2816-.6046.9553-.3474 1.4857-.6937.1866-.1212.311-.2572.3955-.4606.1667-.4011.1479-1.6777-.1173-2.0286-.5305-.704-1.6055-.2434-1.805-1.0548-.1056-.432.3403-.688.514-1.1406.3134-.8148-.3638-1.6857-1.0867-2.0377-.4084-.19771-.9025-.15428-1.2909.06286-.3404.18971-.6138.54057-1.0492.34857-.6208-.27429-.3568-.93028-.7124-1.44686-.4272-.62285-1.6758-.54514-2.3413-.38514zm.6995 3.83547c3.2977-.168 4.4338 3.9714 1.7604 5.4651-.3964.2224-.8361.3617-1.291.4091-2.1289.2229-3.7531-1.928-3.0982-3.8514.4213-1.2388 1.3578-1.8217 2.6288-2.0228z" fill="#f44336"/><path d="m42.2488 19.5977c-.5316.1086-1.0961.1897-1.3214.7474-.1866.4595.1103.984-.3427 1.2949-.3697.2526-.703-.048-1.1524-.0652-.7441-.0274-1.4295.8515-1.4506 1.5109-.0282.9246 1.102.9966.8051 1.6983-.1655.392-.6044.3417-.8955.6423-.4576.4537-.3121 1.3931 0 1.8754.5528.8251 1.4001.1417 1.8167.7189.2594.36-.0492.6845-.0668 1.1222-.0259.6675.6055 1.1418 1.1994 1.3429.4295.1451.7945.0617 1.1301-.232.2641-.232.4248-.5977.8602-.5131.4284.0834.4671.5017.6232.736.2641.3988.6819.5062 1.1419.44.5692-.0812 1.1912-.2549 1.3578-.8595.1104-.4045-.1161-.8937.3063-1.1554.3404-.2594.6819-.0171 1.0351 0 .4789.0869.8075-.0926 1.102-.4514.3603-.4377.6431-1.0526.3134-1.5817-.2418-.3898-.7851-.5429-.6842-1.0355.0962-.472.6431-.4503.9353-.7451.4765-.48.2946-1.6366-.176-2.0674-.5892-.5383-1.4083.0422-1.7076-.6286-.1455-.3246.1103-.6206.1256-1.0206.027-.6846-.6912-1.2251-1.3168-1.3783-1.0761-.264-1.1688.9166-1.873.7806-.4647-.0903-.4483-.5406-.6877-.8274-.2981-.3566-.6455-.384-1.0774-.3486zm.8216 3.296c.3978-.04.8109-.0549 1.1935.0834 2.5185.9063 2.0455 4.8126-1.0656 4.6686-1.5691-.072-2.657-1.7863-2.1172-3.208.3592-.9486 1.0293-1.3394 1.9893-1.544z" fill="#03a9f4"/><g fill="#1f2937"><path d="m75.2788 35-1.501-4.9277h-7.5473l-1.501 4.9277h-4.7295l7.3066-20.7871h5.3667l7.335 20.7871zm-2.5488-8.6094-1.501-4.8144c-.0944-.321-.2218-.7316-.3823-1.232-.1511-.5097-.3068-1.0242-.4673-1.5434-.151-.5287-.2738-.9865-.3682-1.3736-.0944.3871-.2265.8685-.3965 1.4444-.1604.5664-.3162 1.1045-.4672 1.6142-.1511.5098-.2596.8732-.3257 1.0904l-1.4868 4.8144z"/><path d="m87.3008 35.2832c-1.7653 0-3.2049-.6891-4.3189-2.0674-1.1045-1.3877-1.6567-3.422-1.6567-6.103 0-2.7093.5617-4.7578 1.6851-6.1455 1.1233-1.3972 2.5913-2.0957 4.4038-2.0957.7552 0 1.4207.1038 1.9965.3115.5759.2077 1.0715.4862 1.4869.8355.4248.3492.7835.741 1.0761 1.1752h.1416c-.0566-.302-.1274-.7457-.2124-1.331-.0755-.5947-.1132-1.2036-.1132-1.8267v-5.0693h4.333v22.0332h-3.3135l-.8355-2.0532h-.184c-.2738.4342-.6184.8307-1.0337 1.1894-.406.3493-.8921.6278-1.4585.8355s-1.232.3115-1.9966.3115zm1.5151-3.4409c1.18 0 2.0108-.3493 2.4922-1.0479.4909-.708.7505-1.77.7788-3.186v-.4673c0-1.5387-.236-2.714-.708-3.5259-.472-.8213-1.3499-1.2319-2.6338-1.2319-.9534 0-1.6992.4106-2.2373 1.2319s-.8071 2.0061-.8071 3.5542c0 1.5482.269 2.7141.8071 3.4976.5475.7835 1.3169 1.1753 2.3081 1.1753z"/><path d="m119.232 18.8716c1.794 0 3.148.4625 4.064 1.3877.925.9157 1.388 2.3883 1.388 4.4179v10.3228h-4.333v-9.2466c0-1.1328-.194-1.9871-.581-2.563-.387-.5758-.986-.8637-1.798-.8637-1.143 0-1.954.4106-2.436 1.2319-.481.8118-.722 1.9777-.722 3.4976v7.9438h-4.319v-9.2466c0-.7552-.085-1.3877-.255-1.8974-.17-.5098-.429-.8921-.779-1.147-.349-.2549-.797-.3823-1.345-.3823-.802 0-1.435.2029-1.897.6088-.453.3965-.779.9865-.977 1.7701-.189.7741-.284 1.7228-.284 2.8462v7.4482h-4.318v-15.8311h3.299l.581 2.0249h.24c.321-.5475.722-.9912 1.204-1.331.491-.3399 1.029-.59 1.614-.7505s1.18-.2407 1.784-.2407c1.161 0 2.143.1888 2.946.5664.811.3776 1.435.9629 1.869 1.7558h.382c.472-.8118 1.138-1.4018 1.997-1.77.868-.3681 1.76-.5522 2.676-.5522z"/><path d="m133.449 19.1689v15.8311h-4.319v-15.8311zm-2.153-6.2021c.642 0 1.195.151 1.657.4531.463.2927.694.8449.694 1.6568 0 .8024-.231 1.3593-.694 1.6709-.462.302-1.015.4531-1.657.4531-.651 0-1.208-.1511-1.671-.4531-.453-.3116-.679-.8685-.679-1.6709 0-.8119.226-1.3641.679-1.6568.463-.3021 1.02-.4531 1.671-.4531z"/><path d="m146.986 18.8716c1.69 0 3.049.4625 4.078 1.3877 1.029.9157 1.543 2.3883 1.543 4.4179v10.3228h-4.318v-9.2466c0-1.1328-.208-1.9871-.623-2.563-.406-.5758-1.048-.8637-1.926-.8637-1.322 0-2.223.4484-2.705 1.3452-.481.8968-.722 2.1901-.722 3.8799v7.4482h-4.319v-15.8311h3.299l.581 2.0249h.241c.34-.5475.76-.9912 1.26-1.331.51-.3399 1.071-.59 1.685-.7505.623-.1605 1.265-.2407 1.926-.2407z"/></g></g></svg>