<svg viewBox="0 0 1 1" xmlns="http://www.w3.org/2000/svg"><path d="m.779009.0493826c.078009.0564614.117674.1680084.153373.2740454.034376.106038.064787.207945.067431.316737.002647.108792-.022477.225847-.092553.289194-.070075.064724-.186427.075741-.284268.068856-.097841-.008263-.178494-.035805-.282946-.03856-.105774-.002754-.235348.01928-.2935238-.034427-.059498-.052331-.04495409-.180402-.04495409-.294703.00132218-.112923-.00925525-.21483.02644359-.290571.037021-.077119.1203183-.129449.2036153-.183156.081975-.055085.161306-.1129239.259147-.1404662.096519-.0261652.210227-.02478806.288235.0330508z"/></svg>