<svg viewBox="0 0 1 1" xmlns="http://www.w3.org/2000/svg"><path d="m.220987.950617c-.078009-.056461-.117674-.168008-.1533726-.274045-.0343767-.106038-.06478679-.207945-.06743115-.316737s.02247705-.225847.09255255-.289194c.0700752-.06472442.1864272-.07574123.2842682-.06885566.097841.00826266.178494.03580496.282946.03855916.105775.0027542.235348-.0192796.293524.0344279.059496.0523306.044954.1804016.044954.2947026-.001322.112923.009252.21483-.026443.290571-.037021.077119-.120319.129449-.203616.183156-.081975.055085-.161306.112924-.259147.140466-.096519.026162-.210226.024792-.288235-.033051z"/></svg>