<svg fill="none" height="1" viewBox="0 0 1 1" width="1" xmlns="http://www.w3.org/2000/svg"><path d="m.779009.950617c.078009-.056461.117674-.168008.153373-.274045.034376-.106038.064787-.207945.067431-.316737.002647-.108792-.022477-.225847-.092553-.289194-.070075-.06472442-.186427-.07574123-.284268-.06885566-.097841.00826266-.178494.03580496-.282946.03855916-.105774.0027542-.235348-.0192796-.2935238.0344279-.059498.0523306-.04495409.1804016-.04495409.2947026.00132218.112923-.00925525.21483.02644359.290571.037021.077119.1203183.129449.2036153.183156.081975.055085.161306.112924.259147.140466.096519.026162.210227.024792.288235-.033051z" fill="#000"/></svg>