<svg fill="none" height="1" viewBox="0 0 1 1" width="1" xmlns="http://www.w3.org/2000/svg"><path d="m.76413.0230124c.078598.0356381.135881.1192506.17851.2110866.043961.093207.0746.193268.046625.274139s-.114566.141181-.182506.212457c-.069272.071276-.119894.150777-.198492.208346-.078597.056198-.18517.090469-.267764.05894-.083926-.032897-.145206-.128846-.187835-.219311-.043961-.090466-.0706043-.175449-.1025762-.271398-.0319719-.095948-.0706046-.202862-.0373005-.275509.033304-.072647.1398767-.109655.2317957-.1398107.091919-.0287846.169185-.049345.257107-.0657933.087923-.01644834.185171-.0287846.262436.0068534z" fill="#000"/></svg>