<svg viewBox="0 0 1 1" xmlns="http://www.w3.org/2000/svg"><path d="m.843572.0883152c.065103.0644948.091422.1552658.106659.2340938.015236.078827.020777.146905.033244.23051.012466.084799.031855.18393-.004156.269924-.036014.087188-.126051.160043-.228554.174376-.102503.014331-.217472-.029859-.335212-.060913-.11774-.031053-.239636-.048968-.31305-.108686-.0747995-.059717-.102503-.163626-.102503-.261563s.0249332-.189903.0872661-.252009.1592949-.094354.2451759-.151683c.085881-.056134.160681-.1361562.250717-.1564602.090036-.0214984.19531.0179153.260413.0824104z"/></svg>