<svg version="1.0" xmlns="http://www.w3.org/2000/svg" width="32px" height="32px" viewBox="150 150 1300 1300"><path fill="#32b54f" d="M317.5 500.6c-33.2 6.7-59.6 27-76 58.7-5 9.7-10.7 26.6-13 38.2-2.8 14.8-3.8 41.7-2.1 56.5.8 6.6 3.4 21.8 4.2 24.2.4 1.5.8 3.2 1.9 8.3.8 3.8 7.3 23 10 29.5 28 68.1 85.9 119.3 145.1 128.6 8.5 1.3 28.1 1.2 35.4-.1 11.9-2.2 12.7-2.4 19.8-5.1 29.1-10.9 50.8-32.6 63.5-63.4 3.3-8 7.3-21 8.3-26.9.3-1.4.7-3.3.9-4.1.2-.8.7-4.1 1-7.3.4-3.2.8-6.8 1.1-8 .6-3.2.6-28.4 0-33.7-.3-2.5-.8-6.3-1-8.5-2.9-24.4-10.5-49.4-22.7-74.1-11.6-23.5-25.1-42.6-42.9-60.5-12.6-12.6-15.8-15.5-24-21.4-3-2.2-5.7-4.2-6-4.5-.7-.8-9.6-6.2-17.2-10.3-5.6-3.2-21.8-10.2-25.8-11.3-19.6-5.3-21.7-5.6-37.5-5.9-10.8-.2-18.3.2-23 1.1z"/><path fill="#ffc31b" d="M676.8 229.5c-.1.1-4.6.6-9.8.9-10.3.6-11.4.8-20.5 3.1-3.3.9-6.4 1.7-7 1.8-4.1 1-15.5 5.9-22.7 9.7-35.6 18.6-64.9 55.9-80.3 102.3-4.4 13.1-8.9 31.4-10 40.5-.4 2.6-.8 5.4-1 6.2-2.7 10.1-2.7 60.1-.1 77 .1.8.6 4.2 1 7.5 3.3 24.5 14 58.8 25.7 82.6 2.7 5.5 4.9 10.4 4.9 10.9 0 .4.3 1 .8 1.2.4.1 1.8 2.3 3.1 4.8 3.7 6.8 13.7 21.7 19.5 29 7.3 9.3 9.2 11.4 18.1 20.4 25.2 25.5 53.4 41.5 85 48.1 14.6 3 39.1 2.9 52.8-.4 36.5-8.6 66.8-30.8 90-66.1 6.7-10.3 17.9-33.3 22.2-46 3.6-10.3 8.9-30.5 10-37.9.3-2 .8-4.8 1-6.1 3.6-17.6 4-57.5 1-81.5-5.4-41.4-21.5-87-41.4-117-2.5-3.8-4.8-7.4-5-8-.2-.5-.8-1.4-1.3-2-.4-.5-2.2-2.8-3.9-5-13.2-17.5-27.2-31.8-41.4-42.5-3.3-2.5-6.2-4.8-6.5-5.1-1.5-1.8-21.7-13-29-16.1-10.1-4.3-22.9-8.4-29-9.3-2.5-.4-4.7-.8-5-1-.4-.2-4.7-.7-9.6-1-4.9-.4-9.4-.8-10.1-1-.6-.2-1.3-.2-1.5 0z"/><path fill="#ed2a26" d="M1081.8 339.5c-.2.2-2.5.5-5.3.9-5.5.6-6.1.8-15.5 3-9.9 2.4-26.2 9.6-37 16.5-12.2 7.8-30.4 24.1-40.7 36.6-4.7 5.7-16.5 22.6-18.9 27-.6 1.1-2.4 4.5-4.1 7.5-6.7 12-18 40.1-19.7 49.2-.2 1.3-.9 3.6-1.6 5.3-.6 1.6-1.1 3.1-1 3.3.1.1-.4 2.6-.9 5.5-1.6 7.3-1.8 8.5-2.6 14.7-.4 3-.9 6.3-1 7.2-.9 4.7-1.6 16.6-1.7 27.8 0 16 .6 22.3 3.7 40.5.8 4.8 5.2 21.7 6.5 25 .5 1.1 1.8 4.7 3.1 8 14.7 38.8 45.4 68.6 79.9 77.5 13.8 3.6 31.5 4.4 44.3 2 9.2-1.7 9.1-1.7 10.7-2.2.8-.3 4.7-1.6 8.5-2.8 25.5-8.2 54-29.8 73.8-56 3.1-4.1 6-8 6.4-8.5 4.4-5.4 15.3-25.3 21.6-39.5 6.6-14.8 15.1-45.3 17.2-61.5 2-16.1 2.5-39.4 1.2-53.5-2.8-31.4-14.6-64.4-30.9-86.8-5.6-7.8-22.1-24-28.8-28.3-14.7-9.6-28.7-15.2-44-17.5-4.4-.6-22.7-1.3-23.2-.9z"/><path fill="#00bfbf" d="M1292.7 647.6c-.1.1-3.6.5-7.7.8-7.1.6-22.2 3.8-26.5 5.5-11.6 4.7-18.9 8-23.5 10.4-41.3 21.9-77.3 68.5-89.6 115.7-4.1 16-5.3 26.7-4.9 43.5.4 21.8 4.6 37.5 14.4 54.5 4.6 7.9 20 24.2 25.6 27.2 1.7.8 5 2.7 7.5 4 21.7 11.9 50.5 13.1 79.7 3.3 15.7-5.2 28.4-12.1 42.8-22.9 41-30.9 67.8-76.9 74-127.1.8-5.9.8-26.9 0-30.5-.3-1.4-.8-4.5-1.1-7-2.6-18.9-12.7-39-26.5-52.9-10.1-10.1-26.8-19.5-38.1-21.5-1.5-.2-3.1-.7-3.6-1-1-.6-21.9-2.5-22.5-2z"/><path fill="#0078bf" d="M794.1 794.5c-43.8 5.8-77.9 22.4-108.7 53-11.6 11.6-18.5 19.8-27.8 33-3.1 4.4-6 8.5-6.5 9-1.7 2.2-13.1 21.6-13.1 22.5 0 .4-.3 1-.7 1.2-1.1.4-3 4-14.3 26.8-12.7 25.4-17.4 35.7-36.5 80-3.4 8-7.4 17-8.8 20-1.3 3-3.9 8.9-5.7 13-1.8 4.1-5.1 11.3-7.3 16-11.5 24.5-11.9 25.6-24.7 54.5-1.2 2.7-3.2 7.8-4.5 11.3-1.4 3.4-3.1 7.7-3.9 9.5-7 15.2-19.9 58.5-22.1 73.7-.4 2.4-.8 4.8-1.1 5.1-.8 1.3-1.8 18.7-1.6 28.7.1 9.9 1.7 19.9 4.6 29.2 6.6 21.6 23.4 39.8 48.6 52.6 4.1 2.1 7.7 3.9 8 3.9.3.1 1.9.7 3.5 1.4 5.5 2.4 19.8 7.1 27.5 9.1 13.9 3.6 19.4 4.8 35.5 7.5 1.1.2 5.8.9 10.5 1.5s10.1 1.3 12 1.5c1.9.3 6.2.7 9.5 1 3.3.3 7.9.7 10.3.9 30.8 2.8 122.6 2.9 162.2.1 27.3-1.9 28.1-2 47-4 2.9-.3 10.9-1.3 16.5-2 3.2-.5 18.8-3 37-6 3.3-.6 15.5-3.4 24-5.5 4.4-1.1 9.1-2.3 10.4-2.6 1.3-.3 3.9-1.1 5.7-1.9 1.9-.8 3.4-1.2 3.4-1 0 .6 22.7-7.6 31.9-11.4 16-6.7 38.4-20.1 48.9-29.4 11.7-10.2 21.5-22.4 28.1-34.7 4.1-7.7 9.6-22.9 10.6-29.2.3-1.8.9-5.7 1.4-8.7.9-5.9.7-31.4-.4-37.1-.3-1.9-1-6-1.6-9-2-11.6-3.9-19.2-8.6-33-5.3-15.7-10.2-27-23.3-53.5-13.3-27.1-21-43-21-43.8 0-.3-1.5-3.8-3.4-7.9-4-8.7-14.1-33.1-26.1-62.8-4.7-11.8-9.2-22.9-10-24.5-.7-1.7-2.5-5.9-4-9.5-1.4-3.6-3.2-7.9-3.9-9.5-.8-1.7-2.6-5.9-4.2-9.5-10.3-23.6-26-52-37.1-66.8-25.7-34.4-57.5-54.3-97.8-61.1-3.3-.5-7.6-1.3-9.5-1.6-7.5-1.4-48.4-1.3-58.9 0z"/></svg>