<?xml version="1.0" standalone="no"?>
<!DOCTYPE svg PUBLIC "-//W3C//DTD SVG 20010904//EN"
 "http://www.w3.org/TR/2001/REC-SVG-20010904/DTD/svg10.dtd">
<svg version="1.0" xmlns="http://www.w3.org/2000/svg"
 width="400.000000pt" height="400.000000pt" viewBox="0 0 400.000000 400.000000"
 preserveAspectRatio="xMidYMid meet">
<metadata>
Created by potrace 1.11, written by Peter Selinger 2001-2013
</metadata>
<g transform="translate(0.000000,400.000000) scale(0.100000,-0.100000)"
fill="#000000" stroke="none">
<path d="M2189 3956 c-2 -2 -38 -6 -79 -9 -107 -9 -181 -24 -299 -63 -579
-192 -1070 -787 -1256 -1524 -106 -419 -106 -878 0 -1240 134 -456 381 -783
715 -946 106 -52 108 -53 203 -82 l68 -21 -6 157 c-10 260 -14 315 -30 370
-20 67 -37 95 -110 177 -78 87 -114 145 -166 264 -73 166 -118 314 -134 436
-3 28 -19 77 -34 110 -63 134 -177 416 -242 598 -74 209 -103 381 -70 421 36
43 88 16 526 -273 55 -36 111 -74 125 -83 24 -16 28 -16 114 23 79 35 216 82
278 95 27 6 103 21 138 29 121 25 221 34 375 36 98 1 179 -5 280 -21 l50 -8
195 192 c107 106 220 211 250 233 61 45 119 68 150 58 28 -9 58 -51 71 -98 10
-38 13 -273 5 -327 -3 -14 -7 -61 -11 -105 -3 -44 -8 -93 -9 -110 -2 -16 -7
-66 -11 -110 -3 -44 -8 -87 -10 -95 -2 -8 -7 -44 -10 -80 -3 -36 -8 -81 -10
-100 -2 -19 -7 -62 -10 -95 -3 -33 -7 -80 -10 -105 -2 -25 -7 -70 -10 -100 -4
-30 -8 -62 -10 -70 -2 -8 -6 -37 -10 -63 -10 -82 -63 -273 -99 -360 -32 -76
-33 -83 -18 -95 25 -19 63 -26 81 -15 29 18 178 335 225 477 44 132 109 401
120 496 38 321 18 683 -50 916 -8 28 -16 60 -18 70 -8 36 -59 170 -96 249
-161 348 -421 603 -728 715 -101 37 -245 66 -336 69 -39 1 -73 4 -77 6 -3 3
-8 3 -10 1z"/>
<path d="M3125 2738 c-239 -191 -421 -387 -408 -439 3 -11 42 -48 87 -82 98
-74 186 -155 237 -220 22 -27 39 -43 40 -35 0 7 2 22 4 33 2 11 7 43 10 70 3
28 8 61 10 75 2 14 7 50 11 80 15 135 37 306 49 376 2 12 7 48 10 80 4 33 9
67 11 76 5 31 -10 27 -61 -14z"/>
<path d="M830 2495 c0 -18 47 -177 81 -275 113 -322 193 -546 200 -554 4 -5
31 38 59 95 29 57 77 137 109 178 106 139 102 131 86 160 -38 73 -216 214
-447 354 -77 47 -88 52 -88 42z"/>
<path d="M2516 1597 c-72 -41 -95 -122 -56 -202 36 -75 131 -103 212 -61 52
26 80 71 80 130 0 123 -128 196 -236 133z m105 -52 c35 -13 52 -77 32 -118
-37 -74 -152 -55 -167 28 -14 73 58 122 135 90z"/>
<path d="M1654 1509 c-54 -27 -87 -77 -86 -134 2 -76 37 -124 107 -148 104
-35 209 41 207 150 -3 112 -126 184 -228 132z m109 -51 c43 -22 56 -59 41
-114 -7 -26 -53 -54 -89 -54 -36 0 -85 50 -85 87 0 68 74 113 133 81z"/>
<path d="M2193 1200 c-40 -16 -56 -77 -29 -112 17 -23 68 -33 95 -18 53 28 46
109 -11 129 -17 6 -31 11 -32 10 -1 0 -11 -4 -23 -9z"/>
<path d="M2600 1099 c-22 -40 -4 -50 110 -65 51 -7 247 -6 293 1 47 7 48 8 44
39 -3 24 -8 30 -23 28 -10 -1 -71 -5 -134 -7 -100 -4 -168 1 -257 20 -15 4
-26 -1 -33 -16z"/>
<path d="M1805 1064 c-46 -13 -301 -15 -344 -3 -9 3 -17 -7 -21 -28 -7 -32 -7
-32 39 -39 118 -18 411 1 411 27 0 17 -20 59 -27 58 -5 -1 -30 -8 -58 -15z"/>
<path d="M2580 991 c0 -29 3 -30 73 -46 146 -32 266 -47 350 -43 64 3 79 13
70 49 -4 14 -21 17 -101 17 -54 1 -135 8 -182 17 -222 44 -210 43 -210 6z"/>
<path d="M2220 978 c-91 -14 -114 -17 -146 -17 -17 -1 -31 -6 -31 -13 0 -7 -4
-34 -8 -60 -6 -39 -4 -48 11 -56 11 -5 33 -8 49 -6 91 11 115 16 120 24 3 5
22 6 43 2 49 -9 179 -9 187 0 4 4 0 33 -8 65 l-14 58 -63 2 c-34 1 -68 4 -74
6 -6 2 -36 -1 -66 -5z"/>
<path d="M1770 959 c-84 -20 -180 -32 -285 -33 l-70 -1 -3 -33 -3 -32 123 4
c68 2 150 9 183 15 54 9 185 41 193 47 2 1 0 13 -4 28 -8 31 -26 32 -134 5z"/>
<path d="M2566 928 c-3 -13 -6 -26 -6 -29 0 -7 119 -57 150 -64 8 -2 30 -9 49
-14 19 -6 72 -13 118 -17 l83 -6 0 31 c0 25 -4 31 -22 32 -13 0 -32 2 -43 4
-11 2 -36 6 -55 9 -63 9 -90 16 -172 46 -45 17 -85 30 -89 30 -4 0 -9 -10 -13
-22z"/>
<path d="M1835 888 c-27 -11 -72 -27 -100 -35 -50 -14 -71 -18 -160 -31 -44
-6 -49 -10 -52 -36 l-4 -28 78 5 c96 7 153 19 241 54 84 33 88 36 74 68 -14
30 -13 30 -77 3z"/>
</g>
</svg>
