<svg viewBox="0 0 24 24" xmlns="http://www.w3.org/2000/svg"><path d="m11.2886 2.2132c.4297-.28515.9922-.28515 1.4219 0l.6953.45703c.2344.15235.5078.22657.7852.21094l.832-.05078c.5156-.03125 1 .25 1.2305.71094l.375.74609c.125.25.3281.44922.5742.57422l.7539.37891c.4609.23046.7422.71484.7109 1.23046l-.0507.83204c-.0157.27734.0586.55468.2109.78515l.4609.69531c.2852.42969.2852.99219 0 1.42189l-.4609.6992c-.1523.2344-.2266.5078-.2109.7852l.0507.832c.0313.5156-.25 1-.7109 1.2305l-.7461.375c-.25.125-.4492.3281-.5742.5742l-.3789.7539c-.2305.4609-.7149.7422-1.2305.7109l-.832-.0508c-.2774-.0156-.5547.0586-.7852.211l-.6953.4609c-.4297.2852-.9922.2852-1.4219 0l-.6992-.4609c-.2343-.1524-.5078-.2266-.78513-.211l-.83203.0508c-.51562.0313-1-.25-1.23047-.7109l-.375-.7461c-.125-.25-.32812-.4492-.57422-.5742l-.7539-.3789c-.46094-.2305-.74219-.7149-.71094-1.2305l.05078-.832c.01563-.2774-.05859-.5547-.21094-.7852l-.45703-.6992c-.28515-.42969-.28515-.99219 0-1.42188l.45703-.69531c.15235-.23438.22657-.50781.21094-.78516l-.05078-.83203c-.03125-.51562.25-1 .71094-1.23047l.74609-.375c.25-.1289.45313-.33203.57813-.58203l.375-.74609c.23047-.46094.71484-.74219 1.23047-.71094l.83203.05078c.27733.01563.55473-.05859.78513-.21094zm3.836 7.28516c0-.8288-.3293-1.62366-.9153-2.20971-.5861-.58605-1.3809-.91529-2.2097-.91529s-1.6237.32924-2.20973.91529c-.58605.58605-.91529 1.38091-.91529 2.20971 0 .82884.32924 1.62364.91529 2.20974.58603.586 1.38093.9153 2.20973.9153s1.6236-.3293 2.2097-.9153c.586-.5861.9153-1.3809.9153-2.20974zm-10.57424 9.75784 1.68359-4.0039c.00782.0039.01172.0078.01563.0156l.375.7461c.45703.9062 1.40625 1.457 2.42187 1.3984l.83204-.0508c.00781 0 .01953 0 .02734.0079l.69527.4609c.1993.1289.4102.2305.6289.3008l-1.4687 3.4883c-.08985.2148-.28906.3593-.51953.3789-.23047.0195-.45313-.086-.57813-.2813l-1.25781-1.9258-2.19141.3242c-.22265.0313-.44531-.0585-.58593-.2343-.14063-.1758-.16797-.418-.08204-.625zm9.68754 2.3593-1.4688-3.4843c.2188-.0703.4297-.168.6289-.3008l.6953-.4609c.0078-.004.0157-.0079.0274-.0079l.832.0508c1.0156.0586 1.9648-.4922 2.4219-1.3984l.375-.7461c.0039-.0078.0078-.0117.0156-.0156l1.6875 4.0039c.0859.207.0547.4453-.082.625s-.3633.2695-.586.2343l-2.1914-.3242-1.2578 1.9219c-.125.1953-.3476.3008-.5781.2813-.2305-.0196-.4297-.168-.5195-.379z"/></svg>