<svg viewBox="0 0 24 24" xmlns="http://www.w3.org/2000/svg"><path d="m11.0045 2.27863c.6132-.37109 1.3789-.37109 1.9921 0l.6407.39063c.1093.0664.2343.10156.3633.09765l.75-.01953c.7148-.01562 1.3828.36719 1.7265.9961l.3594.65625c.0625.11328.1523.20312.2656.26562l.6563.35938c.6289.34375 1.0117 1.00781.9961 1.72656l-.0196.75c-.0039.1289.0313.2539.0977.36328l.3906.64063c.3711.61328.3711 1.3789 0 1.9922l-.3906.6406c-.0664.1094-.1016.2344-.0977.3633l.0196.75c.0156.7148-.3672 1.3828-.9961 1.7266l-.6563.3593c-.1133.0625-.2031.1524-.2656.2657l-.3594.6562c-.3437.6289-1.0078 1.0117-1.7265.9961l-.75-.0195c-.129-.0039-.254.0312-.3633.0976l-.6407.3906c-.6132.3711-1.3789.3711-1.9921 0l-.6407-.3906c-.1093-.0664-.2343-.1015-.3632-.0976l-.75004.0195c-.71485.0156-1.38282-.3672-1.72657-.9961l-.35937-.6562c-.0625-.1133-.15235-.2032-.26563-.2657l-.65625-.3593c-.6289-.3438-1.01172-1.0079-.99609-1.7266l.01953-.75c.00391-.1289-.03125-.2539-.09766-.3633l-.39062-.6406c-.37109-.6133-.37109-1.37892 0-1.9922l.39062-.64063c.06641-.10938.10157-.23438.09766-.36328l-.01953-.75c-.01563-.71485.36719-1.38281.99609-1.72656l.65625-.35938c.11328-.0625.20313-.15234.26563-.26562l.35937-.65625c.34375-.62891 1.00782-1.01172 1.72657-.9961l.75004.01953c.1289.00391.2539-.03125.3632-.09765zm1.3437 1.06641c-.2109-.12891-.4805-.12891-.6914 0l-.6406.39062c-.3125.19141-.6758.28907-1.04299.27735l-.75-.01953c-.25-.00782-.48047.1289-.59765.34765l-.35938.66016c-.17578.32031-.44141.58594-.76172.76172l-.66015.35937c-.21875.1211-.35157.35156-.34766.59766l.01953.75c.00781.36719-.08984.72656-.27734 1.04297l-.39063.64062c-.1289.21094-.1289.48047 0 .69141l.39063.64066c.1914.3125.28906.6757.27734 1.0429l-.01953.75c-.00781.25.12891.4805.34766.5977l.65625.3594c.32031.1757.58593.4414.76171.7617l.35938.6562c.12109.2188.35156.3516.59766.3477l.75-.0195c.36719-.0079.72659.0898 1.04299.2773l.6406.3906c.2109.1289.4805.1289.6914 0l.6406-.3906c.3125-.1914.6758-.2891 1.043-.2773l.75.0195c.25.0078.4805-.1289.5977-.3477l.3593-.6562c.1758-.3203.4414-.586.7617-.7617l.6563-.3594c.2187-.1211.3516-.3516.3477-.5977l-.0196-.75c-.0078-.3672.0899-.7265.2774-1.0429l.3906-.64066c.1289-.21094.1289-.48047 0-.69141l-.3906-.64062c-.1914-.3125-.2891-.67578-.2774-1.04297l.0196-.75c.0078-.25-.129-.48047-.3477-.59766l-.6563-.35937c-.3203-.17578-.5859-.44141-.7617-.76172l-.3593-.66016c-.1211-.21875-.3516-.35156-.5977-.34765l-.75.01953c-.3672.00781-.7266-.08985-1.043-.27735l-.6406-.39062zm-.3476 3.96484c-.2873 0-.5718.05658-.8372.16652-.2654.10993-.5065.27106-.7096.47419-.2032.20312-.3643.44427-.47423.70967s-.16651.54986-.16651.83712c0 .28727.05658.57172.16651.83712s.27103.5066.47423.7097c.2031.2031.4442.3642.7096.4742.2654.1099.5499.1665.8372.1665.2872 0 .5717-.0566.8371-.1665.2654-.11.5065-.2711.7097-.4742.2031-.2031.3642-.4443.4741-.7097.11-.2654.1666-.54985.1666-.83712 0-.28726-.0566-.57172-.1666-.83712-.1099-.2654-.271-.50655-.4741-.70967-.2032-.20313-.4443-.36426-.7097-.47419-.2654-.10994-.5499-.16652-.8371-.16652zm3.4375 2.1875c0 .91172-.3622 1.78602-1.0069 2.43072-.6446.6446-1.519 1.0068-2.4306 1.0068-.9117 0-1.7861-.3622-2.43072-1.0068-.64466-.6447-1.00682-1.519-1.00682-2.43072 0-.91168.36216-1.78602 1.00682-2.43068.64462-.64465 1.51902-1.00682 2.43072-1.00682.9116 0 1.786.36217 2.4306 1.00682.6447.64466 1.0069 1.519 1.0069 2.43068zm-10.88676 9.75782 1.60937-3.8242c.0586.0703.14063.1875.26953.4219.15625.289.35547.5468.58594.7656l-.88281 2.0976 1.48828-.2226c.24219-.0352.48047.0703.61328.2773l.83203 1.2735 1.01564-2.4141c.0703.0352.1601.0859.2695.1523.2735.168.5664.2891.8672.3633l-1.45703 3.4649c-.08984.2148-.28906.3593-.51953.3789-.23047.0195-.45312-.086-.57812-.2813l-1.25781-1.9179-2.19141.3242c-.22266.0312-.44531-.0586-.58594-.2344-.14062-.1758-.16797-.418-.08203-.625zm9.68746 2.3594-1.457-3.4649c.3008-.0781.5938-.1992.8672-.3633.1094-.0664.1992-.1171.2695-.1523l1.0156 2.4141.8321-1.2735c.1328-.2031.375-.3125.6133-.2773l1.4882.2226-.8828-2.0976c.2305-.2188.4297-.4766.586-.7656.1289-.2344.2109-.3516.2695-.4219l1.6094 3.8242c.0859.207.0547.4453-.0821.625-.1367.1797-.3632.2695-.5859.2344l-2.1914-.3242-1.2578 1.9218c-.125.1953-.3477.3008-.5781.2813-.2305-.0195-.4297-.168-.5196-.3789z"/></svg>