<svg fill="none" height="40" viewBox="0 0 40 40" width="40" xmlns="http://www.w3.org/2000/svg"><path d="m14.7498 32.1719 2.439-2.4391-4.6906-4.1476-4.08513 4.0843c-1.09844 1.0961-1.22032 2.8383-.28829 4.0805l3.75002 5c.6172.8203 1.5547 1.25 2.5 1.25.6519 0 1.3109-.2038 1.8726-.625 1.3821-1.0352 1.6602-2.9945.625-4.375zm5.25-19.7422c3.457 0 6.2492-2.79298 6.2492-6.1797s-2.7883-6.25-6.2492-6.25c-3.461 0-6.25 2.79297-6.25 6.17969s2.7969 6.25001 6.25 6.25001zm14.4297-1.1016c-.9961-1.4156-2.9399-1.74841-4.3563-.7617l-3.1742 2.2266c-4.1117 2.8906-9.6953 2.8906-13.8125 0l-3.17422-2.2266c-1.40937-.98827-3.35234-.64452-4.34843.7617-.98672 1.4141-.64453 3.3594.76172 4.3594l3.17421 2.2266c.94532.6562 1.96092 1.1718 3.00002 1.6328v2.9531h15v-2.9461c1.0352-.4584 2.0484-.975 2.9953-1.6437l3.1742-2.2266c1.4164-.9961 1.7524-2.9414.7602-4.3555zm-6.9297 14.25-4.6906 4.1477 2.439 2.439-2.1234 2.8352c-1.0352 1.3805-.757 3.3398.625 4.375.5625.4219 1.2187.625 1.8047.625.95 0 1.8898-.4309 2.5023-1.25l3.75-5c.9328-1.2438.811-2.9844-.2905-4.0844z" fill="#1f2937"/></svg>