<svg viewBox="0 0 24 24" xmlns="http://www.w3.org/2000/svg"><g><path d="m11.3801 8.00061c0 1.31443-1.0655 2.37999-2.37998 2.37999-1.31444 0-2.38-1.06556-2.38-2.37999 0-1.31444 1.06556-2.38 2.38-2.38 1.31448 0 2.37998 1.06556 2.37998 2.38z"/><path clip-rule="evenodd" d="m7.81 2.00049h8.38c3.64 0 5.81 2.17 5.81 5.81v8.38001c0 3.64-2.17 5.81-5.81 5.81h-8.38c-2.55 0-4.39-1.07-5.25-2.97-.37-.8-.56-1.75-.56-2.84v-8.38001c0-3.64 2.17-5.81 5.81-5.81zm9.74 10.50001c.78-.67 2.04-.67 2.82 0l.13.11v-4.80001c0-2.82-1.49-4.31-4.31-4.31h-8.38c-2.82 0-4.31 1.49-4.31 4.31v8.38001c0 .76.13 1.41.35 1.97l3.74-2.51c.8-.54 1.93-.48 2.64.14l.34.28c.78.67 2.04.67 2.82 0z" fill-rule="evenodd"/></g></svg>