<svg viewBox="0 0 24 24" xmlns="http://www.w3.org/2000/svg"><g><path d="m9.2 16.8005 1.85-1.85c.4-.4.39-1.04-.01-1.43-.05-.05-.1025-.1-.155-.15s-.105-.1-.155-.15c-.52-.53-1-1.06-1.45-1.58-.44-.52-.75-.95-.93-1.28-.01083-.0325-.02459-.065-.03969-.1006-.01279-.0302-.02655-.0627-.04031-.0994-.02-.08-.03-.15-.03-.23001 0-.16.05-.29.16-.4l.76-.79c.24-.24.43-.48.56-.71.14-.23.21-.47.21-.71 0-.19-.05-.4-.14-.61-.09-.22-.22-.45-.4-.7l-2.32-3.27c-.18-.26-.41-.44-.67-.56-.25-.12-.53-.18-.81-.18-.74 0-1.44.31-2.08.94-.53.5-.91 1.06-1.15 1.67-.24.6-.36 1.25-.36 1.93 0 1.04.24 2.13.71 3.27.48 1.13001 1.14 2.27001 1.96 3.41001.83 1.14 1.76 2.23 2.79 3.27.055.055.11.1075.165.16s.11.105.165.16c.4.38 1.02.38 1.41-.01z"/><path d="m21.8201 19.1805c.1-.28.15-.57.15-.85s-.06-.53-.16-.78c-.11-.25-.29-.46-.55-.64l-3.31-2.35c-.25-.17-.48-.3-.7-.39s-.42-.13-.61-.13c-.25 0-.48.07-.71.21-.23.12-.47.31-.72.56l-.76.75c-.11.11-.24.17-.41.17-.09 0-.17-.01-.25-.04-.0321-.0137-.0621-.0275-.09-.0403-.0329-.0151-.0629-.0288-.09-.0397-.21-.11-.46-.27-.74-.48l-3.27 3.27c.37.31.76.6 1.15.89 1.14.83 2.29 1.49 3.44 1.98s2.24.73 3.26.73c.69 0 1.33-.13 1.92-.37.005 0 .01-.0025.015-.005s.01-.005.015-.005c.61-.25 1.15-.64 1.64-1.18.29-.32.51-.66.68-1.02.04-.08.07-.16.1-.24z"/></g></svg>