<svg viewBox="0 0 24 24" xmlns="http://www.w3.org/2000/svg"><g><path d="m9.52977 2.53049c-.45 1.32-.77 2.69-1.02 4.06 2.32003-.26 4.66003-.26 6.98003 0-.25-1.37-.57-2.73-1.02-4.06-.0138-.05523-.0181-.10093-.0227-.15027-.0021-.02207-.0042-.04502-.0073-.06973-.78-.19-1.6-.31-2.44-.31-.85 0-1.66.12-2.45003.31-.00398.03181-.0048.06046-.00559.08847-.00121.04241-.00237.08334-.01441.13153z"/><path d="m17.2 6.80047c1.29.22 2.56.53 3.82.91-.99-2.07-2.66-3.74-4.73-4.73.39 1.25.7 2.53.91 3.82z"/><path d="m7.60006 20.9203c-.01749.005-.03501.01-.05.01-1.94-.96-3.52-2.55-4.49-4.49 0-.015.005-.0325.01-.05s.01-.035.01-.05c1.22.36 2.48.63 3.73.84.22 1.26.48 2.51.84 3.73-.01499 0-.03251.005-.05.01z"/><path d="m20.94 16.4503c-.99 1.99-2.64 3.6-4.65 4.57.38-1.27.7-2.55.91-3.84 1.26-.21 2.5-.48 3.72-.84-.006.0241.0025.0482.0102.0701.0051.0144.0098.028.0098.0399z"/><path d="m7.64998 3.09055c-.36 1.22-.62 2.46-.83 3.72-1.29.2-2.57.52-3.84.9.97-2.01 2.58-3.66 4.57-4.65.015 0 .0325.0075.05.015s.035.015.05.015z"/><path d="m6.59 15.4903c-1.38-.25-2.74-.57-4.06-1.02-.04818-.0121-.08911-.0133-.13152-.0145-.028-.0008-.05667-.0016-.08848-.0055-.19-.79-.31-1.6-.31-2.45 0-.84.12-1.66.31-2.44005.02476-.00309.04761-.00523.06972-.0073.04933-.00461.09505-.00889.15028-.0227 1.33-.44 2.68-.77 4.06-1.02-.25 2.32005-.25 4.66005 0 6.98005z"/><path d="m21.6902 14.4503c.19-.79.31-1.6.31-2.45 0-.84-.12-1.65-.31-2.44005-.08 0-.14-.01-.22-.03-1.32-.45-2.69-.77-4.06-1.02.26 2.32005.26 4.66005 0 6.98005 1.37-.25 2.73-.58 4.06-1.02.0481-.0121.0891-.0133.1315-.0145.028-.0008.0566-.0016.0885-.0055z"/><path d="m15.4898 17.4106c-.25 1.38-.57 2.74-1.02 4.06-.0138.0553-.0181.101-.0227.1503-.0021.0221-.0042.045-.0073.0697-.78.19-1.6.31-2.44.31-.85 0-1.66-.12-2.45003-.31-.00398-.0318-.0048-.0604-.00559-.0884-.00121-.0424-.00237-.0834-.01441-.1316-.44-1.33-.77-2.68-1.02-4.06 1.16.13 2.32003.22 3.49003.22s2.34-.09 3.49-.22z"/><path d="m8.23667 15.7638c2.50113.3156 5.02553.3156 7.52663 0 .3156-2.5011.3156-5.0255 0-7.52664-2.5011-.31556-5.0255-.31556-7.52663 0-.31556 2.50114-.31556 5.02554 0 7.52664z"/></g></svg>