<svg viewBox="0 0 24 24" xmlns="http://www.w3.org/2000/svg"><path d="m7.41667 4.22656c1.54861 0 3.11453.29861 4.58333.78472 1.4688-.48611 3.0347-.78472 4.5833-.78472 1.9236 0 3.7223.50695 4.4757.75.5834.1875.941.7257.941 1.30209v10.81245c0 .9341-.8715 1.5556-1.7014 1.4098-.6424-.1111-1.7812-.25-3.4375-.25-2.0451 0-3.3958.8437-3.8611 1.184-.2604.191-.5972.3333-.9792.3437-.0069 0-.0173 0-.0243 0-.0034 0-.0034 0-.0069 0s-.007 0-.0104 0c-.3542 0-.6806-.118-.9375-.2916-.5174-.3472-2.02781-1.2327-3.90281-1.2327-1.56945 0-2.78125.1528-3.47222.2674-.83334.1389-1.66667-.4896-1.66667-1.3958v-10.84725c0-.57639.35764-1.11459.94097-1.30209.75347-.24305 2.55209-.75 4.4757-.75zm5.13893 14.16664c.7048-.4687 2.1909-1.25 4.3055-1.25 1.7188 0 2.9202.1459 3.625.2639.0868.0139.1979-.0104.2847-.0798.0764-.0625.1181-.1389.1181-.2362v-10.81245c0-.12153-.0729-.21181-.1701-.24306-.7119-.22917-2.382-.69792-4.1355-.69792-1.3402 0-2.7118.24653-4.0277.65973zm-1.1112-12.3958c-1.3159-.41667-2.68746-.65973-4.02773-.65973-1.75348 0-3.42361.46875-4.13542.69445-.09722.03125-.17014.125-.17014.24305v10.85073c0 .0937.0382.1701.10764.2257.07639.0625.17708.0868.26389.0729.73958-.125 2.01389-.2847 3.65625-.2847 1.97222 0 3.56941.8229 4.30551 1.2812z"/></svg>