<svg viewBox="0 0 24 24" xmlns="http://www.w3.org/2000/svg"><path d="m10.6667 19.6159c.375.1319.7777-.1424.7777-.5382v-13.10418c0-.14583-.0555-.29166-.1736-.38194-.6805-.54167-2.24302-1.23611-4.2708-1.23611-1.75347 0-3.39236.4618-4.37153.8368-.39236.15278-.62847.54167-.62847.96181v12.85762c0 .4132.44444.7014.83681.5729 1.09375-.3645 2.82638-.7847 4.16319-.7847 1.17708 0 2.74306.4861 3.6667.816zm2.6666 0c.9236-.3299 2.4896-.816 3.6667-.816 1.3368 0 3.0694.4202 4.1632.7847.3924.132.8368-.1597.8368-.5729v-12.85762c0-.42014-.2361-.80903-.6285-.95833-.9791-.37848-2.618-.84028-4.3715-.84028-2.0278 0-3.5903.69444-4.2708 1.23611-.1146.09028-.1736.23611-.1736.38194v13.10418c0 .3958.4062.6701.7777.5382z"/></svg>