<svg viewBox="0 0 24 24" xmlns="http://www.w3.org/2000/svg"><path d="m2 9.50391c0-1.37891 1.12109-2.5 2.5-2.5h.0625c.28906-1.42579 1.55078-2.5 3.0625-2.5.58594 0 1.13281.16015 1.59766.4375.51953-1 1.57034-1.6875 2.77734-1.6875s2.2578.6875 2.7773 1.6875c.4649-.27735 1.0118-.4375 1.5977-.4375 1.5117 0 2.7734 1.07421 3.0625 2.5h.0625c1.3789 0 2.5 1.12109 2.5 2.5 0 .45703-.1211.88279-.3359 1.24999h-19.32816c-.21485-.3672-.33594-.79296-.33594-1.24999zm0 3.57029c0-.5898.48047-1.0703 1.07031-1.0703h17.85939c.5898 0 1.0703.4805 1.0703 1.0703 0 2.7539-1.7344 5.1055-4.168 6.0196l-.0703.5664c-.0781.625-.6094 1.0937-1.2422 1.0937h-9.04294c-.6289 0-1.16406-.4687-1.24218-1.0937l-.07032-.5625c-2.42969-.918-4.16406-3.2696-4.16406-6.0235z"/></svg>