<svg viewBox="0 0 24 24" xmlns="http://www.w3.org/2000/svg"><path d="m9.96094 5.83984c.39456-.80859 1.17186-1.33593 2.03906-1.33593s1.6445.52734 2.0391 1.33593c.0781.16016.2187.28125.3906.32813.1719.04687.3555.02344.5039-.07422.3476-.21484.7461-.33984 1.168-.33984 1.0859 0 2.0351.82812 2.2578 1.99218.0586.30079.3242.51563.6289.50782h.0429c.9102 0 1.7188.80078 1.7188 1.87499 0 .3438.2812.625.625.625s.625-.2812.625-.625c0-1.53906-1.0742-2.87109-2.5352-3.09374-.4726-1.45313-1.7812-2.53125-3.3632-2.53125-.4454 0-.8711.08593-1.2618.24218-.6445-.89843-1.6679-1.49218-2.8398-1.49218s-2.19531.59375-2.83984 1.49218c-.39063-.15625-.81641-.24218-1.26172-.24218-1.58203 0-2.89063 1.07812-3.36328 2.53125-1.46094.22265-2.53516 1.55468-2.53516 3.09374 0 .3438.28125.625.625.625s.625-.2812.625-.625c0-1.07421.80859-1.87499 1.71875-1.87499h.04297c.30469.00781.57422-.20703.6289-.50782.22266-1.16406 1.17188-1.99218 2.25782-1.99218.42187 0 .82031.125 1.16406.33984.14844.09375.33594.12109.50391.07422.16797-.04688.3125-.16797.39062-.32813zm-2.91016 12.76956c-.10547-.3516-.35937-.6406-.69531-.7891-1.78125-.7773-3.03125-2.5234-3.10156-4.5664h17.49219c-.0703 2.043-1.3242 3.7891-3.1016 4.5664-.3359.1485-.5937.4375-.6953.7891-.1562.5195-.6328.8945-1.1992.8945h-7.5c-.56641 0-1.04297-.375-1.19922-.8945zm-3.98047-6.6055c-.58984 0-1.07031.4805-1.07031 1.0703 0 2.6328 1.58594 4.8985 3.85156 5.8906.3086 1.0352 1.26563 1.7891 2.39844 1.7891h7.5c1.1328 0 2.0898-.7539 2.3984-1.7851 2.2696-.9922 3.8516-3.2579 3.8516-5.8907 0-.5898-.4805-1.0703-1.0703-1.0703h-17.85939z"/></svg>