<svg viewBox="0 0 24 24" xmlns="http://www.w3.org/2000/svg"><path d="m8.25 2.00391c.69141 0 1.25.55859 1.25 1.25v1.25h5v-1.25c0-.69141.5586-1.25 1.25-1.25s1.25.55859 1.25 1.25v1.25h1.875c1.0352 0 1.875.83984 1.875 1.875v1.875h-17.5v-1.875c0-1.03516.83984-1.875 1.875-1.875h1.875v-1.25c0-.69141.55859-1.25 1.25-1.25zm-5 7.5h17.5v10.62499c0 1.0352-.8398 1.875-1.875 1.875h-13.75c-1.03516 0-1.875-.8398-1.875-1.875zm3.125 2.49999c-.34375 0-.625.2813-.625.625v3.75c0 .3438.28125.625.625.625h3.75c.3438 0 .625-.2812.625-.625v-3.75c0-.3437-.2812-.625-.625-.625z"/></svg>