<svg viewBox="0 0 24 24" xmlns="http://www.w3.org/2000/svg"><path d="m8.25 2.62891c0-.34375-.28125-.625-.625-.625s-.625.28125-.625.625v1.875h-1.25c-1.37891 0-2.5 1.12109-2.5 2.5v1.25 1.25 9.99999c0 1.3789 1.12109 2.5 2.5 2.5h12.5c1.3789 0 2.5-1.1211 2.5-2.5v-9.99999-1.25-1.25c0-1.37891-1.1211-2.5-2.5-2.5h-1.25v-1.875c0-.34375-.2812-.625-.625-.625s-.625.28125-.625.625v1.875h-7.5zm-3.75 6.875h15v9.99999c0 .6914-.5586 1.25-1.25 1.25h-12.5c-.69141 0-1.25-.5586-1.25-1.25zm1.25-3.75h12.5c.6914 0 1.25.55859 1.25 1.25v1.25h-15v-1.25c0-.69141.55859-1.25 1.25-1.25zm1.5625 6.24999h3.125c.1719 0 .3125.1406.3125.3125v3.125c0 .1719-.1406.3125-.3125.3125h-3.125c-.17188 0-.3125-.1406-.3125-.3125v-3.125c0-.1719.14062-.3125.3125-.3125zm-1.5625.3125v3.125c0 .8633.69922 1.5625 1.5625 1.5625h3.125c.8633 0 1.5625-.6992 1.5625-1.5625v-3.125c0-.8633-.6992-1.5625-1.5625-1.5625h-3.125c-.86328 0-1.5625.6992-1.5625 1.5625z"/></svg>