<svg viewBox="0 0 24 24" xmlns="http://www.w3.org/2000/svg"><path d="m7.82422 4.53516-.40625 1.21875h-2.91797c-1.37891 0-2.5 1.12109-2.5 2.5v9.99999c0 1.3789 1.12109 2.5 2.5 2.5h15c1.3789 0 2.5-1.1211 2.5-2.5v-9.99999c0-1.37891-1.1211-2.5-2.5-2.5h-2.918l-.4062-1.21875c-.2539-.76563-.9688-1.28125-1.7774-1.28125h-4.79684c-.80859 0-1.52344.51562-1.77734 1.28125zm4.17578 4.96875c.9946 0 1.9484.39508 2.6517 1.09839.7032.7032 1.0983 1.657 1.0983 2.6516s-.3951 1.9484-1.0983 2.6517c-.7033.7032-1.6571 1.0983-2.6517 1.0983s-1.9484-.3951-2.65165-1.0983c-.70326-.7033-1.09835-1.6571-1.09835-2.6517s.39509-1.9484 1.09835-2.6516c.70325-.70331 1.65705-1.09839 2.65165-1.09839z"/></svg>