<svg viewBox="0 0 24 24" xmlns="http://www.w3.org/2000/svg"><path d="m9.46484 3.25391c-.80859 0-1.52343.51562-1.77734 1.28125l-.41016 1.21875h-2.77734c-1.37891 0-2.5 1.12109-2.5 2.5v9.99999c0 1.3789 1.12109 2.5 2.5 2.5h15c1.3789 0 2.5-1.1211 2.5-2.5v-9.99999c0-1.37891-1.1211-2.5-2.5-2.5h-2.7773l-.4063-1.21875c-.2578-.76563-.9726-1.28125-1.7812-1.28125zm-.59375 1.67578c.08594-.25391.32422-.42578.59375-.42578h5.07036c.2695 0 .5078.17187.5937.42578l.5469 1.64453c.0859.2539.3242.42578.5937.42578h3.2305c.6914 0 1.25.55859 1.25 1.25v10.0039c0 .6914-.5586 1.25-1.25 1.25h-15c-.69141 0-1.25-.5586-1.25-1.25v-9.99999c0-.69141.55859-1.25 1.25-1.25h3.23047c.26953 0 .50781-.17188.59375-.42579l.54687-1.64453zm3.12891 12.69921c.5745 0 1.1434-.1132 1.6742-.333.5308-.2199 1.0131-.5421 1.4194-.9484.4062-.4063.7285-.8886.9484-1.4194.2198-.5308.333-1.0997.333-1.6742s-.1132-1.1434-.333-1.6742c-.2199-.5308-.5422-1.0131-.9484-1.4194-.4063-.40624-.8886-.7285-1.4194-.94837-.5308-.21986-1.0997-.33302-1.6742-.33302s-1.1434.11316-1.6742.33302c-.53084.21987-1.01314.54213-1.41939.94837-.40626.4063-.72852.8886-.94838 1.4194-.21987.5308-.33303 1.0997-.33303 1.6742s.11316 1.1434.33303 1.6742c.21986.5308.54212 1.0131.94838 1.4194.40625.4063.88855.7285 1.41939.9484.5308.2198 1.0997.333 1.6742.333zm-3.125-4.375c0-.8288.32924-1.6237.91529-2.2097.58601-.5861 1.38091-.9153 2.20971-.9153s1.6237.3292 2.2097.9153c.5861.586.9153 1.3809.9153 2.2097s-.3292 1.6237-.9153 2.2097c-.586.5861-1.3809.9153-2.2097.9153s-1.6237-.3292-2.20971-.9153c-.58605-.586-.91529-1.3809-.91529-2.2097z"/></svg>