<svg viewBox="0 0 24 24" xmlns="http://www.w3.org/2000/svg"><path d="m13.1103 9.77995h.5937c.7674 1.32985 2.2049 2.22225 3.8507 2.22225.382 0 .757-.0486 1.1111-.1389v.1389 1.1111 6.6666c0 .6146-.4965 1.1112-1.1111 1.1112s-1.1111-.4966-1.1111-1.1112v-4.8888l-4.7222 3.7777h1.9444c.6146 0 1.1111.4966 1.1111 1.1111 0 .6146-.4965 1.1112-1.1111 1.1112h-4.99997c-1.84028 0-3.33333-1.4931-3.33333-3.3334v-7.76039c0-.55903-.41667-1.03472-.97223-1.10417l-.2743-.03472c-.60764-.07639-1.04167-.63194-.96528-1.23958s.63194-1.04167 1.23958-.96528l.27431.03472c1.66667.20833 2.92014 1.625 2.92014 3.30903v2.96179c1.19444-1.7951 3.23608-2.97915 5.55558-2.97915zm5.5555.92015c-.3472.1215-.7222.191-1.1111.191-.9861 0-1.875-.4306-2.4861-1.11115-.1285-.14236-.243-.29514-.3437-.45833-.3195-.51389-.5035-1.11806-.5035-1.76389v-3.33334-.69444-.04514c0-.20486.1632-.36806.368-.37153h.007c.1146 0 .2222.05556.2917.14583v.00348l.4444.59027.9444 1.26042.1667.22222h2.2222l.1667-.22222.9444-1.26042.4445-.59027v-.00348c.0694-.09027.1771-.14583.2917-.14583h.0069c.2049.00347.3681.16667.3681.37153v.04514.69444 3.33334c0 .60069-.1598 1.16666-.4375 1.65277-.3924.6875-1.0278 1.2222-1.7848 1.4896zm-1.6666-3.14237c0-.14735-.0586-.28865-.1628-.39284-.1041-.10419-.2454-.16272-.3928-.16272-.1473 0-.2886.05853-.3928.16272s-.1627.24549-.1627.39284c0 .14734.0585.28865.1627.39283.1042.10419.2455.16272.3928.16272.1474 0 .2887-.05853.3928-.16272.1042-.10418.1628-.24549.1628-.39283zm1.6666.55555c.1474 0 .2887-.05853.3929-.16272.1042-.10418.1627-.24549.1627-.39283 0-.14735-.0585-.28865-.1627-.39284s-.2455-.16272-.3929-.16272c-.1473 0-.2886.05853-.3928.16272s-.1627.24549-.1627.39284c0 .14734.0585.28865.1627.39283.1042.10419.2455.16272.3928.16272z"/></svg>