<svg viewBox="0 0 24 24" xmlns="http://www.w3.org/2000/svg"><path d="m14.221 4.25911v3.85417c0 1.53472 1.243 2.77782 2.7777 2.77782 1.5348 0 2.7778-1.2431 2.7778-2.77782v-3.85417c0-.01736-.0139-.03472-.0347-.03472-.0104 0-.0174.00347-.0243.01042l-1.3299 1.32986c-.2083.20833-.4896.32639-.7847.32639h-1.2083c-.2952 0-.5764-.11806-.7848-.32639l-1.3298-1.32986c-.007-.00695-.0139-.01042-.0243-.01042-.0174 0-.0347.01389-.0347.03472zm.0347-1.14583c.3021 0 .5937.12153.809.33681l1.3299 1.32986h1.2048l1.3334-1.32986c.2152-.21528.5069-.33681.809-.33681.6319 0 1.1458.51389 1.1458 1.14583v3.85417c0 2.14932-1.7396 3.88892-3.8889 3.88892s-3.8889-1.7396-3.8889-3.88892v-3.85417c0-.63194.5139-1.14583 1.1459-1.14583zm-7.81253 10.38892c1.17362-2.1354 3.19792-3.75697 5.65623-4.38197.0764.36805.191.72569.3438 1.05907-3.49308.8576-6.00003 4-6.00003 7.6562v.2778c0 .9201.74653 1.6666 1.66667 1.6666h4.44446 1.4792c.1006 0 .184-.0833.184-.184 0-.5104-.4132-.9271-.9271-.9271h-1.2917c-.3055 0-.5555-.25-.5555-.5555v-1.3889c0-.7674-.6216-1.3889-1.3889-1.3889h-.27779c-.30556 0-.55556-.25-.55556-.5556 0-.3055.25-.5555.55556-.5555h.27779c1.3819 0 2.5 1.118 2.5 2.5v.1528l4.0764-3.625c.1041-.0903.2326-.1389.3646-.1389h.0034.0035c.0764 0 .1528.0173.2222.0486.1979.0903.3264.2882.3264.5069v5.5556c0 .3055.25.5555.5556.5555.3055 0 .5555-.25.5555-.5555v-6.3958c.3959-.1389.7674-.3264 1.1111-.5591v6.9549c0 .9201-.7465 1.6667-1.6666 1.6667-.9202 0-1.6667-.7466-1.6667-1.6667v-4.3195l-2.9896 2.6563c1.0521.0799 1.8785.9583 1.8785 2.0312 0 .7153-.5799 1.2952-1.2951 1.2952l-1.4792.0035h-4.44446-.00347c-1.53125-.0035-2.77431-1.2466-2.77431-2.7778v-.2778-8.59375c0-.84027-.625-1.54861-1.45833-1.65277l-.27431-.03473c-.30555-.03819-.52083-.31597-.48263-.62152.03819-.30556.31597-.52084.62152-.48264l.27431.03472c1.38889.17361 2.43403 1.35417 2.43403 2.75694v4.26045zm8.88893-5.94447c0-.14735.0585-.28865.1627-.39284s.2455-.16272.3928-.16272c.1474 0 .2887.05853.3929.16272.1041.10419.1627.24549.1627.39284 0 .14734-.0586.28865-.1627.39283-.1042.10419-.2455.16272-.3929.16272-.1473 0-.2886-.05853-.3928-.16272-.1042-.10418-.1627-.24549-.1627-.39283zm2.7777-.55556c.1474 0 .2887.05853.3929.16272s.1627.24549.1627.39284c0 .14734-.0585.28865-.1627.39283-.1042.10419-.2455.16272-.3929.16272-.1473 0-.2886-.05853-.3928-.16272-.1042-.10418-.1627-.24549-.1627-.39283 0-.14735.0585-.28865.1627-.39284s.2455-.16272.3928-.16272z"/></svg>