<svg fill="none" height="40" viewBox="0 0 40 40" width="40" xmlns="http://www.w3.org/2000/svg"><g fill="#1f2937"><path d="m14 10c0 .3216-.0253.6372-.074.9451 1.2564.9082 2.074 2.3861 2.074 4.0549 0 2.7614-2.2386 5-5 5-.3425 0-.6769-.0344-1-.1v14.1c0 1.1046-.89543 2-2 2s-2-.8954-2-2v-14.1c-.32311.0656-.65753.1-1 .1-2.76142 0-5-2.2386-5-5 0-1.6688.817564-3.1467 2.07401-4.0549-.04871-.3079-.07401-.6235-.07401-.9451 0-3.31371 2.68629-6 6-6 3.3137 0 6 2.68629 6 6z"/><path d="m24.25 26.0898c2.2887-3.4453 5.8406-3.5273 6.6691-3.5273.4881 2.3953 2.6086 4.2 5.1434 4.2.4561 0 .8921-.0769 1.3125-.1846v8.4533c0 .3641-.2922.6563-.6562.6563h-1.3126c-.364 0-.6562-.2922-.6562-.6563v-5.9062l-5.25 3.9375h1.3125c.7227 0 1.3125.5898 1.3125 1.3125v.6932c0 .3271-.2922.6193-.6562.6193h-7.2188c-1.4458 0-2.625-1.1792-2.625-2.625v-10.5c0-.7227-.5898-1.3125-1.3125-1.3125s-1.3125-.5906-1.3125-1.3125.5898-1.3125 1.3125-1.3125c2.1738 0 3.9375 1.7637 3.9375 3.9375z"/><path clip-rule="evenodd" d="m34.75 18.625h2.625l2.625-2.625v5.5125c0 2.1738-1.7637 3.9006-3.9375 3.9006s-3.9375-1.7268-3.9375-3.9006v-5.5125zm-.9844 2.625c0 .364.2923.6562.6563.6562.365 0 .6562-.2922.6562-.6562s-.2922-.6562-.6562-.6562-.6563.2922-.6563.6562zm3.2813 0c0 .364.2922.6562.6562.6562.3651 0 .6563-.2922.6563-.6562s-.2923-.6562-.6563-.6562-.6562.2922-.6562.6562z" fill-rule="evenodd"/></g></svg>