<svg viewBox="0 0 24 24" xmlns="http://www.w3.org/2000/svg"><path d="m12 22.0039c2.6522 0 5.1957-1.0536 7.0711-2.9289 1.8753-1.8754 2.9289-4.4189 2.9289-7.0711 0-2.65216-1.0536-5.1957-2.9289-7.07106-1.8754-1.87537-4.4189-2.92893-7.0711-2.92893-2.65216 0-5.1957 1.05356-7.07107 2.92893-1.87536 1.87536-2.92893 4.4189-2.92893 7.07106 0 2.6522 1.05357 5.1957 2.92893 7.0711 1.87537 1.8753 4.41891 2.9289 7.07107 2.9289zm-3.16406-13.16406c.36718-.36718.96093-.36718 1.32426 0l1.8359 1.83596 1.8359-1.83596c.3672-.36718.961-.36718 1.3242 0 .3633.36719.3672.96094 0 1.32426l-1.8359 1.8359 1.8359 1.8359c.3672.3672.3672.961 0 1.3243-.3671.3632-.9609.3671-1.3242 0l-1.8359-1.836-1.8359 1.836c-.36723.3671-.96098.3671-1.32426 0-.36328-.3672-.36719-.961 0-1.3243l1.83596-1.8359-1.83596-1.8359c-.36719-.36722-.36719-.96098 0-1.32426z"/></svg>