<svg fill="none" height="40" viewBox="0 0 40 40" width="40" xmlns="http://www.w3.org/2000/svg"><path d="m31.25 5h-4.2094c-1.0328-2.90625-3.7828-5-7.0406-5s-6.0078 2.09375-7.0391 5h-4.2109c-2.07031 0-3.75 1.67812-3.75 3.75v27.5c0 2.0703 1.67969 3.75 3.75 3.75h22.5c2.0703 0 3.75-1.6781 3.75-3.75v-27.5c0-2.07188-1.6797-3.75-3.75-3.75zm-11.25 0c1.3805 0 2.5 1.11953 2.5 2.5s-1.1195 2.5-2.5 2.5-2.5-1.11719-2.5-2.5 1.1172-2.5 2.5-2.5zm7.1016 15.5312-6.875 8.75c-.3162.4029-.7829.6593-1.2914.708-.0602-.0595-.1227.0108-.1852.0108-.4455 0-.8789-.1587-1.2203-.4516l-4.375-3.75c-.786-.6739-.8766-1.8579-.2027-2.6438.6726-.7859 1.8571-.8766 2.6438-.2026l2.889 2.4757 5.6657-7.2093c.6397-.8157 1.8203-.9547 2.6328-.3174.8183.6381.9589 1.8178.3183 2.6302z" fill="#1f2937"/></svg>