<svg fill="none" height="24" viewBox="0 0 24 24" width="24" xmlns="http://www.w3.org/2000/svg"><path d="m16.773 15.7128c.2929.2929.2929.7677 0 1.0606s-.7678.2929-1.0607 0l-3.7123-3.7123-3.71231 3.7123c-.29289.2929-.76776.2929-1.06066 0-.29289-.2929-.29289-.7677 0-1.0606l3.71227-3.7123-3.71227-3.71236c-.29289-.29289-.29289-.76776 0-1.06066.2929-.29289.76777-.29289 1.06066 0l3.71231 3.71232 3.7123-3.71232c.2929-.29289.7678-.29289 1.0607 0 .2929.2929.2929.76777 0 1.06066l-3.7123 3.71236z" fill="#003047"/></svg>