<svg fill="none" height="40" viewBox="0 0 40 40" width="40" xmlns="http://www.w3.org/2000/svg"><path clip-rule="evenodd" d="m24.092 16.8121c1.408-1.4905 2.2666-3.1028 2.5406-4.7803.4234-2.5926-.6357-4.85515-2.2867-6.28619-1.6124-1.39752-3.9032-2.10527-6.154-1.563-2.3615.56898-4.2584 2.40288-5.2012 5.25005-.4219 1.27384.2621 2.65064 1.5276 3.07524 1.2655.4247 2.6334-.2638 3.0552-1.5376.5064-1.52902 1.2665-1.94401 1.743-2.05882.5873-.14151 1.3157.03206 1.8772.51875.5228.45316.7922 1.07767.6721 1.81287-.1279.7832-.7826 2.1573-3.1136 3.7571l-15.53829 10.7526-.06835.055c-3.93475 3.1685-2.07394 9.1922 2.47502 9.1922h28.01842c2.0213 0 3.8282-1.3779 4.7017-2.9412.4765-.8526.7883-1.9456.6071-3.1394-.187-1.2318-.8582-2.2988-1.8676-3.1115l-.0684-.0551zm-3.9791 3.1472-14.00415 9.691c-.22708.1963-.28063.3364-.29325.3761-.01492.0471-.01284.0811-.0042.1111h27.7877c.0016-.0005.0033-.001.0052-.0017.034-.0115.093-.0375.1671-.0864.1593-.1051.2895-.25.3591-.3744.0014-.0025.0027-.005.004-.0074-.0068-.0065-.0142-.0134-.0224-.0208zm13.4717 10.1823c.0001 0 .0005-.0001.0013-.0003z" fill="#1f2937" fill-rule="evenodd"/></svg>