<svg viewBox="0 0 24 24" xmlns="http://www.w3.org/2000/svg"><path d="m8.50068 15.0039c3.59062 0 6.50002-2.4625 6.50002-5.49999 0-3.0375-2.9094-5.5-6.50002-5.5-3.59063 0-6.5 2.4625-6.5 5.5 0 1.20629.45937 2.32189 1.2375 3.23129-.10938.2937-.27188.5531-.44375.7718-.15.1938-.30313.3438-.41563.4469-.05625.05-.10312.0906-.13437.1156-.01563.0125-.02813.0219-.03438.025l-.00625.0063c-.17187.1281-.24687.3531-.17812.5562.06875.2032.25937.3469.475.3469.68125 0 1.36875-.175 1.94062-.3906.2875-.1094.55625-.2313.79063-.3563.95937.475 2.075.7469 3.26875.7469zm7.50002-5.49999c0 3.50939-3.0969 6.15309-6.76565 6.46879.75938 2.325 3.27815 4.0312 6.26565 4.0312 1.1937 0 2.3094-.2719 3.2719-.7469.2343.125.5.2469.7875.3563.5718.2156 1.2593.3906 1.9406.3906.2156 0 .4094-.1406.475-.3469.0656-.2062-.0063-.4312-.1813-.5593l-.0062-.0063c-.0063-.0062-.0188-.0125-.0344-.025-.0312-.025-.0781-.0625-.1344-.1156-.1125-.1031-.2656-.2531-.4156-.4469-.1719-.2187-.3344-.4812-.4437-.7719.7781-.9062 1.2375-2.0218 1.2375-3.2312 0-2.9-2.6532-5.27814-6.0188-5.48439.0125.15937.0188.32187.0188.48437z"/></svg>