<svg viewBox="0 0 24 24" xmlns="http://www.w3.org/2000/svg"><path d="m3 9.50391c0-2.3375 2.30312-4.5 5.5-4.5 3.1969 0 5.5 2.1625 5.5 4.5 0 2.33749-2.3031 4.49999-5.5 4.49999-.47813 0-.95625-.0594-1.44688-.1562-.10937-.0219-.22187-.0063-.31874.0437-.19063.0969-.375.1875-.5625.2719-.88751.4031-1.88125.7219-2.85938.8125.46563-.5938.8375-1.2406 1.175-1.8719.10313-.1906.07188-.425-.07813-.5812-.84687-.8875-1.40937-1.8594-1.40937-3.01879zm5.5-5.5c-3.59063 0-6.5 2.46562-6.5 5.5 0 1.38129.61875 2.50309 1.4375 3.43749-.36563.6563-.75 1.2688-1.23438 1.7969l-.00312.0031c-.20312.2188-.25625.5344-.1375.8063.11875.2781.3875.4562.6875.4562 1.34375 0 2.70312-.4156 3.83437-.9281.15313-.0688.30001-.1406.44688-.2125.47813.0875.96562.1437 1.46875.1437 3.5906 0 6.5-2.4656 6.5-5.49997s-2.9094-5.50312-6.5-5.50312zm7.4812 5.01562c2.9438.20313 5.0188 2.26567 5.0188 4.48437 0 1.1594-.5625 2.1313-1.4094 3.0188-.15.1562-.1812.3906-.0781.5812.3406.6313.7094 1.275 1.175 1.8719-.9781-.0938-1.975-.4125-2.8594-.8125-.1875-.0844-.3718-.175-.5625-.2719-.1-.05-.2125-.0656-.3187-.0437-.4875.0968-.9657.1562-1.4469.1562-2.1313 0-3.8625-.9594-4.7844-2.2906-.3437.0937-.6968.1625-1.05622.2125 1.05942 1.8219 3.27502 3.0781 5.84062 3.0781.5031 0 .9906-.0562 1.4688-.1437.1437.0718.2937.1437.4468.2125 1.1313.5156 2.4906.9312 3.8344.9312.3 0 .5688-.1781.6875-.4531.1187-.2719.0625-.5906-.1375-.8063l-.0031-.0031c-.4844-.5312-.8688-1.1406-1.2344-1.7969.8188-.9343 1.4375-2.0562 1.4375-3.4375 0-2.95-2.7437-5.35934-6.1938-5.49372.0875.325.1469.6625.175 1.00938z"/></svg>