<svg viewBox="0 0 24 24" xmlns="http://www.w3.org/2000/svg"><path d="m12.7495 8.61675.802-4.81597c.066-.39583.4098-.6875.8125-.6875.2605 0 .5035.12153.6598.32986l.5868.78125h1.809c.441 0 .8646.17709 1.1771.48959l.625.62152h1.9444c.4618 0 .8334.37153.8334.83334v.83333c0 1.53472-1.2431 2.77778-2.7778 2.77778h-1.1111-.5556-.7396l-.177 1.05905zm3.6944 3.38885v7.7743c0 .6146-.4965 1.1112-1.1111 1.1112h-1.1111c-.6146 0-1.1111-.4966-1.1111-1.1112v-4c-.8334.4271-1.7778.6667-2.7778.6667s-1.94445-.2396-2.77778-.6667v4c0 .6146-.49653 1.1112-1.11111 1.1112h-1.11111c-.61458 0-1.11111-.4966-1.11111-1.1112v-7.993c-1-.3785-1.78472-1.2257-2.05556-2.30903l-.13194-.5382c-.14931-.59375.2118-1.19792.80903-1.34722.59722-.14931 1.19791.2118 1.34722.80903l.13541.53819c.12153.49306.56598.84028 1.07639.84028h1.04167.55556 5.54863zm1.6667-6.11454c0-.14734-.0586-.28865-.1627-.39284-.1042-.10418-.2455-.16272-.3929-.16272-.1473 0-.2886.05854-.3928.16272-.1042.10419-.1627.2455-.1627.39284s.0585.28865.1627.39284c.1042.10418.2455.16271.3928.16271.1474 0 .2887-.05853.3929-.16271.1041-.10419.1627-.2455.1627-.39284z"/></svg>