<svg viewBox="0 0 24 24" xmlns="http://www.w3.org/2000/svg"><path d="m13.2112 14.7643c.2847.2084.4549.5417.4549.8959v2.802c0 .4618.3715.8334.8333.8334h.5555c.4619 0 .8334-.3716.8334-.8334v-6.7395h-.0035l-3.2049-1.87157c-.0104 0-.0243 0-.0347 0h-5.09025-.83334-1.38889v8.61107c0 .4618.37153.8334.83334.8334h.55555c.46181 0 .83334-.3716.83334-.8334v-2.802c0-.3542.17014-.6875.45486-.8959.28472-.2083.65625-.2708.99305-.1597.50348.1597 1.04514.25 1.60764.25s1.1007-.0868 1.6076-.25c.3368-.1076.7084-.0486.9931.1597zm2.8785-4.5382c.0902-.53469.5521-.92705 1.0972-.92705h1.4792c1.2257 0 2.2222-.99653 2.2222-2.22223v-.55902c0-.30556-.25-.55556-.5556-.55556h-1.1111c-.2951 0-.5764-.11806-.7847-.32639l-.625-.62153c-.1042-.10416-.2465-.16319-.3924-.16319h-1.5312c-.3507 0-.6806-.1632-.8889-.44445l-.4132-.54861-.8438 5.06598c-.0138.07986-.0347.15277-.0625.22569l2.3577 1.37496.0486-.2986zm-12.50698-2.06594c.30903.36111.76389.57986 1.26389.57986h.48611 1.38889.83334 5.09375l.875-5.25c.0799-.49653.5104-.86111 1.0174-.86111.3229 0 .6284.15277.8263.41319l.5209.69792h1.5312c.441 0 .8646.17708 1.1771.48958l.625.62153h1.1111c.9202 0 1.6667.74653 1.6667 1.66667v.55555c0 1.84028-1.4931 3.33335-3.3333 3.33335h-1.4827l-.184 1.1111v6.9444c0 1.073-.8715 1.9445-1.9445 1.9445h-.5555c-1.0729 0-1.9445-.8715-1.9445-1.9445v-1.6423-1.1597c-.3576.1145-.7291.1979-1.1111.2465-.2743.0347-.552.0555-.8333.0555-.2812 0-.559-.0173-.83333-.0555-.38195-.0486-.75347-.132-1.11111-.2465v1.1562 1.6458c0 1.073-.87153 1.9445-1.94445 1.9445h-.55555c-1.07292 0-1.94445-.8715-1.94445-1.9445v-8.61107c0-.02431 0-.04861.00348-.06945-.02431-.00694-.04862-.01041-.07292-.01736-.96875-.25-1.74653-1.01041-2-2.01736l-.13542-.53819c-.07291-.29861.10764-.6007.40278-.67361.29514-.07292.60069.10764.67361.40277l.13542.5382c.01041.04861.02778.09375.04166.14236.06945.20139.17709.38542.3125.54167zm13.41668-2.19792c.1473 0 .2886.05853.3928.16272s.1627.24549.1627.39284c0 .14734-.0585.28865-.1627.39283-.1042.10419-.2455.16272-.3928.16272-.1474 0-.2887-.05853-.3928-.16272-.1042-.10418-.1628-.24549-.1628-.39283 0-.14735.0586-.28865.1628-.39284.1041-.10419.2454-.16272.3928-.16272z"/></svg>