<svg viewBox="0 0 24 24" xmlns="http://www.w3.org/2000/svg"><path d="m19.0078 6.75977 2.625-2.625c.4883-.48829.4883-1.28125 0-1.76954-.4883-.48828-1.2812-.48828-1.7695 0l-2.6211 2.625c-1.4609-1.09375-3.2774-1.74218-5.2422-1.74218-4.83203 0-8.75 3.91797-8.75 8.74995 0 1.9649.64844 3.7813 1.74219 5.2422l-2.625 2.625c-.48828.4883-.48828 1.2813 0 1.7696.48828.4882 1.28125.4882 1.76953 0l2.625-2.625c1.46094 1.0937 3.27348 1.7422 5.23828 1.7422 4.832 0 8.75-3.918 8.75-8.75 0-1.9649-.6484-3.7813-1.7422-5.23833zm-3.5625.02734-8.66014 8.65629c-.65235-.9883-1.03516-2.1719-1.03516-3.4454 0-3.45308 2.79688-6.24995 6.25-6.24995 1.2734 0 2.457.38281 3.4453 1.03515zm-6.89452 10.42969 8.66402-8.66407c.6524.98829 1.0352 2.17187 1.0352 3.44527 0 3.4532-2.7969 6.25-6.25 6.25-1.2734 0-2.45703-.3828-3.44531-1.0351z"/></svg>