<svg viewBox="0 0 24 24" xmlns="http://www.w3.org/2000/svg"><path d="m21.1914 3.69141c.2422-.24219.2422-.64063 0-.88282-.2422-.24218-.6406-.24218-.8828 0l-2.5781 2.57813c-1.5352-1.33203-3.5391-2.13672-5.7305-2.13672-4.83203 0-8.75 3.91797-8.75 8.75 0 2.1914.80469 4.1953 2.13672 5.7305l-2.57813 2.5781c-.24218.2422-.24218.6406 0 .8828.24219.2422.64063.2422.88282 0l2.57812-2.5781c1.53516 1.332 3.53906 2.1367 5.73047 2.1367 4.832 0 8.75-3.918 8.75-8.75 0-2.19141-.8047-4.19531-2.1367-5.73047zm-4.3476 2.58203-10.57036 10.57036c-1.10547-1.3086-1.77344-2.9961-1.77344-4.8438 0-4.14063 3.35937-7.5 7.5-7.5 1.8477 0 3.5352.66797 4.8438 1.77344zm-9.68755 11.45316 10.57035-10.57035c1.1054 1.30859 1.7734 2.99605 1.7734 4.84375 0 4.1406-3.3594 7.5-7.5 7.5-1.8477 0-3.53516-.668-4.84375-1.7734z"/></svg>