<svg viewBox="0 0 24 24" xmlns="http://www.w3.org/2000/svg"><path d="m4.5 5.75c-.69141 0-1.25.55859-1.25 1.25v1.55859l7.6406 5.60161c.6602.4843 1.5586.4843 2.2188 0l7.6406-5.60161v-1.55859c0-.69141-.5586-1.25-1.25-1.25zm-1.25 4.3594v6.8906c0 .6914.55859 1.25 1.25 1.25h15c.6914 0 1.25-.5586 1.25-1.25v-6.8906l-6.9023 5.0586c-1.1016.8047-2.5977.8047-3.6954 0zm-1.25-3.1094c0-1.37891 1.12109-2.5 2.5-2.5h15c1.3789 0 2.5 1.12109 2.5 2.5v10c0 1.3789-1.1211 2.5-2.5 2.5h-15c-1.37891 0-2.5-1.1211-2.5-2.5z"/></svg>