<svg viewBox="0 0 24 24" xmlns="http://www.w3.org/2000/svg"><path d="m18.25 19.5v-10h-4.375c-1.0352 0-1.875-.83984-1.875-1.875v-4.375h-5c-.69141 0-1.25.55859-1.25 1.25v15c0 .6914.55859 1.25 1.25 1.25h10c.6914 0 1.25-.5586 1.25-1.25zm-.0195-11.25c-.0274-.10937-.0821-.21094-.1641-.28906l-4.5273-4.52735c-.0821-.08203-.1797-.13672-.2891-.16406v4.35547c0 .34375.2812.625.625.625zm-13.7305-3.75c0-1.37891 1.12109-2.5 2.5-2.5h6.0977c.4961 0 .9726.19922 1.3242.55078l4.5273 4.52344c.3516.35156.5508.82812.5508 1.32422v11.10156c0 1.3789-1.1211 2.5-2.5 2.5h-10c-1.37891 0-2.5-1.1211-2.5-2.5zm2.8125 7.5c0-.2486.09877-.4871.27459-.6629.17581-.1758.41427-.2746.66291-.2746s.4871.0988.66291.2746c.17582.1758.27459.4143.27459.6629s-.09877.4871-.27459.6629c-.17581.1758-.41427.2746-.66291.2746s-.4871-.0988-.66291-.2746c-.17582-.1758-.27459-.4143-.27459-.6629zm4.2695 4.4102c-.1132.1679-.3008.2734-.5039.2773s-.3945-.0859-.5156-.25l-.5625-.7539-1.63281 2.5664h7.27341l-2.5586-4.0898zm1.5078-3.7852c.3125 0 .6055.1602.7735.4297l2.9687 4.7461c.1094.1758.168.3789.168.5898 0 .6133-.4961 1.1094-1.1094 1.1094h-7.78122c-.61329 0-1.10938-.4961-1.10938-1.1094 0-.2109.05859-.4179.17188-.5937l2.02343-3.1797c.16797-.2656.46485-.4258.77735-.4258.28904 0 .56254.1367.73824.3672l.3164.4258 1.3008-1.9492c.168-.254.4532-.4063.7578-.4063z"/></svg>