<svg viewBox="0 0 24 24" xmlns="http://www.w3.org/2000/svg"><path d="m4.8125 20.75h1.875v1.25h-1.875c-1.37891 0-2.5-1.1211-2.5-2.5v-15c0-1.37891 1.12109-2.5 2.5-2.5h6.0977c.4961 0 .9726.19922 1.3242.55078l4.5273 4.52344c.3516.35156.5508.82812.5508 1.32422v5.47656h-1.25v-4.375h-4.375c-1.0352 0-1.875-.83984-1.875-1.875v-4.375h-5c-.69141 0-1.25.55859-1.25 1.25v15c0 .6914.55859 1.25 1.25 1.25zm11.2305-12.5c-.0274-.10937-.0821-.21094-.1641-.28906l-4.5273-4.52735c-.0821-.08203-.1797-.13672-.2891-.16406v4.35547c0 .34375.2812.625.625.625zm-6.8555 7.5h1.25c1.207 0 2.1875.9805 2.1875 2.1875s-.9805 2.1875-2.1875 2.1875h-.625v1.25c0 .3438-.28125.625-.625.625s-.625-.2812-.625-.625v-1.875-3.125c0-.3438.28125-.625.625-.625zm1.25 3.125c.5195 0 .9375-.418.9375-.9375s-.418-.9375-.9375-.9375h-.625v1.875zm3.75-3.125h1.25c1.0352 0 1.875.8398 1.875 1.875v2.5c0 1.0352-.8398 1.875-1.875 1.875h-1.25c-.3438 0-.625-.2812-.625-.625v-5c0-.3438.2812-.625.625-.625zm1.25 5c.3438 0 .625-.2812.625-.625v-2.5c0-.3438-.2812-.625-.625-.625h-.625v3.75zm3.125-4.375c0-.3438.2812-.625.625-.625h1.875c.3438 0 .625.2812.625.625s-.2812.625-.625.625h-1.25v1.25h1.25c.3438 0 .625.2812.625.625s-.2812.625-.625.625h-1.25v1.875c0 .3438-.2812.625-.625.625s-.625-.2812-.625-.625v-2.5z"/></svg>