<svg viewBox="0 0 24 24" xmlns="http://www.w3.org/2000/svg"><path d="m18.25 19.5v-10h-4.375c-1.0352 0-1.875-.83984-1.875-1.875v-4.375h-5c-.69141 0-1.25.55859-1.25 1.25v15c0 .6914.55859 1.25 1.25 1.25h10c.6914 0 1.25-.5586 1.25-1.25zm-.0195-11.25c-.0274-.10937-.0821-.21094-.1641-.28906l-4.5273-4.52735c-.0821-.08203-.1797-.13672-.2891-.16406v4.35547c0 .34375.2812.625.625.625zm-13.7305-3.75c0-1.37891 1.12109-2.5 2.5-2.5h6.0977c.4961 0 .9726.19922 1.3242.55078l4.5273 4.52344c.3516.35156.5508.82812.5508 1.32422v11.10156c0 1.3789-1.1211 2.5-2.5 2.5h-10c-1.37891 0-2.5-1.1211-2.5-2.5z"/></svg>