<svg viewBox="0 0 24 24" xmlns="http://www.w3.org/2000/svg"><path d="m20.7501 19.5039c0 .6914-.5586 1.25-1.25 1.25h-8.75v.625c0 .2149-.0391.4258-.1055.625h8.8555c1.3789 0 2.5-1.1211 2.5-2.5v-11.09765c0-.49609-.1993-.97266-.5508-1.32422l-4.5234-4.52734c-.3516-.35156-.8282-.55078-1.3243-.55078h-6.10153c-1.37891 0-2.5 1.12109-2.5 2.5v2.77734l.00391-.00391c.05859-.02734.15625-.07812.25781-.11718.32031-.13282.66015-.17969.98828-.15625v-2.5c0-.69141.55859-1.25 1.25-1.25h5.00003v4.375c0 1.03515.8398 1.875 1.875 1.875h4.375zm-.0196-11.24999h-4.3554c-.3438 0-.625-.28125-.625-.625v-4.35547c.1093.02734.2109.08203.289.16406l4.5274 4.52734c.082.08204.1367.17969.164.28907zm-8.9726 4.99999c0-.0312.0078-.0937.1367-.4062.2461-.6016.0625-1.293-.4531-1.6875-.2696-.2071-.3047-.2579-.3203-.2852-.0157-.0273-.0391-.082-.086-.418-.0859-.6445-.5937-1.14841-1.23435-1.23434-.33594-.04688-.39062-.07032-.41797-.08594-.02734-.01563-.07812-.05078-.28515-.32031-.39844-.51172-1.08985-.69922-1.6875-.45313-.3125.12891-.375.13672-.40625.13672s-.09375-.00781-.40625-.13672c-.60157-.24609-1.29297-.0625-1.6875.45313-.20704.26953-.25782.30468-.28516.32031-.02734.01562-.08203.03906-.41797.08594-.64844.08593-1.15234.58984-1.24219 1.23434-.04687.336-.07031.3907-.08593.418-.01563.0273-.05079.0781-.32032.2852-.51172.3945-.69531 1.0859-.44922 1.6875.12891.3125.13672.375.13672.4062 0 .0313-.00781.0938-.13672.4063-.24609.6015-.0625 1.2929.45313 1.6875.26953.207.30469.2578.32031.2851.01563.0274.03906.082.08594.418.08594.6445.58984 1.1484 1.23437 1.2383.14454.0195.23829.0351.29688.0468v4.043c0 .2305.125.4414.33203.5508s.44922.0976.64063-.0313l1.52734-1.0195 1.52734 1.0195c.19141.1289.4375.1407.64063.0313.20312-.1094.33203-.3203.33203-.5508v-4.043c.0625-.0117.15234-.0273.29687-.0468.64456-.086 1.14846-.5938 1.23436-1.2344.0469-.3359.0703-.3906.086-.418.0156-.0273.0507-.0781.3203-.2851.5117-.3985.6992-1.0899.4531-1.6875-.1289-.3125-.1367-.375-.1367-.4063zm-6.00783 6.957v-1.9882c.27734.0585.57031.0351.84375-.0782.3125-.1289.375-.1367.40625-.1367s.09375.0078.40625.1367c.27344.1133.56641.1328.84375.0782v1.9882l-.90235-.6015c-.21093-.1406-.48437-.1406-.69531 0zm-2.25781-6.957c0-.3164-.11328-.6016-.22657-.8789-.03125-.082-.00781-.1719.0625-.2266.23829-.1836.48047-.375.63672-.6484s.20313-.5781.24219-.875c.01172-.0859.07813-.1523.16406-.1641.30078-.039.60157-.0859.875-.2421.27344-.1563.46094-.39849.64844-.63677.05469-.07031.14453-.09375.22656-.0625.27735.11328.5625.22656.87891.22656s.60156-.11328.87891-.22656c.08203-.03125.17187-.00781.22656.0625.18359.23828.375.48047.64843.63677.27344.1562.57813.2031.87501.2421.08593.0118.15234.0782.16406.1641.03906.3008.08594.6016.24216.875.1563.2734.3985.4609.6367.6484.0704.0547.0938.1446.0625.2266-.1132.2773-.2265.5625-.2265.8789s.1133.6016.2265.8789c.0313.082.0079.1719-.0625.2266-.2382.1836-.4804.375-.6367.6484-.15622.2734-.2031.5781-.24216.875-.01172.086-.07813.1524-.16406.1641-.30079.039-.60157.0859-.87501.2422-.27343.1562-.46093.3984-.64843.6367-.05469.0703-.14453.0937-.22656.0625-.27735-.1133-.5625-.2266-.87891-.2266s-.60156.1133-.87891.2266c-.08203.0312-.17187.0078-.22656-.0625-.18359-.2383-.375-.4805-.64844-.6367-.27343-.1563-.57812-.2032-.875-.2422-.08593-.0117-.15234-.0781-.16406-.1641-.03906-.3008-.08594-.6016-.24219-.875s-.39843-.4609-.63672-.6484c-.07031-.0547-.09375-.1446-.0625-.2266.11329-.2773.22657-.5625.22657-.8789z"/></svg>