<svg viewBox="0 0 24 24" xmlns="http://www.w3.org/2000/svg"><path d="m7.00571 4.50391c0-1.37891 1.12067-2.5 2.49905-2.5h6.24764v5c0 .6914.5584 1.25 1.2495 1.25h4.9981v11.24999c0 1.3789-1.1207 2.5-2.499 2.5h-8.8521c.0702-.1992.1054-.4101.1054-.625v-3.125c.0507-.0195.0976-.0391.1484-.0586.2655-.1172.5583-.3047.8043-.6055.2499-.3086.3944-.6718.4452-1.0586.0195-.1406.0312-.2226.0429-.2773.043-.0351.1094-.0898.2187-.1758.7771-.6015 1.0582-1.6484.6833-2.5586-.0546-.1289-.082-.2109-.1015-.2617.0195-.0547.0469-.1328.1015-.2617.371-.9102.0938-1.957-.6833-2.5586-.1093-.0859-.1757-.1406-.2187-.1758-.0117-.0547-.0234-.1406-.0429-.27732-.1328-.97266-.8981-1.74219-1.8704-1.8711-.1406-.01953-.2226-.03125-.2772-.04297-.03517-.04297-.08984-.10937-.17575-.21875-.60133-.77734-1.64781-1.05859-2.55762-.68359-.10152.04297-.19914.08984-.25771.11719l-.00391.0039v-2.78515zm14.99429 2.5h-4.9981v-5zm-15.72839 1.3125.61696.25c.07419.03125.16009.03125.23819 0l.61695-.25391c.39048-.16016.83952-.03906 1.09724.29297l.41.52734c.05076.06641.12495.10547.20305.11719l.6599.08984c.4178.0586.7458.38672.8005.80076l.0898.6602c.0117.082.0547.1562.1171.2031l.5272.4102c.3319.2578.4529.707.2928 1.0976l-.2499.625c-.0312.0742-.0312.1602 0 .2383l.2538.6172c.1601.3906.0391.8398-.2928 1.0976l-.5272.4102c-.0663.0508-.1054.125-.1171.2031l-.0898.6602c-.0586.4179-.3866.7461-.8005.8047l-.61304.0781v4.1328c0 .2305-.12495.4414-.33191.5508-.20695.1094-.44904.0976-.64038-.0313l-1.52676-1.0195-1.52676 1.0195c-.19134.1289-.43734.1407-.64038.0313-.20305-.1094-.33191-.3203-.33191-.5508v-4.1328l-.60524-.082c-.41781-.0586-.74581-.3868-.80047-.8047l-.08981-.6602c-.01172-.082-.05467-.1562-.11715-.2031l-.53104-.4102c-.33191-.2578-.45296-.707-.29286-1.0976l.2499-.6172c.03124-.0742.03124-.1602 0-.2383l-.2499-.6133c-.1601-.3906-.03905-.8398.29286-1.0976l.52714-.4102c.06638-.0508.10543-.125.11714-.2031l.08981-.6602c.05857-.41793.38657-.74606.80048-.80074l.6599-.08985c.082-.01172.15619-.05469.20305-.11719l.41-.52734c.25772-.33203.70676-.45312 1.09724-.29297zm3.23315 4.93749c0-.663-.26329-1.2989-.73196-1.7678-.46866-.4688-1.1043-.7322-1.76709-.7322s-1.29843.2634-1.76709.7322c-.46867.4689-.73196 1.1048-.73196 1.7678s.26329 1.2989.73196 1.7678c.46866.4688 1.1043.7322 1.76709.7322s1.29843-.2634 1.76709-.7322c.46867-.4689.73196-1.1048.73196-1.7678z"/></svg>