<svg viewBox="0 0 24 24" xmlns="http://www.w3.org/2000/svg"><path d="m7.69097 4.00661c.96528-.97916 2.49653-1.03125 3.52083-.15972.2014.17014.382.36111.566.55208.0729.07639.1458.15625.2222.22917.0729-.07639.1493-.15278.2222-.22917.1806-.19097.3646-.38194.566-.55208 1.0243-.87153 2.5556-.81944 3.5208.15972 1.0209 1.03473 1.0209 2.71528 0 3.75l-3.5277 3.58329c-.2153.2188-.4966.3264-.7813.3264s-.566-.1076-.7812-.3264l-3.52783-3.58329c-1.02083-1.03472-1.02083-2.71527 0-3.75zm2.90283.78125c-.5834-.59375-1.52783-.59375-2.11116 0-.59375.60417-.59375 1.58681 0 2.19098l3.51736 3.56946 3.5174-3.57294c.5937-.60416.5937-1.5868 0-2.19097-.5834-.59375-1.5278-.59375-2.1111 0l-1.0105 1.02778c-.2187.22222-.5729.22222-.7916 0zm-3.35074 9.23614c.45486-.3056.99305-.4653 1.54166-.4653h5.15968c1.073 0 1.9445.8715 1.9445 1.9444 0 .2987-.066.5799-.1875.8334h.1944l3.2882-1.9584c.2882-.1701.6181-.2638.9549-.2638h.0451c1.0035 0 1.816.8125 1.816 1.8159 0 .6146-.3125 1.1875-.8264 1.5209l-4.1528 2.7013c-.6319.4098-1.368.6285-2.118.6285h-12.34724c-.30556 0-.55556-.25-.55556-.5555 0-.3056.25-.5556.55556-.5556h12.34374c.5382 0 1.0625-.1562 1.5139-.4479l4.1528-2.7014c.2014-.1285.3194-.3542.3194-.5903 0-.3889-.316-.7048-.7048-.7048h-.0452c-.1354 0-.2673.0382-.3854.1041l-3.4201 2.0382c-.0868.0521-.1841.0799-.2848.0799h-2.1007-.8333-2.2222c-.3056 0-.5556-.25-.5556-.5556 0-.3055.25-.5555.5556-.5555h2.2222.8333c.4619 0 .8334-.3716.8334-.8334s-.3715-.8333-.8334-.8333h-5.15968c-.32986 0-.6493.0972-.92361.2813l-2.7743 1.8472c-.09028.0625-.19792.0937-.30903.0937h-2.22222c-.30556 0-.55556-.25-.55556-.5555 0-.3056.25-.5556.55556-.5556h2.05555z"/></svg>