<svg viewBox="0 0 24 24" xmlns="http://www.w3.org/2000/svg"><path d="m7.69109 7.75651c-1.02083-1.03472-1.02083-2.71528 0-3.75 1.02084-1.03472 2.67361-1.03472 3.69441 0l.6146.625.6146-.625c1.0208-1.03472 2.6736-1.03472 3.6945 0 1.0208 1.03472 1.0208 2.71528 0 3.75l-3.5278 3.58329c-.2153.2188-.4966.3264-.7813.3264s-.5659-.1076-.7812-.3264zm14.03821 6.92359c.4549.6181.3229 1.4861-.2951 1.941l-4.3959 3.2396c-.8125.5972-1.7916.9201-2.8021.9201h-5.56941-5.55556c-.61458 0-1.11111-.4965-1.11111-1.1111v-2.2222c0-.6146.49653-1.1111 1.11111-1.1111h1.27778l1.55903-1.25c.78819-.632 1.76736-.9722 2.77778-.9722h2.71878.5555 2.2222c.6146 0 1.1112.4965 1.1112 1.1111 0 .6145-.4966 1.1111-1.1112 1.1111h-2.2222-.5555c-.3056 0-.5556.25-.5556.5555 0 .3056.25.5556.5556.5556h4.1875l4.1562-3.0625c.6181-.4549 1.4861-.3229 1.941.2951zm-13.00696 1.6563h-.03125z"/></svg>