<svg viewBox="0 0 24 24" xmlns="http://www.w3.org/2000/svg"><path d="m11.5312 6.89281-.4687-.52734-.1641-.18359c-1.01559-1.14063-2.55074-1.67188-4.05465-1.39844-2.08203.37891-3.59375 2.19141-3.59375 4.30859v.13672c0 1.26175.52344 2.46485 1.44922 3.32425l7.18358 6.6914c.0313.0273.0742.0469.1172.0469s.0859-.0157.1172-.0469l7.1875-6.6914c.9219-.8594 1.4453-2.0625 1.4453-3.32425v-.13672c0-2.11718-1.5117-3.92968-3.5938-4.30859-1.5039-.27344-3.039.25781-4.0546 1.39844l-.1641.18359-.4687.52734c-.1172.13282-.2891.21094-.4688.21094s-.3477-.07812-.4688-.21094zm1.3633-2.23046c1.2539-.98047 2.8828-1.39844 4.4844-1.10938 2.6758.48828 4.6211 2.82031 4.6211 5.53906v.13672c0 1.40625-.5117 2.75785-1.4297 3.80855-.1328.1485-.2695.293-.418.4297l-7.1875 6.6914c-.0312.0313-.0664.0586-.1015.086-.2461.1914-.5508.2929-.8633.2929-.3594 0-.7031-.1367-.9688-.3789l-7.18745-6.6875c-.14844-.1367-.28516-.2812-.41797-.4296-.91406-1.0547-1.42578-2.4063-1.42578-3.81255v-.13672c0-2.71875 1.94531-5.05078 4.62109-5.53906 1.59766-.28906 3.22657.125 4.48051 1.10938.2617.20703.5078.43359.7304.6875l.1641.18359.1641-.18359c.164-.1836.3359-.35547.5195-.51172.0703-.0586.1406-.11719.2109-.17578z"/></svg>