<svg viewBox="0 0 24 24" xmlns="http://www.w3.org/2000/svg"><path d="m11.5312 6.895-.4687-.52734-.1641-.18359c-1.01559-1.14063-2.55074-1.67188-4.05465-1.39844-2.08203.3789-3.59375 2.1914-3.59375 4.30859v.13672c0 1.26176.52344 2.46486 1.44922 3.32426l7.18358 6.6914c.0313.0273.0742.0468.1172.0468s.0859-.0156.1172-.0468l7.1875-6.6914c.9219-.8594 1.4453-2.0625 1.4453-3.32426v-.13672c0-2.11719-1.5117-3.92969-3.5938-4.30859-1.5039-.27344-3.039.25781-4.0546 1.39844l-.1641.18359-.4687.52734c-.1172.13282-.2891.21094-.4688.21094s-.3477-.07812-.4688-.21094zm1.3633-2.23047c1.2539-.98046 2.8828-1.39843 4.4844-1.10937 2.6758.48828 4.6211 2.82031 4.6211 5.53906v.13672c0 1.40626-.5117 2.75786-1.4297 3.80856-.1328.1485-.2695.293-.418.4297l-7.1875 6.6914c-.0312.0313-.0664.0586-.1015.086-.2461.1914-.5508.2929-.8633.2929-.3594 0-.7031-.1367-.9688-.3789l-7.18745-6.6875c-.14844-.1367-.28516-.2812-.41797-.4297-.91406-1.0546-1.42578-2.4062-1.42578-3.81246v-.13672c0-2.71875 1.94531-5.05078 4.62109-5.53906 1.59766-.28906 3.22657.125 4.48051 1.10937.2617.20704.5078.4336.7304.6875l.1641.1836.1641-.1836c.164-.18359.3359-.35546.5195-.51171.0703-.0586.1406-.11719.2109-.17579z"/></svg>