<svg viewBox="0 0 24 24" xmlns="http://www.w3.org/2000/svg"><path d="m17.5556 11.3767v-2.71177h.5555l.3403.68056c.434.87151 1.4653 1.26391 2.3715.90281.7118-.28476 1.1771-.97226 1.1771-1.73962v-2.62153c0-.66319-.2917-1.26041-.7535-1.66666h.1979c.3056 0 .5556-.25.5556-.55556 0-.30555-.25-.55555-.5556-.55555h-2.7777-1.1111c-2.4549 0-4.4445 1.98958-4.4445 4.44444h-3.33332-.72222-1.88889c-1.06598 0-2 .56597-2.51736 1.41667-1.49653.19791-2.64931 1.47921-2.64931 3.02781v1.9444c0 .4618.37153.8333.83333.8333.46181 0 .83334-.3715.83334-.8333v-1.9444c0-.4653.22916-.875.57986-1.1285.05555.4514.21875.8819.47222 1.2639l.97917 1.4722c.28819.4306.22222.9965-.04167 1.4444-.57292.9723-.71528 2.1598-.34722 3.2605l.60764 1.8194c.15277.4549.57639.7604 1.05555.7604h1.17014c.75695 0 1.29514-.743 1.05556-1.4618l-.72223-2.1701c-.07291-.2222-.01736-.4653.14931-.632l.44097-.4409c.45834-.4584.71528-1.0799.71528-1.7257 0-.0799-.00347-.1598-.01042-.2396l2.91667.8333c.1424.0417.2847.0729.4271.0972l-.0035 4.625c0 .6146.4965 1.1112 1.1111 1.1112h1.1111c.6146 0 1.1111-.4966 1.1111-1.1112v-5.7048c.6667-.6667 1.0938-1.5868 1.1112-2.6285zm1.6666-6.0451c.1474 0 .2887.05853.3929.16272.1041.10418.1627.24549.1627.39283 0 .14735-.0586.28865-.1627.39284-.1042.10419-.2455.16272-.3929.16272-.1473 0-.2886-.05853-.3928-.16272s-.1627-.24549-.1627-.39284c0-.14734.0585-.28865.1627-.39283.1042-.10419.2455-.16272.3928-.16272z"/></svg>