<svg viewBox="0 0 24 24" xmlns="http://www.w3.org/2000/svg"><path d="m13.7102 8.11108c0 .30556-.25.55556-.5555.55556h-3.0556-1.38885-1.57292c-.97222 0-1.76042.78819-1.76042 1.76046 0 .2326.04514.4618.13542.677l1.15972 2.7813c.0625.1493.09375.309.09375.4687 0 .1667-.03472.3299-.09722.4827l-.28125.6597c-.32292.7535-.37847 1.5972-.15972 2.3889l.46875 1.6875c.03472.1215.14236.2049.26736.2049h1.15278c.18402 0 .31597-.1737.26736-.3507l-.55209-1.9862c-.11805-.427-.0868-.8784.08681-1.2847l.28125-.6597c.15278-.3611.23264-.7465.23264-1.1389 0-.1597-.01389-.3194-.0382-.4757-.03125-.184.03125-.368.16667-.4965s.32292-.1806.50347-.1389l4.03469.9063c.0486.0104.0973.0208.1493.0277.2674.0452.4618.2778.4618.5486v4.7709c0 .1528.125.2778.2778.2778h1.1111c.1528 0 .2778-.125.2778-.2778v-5.5695c0-.1597.066-.309.184-.4132.566-.5069.9271-1.2395.9271-2.0729 0-.0798-.0034-.1562-.0104-.2326-.0035-.0521 0-.1077.0104-.1563v-1.8333c0-.30556.25-.55556.5556-.55556h1.1111c.1875 0 .3576.09375.4618.24653l.2222.33333c.3264.49306.9896.63542 1.4896.31945.3507-.21875.5486-.61806.5104-1.03125l-.2673-2.80556c-.0799-.85417-.7987-1.50694-1.6598-1.50694h-.2014-.2777-.8334c-2.1493 0-3.8889 1.73958-3.8889 3.88888zm7.4028-3.92013c.3091.40277.5139.89236.566 1.43402l.2674 2.80556c.0798.82986-.3195 1.63537-1.0278 2.07987-1.0104.6319-2.3403.3472-3.0035-.64584l-.059-.08681h-.257v1.38885c0 .0243-.0034.0521-.0034.0764.0034.066.0034.1354.0034.2014 0 1.0729-.4305 2.0278-1.1111 2.7222v5.3334c0 .7673-.6215 1.3889-1.3889 1.3889h-1.1111c-.7673 0-1.3889-.6216-1.3889-1.3889v-4.3195l-3.05899-.6875c-.01736.4966-.125.9827-.31945 1.4375l-.28125.6598c-.07639.1736-.0868.368-.03819.552l.55208 1.9861c.24653.8855-.42014 1.7605-1.3368 1.7605h-1.15278c-.625 0-1.17014-.4167-1.33681-1.0174l-.47222-1.6875c-.28819-1.0347-.21528-2.1354.20833-3.125l.28125-.6597c.00695-.0139.01042-.0278.01042-.0452 0-.0138-.00347-.0277-.00694-.0416l-1.15973-2.7813c-.14583-.3507-.22222-.7222-.22222-1.1007-.64583.2292-1.11111.8473-1.11111 1.5729v1.6667c0 .3056-.25.5556-.55556.5556-.30555 0-.55555-.25-.55555-.5556v-1.6667c0-1.434 1.0868-2.61107 2.47917-2.76037.45138-.99306 1.45138-1.68403 2.61458-1.68403h1.57292 1.38885 2.5313c.2778-2.5 2.3958-4.44444 4.9687-4.44444h.8334.2777.2014l2.0209-.00348c.3055 0 .5555.25.5555.55556 0 .24306-.1562.45139-.375.52431zm-2.9583 2.25347c0-.14735.0585-.28865.1627-.39284s.2455-.16272.3928-.16272c.1474 0 .2887.05853.3929.16272s.1627.24549.1627.39284c0 .14734-.0585.28865-.1627.39283-.1042.10419-.2455.16272-.3929.16272-.1473 0-.2886-.05853-.3928-.16272-.1042-.10418-.1627-.24549-.1627-.39283z"/></svg>