<svg viewBox="0 0 24 24" xmlns="http://www.w3.org/2000/svg"><path d="m2 5.75391c0-1.37891 1.12109-2.5 2.5-2.5h15c1.3789 0 2.5 1.12109 2.5 2.5v12.49999c0 1.3789-1.1211 2.5-2.5 2.5h-15c-1.37891 0-2.5-1.1211-2.5-2.5zm12.6484 4.16015c-.1757-.25781-.4648-.41015-.7734-.41015s-.6016.15234-.7734.41015l-3.39848 4.98434-1.03515-1.2929c-.17969-.2227-.44922-.3516-.73047-.3516s-.55469.1289-.73047.3516l-2.5 3.125c-.22656.2812-.26953.6679-.11328.9922.15625.3242.48437.5312.84375.5312h3.75 1.25 8.125c.3477 0 .668-.1914.8281-.5.1602-.3086.1406-.6797-.0547-.9648zm-8.2734-.41015c.49728 0 .97419-.19755 1.32583-.54918.35163-.35163.54917-.82854.54917-1.32582s-.19754-.9742-.54917-1.32583c-.35164-.35163-.82855-.54917-1.32583-.54917s-.97419.19754-1.32583.54917c-.35163.35163-.54917.82855-.54917 1.32583s.19754.97419.54917 1.32582c.35164.35163.82855.54918 1.32583.54918z"/></svg>