<svg viewBox="0 0 24 24" xmlns="http://www.w3.org/2000/svg"><g><path d="m13.6667 9.22222c0-.30555.25-.55555.5555-.55555h4.4445c.3055 0 .5555.25.5555.55555 0 .30556-.25.55556-.5555.55556h-4.4445c-.3055 0-.5555-.25-.5555-.55556z"/><path d="m13.6667 11.4444c0-.3055.25-.5555.5555-.5555h4.4445c.3055 0 .5555.25.5555.5555 0 .3056-.25.5556-.5555.5556h-4.4445c-.3055 0-.5555-.25-.5555-.5556z"/><path d="m13.6667 13.6667c0-.3056.25-.5556.5555-.5556h4.4445c.3055 0 .5555.25.5555.5556 0 .3055-.25.5555-.5555.5555h-4.4445c-.3055 0-.5555-.25-.5555-.5555z"/><path d="m4.87587 8.84467c-.14065.14065-.21967.33142-.21967.53033s.07902.38968.21967.53033c.14065.14067.33142.21967.53033.21967s.38968-.079.53033-.21967c.14065-.14065.21967-.33142.21967-.53033s-.07902-.38968-.21967-.53033-.33142-.21967-.53033-.21967-.38968.07902-.53033.21967z"/><g clip-rule="evenodd" fill-rule="evenodd"><path d="m9.89683 10.2187c-.13438-.2156-.36875-.3437-.61875-.3437l-.00313.00312c-.24375 0-.47187.12188-.60625.32498l-1.04062 1.5594-.25313-.3406c-.14062-.1844-.35937-.2938-.59062-.2938-.25 0-.4875.1281-.62188.3406l-1.61875 2.5438c-.09062.1406-.1375.3062-.1375.475 0 .4906.39688.8875.8875.8875h6.225c.4906 0 .8875-.3969.8875-.8875 0-.1688-.0469-.3313-.1344-.4719zm-2.22813 2.9063c.1625-.0031.3125-.0875.40313-.2219l1.2-1.8 2.04687 3.2719h-5.81875l1.30625-2.0531.45.6031c.09688.1313.25.2031.4125.2z"/><path d="m2 6.44444c0-1.22569.99653-2.22222 2.22222-2.22222h15.55558c1.2257 0 2.2222.99653 2.2222 2.22222v11.11116c0 1.2257-.9965 2.2222-2.2222 2.2222h-15.55558c-1.22569 0-2.22222-.9965-2.22222-2.2222zm18.8889 0c0-.61458-.4965-1.11111-1.1111-1.11111h-15.55558c-.61458 0-1.11111.49653-1.11111 1.11111v11.11116c0 .6145.49653 1.1111 1.11111 1.1111h15.55558c.6146 0 1.1111-.4966 1.1111-1.1111z"/></g></g></svg>