<svg viewBox="0 0 24 24" xmlns="http://www.w3.org/2000/svg"><path clip-rule="evenodd" d="m2 6.44444c0-1.22569.99653-2.22222 2.22222-2.22222h15.55558c1.2257 0 2.2222.99653 2.2222 2.22222v11.11116c0 1.2257-.9965 2.2222-2.2222 2.2222h-15.55558c-1.22569 0-2.22222-.9965-2.22222-2.2222zm17.2222 2.22223h-4.4444c-.3056 0-.5556.25-.5556.55555 0 .30556.25.55556.5556.55556h4.4444c.3056 0 .5556-.25.5556-.55556 0-.30555-.25-.55555-.5556-.55555zm0 2.22223h-4.4444c-.3056 0-.5556.25-.5556.5555 0 .3056.25.5556.5556.5556h4.4444c.3056 0 .5556-.25.5556-.5556 0-.3055-.25-.5555-.5556-.5555zm0 2.2222h-4.4444c-.3056 0-.5556.25-.5556.5556 0 .3055.25.5555.5556.5555h4.4444c.3056 0 .5556-.25.5556-.5555 0-.3056-.25-.5556-.5556-.5556zm-14.92973-4.31821c-.18753.18754-.29289.44189-.29289.70711s.10536.5196.29289.7071c.18754.1875.44189.2929.70711.2929s.51957-.1054.70711-.2929c.18753-.1875.29289-.44188.29289-.7071s-.10536-.51957-.29289-.70711c-.18754-.18753-.44189-.29289-.70711-.29289s-.51957.10536-.70711.29289zm4.86961 1.92271c-.09375-.1344-.24688-.2156-.4125-.2156v.0031c-.16563 0-.31875.0813-.4125.2157l-1.50938 2.1937-.4-.6687c-.09062-.1532-.25312-.2438-.42812-.2438s-.3375.0937-.42813.2438l-1.5 2.5c-.09375.1531-.09375.3468-.00625.5031.0875.1562.25313.2531.43438.2531h7.00002c.1875 0 .3594-.1063.4437-.2688.0844-.1625.075-.3624-.0312-.5156z" fill-rule="evenodd"/></svg>