<svg viewBox="0 0 24 24" xmlns="http://www.w3.org/2000/svg"><path d="m4.5 4.5c-.69141 0-1.25.55859-1.25 1.25v9.1172l2.64453-2.6445c.60938-.6094 1.59766-.6094 2.21094 0l2.64453 2.6445 5.1445-5.14454c.6094-.60938 1.5977-.60938 2.211 0l2.6445 2.64454v-6.6172c0-.69141-.5586-1.25-1.25-1.25zm-1.25 12.1328v1.6172c0 .6914.55859 1.25 1.25 1.25h1.61719l3.75-3.75-2.64453-2.6445c-.1211-.1211-.32032-.1211-.44141 0zm13.9727-6.0273c-.1211-.1211-.3204-.1211-.4415 0l-8.89839 8.8945h11.61719c.6914 0 1.25-.5586 1.25-1.25v-4.1172zm-15.2227-4.8555c0-1.37891 1.12109-2.5 2.5-2.5h15c1.3789 0 2.5 1.12109 2.5 2.5v12.5c0 1.3789-1.1211 2.5-2.5 2.5h-15c-1.37891 0-2.5-1.1211-2.5-2.5zm6.25 1.875c0-.16576-.06585-.32473-.18306-.44194s-.27618-.18306-.44194-.18306-.32473.06585-.44194.18306-.18306.27618-.18306.44194.06585.32473.18306.44194.27618.18306.44194.18306.32473-.06585.44194-.18306.18306-.27618.18306-.44194zm-2.5 0c0-.49728.19754-.97419.54917-1.32583.35164-.35163.82855-.54917 1.32583-.54917s.97419.19754 1.32583.54917c.35163.35164.54917.82855.54917 1.32583s-.19754.97419-.54917 1.32583c-.35164.35163-.82855.54917-1.32583.54917s-.97419-.19754-1.32583-.54917c-.35163-.35164-.54917-.82855-.54917-1.32583z"/></svg>