<svg viewBox="0 0 24 24" xmlns="http://www.w3.org/2000/svg"><path d="m12 3.25h-5c-.69141 0-1.25.55859-1.25 1.25v15c0 .6914.55859 1.25 1.25 1.25h10c.6914 0 1.25-.5586 1.25-1.25v-10h-3.75c-1.3789 0-2.5-1.12109-2.5-2.5zm5.7305 5-4.4805-4.48047v3.23047c0 .69141.5586 1.25 1.25 1.25zm-13.2305-3.75c0-1.37891 1.12109-2.5 2.5-2.5h5.2148c.6641 0 1.3008.26172 1.7696.73047l4.7851 4.78906c.4688.46875.7305 1.10547.7305 1.76953v10.21094c0 1.3789-1.1211 2.5-2.5 2.5h-10c-1.37891 0-2.5-1.1211-2.5-2.5zm3.75 9.0625v3.125c0 .1719.14062.3125.3125.3125h6.875c.1719 0 .3125-.1406.3125-.3125v-3.125c0-.1719-.1406-.3125-.3125-.3125h-6.875c-.17188 0-.3125.1406-.3125.3125zm-1.25 0c0-.8633.69922-1.5625 1.5625-1.5625h6.875c.8633 0 1.5625.6992 1.5625 1.5625v3.125c0 .8633-.6992 1.5625-1.5625 1.5625h-6.875c-.86328 0-1.5625-.6992-1.5625-1.5625zm.625-7.8125h2.5c.3438 0 .625.28125.625.625s-.2812.625-.625.625h-2.5c-.34375 0-.625-.28125-.625-.625s.28125-.625.625-.625zm0 2.5h2.5c.3438 0 .625.28125.625.625s-.2812.625-.625.625h-2.5c-.34375 0-.625-.28125-.625-.625s.28125-.625.625-.625z"/></svg>