<svg viewBox="0 0 24 24" xmlns="http://www.w3.org/2000/svg"><path d="m7 2c-1.37891 0-2.5 1.12109-2.5 2.5v15c0 1.3789 1.12109 2.5 2.5 2.5h10c1.3789 0 2.5-1.1211 2.5-2.5v-10.83984c0-.66407-.2617-1.30079-.7305-1.76954l-4.164-4.16015c-.4688-.46875-1.1016-.73047-1.7657-.73047zm10.2148 6.875h-3.6523c-.5195 0-.9375-.41797-.9375-.9375v-3.65234zm-10.2148 8.125v-2.5c0-.6914.55859-1.25 1.25-1.25h7.5c.6914 0 1.25.5586 1.25 1.25v2.5c0 .6914-.5586 1.25-1.25 1.25h-7.5c-.69141 0-1.25-.5586-1.25-1.25zm.9375-12.5h1.875c.5195 0 .9375.41797.9375.9375s-.418.9375-.9375.9375h-1.875c-.51953 0-.9375-.41797-.9375-.9375s.41797-.9375.9375-.9375zm0 3.75h1.875c.5195 0 .9375.41797.9375.9375s-.418.9375-.9375.9375h-1.875c-.51953 0-.9375-.41797-.9375-.9375s.41797-.9375.9375-.9375z"/></svg>