<svg viewBox="0 0 24 24" xmlns="http://www.w3.org/2000/svg"><path d="m12.625 5.75685c-3.07031 0-5.66797 2.01172-6.55078 4.78515 1.3125-.66406 2.79297-1.03515 4.36328-1.03515h3.4375c.3438 0 .625.28125.625.62495 0 .3438-.2812.625-.625.625h-.625-2.8125c-.64844 0-1.27734.0743-1.88672.211-1.01172.2305-1.94922.6406-2.78906 1.1992-2.26563 1.5117-3.76172 4.0938-3.76172 7.0273v.625c0 .5196.41797.9375.9375.9375s.9375-.4179.9375-.9375v-.625c0-1.9023.80859-3.6132 2.10156-4.8125.77344 2.9493 3.45703 5.125 6.64844 5.125h.0391c5.1601-.0273 9.3359-5.1132 9.3359-11.38277 0-1.66406-.293-3.24609-.8242-4.67187-.1016-.26953-.4961-.25781-.6328-.00391-.7344 1.375-2.1875 2.3086-3.8555 2.3086z"/></svg>