<svg viewBox="0 0 24 24" xmlns="http://www.w3.org/2000/svg"><path d="m19.5591 9.30054-4.8594-4.85938.1836-.18359c1.3438-1.34375 3.5195-1.34375 4.8594 0 1.3398 1.34375 1.3437 3.51953 0 4.86328l-.1836.18359zm-.8828.88276-.1836.1836c-.6836.6836-1.586 1.0196-2.4844 1.0079l-3.3828-3.38286c-.0156-.89843.3203-1.80078 1.0078-2.48437l.1836-.18359zm-2.6797 2.4415c1.2226.0156 2.4492-.4415 3.3789-1.3711l.1836-.1836.4414-.4414.4414-.4414.1836-.1836c1.832-1.83207 1.832-4.79691 0-6.62894-1.832-1.83204-4.7969-1.83204-6.6289-.00391l-.1836.18359-.4414.44141-.4414.44531-.1836.1836c-.9297.92968-1.3867 2.15625-1.3711 3.3789l-8.78907 9.37504c-.375.4023-.58594.9336-.58594 1.4843 0 .5743.22656 1.125.63672 1.5352l.96875.9687c.40625.4063.95703.6329 1.53515.6329.55079 0 1.08204-.211 1.48438-.586l5.37501-5.043v5.004c0 .3437.2812.625.625.625.3437 0 .625-.2813.625-.625v-6.1758zm-10.22658 7.875c-.17188.1601-.39453.25-.62891.25-.24218 0-.47656-.0977-.64843-.2696l-.97266-.9687c-.17188-.1719-.26953-.4063-.26953-.6485 0-.2343.08984-.457.25-.6289l8.51561-9.08591 2.836 2.83591z"/></svg>