<svg viewBox="0 0 24 24" xmlns="http://www.w3.org/2000/svg"><path d="m20.7194 3.28058c-1.707-1.70703-4.4805-1.70703-6.1875 0l-.1836.18359 6.1875 6.1875.1836-.18359c1.707-1.70703 1.707-4.48047 0-6.1875zm-7.2539 1.0664-.1836.1836c-.9531.95312-1.375 2.23437-1.2656 3.47656l3.9766 3.97656c1.2421.1094 2.5234-.3125 3.4765-1.2656l.1836-.1836zm-2.5156 4.35938-.5195.59766-8.12505 9.37498c-.42969.4961-.40234 1.2383.0625 1.7031l1.25 1.25c.46484.4649 1.20703.4922 1.70313.0625l5.42972-4.707v3.7617c0 .6914.5586 1.25 1.25 1.25s1.25-.5586 1.25-1.25v-5.9297l1.4453-1.25.5976-.5195z"/></svg>