<svg viewBox="0 0 24 24" xmlns="http://www.w3.org/2000/svg"><path d="m17.4844 6.41406c.0937-.30859.1406-.63672.1406-.97265 0-1.89844-1.5391-3.4375-3.4375-3.4375s-3.4375 1.53906-3.4375 3.4375c0 1.16797.582 2.19921 1.4688 2.82031-3.59771.16016-6.4688 3.13278-6.4688 6.77348 0 .4804.10547.9375.29297 1.3437h-1.23047c-1.55469 0-2.8125 1.2578-2.8125 2.8125s1.25781 2.8125 2.8125 2.8125h15c.5195 0 .9375-.418.9375-.9375s-.418-.9375-.9375-.9375h-15c-.51953 0-.9375-.418-.9375-.9375s.41797-.9375.9375-.9375h4.15625 2.09375.3125.7422 4.8281c.7227 0 1.3047-.5859 1.3047-1.3047 0-.5508-.3438-1.039-.8594-1.2265l-1.707-.6211.9297-2.4805c.0781.0039.1562.0078.2344.0078h4.0156c.6289 0 1.1367-.5078 1.1367-1.1367 0-1.62111-.7539-3.06251-1.9297-4.00001.4258-.57422.6797-1.28125.6797-2.05078 0-1.8125-1.4023-3.29688-3.1797-3.42969.8047.79687 1.3047 1.89844 1.3047 3.11719 0 .54297-.0977 1.0625-.2812 1.54297-.3555-.125-.7266-.21485-1.1094-.25782zm.1406 3.2461c0-.2072.0823-.40592.2288-.55243s.3452-.22882.5524-.22882c.2073 0 .406.08231.5525.22882s.2288.34523.2288.55243-.0823.40594-.2288.55244-.3452.2288-.5525.2288c-.2072 0-.4059-.0823-.5524-.2288s-.2288-.34524-.2288-.55244zm-3.4375-5.78125c.8633 0 1.5625.69921 1.5625 1.5625v.9375c0 .34375-.2812.625-.625.625h-.9375c-.8633 0-1.5625-.69922-1.5625-1.5625 0-.86329.6992-1.5625 1.5625-1.5625z"/></svg>