<svg viewBox="0 0 24 24" xmlns="http://www.w3.org/2000/svg"><path d="m16.8203 3.43359c.2422-.11718.5156-.17968.8047-.17968 1.0352 0 1.875.83984 1.875 1.875 0 .375-.1094.72656-.3008 1.01953-.4883-.21485-1.0156-.34766-1.5742-.38282v-.01171c0-.875-.3008-1.67969-.8047-2.32032zm3.4453 3.36719c.3047-.48437.4844-1.05859.4844-1.67187 0-1.72657-1.3984-3.125-3.125-3.125-.6602 0-1.2773.20703-1.7812.55859-.5743-.35547-1.2461-.55859-1.9688-.55859-2.0742 0-3.75 1.69531-3.75 3.76171 0 1.00391.3984 1.94532 1.0742 2.63672-3.11326.65625-5.4492 3.41796-5.4492 6.72656 0 .7031.23438 1.3516.625 1.875h-1.875c-1.37891 0-2.5 1.1211-2.5 2.5s1.12109 2.5 2.5 2.5h15.625c.3438 0 .625-.2812.625-.625 0-.3437-.2812-.625-.625-.625h-15.625c-.69141 0-1.25-.5586-1.25-1.25s.55859-1.25 1.25-1.25h4.375 6.5625.4727c.9453 0 1.7148-.7695 1.7148-1.7148 0-.7383-.4727-1.3946-1.1719-1.625l-.5-.168.8438-2.1172h3.3281c1.0352 0 1.875-.8398 1.875-1.875v-.3125c0-1.46874-.6758-2.78124-1.7344-3.64062zm-11.3906 10.20312c-1.03516 0-1.875-.8398-1.875-1.875 0-3.1055 2.51953-5.62499 5.625-5.62499h.625c.3008 0 .5625-.21485.6133-.51172.0508-.29688-.1133-.58985-.3945-.69531l-.4727-.17579c-.9727-.36328-1.6211-1.30468-1.6211-2.35156 0-1.38672 1.1211-2.51562 2.5-2.51562s2.5 1.12109 2.5 2.5v.625c0 .34375.2812.625.625.625h.3125c1.8984 0 3.4375 1.53906 3.4375 3.43749v.3125c0 .3438-.2812.625-.625.625h-3.75c-.2539 0-.4844.1563-.582.3945l-1.0313 2.5782-1.3164-.4375c-.3281-.1094-.6797.0664-.7891.3945-.1093.3281.0665.6797.3946.7891l3.0039 1c.1914.0625.3164.2421.3164.4414 0 .2578-.207.4648-.4649.4648h-.4687zm6.25-11.87499c0-.34375-.2812-.625-.625-.625s-.625.28125-.625.625v.625h-.625c-.3438 0-.625.28125-.625.625s.2812.625.625.625h1.25c.3438 0 .625-.28125.625-.625zm3.75 4.21875c0-.2072-.0823-.40592-.2288-.55243s-.3452-.22882-.5524-.22882c-.2073 0-.406.08231-.5525.22882s-.2288.34523-.2288.55243.0823.40591.2288.55242c.1465.14652.3452.22882.5525.22882.2072 0 .4059-.0823.5524-.22882.1465-.14651.2288-.34522.2288-.55242z"/></svg>