<svg viewBox="0 0 24 24" xmlns="http://www.w3.org/2000/svg"><path d="m8.25 4.5c-.69141 0-1.25.55859-1.25 1.25v12.5c0 .457-.12109.8828-.33594 1.25h12.21094c1.0352 0 1.875-.8398 1.875-1.875v-11.875c0-.69141-.5586-1.25-1.25-1.25zm-3.75 16.25c-1.37891 0-2.5-1.1211-2.5-2.5v-10c0-1.37891 1.12109-2.5 2.5-2.5v1.25c-.69141 0-1.25.55859-1.25 1.25v10c0 .6914.55859 1.25 1.25 1.25s1.25-.5586 1.25-1.25v-12.5c0-1.37891 1.12109-2.5 2.5-2.5h11.25c1.3789 0 2.5 1.12109 2.5 2.5v11.875c0 1.7266-1.3984 3.125-3.125 3.125zm12.5-14.375c0-.34375.2812-.625.625-.625h1.25c.3438 0 .625.28125.625.625s-.2812.625-.625.625h-1.25c-.3438 0-.625-.28125-.625-.625zm0 2.5c0-.34375.2812-.625.625-.625h1.25c.3438 0 .625.28125.625.625s-.2812.625-.625.625h-1.25c-.3438 0-.625-.28125-.625-.625zm0 2.5c0-.3438.2812-.625.625-.625h1.25c.3438 0 .625.2812.625.625s-.2812.625-.625.625h-1.25c-.3438 0-.625-.2812-.625-.625zm-8.75 2.5c0-.3438.28125-.625.625-.625h10c.3438 0 .625.2812.625.625s-.2812.625-.625.625h-10c-.34375 0-.625-.2812-.625-.625zm0 2.5c0-.3438.28125-.625.625-.625h10c.3438 0 .625.2812.625.625s-.2812.625-.625.625h-10c-.34375 0-.625-.2812-.625-.625zm1.25-5.625h5v-3.75h-5zm-1.25-4.0625c0-.51953.41797-.9375.9375-.9375h5.625c.5195 0 .9375.41797.9375.9375v4.375c0 .5195-.418.9375-.9375.9375h-5.625c-.51953 0-.9375-.418-.9375-.9375z"/></svg>