<svg viewBox="0 0 24 24" xmlns="http://www.w3.org/2000/svg"><path d="m5.75 5.75391c0-1.37891 1.12109-2.5 2.5-2.5h11.25c1.3789 0 2.5 1.12109 2.5 2.5v12.49999c0 1.3789-1.1211 2.5-2.5 2.5h-14.375c-1.72656 0-3.125-1.3984-3.125-3.125v-10.62499c0-.69141.55859-1.25 1.25-1.25s1.25.55859 1.25 1.25v10.62499c0 .3438.28125.625.625.625s.625-.2812.625-.625zm2.5.9375v3.125c0 .51949.41797.93749.9375.93749h4.375c.5195 0 .9375-.418.9375-.93749v-3.125c0-.51953-.418-.9375-.9375-.9375h-4.375c-.51953 0-.9375.41797-.9375.9375zm8.125-.3125c0 .34375.2812.625.625.625h1.875c.3438 0 .625-.28125.625-.625s-.2812-.625-.625-.625h-1.875c-.3438 0-.625.28125-.625.625zm0 3.74999c0 .3438.2812.625.625.625h1.875c.3438 0 .625-.2812.625-.625 0-.34374-.2812-.62499-.625-.62499h-1.875c-.3438 0-.625.28125-.625.62499zm-8.125 3.75c0 .3438.28125.625.625.625h10c.3438 0 .625-.2812.625-.625 0-.3437-.2812-.625-.625-.625h-10c-.34375 0-.625.2813-.625.625zm0 3.75c0 .3438.28125.625.625.625h10c.3438 0 .625-.2812.625-.625 0-.3437-.2812-.625-.625-.625h-10c-.34375 0-.625.2813-.625.625z"/></svg>