<svg viewBox="0 0 24 24" xmlns="http://www.w3.org/2000/svg"><path d="m20.748 12.0938c-.0039.5507-.539 1.1601-1.4882 1.1601h-3.8243c-1.7265 0-3.125 1.3984-3.125 3.125 0 .2188.0235.4375.0665.6484.1132.5391.3476 1.0665.5156 1.4454.0312.0664.0586.1289.082.1875.1953.4531.2695.7109.2695.9179 0 .75-.4804 1.1563-.8867 1.1719-.1211.0039-.2422.0078-.3633.0078-4.82808-.0039-8.74605-3.9219-8.74605-8.7539 0-4.83202 3.91797-8.74999 8.74995-8.74999 4.8321 0 8.75 3.91797 8.75 8.74999zm1.25.0117c0-.0352 0-.0703 0-.1055 0-5.51953-4.4765-9.99609-10-9.99609-5.52339 0-9.99995 4.47656-9.99995 9.99999 0 5.5234 4.47656 10 9.99995 10 .1368 0 .2774-.0039.4141-.0078 1.2422-.0508 2.0859-1.1758 2.0859-2.4219 0-.5664-.2382-1.1054-.4726-1.6406-.168-.3828-.3399-.7695-.4219-1.168-.0273-.125-.039-.2539-.039-.3867 0-1.0351.8398-1.875 1.875-1.875h3.8242c1.4258 0 2.7226-.9687 2.7383-2.3945zm-14.06245-.1016c0-.2486-.09878-.4871-.27459-.6629-.17582-.1758-.41427-.2746-.66291-.2746s-.4871.0988-.66292.2746c-.17581.1758-.27458.4143-.27458.6629s.09877.4871.27458.6629c.17582.1758.41428.2746.66292.2746s.48709-.0988.66291-.2746c.17581-.1758.27459-.4143.27459-.6629zm.3125-2.81249c.24864 0 .48709-.09878.66291-.27459.17581-.17582.27459-.41427.27459-.66291s-.09878-.4871-.27459-.66292c-.17582-.17581-.41427-.27458-.66291-.27458s-.4871.09877-.66292.27458c-.17581.17582-.27458.41428-.27458.66292s.09877.48709.27458.66291c.17582.17581.41428.27459.66292.27459zm4.68745-2.1875c0-.24864-.0987-.4871-.2745-.66292-.1759-.17581-.4143-.27458-.663-.27458-.2486 0-.4871.09877-.6629.27458-.1758.17582-.2746.41428-.2746.66292s.0988.48709.2746.66291c.1758.17581.4143.27459.6629.27459.2487 0 .4871-.09878.663-.27459.1758-.17582.2745-.41427.2745-.66291zm2.8125 2.1875c.2487 0 .4871-.09878.663-.27459.1758-.17582.2745-.41427.2745-.66291s-.0987-.4871-.2745-.66292c-.1759-.17581-.4143-.27458-.663-.27458-.2486 0-.487.09877-.6629.27458-.1758.17582-.2746.41428-.2746.66292s.0988.48709.2746.66291c.1759.17581.4143.27459.6629.27459z"/></svg>