<svg fill="none" height="40" viewBox="0 0 40 40" width="40" xmlns="http://www.w3.org/2000/svg" xmlns:xlink="http://www.w3.org/1999/xlink"><clipPath id="a"><path d="m0 0h40v40h-40z"/></clipPath><g clip-path="url(#a)"><path d="m39.9688 2.87969-5 32.42971c-.1172.7605-.5762 1.4234-1.2477 1.8008-.3784.2124-.8023.32-1.225.32-.3272 0-.6499-.0637-.9602-.1931l-9.5781-3.9922-3.9734 5.9602c-.3047.5215-.8125.7949-1.3594.7949-.8984 0-1.625-.7266-1.625-1.625v-7.5141c0-.5558.1853-1.096.5267-1.5343l16.9733-21.82659-22.94531 20.64839-8.01641-3.3437c-.87906-.3672-1.4748027-1.1953-1.53339646-2.2188-.05859374-1.0234.42726546-1.8531 1.25468646-2.3257l35.00003-19.929726c.8351-.477266 1.8656-.43336 2.6562.109844.7906.543203 1.2014 1.490942 1.053 2.439372z" fill="#1f2937"/></g></svg>