<svg viewBox="0 0 24 24" xmlns="http://www.w3.org/2000/svg"><g><path d="m4.1758 8.6344c-.1574.44174-.29869.89931-.37979 1.34099-.03706.21121.069.42271-.04346.54461-.10008.1439-.25634.2329-.50116.5756l-.11747.0529c-.43766-.0917-.62502-.4921-.65554-.8132-.04347-.34542.22253-.58377.38584-.79905.32267-.4333.74408-.7531 1.21614-.98801z"/><path d="m9.55468 1.70532c-.2041.51193-.39534 1.03602-.53726 1.55154-.06647.25038.00463.5175-.13104.6813-.12364.18856-.29291.29566-.55806.64731l-.12124.0429c-.44315-.17582-.57693-.64183-.57334-.98764-.00669-.3736.2821-.61884.46946-.85852.1889-.24623.40059-.46122.6279-.65385.23659-.18476.46567-.36502.72652-.50793z"/><path d="m20.1164 8.81079c.3934.35088.7162.77011.9136 1.27301.1009.2504.2948.5505.1621.8723-.0593.2694-.6194.8315-.9456.5305-.1462-.3949-.2736-.5219-.3323-.6871-.0764-.1474.0815-.3232.1014-.5372.0181-.206.0227-.4306.0196-.66409.0072-.23835-.0206-.4753-.0337-.7294z"/><path d="m14.9237 1.48047c.3881.45553.7017.96676.8932 1.54431.0973.28849.2886.61537.1586.96597-.1112.32689-.3918.72251-.8681.74178l-.1003-.08068c-.1336-.41966-.2579-.57656-.3122-.79563-.0736-.19953.0821-.42826.1023-.68616.0367-.53359.03-1.09087.007-1.64184z"/><path d="m11.9089 21.7074c-1.4917.0408-2.95508.8954-4.52907.8834-.9764-.0075-2.32759-.9198-2.32021-2.1188.00739-1.1991 1.58046-2.4584 2.87088-3.9965 1.0174-1.2126 2.04663-4.0037 3.9892-4.0569 1.868-.0512 2.5744 1.905 3.1514 3.0572.8623 1.7222 3.9258 3.048 3.4177 5.2436-.3804 1.6437-1.4824 1.89-2.2355 1.8435-.8572-.0528-2.4763-.9066-4.3444-.8555z"/><path d="m5.37531 12.0081c-.53172-1.5597-1.84762-2.5223-2.93916-2.15016-1.09153.37216-1.545347 1.93816-1.01362 3.49776.53172 1.5596 1.84763 2.5223 2.93917 2.1501 1.09153-.3721 1.54534-1.9381 1.01361-3.4977z"/><path d="m10.9191 5.95211c-.3546-1.7684-1.64532-3.0008-2.88298-2.75263-1.23767.24817-1.95355 1.88292-1.59896 3.65133.35459 1.7684 1.64537 3.0008 2.88303 2.75263 1.23771-.24817 1.95351-1.88292 1.59891-3.65133z"/><path d="m15.9947 3.12671c-1.2449-.20846-2.4957 1.06458-2.7935 2.84342-.2979 1.77883.4699 3.38986 1.7149 3.59832s2.4957-1.06458 2.7935-2.84342c.2979-1.77884-.4699-3.38986-1.7149-3.59832z"/><path d="m21.6229 10.0505c-1.081-.40181-2.4227.5245-2.9968 2.0691-.5741 1.5445-.1632 3.1223.9178 3.5241s2.4227-.5246 2.9967-2.0691c.5741-1.5445.1632-3.1223-.9177-3.5241z"/></g></svg>