<svg viewBox="0 0 24 24" xmlns="http://www.w3.org/2000/svg"><path d="m13.1358 17.3477c.1702 1.3715 1.3406 2.4305 2.7577 2.4305h4.8345c-.7363 0-1.3024-.3993-1.6393-.8646-.3299-.4548-.4932-1.0416-.4341-1.6215.0104-.0937.0139-.191.0139-.2882 0-1.4167-1.0593-2.5868-2.4312-2.7569l.9204-.9202c1.5247.5243 2.6222 1.9722 2.6222 3.6771 0 .1354-.007.2708-.0209.4028-.0625.6076.3543 1.2639.9656 1.2639h.1667c.6147 0 1.1114.4965 1.1114 1.1111s-.4967 1.1111-1.1114 1.1111h-5.0013c-1.7053 0-3.1536-1.0972-3.6781-2.6215zm-6.49475-6.4584-3.98715-3.98262c-.86828-.86805-.86828-2.2743 0-3.14236.86828-.86805 2.27489-.86805 3.14318 0l3.98715 3.98264-.78493.78472-3.98715-3.98263c-.43414-.43403-1.13919-.43403-1.57333 0-.43414.43402-.43414 1.13888 0 1.57291l3.98715 3.98264zm11.40225-6.40275c-.3265-.32639-.8544-.32639-1.1774 0l-1.9067 1.90277 2.6604 2.65973 1.9033-1.90278c.3264-.32639.3264-.85417 0-1.17709zm-12.04131 10.86115c-.26396.2638-.45498.5868-.55917.9444l-.95164 3.2222 3.22306-.9479c.35773-.1042.68074-.2986.94469-.559l8.17577-8.17363-2.6604-2.65972zm10.07551-11.64588c.7606-.76041 1.9901-.76041 2.7507 0l1.4796 1.47917c.7606.76042.7606 1.98958 0 2.75l-10.86047 10.86111c-.39593.3958-.88217.684-1.41703.8403l-4.20249 1.2361c-.19449.059-.40635.0035-.54875-.1389s-.19797-.3542-.13893-.5486l1.23644-4.2014c.15629-.5347.44803-1.0208.84049-1.4167z"/></svg>