<svg viewBox="0 0 24 24" xmlns="http://www.w3.org/2000/svg"><path d="m5.31989 3.68359 4.53819 4.5382-2.75 2.75001-4.53819-4.53821c-.76042-.76041-.76042-1.98958 0-2.75.76041-.76041 1.98958-.76041 2.75 0zm10.56941 17.20831c-1.8611 0-3.4201-1.309-3.7986-3.059l4.6285-4.6285c1.7465.382 3.059 1.9375 3.059 3.7986 0 .1355-.0069.2709-.0208.4028-.0625.6077.3542 1.2639.9653 1.2639h.1666c.6146 0 1.1111.4965 1.1111 1.1111s-.4965 1.1111-1.1111 1.1111zm3.5174-17.10761.8125.8125c.868.86805.868 2.2743 0 3.14236l-1.9583 1.95833-3.9584-3.95486 1.9584-1.95833c.868-.86806 2.2743-.86806 3.1423 0zm-14.73612 11.59371 8.84722-8.85066 3.9583 3.95836-8.85066 8.8472c-.23264.2326-.5243.4028-.84028.4931l-3.61111 1.0312c-.29166.0833-.60416.0035-.81944-.2118s-.29514-.5278-.21181-.8194l1.03125-3.6112c.09028-.3194.26042-.6076.49306-.8402z"/></svg>