<svg viewBox="0 0 24 24" xmlns="http://www.w3.org/2000/svg"><path d="m17.4716 3.53621c.3672-.36719.9609-.36719 1.3242 0l1.6641 1.66406c.3672.36719.3672.96094 0 1.32422l-2.1367 2.14453-2.9922-2.99219zm-3.0234 3.02344 2.9921 2.99218-9.19527 9.19137c-.29688.2969-.66016.5118-1.0625.6289l-3.625 1.0704 1.06641-3.625c.11718-.4024.33593-.7657.6289-1.0625zm5.2343-3.90625c-.8554-.85547-2.2383-.85547-3.0937 0l-12.21877 12.2148c-.44531.4454-.76953.9922-.94531 1.5938l-1.38672 4.7266c-.06641.2187-.00391.457.15625.6171.16015.1602.39843.2227.61718.1563l4.72657-1.3906c.60156-.1758 1.14844-.5039 1.59375-.9453l12.21485-12.21489c.8555-.85547.8555-2.23828 0-3.09375z"/></svg>