<svg viewBox="0 0 24 24" xmlns="http://www.w3.org/2000/svg"><path d="m6.78105 3.25391c.33152 0 .64946.13169.88388.36611s.36612.55237.36612.88389-.1317.64946-.36612.88388-.55236.36612-.88388.36612-.64946-.1317-.88388-.36612-.36612-.55236-.36612-.88388.1317-.64947.36612-.88389.55236-.36611.88388-.36611zm0 3.75c.66304 0 1.29893-.2634 1.76777-.73224s.73223-1.10472.73223-1.76776-.26339-1.29893-.73223-1.76777-1.10473-.73223-1.76777-.73223-1.29893.26339-1.76777.73223-.73223 1.10473-.73223 1.76777.26339 1.29892.73223 1.76776 1.10473.73224 1.76777.73224zm-.875 2.5h1.75c.97656 0 1.78906.74609 1.86719 1.71879l.16015 1.9257c.0625.7305-.51562 1.3555-1.24609 1.3555h-3.3125c-.73047 0-1.30469-.625-1.24609-1.3555l.16015-1.9257c.08203-.9727.89453-1.71879 1.86719-1.71879zm0-1.25c-1.625 0-2.98047 1.24609-3.11328 2.86719l-.16016 1.9258c-.09765 1.164.61328 2.1914 1.64844 2.5625v5.7695c0 .3438.28125.625.625.625s.625-.2812.625-.625v-5.625h2.5v5.625c0 .3438.28125.625.625.625s.625-.2812.625-.625v-5.7695c1.03515-.3711 1.74605-1.3985 1.64845-2.5625l-.1602-1.9258c-.1328-1.6211-1.48825-2.86719-3.11325-2.86719zm10.87495-5c.3316 0 .6495.13169.8839.36611.2345.23442.3661.55237.3661.88389s-.1316.64946-.3661.88388c-.2344.23442-.5523.36612-.8839.36612-.3315 0-.6494-.1317-.8838-.36612-.2345-.23442-.3662-.55236-.3662-.88388s.1317-.64947.3662-.88389c.2344-.23442.5523-.36611.8838-.36611zm0 3.75c.6631 0 1.299-.2634 1.7678-.73224.4689-.46884.7322-1.10472.7322-1.76776s-.2633-1.29893-.7322-1.76777c-.4688-.46884-1.1047-.73223-1.7678-.73223-.663 0-1.2989.26339-1.7677.73223-.4689.46884-.7323 1.10473-.7323 1.76777s.2634 1.29892.7323 1.76776c.4688.46884 1.1047.73224 1.7677.73224zm-.6132 2.5h1.2265c.5586 0 1.0469.37109 1.2032.90629l1.5273 5.3437h-6.6875l1.5273-5.3437c.1524-.5352.6446-.90629 1.2032-.90629zm0-1.25c-1.1172 0-2.0977.73828-2.4024 1.81249l-1.5273 5.3438c-.2266.7968.3711 1.5937 1.2031 1.5937h.8398v4.375c0 .3438.2813.625.625.625.3438 0 .625-.2812.625-.625v-4.375h2.5v4.375c0 .3438.2813.625.625.625.3438 0 .625-.2812.625-.625v-4.375h.8438c.832 0 1.4297-.793 1.2031-1.5937l-1.5273-5.3438c-.3047-1.07421-1.2891-1.81249-2.4024-1.81249z"/></svg>