<svg viewBox="0 0 24 24" xmlns="http://www.w3.org/2000/svg"><path d="m4.25 6.75391c0-.46413.18437-.90925.51256-1.23744s.77331-.51256 1.23744-.51256.90925.18437 1.23744.51256.51256.77331.51256 1.23744-.18437.90924-.51256 1.23743-.77331.51257-1.23744.51257-.90925-.18438-1.23744-.51257-.51256-.7733-.51256-1.23743zm-.25 4.92809c-.3125.35-.5.8157-.5 1.3219 0 .5063.1875.9719.5 1.3219zm4.5125-1.5406c-.92813.8219-1.5125 2.025-1.5125 3.3625 0 1.0719.375 2.0563 1 2.8281v.6719c0 .5531-.44688 1-1 1h-2c-.55312 0-1-.4469-1-1v-.8375c-1.18125-.5625-2-1.7656-2-3.1625 0-1.9344 1.56562-3.49999 3.5-3.49999h1c.75 0 1.44375.23437 2.0125.63439zm7.4875 6.8625v-.6719c.625-.7718 1-1.7562 1-2.8281 0-1.3375-.5844-2.5406-1.5125-3.3656.5688-.40002 1.2625-.63439 2.0125-.63439h1c1.9344 0 3.5 1.56559 3.5 3.49999 0 1.3969-.8188 2.6-2 3.1625v.8375c0 .5531-.4469 1-1 1h-2c-.5531 0-1-.4469-1-1zm.25-10.24999c0-.46413.1844-.90925.5126-1.23744s.7733-.51256 1.2374-.51256.9092.18437 1.2374.51256.5126.77331.5126 1.23744-.1844.90924-.5126 1.23743-.7733.51257-1.2374.51257-.9092-.18438-1.2374-.51257-.5126-.7733-.5126-1.23743zm3.75 4.92809v2.6469c.3125-.3531.5-.8156.5-1.3219 0-.5062-.1875-.9718-.5-1.3218zm-8-6.67809c.5304 0 1.0391.21071 1.4142.58578.3751.37508.5858.88378.5858 1.41422 0 .53043-.2107 1.03914-.5858 1.41421s-.8838.58579-1.4142.58579-1.0391-.21072-1.4142-.58579-.5858-.88378-.5858-1.41421c0-.53044.2107-1.03914.5858-1.41422.3751-.37507.8838-.58578 1.4142-.58578zm-2.5 8.49999c0 .5063.1875.9688.5 1.3219v-2.6438c-.3125.3532-.5.8157-.5 1.3219zm4.5-1.3219v2.6469c.3125-.3531.5-.8156.5-1.3219 0-.5062-.1875-.9718-.5-1.3218zm2 1.3219c0 1.3969-.8188 2.6-2 3.1625v1.3375c0 .5531-.4469 1-1 1h-2c-.5531 0-1-.4469-1-1v-1.3375c-1.18125-.5625-2-1.7656-2-3.1625 0-1.9344 1.56563-3.5 3.5-3.5h1c1.9344 0 3.5 1.5656 3.5 3.5z"/></svg>