<svg viewBox="0 0 24 24" xmlns="http://www.w3.org/2000/svg"><path d="m6.78105 7.00391c.66304 0 1.29893-.2634 1.76777-.73224s.73223-1.10472.73223-1.76776-.26339-1.29893-.73223-1.76777-1.10473-.73223-1.76777-.73223-1.29893.26339-1.76777.73223-.73223 1.10473-.73223 1.76777.26339 1.29892.73223 1.76776 1.10473.73224 1.76777.73224zm-.875 1.25c-1.625 0-2.98047 1.24609-3.11328 2.86719l-.16016 1.9258c-.09765 1.164.61328 2.1914 1.64844 2.5625v4.5195c0 1.0352.83984 1.875 1.875 1.875h1.25c1.03516 0 1.875-.8398 1.875-1.875v-4.5195c1.03515-.3711 1.74605-1.3985 1.64845-2.5625l-.1602-1.9258c-.1328-1.6211-1.48825-2.86719-3.11325-2.86719zm10.87495-1.25c.6631 0 1.299-.2634 1.7678-.73224.4689-.46884.7322-1.10472.7322-1.76776s-.2633-1.29893-.7322-1.76777c-.4688-.46884-1.1047-.73223-1.7678-.73223-.663 0-1.2989.26339-1.7677.73223-.4689.46884-.7323 1.10473-.7323 1.76777s.2634 1.29892.7323 1.76776c.4688.46884 1.1047.73224 1.7677.73224zm-.6132 1.25c-1.1172 0-2.0977.73828-2.4024 1.81249l-1.5273 5.3438c-.2266.7968.3711 1.5937 1.2031 1.5937h.8398v3.125c0 1.0352.8399 1.875 1.875 1.875h1.25c1.0352 0 1.875-.8398 1.875-1.875v-3.125h.8438c.832 0 1.4297-.793 1.2031-1.5937l-1.5273-5.3438c-.3047-1.07421-1.2891-1.81249-2.4024-1.81249z"/></svg>