<svg viewBox="0 0 24 24" xmlns="http://www.w3.org/2000/svg"><path d="m6 6.00391c.09849 0 .19602.0194.28701.05709.091.03769.17368.09293.24332.16258.06964.06964.12489.15232.16258.24331.03769.091.05709.18852.05709.28702 0 .09849-.0194.19601-.05709.28701-.03769.09099-.09294.17367-.16258.24332-.06964.06964-.15232.12488-.24332.16258-.09099.03769-.18852.05709-.28701.05709s-.19602-.0194-.28701-.05709c-.091-.0377-.17368-.09294-.24332-.16258-.06964-.06965-.12489-.15233-.16258-.24332-.03769-.091-.05709-.18852-.05709-.28701 0-.0985.0194-.19602.05709-.28702.03769-.09099.09294-.17367.16258-.24331.06964-.06965.15232-.12489.24332-.16258.09099-.03769.18852-.05709.28701-.05709zm0 2.5c.22981 0 .45738-.04527.6697-.13321.21232-.08795.40523-.21685.56774-.37936.1625-.1625.2914-.35542.37935-.56774s.13321-.43988.13321-.66969c0-.22982-.04526-.45738-.13321-.6697s-.21685-.40524-.37935-.56774c-.16251-.1625-.35542-.29141-.56774-.37935-.21232-.08795-.43989-.13321-.6697-.13321s-.45738.04526-.6697.13321c-.21232.08794-.40523.21685-.56774.37935-.1625.1625-.2914.35542-.37935.56774-.08794.21232-.13321.43988-.13321.6697 0 .22981.04527.45737.13321.66969.08795.21232.21685.40524.37935.56774.16251.16251.35542.29141.56774.37936.21232.08794.43989.13321.6697.13321zm-4 4.24999c0 1.3531.825 2.5125 2 3v1.5c0 .4156.33437.75.75.75h2.5c.41563 0 .75-.3344.75-.75v-1.25c0-.275-.225-.5-.5-.5s-.5.225-.5.5v1h-2v-6.4875c.08125-.0094.16563-.0125.25-.0125h1.5c.29063 0 .56562.0531.81875.1531.25625.1.54687-.0281.64687-.2843.1-.2563-.02812-.54692-.28437-.64692-.36562-.14375-.76562-.22187-1.18125-.22187h-1.5c-1.79375 0-3.25 1.45629-3.25 3.24999zm2 1.8719c-.60312-.4031-1-1.0938-1-1.8719 0-.7812.39688-1.4687 1-1.8719zm14-8.62189c.0985 0 .196.0194.287.05709s.1737.09293.2433.16258c.0697.06964.1249.15232.1626.24331.0377.091.0571.18852.0571.28702 0 .09849-.0194.19601-.0571.28701-.0377.09099-.0929.17367-.1626.24332-.0696.06964-.1523.12488-.2433.16258-.091.03769-.1885.05709-.287.05709s-.196-.0194-.287-.05709c-.091-.0377-.1737-.09294-.2433-.16258-.0697-.06965-.1249-.15233-.1626-.24332-.0377-.091-.0571-.18852-.0571-.28701 0-.0985.0194-.19602.0571-.28702.0377-.09099.0929-.17367.1626-.24331.0696-.06965.1523-.12489.2433-.16258s.1885-.05709.287-.05709zm0 2.5c.2298 0 .4574-.04527.6697-.13321.2123-.08795.4052-.21685.5677-.37936.1625-.1625.2914-.35542.3794-.56774.0879-.21232.1332-.43988.1332-.66969 0-.22982-.0453-.45738-.1332-.6697-.088-.21232-.2169-.40524-.3794-.56774s-.3554-.29141-.5677-.37935c-.2123-.08795-.4399-.13321-.6697-.13321s-.4574.04526-.6697.13321c-.2123.08794-.4052.21685-.5677.37935s-.2914.35542-.3794.56774c-.0879.21232-.1332.43988-.1332.6697 0 .22981.0453.45737.1332.66969.088.21232.2169.40524.3794.56774.1625.16251.3554.29141.5677.37936.2123.08794.4399.13321.6697.13321zm4 4.24999c0-1.7937-1.4562-3.24999-3.25-3.24999h-1.5c-.4156 0-.8156.07812-1.1812.22187-.2563.1-.3844.39062-.2844.64692.1.2562.3906.3843.6468.2843.2532-.1.5282-.1531.8188-.1531h1.5c.0844 0 .1688.0031.25.0125v6.4875h-2v-1c0-.275-.225-.5-.5-.5s-.5.225-.5.5v1.25c0 .4156.3344.75.75.75h2.5c.4156 0 .75-.3344.75-.75v-1.5c1.175-.4906 2-1.6469 2-3zm-2 1.8719v-3.7438c.6031.4032 1 1.0907 1 1.8719 0 .7781-.3969 1.4688-1 1.8719zm-9-7.62189c0-.26522.1054-.51957.2929-.70711s.4419-.29289.7071-.29289.5196.10535.7071.29289.2929.44189.2929.70711c0 .26521-.1054.51957-.2929.7071-.1875.18754-.4419.2929-.7071.2929s-.5196-.10536-.7071-.2929c-.1875-.18753-.2929-.44189-.2929-.7071zm3 0c0-.53044-.2107-1.03914-.5858-1.41422-.3751-.37507-.8838-.58578-1.4142-.58578s-1.0391.21071-1.4142.58578c-.3751.37508-.5858.88378-.5858 1.41422 0 .53043.2107 1.03914.5858 1.41421s.8838.58579 1.4142.58579 1.0391-.21072 1.4142-.58579.5858-.88378.5858-1.41421zm-2.5 2.99999c-1.79375 0-3.25 1.4563-3.25 3.25 0 1.2531.70937 2.3406 1.75 2.8844v2.1156c0 .4156.3344.75.75.75h2.5c.4156 0 .75-.3344.75-.75v-2.1156c1.0406-.5406 1.75-1.6281 1.75-2.8844 0-1.7937-1.4563-3.25-3.25-3.25zm-1.5 1.5719v3.3562c-.45937-.4125-.75-1.0125-.75-1.6781s.29063-1.2656.75-1.6781zm1 6.4281v-6.9437c.1594-.0375.3281-.0563.5-.0563h1c.1719 0 .3406.0188.5.0563v6.9437zm3-3.0719v-3.3562c.4594.4125.75 1.0094.75 1.6781 0 .6656-.2906 1.2656-.75 1.6781z"/></svg>