<svg viewBox="0 0 24 24" xmlns="http://www.w3.org/2000/svg"><path d="m16.678 12.7478c-.6406-.2734-1.3828-.0937-1.8242.4453l-1.2969 1.586c-1.7969-1.043-3.2969-2.543-4.33986-4.3399l1.58206-1.29294c.539-.4414.7226-1.18359.4453-1.82421l-1.87502-4.375c-.29296-.6875-1.03124-1.07032-1.76171-.91407l-4.375.9375c-.71875.15235-1.23438.78907-1.23438 1.52735 0 9.24607 7.16797 16.81637 16.25001 17.45707.1758.0117.3555.0234.5351.0312h.004c.2382.0078.4726.0156.7148.0156.7383 0 1.375-.5156 1.5273-1.2343l.9375-4.375c.1563-.7305-.2265-1.4688-.914-1.7618l-4.375-1.875zm2.8086 8c-8.9688-.0078-16.23831-7.2773-16.23831-16.24997 0-.14844.10156-.27344.24609-.30469l4.375-.9375c.14454-.03125.29297.04687.35157.18359l1.87495 4.375c.0547.12891.0196.27735-.0898.36328l-1.58593 1.29688c-.47266.38672-.59766 1.06251-.28907 1.59371 1.15235 1.9883 2.8086 3.6446 4.793 4.793.5312.3086 1.207.1836 1.5937-.2891l1.2969-1.5859c.0898-.1094.2383-.1445.3633-.0898l4.375 1.875c.1367.0586.2148.207.1836.3515l-.9375 4.375c-.0313.1446-.1602.2461-.3047.2461-.0039 0-.0078 0-.0117 0z"/></svg>