<svg viewBox="0 0 24 24" xmlns="http://www.w3.org/2000/svg"><path d="m8.44096 2.96572c-.30078-.72656-1.09375-1.11328-1.85156-.90625l-3.4375.9375c-.67969.1875-1.15234.80469-1.15234 1.50782 0 9.66401 7.83593 17.50001 17.50004 17.50001.7031 0 1.3203-.4727 1.5078-1.1524l.9375-3.4375c.207-.7578-.1797-1.5507-.9063-1.8515l-3.75-1.5625c-.6367-.2656-1.375-.0821-1.8086.4531l-1.5781 1.9258c-2.75-1.3008-4.97656-3.5274-6.27734-6.2774l1.92578-1.57418c.53516-.4375.71876-1.17187.45316-1.80859l-1.56254-3.75z"/></svg>