<svg fill="none" height="40" viewBox="0 0 40 40" width="40" xmlns="http://www.w3.org/2000/svg"><path d="m10.5 17c-.88125 0-1.71484.1797-2.5.4609v-.4609c0-2.7578 2.2422-5 5-5 1.3805 0 2.5-1.1195 2.5-2.5 0-1.38047-1.1172-2.5-2.5-2.5-5.51406 0-10 4.4844-10 10v7.5c0 4.1422 3.35781 7.5 7.5 7.5 4.1422 0 7.5-3.3578 7.5-7.5s-3.3594-7.5-7.5-7.5zm20 0c-.8813 0-1.7148.1801-2.5.4593v-.4593c0-2.7578 2.2422-5 5-5 1.3805 0 2.5-1.1195 2.5-2.5 0-1.38047-1.1195-2.5-2.5-2.5-5.5141 0-10 4.4859-10 10v7.5c0 4.1422 3.3578 7.5 7.5 7.5s7.5-3.3578 7.5-7.5-3.3594-7.5-7.5-7.5z" fill="#1f2937"/></svg>