<svg viewBox="0 0 24 24" xmlns="http://www.w3.org/2000/svg"><path d="m15.8047 7.00391c.1875 0 .375.01171.5586.03515.043-.9375-.1016-1.87109-.4258-2.73828.2969-.69531.7266-1.33594 1.2773-1.88672l.1797-.17968c.1446-.14454.3438-.22657.5469-.22657.3594 0 .6719.25.7539.60157l.0391.17187c.3828 1.65625.0703 3.37891-.8203 4.78125.2148.12109.4179.25781.6093.41406l1.3594 1.09766c.5469.44531.8672 1.11718.8672 1.82418 0 1.3008-1.0547 2.3555-2.3555 2.3555h-1.3945v1.0078l2.4102 6.0274c.2578.6406-.0547 1.3671-.6954 1.625-.6406.2578-1.3671-.0547-1.625-.6953l-1.539-3.8516-1.9258 2.1367h.875c.6914 0 1.25.5586 1.25 1.25s-.5586 1.25-1.25 1.25h-3.125-1.875c-1.11328 0-2.05469-.7266-2.37891-1.7266-.40234.4805-1.00781.7891-1.68359.7891-1.20703 0-2.1875-.9805-2.1875-2.1875s.98047-2.1875 2.1875-2.1875c.67969 0 1.28906.3125 1.69141.8008.57421-3.0781 3.02729-5.4922 6.12109-6.0078v-1.92581c0-.42578.1055-.82812.2891-1.17968-1.3399-1.42579-1.9649-3.39063-1.6875-5.34375l.0273-.19141c.0703-.48047.4805-.83984.9688-.83984.2578 0 .5039.10156.6875.28515l.121.1211c1.2422 1.23046 1.8711 2.92187 1.7735 4.625.1211-.01954.2461-.02735.375-.02735zm1.8203 3.74999c.1658 0 .3247-.0658.4419-.1831.1173-.1172.1831-.2761.1831-.4419 0-.16575-.0658-.32473-.1831-.44194-.1172-.11721-.2761-.18305-.4419-.18305s-.3247.06584-.4419.18305c-.1173.11721-.1831.27619-.1831.44194 0 .1658.0658.3247.1831.4419.1172.1173.2761.1831.4419.1831z"/></svg>