<svg viewBox="0 0 24 24" xmlns="http://www.w3.org/2000/svg"><path d="m15.4416 2.81641c.254.36718.4727.75.6602 1.15234.1367-.17187.2813-.33594.4375-.49219l.1211-.12109c.0664-.06641.1562-.10156.25-.10156.1758 0 .3242.1289.3477.30078l.0273.1914c.1289.88672.0469 1.78125-.2188 2.60938-.5039-.1875-1.0429-.28906-1.5898-.29297-.2461-1.29688-.8789-2.51562-1.8516-3.47656l-.1211-.1211-.4375.44922.4415-.44531c-.3008-.29688-.7071-.46484-1.129-.46484-.7968 0-1.4726.58593-1.5859 1.375l-.0273.1914c-.2969 2.07031.3359 4.14844 1.7031 5.69922v1.46877c-2.4531.6836-4.43751 2.4883-5.36719 4.8281-.4336-.2773-.95313-.4375-1.50782-.4375-1.55468 0-2.8125 1.2578-2.8125 2.8125s1.25782 2.8125 2.8125 2.8125c.48438 0 .94141-.1211 1.33985-.3398.53515.9453 1.54687 1.582 2.70703 1.5898h.01172.0039 5.00001c1.0351 0 1.875-.8398 1.875-1.875 0-1.0117-.8008-1.8359-1.8047-1.875l.8203-.8672 2.1836 3.6953c.5274.8907 1.6758 1.1875 2.5664.6602.8906-.5274 1.1875-1.6758.6602-2.5664l-3.3125-5.6094h.2851c1.6446 0 2.9805-1.332 2.9805-2.9805 0-.89449-.4023-1.74215-1.0977-2.30856l-1.4453-1.17578c-.0586-.04687-.1211-.09765-.1836-.14062.3828-1.07032.5078-2.23047.3399-3.39063l-.0274-.1914c-.1132-.78907-.789-1.375-1.5859-1.375-.4219 0-.8281.16796-1.1289.46484l-.1211.12109c-.0742.07422-.1484.15235-.2188.22657zm-8.89448 16.36329c-.26563.2031-.59375.3242-.95313.3242-.86328 0-1.5625-.6992-1.5625-1.5625s.69922-1.5625 1.5625-1.5625c.4375 0 .83594.1797 1.11719.4727-.11719.5546-.17969 1.1289-.17969 1.7148v.3125c0 .1016.00391.2031.01563.3008zm5.48438-15.62501c.0234-.17188.1719-.30078.3476-.30078.0938 0 .1836.03515.2461.10156l.1211.12109c.9141.90625 1.4571 2.08985 1.5743 3.32813.0156.17969.1093.33984.2539.44531.1445.10547.3281.14453.5039.10547.1211-.02735.2461-.03906.375-.03906.7734 0 1.5234.26562 2.1211.7539l1.4414 1.17578c.4023.32813.6367.82031.6367 1.33981 0 .9532-.7735 1.7305-1.7305 1.7305h-1.375c-.2226 0-.4297.1211-.543.3164-.1132.1953-.1093.4336.004.6289l3.871 6.5508c.1758.2969.0782.6797-.2187.8555s-.6797.0781-.8555-.2188l-2.6015-4.4101c-.1016-.168-.2735-.2813-.4688-.3047-.1953-.0235-.3906.0468-.5234.1914l-2.3906 2.5234c-.1719.1797-.2188.4492-.1211.6758.0976.2266.3242.3789.5742.3789h1.3828c.3437 0 .625.2813.625.625 0 .3438-.2813.625-.625.625h-5.00001-.00781c-1.03125-.0039-1.86719-.8437-1.86719-1.875v-.3125c0-3.3047 2.33201-6.0664 5.44141-6.7266.2891-.0625.4961-.3164.4961-.6132v-2.17582-.01562c0-.16016-.0586-.31641-.1719-.4375-1.2226-1.29297-1.7969-3.07813-1.543-4.85157zm4.5 6.57421c.1658 0 .3247-.0658.4419-.18305.1172-.11721.1831-.27618.1831-.44194s-.0659-.32474-.1831-.44195-.2761-.18305-.4419-.18305-.3247.06584-.4419.18305c-.1173.11721-.1831.27619-.1831.44195s.0658.32473.1831.44194c.1172.11725.2761.18305.4419.18305z"/></svg>