<svg viewBox="0 0 24 24" xmlns="http://www.w3.org/2000/svg"><path d="m12.5562 4.17266c-.3374-.225-.775-.225-1.1124 0l-4.24692 2.83125h-3.69688c-.82812 0-1.5.67187-1.5 1.5v9.99999c0 .8281.67188 1.5 1.5 1.5h6.5v-3c0-1.1031.8969-2 2-2s2 .8969 2 2v3h6.5c.8281 0 1.5-.6719 1.5-1.5v-9.99999c0-.82813-.6719-1.5-1.5-1.5h-3.6969zm-7.5562 5.83124h1c.275 0 .5.225.5.5v2c0 .275-.225.5-.5.5h-1c-.275 0-.5-.225-.5-.5v-2c0-.275.225-.5.5-.5zm12.5.5c0-.275.225-.5.5-.5h1c.275 0 .5.225.5.5v2c0 .275-.225.5-.5.5h-1c-.275 0-.5-.225-.5-.5zm-12.5 3.5h1c.275 0 .5.225.5.5v2c0 .275-.225.5-.5.5h-1c-.275 0-.5-.225-.5-.5v-2c0-.275.225-.5.5-.5zm12.5.5c0-.275.225-.5.5-.5h1c.275 0 .5.225.5.5v2c0 .275-.225.5-.5.5h-1c-.275 0-.5-.225-.5-.5zm-8.25-4.99999c0-.72935.28973-1.42882.8055-1.94455.5157-.51572 1.2152-.80545 1.9445-.80545s1.4288.28973 1.9445.80545c.5158.51573.8055 1.2152.8055 1.94455 0 .72939-.2897 1.42879-.8055 1.94459-.5157.5157-1.2152.8054-1.9445.8054s-1.4288-.2897-1.9445-.8054c-.51577-.5158-.8055-1.2152-.8055-1.94459zm2.75-1.5c-.275 0-.5.225-.5.5v1c0 .275.225.49999.5.49999h1c.275 0 .5-.22499.5-.49999s-.225-.5-.5-.5h-.5v-.5c0-.275-.225-.5-.5-.5z"/></svg>