<svg viewBox="0 0 24 24" xmlns="http://www.w3.org/2000/svg"><path d="m12.2781 4.08828c-.1687-.1125-.3875-.1125-.5562 0l-4.3719 2.91563h-3.35c-1.10312 0-2 .89687-2 2v8.99999c0 1.1031.89688 2 2 2h6 1 2 1 6c1.1031 0 2-.8969 2-2v-8.99999c0-1.10313-.8969-2-2-2h-3.35zm1.7219 11.91562c0-1.1031-.8969-2-2-2s-2 .8969-2 2v3h-6c-.55313 0-1-.4469-1-1v-8.99999c0-.55313.44687-1 1-1h3.5c.1 0 .19375-.02813.27812-.08438l4.22188-2.81562 4.2219 2.81562c.0812.05625.1781.08438.2781.08438h3.5c.5531 0 1 .44687 1 1v8.99999c0 .5531-.4469 1-1 1h-6zm-1 3h-2v-3c0-.5531.4469-1 1-1s1 .4469 1 1zm-8-9v2c0 .5531.44688 1 1 1h1c.55312 0 1-.4469 1-1v-2c0-.55312-.44688-.99999-1-.99999h-1c-.55312 0-1 .44687-1 .99999zm2 0v2h-1v-2zm10-.99999c-.5531 0-1 .44687-1 .99999v2c0 .5531.4469 1 1 1h1c.5531 0 1-.4469 1-1v-2c0-.55312-.4469-.99999-1-.99999zm0 .99999h1v2h-1zm-12 5v2c0 .5531.44688 1 1 1h1c.55312 0 1-.4469 1-1v-2c0-.5531-.44688-1-1-1h-1c-.55312 0-1 .4469-1 1zm2 0v2h-1v-2zm10-1c-.5531 0-1 .4469-1 1v2c0 .5531.4469 1 1 1h1c.5531 0 1-.4469 1-1v-2c0-.5531-.4469-1-1-1zm0 1h1v2h-1zm-5-6.99999c.5304 0 1.0391.21071 1.4142.58578.3751.37508.5858.88378.5858 1.41421 0 .5304-.2107 1.0391-.5858 1.4142s-.8838.5858-1.4142.5858-1.0391-.2107-1.4142-.5858-.5858-.8838-.5858-1.4142c0-.53043.2107-1.03913.5858-1.41421.3751-.37507.8838-.58578 1.4142-.58578zm0 4.99999c.7956 0 1.5587-.3161 2.1213-.8787s.8787-1.3256.8787-2.1213c0-.79564-.3161-1.5587-.8787-2.12131s-1.3257-.87868-2.1213-.87868-1.5587.31607-2.12132.87868c-.56261.56261-.87868 1.32567-.87868 2.12131 0 .7957.31607 1.5587.87868 2.1213.56262.5626 1.32572.8787 2.12132.8787zm.5-3.99999c0-.275-.225-.5-.5-.5s-.5.225-.5.5v.99999c0 .275.225.5.5.5h.75c.275 0 .5-.225.5-.5 0-.27499-.225-.49999-.5-.49999h-.25z"/></svg>