<svg viewBox="0 0 24 24" xmlns="http://www.w3.org/2000/svg"><path d="m21.375 2 .125.01172c.2852.05859.5.3125.5.61328v1.25l-.0117.44922c-.2266 4.47266-3.8164 8.06248-8.2891 8.28908l-.4492.0117v8.75c0 .3438-.2812.625-.625.625s-.625-.2812-.625-.625v-6.875h-1.25l-.4492-.0117c-4.62502-.2344-8.3008-4.0586-8.3008-8.7383v-.625c0-.30078.21484-.55469.5-.61328l.125-.01172h1.875l.44922.01172c3.11328.15625 5.79688 1.94531 7.21878 4.52344.7695-3.8711 4.0898-6.82032 8.1328-7.02344l.4492-.01172zm-18.125 3.75c0 4.14062 3.35938 7.5 7.5 7.5h1.25c0-4.14062-3.35938-7.5-7.5-7.5zm17.5-2.5c-4.1406 0-7.5 3.35938-7.5 7.5v.625c4.1406 0 7.5-3.35938 7.5-7.5z"/></svg>