<svg fill="none" height="40" viewBox="0 0 40 40" width="40" xmlns="http://www.w3.org/2000/svg"><path d="m25.4444 17.5556h-3.2291c-3.125 0-5.6597 2.5347-5.6597 5.6597 0 1.5486.7152 2.3819 1.3333 2.8125.4722.3264.8889.8333.8889 1.4097 0 .6806-.5556 1.2361-1.2361 1.2361h-.1736c-.1667 0-.3334-.0278-.4931-.0972-1.2361-.5486-6.98611-3.4236-6.98611-9.9097 0-5.5209 4.47921-10.00003 10.00001-10.00003h5.5555v-4.25695c0-1.33333 1.0764-2.40972 2.4098-2.40972.5972 0 1.1666.22222 1.6111.61806l9.5972 8.63884c.5278.4723.8264 1.1459.8264 1.8542s-.2986 1.382-.8264 1.8542l-9.6528 8.6875c-.4097.368-.9375.5694-1.4861.5694h-.2569c-1.2292 0-2.2223-.993-2.2223-2.2222zm-18.88884-8.88893c-.61112 0-1.11112.5-1.11112 1.11111v22.22222c0 .6111.5 1.1111 1.11112 1.1111h22.22224c.6111 0 1.1111-.5 1.1111-1.1111v-3.3333c0-1.2292.993-2.2223 2.2222-2.2223s2.2222.9931 2.2222 2.2223v3.3333c0 3.0694-2.4861 5.5556-5.5555 5.5556h-22.22224c-3.06945 0-5.55556-2.4862-5.55556-5.5556v-22.22222c0-3.06945 2.48611-5.55556 5.55556-5.55556h3.33333c1.22921 0 2.22221.99306 2.22221 2.22222 0 1.22917-.993 2.22223-2.22221 2.22223z" fill="#1f2937"/></svg>