<svg viewBox="0 0 24 24" xmlns="http://www.w3.org/2000/svg"><path d="m11.5117 3.46094c.3125-.13282.6641-.13282.9766 0l6.9023 2.92969c.4414.1875.7383.60546.7344 1.07812-.0195 3.67185-1.539 10.14845-7.6367 13.06645-.3086.1484-.6719.1484-.9805 0-6.09763-2.9219-7.61325-9.3985-7.63278-13.07036-.00391-.47265.29297-.89062.73437-1.07812l6.90231-2.92969zm1.4649-1.15235c-.625-.26562-1.3281-.26562-1.9531 0l-6.90239 2.92969c-.85937.36328-1.5 1.21094-1.49609 2.23438.01953 3.87504 1.61328 10.96484 8.34378 14.18754.6523.3125 1.4101.3125 2.0625 0 6.7304-3.2227 8.3242-10.3125 8.3437-14.18754.0039-1.02344-.6367-1.8711-1.4961-2.23438zm-3.16408 4.69532h-.83203c-1.26563 0-2.29297 1.02734-2.29297 2.29297v1.14452c0 .8828.52344 1.6445 1.27734 1.9883l-.58594 1.168c-.15625.3085-.02734.6835.28125.8398.3086.1562.6836.0273.83985-.2813l.78125-1.5664c1.01563-.1914 1.78123-1.082 1.78123-2.1484v-2.18749h2.3516c.2383 0 .4531.13281.5586.34375l.2812.55859c.1055.21094.3203.34375.5586.34375h2.1875v.625c0 1.3789-1.1211 2.5-2.5 2.5h-1.875c-.3437 0-.625.2812-.625.625v3.125c0 .3437.2813.625.625.625.3438 0 .625-.2813.625-.625v-2.4961h1.25c2.0703 0 3.75-1.6797 3.75-3.75v-.62499c0-.69141-.5586-1.25-1.25-1.25h-1.8008l-.1054-.21485c-.3203-.63281-.9688-1.03515-1.6797-1.03515h-2.3516-.625zm-.94922 4.37499c-.51172-.0039-.92578-.4219-.92578-.9375v-1.14452c0-.42579.25781-.79297.625-.95313.1289-.05469.26953-.08594.41797-.08594h.83203v1.25.93749c0 .5156-.41406.9336-.92578.9375h-.01953zm3.7617-1.25c.1658 0 .3247-.0658.442-.18305.1172-.11721.183-.27618.183-.44194s-.0658-.32474-.183-.44195c-.1173-.11721-.2762-.18305-.442-.18305-.1657 0-.3247.06584-.4419.18305s-.1831.27619-.1831.44195.0659.32473.1831.44194c.1172.11725.2762.18305.4419.18305z"/></svg>