<svg fill="none" height="40" viewBox="0 0 40 40" width="40" xmlns="http://www.w3.org/2000/svg" xmlns:xlink="http://www.w3.org/1999/xlink"><clipPath id="a"><path d="m0 0h40v40h-40z"/></clipPath><g clip-path="url(#a)"><path clip-rule="evenodd" d="m20.8672.228188c-.3281-.1488286-.6797-.22821142-1.0469-.22818799-.3594-.00002343-.7187.07935939-1.0391.22818799l-14.7187 6.240392c-1.71719.7289-3.00234 2.42265-3.0625 4.39922.10859 7.8203 3.29297 22 16.7578 28.4453 1.3047.6172 2.8203.6172 4.125 0 13.461-6.4453 16.6484-20.625 16.6875-28.4453.0156-1.97657-1.2734-3.67032-2.9922-4.39922zm-8.3318 26.092812c0-3.0273 4.3651-7.8203 7.466-7.8203 3.102 0 7.466 4.7969 7.4988 7.8223 0 1.3621-1.0799 2.1777-2.8028 2.1777-.9909 0-1.8105-.2703-2.589-.5271-.7039-.2322-1.3742-.4533-2.107-.4533-.7216 0-1.3838.2187-2.0827.4495-.7808.2579-1.6074.5309-2.6134.5309-1.7596 0-2.8043-.8164-2.7699-2.1797zm-1.083-10.2703c1.1377-.2734 2.3929.6055 2.7981 1.9578.4024 1.3516-.1872 2.6719-1.3249 2.9453-1.1376.2735-2.3929-.6054-2.798-1.9609-.40534-1.3516.1871-2.6687 1.3248-2.9422zm7.455-2.5019c.4638 1.7293-.1418 3.3299-1.3478 3.6472-1.2112.3203-2.5629-.8007-3.0275-2.4949-.4637-1.7293.1419-3.3299 1.3479-3.6472 1.2107-.2825 2.5637.7656 3.0274 2.4949zm6.848 4.4605c.4051-1.3523 1.6604-2.1961 2.7981-1.9578 1.1017.2734 1.7268 1.5898 1.3232 2.9441-.4102 1.3524-1.6604 2.1961-2.7981 1.9579-1.1377-.2735-1.7284-1.5914-1.3232-2.9442zm-.2848-3.3082c-.4638 1.6942-1.8515 2.8123-3.0275 2.4949-1.2072-.3164-1.8127-1.9531-1.3478-3.6472.4637-1.6942 1.8514-2.8123 3.0274-2.4949 1.2062.3171 1.8116 1.9531 1.3479 3.6472z" fill="#1f2937" fill-rule="evenodd"/></g></svg>