<svg viewBox="0 0 24 24" xmlns="http://www.w3.org/2000/svg"><g><path d="m11.5117 3.46094c.3125-.13282.6641-.13282.9766 0l6.9023 2.92968c.4415.1875.7383.60547.7344 1.07813-.0195 3.67185-1.539 10.14845-7.6367 13.06645-.3086.1484-.6719.1484-.9805 0-6.09763-2.9219-7.61325-9.3985-7.63278-13.07036-.00391-.47265.29297-.89062.73437-1.07812l6.90231-2.92969zm1.4649-1.15235c-.625-.26562-1.3281-.26562-1.9531 0l-6.90239 2.92969c-.85937.36328-1.5 1.21094-1.49609 2.23438.01953 3.87504 1.61328 10.96484 8.34378 14.18754.6523.3125 1.4101.3125 2.0625 0 6.7304-3.2227 8.3242-10.3125 8.3437-14.18754.0039-1.02344-.6367-1.8711-1.4961-2.23438z"/><path clip-rule="evenodd" d="m13.4973 8.68466c-.0334-.11645-.0461-.30117.0147-.52259.0618-.22576.1752-.38741.2733-.47538.0334.1166.0461.30139-.0145.52289-.0619.22604-.1754.38718-.2735.47508zm.3874-1.06452s-.0024.00123-.0072.00212c.0048-.00194.0072-.00212.0072-.00212zm-.4864 1.13076s.0024-.00124.0071-.00212c-.0048.00194-.0071.00212-.0071.00212zm-6.3345 1.8686c-.20265-.67578.09357-1.33437.66241-1.47109.26598-.06393.54483-.00188.78706.15145.2758.17457.50413.46746.61198.82744.00167.0056.00332.0113.00492.0169.05693.1993.07085.3968.04746.5796-.05522.4316-.31849.7809-.71479.8762-.03341.008-.06703.014-.10076.0182-.54035.066-1.10761-.3608-1.29828-.9987zm5.4839-2.72207c.2318-.84707.9257-1.40615 1.5137-1.24746.6031.1586.9058.97656.6739 1.82364-.0191.0697-.0413.13744-.0663.203-.1409.36933-.3711.66918-.6339.85675-.1865.13307-.3894.20963-.5886.21439-.0759.00182-.1512-.00679-.2249-.02668-.1426-.03738-.2684-.11159-.3743-.21433-.1657-.1607-.2828-.39118-.3394-.65958-.0495-.23486-.0527-.49875-.0017-.77032.0112-.05951.025-.11939.0415-.17941zm-1.0534.95126c.0486-.23372.0512-.49754.0001-.77219-.011-.05925-.0246-.119-.0407-.17907-.2318-.86465-.9083-1.38867-1.51368-1.24746-.60302.15869-.9058.95899-.67393 1.82364.01815.06617.039.1306.06231.19307.14185.38005.37483.68772.64377.8764.18303.1284.38273.20169.58163.20518.0758.00132.1514-.00747.226-.02719.1438-.03785.2705-.11217.377-.21516.1652-.15981.2817-.38863.3375-.65722zm-.4733 1.78421-.0011.0005c-.0607.0296-.1214.0615-.1821.0954-.2591.1449-.5174.3279-.7649.5371-.41614.3518-.80169.7779-1.10872 1.2226-.42262.6119-.69648 1.2589-.69648 1.7951-.01719.6816.50515 1.0898 1.38498 1.0898.50302 0 .91632-.1365 1.30672-.2654.3494-.1155.6805-.2248 1.0413-.2248.3664 0 .7016.1105 1.0535.2266.3893.1284.7991.2636 1.2945.2636.8615 0 1.4014-.4078 1.4014-1.0889-.0058-.5357-.2833-1.1826-.7082-1.7947-.3089-.445-.6958-.8717-1.1128-1.2238-.2477-.2092-.5061-.3921-.765-.5369-.0606-.0339-.1212-.0657-.1817-.0953-.0021-.001-.0042-.002-.0063-.003-.2003-.0974-.3994-.1702-.5929-.2131-.1306-.029-.2585-.0443-.3825-.0443-.1235 0-.251.0152-.381.044-.1954.0431-.3965.1168-.5987.2155zm3.8035.0908c.0547.4318.3183.7808.7148.8761.0334.007.0669.0121.1005.0154.5402.0534 1.1055-.3578 1.2986-.9943.2018-.67718-.1108-1.33538-.6617-1.4721-.2693-.05641-.5518.00847-.7961.1642-.2717.17317-.4962.45869-.6029.8147-.0006.0021-.0012.0042-.0019.0063-.0598.2028-.0749.4039-.0513.5897zm1.0112-.3091c-.0204.068-.024.1238-.0209.1655.062-.0459.1294-.1287.1659-.2471.0195-.0664.0218-.1215.0175-.163-.0619.0464-.1278.1286-.1625.2446zm-1.0856 3.8747c-.0034-.1605-.0706-.4306-.2589-.787-.184-.3485-.4515-.718-.7689-1.0557-.318-.3382-.6638-.6208-.9903-.8126-.3379-.1985-.5872-.2606-.7313-.2606s-.3933.062-.7308.2603c-.3261.1916-.6711.4737-.9878.8113-.31612.3371-.58157.7055-.76304 1.0525-.18809.3596-.25136.6293-.25136.7861v.0126l-.00032.0126-.00007.0033c.04689.022.16217.0613.38537.0613.3225 0 .59452-.0833.99302-.215.0139-.0046.0281-.0093.0426-.0141.323-.107.788-.2611 1.3124-.2611.5298 0 .9985.1551 1.3245.263.0144.0048.0285.0094.0423.014.3984.1314.6665.2132.9812.2132.2468 0 .3635-.0513.4009-.073.0002-.0032.0004-.0069.0005-.0111zm-.0029.0287.0003-.0011zm-4.516-6.10616c.0645.23329.1784.39409.2728.47865.0325-.1126.0469-.29902-.0161-.53404-.0657-.24485-.1817-.39966-.2721-.47602-.0323.11215-.0468.2976.0154.53141zm-2.06412 2.20166c-.03585-.119-.10372-.2049-.16554-.2525-.004.042-.0013.0999.02012.1713.03575.1196.10365.2065.16517.2543.00416-.0427.00155-.1011-.01975-.1731zm2.42032-1.66451c.0044.0008.0066.00197.0066.00197s-.0022-.00015-.0066-.00197z" fill-rule="evenodd"/></g></svg>