<svg viewBox="0 0 24 24" xmlns="http://www.w3.org/2000/svg"><path d="m12.5235 2.17188c-.1641-.07422-.3399-.11329-.5235-.11329s-.3594.03907-.5234.11329l-7.35549 3.12109c-.85937.36328-1.5 1.21094-1.49609 2.23437.01953 3.87496 1.61328 10.96486 8.34378 14.18746.6523.3125 1.4101.3125 2.0625 0 6.7304-3.2226 8.3242-10.3125 8.3437-14.18746.0039-1.02343-.6367-1.87109-1.4961-2.23437zm-4.23833 11.06642c.1875.0469.38672.0703.58985.0703 1.37888 0 2.49998-1.1211 2.49998-2.5v-2.50001h1.7266c.4726 0 .9062.26563 1.1172.69141l.2812.55859h2.5c.3438 0 .625.28125.625.62501v1.25c0 1.7266-1.3984 3.125-3.125 3.125h-1.875v1.9805c0 .2851-.2305.5195-.5195.5195-.0703 0-.1406-.0156-.2031-.043l-3.85551-1.6523c-.25781-.1094-.42187-.3633-.42187-.6406 0-.1094.02344-.2149.07422-.3125zm-.03515-4.92971h1.5625.31248v1.25 1.25001c0 .6914-.55858 1.25-1.24998 1.25-.69141 0-1.25-.5586-1.25-1.25v-1.87501c0-.34375.28125-.625.625-.625zm4.99998 1.87501c0-.1658-.0658-.32474-.183-.44195-.1173-.11721-.2762-.18306-.442-.18306-.1657 0-.3247.06585-.4419.18306s-.1831.27615-.1831.44195.0659.3247.1831.4419.2762.1831.4419.1831c.1658 0 .3247-.0659.442-.1831.1172-.1172.183-.2761.183-.4419z"/></svg>