<svg viewBox="0 0 24 24" xmlns="http://www.w3.org/2000/svg"><path clip-rule="evenodd" d="m12.5235 2.17188c-.1641-.07422-.3399-.11329-.5235-.11329s-.3594.03907-.5234.11329l-7.35549 3.12109c-.85937.36328-1.5 1.21094-1.49609 2.23437.01953 3.87496 1.61328 10.96486 8.34378 14.18746.6523.3125 1.4101.3125 2.0625 0 6.7304-3.2226 8.3242-10.3125 8.3437-14.18746.0039-1.02343-.6367-1.87109-1.4961-2.23437zm.6981 7.55505c.588.15869 1.2818-.4004 1.5137-1.24747s-.0708-1.66504-.674-1.82363c-.5879-.15869-1.2818.40039-1.5137 1.24746-.2324.84707.0704 1.66543.674 1.82364zm-2.4418 0c.603-.1587.9058-.95899.6739-1.82364s-.9083-1.38867-1.51369-1.24746c-.60303.15869-.90581.95899-.67394 1.82363.23227.84707.90813 1.40762 1.51373 1.24747zm-3.05361-.57266c.56884-.13672 1.19647.30273 1.39904.97893.20121.6758-.09357 1.3359-.66241 1.4726-.56883.1367-1.19647-.3027-1.39904-.9804-.20265-.67582.09357-1.33441.66241-1.47113zm.54149 5.13513c0-1.5136 2.18252-3.9101 3.73302-3.9101 1.551 0 3.733 2.3984 3.7494 3.9111 0 .6811-.5399 1.0889-1.4014 1.0889-.4955 0-.9053-.1352-1.2945-.2636-.352-.1161-.6871-.2267-1.0535-.2267-.3608 0-.6919.1094-1.0413.2248-.3904.129-.8037.2655-1.30674.2655-.87983 0-1.40217-.4082-1.38498-1.0899zm6.61002-4.1558c.2026-.67621.8302-1.09808 1.399-.97894.5509.13672.8634.79492.6617 1.47204-.2052.6762-.8303 1.0981-1.3991.9789-.5688-.1367-.8642-.7957-.6616-1.472z" fill-rule="evenodd"/></svg>