<svg viewBox="0 0 24 24" xmlns="http://www.w3.org/2000/svg"><g><path d="m12.4197 13.3223c.0149-.0025.0287-.004.0416-.0054.0832-.0088.1248-.0133.1248-.2537 0-.1983-.0283-.5479-.0783-1.1638-.0199-.2454-.0433-.533-.0696-.8702-.1294-1.92324-.2958-2.88487-.4622-2.88487-.1479 0-.3145.96163-.4624 2.88487-.0307.4829-.0582.8641-.0798 1.1647-.0306.4244-.0497.6885-.0497.8508 0 .2585.0423.2631.1268.2724.0123.0014.0255.0028.0396.0052l.4255.0185z"/><path clip-rule="evenodd" d="m12 22c5.5228 0 10-4.4772 10-10 0-5.52285-4.4772-10-10-10-5.52285 0-10 4.47715-10 10 0 5.5228 4.47715 10 10 10zm-3.44508-3.8513v-.1294c0-1.128.55466-7.8223.94315-10.83639-.33301.03698-.53639.05547-.66581.05547-.2504 0-.26235-.09288-.30498-.42416-.00773-.06009-.01647-.12803-.02783-.20467-.00922-.06921-.01845-.1338-.0271-.19438-.02602-.18215-.04685-.32792-.04685-.45295 0-.31431.1664-.38827.83199-.44374l.92461-.01848c1.4609 0 4.0315.05547 4.1239.24036.1834.41266.5941 4.48364.8799 7.85424.1566-.2253.2992-.5353.3713-.9586.0401-.2351.0725-.4523.1023-.652.0527-.3534.0973-.652.1617-.8982.1053-.4018.2709-.7012.625-.9351.6867-.45355 1.3761-.34499 2.0776-.16546.0616.01576.1066.06866.1123.13206s-.0292.1235-.0871.15c-.3036.1389-.5041.2896-.6382.4441-.133.1534-.206.3169-.2454.4909-.0401.1765-.046.3644-.0425.5677.0009.0576.0027.1174.0045.1784.0044.1477.0091.303.003.4547-.0353.8885-.1953 1.4385-.6612 1.9283-.4214.4429-1.0402.6419-1.603.7111-.0205.0025-.0409.0048-.0613.007.1114 1.4192.1846 2.5476.1846 2.9513v.1479c-.037.1664-.6658.3328-1.3129.3328-.6104 0-1.2392-.1664-1.2577-.7028l-.0739-2.2373c-.2959.0554-.5917.0924-.8875.0924-.2591 0-.5179-.0185-.7583-.0924l-.1109 2.2373c-.0185.5549-.5919.7213-1.18349.7213-.64733 0-1.33139-.2034-1.34989-.3513z" fill-rule="evenodd"/></g></svg>