<svg viewBox="0 0 24 24" xmlns="http://www.w3.org/2000/svg"><path d="m19.1429 2.28571c.3142 0 .5714.25715.5714.57143v1.71429h1.7143c.3143 0 .5714.25714.5714.57143 0 .31428-.2571.57143-.5714.57143h-1.7143v1.71428c0 .31429-.2572.57143-.5714.57143-.3143 0-.5715-.25714-.5715-.57143v-1.71428h-1.7143c-.3142 0-.5714-.25715-.5714-.57143 0-.31429.2572-.57143.5714-.57143h1.7143v-1.71429c0-.31428.2572-.57143.5715-.57143zm-10.28576 2.85715c.22143 0 .425.12857.51786.33214l1.8964 4.10714 4.1072 1.89646c.2035.0928.3321.2964.3321.5178 0 .2215-.1286.425-.3321.5179l-4.1072 1.8964-1.8964 4.1072c-.09286.2035-.29643.3321-.51786.3321s-.425-.1286-.51785-.3321l-1.89643-4.1072-4.10715-1.8964c-.20714-.0893-.33571-.2929-.33571-.5143s.12857-.425.33214-.5179l4.10715-1.89639 1.89642-4.10714c.09286-.20357.29643-.33214.51786-.33214zm0 1.93571-1.46785 3.17503c-.05715.125-.15715.2214-.27858.2785l-3.175 1.4679 3.175 1.4679c.125.0571.22143.1571.27858.2785l1.46785 3.175 1.46786-3.175c.0571-.1214.1571-.2214.2786-.2785l3.175-1.4679-3.175-1.4679c-.125-.0571-.2215-.1571-.2786-.2785zm9.71426 9.49283v1.7143h1.7143c.3143 0 .5714.2572.5714.5714 0 .3143-.2571.5715-.5714.5715h-1.7143v1.7143c0 .3142-.2571.5714-.5714.5714s-.5714-.2572-.5714-.5714v-1.7143h-1.7143c-.3143 0-.5714-.2572-.5714-.5715 0-.3142.2571-.5714.5714-.5714h1.7143v-1.7143c0-.3143.2571-.5714.5714-.5714s.5714.2571.5714.5714z"/></svg>