<svg viewBox="0 0 24 24" xmlns="http://www.w3.org/2000/svg"><path d="m7.62549 3.25391c-2.41797 0-4.375 1.95703-4.375 4.375 0 2.41799 1.95703 4.37499 4.375 4.37499.61328 0 1.17969.332 1.47266.8711.375.6758.20312 1.4453-.16797 1.9727-.42969.6093-.67969 1.3515-.67969 2.1562 0 2.0703 1.67969 3.75 3.75001 3.75h4.375c1.3789 0 2.5-1.1211 2.5-2.5s-1.1211-2.5-2.5-2.5c-.2617 0-.5156.0391-.75.1133-.3281.1016-.6797-.0781-.7852-.4102-.1054-.332.0782-.6797.4102-.7851.3555-.1133.7344-.1719 1.125-.1719.4375 0 .8594.0742 1.25.2148v-3.3359c0-.3437.2812-.625.625-.625h.4492c.8281 0 1.5859-.4687 1.957-1.21093l.0782-.16016-.0118-.13281c-.1289-1.27344-1.2031-2.24609-2.4882-2.24609h-.6094c-.3438 0-.625-.28125-.625-.625v-1.25c0-.34375.2812-.625.625-.625.3437 0 .625.28125.625.625v.625c1.918.00781 3.5234 1.46484 3.7148 3.375l.0313.3125c.0117.11718-.0117.23437-.0625.33984l-.1602.32035c-.5547 1.1132-1.6679 1.832-2.8984 1.8945v3.4609c.7656.6875 1.25 1.6836 1.25 2.7969 0 .9609-.3594 1.8359-.9531 2.5h1.5781c.3437 0 .625.2813.625.625 0 .3438-.2813.625-.625.625h-4.375-4.375c-2.76173 0-5.00001-2.2383-5.00001-5 0-1.0703.33594-2.0625.90625-2.875.17578-.2461.17969-.5.09375-.6523-.07422-.1368-.22266-.2227-.37891-.2227-3.10156 0-5.62109-2.5195-5.62109-5.62499 0-3.10547 2.51953-5.625 5.625-5.625 3.10551 0 5.62501 2.51953 5.62501 5.625v1.25c0 .34375-.2813.625-.625.625-.3438 0-.625-.28125-.625-.625v-1.25c0-2.41797-1.957-4.375-4.37501-4.375zm8.12501 1.875v2.97656c0 1.52344-.2774 2.60153-.8281 3.58983-.4649.8281-1.1172 1.582-1.8828 2.4609-.1094.125-.2227.254-.336.3868l-.4375.5078c-.5586.6406-.8906 1.664-.8906 2.5781 0 .3438-.2813.625-.625.625-.3438 0-.625-.2812-.625-.625 0-1.1562.4062-2.4883 1.1953-3.3984l.4375-.5078c.1172-.1368.2305-.2657.3398-.3907.7774-.8945 1.3399-1.539 1.7344-2.2461.4297-.7695.668-1.62496.668-2.97652v-2.98047c0-.34375.2812-.625.625-.625.3437 0 .625.28125.625.625zm2.5 2.5c.1658 0 .3247.06584.4419.18305s.1831.27619.1831.44195-.0659.32473-.1831.44194-.2761.18306-.4419.18306-.3247-.06585-.442-.18306c-.1172-.11721-.183-.27618-.183-.44194s.0658-.32474.183-.44195c.1173-.11721.2762-.18305.442-.18305z"/></svg>