<svg viewBox="0 0 24 24" xmlns="http://www.w3.org/2000/svg"><path d="m8.25 13.5781c0 .0781-.02734.1524-.07812.211-.73047.8711-1.17188 1.9921-1.17188 3.2148 0 2.7617 2.23828 5 5 5h3.75 3.75c.6914 0 1.25-.5586 1.25-1.25s-.5586-1.25-1.25-1.25h-.625c.3906-.5234.625-1.1719.625-1.875 0-1.0234-.4922-1.9297-1.25-2.5-.5234-.3906-1.1719-.625-1.875-.625-.3672 0-.7148.0625-1.043.1758-.3242.1133-.6836-.0547-.7968-.3828-.1133-.3281.0546-.6836.3828-.7969.457-.1602.9492-.25 1.457-.25.6719 0 1.3086.1523 1.875.4219v-2.2891h.8281c1.043 0 2.0196-.5234 2.6016-1.39061l.3203-.48438c0-2.07031-1.6797-3.75-3.75-3.75v-.8125c0-.24219-.1953-.4375-.4375-.4375-.5937 0-1.1211.29688-1.4375.75-.3164-.45312-.8438-.75-1.4375-.75-.2422 0-.4375.19531-.4375.4375v.8125c0 2.125-.4102 4.22266-1.1992 6.17189-.0352-.0781-.0508-.1641-.0508-.25v-4.04689c0-3.10547-2.5195-5.625-5.625-5.625-3.10547 0-5.625 2.51953-5.625 5.625 0 3.10549 2.51953 5.62499 5.625 5.62499.08984 0 .17969-.0039.26953-.0078.19141-.0078.35547.1367.35547.3281zm10-5.94529c.1658 0 .3247.06585.4419.18306.1173.11721.1831.27618.1831.44194s-.0658.32473-.1831.44194c-.1172.11721-.2761.18306-.4419.18306s-.3247-.06585-.4419-.18306c-.1173-.11721-.1831-.27618-.1831-.44194s.0658-.32473.1831-.44194c.1172-.11721.2761-.18306.4419-.18306z"/></svg>