<svg viewBox="0 0 24 24" xmlns="http://www.w3.org/2000/svg"><path d="m20.0774 7.30903c.6494 1.02778.0105 2.3125-1.0138 2.45139-.0903.01041-.1806.01736-.2743.01736-.573 0-1.0834-.25-1.441-.64236-.2118-.23264-.5104-.36459-.8229-.36459s-.6111.13195-.823.36459c-.3541.38889-.8611.63889-1.4375.63889-.5729 0-1.0868-.25-1.4375-.63889-.2118-.23264-.5104-.36459-.8229-.36459s-.6146.13195-.8229.36459c-.3611.39236-.8715.64236-1.44791.64236-.57291 0-1.0868-.25-1.4375-.63889-.2118-.23264-.51041-.36458-.82291-.36458s-.61459.13194-.82292.36458c-.35764.38889-.86458.63889-1.44097.63889-.09028 0-.18056-.00695-.27431-.01736-1.01736-.13889-1.65625-1.42361-1.01041-2.45139l1.95139-3.08681h12.25004zm-1.2916 3.57987c.1423 0 .2812-.0104.4201-.0278 1.9271-.2569 2.8403-2.51735 1.809-4.14582l-1.9895-3.14931c-.1771-.28125-.4931-.45486-.8299-.45486h-12.38889c-.3368 0-.65278.17361-.82986.45486l-1.99306 3.14931c-1.02777 1.625-.11805 3.88542 1.80209 4.14582.13889.0174.28125.0278.42014.0278.68055 0 1.30208-.2222 1.80555-.5903.16667-.1215.31945-.2639.45834-.41318.13888.15278.29166.29168.45833.41318.50347.3681 1.125.5903 1.80555.5903.68061 0 1.30211-.2222 1.80561-.5903.1666-.1215.3194-.2639.4583-.41666.1389.15276.2917.29166.4583.41316.5035.3681 1.125.5903 1.8056.5903.6875 0 1.3125-.2257 1.8159-.6007.1632-.1215.3125-.2569.448-.40623.1354.14933.2882.28823.4514.40973.5034.3715 1.1284.5972 1.8125.5972zm-14.00697 1.1111c-.30555 0-.55555.25-.55555.5556v2.7777.5556.5555 2.2223c0 1.2257.99653 2.2222 2.22222 2.2222h11.1111c1.2257 0 2.2222-.9965 2.2222-2.2222v-2.2223-.5555-.5556-2.7777c0-.3056-.25-.5556-.5555-.5556-.3056 0-.5556.25-.5556.5556v2.7777h-13.33331v-2.7777c0-.3056-.25-.5556-.55556-.5556zm.55556 4.4444h13.33331v2.2223c0 .6146-.4965 1.1111-1.1111 1.1111h-11.1111c-.61458 0-1.11111-.4965-1.11111-1.1111z"/></svg>