<svg viewBox="0 0 24 24" xmlns="http://www.w3.org/2000/svg"><path d="m4.22222 5.33333c-.61458 0-1.11111.49653-1.11111 1.11111v11.11116c0 .6145.49653 1.1111 1.11111 1.1111h15.55558c.6146 0 1.1111-.4966 1.1111-1.1111v-11.11116c0-.61458-.4965-1.11111-1.1111-1.11111zm-2.22222 1.11111c0-1.22569.99653-2.22222 2.22222-2.22222h15.55558c1.2257 0 2.2222.99653 2.2222 2.22222v11.11116c0 1.2257-.9965 2.2222-2.2222 2.2222h-15.55558c-1.22569 0-2.22222-.9965-2.22222-2.2222zm3.88889 5.55556h6.66671c.3055 0 .5555.25.5555.5556 0 .3055-.25.5555-.5555.5555h-6.66671c-.30556 0-.55556-.25-.55556-.5555 0-.3056.25-.5556.55556-.5556zm8.88891 0h3.3333c.3056 0 .5556.25.5556.5556 0 .3055-.25.5555-.5556.5555h-3.3333c-.3056 0-.5556-.25-.5556-.5555 0-.3056.25-.5556.5556-.5556zm-8.88891 3.3333h3.33333c.30556 0 .55556.25.55556.5556 0 .3055-.25.5555-.55556.5555h-3.33333c-.30556 0-.55556-.25-.55556-.5555 0-.3056.25-.5556.55556-.5556zm5.55551 0h6.6667c.3056 0 .5556.25.5556.5556 0 .3055-.25.5555-.5556.5555h-6.6667c-.3055 0-.5555-.25-.5555-.5555 0-.3056.25-.5556.5555-.5556z"/></svg>