<svg viewBox="0 0 24 24" xmlns="http://www.w3.org/2000/svg"><path d="m7.55385 5.3355c0 .43403.25.8125.61805.99653.23959.11806.35764.38889.2882.64583-.04514.16667-.07292.36112-.07292.57987 0 1.78125 1.55208 3.33337 3.61112 3.33337 2.059 0 3.6111-1.55212 3.6111-3.33337 0-.22223-.0278-.4132-.0729-.57987-.0695-.25694.0521-.52777.2882-.64583.368-.18403.618-.5625.618-.99653 0-.61458-.4965-1.11111-1.1111-1.11111-.5243 0-.9653.36459-1.0833.85764-.0695.29861-.3646.48264-.6632.41667-.5104-.11806-1.066-.1632-1.5868-.1632s-1.0764.04514-1.5868.15973c-.2986.06597-.59376-.11806-.66321-.41667-.11805-.48958-.55903-.85417-1.08333-.85417-.61459 0-1.11111.49653-1.11111 1.11111zm1.11111-2.22222c.86111 0 1.61114.49306 1.97914 1.20833.4618-.06944.9236-.09722 1.3542-.09722.4305 0 .8924.02778 1.3542.09722.368-.71527 1.118-1.20833 1.9791-1.20833 1.2257 0 2.2222.99653 2.2222 2.22222 0 .71528-.3402 1.3507-.8645 1.75695.0208.1493.0312.30555.0312.46528 0 2.45487-2.1146 4.44447-4.7222 4.44447-2.60765 0-4.72223-1.9896-4.72223-4.44447 0-.15973.01042-.31598.03125-.46528-.52431-.40625-.86458-1.04167-.86458-1.75695 0-1.22569.99652-2.22222 2.22222-2.22222zm3.33334 6.38889c-.6146 0-1.1111-.37153-1.1111-.83333 0-.46181.4965-.83334 1.1111-.83334s1.1111.37153 1.1111.83334c0 .4618-.4965.83333-1.1111.83333zm-8.05556.20833c.95833-.76736 2.35763-.61111 3.125.3472l.375.4688c2.3368 2.9201 6.77426 2.9201 9.11106 0l.375-.4688c.7674-.95831 2.1667-1.11456 3.125-.3472.9584.7674 1.1146 2.1667.3473 3.125l-.375.4688c-.9375 1.1701-2.066 2.0763-3.3021 2.7152v.4271h.9028c.2465-.9583 1.118-1.6667 2.1527-1.6667 1.2257 0 2.2223.9966 2.2223 2.2223 0 1.2396-.5382 2.4375-.8785 3.0798-.2813.5313-.8333.8091-1.3854.8091h-1.6285-.0035-12.21525-.00347-1.62847c-.55209 0-1.10417-.2778-1.38542-.8091-.3368-.6423-.875-1.8402-.875-3.0798 0-1.2257.99653-2.2223 2.22222-2.2223 1.03473 0 1.90625.7084 2.15278 1.6667h.90278v-.4271c-1.23611-.6389-2.36806-1.5451-3.30208-2.7152l-.37848-.4688c-.76736-.9583-.61111-2.3576.34723-3.125zm1.94097 10.0694h.00347 3.33333v-.5555c0-.9201-.74652-1.6667-1.66666-1.6667h-1.66667c-.30556 0-.55556-.25-.55556-.5555 0-.6146-.49652-1.1111-1.11111-1.1111-.61458 0-1.11111.4965-1.11111 1.1111 0 .9583.43056 1.9583.74653 2.559.06597.125.21181.2187.40278.2187zm2.50347-3.2048c.13889.0451.27431.0972.40278.1632.35069-1.1354 1.40624-1.9584 2.65274-1.9584h1.1111c1.2466 0 2.3021.823 2.6528 1.9549.1285-.0625.2639-.118.4028-.1632v-.8958c0-.2153.125-.4097.3194-.5035 1.2119-.5729 2.3195-1.4271 3.2292-2.5625l.375-.4687c.382-.4792.3056-1.1771-.1736-1.5625-.4792-.3855-1.1771-.3056-1.5625.1736l-.375.4687c-2.7812 3.4757-8.06597 3.4757-10.84375 0l-.37847-.4687c-.38194-.4792-1.08333-.5556-1.5625-.1736-.47917.3819-.55556 1.0833-.17361 1.5625l.375.4687c.90972 1.1354 2.01736 1.9896 3.22917 2.5625.19444.0903.31944.2882.31944.5035zm1.38889.9826c.34723.4653.55553 1.0417.55553 1.6667v.5555h3.3334v-.5555c0-.625.2083-1.2014.5555-1.6667 0-.9201-.7465-1.6666-1.6667-1.6666h-1.1111c-.9201 0-1.66663.7465-1.66663 1.6666zm6.66663 0c-.9201 0-1.6666.7466-1.6666 1.6667v.5555h3.3333.0035 1.625c.1909 0 .3368-.0937.4028-.2187.3194-.6007.7465-1.6007.7465-2.559 0-.6146-.4965-1.1111-1.1111-1.1111s-1.1111.4965-1.1111 1.1111c0 .3055-.25.5555-.5556.5555zm-6.1111-11.11109c.1474 0 .2887.05854.3929.16272.1041.10419.1627.2455.1627.39284s-.0586.28865-.1627.39284c-.1042.10418-.2455.16272-.3929.16272-.1473 0-.2886-.05854-.39281-.16272-.10419-.10419-.16272-.2455-.16272-.39284s.05853-.28865.16272-.39284c.10421-.10418.24551-.16272.39281-.16272zm2.7778.55556c0-.14734.0585-.28865.1627-.39284.1042-.10418.2455-.16272.3929-.16272.1473 0 .2886.05854.3928.16272.1042.10419.1627.2455.1627.39284s-.0585.28865-.1627.39284c-.1042.10418-.2455.16272-.3928.16272-.1474 0-.2887-.05854-.3929-.16272-.1042-.10419-.1627-.2455-.1627-.39284z"/></svg>