<svg viewBox="0 0 24 24" xmlns="http://www.w3.org/2000/svg"><path d="m7.36982 6.71398c-.55556-.34028-.92708-.95487-.92708-1.65625 0-1.07292.87152-1.94445 1.94444-1.94445.84028 0 1.55208.53125 1.82642 1.27431.5521-.11111 1.1527-.1632 1.7847-.1632.6319 0 1.2326.05209 1.7847.1632.2743-.74306.9861-1.27431 1.8264-1.27431 1.0729 0 1.9444.87153 1.9444 1.94445 0 .70138-.3715 1.31597-.927 1.65625.0625.25694.0937.53819.0937.84375 0 2.45487-2.1146 4.44447-4.7222 4.44447-2.60765 0-4.72223-1.9896-4.72223-4.44447 0-.30556.03125-.58334.09375-.84375zm2.96178.84375c.1474 0 .2887-.05854.3929-.16272.1041-.10419.1627-.2455.1627-.39284s-.0586-.28865-.1627-.39284c-.1042-.10418-.2455-.16272-.3929-.16272-.1473 0-.2886.05854-.39281.16272-.10419.10419-.16272.2455-.16272.39284s.05853.28865.16272.39284c.10421.10418.24551.16272.39281.16272zm3.8889-.55556c0-.14734-.0585-.28865-.1627-.39284-.1042-.10418-.2455-.16272-.3928-.16272-.1474 0-.2887.05854-.3929.16272-.1042.10419-.1627.2455-.1627.39284s.0585.28865.1627.39284c.1042.10418.2455.16272.3929.16272.1473 0 .2886-.05854.3928-.16272.1042-.10419.1627-.2455.1627-.39284zm0 2.22222c0-.92014-.9965-1.66666-2.2222-1.66666s-2.22223.74652-2.22223 1.66666c0 .92011.99653 1.66671 2.22223 1.66671s2.2222-.7466 2.2222-1.66671zm-1.1111-.27778c0 .46181-.4965.83334-1.1111.83334s-1.1111-.37153-1.1111-.83334c0-.4618.4965-.83333 1.1111-.83333s1.1111.37153 1.1111.83333zm-9.36458.35764c.72222-.56944 1.77083-.44444 2.34028.27778l.89583 1.13537c2.55903 3.2466 7.47917 3.2466 10.03817 0l.8959-1.13537c.5694-.72222 1.618-.84722 2.3402-.27778.7223.56945.8473 1.61805.2778 2.34025l-.8958 1.1354c-.6146.7778-1.316 1.4341-2.0799 1.9688v2.2535h.5764c.1354-.941.9445-1.6667 1.9236-1.6667 1.0729 0 1.9445.8715 1.9445 1.9444 0 .0938-.007.1875-.0209.2778l-.4514 1.8507c-.2013.8264-.9132 1.4202-1.75 1.4792v.0035h-.1388-.9757-13.33338-.97222-.13889v-.0035c-.8368-.059-1.54861-.6528-1.75-1.4792l-.45139-1.8507c-.01388-.0903-.02083-.184-.02083-.2778 0-1.0729.87153-1.9444 1.94445-1.9444.97916 0 1.79166.7257 1.92361 1.6667h.57639v-2.2535c-.76389-.5347-1.46875-1.191-2.07987-1.9688l-.89583-1.1354c-.56944-.7222-.44444-1.7708.27778-2.34025zm7.14238 6.03125c-1.22571 0-2.22224.9965-2.22224 2.2222h6.66664c0-1.2257-.9965-2.2222-2.2222-2.2222z"/></svg>