<svg viewBox="0 0 24 24" xmlns="http://www.w3.org/2000/svg"><path d="m2 8c0-1.10312.89688-2 2-2h16c1.1031 0 2 .89688 2 2v1.5c0 .275-.2281.49375-.4937.5625-.8657.2187-1.5063 1.0031-1.5063 1.9375s.6406 1.7188 1.5063 1.9375c.2687.0688.4937.2844.4937.5625v1.5c0 1.1031-.8969 2-2 2h-16c-1.10312 0-2-.8969-2-2zm13.5.5c.1326 0 .2598-.05268.3536-.14645.0937-.09376.1464-.22094.1464-.35355s-.0527-.25979-.1464-.35355c-.0938-.09377-.221-.14645-.3536-.14645s-.2598.05268-.3536.14645c-.0937.09376-.1464.22094-.1464.35355s.0527.25979.1464.35355c.0938.09377.221.14645.3536.14645zm0 2c.1326 0 .2598-.0527.3536-.1464.0937-.0938.1464-.221.1464-.3536 0-.13261-.0527-.25979-.1464-.35355-.0938-.09377-.221-.14645-.3536-.14645s-.2598.05268-.3536.14645c-.0937.09376-.1464.22094-.1464.35355 0 .1326.0527.2598.1464.3536.0938.0937.221.1464.3536.1464zm.5 1.5c0-.1326-.0527-.2598-.1464-.3536-.0938-.0937-.221-.1464-.3536-.1464s-.2598.0527-.3536.1464c-.0937.0938-.1464.221-.1464.3536s.0527.2598.1464.3536c.0938.0937.221.1464.3536.1464s.2598-.0527.3536-.1464c.0937-.0938.1464-.221.1464-.3536zm-.5 2.5c.1326 0 .2598-.0527.3536-.1464.0937-.0938.1464-.221.1464-.3536s-.0527-.2598-.1464-.3536c-.0938-.0937-.221-.1464-.3536-.1464s-.2598.0527-.3536.1464c-.0937.0938-.1464.221-.1464.3536s.0527.2598.1464.3536c.0938.0937.221.1464.3536.1464zm.5 1.5c0-.1326-.0527-.2598-.1464-.3536-.0938-.0937-.221-.1464-.3536-.1464s-.2598.0527-.3536.1464c-.0937.0938-.1464.221-.1464.3536s.0527.2598.1464.3536c.0938.0937.221.1464.3536.1464s.2598-.0527.3536-.1464c.0937-.0938.1464-.221.1464-.3536z"/></svg>