<svg viewBox="0 0 24 24" xmlns="http://www.w3.org/2000/svg"><path d="m3 8c0-.55313.44687-1 1-1h16c.5531 0 1 .44687 1 1v1.55c-1.1406.23125-2 1.2406-2 2.45s.8594 2.2187 2 2.45v1.55c0 .5531-.4469 1-1 1h-16c-.55313 0-1-.4469-1-1zm1-2c-1.10312 0-2 .89688-2 2v8c0 1.1031.89688 2 2 2h16c1.1031 0 2-.8969 2-2v-2.075c0-.25-.25-.425-.5-.425-.8281 0-1.5-.6719-1.5-1.5s.6719-1.5 1.5-1.5c.25 0 .5-.175.5-.425v-2.075c0-1.10312-.8969-2-2-2zm13 3c0-.13261-.0527-.25979-.1464-.35355-.0938-.09377-.221-.14645-.3536-.14645s-.2598.05268-.3536.14645c-.0937.09376-.1464.22094-.1464.35355s.0527.25979.1464.35355c.0938.09377.221.14645.3536.14645s.2598-.05268.3536-.14645c.0937-.09376.1464-.22094.1464-.35355zm0 2c0-.1326-.0527-.2598-.1464-.3536-.0938-.0937-.221-.1464-.3536-.1464s-.2598.0527-.3536.1464c-.0937.0938-.1464.221-.1464.3536s.0527.2598.1464.3536c.0938.0937.221.1464.3536.1464s.2598-.0527.3536-.1464c.0937-.0938.1464-.221.1464-.3536zm-.5 2.5c.1326 0 .2598-.0527.3536-.1464.0937-.0938.1464-.221.1464-.3536s-.0527-.2598-.1464-.3536c-.0938-.0937-.221-.1464-.3536-.1464s-.2598.0527-.3536.1464c-.0937.0938-.1464.221-.1464.3536s.0527.2598.1464.3536c.0938.0937.221.1464.3536.1464zm.5 1.5c0-.1326-.0527-.2598-.1464-.3536-.0938-.0937-.221-.1464-.3536-.1464s-.2598.0527-.3536.1464c-.0937.0938-.1464.221-.1464.3536s.0527.2598.1464.3536c.0938.0937.221.1464.3536.1464s.2598-.0527.3536-.1464c.0937-.0938.1464-.221.1464-.3536z"/></svg>