<svg viewBox="0 0 24 24" xmlns="http://www.w3.org/2000/svg"><path d="m12.625 4.13184v12.24216c0 .3438-.2812.625-.625.625s-.625-.2812-.625-.625v-12.24216l-3.93359 3.93359c-.24219.24219-.64063.24219-.88282 0-.24218-.24219-.24218-.64063 0-.88281l5.00001-5c.2422-.24219.6406-.24219.8828 0l5 5c.2422.24218.2422.64062 0 .88281s-.6406.24219-.8828 0zm-2.5 11.61716h-5.625c-.69141 0-1.25.5586-1.25 1.25v2.5c0 .6914.55859 1.25 1.25 1.25h15c.6914 0 1.25-.5586 1.25-1.25v-2.5c0-.6914-.5586-1.25-1.25-1.25h-5.625v-1.25h5.625c1.3789 0 2.5 1.1211 2.5 2.5v2.5c0 1.3789-1.1211 2.5-2.5 2.5h-15c-1.37891 0-2.5-1.1211-2.5-2.5v-2.5c0-1.3789 1.12109-2.5 2.5-2.5h5.625zm6.875 2.5c0-.2486.0988-.4871.2746-.6629s.4143-.2746.6629-.2746.4871.0988.6629.2746.2746.4143.2746.6629c0 .2487-.0988.4871-.2746.6629-.1758.1759-.4143.2746-.6629.2746s-.4871-.0987-.6629-.2746c-.1758-.1758-.2746-.4142-.2746-.6629z"/></svg>