<svg viewBox="0 0 24 24" xmlns="http://www.w3.org/2000/svg"><path d="m13.25 6.26904v9.48046c0 .6914-.5586 1.25-1.25 1.25s-1.25-.5586-1.25-1.25v-9.48046l-2.86719 2.86719c-.48828.48828-1.28125.48828-1.76953 0s-.48828-1.28125 0-1.76953l5.00002-5c.4883-.48828 1.2812-.48828 1.7695 0l5 5c.4883.48828.4883 1.28125 0 1.76953s-1.2812.48828-1.7695 0zm-8.75 9.48046h5c0 1.3789 1.1211 2.5 2.5 2.5s2.5-1.1211 2.5-2.5h5c1.3789 0 2.5 1.1211 2.5 2.5v1.25c0 1.3789-1.1211 2.5-2.5 2.5h-15c-1.37891 0-2.5-1.1211-2.5-2.5v-1.25c0-1.3789 1.12109-2.5 2.5-2.5zm14.375 4.0625c.2486 0 .4871-.0988.6629-.2746s.2746-.4142.2746-.6629c0-.2486-.0988-.4871-.2746-.6629s-.4143-.2746-.6629-.2746-.4871.0988-.6629.2746-.2746.4143-.2746.6629c0 .2487.0988.4871.2746.6629s.4143.2746.6629.2746z"/></svg>