<svg xmlns="http://www.w3.org/2000/svg" width="1em" height="1em" viewBox="0 0 600 600" fill="#ED2A26"><path d="M231 589l-2-55c-.02-13.07-2.5-26.78-9.47-38-4.91-7.92-12.3-13.92-18.21-21-4.19-5.03-10.11-15.91-13.06-22-7.99-16.49-16.34-38.23-20.79-56l-3.18-16c-.41-3.31-.01-6.79-.92-10l-8.59-18-13.58-32c-8.05-20.33-23.28-58.93-27.85-79-1.61-7.06-5.28-24.62-2.04-30.98 3.4-6.65 9.35-3.75 14.69-1.57 8.15 3.33 25.14 14.64 33 19.88l39 25.01c3.24 2.21 12.98 10.15 16 10.55 3.1.41 8.11-3.18 11-4.62 5.46-2.73 18.14-7.77 24-9.55 25.04-7.62 50.89-12.9 77-14.81l10-.91c17.26-.2 24.84.1 42 2.15 3.85.47 14.95 2.73 17.99 1.54 2.82-1.1 5.16-4.47 7.18-6.69L414 221c13.08-13.08 37.57-38.55 52-48.25 4.08-2.74 11.97-6.8 17-6.02 7.62 1.18 11.32 10.66 12.71 17.27 1.06 5.01 1.28 7.93 1.29 13 .06 36.41-5.89 82.12-9.84 119-3.1 29.03-4.28 58.49-11.04 87l-7.54 27-9.58 23c2.59 1.35 10.31 5.75 12.9 5.18 3.31-.73 6.33-7.35 7.87-10.18l15.98-32c13.8-29.01 25.87-74.98 29.97-107l2.37-29 .91-11v-19l-.91-12-1.94-23C517.53 142.8 484.11 69.91 420 31.2c-12.51-7.55-25.98-13.18-40-17.2-17.21-4.94-35.12-7.21-53-7l-10 .91C248.79 12.9 187.15 57.64 147.13 111c-43.47 57.95-67.12 123.22-74.3 195L71 331v19l1.04 12v9c1.77 17.19 4.4 34.24 8.59 51 14.5 58.03 43.75 111.43 95.37 144.31 20.1 12.8 32.82 16.26 55 22.69zm247-407c-13.23 9.89-47.4 39.12-57.57 51-3.75 4.38-14.76 16.93-12.79 22.96.94 2.87 4.04 4.77 6.36 6.46l14 10.47c12.23 9.41 25.36 22.31 34 35.11l4.07-32 7.68-60 3.5-22 .75-12zm-354 42l6.72 26 13.7 39L167 352c2.54-3.28 7.03-13.56 9.25-18 5.57-11.15 9.6-18.11 17.41-28 2.77-3.51 12.54-13.15 12.64-17 .15-6.04-12.8-17.68-17.3-21.39-15.79-13.01-46.95-33.95-65-43.61zm260 133.47c-27.03 6.61-22.33 44.88 4 45.52 7.75.18 14.03-1.27 19.47-7.29 10.26-11.34 6.32-30.26-7.47-36.78-4.99-2.36-10.66-2.2-16-1.45zm0 8.87c5.45-.36 10 1.02 13.3 5.7 5.36 7.61.88 19.08-8.3 20.73-17.83 3.21-24.33-21.73-5-26.43zm-131 4.94c-5.52 1.88-9.86 4.03-13.44 8.74-11.45 15.02-.98 36.06 17.44 37.46 25.53 1.96 35.63-31.94 13-43.81-3.11-1.63-6.5-2.48-10-2.39-2.77-.36-4.3-.19-7 0zm5 8.31c4.41.3 7.56.94 10.58 4.52 7.49 8.86 1.17 22.73-10.58 22.53-15.73-.26-19.71-25.02 0-27.05zm71.02 40.15c-11.96 6.57-6.99 22.41 5.98 21.15 8.66-.84 12.43-11.14 7.3-17.68-3.36-4.28-8.4-4.65-13.28-3.47zM391 432l-3 9c14.56 5.33 33.61 5.02 49 5 6.57-.01 14.77-.95 21-3l-2-9-25 2.96-10-.96h-8l-22-4zm-110 6c-19.57 6.46-43.96 5.65-64 2l-2 10 13 1.83 16 .6c13.49 0 26.76-2.02 40-4.43l-3-10zm107 8l-2 9 14 3.77c14.81 3.5 32.81 6.25 48 6.23l13-1v-9c-17.15 0-24.58.49-42-2.43L388 446zm-176 15l-1 9c16.9 3.03 43.2-.68 60-4.65l16-4.35c-.68-2.97-1.44-7.96-5.13-8.5-2.08-.31-6.67 1.45-8.87 2.07l-15 3.35c-21.4 3.76-24.94 3.08-46 3.08zm95-5.17L304.77 470c-.2 1.67-.6 3.73.87 4.98 1.37 1.17 4.62 1.01 6.36 1.02 18.36.12 17.43-3.32 23.72-4.62 2.46-.51 8 1.85 11.28 2.32 7.01 1.01 14.21.1 21-1.7l-5-19-12 .79-6-1.33-13 .54-13 2.83h-12zm80 1.17l-4 9c23.97 9.59 34.68 14 61 14v-9c-11.59-.1-25.99-2.69-37-6.35L387 457zm-158 20l-1 9c26.68 0 36.75-3.55 61-14l-4-9c-18.82 7.98-35.17 13.98-56 14z"/></svg>