<svg fill="none" height="150" viewBox="0 0 150 150" width="150" xmlns="http://www.w3.org/2000/svg"><path d="m145.248 35.3789h-6.173c-2.851 0-4.742 1.9008-4.742 4.272v22.7807c0 2.8513 1.901 4.7423 4.742 4.7423h6.173c2.851 0 4.752-1.9008 4.752-4.7423v-22.7807c0-2.3712-1.901-4.272-4.752-4.272z" fill="#db5072"/><path d="m114.393 12.1182h-78.7865c-9.4944 0-17.5583 8.0736-17.5583 17.5583v81.6485c0 4.272 1.4207 8.073 4.272 11.395v8.544c0 3.801 2.8513 6.643 6.6432 6.643h13.7566c3.3216 0 6.6432-2.851 6.6432-6.643v-2.371h51.2638v2.371c0 3.801 2.851 6.643 6.643 6.643h13.767c3.801 0 6.643-2.851 6.643-6.643v-8.544c2.371-3.322 4.272-7.124 4.272-11.395v-81.6485c.01-9.4847-8.064-17.5583-17.559-17.5583zm-58.3769 5.2224h37.9678c5.6928 0 5.6928 9.0143 0 9.0143h-37.9678c-5.7026 0-5.7026-9.0143 0-9.0143zm-20.8897 96.8354c-4.272 0-7.5936-3.322-7.5936-7.594s3.3216-7.5934 7.5936-7.5934 7.5936 3.3214 7.5936 7.5934-3.3216 7.594-7.5936 7.594zm55.0656 3.321h-30.3841c-2.3711 0-2.3711-3.801 0-3.801h30.3841c2.3712 0 2.3712 3.801 0 3.801zm7.5936-7.593h-45.5712c-2.8513 0-2.8513-3.322 0-3.322h45.5712c2.8514 0 2.8514 3.322 0 3.322zm17.0884 4.272c-4.272 0-7.594-3.322-7.594-7.594s3.322-7.5934 7.594-7.5934c3.801 0 7.593 3.3214 7.593 7.5934s-3.802 7.594-7.593 7.594zm11.865-39.3986c0 9.4944-7.593 17.088-17.558 17.088h-68.8322c-9.4944 0-17.088-7.5936-17.088-17.088v-27.0625c0-9.4944 7.5936-17.088 17.088-17.088h68.8322c9.965 0 17.558 7.5936 17.558 17.088z" fill="#003047"/><path d="m10.9152 35.3789h-6.17292c-2.84149 0-4.74232095 1.9008-4.74232095 4.272v22.7807c0 2.8513 1.90083095 4.7423 4.74232095 4.7423h6.17292c2.3711 0 4.7423-1.9008 4.7423-4.7423v-22.7807c.0097-2.3712-2.3712-4.272-4.7423-4.272z" fill="#db5072"/></svg>