<svg fill="none" viewBox="0 0 150 150" xmlns="http://www.w3.org/2000/svg"><path d="m23.2833 71.6579c-1.6613-.0123-3.2612.6276-4.4426 1.7967-1.1814 1.169-1.8582 2.7566-1.8705 4.4056-.0123 1.6613.6399 3.2611 1.7967 4.4425 1.1691 1.1814 2.7566 1.8582 4.4056 1.8706 2.2397.0122 4.3072-1.1568 5.4517-3.0889 1.1321-1.9321 1.1568-4.3072.0492-6.2638-1.0953-1.9321-3.1504-3.1381-5.3901-3.1627z" fill="#db5072"/><path d="m126.446 71.6705c-1.661.0246-3.249.726-4.406 1.9198-1.156 1.2059-1.772 2.8181-1.735 4.4794s.739 3.2488 1.957 4.3933c1.206 1.1445 2.83 1.7598 4.492 1.7106v-.0247c1.636-.0123 3.212-.6891 4.344-1.8705s1.747-2.7689 1.71-4.4179c-.012-1.6613-.701-3.2488-1.895-4.4179s-2.806-1.809-4.467-1.7721z" fill="#db5072"/><path d="m149.742 69.4062c-.136-1.0214-.382-2.0306-.751-3.0027-.295-3.0151-1.698-5.8209-3.95-7.8637-1.932-1.7598-4.381-2.8304-6.953-3.1011.073-.0616.16-.1108.233-.1723.887-.7384 1.551-1.7106 1.933-2.7935.455-2.0429-1.083-7.1992-4.381-7.1254h-2.868c-.147 0-.283.0247-.431.0493-2.793-7.2483-5.599-14.4967-8.454-21.7204-3.003-7.4944-8.208-11.2602-16.195-11.2725-21.954-.123-43.896-.1476-65.8501-.0738-3.1504-.0492-6.2516.7384-8.9958 2.2766-3.4704 2.1659-6.0793 5.4886-7.3468 9.3773-2.7566 7.1499-5.5255 14.2998-8.2698 21.4497-.2092-.0492-.4184-.0738-.6399-.0738h-2.8674c-3.3103-.0739-4.83629 5.0824-4.38093 7.1252.38147 1.0953 1.04603 2.0552 1.93213 2.8059.0615.0492.123.0861.1969.1353-2.5105.3077-4.88563 1.3783-6.76845 3.1012-2.25201 2.0551-3.65493 4.8856-3.92568 7.9252-.639941 1.932-.9598883 3.9625-.9598883 6.0054-.04923554 13.0323-.04923592 26.0029-.04923592 39.0109 0 .357-.00000007.738.07385322 1.218h11.998501v1.624c0 4.504-.0738 8.996.1477 13.586.0369 1.896.6276 3.754 1.7229 5.304 1.0829 1.563 2.6089 2.769 4.3687 3.471 1.7228.812 3.6179 1.144 5.5131.972 1.8952-.185 3.7042-.874 5.2302-2.006 2.9288-2.043 4.6271-5.427 4.504-8.996.0739-4.602 0-9.229 0-13.93h82.919v2.732c0 4.27-.098 8.577.259 12.823.443 3.519 2.633 6.583 5.808 8.146 3.175 1.575 6.941 1.452 10.005-.332 3.064-1.772 5.045-4.972 5.267-8.516.16-4.504 0-8.897.098-13.34v-1.661h12.085v-1.575-37.3988c-.012-1.4028-.098-2.7934-.258-4.184zm-121.7701-22.0527c2.449-6.5592 4.861-13.1184 7.3837-19.6653.4799-1.5383 1.4644-2.8673 2.7935-3.7657s2.9289-1.3167 4.541-1.1814h64.6809c1.6-.1477 3.212.2708 4.541 1.1814 1.329.9107 2.314 2.2397 2.769 3.7904 3.409 8.9957 6.719 18.0039 10.079 26.9136.062.2338.098.4676.135.7014h-99.8766c1.0215-2.7689 1.9814-5.3655 2.9535-7.9744zm5.1194 36.3647c-2.0674 3.5196-5.8577 5.6732-9.9434 5.6363-3.0273-.0246-5.9315-1.2552-8.0605-3.4089-2.129-2.1536-3.3104-5.0824-3.2857-8.1097.0246-3.0274 1.2552-5.9316 3.4088-8.0605 2.1659-2.129 5.0702-3.3104 8.1098-3.2858 4.0856.037 7.839 2.2397 9.8572 5.7962s1.9813 7.9129-.0862 11.4324zm101.7847 2.1536c-2.08 2.1659-4.947 3.4089-7.962 3.4334v.0493c-3.052.0984-6.006-1.0337-8.221-3.1258s-3.507-4.984-3.581-8.036c-.074-3.0519 1.071-6.0054 3.175-8.1959 2.104-2.2028 5.009-3.4703 8.06-3.5195 3.052-.0493 5.994 1.1075 8.184 3.2365 2.191 2.129 3.434 5.0333 3.47 8.0851.074 2.9905-1.046 5.907-3.125 8.0729z" fill="#003047"/></svg>