<svg fill="none" viewBox="0 0 150 150" xmlns="http://www.w3.org/2000/svg"><path d="m102.166 16.4377c-7.0258 4.0463-9.5821 8.3847-11.4665 14.885-1.4608 5.0688.5258 10.2837 4.2654 13.3659 2.0159 1.6068 5.3171 2.4248 7.8151 1.8989 2.98-.6427 4.148-2.6585 4.148-4.9811v-14.885c0-2.5709 2.206-2.3226 2.308-.6427l.95 15.5278c0 2.2933-.745 4.2507-2.016 5.6239-1.256 1.3877-2.965 2.1911-4.747 2.5417-3.229.6427-6.9243.0876-9.5975-1.9136-2.1619-1.6069-3.9878-3.7395-5.1857-6.0183-2.4248 4.2216-5.989 10.6488-14.1546 13.0299-16.638 4.4553-25.8845-3.6227-37.5997-2.9799-8.7499-3.2576-15.893-9.3489-21.882-18.7123-1.4316-2.2934-4.2947-3.2283-6.77795-2.2203-3.24285 1.3147-4.46987 5.2733-2.5417 8.1801 3.14065 4.8936 6.63185 9.2758 10.76575 12.7524 3.3451 2.8046 3.6372 4.6598-.1169 8.56-4.1485 4.28-5.6531 9.7578-6.39805 15.893-1.05176 8.4431 3.08215 23.8099-8.88139 35.3789-.803392.789-1.256247 1.972-.9641102 3.068l6.7925102 21.312h14.24234c0-3.111-2.0451-5.872-5.025-6.807l-3.0968-14.125c5.7992-1.665 9.5241-7.582 12.3433-13.337l-2.308 12.986 5.3026 21.283h14.2423c-.0146-3.111-2.0451-5.872-5.0396-6.807l-1.8843-10.269c-1.7091-9.319 6.0766-13.117 12.7377-19.7784 7.0116 3.5644 8.9836 4.6744 18.9167 4.6744l3.5204 32.18h14.2423c0-2.278-1.0809-4.426-2.936-5.77l1.6652-25.022c1.7675.044 3.5934.014 5.4194 0l3.1406 30.792h14.2422c0-2.833-1.68-5.39-4.28-6.529l1.154-17.003c.745-11.526 7.304-19.0046 10.035-25.8702 2.732-6.8655 3.156-14.2131 4.076-21.955.467-3.8857 2.396-5.77 7.61-6.5442l12.607-2.4395c8.282-1.2124 10.079-5.7261 11.525-9.7578 1.709-4.7036-.015-7.7712-3.535-8.7061-9.641-2.5855-8.399-3.5642-12.183-10.0938-5.39-9.3488-12.883-13.2051-18.989-13.3366s-9.568.891-12.461 2.5709z" fill="#003047"/></svg>