<svg fill="none" height="150" viewBox="0 0 150 150" width="150" xmlns="http://www.w3.org/2000/svg"><path d="m75 .00048828c-41.4147 0-75 33.58531172-75 75.00001172 0 41.4145 33.5853 74.9995 75 74.9995 41.415 0 75-33.585 75-74.9995 0-41.4147-33.585-75.00001172-75-75.00001172zm20.9268 45.54881172s-7.0609 0-9.878 0c-3.4756 0-4.2073 1.4268-4.2073 5.0488v8.7073h14.1219l-1.3537 15.3292h-12.7316v45.6954h-18.2562v-45.5124h-9.4756v-15.5122h9.4756s0-2.2317 0-12.1829c0-11.4512 6.1097-17.4512 19.6829-17.4512h12.6586v15.878z" fill="#003047"/></svg>