<svg fill="none" viewBox="0 0 150 150" xmlns="http://www.w3.org/2000/svg"><path d="m75.0003 150c-41.2507 0-75.0003-33.75-75.0003-74.9995 0-41.25 33.7496-75.00001172 75.0003-75.00001172 41.2497 0 74.9997 33.75001172 74.9997 75.00001172 0 41.2495-33.75 74.9995-74.9997 74.9995z" fill="#bae8f0"/><g fill="#003047"><path clip-rule="evenodd" d="m47.0498 78.8908c3.2469-3.0677 7.5049-4.6076 11.9757-4.3618h.0001v.0021c7.8955.4512 14.3736 6.7224 15.0706 14.5871.0416.4577.0608.913.0638 1.3644.0118 2.1285-1.0578 4.0612-2.8627 5.1743-1.8411 1.1325-4.0952 1.2176-6.0343.2236-2.0646-1.0558-4.5464-1.6156-7.1772-1.6156-2.634 0-5.1178.5599-7.1845 1.6176-.9025.4598-1.873.6897-2.8405.6897-1.1122 0-2.219-.3022-3.2076-.9046-1.7667-1.0706-2.8287-2.9394-2.8415-4.9892 0-4.5677 1.7911-8.7183 5.0381-11.7876zm19.3955 14.6782c1.1238.5746 2.4265.5278 3.4886-.1235 1.0408-.6428 1.6347-1.7156 1.6284-2.948-.0033-.3789-.0203-.762-.0544-1.1493v-.0023c-.5831-6.5898-6.0128-11.8451-12.6293-12.2218-.2661-.0169-.5331-.0234-.7981-.0234-3.462 0-6.7186 1.29-9.2462 3.6781-2.7244 2.5734-4.225 6.0535-4.225 9.7997.0076 1.2451.5874 2.2604 1.5932 2.8712 1.0739.6534 2.386.6984 3.5163.1215 2.4285-1.2431 5.3233-1.9009 8.3669-1.9009 3.0396 0 5.9311.6557 8.3596 1.8987z" fill-rule="evenodd"/><path clip-rule="evenodd" d="m58.0869 72.9528c3.6641 0 6.6461-2.9821 6.6461-6.6462 0-3.6643-2.982-6.6452-6.6461-6.6452-3.6653 0-6.6462 2.981-6.6462 6.6452 0 3.6641 2.9809 6.6462 6.6462 6.6462zm0-10.6946c2.2327 0 4.0493 1.8177 4.0493 4.0484 0 2.2327-1.8166 4.0496-4.0493 4.0496-2.2328 0-4.0484-1.8169-4.0484-4.0496.0001-2.2307 1.8156-4.0484 4.0484-4.0484z" fill-rule="evenodd"/><path clip-rule="evenodd" d="m67.1765 68.0849c1.0983-1.0983 2.5605-1.7039 4.1154-1.7039 1.5538 0 3.0172.6046 4.1164 1.7038 2.2686 2.2702 2.2686 5.9631 0 8.2326-1.0983 1.1004-2.5626 1.7049-4.1164 1.7049-1.5549 0-3.0171-.6045-4.1154-1.7049-1.1004-1.0988-1.706-2.5612-1.706-4.1159 0-1.5549.6056-3.0173 1.706-4.1166zm1.8358 6.3963c1.2174 1.2185 3.3428 1.2174 4.5591 0 1.2559-1.2569 1.2559-3.3024 0-4.5594-.6086-.6086-1.4186-.9439-2.2796-.9439-.862 0-1.6707.3353-2.2795.9439-.6077.6099-.945 1.4188-.945 2.2798 0 .8609.3373 1.6707.945 2.2796z" fill-rule="evenodd"/><path clip-rule="evenodd" d="m44.8797 78.0161c1.491 0 2.9798-.5663 4.1154-1.703 2.269-2.2684 2.269-5.9624 0-8.2313-2.27-2.2711-5.9618-2.2691-8.2318 0-1.0993 1.0993-1.7049 2.5605-1.7049 4.1154 0 1.5538.6056 3.0171 1.7049 4.1159 1.1355 1.1367 2.6254 1.703 4.1164 1.703zm-2.2796-8.0974c.6278-.6279 1.4548-.943 2.2795-.943.8248 0 1.6496.315 2.2796.943 1.2559 1.2558 1.2559 3.3012 0 4.5581-1.2601 1.257-3.3034 1.2548-4.5591 0-.6098-.6087-.945-1.4186-.945-2.2796 0-.8599.3352-1.6697.945-2.2785z" fill-rule="evenodd"/><path d="m34.0925 104.729 6.2642-.069c.7184 0 1.2984.584 1.2983 1.299 0 .719-.5811 1.3-1.2983 1.3h-6.3248c-.7513 0-1.4335-.312-1.9209-.877-.4875-.559-.6982-1.279-.5907-2.022l.827-5.7763c.1011-.7109.7662-1.1984 1.4696-1.1025.7098.1022 1.2036.7598 1.1015 1.4687z"/><path clip-rule="evenodd" d="m119.337 70.1506 4.602 4.6232v-.0011c.674.6747 1.061 1.6064 1.061 2.5473v23.243c0 .947-.372 1.852-1.051 2.548l-4.61 4.634v1.803c0 2.315-1.88 4.199-4.189 4.199h-24.7556c-.0016 0-.0035.001-.0054.001h-.0003c-.0018.001-.0035.001-.005.001h-56.3528c-2.6233 0-5.1115-1.134-6.8271-3.116-1.7144-1.979-2.485-4.604-2.1114-7.201l7.8232-54.6727c-.0005-.0122-.0039-.0236-.0074-.0351-.0038-.0127-.0076-.0254-.0076-.0394v-8.3831c0-1.8198 1.4815-3.3012 3.3012-3.3012h51.9491c1.8198 0 3.2991 1.4813 3.2991 3.3012v8.2022l2.2423 15.6444 21.4557-.0011c2.31 0 4.189 1.8785 4.189 4.1889zm3.065 30.0144v-22.845c0-.2576-.11-.5193-.305-.7132l-4.598-4.6193-22.6848-.0011.463 3.2248h8.5758c.718 0 1.298.5821 1.298 1.2979 0 .7194-.581 1.3004-1.298 1.3004h-8.2044l3.2032 22.3555zm-23.0671 5.747h18.1641l3.134-3.148h-21.4077l.0968.673c.0521.374.0745.747.0819 1.119.0017.106-.0021.21-.0059.314-.0007.018-.0013.035-.0019.053l-.0008.02c-.0003.01-.0006.019-.0009.028-.0063.226-.018.452-.0426.675-.0044.04-.0059.082-.0073.123-.0017.048-.0034.096-.0097.143zm-3.2385 1.742h.0001c.0107-.023.0215-.047.033-.071.1065-.215.2022-.434.2885-.664l.009-.025.0094-.026c.0239-.066.0479-.133.07-.2.0372-.12.0692-.241.0999-.36.0043-.017.0087-.034.013-.051h.0001c.0269-.105.0542-.211.0743-.315.015-.077.0254-.152.036-.229.0029-.021.0058-.042.0088-.063.004-.029.0082-.058.0123-.087l.0001-.001c.0156-.109.0314-.22.0407-.331.0061-.082.0078-.163.0095-.245.0007-.031.0013-.062.0022-.093.0008-.034.002-.067.0032-.101.0031-.087.0062-.174.0031-.261-.0074-.239-.0266-.479-.0607-.72l-5.4691-38.177v-.0107l-1.1494-8.0148-6.6099 46.1965c-.266 1.852.282 3.72 1.5026 5.132 1.224 1.409 2.9949 2.217 4.8647 2.217h.4917c.0005 0 .001 0 .0016-.001.0005 0 .0011-.001.0016-.001.3086 0 .6108-.027.9099-.07.0745-.011.15-.023.2245-.036.2607-.047.5162-.106.7663-.183.0125-.004.0253-.008.038-.011l.0064-.002.0118-.003c.019-.005.0379-.01.0565-.016.2705-.089.5301-.2.7824-.324.086-.042.1703-.087.2543-.134.1819-.098.3565-.204.5279-.319.0319-.021.0642-.042.0966-.063h.0002c.0442-.029.0885-.057.132-.088.2128-.158.415-.33.6077-.511.0751-.072.1458-.148.2168-.224l.0195-.021c.1244-.132.2414-.266.3543-.406.0733-.09.1469-.179.2139-.273.1565-.221.3054-.447.4342-.689.0224-.041.0414-.083.0604-.124zm20.6446-39.3167c0-.8791-.713-1.5933-1.593-1.5933h-21.0842l.3799 2.6447h22.2973zm-80.5381-28.739c-.3885 0-.7044.315-.7044.7034l-.0011 7.0837h53.3559v-7.0837c0-.3884-.316-.7034-.7023-.7034zm-8.5383 64.2027c-.2672 1.851.281 3.72 1.5027 5.131l.0021.003c1.2228 1.411 2.9948 2.217 4.8637 2.217h49.53l-.0366-.035-.0001-.001c-.1591-.156-.3173-.311-.4635-.481-1.7166-1.981-2.486-4.606-2.1136-7.203l7.6487-53.4467h-53.2336zm87.4844 7.349c.88 0 1.593-.717 1.593-1.602v-1.041h-18.1636c-.0138.032-.0323.061-.0509.091-.0158.026-.0318.051-.045.079-.201.413-.4235.815-.6864 1.194-.0302.044-.0632.084-.0962.125h-.0002l-.0002.001c-.0216.026-.0431.053-.0641.08-.1404.192-.282.384-.4395.565-.0622.072-.1298.139-.1971.206-.0398.039-.0796.079-.118.119-.024.026-.0458.054-.0675.081-.0283.036-.0564.071-.089.102z" fill-rule="evenodd"/></g></svg>