<svg fill="none" height="150" viewBox="0 0 150 150" width="150" xmlns="http://www.w3.org/2000/svg"><path d="m75 150c-41.2539 0-75-33.746-75-74.9996 0-41.2539 33.7461-74.99991172 75-74.99991172 41.254 0 75 33.74601172 75 74.99991172 0 41.2536-33.746 74.9996-75 74.9996z" fill="#bae8f0"/><g clip-rule="evenodd" fill="#003047" fill-rule="evenodd"><path d="m69.529 56.7774c-2.6006 0-5.0799 1.0798-6.8429 2.9862-.4408-.9807-.9808-1.9174-1.631-2.7879 1.9504-1.7961 4.4188-2.9422 7.0524-3.2397-1.6639-1.7961-2.5565-4.1652-2.4904-6.6115.0661-2.4464 1.08-4.7604 2.832-6.4684 1.7521-1.697 4.0992-2.6556 6.5454-2.6556 2.4464 0 4.7935.9477 6.5455 2.6556 1.752 1.7081 2.7659 4.0221 2.832 6.4684.0551 2.4463-.8375 4.8154-2.4904 6.6115 2.6336.2975 5.113 1.4325 7.0524 3.2397-.6392.8705-1.1791 1.8072-1.6199 2.7879-1.763-1.9064-4.2424-2.9862-6.8429-2.9862zm9.8953-13.7962c-1.168-1.168-2.7658-1.8291-4.4187-1.8291s-3.2507.6611-4.4188 1.8291c-1.168 1.1681-1.8291 2.7659-1.8291 4.4188s.6611 3.2507 1.8291 4.4187c1.1681 1.1681 2.7659 1.8292 4.4188 1.8292s3.2507-.6611 4.4187-1.8292c1.1681-1.168 1.8292-2.7658 1.8292-4.4187s-.6611-3.2507-1.8292-4.4188z"/><path d="m116.416 47.1245c.066 2.4463-.826 4.8154-2.479 6.6116 3.041.3526 5.851 1.8071 7.889 4.0992 2.039 2.292 3.174 5.2561 3.174 8.3195v14.0606c0 .8265-.331 1.6198-.915 2.2039-.584.584-1.377.9145-2.203.9145h-3.67c-.319-.5399-.661-1.0578-1.047-1.5646-.187-.2425-.374-.4739-.573-.7053-.08-.1001-.169-.2001-.25-.2918l-.025-.0277c-.683-.7604-1.433-1.4546-2.248-2.0717v-3.1515c0-.8595.705-1.5648 1.565-1.5648.859 0 1.564.7053 1.564 1.5648v4.6832h4.695v-14.0606c-.012-2.4794-.992-4.8596-2.755-6.6226-1.752-1.7631-4.133-2.7548-6.623-2.7548h-10.942c-3.2617 0-6.292 1.708-7.989 4.4848-1.7631.9036-3.2948 2.2038-4.4628 3.8127.2534-2.865 1.4876-5.5648 3.4931-7.6254s4.6612-3.3719 7.5257-3.7024c-1.6524-1.7962-2.545-4.1653-2.4788-6.6116.066-2.4463 1.0799-4.7603 2.8318-6.4683 1.752-1.697 4.099-2.6557 6.546-2.6557 2.446 0 4.793.9477 6.545 2.6557s2.766 4.022 2.832 6.4683zm-4.959-4.1433c-1.168-1.168-2.765-1.8291-4.418-1.8291s-3.24.6611-4.419 1.8291c-1.168 1.1681-1.829 2.7659-1.829 4.4188s.661 3.2507 1.829 4.4187c1.168 1.1681 2.766 1.8292 4.419 1.8292s3.25-.6611 4.418-1.8292c1.168-1.168 1.83-2.7658 1.83-4.4187s-.662-3.2507-1.83-4.4188z"/><path d="m33.4078 81.0638c.0441-.055.0908-.1073.1376-.1595.0469-.0524.0938-.1048.1379-.1599.6832-.7604 1.4325-1.4546 2.2479-2.0717v-3.1515c0-.8595-.7052-1.5648-1.5647-1.5648-.8594 0-1.5647.7053-1.5647 1.5648v4.6832h-4.6832v-14.0496c0-2.4904.9917-4.8706 2.7548-6.6226 1.7631-1.7521 4.1432-2.7438 6.6226-2.7548h10.9421c3.2617 0 6.2811 1.7079 7.989 4.4848 1.7631.9035 3.2948 2.2038 4.4628 3.8127-.2535-2.8651-1.4876-5.5648-3.4931-7.6254-2.0056-2.0606-4.6722-3.3719-7.5262-3.7024 1.6529-1.7962 2.5455-4.1653 2.4793-6.6116-.0661-2.4463-1.0799-4.7603-2.8319-6.4684-1.7521-1.7079-4.0992-2.6556-6.5455-2.6556s-4.7934.9476-6.5455 2.6556c-1.7521 1.7081-2.7658 4.0221-2.8319 6.4684-.0661 2.4462.8264 4.8154 2.4793 6.6116-3.0523.3526-5.8623 1.8071-7.9008 4.0991-2.0386 2.2921-3.1736 5.2452-3.1736 8.3195v14.0606c0 .8265.3306 1.6199.9146 2.2039s1.3773.9146 2.2038.9146h3.6694c.3196-.5399.6722-1.0689 1.0469-1.5647l.0054-.007c.1856-.2401.3713-.4801.5677-.7093zm9.5647-39.9228c1.6529 0 3.2507.6612 4.4188 1.8292 1.168 1.168 1.8292 2.7659 1.8292 4.4187 0 1.653-.6612 3.2507-1.8292 4.4188-1.1681 1.168-2.7659 1.8292-4.4188 1.8292s-3.2506-.6612-4.4187-1.8292c-1.168-1.168-1.8292-2.7658-1.8292-4.4188 0-1.6528.6612-3.2506 1.8292-4.4187 1.168-1.157 2.7548-1.8181 4.4187-1.8292z"/><path d="m108.603 72.1273c.066 2.4462-.826 4.8153-2.479 6.6115 3.041.3526 5.851 1.8182 7.901 4.0992 2.038 2.2919 3.173 5.2562 3.173 8.3195v14.0715c0 .827-.33 1.62-.914 2.204s-1.378.915-2.204.915h-17.9946v-3.13h10.1596v-4.683c0-.8595.705-1.5648 1.565-1.5648.859 0 1.565.7052 1.565 1.5648v4.683h4.694v-14.0605c-.011-2.4794-.992-4.8595-2.755-6.6225-1.752-1.7632-4.132-2.7549-6.623-2.7549h-10.9417c-1.091 0-2.1818.1983-3.2066.573-.9366-.7934-1.9504-1.4656-3.0414-2.0165 1.4766-.8595 3.1295-1.3994 4.8265-1.5978-1.6529-1.7962-2.5455-4.1653-2.4794-6.6115.0661-2.4464 1.0799-4.7604 2.832-6.4684 1.7521-1.697 4.0992-2.6556 6.5455-2.6556 2.4461 0 4.7931.9476 6.5451 2.6556s2.766 4.0221 2.832 6.4684zm-4.958-4.1433c-1.168-1.1681-2.766-1.8292-4.4191-1.8292-1.6529 0-3.2397.6611-4.4187 1.8292-1.1681 1.168-1.8292 2.7658-1.8292 4.4187s.6611 3.2507 1.8292 4.4187c1.1681 1.1681 2.7658 1.8292 4.4187 1.8292 1.6531 0 3.2511-.6611 4.4191-1.8292 1.168-1.168 1.829-2.7658 1.829-4.4187s-.661-3.2507-1.829-4.4187z"/><path d="m45.3086 81.7801h10.9422c1.0909 0 2.1818.1984 3.2066.573.9366-.7824 1.9504-1.4656 3.0413-2.0165-1.4766-.8595-3.1295-1.4106-4.8264-1.5978 1.6529-1.7962 2.5455-4.1653 2.4793-6.6115-.0661-2.4463-1.0799-4.7604-2.8319-6.4684-1.7521-1.708-4.0992-2.6556-6.5455-2.6556s-4.7934.9586-6.5455 2.6556c-1.752 1.708-2.7658 4.022-2.8319 6.4684-.0662 2.4462.8264 4.8153 2.4793 6.6115-3.0524.3526-5.8623 1.8071-7.9008 4.0992-2.0386 2.2919-3.1736 5.2451-3.1736 8.3195v14.0605c0 .827.3306 1.62.9146 2.204s1.3774.915 2.2038.915h17.9724v-3.13h-10.1597v-4.683c0-.8596-.7053-1.5648-1.5647-1.5648-.8595 0-1.5647.7052-1.5647 1.5648v4.683h-4.6832v-14.0495c0-2.4904.9917-4.8705 2.7548-6.6226 1.7631-1.7631 4.1543-2.7548 6.6336-2.7548zm5.4766-15.6253c1.6529 0 3.2507.6611 4.4188 1.8292 1.168 1.168 1.8291 2.7658 1.8291 4.4187s-.6611 3.2507-1.8291 4.4187c-1.1681 1.1681-2.7659 1.8292-4.4188 1.8292s-3.2507-.6611-4.4187-1.8292c-1.1681-1.168-1.8292-2.7658-1.8292-4.4187s.6611-3.2507 1.8292-4.4187c1.168-1.1681 2.7548-1.8292 4.4187-1.8292z"/><path d="m84.3719 75.2567c.0662 2.4463-.8264 4.8155-2.4793 6.6116 3.0524.3526 5.8622 1.8071 7.8897 4.0991 2.0386 2.292 3.1736 5.2562 3.1736 8.3195v14.0611c0 .826-.3306 1.619-.9146 2.203s-1.3775.915-2.2039.915h-29.6969c-.8265 0-1.6199-.331-2.2039-.915s-.9146-1.377-.9146-2.203v-14.0611c0-3.0743 1.1351-6.0274 3.1736-8.3195 2.0385-2.2919 4.8485-3.7465 7.9008-4.0991-1.6529-1.7961-2.5454-4.1654-2.4793-6.6116.0661-2.4463 1.0799-4.7603 2.8319-6.4683 1.7521-1.697 4.0993-2.6557 6.5455-2.6557 2.4463 0 4.7934.9477 6.5455 2.6557 1.752 1.708 2.7659 4.022 2.8319 6.4683zm-4.9476-4.1543c-1.1681-1.168-2.7658-1.8292-4.4187-1.8292-1.6529.0111-3.2507.6612-4.4188 1.8292-1.168 1.168-1.8291 2.7659-1.8291 4.4188 0 1.6528.6611 3.2507 1.8291 4.4187 1.1681 1.168 2.7659 1.8291 4.4188 1.8291s3.2507-.6611 4.4187-1.8291c1.1681-1.1681 1.8292-2.7659 1.8292-4.4187 0-1.6529-.6611-3.2508-1.8292-4.4188zm5.741 37.2456h4.6943v-14.0611c-.011-2.4793-.9917-4.8595-2.7548-6.6225-1.7521-1.7631-4.1323-2.7549-6.6226-2.7549h-10.9421c-2.4794.0111-4.8595.9918-6.6226 2.7549-1.7631 1.7521-2.7548 4.1322-2.7548 6.6225v14.0611h4.6832v-4.684c0-.859.7052-1.564 1.5647-1.564s1.5647.705 1.5647 1.564v4.684h14.0606v-4.684c0-.859.7052-1.564 1.5648-1.564.8594 0 1.5646.705 1.5646 1.564z"/></g></svg>