<svg fill="none" viewBox="0 0 150 150" xmlns="http://www.w3.org/2000/svg"><path d="m75 150c-41.2539 0-75-33.759-75-74.9996 0-41.2539 33.7461-74.99991172 75-74.99991172 41.254 0 75 33.74601172 75 74.99991172 0 41.2406-33.746 74.9996-75 74.9996z" fill="#bae8f0"/><g clip-rule="evenodd" fill="#003047" fill-rule="evenodd"><path d="m80.3709 80.8603.8719.5812.8602-.5812c1.1742-.7905 28.819-19.4141 28.819-37.2356 0-8.6142-7.01-15.6242-15.6244-15.6242-6.2078 0-11.5438 3.5108-14.0665 7.5796-2.5227-4.0688-7.8586-7.5796-14.0548-7.5796-8.6143 0-15.6243 7.01-15.6243 15.6242 0 17.8215 27.6447 36.4567 28.8189 37.2356zm-25.6801-37.2356c0-6.8937 5.6033-12.4971 12.4971-12.4971 7.1263 0 12.4971 6.2428 12.5088 9.37h3.1271c0-3.1156 5.3709-9.37 12.4971-9.37 6.8941 0 12.4971 5.6034 12.4971 12.4971 0 14.4967-21.9018 30.7371-26.5636 34.027-4.6733-3.2899-26.5636-19.5187-26.5636-34.027z"/><path d="m43.7514 115.492h-18.7514v-3.127h18.7515v-28.1218h-18.7515v-3.1271h18.7515c1.7167 0 3.1208 1.4004 3.1271 3.1156h12.7645l17.182 6.2543h13.7876c3.441 0 6.2543 2.8017 6.2543 6.2543 0 .177-.0074.3524-.022.5258l21.901-6.7802c3.441 0 6.254 2.8017 6.254 6.2544 0 2.139-1.814 4.0227-2.023 4.2317l-.383.279-39.3982 20.483h-3.7782l-26.5636-9.369h-5.9753c-.0001 1.732-1.4067 3.127-3.1273 3.127zm3.1273-6.255v-21.8781h12.2296l17.1821 6.2543h14.3339c1.7205 0 3.1272 1.4066 3.1272 3.1272 0 .5956-.1663 1.1513-.4545 1.6241l-.0106.0033.0029.0093c-.5515.8954-1.5413 1.4904-2.665 1.4904h-17.1821c-3.4526 0-6.2543 2.8015-6.2543 6.2545h3.1272c0-1.732 1.395-3.127 3.1155-3.127h17.1821c1.7683 0 3.3659-.738 4.5038-1.921l23.8505-7.4492c1.615.1046 2.906 1.4648 2.906 3.1155 0 .5464-.535 1.3718-.965 1.8601l-38.4795 20.0066h-2.4761l-26.5636-9.37z"/></g></svg>