<svg fill="none" height="150" viewBox="0 0 150 150" width="150" xmlns="http://www.w3.org/2000/svg"><g fill="#003047"><path d="m75 61.2809c-7.5732 0-13.7195 6.1464-13.7195 13.7196 0 7.5731 6.1463 13.6829 13.7195 13.6829s13.7195-6.1464 13.7195-13.6829c-.0366-7.5732-6.1463-13.7196-13.7195-13.7196z"/><g clip-rule="evenodd" fill-rule="evenodd"><path d="m103.976 46.0249c1.426 1.4268 2.304 2.817 3.073 4.7195.549 1.4634 1.207 3.622 1.427 7.6463.219 4.3171.256 5.6342.256 16.6098 0 10.5851-.068 12.1867-.237 16.1598-.007.1466-.013.2964-.019.4499-.183 4.0244-.878 6.2196-1.427 7.6464-.732 1.9024-1.647 3.2924-3.073 4.7194-1.427 1.427-2.781 2.305-4.72 3.073-1.4634.586-3.6219 1.244-7.6463 1.427-4.317.183-5.6341.22-16.6097.22s-12.2562-.037-16.6098-.22c-4.0244-.183-6.1829-.878-7.6464-1.427-1.939-.768-3.2927-1.646-4.7195-3.073s-2.3049-2.78-3.0732-4.7194c-.5487-1.4635-1.2439-3.622-1.4268-7.6464-.0106-.3174-.0209-.6184-.0308-.9081-.1258-3.6837-.1887-5.5262-.1887-15.7016 0-10.9756.0366-12.2561.2195-16.6098.1829-4.0243.8781-6.2195 1.4268-7.6463.7318-1.9025 1.6098-3.2927 3.0732-4.7195 1.4268-1.4269 2.7806-2.3049 4.7195-3.0732 1.4635-.5488 3.622-1.2074 7.6464-1.3903 4.3171-.2195 5.6341-.2561 16.6098-.2561 10.5867 0 12.1872.0681 16.1616.2371.146.0062.2952.0126.4481.019 4.0244.1464 6.2195.8415 7.6463 1.3903 1.939.7317 3.293 1.6463 4.72 3.0732zm-50.0858 28.9756c0 11.6707 9.439 21.1097 21.1098 21.1097 11.6341 0 21.1097-9.439 21.1097-21.1097 0-11.6708-9.439-21.1098-21.1097-21.1098-11.6708 0-21.1098 9.439-21.1098 21.1098zm38.122-21.9512c0 2.7439 2.2317 4.939 4.939 4.939s4.9028-2.1951 4.9388-4.939c0-2.7073-2.1949-4.939-4.9388-4.939-2.7073 0-4.939 2.2317-4.939 4.939z"/><path d="m75 .00048828c-41.4513 0-75 33.58531172-75 75.00001172 0 41.4145 33.5487 74.9995 75 74.9995 41.451 0 75-33.585 75-74.9995-.037-41.4147-33.585-75.00001172-75-75.00001172zm40.866 91.93901172c-.183 4.3902-.915 7.3536-1.903 9.9875-1.061 2.708-2.451 5.012-4.756 7.281-2.268 2.268-4.573 3.695-7.28 4.719-2.5977 1.025-5.5977 1.72-9.9879 1.903l-.4028.017c-4.0839.17-5.7272.239-16.5729.239-11.1585 0-12.5488-.037-16.9756-.256-4.3537-.22-7.3536-.915-9.9512-1.903-2.7073-1.061-5.0122-2.451-7.2805-4.719-2.2682-2.305-3.6951-4.573-4.7561-7.281-1.0243-2.5973-1.7195-5.5973-1.9024-9.9875-.2195-4.3903-.2561-5.7805-.2561-16.939 0-11.1951.0366-12.5854.2561-16.9756.1829-4.3903.8781-7.3537 1.9024-9.9879 1.061-2.7073 2.4512-5.0121 4.7561-7.2804 2.2683-2.3049 4.5732-3.6951 7.2805-4.7561 2.5976-1.0244 5.5975-1.7196 9.9512-1.9025 4.3903-.2195 5.7805-.2561 16.9756-.2561 11.1586 0 12.5489.0366 16.9757.2561 4.3536.1829 7.3536.9147 9.9879 1.9025 2.707 1.061 5.012 2.4512 7.28 4.7561 2.269 2.2683 3.695 4.5732 4.756 7.2804 1.025 2.5976 1.72 5.5976 1.903 9.9879.006.1375.011.2721.017.4041.17 4.0829.239 5.727.239 16.5715 0 10.8076-.069 12.4517-.239 16.5333v.0004z"/></g></g></svg>