<svg fill="none" viewBox="0 0 150 150" xmlns="http://www.w3.org/2000/svg"><path d="m74.9861 150c1.4564 0 2.8512-.592 3.8633-1.641 2.2464-2.345 55.0726-58.0228 55.0726-89.4224 0-15.6382-6.208-30.6221-17.267-41.6811-11.047-11.04666-26.0308-17.25501172-41.6689-17.25501172-15.6258 0-30.622 6.20835172-41.6687 17.26731172-11.059 11.0467-17.2674 26.043-17.2674 41.6688 0 31.3996 52.8265 87.0644 55.0852 89.4224 1.0121 1.049 2.3945 1.641 3.8509 1.641zm-26.7835-91.0634c0-7.1094 2.8264-13.9225 7.8499-18.946 5.0235-5.0234 11.8366-7.8499 18.946-7.8499 7.1093 0 13.9224 2.8265 18.9459 7.8499 5.0234 5.0235 7.8496 11.8366 7.8496 18.946 0 7.1093-2.8385 13.9224-7.8619 18.9459-5.0235 5.0235-11.8366 7.8499-18.946 7.8499s-13.9101-2.8264-18.9459-7.8499c-5.0235-5.0235-7.8376-11.8366-7.8376-18.9459z" fill="#003047"/><path d="m86.3536 70.3039c3.0116-3.0115 4.7025-7.0969 4.7025-11.3675s-1.6909-8.356-4.7025-11.3676-7.097-4.7026-11.3676-4.7026c-4.2705 0-8.356 1.6909-11.3676 4.7026-3.0115 3.0115-4.7025 7.097-4.7025 11.3676s1.6909 8.3559 4.7025 11.3675 7.097 4.7026 11.3676 4.7026 8.356-1.6909 11.3676-4.7026z" fill="#db5072"/></svg>