<svg fill="none" viewBox="0 0 150 150" xmlns="http://www.w3.org/2000/svg"><path d="m150 27.5005v-15c0-3.30696-1.329-6.48736-3.671-8.82911-2.326-2.3418-5.506-3.67090172-8.829-3.67090172h-125c-3.307 0-6.48735 1.32910172-8.8291 3.67090172-2.3418 2.34175-3.6709 5.52215-3.6709 8.82911v15c0 5.538 2.057 10.8702 5.7437 14.9842 3.68665 4.1297 8.7658 6.7404 14.2563 7.3575v35.1425h-5c-3.9715 0-7.7848 1.5823-10.60125 4.3987-2.81645 2.8323-4.39875 6.6455-4.39875 10.6166v20c0 3.972 1.5823 7.785 4.39875 10.602 2.81645 2.816 6.62975 4.398 10.60125 4.398h5v10c0 1.788.9494 3.434 2.5 4.336 1.5507.886 3.4494.886 5 0 1.5507-.886 2.5-2.548 2.5-4.336v-10h90v10c0 1.788.949 3.434 2.5 4.336 1.551.886 3.449.886 5 0s2.5-2.548 2.5-4.336v-10h5c3.972 0 7.785-1.582 10.601-4.398 2.817-2.817 4.399-6.63 4.399-10.602v-20c0-3.9711-1.582-7.7843-4.399-10.6008-2.816-2.8164-6.629-4.3987-10.601-4.3987h-5v-35.1424c5.491-.6171 10.57-3.2437 14.256-7.3576 3.703-4.1298 5.744-9.462 5.744-15zm-37.5 87.4995h-75c-1.788 0-3.4335-.949-4.3354-2.5-.8861-1.55-.8861-3.449 0-5 .8861-1.55 2.5474-2.5 4.3354-2.5h75c1.788 0 3.434.95 4.335 2.5.887 1.551.887 3.45 0 5-.886 1.551-2.547 2.5-4.335 2.5zm-82.5-29.9995v-36.2817c3.9241-1.3924 7.3892-3.8607 10-7.1044 4.2563 5.3006 10.6962 8.3861 17.5 8.3861s13.2437-3.0855 17.5-8.3861c4.2563 5.3006 10.6962 8.3861 17.5 8.3861s13.244-3.0855 17.5-8.3861c2.611 3.2437 6.076 5.6962 10 7.1044v36.2975h-90z" fill="#003047"/></svg>