<svg fill="none" height="150" viewBox="0 0 150 150" width="150" xmlns="http://www.w3.org/2000/svg"><path d="m75 150c41.396 0 75-33.616 75-74.9995 0-41.3839-33.604-75.00001172-75-75.00001172-41.3961 0-75 33.61611172-75 75.00001172 0 41.3835 33.616 74.9995 75 74.9995zm0-142.86186c37.458 0 67.862 30.40476 67.862 67.86236 0 37.4575-30.404 67.8625-67.862 67.8625-37.4575 0-67.86235-30.405-67.86235-67.8625 0-37.4455 30.41695-67.86236 67.86235-67.86236z" fill="#db5072"/><path d="m24.9999 78.5753h-10.6156c.824 14.0693 6.4469 26.8537 15.2448 36.7547l7.489-7.501c1.3936-1.394 3.6597-1.394 5.0534 0 1.3935 1.393 1.3935 3.66 0 5.053l-7.5013 7.489c9.9007 8.798 22.6855 14.421 36.7548 15.233v-10.616c0-1.975 1.5996-3.575 3.5749-3.575s3.5749 1.6 3.5749 3.575v10.616c14.0693-.812 26.8542-6.435 36.7552-15.233l-7.502-7.489c-1.393-1.393-1.393-3.66 0-5.053 1.394-1.394 3.66-1.394 5.054 0l7.489 7.501c8.798-9.901 14.42-22.6854 15.232-36.7547h-10.615c-1.976 0-3.575-1.5996-3.575-3.5749s1.599-3.5749 3.575-3.5749h10.615c-.824-14.0694-6.434-26.8541-15.232-36.7548l-7.489 7.5012c-1.394 1.3936-3.66 1.3936-5.054 0-1.393-1.3936-1.393-3.6597 0-5.0533l7.502-7.489c-9.901-8.7979-22.6859-14.4208-36.7552-15.2448v10.6156c0 1.9753-1.5997 3.5749-3.5749 3.5749-1.9753 0-3.5749-1.5996-3.5749-3.5749v-10.6156c-14.0693.824-26.8541 6.4348-36.7548 15.2327l7.5012 7.489c1.3936 1.3936 1.3936 3.6597 0 5.0533s-3.6597 1.3936-5.0533 0l-7.4891-7.5012c-8.7978 9.9007-14.4206 22.6854-15.2325 36.7548h10.6156c1.9753 0 3.5749 1.5996 3.5749 3.5749-.0122 1.9874-1.6118 3.587-3.5871 3.587zm46.4251-38.9239c0-1.9753 1.5996-3.5749 3.5749-3.5749s3.5749 1.5996 3.5749 3.5749v33.8827l23.9582 23.9578c1.393 1.3936 1.393 3.6601 0 5.0531-1.394 1.394-3.6601 1.394-5.0537 0l-25-25.0119c-.6665-.6665-1.0421-1.5754-1.0421-2.5206v-35.3611z" fill="#003047"/></svg>