<svg xmlns="http://www.w3.org/2000/svg" width="1em" height="1em" viewBox="0 0 300 300"><path fill="#fff" d="M76 82c-5.27-4.44-13.3-9.26-20-11.07-2.96-.8-4.98-.89-8-.93-12.42-.14-21.15-.11-30.82 9.3-3.24 3.16-6.06 8.52-7.84 12.7-2.28 5.33-2.33 8.37-2.25 14v16c1.08 9.27 7.33 22.54 12.83 30C28.4 163.49 40.6 170.98 55 171c12.03.02 21.86-.4 30.82-10.04 7.6-8.19 8.35-14.64 9.26-24.96.91-8.47 1.51-8.13 0-17 19.17 18.3 52.33 20.21 68.71-3 2.77-3.92 4.86-7.38 6.21-12 2.89 7.73 4.17 14.13 9.53 21 6.65 8.53 14.94 11.98 25.47 12 5.56.01 9.5.34 15-1-1.22 5.43-1.93 6.11-2 12v10c.01 4.34-.13 6.83 1.47 11 4.34 11.34 13.18 18.85 25.53 19 13.62.16 20.48-.42 32-8.93 11.52-8.5 18.94-25.91 19-40.07.08-18.25-8.71-34.75-29-35-7.41-.09-8.85-.32-16 2 5.98-18.29 7.07-42.65-4.63-59-12.62-17.61-37.66-18.18-54.37-6.21-8.99 6.43-11.82 12.13-17 21.21-4.05-15.28-7.47-29.03-19.17-40.83C138.1 3.3 103.56 2.29 87.53 23 78.33 34.88 74.98 50.3 75 65l1 17zm1 0v1l-1-1h1zm63 56.52c-31.65 8.5-39.9 34.62-51.86 61.48-5.19 11.66-13.5 27.67-15.91 40v17c-.2 16.97 9.52 24.87 24.77 29.65 6.79 2.13 13.9 3.34 21 3.35h47c8.3-.01 17.93-1.62 26-3.63 21.74-5.4 39.96-15.26 40-40.37.01-4.68.29-10.52-.67-15-2.02-9.46-10.38-25.37-14.48-35-6.1-14.31-12.96-34.76-24.02-45.83C180.11 138.46 170.27 138 155 138c-5 0-10.05-.27-15 .52z"/><path fill="#0078bf" d="M147 148.22c-23.52 4.62-32.06 19.59-41.31 39.78l-12.11 27c-4.73 10.85-11.29 23.96-11.57 36-.11 4.87.13 9.63 2.55 14 3.54 6.39 9.75 9.27 16.44 11.28 14.36 4.31 25.42 3.72 40 3.72h14c12.99-.02 33.06-2.96 45-8.01 7.18-3.04 14.34-7.82 17.86-14.99 8.17-16.62-2-34.01-9.08-49-9.01-19.07-16-50.33-37.78-57.9-5.57-1.94-10.22-2.11-16-1.88h-8z"/><path fill="#00bfbf" d="M262 114.45c-18.77 3.4-33.21 19.28-33.96 38.55-.6 15.37 8.79 27.03 24.96 24.7 19.41-2.79 33.17-22.71 32.25-41.7-.66-13.53-9.32-22.75-23.25-21.55z"/><path fill="#ed2a26" d="M213 43.46c-20.64 4.6-32.77 25.3-33 45.54-.22 19.65 9.54 41.77 33 37.54 21.65-3.91 32.22-28.66 32-48.54-.21-18.24-11.42-37.32-32-34.54z"/><path fill="#ffc31b" d="M116 18.46C80.61 26.35 79.64 76.88 95.87 102c8.78 13.59 22.54 22.45 39.13 19.68 20.74-3.47 29.92-26.99 30-45.68.12-27.4-16.92-61.97-49-57.54z"/><path fill="#32b54f" d="M38 80.52C23.54 84.41 17.17 95.54 17 110c-.25 22.11 15.71 49.98 40 50.96 16.91.68 27.8-11.5 28-27.96.05-4.4.23-9.75-.67-14C79.87 98 61.14 76.85 38 80.52z"/></svg>